<svg xmlns="http://www.w3.org/2000/svg" width="125.001" height="124" viewBox="0 0 125.001 124">
  <g id="Grupo_1079626" data-name="Grupo 1079626" transform="translate(-580 -3662.296)">
    <g id="Grupo_159183" data-name="Grupo 159183" transform="translate(581.001 3662.296)">
      <path id="Unión_12" data-name="Unión 12" d="M62,0A62,62,0,1,1,0,62,62,62,0,0,1,62,0Z" fill="#01d8d1"/>
    </g>
    <g id="svg14" transform="translate(524 3628.72)">
      <g id="Grupo_1017783" data-name="Grupo 1017783" transform="translate(63.043 65.619)">
        <path id="Trazado_720038" data-name="Trazado 720038" d="M232.659,221.989l-13.929,5.586L201.5,184.647l11.768-4.725a2.331,2.331,0,0,1,3.021,1.282Z" transform="translate(-182.987 -179.757)" fill="#f4a640"/>
        <g id="Grupo_1017781" data-name="Grupo 1017781" transform="translate(17.996 3.131)">
          <rect id="Rectángulo_375641" data-name="Rectángulo 375641" width="27.084" height="38.08" transform="translate(0 4.729) rotate(-10.056)" fill="#adcfd8"/>
          <rect id="Rectángulo_375642" data-name="Rectángulo 375642" width="12.084" height="0.263" transform="translate(8.033 7.151) rotate(-10.056)" fill="#55769f"/>
          <rect id="Rectángulo_375643" data-name="Rectángulo 375643" width="17.178" height="0.263" transform="translate(5.402 6.911) rotate(-10.056)" fill="#55769f"/>
          <rect id="Rectángulo_375644" data-name="Rectángulo 375644" width="20.831" height="0.263" transform="translate(4.22 10.726) rotate(-10.056)" fill="#55769f"/>
          <rect id="Rectángulo_375645" data-name="Rectángulo 375645" width="20.831" height="0.263" transform="translate(4.447 12.008) rotate(-10.056)" fill="#55769f"/>
          <rect id="Rectángulo_375646" data-name="Rectángulo 375646" width="20.831" height="0.263" transform="translate(4.903 14.572) rotate(-10.056)" fill="#55769f"/>
          <rect id="Rectángulo_375647" data-name="Rectángulo 375647" width="20.831" height="0.263" transform="translate(5.134 15.871) rotate(-10.056)" fill="#55769f"/>
          <rect id="Rectángulo_375648" data-name="Rectángulo 375648" width="20.831" height="0.263" transform="translate(5.362 17.153) rotate(-10.056)" fill="#55769f"/>
          <rect id="Rectángulo_375649" data-name="Rectángulo 375649" width="20.831" height="0.263" transform="translate(6.363 22.809) rotate(-10.056)" fill="#55769f"/>
          <rect id="Rectángulo_375650" data-name="Rectángulo 375650" width="20.831" height="0.263" transform="translate(6.609 24.142) rotate(-10.056)" fill="#55769f"/>
          <rect id="Rectángulo_375651" data-name="Rectángulo 375651" width="20.831" height="0.263" transform="translate(6.835 25.461) rotate(-10.056)" fill="#55769f"/>
          <rect id="Rectángulo_375652" data-name="Rectángulo 375652" width="20.831" height="0.263" transform="translate(7.081 26.794) rotate(-10.056)" fill="#55769f"/>
          <rect id="Rectángulo_375653" data-name="Rectángulo 375653" width="20.831" height="0.263" transform="translate(7.31 28.13) rotate(-10.056)" fill="#55769f"/>
          <rect id="Rectángulo_375654" data-name="Rectángulo 375654" width="20.831" height="0.263" transform="translate(7.539 29.467) rotate(-10.056)" fill="#55769f"/>
          <rect id="Rectángulo_375655" data-name="Rectángulo 375655" width="20.831" height="0.263" transform="translate(7.785 30.8) rotate(-10.056)" fill="#55769f"/>
        </g>
        <g id="Grupo_1017782" data-name="Grupo 1017782" transform="translate(14.643 2.211)">
          <rect id="Rectángulo_375656" data-name="Rectángulo 375656" width="27.084" height="38.08" transform="matrix(0.967, -0.255, 0.255, 0.967, 0, 6.893)" fill="#daeef7"/>
          <rect id="Rectángulo_375657" data-name="Rectángulo 375657" width="12.084" height="0.263" transform="matrix(0.967, -0.255, 0.255, 0.967, 8.179, 8.635)" fill="#55769f"/>
          <rect id="Rectángulo_375658" data-name="Rectángulo 375658" width="17.178" height="0.263" transform="matrix(0.967, -0.255, 0.255, 0.967, 5.561, 8.628)" fill="#55769f"/>
          <rect id="Rectángulo_375659" data-name="Rectángulo 375659" width="20.831" height="0.263" transform="matrix(0.967, -0.255, 0.255, 0.967, 4.687, 12.503)" fill="#55769f"/>
          <rect id="Rectángulo_375660" data-name="Rectángulo 375660" width="20.831" height="0.263" transform="matrix(0.967, -0.255, 0.255, 0.967, 5.021, 13.767)" fill="#55769f"/>
          <rect id="Rectángulo_375661" data-name="Rectángulo 375661" width="20.831" height="0.263" transform="matrix(0.967, -0.255, 0.255, 0.967, 5.69, 16.295)" fill="#55769f"/>
          <rect id="Rectángulo_375662" data-name="Rectángulo 375662" width="20.831" height="0.263" transform="matrix(0.967, -0.255, 0.255, 0.967, 6.007, 17.564)" fill="#55769f"/>
          <rect id="Rectángulo_375663" data-name="Rectángulo 375663" width="20.831" height="0.263" transform="matrix(0.967, -0.255, 0.255, 0.967, 6.341, 18.828)" fill="#55769f"/>
          <rect id="Rectángulo_375664" data-name="Rectángulo 375664" width="20.831" height="0.263" transform="matrix(0.967, -0.255, 0.255, 0.967, 7.815, 24.376)" fill="#55769f"/>
          <rect id="Rectángulo_375665" data-name="Rectángulo 375665" width="20.831" height="0.263" transform="matrix(0.967, -0.255, 0.255, 0.967, 8.151, 25.695)" fill="#55769f"/>
          <rect id="Rectángulo_375666" data-name="Rectángulo 375666" width="20.831" height="0.263" transform="matrix(0.967, -0.255, 0.255, 0.967, 8.5, 26.994)" fill="#55769f"/>
          <rect id="Rectángulo_375667" data-name="Rectángulo 375667" width="20.831" height="0.263" transform="matrix(0.967, -0.255, 0.255, 0.967, 8.836, 28.314)" fill="#55769f"/>
          <rect id="Rectángulo_375668" data-name="Rectángulo 375668" width="20.831" height="0.263" transform="matrix(0.967, -0.255, 0.255, 0.967, 9.184, 29.612)" fill="#55769f"/>
          <rect id="Rectángulo_375669" data-name="Rectángulo 375669" width="20.831" height="0.263" transform="matrix(0.967, -0.255, 0.255, 0.967, 9.537, 30.928)" fill="#55769f"/>
          <rect id="Rectángulo_375670" data-name="Rectángulo 375670" width="20.831" height="0.263" transform="matrix(0.967, -0.255, 0.255, 0.967, 9.869, 32.23)" fill="#55769f"/>
        </g>
        <path id="Trazado_720039" data-name="Trazado 720039" d="M140.486,224.14,112.453,235.4,96.1,194.684l23.554-14.526a2.507,2.507,0,0,1,3.636,1.194Z" transform="translate(-96.1 -179.782)" fill="#feb546"/>
      </g>
      <g id="Grupo_1017784" data-name="Grupo 1017784" transform="translate(63.939 109.268)">
        <path id="Trazado_720040" data-name="Trazado 720040" d="M107.611,433.628l-4-.07c-1.388-2.512-2.406-4.707-2.406-4.707a19.283,19.283,0,0,1,11.5.615l1.756,4.251.369-3.267c7.869,4.251,11.118,13.244,11.118,13.244s-13.911-1.475-16.862-2.845c-1.142-.527-2.582-2.441-3.9-4.567C106.259,435.244,107.611,433.628,107.611,433.628Z" transform="translate(-101.2 -428.265)" fill="#ff5b7e"/>
        <path id="Trazado_720041" data-name="Trazado 720041" d="M101.2,431.7s17.863,7.518,24.748,14.824c0,0-13.911-1.475-16.862-2.845-1.142-.527-2.582-2.441-3.9-4.567,1.071-1.019,2.424-2.617,2.424-2.617l-4-.07C102.219,433.878,101.2,431.7,101.2,431.7Z" transform="translate(-101.2 -431.097)" fill="#e03268"/>
        <path id="Trazado_720042" data-name="Trazado 720042" d="M104.5,487.214a18.505,18.505,0,0,1,7.184-2.564c.685.861,1.528,1.862,1.528,1.862l.088-2c9.011-.4,16.476,5.621,16.476,5.621-5.217,3.285-9.66,4.2-13.314,3.9l-.527-1.756-.65,1.616a15.862,15.862,0,0,1-4.619-1.493c.334-.843.7-1.792.7-1.792l-1.95,1.107A16.667,16.667,0,0,1,104.5,487.214Z" transform="translate(-103.92 -474.614)" fill="#ff5b7e"/>
        <path id="Trazado_720043" data-name="Trazado 720043" d="M116.461,505.787l-.527-1.756-.65,1.616a15.859,15.859,0,0,1-4.619-1.493c.334-.843.7-1.792.7-1.792l-1.95,1.107a16.845,16.845,0,0,1-4.918-4.514c10.5-1.212,25.275,2.916,25.275,2.916C124.559,505.172,120.1,506.086,116.461,505.787Z" transform="translate(-103.92 -486.354)" fill="#e03268"/>
      </g>
      <path id="Trazado_720044" data-name="Trazado 720044" d="M356.859,156.305l3.232-2.371c-.316-2.863-.755-5.234-.755-5.234a19.382,19.382,0,0,0-9.046,7.131l1.019,4.479-2.2-2.459c-3.97,8.009-1.44,17.231-1.44,17.231s10.5-9.239,12.12-12.067c.632-1.089.7-3.478.544-5.99C358.9,156.815,356.859,156.305,356.859,156.305Z" transform="translate(-239.788 -88.536)" fill="#02ccc0"/>
      <path id="Trazado_720045" data-name="Trazado 720045" d="M363.145,148.7s-10.24,16.44-11.645,26.382c0,0,10.5-9.239,12.12-12.067.632-1.089.7-3.478.544-5.99-1.458-.211-3.5-.738-3.5-.738l3.232-2.371C363.584,151.071,363.145,148.7,363.145,148.7Z" transform="translate(-243.597 -88.536)" fill="#06bfad"/>
      <path id="Trazado_720046" data-name="Trazado 720046" d="M365.652,206.4a18.3,18.3,0,0,0-7.342,2.055c-.07,1.089-.176,2.406-.176,2.406l-1.229-1.581c-7.588,4.865-10.2,14.1-10.2,14.1,6.165-.334,10.31-2.16,13.121-4.5-.228-.7-.58-1.721-.58-1.721l1.458.948a15.713,15.713,0,0,0,2.916-3.882c-.755-.492-1.6-1.054-1.6-1.054l2.231-.228A17.247,17.247,0,0,0,365.652,206.4Z" transform="translate(-239.64 -136.101)" fill="#02ccc0"/>
      <path id="Trazado_720047" data-name="Trazado 720047" d="M360,218.871c-.228-.7-.58-1.721-.58-1.721l1.458.948a15.714,15.714,0,0,0,2.916-3.882c-.755-.492-1.6-1.054-1.6-1.054l2.231-.228a16.974,16.974,0,0,0,1.423-6.534c-9.274,5.076-18.952,16.967-18.952,16.967C353.03,223.051,357.193,221.224,360,218.871Z" transform="translate(-239.805 -136.101)" fill="#06bfad"/>
      <g id="Grupo_1017785" data-name="Grupo 1017785" transform="translate(99.999 81.663)">
        <path id="Trazado_720048" data-name="Trazado 720048" d="M358.3,271.451h1.915a2.03,2.03,0,0,0-1.124-.351H311.049a4.318,4.318,0,0,0-4.549,4.04V277.7a4.318,4.318,0,0,0,4.549,4.04l47.494-.018Z" transform="translate(-306.5 -271.1)" fill="#e03268"/>
        <path id="Trazado_720049" data-name="Trazado 720049" d="M324.536,277.7V275.14a4.318,4.318,0,0,1,4.549-4.04h-1.036a4.318,4.318,0,0,0-4.549,4.04V277.7a4.318,4.318,0,0,0,4.549,4.04h1.019A4.325,4.325,0,0,1,324.536,277.7Z" transform="translate(-320.514 -271.1)" fill="#feb546"/>
        <path id="Trazado_720050" data-name="Trazado 720050" d="M388.636,277.7V275.14a4.318,4.318,0,0,1,4.549-4.04h-1.036a4.318,4.318,0,0,0-4.549,4.04V277.7a4.318,4.318,0,0,0,4.549,4.04h1.019A4.313,4.313,0,0,1,388.636,277.7Z" transform="translate(-373.355 -271.1)" fill="#feb546"/>
        <path id="Trazado_720051" data-name="Trazado 720051" d="M425.656,271.2a4.126,4.126,0,0,0-4.356,3.864v2.9a4.138,4.138,0,0,0,4.356,3.864h29.895v-.65h-.123l-7.605-.632-1.528-5.34s2.968-2.951,3.162-3.021,5.972-.3,5.972-.3h.123v-.65H425.656Z" transform="translate(-401.136 -271.182)" fill="#ff5b7e"/>
        <path id="Trazado_720052" data-name="Trazado 720052" d="M458.153,279.537a6.153,6.153,0,0,1,1.827-4.637H430.8a3.791,3.791,0,0,0-4,3.548v2.231a3.8,3.8,0,0,0,4,3.548h29.175C459.979,284.209,458.153,283.471,458.153,279.537Z" transform="translate(-405.67 -274.233)" fill="#daeef7"/>
        <path id="Trazado_720053" data-name="Trazado 720053" d="M426.9,278.448v2.231a2.648,2.648,0,0,0,.123.843,8.375,8.375,0,0,1,6.464-4.848c8.378-1.546,26.593-1.774,26.593-1.774H430.887A3.786,3.786,0,0,0,426.9,278.448Z" transform="translate(-405.752 -274.233)" fill="#daeef7"/>
      </g>
      <g id="Grupo_1017786" data-name="Grupo 1017786" transform="translate(92.376 102.846)">
        <path id="Trazado_720054" data-name="Trazado 720054" d="M321.73,392.122h2.178a2.118,2.118,0,0,0-1.282-.422h-54.38a5.1,5.1,0,0,0-5.146,5.041v3.214A5.087,5.087,0,0,0,268.246,405l53.747-.018Z" transform="translate(-263.1 -391.7)" fill="#284c7a"/>
        <path id="Trazado_720055" data-name="Trazado 720055" d="M398.118,391.7a4.869,4.869,0,0,0-4.918,4.83v3.618a4.881,4.881,0,0,0,4.918,4.83h33.847v-.808h-.158l-8.607-.79-1.739-6.692s3.355-3.689,3.583-3.794c.211-.088,6.762-.386,6.762-.386h.141V391.7H398.118Z" transform="translate(-370.349 -391.7)" fill="#55769f"/>
        <path id="Trazado_720056" data-name="Trazado 720056" d="M434.78,402.114a8.115,8.115,0,0,1,2.055-5.814h-33a4.487,4.487,0,0,0-4.532,4.426v2.793a4.476,4.476,0,0,0,4.532,4.426h33C436.853,407.963,434.78,407.032,434.78,402.114Z" transform="translate(-375.377 -395.492)" fill="#daeef7"/>
        <path id="Trazado_720057" data-name="Trazado 720057" d="M399.4,400.726v2.793a4.375,4.375,0,0,0,.141,1.071,9.7,9.7,0,0,1,7.307-6.077c9.485-1.932,30.088-2.213,30.088-2.213H403.914A4.472,4.472,0,0,0,399.4,400.726Z" transform="translate(-375.46 -395.492)" fill="#daeef7"/>
      </g>
      <g id="Grupo_1017787" data-name="Grupo 1017787" transform="translate(87.616 92.272)">
        <path id="Trazado_720058" data-name="Trazado 720058" d="M242.678,331.934H240.5a2.531,2.531,0,0,1,1.282-.334h54.38c2.845,0,5.146,1.792,5.146,4v2.547c0,2.213-2.3,4-5.146,4l-53.765-.018Z" transform="translate(-239.71 -331.582)" fill="#02ccc0"/>
        <path id="Trazado_720059" data-name="Trazado 720059" d="M269.847,331.6c2.722,0,4.918,1.721,4.918,3.829v2.881c0,2.108-2.213,3.829-4.918,3.829H236v-.65h.141l8.607-.632,1.739-5.3s-3.355-2.933-3.583-3c-.211-.07-6.762-.3-6.762-.3H236v-.632h33.847Z" transform="translate(-236 -331.582)" fill="#06bfad"/>
        <path id="Trazado_720060" data-name="Trazado 720060" d="M238.855,339.9a5.823,5.823,0,0,0-2.055-4.6h33.021c2.494,0,4.532,1.581,4.532,3.513v2.213c0,1.95-2.02,3.513-4.532,3.513H236.8C236.782,344.539,238.855,343.8,238.855,339.9Z" transform="translate(-236.659 -334.633)" fill="#daeef7"/>
        <path id="Trazado_720061" data-name="Trazado 720061" d="M274.253,338.812v2.213a2.652,2.652,0,0,1-.141.843c-1.107-2.125-3.249-4.163-7.307-4.813-9.485-1.528-30.106-1.756-30.106-1.756h33.021C272.233,335.282,274.253,336.863,274.253,338.812Z" transform="translate(-236.577 -334.632)" fill="#daeef7"/>
        <path id="Trazado_720062" data-name="Trazado 720062" d="M505.946,338.052V335.5c0-2.213-2.3-4-5.146-4h5.164c2.845,0,5.146,1.792,5.146,4v2.547c0,2.213-2.3,4-5.146,4H500.87C503.681,342.021,505.946,340.247,505.946,338.052Z" transform="translate(-454.289 -331.5)" fill="#55769f" opacity="0.5"/>
      </g>
      <path id="Trazado_720063" data-name="Trazado 720063" d="M218.636,467.886H216.3a2.567,2.567,0,0,1,1.388-.386h58.63c3.074,0,5.55,2,5.55,4.479v2.845c0,2.477-2.494,4.479-5.55,4.479l-57.963-.018Z" transform="translate(-132.144 -351.34)" fill="#feb546"/>
      <path id="Trazado_720064" data-name="Trazado 720064" d="M247.781,467.6c2.933,0,5.3,1.915,5.3,4.286V475.1c0,2.371-2.371,4.286-5.3,4.286H211.3v-.72h.158l9.274-.7,1.879-5.937s-3.618-3.285-3.847-3.355c-.228-.088-7.289-.334-7.289-.334h-.158v-.72h36.464Z" transform="translate(-128.022 -351.423)" fill="#f4a640"/>
      <path id="Trazado_720065" data-name="Trazado 720065" d="M214.231,476.846A6.614,6.614,0,0,0,212,471.7h35.6c2.687,0,4.883,1.756,4.883,3.934v2.477c0,2.178-2.178,3.934-4.883,3.934H212.018C212.018,482.028,214.231,481.2,214.231,476.846Z" transform="translate(-128.599 -354.802)" fill="#daeef7"/>
      <path id="Trazado_720066" data-name="Trazado 720066" d="M252.586,475.617v2.477a3.442,3.442,0,0,1-.141.948c-1.194-2.371-3.5-4.655-7.886-5.375-10.223-1.7-32.459-1.967-32.459-1.967h35.6C250.391,471.7,252.586,473.456,252.586,475.617Z" transform="translate(-128.682 -354.802)" fill="#daeef7"/>
      <path id="Trazado_720067" data-name="Trazado 720067" d="M227.175,535.5H128.55a.66.66,0,0,1-.65-.65h0a.66.66,0,0,1,.65-.65h98.625a.66.66,0,0,1,.65.65h0A.66.66,0,0,1,227.175,535.5Z" transform="translate(-59.271 -406.325)" fill="#c4dfe8"/>
      <path id="Trazado_720068" data-name="Trazado 720068" d="M124.4,238.925,143.493,228l2.582,5.111-19.532,10.328Z" transform="translate(-56.386 -153.907)" fill="#f4a640"/>
      <path id="Trazado_720069" data-name="Trazado 720069" d="M323.017,113.1s-.158,1.493-1.317,1.581c1.177.105,1.317,1.581,1.317,1.581s.158-1.493,1.317-1.581C323.158,114.593,323.017,113.1,323.017,113.1Z" transform="translate(-219.031 -59.189)" fill="#02ccc0"/>
      <path id="Trazado_720070" data-name="Trazado 720070" d="M205.756,48.2s-.193,1.985-1.756,2.108c1.563.141,1.756,2.108,1.756,2.108s.193-1.985,1.756-2.108C205.95,50.167,205.756,48.2,205.756,48.2Z" transform="translate(-122.005 -5.688)" fill="#feb546"/>
      <path id="Trazado_720071" data-name="Trazado 720071" d="M161.877,148.9s-.141,1.335-1.177,1.423c1.054.088,1.177,1.423,1.177,1.423s.141-1.335,1.177-1.423C162.017,150.217,161.877,148.9,161.877,148.9Z" transform="translate(-86.31 -88.701)" fill="#ff5b7e"/>
      <path id="Trazado_720072" data-name="Trazado 720072" d="M687.756,329.2s-.193,1.985-1.756,2.108c1.563.141,1.756,2.108,1.756,2.108s.193-1.985,1.756-2.108C687.95,331.185,687.756,329.2,687.756,329.2Z" transform="translate(-519.344 -237.332)" fill="#ff5b7e"/>
      <path id="Trazado_720073" data-name="Trazado 720073" d="M57.756,230.1s-.193,1.985-1.756,2.108c1.563.141,1.756,2.108,1.756,2.108s.193-1.985,1.756-2.108C57.967,232.085,57.756,230.1,57.756,230.1Z" transform="translate(0 -155.638)" fill="#02ccc0"/>
      <path id="Trazado_720074" data-name="Trazado 720074" d="M711.456,218.1s-.193,1.985-1.756,2.108c1.563.141,1.756,2.108,1.756,2.108s.193-1.985,1.756-2.108C711.65,220.067,711.456,218.1,711.456,218.1Z" transform="translate(-538.881 -145.746)" fill="#02ccc0"/>
      <path id="Trazado_720075" data-name="Trazado 720075" d="M434.357,41.3s-.193,1.985-1.756,2.108c1.563.141,1.756,2.108,1.756,2.108s.193-1.985,1.756-2.108C434.55,43.267,434.357,41.3,434.357,41.3Z" transform="translate(-310.452)" fill="#ff5b7e"/>
      <path id="Trazado_720076" data-name="Trazado 720076" d="M628.449,135.3s-.105,1.247-.949,1.335c.843.088.949,1.335.949,1.335s.105-1.247.948-1.335C628.554,136.547,628.449,135.3,628.449,135.3Z" transform="translate(-471.119 -77.489)" fill="#feb546"/>
      <g id="Grupo_1017789" data-name="Grupo 1017789" transform="translate(83.684 88.794)">
        <path id="Trazado_720077" data-name="Trazado 720077" d="M222.721,481.7l-2.635.141-.334,7.816-1.352.65.07.281.509.123s1.616-.035,1.669-.035a2.614,2.614,0,0,0,.386-.369l-.053-.07.263-.176Z" transform="translate(-217.559 -451.84)" fill="#ffc0bb"/>
        <path id="Trazado_720078" data-name="Trazado 720078" d="M263.421,490.307s-1.317-.667-1.352-.65l.3-7.957-3.267.018,1.475,8.361.158.105a2.345,2.345,0,0,1-.088.3c-.018.105.562.105.755.141s.79.105,1.159.193a1.274,1.274,0,0,0,.843-.193Z" transform="translate(-251.11 -451.84)" fill="#ffc0bb"/>
        <path id="Trazado_720079" data-name="Trazado 720079" d="M252.864,335.352c-.386-.984-.755-.6-1.44-1.792a2.75,2.75,0,0,1-.246-.667,3.306,3.306,0,0,0-1.054-1.756,3.708,3.708,0,0,0-3.425-.773s.474,2.687.562,3.232c-.4.544-.808,1.107-.808,1.107s-.843,4.409.474,4.8c1.335.369,1.563-.228,2.213-.544s1.282.544,2.248-.053c.738-.457.369-1.581.755-1.792A1.286,1.286,0,0,0,252.864,335.352Z" transform="translate(-240.466 -326.973)" fill="#f50"/>
        <path id="Trazado_720080" data-name="Trazado 720080" d="M219.442,320.948c-.018-.018-.632-.351-1.212-.685l3.548-3.952s-1.071-.211-1.142-.211-1.6.474-1.6.474l-1.581.422c-1.212,4.426-2.722,5.217-2.722,5.217a1.827,1.827,0,0,0-.527.562,1.3,1.3,0,0,0,.351,1.862c.351.281-.228,1.317.4,1.9.843.755,1.616.035,2.2.474.58.422.7,1.054,2.09.931,1.37-.123,1.37-4.619,1.37-4.619S219.477,320.965,219.442,320.948Z" transform="translate(-213.894 -315.327)" fill="#f50"/>
        <path id="Trazado_720081" data-name="Trazado 720081" d="M259.963,376.658s1.177,5.586.826,6.183c-.334.6-4.8.79-4.8.79l-.193-7.166,1.7-2.564Z" transform="translate(-248.39 -362.975)" fill="#ff5b7e"/>
        <path id="Trazado_720082" data-name="Trazado 720082" d="M231.831,410.983l-.826-2.283s-2.74-1-2.916-1c-.176-.018-2.494,1-2.494,1s-.7,1.44-.843,1.686a6.831,6.831,0,0,0,.281,1.774l-.984.053-.65,14.42a3.667,3.667,0,0,0,2.933.105l1.247-12.594,1.089-.158,1.634,12.488a3.21,3.21,0,0,0,3.162.158l-1.23-13.893A7.5,7.5,0,0,0,231.831,410.983Z" transform="translate(-221.681 -390.837)" fill="#07085b"/>
        <path id="Trazado_720083" data-name="Trazado 720083" d="M241.1,363.539a14.355,14.355,0,0,1,3.478-.088c2.266.158-1.054,1.44-1.054,1.44s-1.159-.035-1.212-.053S241.1,363.539,241.1,363.539Z" transform="translate(-236.272 -354.318)" fill="#ffc0bb"/>
        <rect id="Rectángulo_375671" data-name="Rectángulo 375671" width="2.002" height="3.53" transform="translate(5.689 7.957)" fill="#ffc0bb"/>
        <path id="Trazado_720084" data-name="Trazado 720084" d="M248,354.794V353.6h-2v1.019A2.918,2.918,0,0,0,248,354.794Z" transform="translate(-240.311 -346.24)" fill="#f99893"/>
        <path id="Trazado_720085" data-name="Trazado 720085" d="M235.223,319.356a.751.751,0,0,0-.615.018,3.267,3.267,0,1,0-6.534,0,.638.638,0,0,0-.615-.018.95.95,0,0,0,.808,1.669.383.383,0,0,0,.141-.088,2.955,2.955,0,0,0,5.867,0,.383.383,0,0,0,.141.088.857.857,0,0,0,1.071-.509A.843.843,0,0,0,235.223,319.356Z" transform="translate(-224.721 -315.316)" fill="#ffc0bb"/>
        <path id="Trazado_720086" data-name="Trazado 720086" d="M243.962,337.256a.282.282,0,1,1-.3-.263A.277.277,0,0,1,243.962,337.256Z" transform="translate(-238.168 -332.548)" fill="#333"/>
        <path id="Trazado_720087" data-name="Trazado 720087" d="M257.462,337.363a.282.282,0,1,1-.3-.263A.29.29,0,0,1,257.462,337.363Z" transform="translate(-249.297 -332.639)" fill="#333"/>
        <path id="Trazado_720088" data-name="Trazado 720088" d="M241.046,333.786a1.714,1.714,0,0,0-.4-.105,1.427,1.427,0,0,0-.386-.018,1.41,1.41,0,0,0-.369.088l-.053.018c-.018,0-.035.018-.053.018l-.088.053c-.07.035-.123.07-.193.105a.63.63,0,0,1,.123-.176.688.688,0,0,1,.176-.141.952.952,0,0,1,.422-.158.812.812,0,0,1,.457.07A.606.606,0,0,1,241.046,333.786Z" transform="translate(-234.953 -329.641)" fill="#f50"/>
        <path id="Trazado_720089" data-name="Trazado 720089" d="M254.6,333.612a.748.748,0,0,1,.351-.263,1,1,0,0,1,.457-.07.88.88,0,0,1,.422.158.688.688,0,0,1,.176.141,1.064,1.064,0,0,1,.123.176c-.07-.035-.123-.07-.193-.105l-.088-.053c-.018,0-.035-.018-.053-.018l-.053-.018a1.408,1.408,0,0,0-.369-.088,1.428,1.428,0,0,0-.386.018C254.881,333.524,254.741,333.56,254.6,333.612Z" transform="translate(-247.401 -329.485)" fill="#f50"/>
        <path id="Trazado_720090" data-name="Trazado 720090" d="M252.066,336.3a1.874,1.874,0,0,0,.018.439l.053.211a1.313,1.313,0,0,0,.123.211c.07.053.105.07.123.123a.171.171,0,0,1-.018.158.737.737,0,0,1-.3.263.462.462,0,0,0,.386-.211.247.247,0,0,0,.035-.246.478.478,0,0,0-.141-.176.547.547,0,0,1-.123-.158.629.629,0,0,1-.07-.193A3.6,3.6,0,0,0,252.066,336.3Z" transform="translate(-245.306 -331.979)" fill="#f99893"/>
        <path id="Trazado_720091" data-name="Trazado 720091" d="M246.9,346.035a1.6,1.6,0,0,0,.228.141c.088.035.158.07.246.105a2.8,2.8,0,0,0,.527.105,1.41,1.41,0,0,0,.527-.105A2.592,2.592,0,0,0,248.9,346c-.07.07-.141.123-.211.193a1.12,1.12,0,0,1-.246.141,1.423,1.423,0,0,1-.545.123,1.177,1.177,0,0,1-.544-.123A2.549,2.549,0,0,1,246.9,346.035Z" transform="translate(-241.053 -339.975)" fill="#f99893"/>
        <path id="Trazado_720092" data-name="Trazado 720092" d="M226.352,364.328a3.3,3.3,0,0,0-2.582-.826,1.974,1.974,0,0,1-1.388.615h-.035a2.23,2.23,0,0,1-.878-.228,3,3,0,0,1-.509-.386,3.283,3.283,0,0,0-2.582.826,14.514,14.514,0,0,0-2.178,3.39,6.01,6.01,0,0,0,2.687,1.405s.632,2.933.773,3.126a6.743,6.743,0,0,0,1.616.474,5.1,5.1,0,0,0,1.019.088h.105a6.846,6.846,0,0,0,1.019-.088,6.418,6.418,0,0,0,1.616-.474c.123-.193.773-3.126.773-3.126a6.011,6.011,0,0,0,2.687-1.405A14.554,14.554,0,0,0,226.352,364.328Z" transform="translate(-215.746 -354.386)" fill="#02ccc0"/>
        <g id="Grupo_1017788" data-name="Grupo 1017788" transform="translate(0.226 17.065)">
          <path id="Trazado_720093" data-name="Trazado 720093" d="M249.924,408.866a.7.7,0,0,1,.632.228l-.018.755-.492.228a5.491,5.491,0,0,1-.562-.527C249.52,409.534,249.924,408.866,249.924,408.866Z" transform="translate(-243.408 -408.859)" fill="#e03268"/>
          <path id="Trazado_720094" data-name="Trazado 720094" d="M225.631,414.96l-6.5,1.879-.632-4.76L225,410.2Z" transform="translate(-217.868 -409.965)" fill="#e03268"/>
          <path id="Trazado_720095" data-name="Trazado 720095" d="M219,415.572l.58.492,6.218-1.792-.562-4.479-.439-.193Z" transform="translate(-218.28 -409.47)" fill="#daeef7"/>
          <path id="Trazado_720096" data-name="Trazado 720096" d="M251.847,414.272l-.439-.386-.808-.878.053-2.459.193-.948.439.176Z" transform="translate(-244.329 -409.47)" fill="#daeef7"/>
          <path id="Trazado_720097" data-name="Trazado 720097" d="M221.978,413.309l-6.5,1.879-.58-4.409,6.516-1.879Z" transform="translate(-214.9 -408.893)" fill="#ff5b7e"/>
        </g>
        <path id="Trazado_720098" data-name="Trazado 720098" d="M232.024,381a4.918,4.918,0,0,0-.422.58,4.162,4.162,0,0,0-.334.615,4.216,4.216,0,0,0-.211.667,2.342,2.342,0,0,0-.018.7,1.975,1.975,0,0,1-.07-.72,2,2,0,0,1,.193-.7,2.721,2.721,0,0,1,.369-.615A4.713,4.713,0,0,1,232.024,381Z" transform="translate(-227.916 -368.828)" fill="#daeef7"/>
        <path id="Trazado_720099" data-name="Trazado 720099" d="M216.368,394.8c-1.142-1.932-.615-4.3-.158-5.6A6.352,6.352,0,0,1,214.19,388c-1.827,4.128,1.265,7.658,1.265,7.658h0c.053.141.105.246.105.246.738,1.317.755,1.3.808,1.282s-.088-.65-.035-.65c.07,0,.527.755.562.685s-.3-.826-.263-.826c.053-.018.492.72.58.667.088-.07-.4-.861-.316-.878s.6.808.667.738a5.568,5.568,0,0,0-.632-1.282.059.059,0,0,1,.053-.088c.685.035.738,0,.72-.07A9,9,0,0,0,216.368,394.8Z" transform="translate(-213.613 -374.598)" fill="#ffc0bb"/>
        <path id="Trazado_720100" data-name="Trazado 720100" d="M263.888,361.488c-1.405,5.059.3,6.534.3,6.587l-.246,1.177s-3.46-2.248-1.265-8.238a.285.285,0,0,1,.4-.176l.65.3A.308.308,0,0,1,263.888,361.488Z" transform="translate(-253.457 -352.179)" fill="#e03268"/>
        <path id="Trazado_720101" data-name="Trazado 720101" d="M274.572,396.9a1.33,1.33,0,0,1-.088-.246h0l-.07-.492a42.544,42.544,0,0,0-.826-7.36,5.434,5.434,0,0,1-2.389,1.177,21.375,21.375,0,0,1,2.055,6.727,9.125,9.125,0,0,0-.492,1.229c.035.053.105.053.562-.4.035-.035.088-.018.088.018a7.407,7.407,0,0,0,.351,1.317c.105,0-.07-.9.018-.931.088-.053.228.826.334.808s-.053-.808,0-.826c.035-.018.281.72.334.755.07.035-.088-.79-.035-.843.053-.035.334.492.386.474C274.853,398.3,274.889,398.3,274.572,396.9Z" transform="translate(-261.085 -375.258)" fill="#ffc0bb"/>
        <path id="Trazado_720102" data-name="Trazado 720102" d="M229.392,315.7a3.851,3.851,0,0,1,3.987-4s-.123,3.689-3.408,4.04l-.246-.492Z" transform="translate(-226.619 -311.7)" fill="#f50"/>
        <path id="Trazado_720103" data-name="Trazado 720103" d="M251.011,311.793s3.39-.193,3.583,3.97a.911.911,0,0,0-.439.088,4.866,4.866,0,0,1-3.355-3.285Z" transform="translate(-244.268 -311.776)" fill="#f50"/>
        <path id="Trazado_720104" data-name="Trazado 720104" d="M217.036,529.58c-.685.07-1-.088-1.142-.281l-.457.3a.22.22,0,0,0,.123.4h3a.2.2,0,0,0,.193-.193V529A2.886,2.886,0,0,1,217.036,529.58Z" transform="translate(-215.036 -490.832)" fill="#07085b"/>
        <path id="Trazado_720105" data-name="Trazado 720105" d="M269.121,529.58c.685.07,1-.088,1.142-.281l.457.3a.22.22,0,0,1-.123.4h-3a.2.2,0,0,1-.193-.193V529A2.886,2.886,0,0,0,269.121,529.58Z" transform="translate(-257.953 -490.832)" fill="#07085b"/>
      </g>
      <g id="Grupo_1017805" data-name="Grupo 1017805" transform="translate(145.807 71.441)">
        <g id="Grupo_1017803" data-name="Grupo 1017803" transform="translate(0 1.579)">
          <path id="Trazado_720106" data-name="Trazado 720106" d="M630.6,379.2l3.478.281-1.124,2.81-1.756-.141-.738,2.336c-.176-.088-.316-.141-.334-.158a22.28,22.28,0,0,1-.422-2.3Z" transform="translate(-618.74 -351.569)" fill="#daeef7"/>
          <path id="Trazado_720107" data-name="Trazado 720107" d="M646.1,526.2v1.229a.176.176,0,0,0,.176.176h2.863a.208.208,0,0,0,.105-.386l-1.6-1.019A1.526,1.526,0,0,1,646.1,526.2Z" transform="translate(-632.259 -472.749)" fill="#e03268"/>
          <path id="Trazado_720108" data-name="Trazado 720108" d="M606.533,223.488a.054.054,0,0,1-.07-.07,7.2,7.2,0,0,0,.211-1.44c-.105-.053-.316.913-.422.913-.105.018.141-.913.018-.948-.105-.035-.3.826-.351.826s.035-.826-.018-.878-.264.826-.316.843c-.07.018-.123-.632-.176-.632s-.088-.018-.386,1.493a2,2,0,0,1-.123.685l.211.439.667.018s1.458-1.317,1.458-1.405C607.236,223.259,607.183,223.242,606.533,223.488Z" transform="translate(-598.296 -221.887)" fill="#ffc0bb"/>
          <path id="Trazado_720109" data-name="Trazado 720109" d="M651.049,226.305a.066.066,0,0,0,.105-.018,6.489,6.489,0,0,1,.474-1.388c.105,0-.123.948-.053,1,.088.053.3-.878.4-.843.123.018-.105.861-.053.9s.334-.755.422-.79c.07-.035-.141.843-.088.9s.387-.509.439-.474c.053.018.088.035-.334,1.511a2.289,2.289,0,0,0-.211.667l-.4.3-.615-.281a18.812,18.812,0,0,1-.65-1.915C650.522,225.778,650.592,225.8,651.049,226.305Z" transform="translate(-635.873 -224.371)" fill="#ffc0bb"/>
          <path id="Trazado_720110" data-name="Trazado 720110" d="M611.494,298.3l.018,2.564L609,300.481l.422-2.881Z" transform="translate(-601.675 -284.301)" fill="#ffc0bb"/>
          <path id="Trazado_720111" data-name="Trazado 720111" d="M610.3,298.835l.193-1.335,2.073.948v.509A3.543,3.543,0,0,1,610.3,298.835Z" transform="translate(-602.747 -284.219)" fill="#fc8d84" opacity="0.6"/>
          <path id="Trazado_720112" data-name="Trazado 720112" d="M580.762,525.318v1.335a.2.2,0,0,1-.193.193h-3.144a.229.229,0,0,1-.123-.422l1.757-1.124A1.589,1.589,0,0,0,580.762,525.318Z" transform="translate(-575.457 -472.007)" fill="#e03268"/>
          <g id="Grupo_1017792" data-name="Grupo 1017792" transform="translate(1.704 28.509)">
            <g id="Grupo_1017791" data-name="Grupo 1017791">
              <g id="Grupo_1017790" data-name="Grupo 1017790">
                <path id="Trazado_720113" data-name="Trazado 720113" d="M577.719,386.2c0-.281-.738.562-.72.334.3-4.76,9.608-.773,9.608-.773l2.266,1.669,2.564,22.079a4.544,4.544,0,0,1-2.3.07l-5.691-18.917-.7-.263A38.322,38.322,0,0,1,577.719,386.2Z" transform="translate(-576.998 -384.199)" fill="#07085b"/>
              </g>
            </g>
          </g>
          <g id="Grupo_1017802" data-name="Grupo 1017802" transform="translate(1.673 29.774)">
            <g id="Grupo_1017801" data-name="Grupo 1017801">
              <g id="Grupo_1017793" data-name="Grupo 1017793" transform="translate(0.013 1.265)">
                <path id="Trazado_720114" data-name="Trazado 720114" d="M576.9,398.6v0Z" transform="translate(-576.9 -398.6)" fill="#06bfad"/>
              </g>
              <g id="Grupo_1017794" data-name="Grupo 1017794" transform="translate(0.013 1.44)">
                <path id="Trazado_720115" data-name="Trazado 720115" d="M576.9,399.6v0Z" transform="translate(-576.9 -399.6)" fill="#06bfad"/>
              </g>
              <g id="Grupo_1017795" data-name="Grupo 1017795" transform="translate(0 1.651)">
                <path id="Trazado_720116" data-name="Trazado 720116" d="M576.838,400.8v.193A.358.358,0,0,1,576.838,400.8Z" transform="translate(-576.825 -400.8)" fill="#06bfad"/>
              </g>
              <g id="Grupo_1017796" data-name="Grupo 1017796" transform="translate(0.013 1.071)">
                <path id="Trazado_720117" data-name="Trazado 720117" d="M576.918,397.5a.486.486,0,0,1-.018.158A.486.486,0,0,0,576.918,397.5Z" transform="translate(-576.9 -397.5)" fill="#06bfad"/>
              </g>
              <g id="Grupo_1017797" data-name="Grupo 1017797" transform="translate(0.023)">
                <path id="Trazado_720118" data-name="Trazado 720118" d="M576.961,391.4a62.273,62.273,0,0,0,5.744,4.936l.7.263-.7-.263-2.16,19.11a4.518,4.518,0,0,1-2.424-.176C578.138,415.27,576.839,397.073,576.961,391.4Z" transform="translate(-576.953 -391.4)" fill="#07085b"/>
              </g>
              <g id="Grupo_1017798" data-name="Grupo 1017798" transform="translate(13.204 24.046)">
                <path id="Trazado_720119" data-name="Trazado 720119" d="M653.265,528.3a5.573,5.573,0,0,1-1.265.193,5.573,5.573,0,0,0,1.265-.193Z" transform="translate(-652 -528.3)" fill="#06bfad"/>
              </g>
              <g id="Grupo_1017799" data-name="Grupo 1017799" transform="translate(12.431 24.204)">
                <path id="Trazado_720120" data-name="Trazado 720120" d="M647.6,529.2c.07.018.123.018.193.035A.906.906,0,0,0,647.6,529.2Z" transform="translate(-647.6 -529.2)" fill="#06bfad"/>
              </g>
              <g id="Grupo_1017800" data-name="Grupo 1017800" transform="translate(12.712 24.239)">
                <path id="Trazado_720121" data-name="Trazado 720121" d="M649.692,529.418a4.765,4.765,0,0,1-.492-.018A4.437,4.437,0,0,0,649.692,529.418Z" transform="translate(-649.2 -529.4)" fill="#06bfad"/>
              </g>
            </g>
          </g>
          <path id="Trazado_720122" data-name="Trazado 720122" d="M619.388,389.9l.369,3.144c-.966.369-3.337.773-5.111-3.109a4.911,4.911,0,0,1-.6-2.74,26.261,26.261,0,0,1,3.074,1.036Z" transform="translate(-605.81 -358.164)" fill="#050645"/>
          <path id="Trazado_720123" data-name="Trazado 720123" d="M579.843,312.253c.105,0,1.721-3.653,1.721-3.653a3.96,3.96,0,0,0,3.249.3s7.535,13.788,2.477,15.931a12.172,12.172,0,0,1-9.819-.474s-1.071-2.793-1.071-2.9S579.737,312.253,579.843,312.253Z" transform="translate(-574.801 -293.369)" fill="#daeef7"/>
          <path id="Trazado_720124" data-name="Trazado 720124" d="M627.111,238.744s.334,6.534-.281,7.746c-2.037,3.97-4.567,4.374-4.567,4.374s-.861,13.911-.158,17.248c0,0,2.389.738,5.9-.913,0,0-2.687-10.785-2.547-12.137,0,0,4.3-3.829,4.444-8.343a30.572,30.572,0,0,0-1.036-8.519Z" transform="translate(-612.251 -235.335)" fill="#55769f"/>
          <path id="Trazado_720125" data-name="Trazado 720125" d="M570.566,262.327a62.235,62.235,0,0,1,1.458-10.082,51.483,51.483,0,0,1,2.038-6.956c-1.581-1.739-1.317-3.32-1.177-5.375.158-2.371,2.477-7.1,2.477-7.1L573.8,231.8c-7.465,8.975-3.337,16.124-3.337,16.124s-2.793,9.889-3.162,12.892A21.476,21.476,0,0,0,570.566,262.327Z" transform="translate(-567.299 -230.059)" fill="#55769f"/>
          <path id="Trazado_720126" data-name="Trazado 720126" d="M637.566,326.581a2.12,2.12,0,0,1-.3-.281,3.147,3.147,0,0,1-.6-1.3,3.75,3.75,0,0,0,.632,1.265,1.535,1.535,0,0,0,.351.316l-.018.018v.035a.743.743,0,0,1-.562-.141,1.848,1.848,0,0,1-.474-.351c.105.07.3.211.492.316A.871.871,0,0,0,637.566,326.581Z" transform="translate(-624.428 -306.889)" fill="#fff"/>
          <path id="Trazado_720127" data-name="Trazado 720127" d="M585.27,315.981a1.429,1.429,0,0,0,.334-.316,3.431,3.431,0,0,0,.632-1.265,3.032,3.032,0,0,1-.6,1.3,1.423,1.423,0,0,1-.3.281.787.787,0,0,0,.211-.018.827.827,0,0,0,.263-.105,3.373,3.373,0,0,0,.492-.316,3.7,3.7,0,0,1-.474.351,1.361,1.361,0,0,1-.281.123.577.577,0,0,1-.3.018l-.053-.018Z" transform="translate(-582.056 -298.151)" fill="#fff"/>
          <path id="Trazado_720128" data-name="Trazado 720128" d="M602.058,270.711l-.158,1.756.281.176.509-2.143Z" transform="translate(-595.823 -261.961)" fill="#07085b"/>
          <path id="Trazado_720129" data-name="Trazado 720129" d="M599.392,277.764a.7.7,0,0,1-.439.843.681.681,0,0,1-.72-.615.7.7,0,0,1,.439-.843A.668.668,0,0,1,599.392,277.764Z" transform="translate(-592.787 -267.434)" fill="#f99893"/>
          <path id="Trazado_720130" data-name="Trazado 720130" d="M602.011,267.132a5.331,5.331,0,0,1-.018-1.493,1.606,1.606,0,0,0,.018-.3,3.337,3.337,0,0,1,.263-1.194,3.149,3.149,0,0,1,5.972,1.879.688.688,0,0,1,.615.07.957.957,0,0,1-1.071,1.528.41.41,0,0,1-.123-.123,2.944,2.944,0,0,1-3.408,2.073A2.824,2.824,0,0,1,602.011,267.132Z" transform="translate(-595.864 -255.168)" fill="#ffc0bb"/>
          <path id="Trazado_720131" data-name="Trazado 720131" d="M621.707,281.076a.282.282,0,0,0,.264.386.264.264,0,0,0,.246-.176.282.282,0,0,0-.263-.386A.329.329,0,0,0,621.707,281.076Z" transform="translate(-612.134 -270.535)" fill="#333"/>
          <path id="Trazado_720132" data-name="Trazado 720132" d="M608.307,279.076a.282.282,0,0,0,.263.386.264.264,0,0,0,.246-.176.282.282,0,0,0-.264-.386A.363.363,0,0,0,608.307,279.076Z" transform="translate(-601.088 -268.886)" fill="#333"/>
          <path id="Trazado_720133" data-name="Trazado 720133" d="M611.786,291.581a2.675,2.675,0,0,1-.439.158,1.347,1.347,0,0,1-.457.018,1.021,1.021,0,0,1-.439-.158,1.439,1.439,0,0,1-.351-.3,1.2,1.2,0,0,0,.334.334,1.354,1.354,0,0,0,.439.176,1.09,1.09,0,0,0,.474-.035A1.4,1.4,0,0,0,611.786,291.581Z" transform="translate(-602.582 -279.108)" fill="#f99893"/>
          <path id="Trazado_720134" data-name="Trazado 720134" d="M620.5,277.77c.141-.018.281-.035.4-.053a1.37,1.37,0,0,1,.386.053,1.267,1.267,0,0,1,.351.158,2.342,2.342,0,0,1,.334.246.854.854,0,0,0-.246-.369,1.011,1.011,0,0,0-.4-.228,1,1,0,0,0-.457,0A.687.687,0,0,0,620.5,277.77Z" transform="translate(-611.156 -267.773)" fill="#07085b"/>
          <path id="Trazado_720135" data-name="Trazado 720135" d="M607.128,275.557a1.019,1.019,0,0,0-.3-.316,1.174,1.174,0,0,0-.439-.141.9.9,0,0,0-.439.088.885.885,0,0,0-.351.263c.105-.018.228-.088.4-.123a1.442,1.442,0,0,1,.386-.035.944.944,0,0,1,.369.088C606.865,275.434,606.988,275.486,607.128,275.557Z" transform="translate(-598.873 -265.753)" fill="#07085b"/>
          <path id="Trazado_720136" data-name="Trazado 720136" d="M613.179,279.7a3.655,3.655,0,0,0-.351.386c-.105.141-.211.281-.316.439a1.024,1.024,0,0,0-.141.316c-.018.053,0,.105.088.211a1.862,1.862,0,0,0,.211.176c.07.053.158.088.228.141a3.576,3.576,0,0,1-.369-.351.234.234,0,0,1-.053-.088.261.261,0,0,1,.018-.105,1.45,1.45,0,0,1,.123-.228c.088-.141.193-.3.281-.439C612.986,280,613.074,279.858,613.179,279.7Z" transform="translate(-604.45 -269.545)" fill="#f99893"/>
          <path id="Trazado_720137" data-name="Trazado 720137" d="M600.8,255.119s-.931-.176.211-.738,3.952-.878,5.41.369c0,0,.492-.632.931-.351s-.457.58-.457.58.615.123.738.457c.088.246-.3.176-.492.123.334.141,1.317,1.071.035,3.618a22.179,22.179,0,0,1-1.7-2.2s-2.951.966-2.424.158c0,0-3.443.861-2.617-.7C600.462,256.453,599.2,256.26,600.8,255.119Z" transform="translate(-594.244 -248.266)" fill="#07085b"/>
          <path id="Trazado_720138" data-name="Trazado 720138" d="M632.336,266.183a.607.607,0,0,0-.562-.053c-.334.123-.562.9-.562.9s-1.107.913-.58-3.074c.527-3.917,1.282.65,1.282.65Z" transform="translate(-619.391 -255.255)" fill="#07085b"/>
        </g>
        <g id="Grupo_1017804" data-name="Grupo 1017804" transform="translate(4.391)">
          <path id="Trazado_720139" data-name="Trazado 720139" d="M595.274,213.174l-.474-.053a.438.438,0,0,1,.3-.053l12.084,1.194a1.074,1.074,0,0,1,1.036,1.124l-.07.65a1.081,1.081,0,0,1-1.247.9l-11.944-1.177Z" transform="translate(-594.361 -213.034)" fill="#e03268"/>
          <path id="Trazado_720140" data-name="Trazado 720140" d="M659.247,221.074l.07-.65a1.076,1.076,0,0,0-1.036-1.124l.263.018a1.074,1.074,0,0,1,1.036,1.124l-.07.65a1.081,1.081,0,0,1-1.247.9L658,221.97A1.09,1.09,0,0,0,659.247,221.074Z" transform="translate(-646.46 -218.176)" fill="#feb546"/>
          <path id="Trazado_720141" data-name="Trazado 720141" d="M643.047,219.474l.07-.65a1.076,1.076,0,0,0-1.036-1.124l.263.018a1.074,1.074,0,0,1,1.036,1.124l-.07.65a1.081,1.081,0,0,1-1.247.9l-.263-.018A1.071,1.071,0,0,0,643.047,219.474Z" transform="translate(-633.106 -216.857)" fill="#feb546"/>
          <path id="Trazado_720142" data-name="Trazado 720142" d="M600.081,213.638a1.046,1.046,0,0,1,1,1.071l-.07.72a1.039,1.039,0,0,1-1.194.861l-7.518-.738.018-.158h.035l1.932.035.527-1.3s-.667-.808-.72-.843c-.053-.018-1.493-.228-1.493-.228h-.035l.018-.158Z" transform="translate(-592.3 -212.9)" fill="#ff5b7e"/>
          <path id="Trazado_720143" data-name="Trazado 720143" d="M593.08,215.012a1.568,1.568,0,0,0-.351-1.212l7.342.72a.94.94,0,0,1,.913.984l-.053.562a.963.963,0,0,1-1.089.79l-7.342-.72C592.518,216.154,592.992,216,593.08,215.012Z" transform="translate(-592.465 -213.642)" fill="#daeef7"/>
          <path id="Trazado_720144" data-name="Trazado 720144" d="M602.155,215.521l-.053.562a.467.467,0,0,1-.053.211,2.124,2.124,0,0,0-1.51-1.388A57.4,57.4,0,0,0,593.9,213.8l7.342.72A.968.968,0,0,1,602.155,215.521Z" transform="translate(-593.619 -213.642)" fill="#daeef7"/>
        </g>
      </g>
      <g id="Grupo_1017808" data-name="Grupo 1017808" transform="translate(116.465 55.928)">
        <path id="Trazado_720145" data-name="Trazado 720145" d="M511.729,319.3l-.492,1.107a.2.2,0,0,0,.088.246l2.6,1.159a.207.207,0,0,0,.263-.3l-1-1.563A1.574,1.574,0,0,1,511.729,319.3Z" transform="translate(-491.731 -285.099)" fill="#55769f"/>
        <path id="Trazado_720146" data-name="Trazado 720146" d="M492.929,319.3l-.492,1.107a.2.2,0,0,0,.088.246l2.6,1.159a.207.207,0,0,0,.263-.3l-1-1.563A1.574,1.574,0,0,1,492.929,319.3Z" transform="translate(-476.233 -285.099)" fill="#55769f"/>
        <path id="Trazado_720147" data-name="Trazado 720147" d="M459.261,140.853l-.281,1.739-.58-2.319s.826-.4.861-.246C459.278,140.168,459.261,140.853,459.261,140.853Z" transform="translate(-448.186 -137.285)" fill="#07085b"/>
        <path id="Trazado_720148" data-name="Trazado 720148" d="M435.646,166.2l-.246,2.986,2.635-.123-.3-2.652Z" transform="translate(-429.226 -158.89)" fill="#ffc0bb"/>
        <path id="Trazado_720149" data-name="Trazado 720149" d="M438.619,167.675l-.141-1.265-2.09-.211-.088,1.036A2.113,2.113,0,0,0,438.619,167.675Z" transform="translate(-429.968 -158.89)" fill="#f99893"/>
        <g id="Grupo_1017806" data-name="Grupo 1017806" transform="translate(4.195 1.767)">
          <path id="Trazado_720150" data-name="Trazado 720150" d="M458.43,152.74a.605.605,0,0,0,.193.826.617.617,0,0,0,.773-.369.605.605,0,0,0-.193-.826A.6.6,0,0,0,458.43,152.74Z" transform="translate(-452.341 -149.217)" fill="#f99893"/>
          <path id="Trazado_720151" data-name="Trazado 720151" d="M430.591,138.4l.053-.263a2.807,2.807,0,0,0-2.354-3.46,2.831,2.831,0,0,0-3.214,2.617.609.609,0,0,0-.544-.07.762.762,0,0,0-.334,1.019.754.754,0,0,0,.913.544.283.283,0,0,0,.123-.07,2.67,2.67,0,0,0,2.477,2.6,2.425,2.425,0,0,0,1.756-.615A3.557,3.557,0,0,0,430.591,138.4Z" transform="translate(-424.133 -134.644)" fill="#ffc0bb"/>
          <path id="Trazado_720152" data-name="Trazado 720152" d="M447.3,150.9a4.284,4.284,0,0,0,.018.474,1.369,1.369,0,0,0,.088.422.342.342,0,0,1-.018.509.506.506,0,0,1-.492.088.729.729,0,0,0,.4-.193c.035-.053.07-.105.053-.158,0-.053-.018-.07-.105-.176a.5.5,0,0,1-.07-.263v-.246A3.464,3.464,0,0,1,447.3,150.9Z" transform="translate(-442.901 -148.045)" fill="#f99893"/>
          <path id="Trazado_720153" data-name="Trazado 720153" d="M441.585,150.883a.238.238,0,0,1-.3.263.243.243,0,0,1-.193-.211.239.239,0,0,1,.3-.263A.266.266,0,0,1,441.585,150.883Z" transform="translate(-438.113 -147.852)" fill="#333"/>
          <path id="Trazado_720154" data-name="Trazado 720154" d="M453.585,152.183a.238.238,0,0,1-.3.263.243.243,0,0,1-.193-.211.239.239,0,0,1,.3-.263A.243.243,0,0,1,453.585,152.183Z" transform="translate(-448.005 -148.923)" fill="#333"/>
          <path id="Trazado_720155" data-name="Trazado 720155" d="M441.5,161.6l.211.158a.945.945,0,0,0,.228.123,1.623,1.623,0,0,0,.474.141,1.551,1.551,0,0,0,.492-.035,2.155,2.155,0,0,0,.457-.211,1.53,1.53,0,0,1-.457.263,1.285,1.285,0,0,1-.527.053,1.18,1.18,0,0,1-.492-.176A1.1,1.1,0,0,1,441.5,161.6Z" transform="translate(-438.45 -156.865)" fill="#f99893"/>
          <path id="Trazado_720156" data-name="Trazado 720156" d="M439.088,147.55a2.806,2.806,0,0,0-.369-.088,1.357,1.357,0,0,0-.685.088,3.016,3.016,0,0,0-.334.158.853.853,0,0,1,.263-.3.737.737,0,0,1,.386-.141.783.783,0,0,1,.4.053A.669.669,0,0,1,439.088,147.55Z" transform="translate(-435.317 -145.046)" fill="#07085b"/>
          <path id="Trazado_720157" data-name="Trazado 720157" d="M451.8,148.8a.707.707,0,0,1,.351-.158,1.029,1.029,0,0,1,.4.018.9.9,0,0,1,.351.211.861.861,0,0,1,.193.351c-.053-.035-.228-.193-.3-.228a1.607,1.607,0,0,0-.3-.158,1.1,1.1,0,0,0-.334-.053A2.848,2.848,0,0,0,451.8,148.8Z" transform="translate(-446.94 -146.177)" fill="#07085b"/>
        </g>
        <path id="Trazado_720158" data-name="Trazado 720158" d="M444.963,241.874s-.544,3.741,3.074,4.391a43.922,43.922,0,0,0,8.115.457l.632,8.607,1.9.088s4.865-11.961-1.862-13.823l-6.06.035-2.494-.176a21.08,21.08,0,0,0-2.547-.509A4.32,4.32,0,0,1,444.963,241.874Z" transform="translate(-437.085 -220.495)" fill="#070852"/>
        <path id="Trazado_720159" data-name="Trazado 720159" d="M426.063,241.974s-.544,3.741,3.074,4.391a43.922,43.922,0,0,0,8.115.457l.632,8.607,1.9.088s4.865-11.961-1.862-13.823l-6.06.035-2.494-.176a21.076,21.076,0,0,0-2.547-.509A4.317,4.317,0,0,1,426.063,241.974Z" transform="translate(-421.505 -220.578)" fill="#10116b"/>
        <path id="Trazado_720160" data-name="Trazado 720160" d="M409.356,175.328a10.283,10.283,0,0,1,3.126.826c.632.509,3.671,8.062,3.671,8.062l-2.529,2.986-5.375.035s-4.04,2.178-6.569.123-1.229-9.221.246-10.749A6.176,6.176,0,0,1,406,175.1S408.372,176.751,409.356,175.328Z" transform="translate(-400.248 -166.227)" fill="#ff5b7e"/>
        <path id="Trazado_720161" data-name="Trazado 720161" d="M423.363,197.8a9.686,9.686,0,0,1,.176,1.247c.018.211.035.422.035.632s.018.422,0,.632a7.684,7.684,0,0,1-.105,1.265,4.209,4.209,0,0,1-.369,1.212,7.259,7.259,0,0,0,.246-1.23,9.9,9.9,0,0,0,.07-1.247c0-.422,0-.843-.018-1.247A10.137,10.137,0,0,0,423.363,197.8Z" transform="translate(-419.086 -184.94)" fill="#fff"/>
        <path id="Trazado_720162" data-name="Trazado 720162" d="M467.1,196.2c.105.615.228,1.229.351,1.827.123.615.246,1.212.4,1.827.141.6.316,1.194.509,1.792.105.3.211.58.334.861a3.258,3.258,0,0,0,.474.79,2.851,2.851,0,0,1-.544-.755,7.564,7.564,0,0,1-.386-.861c-.105-.3-.211-.6-.3-.9s-.176-.6-.246-.913c-.07-.3-.141-.615-.193-.913s-.123-.615-.158-.913A15.56,15.56,0,0,1,467.1,196.2Z" transform="translate(-455.358 -183.621)" fill="#fff"/>
        <g id="Grupo_1017807" data-name="Grupo 1017807" transform="translate(11.022 11.121)">
          <path id="Trazado_720163" data-name="Trazado 720163" d="M477.933,194.932c-.457-.72-4.233-1.932-4.233-1.932v1.212l3.847,1.335Z" transform="translate(-471.821 -192.104)" fill="#ededed"/>
          <path id="Trazado_720164" data-name="Trazado 720164" d="M475.691,194.32,471.3,192.3v.773l4.268,1.546Z" transform="translate(-469.842 -191.527)" fill="#fff"/>
          <path id="Trazado_720165" data-name="Trazado 720165" d="M473.219,195.556,468.6,193.8v1.352l4.567.7Z" transform="translate(-467.616 -192.764)" fill="#ededed"/>
          <path id="Trazado_720166" data-name="Trazado 720166" d="M497.8,191.212a18.477,18.477,0,0,1,1.265-2.512,12.094,12.094,0,0,1-.562,3.091Z" transform="translate(-491.688 -188.559)" fill="#fff"/>
          <path id="Trazado_720167" data-name="Trazado 720167" d="M500,190.64l1.089-2.74v1.317l-.755,1.774Z" transform="translate(-493.501 -187.9)" fill="#ededed"/>
          <path id="Trazado_720168" data-name="Trazado 720168" d="M501.9,191.27l1.177-2.67v.948Z" transform="translate(-495.067 -188.477)" fill="#fff"/>
          <path id="Trazado_720169" data-name="Trazado 720169" d="M501.9,199.932l1.493-2.547V189.2l-1.493,2.564Z" transform="translate(-495.067 -188.972)" fill="#26426e"/>
          <path id="Trazado_720170" data-name="Trazado 720170" d="M463,204.885l5.252,1.23v-8.167L463,196.7Z" transform="translate(-463 -195.154)" fill="#55769f"/>
          <path id="Trazado_720171" data-name="Trazado 720171" d="M492.9,203.142a2.28,2.28,0,0,1,1.581,0C494.411,203.6,493.023,203.686,492.9,203.142Z" transform="translate(-487.648 -200.349)" fill="#e0e0e0"/>
          <path id="Trazado_720172" data-name="Trazado 720172" d="M492.9,211.885c0,.193,1.6.193,1.6,0V203.7a1.884,1.884,0,0,1-1.6,0Z" transform="translate(-487.648 -200.925)" fill="#3a5782"/>
        </g>
        <path id="Trazado_720173" data-name="Trazado 720173" d="M455.322,232.486c-.018-.123-.966-.263-1.317-.281-.263-.018-2.02-.07-2.617-.105l.035.158-.018.685-.105.457c.527.035,1.809.088,2.073.141a6.732,6.732,0,0,1,.966.334s.263-.053-.07-.193a1.564,1.564,0,0,1-.527-.369c-.053-.053,0-.141.035-.123.9.228.984.263.984.263s1.036,0,0-.246c-.615-.141-.843-.228-.9-.3a.146.146,0,0,1,.053-.141c.544-.035,1.511.158,1.247.035a7.477,7.477,0,0,0-1.159-.263c-.018,0-.035-.105.035-.105C454.585,232.381,455.34,232.592,455.322,232.486Z" transform="translate(-442.333 -213.215)" fill="#ffc0bb"/>
        <path id="Trazado_720174" data-name="Trazado 720174" d="M421.2,225.6c.211.053.439.123.65.158.211.053.439.088.65.141.439.088.878.158,1.335.211l1.335.158c.439.053.9.088,1.335.105h.053l.018.053a3.9,3.9,0,0,1,.088.439,1.952,1.952,0,0,1,.018.457,3.994,3.994,0,0,1-.035.457,4.107,4.107,0,0,1-.123.439v.018H426.5l-.492.334c-.158.105-.334.211-.492.316.158-.123.316-.246.457-.369l.474-.351-.018.018a1.855,1.855,0,0,0,.105-.422,3.388,3.388,0,0,0,.018-.422,4.011,4.011,0,0,0-.035-.439,3.6,3.6,0,0,0-.088-.422l.07.053c-.228,0-.457-.018-.685-.035l-.667-.053c-.457-.053-.9-.105-1.335-.176s-.9-.158-1.317-.263c-.211-.053-.439-.105-.65-.176C421.622,225.758,421.411,225.67,421.2,225.6Z" transform="translate(-417.52 -207.857)" fill="#fff"/>
        <path id="Trazado_720175" data-name="Trazado 720175" d="M432.624,126.5s.826.035-.035-.667c-.878-.7-3.214-1.528-4.707-.738,0,0-.3-.632-.738-.492-.439.158.281.6.281.6s-.562-.018-.72.246c-.123.193.211.211.4.193-.316.053-1.528.826-.913,3.249a13.556,13.556,0,0,0,1.44-1.827s2.81,1.563,2.529.316c0,0,2.916,1.809,2.494.316C432.641,127.713,433.766,127.8,432.624,126.5Z" transform="translate(-421.496 -124.584)" fill="#07085b"/>
        <path id="Trazado_720176" data-name="Trazado 720176" d="M426.9,135.485a.49.49,0,0,1,.474.123c.246.193.228.9.228.9s1.194.773,1.071-2.494c-.141-3.46-1,.281-1,.281Z" transform="translate(-422.219 -131.143)" fill="#07085b"/>
      </g>
      <g id="Grupo_1017812" data-name="Grupo 1017812" transform="translate(100.02 88.761)">
        <path id="Trazado_720177" data-name="Trazado 720177" d="M341.41,519.4l.492,1.107a.2.2,0,0,1-.088.246l-2.6,1.159a.207.207,0,0,1-.263-.3l1-1.563A1.636,1.636,0,0,0,341.41,519.4Z" transform="translate(-333.247 -482.885)" fill="#07085b"/>
        <path id="Trazado_720178" data-name="Trazado 720178" d="M360.61,518.6l.492,1.107a.2.2,0,0,1-.088.246l-2.6,1.159a.207.207,0,0,1-.264-.3l1-1.563A1.635,1.635,0,0,0,360.61,518.6Z" transform="translate(-349.074 -482.225)" fill="#07085b"/>
        <path id="Trazado_720179" data-name="Trazado 720179" d="M371.794,313.581A3.451,3.451,0,0,0,368,316.269l1.177,1.756s2.459-.948,2.477-1.036C371.653,316.9,371.794,313.581,371.794,313.581Z" transform="translate(-357.219 -313.197)" fill="#f50"/>
        <path id="Trazado_720180" data-name="Trazado 720180" d="M394.5,321.8s.826,1.247,1.247,1.739c1.054,1.247,1.194.843,1.862,1.915a1.529,1.529,0,0,1-.422,2.213c-.4.334.281,1.563-.492,2.248-1,.9-1.914.053-2.617.562-.685.509-.843,1.247-2.459,1.107-1.633-.141-1.616-5.463-1.616-5.463s1.335-2.828,1.388-2.845C391.44,323.24,394.5,321.8,394.5,321.8Z" transform="translate(-375.355 -319.992)" fill="#f50"/>
        <path id="Trazado_720181" data-name="Trazado 720181" d="M357.326,329a5.013,5.013,0,0,1-.422,1.546c-.808,1.423-1.247.948-1.7,2.125a1.526,1.526,0,0,0,.826,2.09c.457.246.018,1.581.9,2.125,1.142.7,1.9-.3,2.67.07s1.054,1.071,2.635.632.58-5.673.58-5.673-1.827-2.529-1.9-2.547S357.326,329,357.326,329Z" transform="translate(-346.545 -325.928)" fill="#f50"/>
        <path id="Trazado_720182" data-name="Trazado 720182" d="M391.387,362.748a28.421,28.421,0,0,1,3.97-.457c1.247.035-.755,3.285-.755,3.285l-2.037.053s-1.247-1.405-1.177-1.563a5.7,5.7,0,0,0,0-1.229Z" transform="translate(-376.496 -353.37)" fill="#ffc0bb"/>
        <g id="Grupo_1017810" data-name="Grupo 1017810" transform="translate(11.849 1.582)">
          <path id="Trazado_720183" data-name="Trazado 720183" d="M396.247,350.2l.72,2.178s-.632,1.282-2.529.738a2.113,2.113,0,0,0-.07-1.388C394.069,350.78,396.247,350.2,396.247,350.2Z" transform="translate(-390.781 -344.986)" fill="#ffc0bb"/>
          <path id="Trazado_720184" data-name="Trazado 720184" d="M396.18,350.2l.334,1.019c-.193.738-.843,1.247-2.073,1.405a2.9,2.9,0,0,0-.158-.9C394,350.78,396.18,350.2,396.18,350.2Z" transform="translate(-390.714 -344.986)" fill="#fc8d84" opacity="0.6"/>
          <g id="Grupo_1017809" data-name="Grupo 1017809">
            <path id="Trazado_720185" data-name="Trazado 720185" d="M375.173,338.947a.634.634,0,0,1-.228.861.647.647,0,0,1-.79-.422.57.57,0,1,1,1.019-.439Z" transform="translate(-374.08 -335.331)" fill="#f99893"/>
            <path id="Trazado_720186" data-name="Trazado 720186" d="M377.807,325.727a5.975,5.975,0,0,1-.334-1.37l-.053-.263a2.862,2.862,0,0,1,0-1.159,2.987,2.987,0,0,1,5.919.492.618.618,0,0,1,.58-.053.827.827,0,0,1,.316,1.089.811.811,0,0,1-.984.545.618.618,0,0,1-.141-.088,2.8,2.8,0,0,1-2.722,2.635A2.76,2.76,0,0,1,377.807,325.727Z" transform="translate(-376.785 -320.513)" fill="#ffc0bb"/>
            <path id="Trazado_720187" data-name="Trazado 720187" d="M389.281,337.5a1.631,1.631,0,0,1,.088.509,1.333,1.333,0,0,1-.018.263.778.778,0,0,1-.088.263c-.07.088-.105.105-.105.176a.231.231,0,0,0,.053.176.74.74,0,0,0,.422.211.556.556,0,0,1-.509-.123.382.382,0,0,1-.123-.281.373.373,0,0,1,.123-.263.594.594,0,0,0,.07-.211c.018-.07.018-.158.035-.246A3.923,3.923,0,0,0,389.281,337.5Z" transform="translate(-386.379 -334.516)" fill="#f99893"/>
            <path id="Trazado_720188" data-name="Trazado 720188" d="M396.193,337.7a.269.269,0,0,0,.3.3.262.262,0,0,0,.211-.211.269.269,0,0,0-.3-.3A.262.262,0,0,0,396.193,337.7Z" transform="translate(-392.308 -334.509)" fill="#333"/>
            <path id="Trazado_720189" data-name="Trazado 720189" d="M383.393,338.688a.269.269,0,0,0,.3.3.258.258,0,1,0-.3-.3Z" transform="translate(-381.756 -335.317)" fill="#333"/>
            <path id="Trazado_720190" data-name="Trazado 720190" d="M389.805,350a.855.855,0,0,0-.72.088.649.649,0,0,0-.685-.018.722.722,0,0,0,.755.527A.627.627,0,0,0,389.805,350Z" transform="translate(-385.885 -344.785)" fill="#f99893" opacity="0.3"/>
            <path id="Trazado_720191" data-name="Trazado 720191" d="M389.067,349.1a2.57,2.57,0,0,1-.228.158,1.453,1.453,0,0,1-.228.123,1.688,1.688,0,0,1-.509.14,1.35,1.35,0,0,1-.527-.053,1.523,1.523,0,0,1-.474-.246,1.651,1.651,0,0,0,.211.158,1.074,1.074,0,0,0,.246.123,1.463,1.463,0,0,0,.263.07.754.754,0,0,0,.281,0,1.318,1.318,0,0,0,.527-.158A1.273,1.273,0,0,0,389.067,349.1Z" transform="translate(-384.813 -344.079)" fill="#f99893"/>
            <path id="Trazado_720192" data-name="Trazado 720192" d="M394.4,334.149a1.637,1.637,0,0,1,.386-.07,1.3,1.3,0,0,1,.369,0,1.34,1.34,0,0,1,.351.105,3.16,3.16,0,0,1,.351.193.8.8,0,0,0-.263-.334.944.944,0,0,0-.4-.176,1.115,1.115,0,0,0-.422.035A.969.969,0,0,0,394.4,334.149Z" transform="translate(-390.831 -331.516)" fill="#f50"/>
            <path id="Trazado_720193" data-name="Trazado 720193" d="M381.305,334.978a.828.828,0,0,0-.808-.176.707.707,0,0,0-.369.211.937.937,0,0,0-.228.351c.053-.035.246-.193.316-.228a1.441,1.441,0,0,1,.685-.193C381.024,334.961,381.165,334.961,381.305,334.978Z" transform="translate(-378.878 -332.258)" fill="#f50"/>
          </g>
        </g>
        <path id="Trazado_720194" data-name="Trazado 720194" d="M346.543,436.35s.808,3.776-2.828,4.672a44.386,44.386,0,0,1-8.22.984l-.088,8.782-1.915.211s-5.708-11.838,1.019-14.175l6.148-.351,2.529-.334a21.2,21.2,0,0,1,2.564-.685C345.752,435.6,346.472,436.421,346.543,436.35Z" transform="translate(-326.909 -413.676)" fill="#ffc0bb"/>
        <path id="Trazado_720195" data-name="Trazado 720195" d="M365.743,435.25s.808,3.776-2.828,4.672a44.387,44.387,0,0,1-8.22.984l-.088,8.782-1.915.211s-5.708-11.838,1.019-14.175l6.148-.351,2.529-.334a21.2,21.2,0,0,1,2.564-.685C364.97,434.5,365.69,435.321,365.743,435.25Z" transform="translate(-342.737 -412.769)" fill="#ffc0bb"/>
        <path id="Trazado_720196" data-name="Trazado 720196" d="M316.559,431.858a7.043,7.043,0,0,0-6.868,5.234c-1,3.425-3.267,6.956-3.056,6.92,4.813,2.687,6.323-.018,9.643.79s4.5.439,4.5.439a30.129,30.129,0,0,0-2.231-7.272c.281.053,8.431.176,10.451-2.055.562-.632,1-1.423.913-3.337C329.768,428.977,317.438,431.84,316.559,431.858Z" transform="translate(-306.622 -409.816)" fill="#feb546"/>
        <path id="Trazado_720197" data-name="Trazado 720197" d="M366.916,469.243l.316-.053a1.485,1.485,0,0,0,.3-.088l.158-.053a.559.559,0,0,1-.158-.053,1.4,1.4,0,0,1-.281-.141,1.3,1.3,0,0,1-.228-.211,1.246,1.246,0,0,1-.176-.246l.105.105.105.105a1.247,1.247,0,0,0,.246.176,1.779,1.779,0,0,0,.263.123.8.8,0,0,0,.281.053h.176l-.158.07a2.223,2.223,0,0,1-.316.105,2.042,2.042,0,0,1-.316.07,1.937,1.937,0,0,1-.316.035c-.105,0-.211.018-.316.018A.96.96,0,0,0,366.916,469.243Z" transform="translate(-356.065 -440.843)" fill="#daeef7"/>
        <path id="Trazado_720198" data-name="Trazado 720198" d="M369.448,393.039s-.246,6.165-.948,7.131l3.811-.861V392.6Z" transform="translate(-357.631 -378.357)" fill="#ffc0bb"/>
        <path id="Trazado_720199" data-name="Trazado 720199" d="M382.6,388.606a12.76,12.76,0,0,1,.7,2.371,9.706,9.706,0,0,1-.439,4.655c-.6,1.633,4,1.019,4.11,1.019,4.865.123,4.813-.088,4.813-.088l.773-.615c-.105-2-.386-3.724-.334-5.5l.053-1.844-.228-1.862-6.885-.544Z" transform="translate(-369.255 -373.081)" fill="#feb546"/>
        <g id="Grupo_1017811" data-name="Grupo 1017811" transform="translate(9.253 14.314)">
          <path id="Trazado_720200" data-name="Trazado 720200" d="M369.2,399.456c.422-.65,3.864-1.756,3.864-1.756v1.107l-3.5,1.229Z" transform="translate(-367.461 -396.874)" fill="#ededed"/>
          <path id="Trazado_720201" data-name="Trazado 720201" d="M369.2,399.456c.422-.65,3.864-1.756,3.864-1.756v1.107l-3.5,1.229Z" transform="translate(-367.461 -396.874)" fill="#ededed"/>
          <path id="Trazado_720202" data-name="Trazado 720202" d="M370.6,398.744l4-1.844v.72l-3.9,1.405Z" transform="translate(-368.615 -396.215)" fill="#fff"/>
          <path id="Trazado_720203" data-name="Trazado 720203" d="M371.9,399.9l4.216-1.6v1.247l-4.18.632Z" transform="translate(-369.687 -397.369)" fill="#ededed"/>
          <path id="Trazado_720204" data-name="Trazado 720204" d="M363.842,395.9a18.039,18.039,0,0,0-1.142-2.3,11.222,11.222,0,0,0,.509,2.828Z" transform="translate(-362.103 -393.495)" fill="#fff"/>
          <path id="Trazado_720205" data-name="Trazado 720205" d="M362.584,395.494,361.6,393v1.194l.667,1.616Z" transform="translate(-361.196 -393)" fill="#ededed"/>
          <path id="Trazado_720206" data-name="Trazado 720206" d="M360.371,396.024,359.3,393.6v.878Z" transform="translate(-359.3 -393.495)" fill="#fff"/>
          <path id="Trazado_720207" data-name="Trazado 720207" d="M360.784,404.231l-.984-2.266V394.5l.984,2.266Z" transform="translate(-359.712 -394.237)" fill="#f5577a"/>
          <path id="Trazado_720208" data-name="Trazado 720208" d="M378.5,408.465l-4.8,1.124v-7.465L378.5,401Z" transform="translate(-371.171 -399.595)" fill="#ff5b7e"/>
          <path id="Trazado_720209" data-name="Trazado 720209" d="M366.94,406.8a2.093,2.093,0,0,0-1.44,0C365.57,407.242,366.835,407.312,366.94,406.8Z" transform="translate(-364.411 -404.273)" fill="#e0e0e0"/>
          <path id="Trazado_720210" data-name="Trazado 720210" d="M366.858,414.865c0,.176-1.458.176-1.458,0V407.4a1.759,1.759,0,0,0,1.458,0Z" transform="translate(-364.329 -404.871)" fill="#de4b6c"/>
        </g>
        <path id="Trazado_720211" data-name="Trazado 720211" d="M384.731,390.9l-3.267,1.511s-.246,4.18-.4,4.356a17.909,17.909,0,0,1-4.707,1.581,1.51,1.51,0,0,1-.738-.053c-.755-.263-2.09-.755-2.3-.826-.334-.105-1.265-.334-1.335-.228-.053.105.72.176,1.194.4.07.035,0,.123-.018.105a7.141,7.141,0,0,0-1.177-.193c-.3.018.685.193,1.159.422.035.018.035.123,0,.141-.07.053-.316.035-.949-.053-1.054-.158-.088.228-.088.228s.105,0,1.019.105c.035,0,.053.105-.018.141a1.691,1.691,0,0,1-.632.158c-.351.018-.14.158-.14.158a6.48,6.48,0,0,1,1.036.053c.263.053,1.475.474,1.967.632l.07-.07c.685.158,7.061.632,7.851-1.265A22.244,22.244,0,0,0,384.731,390.9Z" transform="translate(-360.267 -376.955)" fill="#ffc0bb"/>
        <path id="Trazado_720212" data-name="Trazado 720212" d="M371.121,362.7s1.844,2.16,3.97-.457a6.825,6.825,0,0,1,4.022,1.019,9.868,9.868,0,0,1,2.723,3.934,10.108,10.108,0,0,1-4.426,1.633l-4.637-1.651-3.214,1.651a8.367,8.367,0,0,1-2.758-.738C366.818,368.114,367.046,363.775,371.121,362.7Z" transform="translate(-356.23 -353.326)" fill="#feb546"/>
        <path id="Trazado_720213" data-name="Trazado 720213" d="M423.028,382.19c.088.263.158.544.228.808a15.824,15.824,0,0,1,.351,1.581c.176,0,.351-.018.527-.035a9.512,9.512,0,0,0,2.266-.738c1.194-.544,1.036-.492,1.634-.79-.7.439-1.071.632-1.581.9a9.281,9.281,0,0,1-2.3.79,2.28,2.28,0,0,1-.685.018c-.053-.4-.123-.808-.316-1.7l-.176-.808-.176-.808C422.87,381.646,422.94,381.927,423.028,382.19Z" transform="translate(-402.394 -369.124)" fill="#07085b"/>
        <path id="Trazado_720214" data-name="Trazado 720214" d="M381.311,379.55a4.4,4.4,0,0,0-.07.984,5.527,5.527,0,0,0,.263,1.054c-.018.018-.053.018-.07.035a7.271,7.271,0,0,1-.316-1.089,3.431,3.431,0,0,1,.053-1.036,6.891,6.891,0,0,1,.281-.984,4.444,4.444,0,0,1,.457-.913c-.123.316-.228.632-.334.948A6.052,6.052,0,0,0,381.311,379.55Z" transform="translate(-368.018 -365.991)" fill="#07085b"/>
        <path id="Trazado_720215" data-name="Trazado 720215" d="M389.39,316s-3.179-.773-4.69-2.916c0,0-.018-1.967,2.881-1.511C390.408,312,391.076,314.739,389.39,316Z" transform="translate(-370.986 -311.508)" fill="#f50"/>
      </g>
    </g>
  </g>
</svg>
