<svg xmlns="http://www.w3.org/2000/svg" width="124" height="124" viewBox="0 0 124 124">
  <g id="Grupo_1079624" data-name="Grupo 1079624" transform="translate(-1211.001 -3314.913)">
    <g id="Grupo_159183" data-name="Grupo 159183" transform="translate(1211.001 3314.913)">
      <path id="Unión_12" data-name="Unión 12" d="M62,0A62,62,0,1,1,0,62,62,62,0,0,1,62,0Z" fill="#01d8d1"/>
    </g>
    <g id="svg12" transform="translate(1183.177 3083.098)">
      <g id="OBJECTS" transform="translate(33.023 259.185)">
        <g id="Grupo_1017768" data-name="Grupo 1017768" transform="translate(0 0)">
          <path id="Trazado_719805" data-name="Trazado 719805" d="M300.014,190.553l.312.05" transform="translate(-251.747 -168.747)" fill="#f5f7fc"/>
          <g id="Grupo_1017747" data-name="Grupo 1017747" transform="translate(20.885 0)">
            <g id="Grupo_1017733" data-name="Grupo 1017733" transform="translate(11.85 2.2)">
              <path id="Trazado_719806" data-name="Trazado 719806" d="M220.628,87.882l-1.3,1.15.954-1.727a24.575,24.575,0,0,0-2.044-2.81l-.685.647.273-1.125a20.653,20.653,0,0,0-1.9-1.916,20.854,20.854,0,0,0-1.329,4.207l1.692.776-1.794-.242a26.078,26.078,0,0,0-.4,4.715l2.4,1.4-2.384-.629a32.193,32.193,0,0,0,.46,4.523h2.98l-2.878.562a26.333,26.333,0,0,0,.881,3.482l7.442-4.737A16.064,16.064,0,0,0,220.628,87.882Z" transform="translate(-214.093 -82.102)" fill="#33bda6"/>
              <path id="Trazado_719807" data-name="Trazado 719807" d="M227.995,105.877a25.16,25.16,0,0,1-1.354-3.884,3.523,3.523,0,0,1,1.328-2.858.078.078,0,0,0-.091-.128,3.5,3.5,0,0,0-1.368,2.494c-.446-1.724-.8-3.52-1.066-5.112a3.9,3.9,0,0,1,1.163-2.1.078.078,0,1,0-.09-.128,3.578,3.578,0,0,0-1.135,1.848c-.427-2.61-.619-4.586-.623-4.629a.078.078,0,0,0-.156.015c0,.026.074.764.226,1.924a1.767,1.767,0,0,0-.93-.392.078.078,0,0,0-.019.155,1.541,1.541,0,0,1,.983.487c.106.8.247,1.762.425,2.819a.075.075,0,0,0,.006.035c.106.629.225,1.289.358,1.964a3.121,3.121,0,0,0-1.751-.907.078.078,0,0,0-.022.155,3.054,3.054,0,0,1,1.832,1.052c.222,1.1.479,2.232.776,3.325v0a.078.078,0,0,0,.01.032q.146.535.3,1.055a4.019,4.019,0,0,0-2.913-1.015.078.078,0,0,0-.077.08.077.077,0,0,0,.08.077,3.69,3.69,0,0,1,3.018,1.206,21.454,21.454,0,0,0,.946,2.489.078.078,0,0,0,.142-.066Z" transform="translate(-222.052 -89.646)" fill="#48586e"/>
              <path id="Trazado_719808" data-name="Trazado 719808" d="M255.675,110.056l1.821-.664a18.173,18.173,0,0,0,.034-2.57h-.975l.942-.562c-.107-1.55-.315-2.792-.315-2.792a11.762,11.762,0,0,0-3.751,3.206l.418,1.226-.637-.926a13.158,13.158,0,0,0-1.722,3.357l1,.905-1.114-.566a13.429,13.429,0,0,0-.663,3.688s4.851-.693,6.171-2.739a4.394,4.394,0,0,0,.543-1.677Z" transform="translate(-244.094 -99.605)" fill="#249081"/>
              <path id="Trazado_719809" data-name="Trazado 719809" d="M267.221,112.381a1.556,1.556,0,0,0-.934.32c.348-.723.594-1.18.6-1.194a.078.078,0,1,0-.138-.075c-.012.022-.588,1.092-1.235,2.573a1.993,1.993,0,0,0-.453-1.079.078.078,0,1,0-.117.1,2.037,2.037,0,0,1,.431,1.3c-.254.6-.513,1.246-.749,1.915a.081.081,0,0,0-.008.024c-.137.389-.266.784-.381,1.178a3.082,3.082,0,0,0-.866-1.974.078.078,0,0,0-.1.121,3.192,3.192,0,0,1,.846,2.276,12.922,12.922,0,0,0-.348,1.713.078.078,0,0,0,.068.087h.01a.078.078,0,0,0,.078-.069,16.452,16.452,0,0,1,.842-3.286,3.99,3.99,0,0,1,1.581-1.137.078.078,0,0,0-.051-.148,3.862,3.862,0,0,0-1.394.908c.4-1.1.857-2.122,1.229-2.911a1.727,1.727,0,0,1,1.077-.484.08.08,0,0,0,.083-.073A.078.078,0,0,0,267.221,112.381Z" transform="translate(-254.36 -106.096)" fill="#48586e"/>
            </g>
            <g id="Grupo_1017734" data-name="Grupo 1017734" transform="translate(2.707 12.114)">
              <path id="Trazado_719810" data-name="Trazado 719810" d="M171.793,143.485s-8.36-1.122-8.27-5.764c0,0-.068-1.122,1.89-.671S171.463,139.349,171.793,143.485Z" transform="translate(-163.522 -136.943)" fill="#33bda6"/>
              <path id="Trazado_719811" data-name="Trazado 719811" d="M186.364,156.856a.1.1,0,0,1-.093-.056c-1.859-3.51-6.922-6.295-6.973-6.322a.1.1,0,0,1,.1-.183c.052.028,5.169,2.843,7.057,6.408a.1.1,0,0,1-.044.141A.1.1,0,0,1,186.364,156.856Z" transform="translate(-176.402 -147.87)" fill="#48586e"/>
            </g>
            <g id="Grupo_1017735" data-name="Grupo 1017735" transform="translate(7.199 17.391)">
              <path id="Trazado_719812" data-name="Trazado 719812" d="M190.331,170.83s-3.045-3.894-1.549-4.59C190.5,165.44,190.7,169.312,190.331,170.83Z" transform="translate(-188.368 -166.132)" fill="#33d2b3"/>
              <path id="Trazado_719813" data-name="Trazado 719813" d="M195.956,178.667a.078.078,0,0,1-.066-.035c-.791-1.209-1.5-4.952-1.529-5.111a.078.078,0,1,1,.154-.029c.007.038.732,3.871,1.507,5.054a.078.078,0,0,1-.066.122Z" transform="translate(-193.276 -172.109)" fill="#48586e"/>
            </g>
            <g id="Grupo_1017736" data-name="Grupo 1017736" transform="translate(0 18.217)">
              <path id="Trazado_719814" data-name="Trazado 719814" d="M148.547,170.7a14.568,14.568,0,0,0,8.282,10.033l1.035-2.374S154.575,171.4,148.547,170.7Z" transform="translate(-148.547 -170.697)" fill="#33bda6"/>
              <path id="Trazado_719815" data-name="Trazado 719815" d="M162.318,184.991c-.415-.482-.879-1-1.367-1.522l-.8-2.8a.1.1,0,0,0-.2.057l.686,2.413c-1.289-1.373-2.7-2.788-3.795-3.862l-.134-1.382a.1.1,0,1,0-.208.02l.11,1.135c-.966-.946-1.632-1.578-1.65-1.594a.1.1,0,0,0-.144.152c.026.025,1.512,1.434,3.278,3.209l-1.585-.222a.1.1,0,0,0-.029.207l1.857.26c1.305,1.318,2.731,2.806,3.82,4.071a.1.1,0,1,0,.158-.137Z" transform="translate(-153.658 -176.207)" fill="#48586e"/>
            </g>
            <g id="Grupo_1017737" data-name="Grupo 1017737" transform="translate(26.312 3.735)">
              <path id="Trazado_719816" data-name="Trazado 719816" d="M303.389,103.312a.078.078,0,0,1-.077-.066,23.01,23.01,0,0,1,.95-9.656.078.078,0,0,1,.149.049,22.852,22.852,0,0,0-.944,9.583.079.079,0,0,1-.065.09Z" transform="translate(-301.52 -93.004)" fill="#48586e"/>
              <path id="Trazado_719817" data-name="Trazado 719817" d="M295.809,126.9s-1.73-.266-1.718-1.554S295.809,126.9,295.809,126.9Z" transform="translate(-294.091 -118.786)" fill="#33bda6"/>
              <path id="Trazado_719818" data-name="Trazado 719818" d="M303.822,120.515s.6-1.18,1.523-.965S303.822,120.515,303.822,120.515Z" transform="translate(-302.063 -114.293)" fill="#33bda6"/>
              <path id="Trazado_719819" data-name="Trazado 719819" d="M299.931,108.179s-1.089-.231-1.089-1.128S299.8,107.463,299.931,108.179Z" transform="translate(-297.983 -103.827)" fill="#249081"/>
              <path id="Trazado_719820" data-name="Trazado 719820" d="M306.454,102.486s.707-.859,1.174-.707S306.985,102.473,306.454,102.486Z" transform="translate(-304.219 -99.742)" fill="#249081"/>
              <path id="Trazado_719821" data-name="Trazado 719821" d="M305.357,91.536s-.208-1.142-.688-.915S305.161,91.517,305.357,91.536Z" transform="translate(-302.649 -90.592)" fill="#33bda6"/>
            </g>
            <g id="Grupo_1017738" data-name="Grupo 1017738" transform="translate(29.393)">
              <path id="Trazado_719822" data-name="Trazado 719822" d="M311.136,82.956l3.168-.22c4.8-4.4,7.172-12.8,7.172-12.8C316.2,71.251,311.136,82.956,311.136,82.956Z" transform="translate(-311.136 -69.931)" fill="#249081"/>
              <path id="Trazado_719823" data-name="Trazado 719823" d="M322.95,92.3a.078.078,0,0,1-.071-.112A82.163,82.163,0,0,1,329.135,81.7a.078.078,0,0,1,.128.091,81.9,81.9,0,0,0-6.241,10.46A.079.079,0,0,1,322.95,92.3Z" transform="translate(-320.75 -79.546)" fill="#48586e"/>
            </g>
            <g id="Grupo_1017739" data-name="Grupo 1017739" transform="translate(49.384 0.616)">
              <path id="Trazado_719824" data-name="Trazado 719824" d="M422.539,73.339c-2.42,6.38,1.276,17.953,1.276,17.953h.278A28.56,28.56,0,0,0,422.539,73.339Z" transform="translate(-421.718 -73.339)" fill="#33bda6"/>
              <path id="Trazado_719825" data-name="Trazado 719825" d="M428.857,100.363a.079.079,0,0,1-.078-.076c-.116-3.65-1.235-12.357-1.246-12.445a.078.078,0,0,1,.155-.02c.011.088,1.131,8.8,1.247,12.46a.079.079,0,0,1-.076.081Z" transform="translate(-426.481 -85.148)" fill="#48586e"/>
            </g>
            <g id="Grupo_1017740" data-name="Grupo 1017740" transform="translate(30.177 1.617)">
              <path id="Trazado_719826" data-name="Trazado 719826" d="M318.383,78.932c-4.708-.7-4.78,5.5,7.92,11.792h.308S323.092,79.636,318.383,78.932Z" transform="translate(-315.471 -78.877)" fill="#33bda6"/>
              <path id="Trazado_719827" data-name="Trazado 719827" d="M333.1,98.074a.078.078,0,0,1-.067-.038c-2.17-3.6-8.852-10.083-8.92-10.148a.078.078,0,0,1,.109-.113c.067.065,6.765,6.561,8.945,10.18a.078.078,0,0,1-.027.108A.08.08,0,0,1,333.1,98.074Z" transform="translate(-322.531 -86.149)" fill="#48586e"/>
              <path id="Trazado_719828" data-name="Trazado 719828" d="M371.708,105.679s2.69-7.364,8.234-8.068,3.124,4.2-1.76,5.841-6.474,2.783-6.474,2.783Z" transform="translate(-361.542 -94.168)" fill="#249081"/>
              <path id="Trazado_719829" data-name="Trazado 719829" d="M374.795,112.841a.078.078,0,0,1-.05-.018.079.079,0,0,1-.011-.11,20.3,20.3,0,0,1,6.444-5.4,9.433,9.433,0,0,1,2.848-1,.078.078,0,0,1,.018.156c-.044.005-4.471.584-9.189,6.34A.078.078,0,0,1,374.795,112.841Z" transform="translate(-364.006 -101.355)" fill="#48586e"/>
            </g>
            <g id="Grupo_1017741" data-name="Grupo 1017741" transform="translate(52.494 6.512)">
              <path id="Trazado_719830" data-name="Trazado 719830" d="M453.644,110.31a6.905,6.905,0,0,0-5.72,6.424c13.244-.88,14.268-10.78,14.268-10.78A18.152,18.152,0,0,1,453.644,110.31Z" transform="translate(-446.296 -105.954)" fill="#249081"/>
              <path id="Trazado_719831" data-name="Trazado 719831" d="M452.882,119.653a.078.078,0,0,0-.11.016,10.775,10.775,0,0,1-1.752,1.688,2.792,2.792,0,0,1,.606-1.314.078.078,0,1,0-.116-.106,3.017,3.017,0,0,0-.673,1.562,16.7,16.7,0,0,1-4.164,2.318,6.842,6.842,0,0,1,1.568-1.5.078.078,0,1,0-.078-.136,7.7,7.7,0,0,0-1.78,1.756,15.27,15.27,0,0,0-2.034.972l-.009,0a15.779,15.779,0,0,0-1.344.866,4.588,4.588,0,0,1,1.519-2.343.078.078,0,0,0-.085-.132,4.935,4.935,0,0,0-1.644,2.631,16.64,16.64,0,0,0-3.856,4.024.078.078,0,1,0,.13.087,16.4,16.4,0,0,1,5.335-4.986,6.321,6.321,0,0,0,1.341.143,4.952,4.952,0,0,0,1.252-.151.078.078,0,0,0-.04-.152,5.737,5.737,0,0,1-2.338.042,15,15,0,0,1,1.99-.928,17.5,17.5,0,0,0,2.3-1.063,7.923,7.923,0,0,0,2.339-.523.078.078,0,0,0-.067-.142,7,7,0,0,1-1.935.473,16.122,16.122,0,0,0,1.712-1.15.07.07,0,0,0,.017-.013,11.2,11.2,0,0,0,1.929-1.833A.079.079,0,0,0,452.882,119.653Z" transform="translate(-438.918 -117.164)" fill="#48586e"/>
            </g>
            <g id="Grupo_1017742" data-name="Grupo 1017742" transform="translate(52.596 4.102)">
              <path id="Trazado_719832" data-name="Trazado 719832" d="M439.565,109.442a.079.079,0,0,1-.078-.078c0-7.222,4.337-16.6,4.38-16.7a.078.078,0,0,1,.142.066c-.044.094-4.366,9.445-4.366,16.632A.078.078,0,0,1,439.565,109.442Z" transform="translate(-439.486 -92.621)" fill="#48586e"/>
              <path id="Trazado_719833" data-name="Trazado 719833" d="M443.485,126.5a5.4,5.4,0,0,1-.268-3.878,6.2,6.2,0,0,1,.35,2.309C443.584,125.452,443.468,125.988,443.485,126.5Z" transform="translate(-442.346 -117.202)" fill="#249081"/>
              <path id="Trazado_719834" data-name="Trazado 719834" d="M452.807,123.569a3.734,3.734,0,0,0-2.656,1.068,2.542,2.542,0,0,0,1.749-.347A2.157,2.157,0,0,0,452.807,123.569Z" transform="translate(-448.223 -117.974)" fill="#33bda6"/>
              <path id="Trazado_719835" data-name="Trazado 719835" d="M451.066,109.717a2.721,2.721,0,0,1-.284-2.4,1.566,1.566,0,0,1,.439,1.146A4.338,4.338,0,0,1,451.066,109.717Z" transform="translate(-448.611 -104.662)" fill="#33bda6"/>
              <path id="Trazado_719836" data-name="Trazado 719836" d="M456.667,108.846a.973.973,0,0,1,.62-.376,2.886,2.886,0,0,1,.741-.022.811.811,0,0,1,.518.152A1.657,1.657,0,0,1,456.667,108.846Z" transform="translate(-453.561 -105.576)" fill="#249081"/>
              <path id="Trazado_719837" data-name="Trazado 719837" d="M457.459,95.4a1.481,1.481,0,0,1-.4-1.689,1.213,1.213,0,0,1,.306.451A2.484,2.484,0,0,1,457.459,95.4Z" transform="translate(-453.791 -93.511)" fill="#249081"/>
              <path id="Trazado_719838" data-name="Trazado 719838" d="M463.281,94.114c.208-.012.4-.109.61-.137a.948.948,0,0,1,.725.209.839.839,0,0,1-.677.225A1.692,1.692,0,0,1,463.281,94.114Z" transform="translate(-458.979 -93.725)" fill="#33bda6"/>
            </g>
            <g id="Grupo_1017743" data-name="Grupo 1017743" transform="translate(59.006 13.656)">
              <path id="Trazado_719839" data-name="Trazado 719839" d="M474.942,158.4l.847,1.124c5.291-5.439,6.752-14.054,6.752-14.054C478.513,148.227,474.942,158.4,474.942,158.4Z" transform="translate(-474.942 -145.468)" fill="#249081"/>
              <path id="Trazado_719840" data-name="Trazado 719840" d="M483.1,165.538a.079.079,0,0,1-.036-.009.078.078,0,0,1-.033-.106c.749-1.434,4.822-10.2,4.863-10.286a.078.078,0,1,1,.142.066c-.041.088-4.115,8.855-4.866,10.292A.077.077,0,0,1,483.1,165.538Z" transform="translate(-481.565 -153.353)" fill="#48586e"/>
            </g>
            <g id="Grupo_1017744" data-name="Grupo 1017744" transform="translate(44.643 11.509)">
              <path id="Trazado_719841" data-name="Trazado 719841" d="M395.493,136.494c.649-.716,1.753-2.169,2.657-2.511.438-.166.908-.234,1.349-.392a7.753,7.753,0,0,1-1.28,4.618.627.627,0,0,1-.281.261.6.6,0,0,1-.313,0A3.25,3.25,0,0,1,395.493,136.494Z" transform="translate(-395.493 -133.591)" fill="#249081"/>
              <path id="Trazado_719842" data-name="Trazado 719842" d="M402.929,143.031a.08.08,0,0,1-.03-.006.079.079,0,0,1-.043-.1,24.361,24.361,0,0,1,1.7-3.049.078.078,0,1,1,.131.086A24.24,24.24,0,0,0,403,142.982.078.078,0,0,1,402.929,143.031Z" transform="translate(-401.52 -138.709)" fill="#48586e"/>
            </g>
            <g id="Grupo_1017745" data-name="Grupo 1017745" transform="translate(53.149 16.942)">
              <path id="Trazado_719843" data-name="Trazado 719843" d="M480.423,164a5.663,5.663,0,0,0-5.481,1.028c8.406,7.568,13.817,1.935,13.817,1.935C485.722,167.284,483.39,165.187,480.423,164Z" transform="translate(-469.085 -163.649)" fill="#33bda6"/>
              <path id="Trazado_719844" data-name="Trazado 719844" d="M459.785,171.224a.078.078,0,0,0-.093-.06,4.352,4.352,0,0,1-1.194.088h0a7.1,7.1,0,0,1-1.385-.235,4.865,4.865,0,0,1,1.306-.356.078.078,0,1,0-.006-.157,5.655,5.655,0,0,0-1.549.445c-.741-.212-1.517-.511-2.342-.828-.635-.245-1.283-.493-1.957-.72l-.007,0c-.393-.132-.8-.257-1.209-.368a4.408,4.408,0,0,1,1.841-.679.078.078,0,0,0-.021-.155,4.363,4.363,0,0,0-2.018.784c-.073-.019-.145-.038-.219-.056a11.223,11.223,0,0,0-8.351,1.7.078.078,0,1,0,.092.127,11.054,11.054,0,0,1,8.222-1.674c.542.131,1.063.288,1.571.458a3.365,3.365,0,0,0,1.146,1.955.078.078,0,0,0,.052.02.078.078,0,0,0,.052-.137,3.319,3.319,0,0,1-1.079-1.781c.628.215,1.234.448,1.83.677a14.233,14.233,0,0,0,3.993,1.139,1.4,1.4,0,0,0,.722.5.075.075,0,0,0,.027,0,.078.078,0,0,0,.027-.152,1.427,1.427,0,0,1-.566-.348l.114,0a4.371,4.371,0,0,0,.949-.1A.078.078,0,0,0,459.785,171.224Z" transform="translate(-442.543 -167.373)" fill="#48586e"/>
            </g>
            <path id="Trazado_719845" data-name="Trazado 719845" d="M452.817,182.812l.338-.154A25.872,25.872,0,0,1,458.6,180.9a17.529,17.529,0,0,1-5.91,3.124C452.654,183.667,452.851,183.172,452.817,182.812Z" transform="translate(-397.701 -160.841)" fill="#33bda6"/>
            <g id="Grupo_1017746" data-name="Grupo 1017746" transform="translate(61.431 23.656)">
              <path id="Trazado_719846" data-name="Trazado 719846" d="M490.74,200.785a25.84,25.84,0,0,1-1.6,3.856,7.744,7.744,0,0,0-.721,4.391l.51.886C492.12,206.563,490.74,200.785,490.74,200.785Z" transform="translate(-488.353 -200.785)" fill="#33bda6"/>
              <path id="Trazado_719847" data-name="Trazado 719847" d="M493.139,211.587a.063.063,0,1,0-.108-.063,1.514,1.514,0,0,1-.277.31c.055-.465.071-.76.071-.77a.063.063,0,0,0-.06-.066.066.066,0,0,0-.066.06,16.15,16.15,0,0,1-.224,1.8,2.517,2.517,0,0,1-.246-.781.062.062,0,0,0-.066-.059.063.063,0,0,0-.059.066,3.031,3.031,0,0,0,.333.982,12.532,12.532,0,0,1-.686,2.389,9.273,9.273,0,0,1-.106-1.588.063.063,0,0,0-.061-.064h0a.063.063,0,0,0-.063.061,8.12,8.12,0,0,0,.148,1.785,6.321,6.321,0,0,1-.538.986.063.063,0,1,0,.1.071,6.446,6.446,0,0,0,.554-1.017l0-.007a9.862,9.862,0,0,0,.377-1.013,4.785,4.785,0,0,0,.809-1.107.063.063,0,0,0-.114-.052,4.067,4.067,0,0,1-.611.881c.13-.451.231-.9.31-1.309a.062.062,0,0,0,0-.013c.074-.389.128-.747.167-1.05A1.959,1.959,0,0,0,493.139,211.587Z" transform="translate(-490.62 -209.152)" fill="#48586e"/>
            </g>
          </g>
          <path id="Trazado_719848" data-name="Trazado 719848" d="M143.409,221.817c-.171,3.057-1.054,3.76-3.868,3.743-2.216-.013-4.433,0-6.649,0H44.984a36.129,36.129,0,0,1-6.033-.157c-2.063-.291-3.071-2.444-4.218-4.037a8.435,8.435,0,0,1-1.641-3.422A6.178,6.178,0,0,1,34.46,213.2c2.195-2.784,4.958-3.393,8.319-3.147,2.865.209,5.87.094,8.414-1.24a15.266,15.266,0,0,0,2.381-1.617,23.991,23.991,0,0,0,6.071-6.766,29.765,29.765,0,0,1,1.571-3.1,30.4,30.4,0,0,1,2.115-2.545,32.6,32.6,0,0,1,5.387-4.737c3.7-2.567,8.408-4.518,12.941-3.223,7.125,2.035,14.083,4.586,21.084,7.088a48.962,48.962,0,0,0,22.508,2.479,6.071,6.071,0,0,1,5.21,1.831,7.965,7.965,0,0,1,1.969,4.422,37.019,37.019,0,0,0,.439,4.624c.874,3.341,3.881,4.96,6.563,6.684A8.672,8.672,0,0,1,143.409,221.817ZM50.147,207.625a4.013,4.013,0,0,0,1.733-1.468,2.031,2.031,0,0,0,.4-.951,1.728,1.728,0,0,0-1.143-1.612,5.758,5.758,0,0,0-5.784,1.4,1.885,1.885,0,0,0-.574,1.313c.075,1.329,1.774,1.7,3.3,1.662A6.471,6.471,0,0,0,50.147,207.625Zm85.605.377a5.225,5.225,0,0,0,3.394,2.909,2.107,2.107,0,0,0,2.039-.666,2.378,2.378,0,0,0,.4-1.178,8.387,8.387,0,0,0-1.756-5.467c-.86-1.261-3.145-3.539-4.752-2C133.58,203.03,134.963,206.57,135.752,208Z" transform="translate(-33.023 -165.355)" fill="#e0f0ed"/>
          <g id="Grupo_1017749" data-name="Grupo 1017749" transform="translate(23.597 12.221)">
            <path id="Trazado_719849" data-name="Trazado 719849" d="M220.59,185.518a31.036,31.036,0,1,0-52,0Z" transform="translate(-163.553 -137.534)" fill="#9dcdd3"/>
            <g id="Grupo_1017748" data-name="Grupo 1017748" transform="translate(0 0.146)">
              <path id="Trazado_719850" data-name="Trazado 719850" d="M264.169,173.16a10.053,10.053,0,0,0,1.628-1.148c.774-.884.608-2.228.98-3.343a4.923,4.923,0,0,0,.42-1.4c.018-.786-.894-1.692-.817-2.475a6.273,6.273,0,0,0-.039-2.162,5.009,5.009,0,0,1-.351-1.509c.031-.491.32-.992.138-1.449-.11-.275-.368-.461-.522-.714a4.216,4.216,0,0,1-.3-.984,2.152,2.152,0,0,0-1.4-1.4c-.362-.111-.752-.123-1.106-.26-.565-.218-.975-.724-1.526-.978-.641-.295-1.409-.219-2.037-.54-.38-.195-.678-.521-1.048-.736a1.922,1.922,0,0,0-1.861-.074,2.191,2.191,0,0,1-1.605.055,3.317,3.317,0,0,0-1.621-.157,3.638,3.638,0,0,0-1.1.635,4.528,4.528,0,0,1-1.237.449,8.625,8.625,0,0,0-1.288.4,4.584,4.584,0,0,0-2.048,2.032,7.473,7.473,0,0,1-.875,1.675,4.106,4.106,0,0,1-1.179.83,2.019,2.019,0,0,1-.982.327,3.513,3.513,0,0,1-1.088-.374,2.384,2.384,0,0,0-1.807.061,3.864,3.864,0,0,1-1.416.6c-.933.019-1.433-1.085-2.226-1.578-.525-.326-1.3-.51-1.372-1.124-.036-.316.144-.685-.063-.927-.239-.28-.691-.066-.98.162s-.729.455-.982.188c-.1-.443.575-.789.466-1.23-.093-.379-.625-.386-1.006-.307-.038-.206.11-.392.2-.58s.091-.477-.109-.539a.362.362,0,0,0-.221.02,1.657,1.657,0,0,0-.91,1.024c-.171.44-.25.912-.442,1.343a1.493,1.493,0,0,1-1,.924.789.789,0,0,1-.95-.757,2.484,2.484,0,0,1,.21-.549c.31-.814-.322-1.744-.074-2.579.239-.8,1.18-1.183,1.6-1.91.141-.245.218-.522.348-.772a2.087,2.087,0,0,1,2.523-.95c.3.118.575.309.881.418a.941.941,0,0,0,.925-.094.811.811,0,0,0-.347-.836,3.124,3.124,0,0,1-.721-.635c-.426-.673.158-1.5.453-2.237a3.077,3.077,0,0,0,.058-2.094c-.146-.435-.389-.834-.526-1.272a1.454,1.454,0,0,1,.132-1.318c.295-.378.813-.479,1.241-.695s.816-.74.557-1.144c-.119-.187-.341-.279-.5-.434a2,2,0,0,1-.392-1.169,1.909,1.909,0,0,0-.163-.535,30.917,30.917,0,0,0-18.069,8.114c.7,1.3,1.695,2.525,1.741,3.993a14.079,14.079,0,0,1,.052,2.759,2.723,2.723,0,0,0,.644,2.142,5.464,5.464,0,0,0,1.84,1.362,4.02,4.02,0,0,1,1.332.855c.419.486.543,1.185,1,1.636.2.2.465.341.678.535.461.419.7,1.086,1.254,1.364a.16.16,0,0,0,.132.02c.082-.036.057-.159.014-.237a6.84,6.84,0,0,1-.891-1.484c-.092-.373-.036-.808-.285-1.1-.086-.1-.2-.174-.278-.282a.279.279,0,0,1,0-.361.321.321,0,0,1,.293-.031,2.125,2.125,0,0,1,.775.468q.556.464,1.076.97a5.253,5.253,0,0,0,.868.746,2.719,2.719,0,0,0,2.238.249,3.984,3.984,0,0,1,2.315-.321c.23.062.446.165.676.228a2.027,2.027,0,0,0,1.645-.271,1.273,1.273,0,0,1,.573-.3c.368-.027.62.343.885.6.363.352.861.537,1.225.888a6.533,6.533,0,0,0,.662.69,2.443,2.443,0,0,0,1.942.1,2.153,2.153,0,0,1,1.916.208,5.41,5.41,0,0,1,.555.758c.4.509,1.09.878,1.116,1.522.022.533-.445.953-.609,1.461-.063.194-.081.4-.148.594a2.559,2.559,0,0,1-.939,1.142,2.318,2.318,0,0,0-.63,2.491,6.8,6.8,0,0,0,1.439,2.3,16.423,16.423,0,0,0,2.417,2.522,2.408,2.408,0,0,0,1,.523,3.779,3.779,0,0,0,1.13-.053,2.805,2.805,0,0,1,2.451.73c.947,1.087.355,2.818.867,4.166.111.293.274.565.366.864a5.224,5.224,0,0,1,.136,1.263,14.271,14.271,0,0,0,1,4.014h6.52c0-.079,0-.159,0-.238.09-1.5,1.828-2.349,2.378-3.748a15.829,15.829,0,0,1,.542-1.81,6.944,6.944,0,0,1,1.416-1.457,3.059,3.059,0,0,0,.9-1.591,1.924,1.924,0,0,0-.5-1.714c-.264-.254-.62-.422-.8-.738C263.227,174.307,263.639,173.565,264.169,173.16Z" transform="translate(-208.67 -138.341)" fill="#c4e1d9"/>
              <path id="Trazado_719851" data-name="Trazado 719851" d="M315.289,216.271a2.893,2.893,0,0,1,.587-.078,2.554,2.554,0,0,0,1-.323,1.777,1.777,0,0,1,.637-.294,3.45,3.45,0,0,1,.458.02c.341.005.673-.154,1.013-.123a.459.459,0,0,1,.4.252.6.6,0,0,1-.083.453,1.467,1.467,0,0,1-.218.362.494.494,0,0,1-.37.178c-.141-.005-.267-.09-.407-.107-.393-.046-.687.443-1.082.426-.3-.013-.53-.323-.833-.342a1.449,1.449,0,0,0-.581.183c-.175.067-.648.232-.816.108C314.675,216.742,315.028,216.354,315.289,216.271Z" transform="translate(-287.515 -201.525)" fill="#c4e1d9"/>
              <path id="Trazado_719852" data-name="Trazado 719852" d="M323.559,194.393c.052.106.044.263-.064.309a.285.285,0,0,1-.092.017.863.863,0,0,1-.312-.018.9.9,0,0,1-.343-.242l-.361-.353a.547.547,0,0,1-.22-.4.54.54,0,0,1,.059-.181l.233-.5a.234.234,0,0,1,.117-.137c.088-.03.175.055.206.143a1.4,1.4,0,0,0,.081.266c.1.17.379.2.436.387.041.137-.032.268.034.4C323.388,194.2,323.5,194.278,323.559,194.393Z" transform="translate(-293.492 -183.023)" fill="#c4e1d9"/>
              <path id="Trazado_719853" data-name="Trazado 719853" d="M179.113,319.554a9.851,9.851,0,0,0,.1-1.9,2.164,2.164,0,0,0-.189-1.032c-.286-.511-.922-.7-1.346-1.106-.753-.716-.72-1.955-1.354-2.779-.39-.507-1-.814-1.371-1.338-1.189-1.7.86-4.3-.3-6.02a5.747,5.747,0,0,0-1.81-1.354c-.827-.539-1.5-1.289-2.34-1.81a2.711,2.711,0,0,0-2.8-.254,2.619,2.619,0,0,1-2.665-.029,4.326,4.326,0,0,0-1.311-.764,1.161,1.161,0,0,0-.149-.017c-.022.483-.035.969-.035,1.457a30.887,30.887,0,0,0,5.034,16.948h10.525Z" transform="translate(-163.554 -271.716)" fill="#c4e1d9"/>
              <path id="Trazado_719854" data-name="Trazado 719854" d="M410.482,155.526a1,1,0,0,0-.281.607c-.18,1.346,2.343,2.009,2.954,2.921a18.083,18.083,0,0,0,.839,1.677c.691.827,1.969.754,2.944,1.212a7.609,7.609,0,0,1,1.631,1.25,3.142,3.142,0,0,0,1.815.9,1.5,1.5,0,0,0,.557-.084A31.163,31.163,0,0,0,410.482,155.526Z" transform="translate(-365.604 -152.419)" fill="#c4e1d9"/>
              <path id="Trazado_719855" data-name="Trazado 719855" d="M337.848,205.63a3.521,3.521,0,0,1,.693-.148c.288.006.551.181.839.2a2.464,2.464,0,0,1,.437.01c.142.034.277.176.229.314a.28.28,0,0,1-.223.16c-.094.018-.192.012-.285.032-.318.069-.511.415-.822.51a.991.991,0,0,1-.733-.141,2.228,2.228,0,0,0-.7-.3,3.78,3.78,0,0,0-.506,0,.643.643,0,0,1-.467-.157c-.071-.074-.106-.2-.03-.272a.315.315,0,0,1,.142-.053c.238-.058.3-.253.554-.215A2.531,2.531,0,0,0,337.848,205.63Z" transform="translate(-305.019 -193.344)" fill="#c4e1d9"/>
            </g>
          </g>
          <g id="Grupo_1017754" data-name="Grupo 1017754" transform="translate(3.737 41.889)">
            <g id="Grupo_1017750" data-name="Grupo 1017750" transform="translate(48.467 14.372)">
              <path id="Trazado_719856" data-name="Trazado 719856" d="M334.537,385.089c-.152-.482-.787-.937-1.121-1.275a.832.832,0,0,0-.264-.2c-.191-.078-.411-.005-.614-.042-.365-.066-.587-.458-.939-.575a4.031,4.031,0,0,1-.6-.133,2.431,2.431,0,0,1-.415-.379c-.246-.211-.594-.272-.836-.486-.308-.272-.449-.782-.855-.844-.3-.046-.562.194-.854.278a5.472,5.472,0,0,0-.563.117c-.414.169-.537.68-.776,1.057a3.339,3.339,0,0,1-2.184,1.165l-1.9.452a1.429,1.429,0,0,0-.491.183.855.855,0,0,0-.338.685Z" transform="translate(-321.79 -381.145)" fill="#b6845a"/>
              <path id="Trazado_719857" data-name="Trazado 719857" d="M371.489,391.638a1.17,1.17,0,0,0-.6-.832,10.1,10.1,0,0,1-.893-.519c-.273-.214-.488-.491-.746-.721a1.35,1.35,0,0,0-1.059-.415,3.071,3.071,0,0,0-.7.288,6.291,6.291,0,0,1-1.6.281,4.844,4.844,0,0,0-2.771,1.423.841.841,0,0,0-.248.394.487.487,0,0,0-.008.1Z" transform="translate(-355.435 -387.695)" fill="#93745a"/>
            </g>
            <path id="Trazado_719858" data-name="Trazado 719858" d="M220.941,395.274a.6.6,0,0,0-.056-.046,4.183,4.183,0,0,0-3.093-.719,1.147,1.147,0,0,1-.391.026,1.344,1.344,0,0,1-.585-.4.6.6,0,0,0-.65-.167.387.387,0,0,1-.163.079.24.24,0,0,1-.124-.042,1.779,1.779,0,0,0-1.25-.4,1.2,1.2,0,0,0-.473.28,3.122,3.122,0,0,0-.633.767,2.982,2.982,0,0,0-.3.624Z" transform="translate(-184.381 -376.958)" fill="#b6845a"/>
            <g id="Grupo_1017751" data-name="Grupo 1017751" transform="translate(0 4.4)">
              <path id="Trazado_719859" data-name="Trazado 719859" d="M84.9,325.985c-3.2,6.356,0,8.649,0,8.649S88.093,332.341,84.9,325.985Z" transform="translate(-78.092 -325.985)" fill="#33bda6"/>
              <path id="Trazado_719860" data-name="Trazado 719860" d="M88.164,343.152a.052.052,0,1,0-.1-.037l-.743,1.975v-2.227l.463-1.231a.052.052,0,1,0-.1-.037l-.365.971V341.31a.052.052,0,0,0-.1,0v2.006l-.508-1.35a.052.052,0,1,0-.1.037l.605,1.61v2.517l-.743-1.975a.052.052,0,1,0-.1.037l.841,2.235v4.633a.052.052,0,0,0,.1,0v-5.672Z" transform="translate(-80.467 -338.497)" fill="#48586e"/>
              <path id="Trazado_719861" data-name="Trazado 719861" d="M110.845,345.152c-2.314,4.6,0,6.263,0,6.263S113.159,349.755,110.845,345.152Z" transform="translate(-99.671 -341.687)" fill="#249081"/>
              <path id="Trazado_719862" data-name="Trazado 719862" d="M112.695,357.857a.052.052,0,0,0-.072.017l-.442.722v-1.45l.356-.581a.052.052,0,0,0-.089-.055l-.267.436v-.758a.052.052,0,1,0-.1,0v1.536l-.4-.62a.052.052,0,0,0-.088.056l.487.757v1.457l-.6-.928a.052.052,0,0,0-.088.056l.685,1.065v3.681a.052.052,0,0,0,.1,0V358.8l.531-.868A.053.053,0,0,0,112.695,357.857Z" transform="translate(-100.954 -350.685)" fill="#48586e"/>
              <path id="Trazado_719863" data-name="Trazado 719863" d="M59.549,345.152c-2.314,4.6,0,6.263,0,6.263S61.863,349.755,59.549,345.152Z" transform="translate(-57.648 -341.687)" fill="#249081"/>
              <path id="Trazado_719864" data-name="Trazado 719864" d="M61.4,358.075a.052.052,0,0,0-.071.019l-.4.7V357.07l.326-.572a.052.052,0,0,0-.091-.052l-.235.413v-.671a.052.052,0,1,0-.1,0v1.392l-.436-.794a.052.052,0,0,0-.092.05l.527.962v1.716l-.584-1.065a.052.052,0,0,0-.071-.021.052.052,0,0,0-.021.071l.676,1.233v3.517a.052.052,0,1,0,.1,0V359l.488-.857A.053.053,0,0,0,61.4,358.075Z" transform="translate(-58.982 -350.685)" fill="#48586e"/>
              <path id="Trazado_719865" data-name="Trazado 719865" d="M67.606,392.1l.055-.007a2.428,2.428,0,0,0-1.605-.953,3.7,3.7,0,0,1-.426.01,1.711,1.711,0,0,1-.869-.545,1.04,1.04,0,0,0-.934-.349c-.173.053-.311.185-.48.249a2.909,2.909,0,0,1-.9.018,2.615,2.615,0,0,0-.952.309.379.379,0,0,1-.2.05.482.482,0,0,1-.2-.111,1.825,1.825,0,0,0-1.6-.034.924.924,0,0,1-.339.063.714.714,0,0,1-.273-.089c-.608-.314-1.066-1-1.75-1.008a4.489,4.489,0,0,0-1.24.392c-.29.083-.6.089-.89.163a1.784,1.784,0,0,0-1.075.765,1.508,1.508,0,0,0-.2,1.076H67.606Z" transform="translate(-53.694 -378.182)" fill="#93745a"/>
            </g>
            <g id="Grupo_1017753" data-name="Grupo 1017753" transform="translate(91.752)">
              <path id="Trazado_719866" data-name="Trazado 719866" d="M568.024,395.388l-1.815-1.425a1.484,1.484,0,0,0-1.914.305,15.665,15.665,0,0,1-3.069,1.12Z" transform="translate(-561.226 -377.072)" fill="#93745a"/>
              <g id="Grupo_1017752" data-name="Grupo 1017752" transform="translate(5.807)">
                <path id="Trazado_719867" data-name="Trazado 719867" d="M598.056,308.8a39.306,39.306,0,0,1-2.178-7.15,39.3,39.3,0,0,1-2.178,7.15,3.294,3.294,0,1,0,4.356,0Z" transform="translate(-593.347 -301.645)" fill="#33bda6"/>
                <path id="Trazado_719868" data-name="Trazado 719868" d="M611.089,375.386a3.184,3.184,0,0,0,1.951-3.1A2.723,2.723,0,0,0,611.089,375.386Z" transform="translate(-607.847 -359.52)" fill="#249081"/>
                <path id="Trazado_719869" data-name="Trazado 719869" d="M596.264,372.167a2.763,2.763,0,0,1-1.693-2.686A2.363,2.363,0,0,1,596.264,372.167Z" transform="translate(-594.35 -357.217)" fill="#249081"/>
                <path id="Trazado_719870" data-name="Trazado 719870" d="M601.661,334.63a.053.053,0,0,0-.072.016l-1.773,2.817v-4.856l1.337-2.739a.052.052,0,0,0-.094-.046l-1.243,2.547v-1.958l.99-2.029a.052.052,0,1,0-.094-.046l-.9,1.836v-1.8l.7-1.441a.052.052,0,1,0-.094-.046l-.609,1.249V326.31l.459-.941a.052.052,0,1,0-.094-.046l-.365.748V324.9a.052.052,0,1,0-.1,0v1.177l-.365-.749a.052.052,0,1,0-.094.046l.459.941v1.824l-.609-1.249a.052.052,0,1,0-.094.046l.7,1.441v1.8l-.9-1.836a.052.052,0,0,0-.094.046l.99,2.029v1.957l-1.243-2.547a.052.052,0,1,0-.094.046l1.337,2.739v3.79l-1.526-2.424a.052.052,0,1,0-.088.055l1.615,2.565v1.8a.052.052,0,1,0,.1,0v-.734l1.862-2.958A.053.053,0,0,0,601.661,334.63Z" transform="translate(-597.232 -320.649)" fill="#48586e"/>
              </g>
              <path id="Trazado_719871" data-name="Trazado 719871" d="M589.653,396.662c-1.32.207-1.353.405-1.782.207a1.737,1.737,0,0,0-1.221-.033,14.905,14.905,0,0,1-2.97.946h7.92A1.962,1.962,0,0,0,589.653,396.662Z" transform="translate(-579.621 -379.467)" fill="#b6845a"/>
            </g>
            <path id="Trazado_719872" data-name="Trazado 719872" d="M340.134,385.117a.287.287,0,0,1-.108-.349.485.485,0,0,1,.133-.147c.174-.146.916-.732.876-.128C341.012,384.843,340.48,385.348,340.134,385.117Z" transform="translate(-288.243 -369.296)" fill="#b6845a"/>
            <path id="Trazado_719873" data-name="Trazado 719873" d="M379.469,386.743a.377.377,0,0,0-.15-.075l-.152-.05a.664.664,0,0,0-.347-.048c-.115.026-.125.3-.125.3a.581.581,0,0,0,.448.293.385.385,0,0,0,.32-.105A.235.235,0,0,0,379.469,386.743Z" transform="translate(-319.94 -371.21)" fill="#93745a"/>
            <path id="Trazado_719874" data-name="Trazado 719874" d="M402.232,386.217a1.523,1.523,0,0,1-.286-.8.769.769,0,0,1-.01-.264.23.23,0,0,1,.38-.157.757.757,0,0,1,.162.172,1.2,1.2,0,0,1,.307,1.014C402.77,386.664,402.455,386.468,402.232,386.217Z" transform="translate(-338.974 -369.884)" fill="#93745a"/>
            <path id="Trazado_719875" data-name="Trazado 719875" d="M237.855,393.652a.477.477,0,0,0-.413-.041,1.2,1.2,0,0,0-.367.22.367.367,0,0,0,0,.33,2.62,2.62,0,0,0,.641-.029.346.346,0,0,0,.257-.219A.264.264,0,0,0,237.855,393.652Z" transform="translate(-203.891 -376.963)" fill="#b6845a"/>
            <path id="Trazado_719876" data-name="Trazado 719876" d="M80.542,387.626a.683.683,0,0,1-.2-.511.252.252,0,0,1,.067-.167.219.219,0,0,1,.23-.027.646.646,0,0,1,.194.146,1.025,1.025,0,0,1,.388.634.267.267,0,0,1-.05.184C81.037,388.048,80.643,387.733,80.542,387.626Z" transform="translate(-75.526 -371.488)" fill="#93745a"/>
            <path id="Trazado_719877" data-name="Trazado 719877" d="M97.493,388.6a.352.352,0,0,0-.334-.139.556.556,0,0,0-.536.416c-.016.1.051.241.152.216l.143-.019a.881.881,0,0,0,.437-.089A.3.3,0,0,0,97.493,388.6Z" transform="translate(-88.86 -372.768)" fill="#93745a"/>
            <path id="Trazado_719878" data-name="Trazado 719878" d="M124.978,393.375a.36.36,0,0,1-.055-.218.174.174,0,0,1,.144-.155.253.253,0,0,1,.157.061,2.009,2.009,0,0,1,.475.468c.145.2.143.435-.133.363A1.226,1.226,0,0,1,124.978,393.375Z" transform="translate(-112.044 -376.486)" fill="#93745a"/>
            <path id="Trazado_719879" data-name="Trazado 719879" d="M591.276,388.909a4.456,4.456,0,0,0-.465-.484.856.856,0,0,0-.3-.193.332.332,0,0,0-.333.061.328.328,0,0,0-.038.369.763.763,0,0,0,.275.279,2.433,2.433,0,0,0,.615.3l.087,0,.223-.006C591.426,389.144,591.353,389,591.276,388.909Z" transform="translate(-493.133 -372.563)" fill="#b6845a"/>
            <path id="Trazado_719880" data-name="Trazado 719880" d="M622.557,392.23a1.444,1.444,0,0,0-.491-.551.468.468,0,0,0-.243-.106.333.333,0,0,0-.3.375.63.63,0,0,0,.306.432c.152.1.326.163.483.256l.015-.012a.179.179,0,0,0,.263-.082A.387.387,0,0,0,622.557,392.23Z" transform="translate(-518.866 -375.316)" fill="#93745a"/>
          </g>
          <g id="Grupo_1017767" data-name="Grupo 1017767" transform="translate(5.359 18.32)">
            <g id="Grupo_1017763" data-name="Grupo 1017763" transform="translate(55.941)">
              <g id="Grupo_1017755" data-name="Grupo 1017755" transform="translate(6.849 33.635)">
                <rect id="Rectángulo_375638" data-name="Rectángulo 375638" width="4.191" height="0.545" transform="translate(0.972 6.792) rotate(-75.925)" fill="#9a554b"/>
                <path id="Trazado_719881" data-name="Trazado 719881" d="M431.756,363.642a.48.48,0,0,1-.327-.13l-3.682-3.42a.209.209,0,1,1,.285-.306l3.682,3.419a.065.065,0,0,0,.108-.055l-.642-5.6a.209.209,0,1,1,.415-.048l.642,5.6a.485.485,0,0,1-.481.539Z" transform="translate(-424.482 -357.321)" fill="#6e474b"/>
                <path id="Trazado_719882" data-name="Trazado 719882" d="M442.144,363.642a.479.479,0,0,1-.327-.13l-3.683-3.42a.209.209,0,0,1,.285-.306l3.682,3.419a.065.065,0,0,0,.108-.055l-.643-5.6a.209.209,0,1,1,.415-.048l.643,5.6a.485.485,0,0,1-.481.539Z" transform="translate(-432.992 -357.321)" fill="#9a554b"/>
                <path id="Trazado_719883" data-name="Trazado 719883" d="M412.376,390.861a1.193,1.193,0,1,1-1.193-1.193A1.193,1.193,0,0,1,412.376,390.861Z" transform="translate(-409.991 -383.82)" fill="#4b4360"/>
                <path id="Trazado_719884" data-name="Trazado 719884" d="M414.323,393.358a.641.641,0,1,1-.641-.641A.641.641,0,0,1,414.323,393.358Z" transform="translate(-412.489 -386.318)" fill="#a39eb3"/>
              </g>
              <g id="Grupo_1017756" data-name="Grupo 1017756" transform="translate(16.647 12.965)">
                <path id="Trazado_719885" data-name="Trazado 719885" d="M490.507,244.834c-.077-.627-.286-1.848-.286-1.848a2.877,2.877,0,0,1-1.181.155l.075,1.319a36.41,36.41,0,0,1-2.756,3.267,2.025,2.025,0,0,0-.776.611,2.268,2.268,0,0,0-.371,1.13,4.578,4.578,0,0,1-.082.734.1.1,0,0,0,.124.14c.082-.033.355-.256.363-.371s.264.091.338-.041.239-.041.281-.215.247-.041.247-.239.239-.124.281-.256a1.991,1.991,0,0,0,.157-.437c.033-.215,3.3-2.935,3.655-3.447h0C490.548,245.15,490.525,244.978,490.507,244.834Z" transform="translate(-481.336 -242.986)" fill="#f48663"/>
                <path id="Trazado_719886" data-name="Trazado 719886" d="M507.989,242.986a2.877,2.877,0,0,1-1.18.155l.018.312a3.55,3.55,0,0,0,1.27.182C508.037,243.271,507.989,242.986,507.989,242.986Z" transform="translate(-499.104 -242.986)" fill="#cc7863"/>
                <path id="Trazado_719887" data-name="Trazado 719887" d="M488.773,272.339c-.071.067-.267.057-.317.063s-.143.253-.143.253l-.038-.088a.158.158,0,0,0-.223-.08c-.095.044-.09.454-.127.372a.127.127,0,0,0-.122-.088c-.1.038-.132.148-.121.44.008.221.055.59.077.756l.023,0,.094-.67s.989-.843.995-.87S488.843,272.272,488.773,272.339Z" transform="translate(-483.432 -267.017)" fill="#d07463"/>
                <path id="Trazado_719888" data-name="Trazado 719888" d="M464.4,282.456l-.207-.03.908-6.2.027-.025,4.645-4.312.142.153-4.618,4.287Z" transform="translate(-464.191 -266.666)" fill="#6e474b"/>
                <path id="Trazado_719889" data-name="Trazado 719889" d="M486,272.43l.215.254,1.7-1.538a.2.2,0,0,0,.011-.28h0a.2.2,0,0,0-.278-.007Z" transform="translate(-482.058 -265.776)" fill="#ffd42c"/>
                <path id="Trazado_719890" data-name="Trazado 719890" d="M488.054,275.5c-.149.154-.077,1.059-.077,1.059v0c.073-.009.245.1.3-.007a.145.145,0,0,1,.049-.052h0C488.411,276.3,488.2,275.341,488.054,275.5Z" transform="translate(-483.663 -269.605)" fill="#f48663"/>
                <path id="Trazado_719891" data-name="Trazado 719891" d="M489.6,274.922s-.217-1.315.017-1.365c.17-.036.349.748.286,1.111S489.6,274.922,489.6,274.922Z" transform="translate(-484.932 -268.03)" fill="#f48663"/>
                <path id="Trazado_719892" data-name="Trazado 719892" d="M491.511,274.338a4.53,4.53,0,0,1,0-1.112c.09-.153.167-.026.2.023a6.519,6.519,0,0,1,.066.841C491.777,274.184,491.778,274.415,491.511,274.338Z" transform="translate(-486.539 -267.699)" fill="#f48663"/>
                <path id="Trazado_719893" data-name="Trazado 719893" d="M493.147,274.3s-.016-.437-.093-.471-.153.052-.153.052,0,.57.023.583S493.147,274.3,493.147,274.3Z" transform="translate(-487.711 -268.248)" fill="#f48663"/>
                <path id="Trazado_719894" data-name="Trazado 719894" d="M492.94,273.97a.28.28,0,0,0-.04.033s0,.152.005.3l.009.219h0S492.936,274.109,492.94,273.97Z" transform="translate(-487.71 -268.369)" fill="#d07463"/>
              </g>
              <g id="Grupo_1017757" data-name="Grupo 1017757" transform="translate(22.279 16.646)">
                <path id="Trazado_719895" data-name="Trazado 719895" d="M553.316,371.8l.968,3.564,1.364-.286-.858-3.938Z" transform="translate(-542.836 -351.65)" fill="#f48663"/>
                <path id="Trazado_719896" data-name="Trazado 719896" d="M513.685,373.243l-.165,4.377,1.254-.365.478-4.356Z" transform="translate(-510.234 -353.095)" fill="#f48663"/>
                <path id="Trazado_719897" data-name="Trazado 719897" d="M520.56,277.313c-.352-2.046-.968-3.366-.814-4.752s1.254-6.094.433-9.211l-6.307,1.772a19.542,19.542,0,0,1-.572,4.491,8.433,8.433,0,0,0-.44,3.3c0,.857-.253,11.016-.253,11.016a3.106,3.106,0,0,0,2.1.049s.088-1.32.352-2.794a54.882,54.882,0,0,0,.594-7.592,9.027,9.027,0,0,1,.77-1.715s2.486,7.942,3.344,11.869a2.788,2.788,0,0,0,2.211-.379S520.912,279.359,520.56,277.313Z" transform="translate(-509.486 -263.35)" fill="#4b4360"/>
                <path id="Trazado_719898" data-name="Trazado 719898" d="M530.793,283.2c.084-.957.267-2.856.411-4.587a32.436,32.436,0,0,0-.9,6.957l.006.08a10.265,10.265,0,0,1,.61-1.268A5,5,0,0,1,530.793,283.2Z" transform="translate(-523.977 -275.855)" fill="#3c334c"/>
                <path id="Trazado_719899" data-name="Trazado 719899" d="M495.446,396.5h4.877a1.481,1.481,0,0,0,0-.657c-.085-.322-.069-.668-.325-.718s-.462.256-.784.206-.3-.272-.553-.256-.41.2-.682.347a13.061,13.061,0,0,1-1.936.572c-.47.1-.586.056-.637.1C495.243,396.222,495.446,396.5,495.446,396.5Z" transform="translate(-495.343 -371.261)" fill="#91632c"/>
                <path id="Trazado_719900" data-name="Trazado 719900" d="M495.346,401.377a.531.531,0,0,0,.1.286h4.877a1.557,1.557,0,0,0,.036-.286Z" transform="translate(-495.345 -376.424)" fill="#75562c"/>
                <path id="Trazado_719901" data-name="Trazado 719901" d="M541.94,392.806h1.5l3.486-1.009a1.482,1.482,0,0,0-.183-.631c-.171-.285-.252-.623-.511-.6s-.373.374-.7.416-.361-.179-.6-.092a2.075,2.075,0,0,0-.686.508,8.579,8.579,0,0,1-1.363.792,5.026,5.026,0,0,1-.88.275A.406.406,0,0,0,541.94,392.806Z" transform="translate(-533.506 -367.567)" fill="#91632c"/>
                <path id="Trazado_719902" data-name="Trazado 719902" d="M546.847,395.082c-.882.3-3.452,1.138-3.452,1.138l-1.443.059a.4.4,0,0,0-.009.227h1.5l3.486-1.009A1.583,1.583,0,0,0,546.847,395.082Z" transform="translate(-533.509 -371.267)" fill="#75562c"/>
              </g>
              <g id="Grupo_1017758" data-name="Grupo 1017758" transform="translate(23.849 5.951)">
                <path id="Trazado_719903" data-name="Trazado 719903" d="M507.919,204.188a3.535,3.535,0,0,0,1.367.359,3.482,3.482,0,0,1,2.057.693,7.78,7.78,0,0,1,1.232,2.14,7.465,7.465,0,0,0,.759,1.733c.116.1.082.2-.082.264s-.864.308-.864.308a12.642,12.642,0,0,0,.374,3.205,13.184,13.184,0,0,0,.77,1.921,6.354,6.354,0,0,1-2.178,1.122c-1.584.55-4.268.748-4.818.968a5.31,5.31,0,0,0-.11-1.43c-.165-.66-.352-1.793-.429-2.42s-.286-1.848-.286-1.848a2.854,2.854,0,0,1-1.683.066,2.3,2.3,0,0,0,.242-1.1,25.8,25.8,0,0,1-.077-3.069c.088-.627,2.211-2.255,2.376-2.354S507.919,204.188,507.919,204.188Z" transform="translate(-504.028 -204.188)" fill="#71a5ee"/>
                <path id="Trazado_719904" data-name="Trazado 719904" d="M533.185,223.771l-.561-2.021s.676,3.541-1.378,5.143c-.521.406,2.22-1.141,2.22-1.141l.594-.637-.671-.9Z" transform="translate(-526.272 -218.575)" fill="#5d8ad5"/>
                <path id="Trazado_719905" data-name="Trazado 719905" d="M517.445,205.7a4.12,4.12,0,0,0,.333-1.332,1.913,1.913,0,0,1-.443-.177s-1.185.458-1.35.557c-.042.025-.213.151-.444.334-.043.381-.046,1.016.345,1.3C516.464,206.786,517.255,206.109,517.445,205.7Z" transform="translate(-513.444 -204.188)" fill="#e5e8f1"/>
                <path id="Trazado_719906" data-name="Trazado 719906" d="M544.664,229.687a1.617,1.617,0,0,1-.224-.383,9.734,9.734,0,0,1-2.169.656l.14.61a5.861,5.861,0,0,0,1.306-.311s.7-.242.864-.308S544.779,229.787,544.664,229.687Z" transform="translate(-535.357 -224.764)" fill="#e5e8f1"/>
                <path id="Trazado_719907" data-name="Trazado 719907" d="M504.242,238.953a2.366,2.366,0,0,1-.214.659,2.854,2.854,0,0,0,1.683-.066l-.132-.759A3.251,3.251,0,0,1,504.242,238.953Z" transform="translate(-504.028 -232.532)" fill="#e5e8f1"/>
                <path id="Trazado_719908" data-name="Trazado 719908" d="M510.082,228.778a23.128,23.128,0,0,1-.3,2.714,2.682,2.682,0,0,0,.642-.146l-.132-.759Z" transform="translate(-508.746 -224.333)" fill="#5d8ad5"/>
                <path id="Trazado_719909" data-name="Trazado 719909" d="M509.787,239.692c.1-.011.184-.025.263-.041h0l.1-.023.012,0,.079-.02.014,0,.061-.018.012,0,.045-.015.007,0,.029-.01h0l.011,0-.132-.759a2.825,2.825,0,0,1-.383.107C509.878,239.17,509.836,239.444,509.787,239.692Z" transform="translate(-508.746 -232.532)" fill="#cdd2e4"/>
              </g>
              <g id="Grupo_1017759" data-name="Grupo 1017759" transform="translate(23.122)">
                <path id="Trazado_719910" data-name="Trazado 719910" d="M507.3,180.16s.445.082.479-.206a2.426,2.426,0,0,1,.107-.676c.091-.239-.091-.511-.107-.718s-.082-1.015-.47-1.2-.924-.479-1.2-.379-.445.3-.594.289-.784-.124-1.056.074a.746.746,0,0,0-.33.561.771.771,0,0,1-.2.413.461.461,0,0,0-.19.421,5.169,5.169,0,0,0,.132.734c.074.3.3.776.527.788a12.922,12.922,0,0,0,1.8-.755l1.1.305Z" transform="translate(-503.06 -175.934)" fill="#291500"/>
                <path id="Trazado_719911" data-name="Trazado 719911" d="M516.828,196.832a15.155,15.155,0,0,0,.478,1.534,1.9,1.9,0,0,1-.825,1.7c-.644.247-.99-.561-.742-1.089,0,0-.1-.734-.333-.94S516.828,196.832,516.828,196.832Z" transform="translate(-512.603 -192.211)" fill="#f48663"/>
                <path id="Trazado_719912" data-name="Trazado 719912" d="M506.594,186.6s.559,1.573,1.376,1.639a1.542,1.542,0,0,0,1.609-.883,2.931,2.931,0,0,0,.016-1.171s.165.041.214-.239a1.025,1.025,0,0,0-.281-.8.212.212,0,0,0-.281.074c-.033.082.066.511-.008.635s-.165.05-.248-.074-.272-.165-.379-.347a.442.442,0,0,0-.247-.215s.016.182-.289.256a3.323,3.323,0,0,1-.611.041c-.091.025,0,.116-.215.223s-.586.033-.619.058S506.784,186.359,506.594,186.6Z" transform="translate(-505.403 -182.618)" fill="#f48663"/>
                <path id="Trazado_719913" data-name="Trazado 719913" d="M507.995,192.443a.6.6,0,0,0,.011.238c.033.124.14.124.2.4s.124.5.371.553.256.256.487.3a1.526,1.526,0,0,0,.883-.05c.206-.132.066-.285.281-.373a.762.762,0,0,0,.577-.567c.091-.4.041-1.32-.1-1.378s-.107.074-.157.223-.1.3-.313.272a.928.928,0,0,0-.71.231c-.149.173-.153.2-.257.2a.805.805,0,0,0-.511.146c-.165.14-.289.14-.412.058S507.995,192.443,507.995,192.443Z" transform="translate(-506.545 -187.886)" fill="#291500"/>
                <path id="Trazado_719914" data-name="Trazado 719914" d="M514.912,197.194a.535.535,0,0,1,.2-.094.114.114,0,0,1,.1.029.1.1,0,0,1,.009.1.294.294,0,0,1-.067.087,1.629,1.629,0,0,1-.339.283.559.559,0,0,1-.427.068c-.19-.057-.188-.209-.014-.267A2.371,2.371,0,0,0,514.912,197.194Z" transform="translate(-511.674 -192.429)" fill="#fff"/>
                <path id="Trazado_719915" data-name="Trazado 719915" d="M504.427,171.309c.6-.3,1.585,1.192,1.585,1.192l-4.049,1.294a2.33,2.33,0,0,1,.264-1.77,1.012,1.012,0,0,1,.834-.286A3.143,3.143,0,0,0,504.427,171.309Z" transform="translate(-501.554 -171.27)" fill="#ffa62c"/>
                <rect id="Rectángulo_375639" data-name="Rectángulo 375639" width="5.011" height="0.405" transform="matrix(0.952, -0.304, 0.304, 0.952, 0, 2.504)" fill="#ffd42c"/>
              </g>
              <g id="Grupo_1017760" data-name="Grupo 1017760" transform="translate(23.674 11.302)">
                <path id="Trazado_719916" data-name="Trazado 719916" d="M511.6,233.934a5.817,5.817,0,0,1-1.217.3l.172,1.023c-1.1.572-5.354,3.591-5.667,3.872s-1.348.848-1.479.979-.434.312-.313.569a.768.768,0,0,1-.031.443l.05.087c.05.087.131.056.156.081a1.16,1.16,0,0,0,.143.15c.1.087.2-.025.231.025a.387.387,0,0,0,.262.087c.094,0,.106-.119.181-.069s.175.075.319-.05.281-.468.537-.762.061-.244,1.3-.97,5.693-3.2,6.023-3.729c.287-.46-.138-1.832-.253-2.179Z" transform="translate(-503.061 -233.79)" fill="#f48663"/>
                <path id="Trazado_719917" data-name="Trazado 719917" d="M544.757,233.934a5.817,5.817,0,0,1-1.217.3l.041.246a5.491,5.491,0,0,1,1.826.169c-.083-.372-.189-.708-.238-.856Z" transform="translate(-536.222 -233.79)" fill="#cc7863"/>
              </g>
              <g id="Grupo_1017761" data-name="Grupo 1017761" transform="translate(18.201 17.931)">
                <path id="Trazado_719918" data-name="Trazado 719918" d="M472.995,282.792l-.207-.03.907-6.2,4.67-4.262.141.154-4.615,4.212Z" transform="translate(-472.788 -271.968)" fill="#6e474b"/>
                <path id="Trazado_719919" data-name="Trazado 719919" d="M497.133,270.454a.188.188,0,0,0-.037.023l-1.648,1.571.215.254,1.4-1.268A.679.679,0,0,0,497.133,270.454Z" transform="translate(-491.351 -270.454)" fill="#ffd42c"/>
              </g>
              <g id="Grupo_1017762" data-name="Grupo 1017762" transform="translate(0 25.293)">
                <path id="Trazado_719920" data-name="Trazado 719920" d="M390.358,317.1l-18.252,4.937s1.27,7.123,10.054,5.752C390,326.564,391.445,322.216,390.358,317.1Z" transform="translate(-372.106 -316.028)" fill="#ff554b"/>
                <path id="Trazado_719921" data-name="Trazado 719921" d="M390.358,317.1l-18.252,4.937a6.837,6.837,0,0,0,.5,1.485l17.964-5.149Q390.494,317.743,390.358,317.1Z" transform="translate(-372.106 -316.028)" fill="#ffb8a8"/>
                <path id="Trazado_719922" data-name="Trazado 719922" d="M430.383,311.787a1.071,1.071,0,0,1-.064-.143.484.484,0,0,0-.487-.183.862.862,0,0,1-.539-.054c-.076-.05-.168-.131-.241-.076-.027.02-.039.054-.062.078-.08.087-.222.02-.324-.039a1.56,1.56,0,0,0-1.911.339c-.119.142-.231.319-.414.353-.154.029-.315-.057-.466-.017-.211.057-.308.33-.519.383-.181.045-.364-.091-.549-.066a.513.513,0,0,0-.24.117,1.246,1.246,0,0,0-.444,1.182.229.229,0,0,0,.076.152.246.246,0,0,0,.16.026c.842-.059,1.656-.324,2.5-.41a5.455,5.455,0,0,0,.643-.079c.242-.054.471-.156.714-.205.227-.046.461-.046.689-.087a3.872,3.872,0,0,0,.686-.213,4.54,4.54,0,0,0,1.149-.454C431.1,312.1,430.5,311.953,430.383,311.787Z" transform="translate(-414.704 -311.181)" fill="#93745a"/>
                <path id="Trazado_719923" data-name="Trazado 719923" d="M404.633,321.209a1.31,1.31,0,0,0,.2.058c.249.029.43-.247.675-.3s.468.115.7.075c.131-.022.251-.107.383-.1.206.015.321.239.4.431a.24.24,0,0,1,.024.14.226.226,0,0,1-.046.082,2.173,2.173,0,0,1-2.6.668.616.616,0,0,1-.418-.67A.6.6,0,0,1,404.633,321.209Z" transform="translate(-398.176 -319.18)" fill="#93745a"/>
                <path id="Trazado_719924" data-name="Trazado 719924" d="M386.133,320.213a5.372,5.372,0,0,0-.594.247,1.853,1.853,0,0,1-1.284-.2c-.459-.165-.96.132-1.422.264a1.379,1.379,0,0,0-.759.495c-.2.2-.462.066-.693,0s-.4.231-.627.363-.561-.1-.759-.33a1.089,1.089,0,0,0-1.122-.363c-.627.1-.858.759-1.122,1.155s-.792.2-1.122.429-.33.693-.759.581-.627.079-.66.607-.792,1.056-.792,1.056l12.918-3.544S386.364,320.13,386.133,320.213Z" transform="translate(-373.999 -318.575)" fill="#b6845a"/>
                <path id="Trazado_719925" data-name="Trazado 719925" d="M438.128,318.112a1.527,1.527,0,0,1,.753-.884c.567-.255.732-.1.914-.26s.231-.259.544-.259a5.031,5.031,0,0,0,1.122,0c.495-.082.957-.528,1.138-.445s.344.548.344.548Z" transform="translate(-426.193 -315.337)" fill="#cca170"/>
              </g>
            </g>
            <g id="Grupo_1017765" data-name="Grupo 1017765" transform="translate(34.594 1.436)">
              <path id="Trazado_719926" data-name="Trazado 719926" d="M298.279,213.849l.995,1.082a7.689,7.689,0,0,1,1.308-1.135,28.765,28.765,0,0,0,2.987-2.581c.168-.239.3-.468.477-.521s.239-.071.23,0-.106.212-.088.239a24.1,24.1,0,0,0,2.545-.053c.451-.071.389.1.327.168a2.9,2.9,0,0,1-1.1.336c-.583.088-1.423.195-1.688.274s-2.753,3.732-4.542,4.628a.774.774,0,0,1-.575.118,17.4,17.4,0,0,1-1.858-1.367Z" transform="translate(-289.477 -204.964)" fill="#f08e71"/>
              <path id="Trazado_719927" data-name="Trazado 719927" d="M265.459,373.432l-.707,4.525,1.32-.118.808-4.407Z" transform="translate(-262.812 -338.321)" fill="#f08e71"/>
              <path id="Trazado_719928" data-name="Trazado 719928" d="M263.385,182.561a2.119,2.119,0,0,0,.208-2.071c-.062-.259-.131-.614-.39-.751a2.053,2.053,0,0,0-.4-.105c-.253-.073-.451-.274-.7-.363a1.645,1.645,0,0,0-.823-.011,1.192,1.192,0,0,0-.618.231c-.087.078-.15.179-.235.258a3.071,3.071,0,0,1-.521.3,1.547,1.547,0,0,0-.631.9c-.228.784.029,1.614-.283,2.377-.256.628-.062,1.405-.23,1.794s-.486.539-.6.937a1.927,1.927,0,0,0,.141,1.44c.256.327,3.058-1.308,3.058-1.308l.221-2.837Z" transform="translate(-257.353 -179.212)" fill="#291500"/>
              <path id="Trazado_719929" data-name="Trazado 719929" d="M309.707,375.648l.542,4.124-1.366.236-.589-4.219Z" transform="translate(-298.482 -340.136)" fill="#f08e71"/>
              <path id="Trazado_719930" data-name="Trazado 719930" d="M267.13,262.261a11.694,11.694,0,0,0,.247,3.835,28.232,28.232,0,0,1,.259,7.1c-.141,2.168-1.32,8.861-1.32,8.861a4.946,4.946,0,0,0,2.1.265s.866-4.931,1.29-7.052,1.2-6.787,1.2-6.787a28.8,28.8,0,0,1,.848,2.863c.247,1.167,1.909,9.969,1.909,11.453a4.248,4.248,0,0,0,1.909-.424s-1.167-8.555-1.308-10.888a14.259,14.259,0,0,0-.566-3.641c-.142-.53-2.05-6.615-2.05-6.615Z" transform="translate(-264.094 -246.404)" fill="#4b4360"/>
              <path id="Trazado_719931" data-name="Trazado 719931" d="M260.783,208.506a3.98,3.98,0,0,1,1.762.769c.628.583,1.255,2.065,1.962,2.619a6.818,6.818,0,0,1-1.084,1.614l-.424-.365s0,1.137-.1,2.206a10.356,10.356,0,0,0,.51,3,7.511,7.511,0,0,1-5.1.731,8.06,8.06,0,0,0-.059-2.345,20.755,20.755,0,0,1-.436-2.946,6.828,6.828,0,0,1-1.991-.825,16.532,16.532,0,0,0,.86-2.062,4.772,4.772,0,0,1,.53-1.355,10.4,10.4,0,0,1,2.018-1.114A7.441,7.441,0,0,1,260.783,208.506Z" transform="translate(-255.497 -203.131)" fill="#ff554b"/>
              <path id="Trazado_719932" data-name="Trazado 719932" d="M273.251,210.084c.463-.088,1.1-1.224,1.044-1.459a4.6,4.6,0,0,0-.494-.119,7.418,7.418,0,0,0-1.552-.07,3.155,3.155,0,0,0-.535.231.862.862,0,0,0,.075.273C272,209.424,272.788,210.173,273.251,210.084Z" transform="translate(-268.516 -203.131)" fill="#ffb8a8"/>
              <path id="Trazado_719933" data-name="Trazado 719933" d="M297.468,226.464a2.219,2.219,0,0,1-.281-.27,5.459,5.459,0,0,1-1.13,1.6h0l.326.281A6.818,6.818,0,0,0,297.468,226.464Z" transform="translate(-288.458 -217.701)" fill="#ffb8a8"/>
              <path id="Trazado_719934" data-name="Trazado 719934" d="M257.978,231.875a4.392,4.392,0,0,1-1.941-.759c-.124.267-.215.453-.215.453a6.813,6.813,0,0,0,1.982.823Z" transform="translate(-255.497 -221.733)" fill="#ffb8a8"/>
              <path id="Trazado_719935" data-name="Trazado 719935" d="M267.007,230.3a21.735,21.735,0,0,1,.69-3.677s-.952,2.072-.878,2.09l.107,1.095C266.95,229.964,266.977,230.127,267.007,230.3Z" transform="translate(-264.502 -218.05)" fill="#b1554b"/>
              <path id="Trazado_719936" data-name="Trazado 719936" d="M273.367,202.189s.115.937,0,1.043-.212.062-.283.159a1.809,1.809,0,0,0,1.087,1.193c.608.125,1.078-1.043,1.034-1.158s-.3-.035-.327-.195.053-1.175.053-1.175Z" transform="translate(-269.633 -197.926)" fill="#d08271"/>
              <path id="Trazado_719937" data-name="Trazado 719937" d="M330.454,181.818a5.2,5.2,0,0,1,.955,2.607,1.2,1.2,0,0,0,1.2.978C333.211,181.756,330.454,181.818,330.454,181.818Z" transform="translate(-316.636 -181.347)" fill="#249081"/>
              <path id="Trazado_719938" data-name="Trazado 719938" d="M347.137,185.786a1.47,1.47,0,0,0-.986,2.05,3.905,3.905,0,0,0,2.78-2.793A8.064,8.064,0,0,1,347.137,185.786Z" transform="translate(-329.386 -183.99)" fill="#33bda6"/>
              <g id="Grupo_1017764" data-name="Grupo 1017764" transform="translate(14.776 1.209)">
                <path id="Trazado_719939" data-name="Trazado 719939" d="M336.919,190.358h-.006a.031.031,0,0,1-.024-.037,5.7,5.7,0,0,0-1.125-4.371.031.031,0,0,1,.048-.04,5.764,5.764,0,0,1,1.138,4.423A.031.031,0,0,1,336.919,190.358Z" transform="translate(-335.757 -185.898)"/>
                <path id="Trazado_719940" data-name="Trazado 719940" d="M342.217,192.794h-.007a.032.032,0,0,1-.024-.037c.367-1.653,2.636-3.6,2.723-3.631a.031.031,0,0,1,.022.058c-.136.079-2.329,1.983-2.685,3.586A.032.032,0,0,1,342.217,192.794Z" transform="translate(-341.024 -188.54)"/>
              </g>
              <path id="Trazado_719941" data-name="Trazado 719941" d="M270.208,189.7s.265,1.615,1.149,1.762,1.564-1.276,1.6-1.691.036-1.314.036-1.314a.745.745,0,0,1-.654-.182c-.075-.013-.108-.118-.158-.175a.04.04,0,0,0-.021-.015.044.044,0,0,0-.034.016.612.612,0,0,1-.384.152c-.151,0-.317-.044-.442.04a.814.814,0,0,0-.182.245.607.607,0,0,1-.183.175c-.1.059-.216.1-.272.2a.479.479,0,0,0-.042.2,1.481,1.481,0,0,1-.074.387c-.011.031-.03.068-.064.069a.074.074,0,0,1-.035-.01.342.342,0,0,1-.154-.17,1.014,1.014,0,0,1-.063-.225l-.051-.253c-.014-.07-.125-.1-.192-.076a.319.319,0,0,0-.154.139.91.91,0,0,0-.033.61.407.407,0,0,0,.152.191A.213.213,0,0,0,270.208,189.7Z" transform="translate(-266.916 -186.478)" fill="#f08e71"/>
              <path id="Trazado_719942" data-name="Trazado 719942" d="M262.6,239.692c.247.041.253-.094.2-.177a2.494,2.494,0,0,0-.765-.42c-.476-.214-.949-.428-.838-.434a.39.39,0,0,0,.247-.1.468.468,0,0,0-.283-.182,2.263,2.263,0,0,0-.571,0c-.224,0-.507.059-1.7-.754a30.322,30.322,0,0,0-3.111-1.744,2.906,2.906,0,0,0,.383-.895,8.334,8.334,0,0,1-1.6-.646s-.8,1.57-.449,2.065c.419.587,5.438,2.634,5.532,2.687a3.555,3.555,0,0,1,.854.412,9.017,9.017,0,0,0,.8.6c.106.065.224.077.242-.029s-.189-.259-.189-.259a3.981,3.981,0,0,0,.913.324c.183-.018.124-.159.124-.159s.112.041.259.088.165-.071.18-.13S262.6,239.692,262.6,239.692Z" transform="translate(-254.022 -224.373)" fill="#f08e71"/>
              <path id="Trazado_719943" data-name="Trazado 719943" d="M337,209.075s.159-.6.592-.7.654.691.654.691A8.32,8.32,0,0,1,337,209.075Z" transform="translate(-322.002 -203.095)" fill="#93745a"/>
              <path id="Trazado_719944" data-name="Trazado 719944" d="M340.451,209.452a1.184,1.184,0,0,1,.756-.646c.513-.1.815.565.815.565A15.683,15.683,0,0,1,340.451,209.452Z" transform="translate(-324.826 -203.449)" fill="#b6845a"/>
              <path id="Trazado_719945" data-name="Trazado 719945" d="M295.1,226.162l.424.365c.047-.044.094-.094.14-.145a8.4,8.4,0,0,1-.656-2.082A8.793,8.793,0,0,1,295.1,226.162Z" transform="translate(-287.601 -216.149)" fill="#b1554b"/>
              <path id="Trazado_719946" data-name="Trazado 719946" d="M296.323,233.565a3.307,3.307,0,0,1-.266.271l.326.281c.047-.044.094-.094.14-.145A2.043,2.043,0,0,1,296.323,233.565Z" transform="translate(-288.458 -223.739)" fill="#d8ba99"/>
              <path id="Trazado_719947" data-name="Trazado 719947" d="M291.737,279.8s.305.863.57,1.781c.113-1.492.243-3.239.243-3.389,0-.265-.778-3.146-.778-3.146a27,27,0,0,1,.283,3.235A11.162,11.162,0,0,1,291.737,279.8Z" transform="translate(-284.919 -257.718)" fill="#3c334c"/>
              <path id="Trazado_719948" data-name="Trazado 719948" d="M267.345,396.166c.129.081-.124.465-.124.465h-5a.9.9,0,0,1,.124-.625c.194-.3.077-.819.412-.766s.407.354.725.194a1.935,1.935,0,0,1,.6-.2c.141-.033.348.185.9.4S266.921,395.9,267.345,396.166Z" transform="translate(-260.727 -356.182)" fill="#ffd42c"/>
              <path id="Trazado_719949" data-name="Trazado 719949" d="M267.345,396.166c.129.081-.124.465-.124.465h-5a.9.9,0,0,1,.124-.625c.194-.3.077-.819.412-.766s.407.354.725.194a1.935,1.935,0,0,1,.6-.2c.141-.033.348.185.9.4S266.921,395.9,267.345,396.166Z" transform="translate(-260.727 -356.182)" fill="#87514c"/>
              <path id="Trazado_719950" data-name="Trazado 719950" d="M313.432,396.166c.129.081-.124.465-.124.465h-5a.9.9,0,0,1,.124-.625c.194-.3.077-.819.412-.766s.407.354.725.194a1.935,1.935,0,0,1,.6-.2c.141-.033.348.185.9.4S313.008,395.9,313.432,396.166Z" transform="translate(-298.482 -356.182)" fill="#87514c"/>
              <path id="Trazado_719951" data-name="Trazado 719951" d="M308.311,400.857h5s.25-.381.125-.464h-5.082A.927.927,0,0,0,308.311,400.857Z" transform="translate(-298.487 -360.408)" fill="#60424c"/>
              <path id="Trazado_719952" data-name="Trazado 719952" d="M262.222,400.857h5s.25-.381.125-.464h-5.082A.927.927,0,0,0,262.222,400.857Z" transform="translate(-260.73 -360.408)" fill="#60424c"/>
              <path id="Trazado_719953" data-name="Trazado 719953" d="M278.467,201.462a.239.239,0,0,1,.094,0,.076.076,0,0,1,.058.067c0,.035-.033.061-.064.078a.735.735,0,0,1-.669.021c-.051-.024-.227-.112-.155-.186.054-.055.2-.008.261,0A1.57,1.57,0,0,0,278.467,201.462Z" transform="translate(-273.431 -197.404)" fill="#fff"/>
            </g>
            <g id="Grupo_1017766" data-name="Grupo 1017766" transform="translate(0 5.207)">
              <path id="Trazado_719954" data-name="Trazado 719954" d="M164.087,203.013s-.186-.085-.329-.492a2.3,2.3,0,0,1-.143-1.529c.209-.418.361-.385.472-.517a1,1,0,0,1,.892-.4c.473.066.561.165.715.11a1.164,1.164,0,0,1,.715-.066c.242.088.275.253.4.286a.635.635,0,0,1,.429.429c.055.253.011.473.1.627a1.76,1.76,0,0,1,0,1.386c-.286.374-.5.956-.933.7A11.965,11.965,0,0,0,164.087,203.013Z" transform="translate(-145.293 -200.07)" fill="#291500"/>
              <path id="Trazado_719955" data-name="Trazado 719955" d="M114.317,257.965s-.721.072-.93-.082-.418-.4-.517-.418-.061.341-.05.374a1.8,1.8,0,0,1,.016.215s-.627-.1-.753,0-.165.209-.082.259-.1.077-.1.187a.254.254,0,0,0,.127.237c.077.039,0,.215.116.264s.055.17.159.22a1.775,1.775,0,0,0,1.1-.132,7.7,7.7,0,0,1,1-.385Z" transform="translate(-102.997 -247.088)" fill="#f48663"/>
              <path id="Trazado_719956" data-name="Trazado 719956" d="M225.373,226.9c-.067,0-1.059.61-1.059.61s1.1-.912,1.148-1.01-.044-.12-.16-.085-1.157.953-1.157.953.872-.881.935-.961-.062-.134-.142-.107-1.059.961-1.091.968-.008-.073,0-.14,0-.36-.174-.187a7.134,7.134,0,0,0-.447.761,9.061,9.061,0,0,1-1.082.841l.223.775,1.135-.73s.6-.347.788-.454.819-.539.886-.6.071-.147.022-.151a4.532,4.532,0,0,0-.458.116s.7-.454.737-.494S225.439,226.9,225.373,226.9Z" transform="translate(-193.311 -221.548)" fill="#f48663"/>
              <path id="Trazado_719957" data-name="Trazado 719957" d="M154.345,369.644l-.066,4.015,1.166-.066.22-2.618Z" transform="translate(-137.717 -338.988)" fill="#f48663"/>
              <path id="Trazado_719958" data-name="Trazado 719958" d="M134.041,224.884a13.474,13.474,0,0,1,1.892.693c.407.253,1.562,4.092,1.661,4.241a50.785,50.785,0,0,0,4.472-2.855l.429-.281.511.941s-5.2,4.076-5.775,3.927-1.634-2.888-1.634-2.888a15.819,15.819,0,0,1,.215,3.036,5.441,5.441,0,0,0,.2,1.82,5.479,5.479,0,0,1-4.059.358s-.685-.1-.8-.322.03-1.015-.058-1.543a22.737,22.737,0,0,1-.132-2.64s-.528,2.156-.869,2.354a22.48,22.48,0,0,1-5.94.627s-.033-1.089,0-1.232,2.717-.231,3.751-.473,1.2-.286,1.265-.495,1.188-4.026,1.738-4.488a7,7,0,0,1,1.628-.682Z" transform="translate(-113.024 -220.398)" fill="#ffcc9a"/>
              <path id="Trazado_719959" data-name="Trazado 719959" d="M171.388,218.663a4,4,0,0,0-.044,1.122c.1.143-.341,1.067-.935.968a1,1,0,0,1-.737-.869,2.039,2.039,0,0,0,.044-.924C169.606,218.608,171.388,218.663,171.388,218.663Z" transform="translate(-150.326 -215.299)" fill="#c87e63"/>
              <path id="Trazado_719960" data-name="Trazado 719960" d="M197.274,363.778l1.5,3.727,1.049-.513-.812-2.5Z" transform="translate(-172.939 -334.183)" fill="#f48663"/>
              <path id="Trazado_719961" data-name="Trazado 719961" d="M193.478,382.271l4.259-1.79a7.634,7.634,0,0,0-.7-1.44,3.256,3.256,0,0,1-.486-.879l-.042-.1-1.27.534a1.3,1.3,0,0,1,.045,1.109,15.084,15.084,0,0,1-1.765,1.932A.52.52,0,0,0,193.478,382.271Z" transform="translate(-169.756 -345.885)" fill="#87514c"/>
              <path id="Trazado_719962" data-name="Trazado 719962" d="M193.4,391.605a.379.379,0,0,0,.088.3l4.259-1.79s-.046-.12-.116-.291Z" transform="translate(-169.76 -355.523)" fill="#60424c"/>
              <path id="Trazado_719963" data-name="Trazado 719963" d="M195.085,393.97a.8.8,0,0,0-.788-.389c-.361.364-.695.68-.771.767a.558.558,0,0,0-.126.33Z" transform="translate(-169.766 -358.595)" fill="#a17d4c"/>
              <path id="Trazado_719964" data-name="Trazado 719964" d="M166.033,208.206c-.322-.271.008.256-.313.545,0,0,.182,2.195,1.32,2.112a1.74,1.74,0,0,0,1.436-1.32s.347.008.388-.421-.2-.4-.305-.289c0,0-.206.247-.627,0-.188.008-.268-.314-.455-.3a.416.416,0,0,0-.116.038.748.748,0,0,1-.517.018c-.217-.072-.394-.243-.617-.294A.31.31,0,0,1,166.033,208.206Z" transform="translate(-147.089 -206.673)" fill="#f48663"/>
              <path id="Trazado_719965" data-name="Trazado 719965" d="M172.459,218.868a.524.524,0,0,1,.125-.038.093.093,0,0,1,.044,0,.078.078,0,0,1,.04.085.181.181,0,0,1-.049.088.6.6,0,0,1-.512.193.27.27,0,0,1-.188-.092.146.146,0,0,1-.016-.143c.031-.064.084-.038.142-.035A1.022,1.022,0,0,0,172.459,218.868Z" transform="translate(-152.145 -215.438)" fill="#fff"/>
              <path id="Trazado_719966" data-name="Trazado 719966" d="M159.94,276.111a12.513,12.513,0,0,0-.223-3,5.81,5.81,0,0,1-3.946.274,2.223,2.223,0,0,1-.692-.216c-.008.277.016.678.016.678-.132.808-1.073,6.287-1.3,7.475s-.578,11.484-.578,11.484a14.571,14.571,0,0,0,1.689.214c.352-2.332.582-11.588,1.136-12.589a13.021,13.021,0,0,0,1.24-3.224s.286,2.09.286,2.926a8.28,8.28,0,0,0,.792,3.19c.484.968,3.52,8.338,3.52,8.338a2.982,2.982,0,0,0,1.43-.462c-.308-1.43-3.476-9.79-3.608-10.318S159.874,277.981,159.94,276.111Z" transform="translate(-136.844 -259.91)" fill="#71a5ee"/>
              <path id="Trazado_719967" data-name="Trazado 719967" d="M182.229,279.831h-.009a1.994,1.994,0,0,1-1.269-1.243.037.037,0,0,1,.024-.046.037.037,0,0,1,.046.024,1.917,1.917,0,0,0,1.218,1.194.037.037,0,0,1-.009.072Z" transform="translate(-159.565 -264.353)" fill="#5d80c1"/>
              <path id="Trazado_719968" data-name="Trazado 719968" d="M182.194,225.738l-.242-.122c0,.187-.075,8.956.123,9.224.236.319.3-.281.3-.281C182.125,233.437,182.194,225.738,182.194,225.738Z" transform="translate(-160.376 -220.998)" fill="#5d8ad5"/>
              <path id="Trazado_719969" data-name="Trazado 719969" d="M166.1,226.338a82.677,82.677,0,0,0,.076,8.876c.032.26.314.272.275.027-.223-1.386-.066-9.005-.066-9.005Z" transform="translate(-147.329 -221.506)" fill="#5d8ad5"/>
              <path id="Trazado_719970" data-name="Trazado 719970" d="M161.866,241.709c-.011.187,0,.717.025,1.265l.322-3.031Z" transform="translate(-143.928 -232.735)" fill="#dba58f"/>
              <path id="Trazado_719971" data-name="Trazado 719971" d="M185.708,237.388l.33,1.518.646,1.483C186.39,239.4,185.708,237.388,185.708,237.388Z" transform="translate(-163.464 -230.642)" fill="#dba58f"/>
              <path id="Trazado_719972" data-name="Trazado 719972" d="M113.378,260.757c.01-.069-.055-.122-.137-.161-.037-.005-.107-.015-.19-.023.127.034.3.1.286.178-.006.039-.122.066-.291.082h0a5.315,5.315,0,0,1-.62.014s0,.008.009.011.022.021.019.032l.187,0c.132,0,.282,0,.413-.018a.252.252,0,0,1,.167.048.1.1,0,0,1,.027.08c-.007.105-.451.265-.753.349,0,.014,0,.028,0,.042a3.291,3.291,0,0,0,.655-.248c.019,0,.151.021.151.147,0,.092-.38.235-.664.32a.305.305,0,0,1,.015.04,3.006,3.006,0,0,0,.545-.211h.007a.024.024,0,0,1,.022,0,.055.055,0,0,1,.026.045.408.408,0,0,1-.035.085c.047-.026.077-.066.077-.085a.094.094,0,0,0-.044-.078c.057-.039.093-.078.093-.116a.183.183,0,0,0-.144-.179c.05-.036.084-.073.086-.109a.139.139,0,0,0-.039-.112.177.177,0,0,0-.059-.038C113.3,260.835,113.371,260.8,113.378,260.757Z" transform="translate(-103.428 -249.635)" fill="#b26e63"/>
              <path id="Trazado_719973" data-name="Trazado 719973" d="M105.527,254.25a19.246,19.246,0,0,1,2.01-.154,8.459,8.459,0,0,1,.082,1.188l-.291-.026s-.009-.89-.037-.9-1.7.1-1.7.1Z" transform="translate(-97.778 -244.319)" fill="#854b4b"/>
              <path id="Trazado_719974" data-name="Trazado 719974" d="M110.852,265.987s.005.77,0,.787-1.284.312-1.284.312l-.05-.2,1.086-.3v-.453S110.808,266.086,110.852,265.987Z" transform="translate(-101.049 -254.07)" fill="#854b4b"/>
              <path id="Trazado_719975" data-name="Trazado 719975" d="M85.958,249.95l1.464,4.974,2.892-.324-.017-5.411Z" transform="translate(-81.747 -240.309)" fill="#ff554b"/>
              <path id="Trazado_719976" data-name="Trazado 719976" d="M87.987,246.339l-5.248.92.049.449,5.248-.92Z" transform="translate(-79.11 -237.974)" fill="#ffb8a8"/>
              <path id="Trazado_719977" data-name="Trazado 719977" d="M87.947,256.517,88.8,259.4l3.145-.378-.01-3.307Z" transform="translate(-83.376 -245.655)" fill="#ffb8a8"/>
              <path id="Trazado_719978" data-name="Trazado 719978" d="M70.341,258.09l-4.526-1.971.161-.663,3.771.614Z" transform="translate(-65.245 -245.443)" fill="#ff554b"/>
              <path id="Trazado_719979" data-name="Trazado 719979" d="M90.3,249.189l-4.339.761.245.833a27.594,27.594,0,0,1,4.095-1.317Z" transform="translate(-81.747 -240.309)" fill="#be4b4b"/>
              <path id="Trazado_719980" data-name="Trazado 719980" d="M86.045,258.6a11.658,11.658,0,0,1,.121,1.739l.748.326-.595-2.021Z" transform="translate(-81.818 -248.021)" fill="#be4b4b"/>
              <rect id="Rectángulo_375640" data-name="Rectángulo 375640" width="1.108" height="0.313" transform="translate(0.222 10.775) rotate(-76.361)" fill="#ffb8a8"/>
              <path id="Trazado_719981" data-name="Trazado 719981" d="M62.728,254.569c-.109.262-.094.573.172.693l.221-.909A.367.367,0,0,0,62.728,254.569Z" transform="translate(-62.664 -244.537)" fill="#be4b4b"/>
              <path id="Trazado_719982" data-name="Trazado 719982" d="M170.792,286.962a12.973,12.973,0,0,0,.887-2.529,4.792,4.792,0,0,0-.682-2.5A44.331,44.331,0,0,1,170.792,286.962Z" transform="translate(-151.245 -267.131)" fill="#5d8ad5"/>
              <path id="Trazado_719983" data-name="Trazado 719983" d="M136.873,390.7h4.62a7.64,7.64,0,0,0-.091-1.6,3.255,3.255,0,0,1-.107-1v-.107h-1.378a1.3,1.3,0,0,1-.388,1.04,15.089,15.089,0,0,1-2.376,1.1A.52.52,0,0,0,136.873,390.7Z" transform="translate(-123.441 -354.018)" fill="#87514c"/>
              <path id="Trazado_719984" data-name="Trazado 719984" d="M136.911,401.225a.379.379,0,0,0-.036.313h4.62s0-.128.006-.313Z" transform="translate(-123.442 -364.86)" fill="#60424c"/>
              <path id="Trazado_719985" data-name="Trazado 719985" d="M139,398.217a.8.8,0,0,0-.576-.664c-.473.2-.9.358-1.008.408a.557.557,0,0,0-.244.256Z" transform="translate(-123.7 -361.852)" fill="#a17d4c"/>
            </g>
          </g>
        </g>
      </g>
    </g>
  </g>
</svg>
