<svg xmlns="http://www.w3.org/2000/svg" width="169" height="169" viewBox="0 0 169 169">
  <g id="Grupo_1079615" data-name="Grupo 1079615" transform="translate(-366.501 -1815.951)">
    <g id="Grupo_1017051" data-name="Grupo 1017051" transform="translate(-18.5 -242.049)">
      <g id="Grupo_159182" data-name="Grupo 159182" transform="translate(385.001 2058)">
        <path id="Unión_12" data-name="Unión 12" d="M84.5,0A84.5,84.5,0,1,1,0,84.5,84.5,84.5,0,0,1,84.5,0Z" transform="translate(0 0)" fill="#e8f3f8"/>
      </g>
    </g>
    <g id="_4105860_2176773" data-name="4105860_2176773" transform="translate(363.398 1780.561)">
      <g id="OBJECTS" transform="translate(16.718 66.952)">
        <g id="XMLID_71_" transform="translate(0)">
          <g id="Grupo_1017059" data-name="Grupo 1017059" transform="translate(1.492)" opacity="0.35">
            <path id="XMLID_197_" d="M152.26,138.749c-2.279-8.176,4.966-8.491,5.125-19.026.065-4.309-2.3-8.7-7.975-10.71-2.791-.989-5.573-1.669-8.057-3.242-5.659-3.585-5.557-10.4-7.1-16.219-3.391-12.77-29.952-22.923-43.161-22.593-9.522.238-13.915,4.827-22.6,12.909C62.556,85.4,52.091,84.9,55.141,99.186c2.716,12.727-3.692,11.782-9.56,16.48s-10.144,10.281-7.813,16.629c2.57,7-13.161,11.017-15.966,20.09-1.9,6.154,8.093,6.674,14.9,6.674s65.005-.523,89.623.2c6.626.2,27.766,2,30.757-6.259C159.112,147.383,153.852,144.458,152.26,138.749Z" transform="translate(-21.564 -66.952)" fill="#c3ecfe"/>
          </g>
          <g id="XMLID_2_" transform="translate(113.983 64.803)">
            <path id="Trazado_717252" data-name="Trazado 717252" d="M412.731,291.9a50.67,50.67,0,0,1-25.76,25.861" transform="translate(-386.971 -287.452)" fill="none" stroke="#c3ecfe" stroke-miterlimit="10" stroke-width="1.393"/>
            <g id="XMLID_4_" transform="translate(3.384)">
              <g id="Grupo_1017060" data-name="Grupo 1017060" transform="translate(20.932)">
                <path id="XMLID_6_" d="M465.957,284.946a9.427,9.427,0,0,0,3.246-5.7,1.894,1.894,0,0,0-.26-1.567.615.615,0,0,0-.382-.221.786.786,0,0,0-.615.334,6.35,6.35,0,0,0-1.3,3.566c-.147,1.277-.426,2.214-.691,3.591" transform="translate(-465.957 -277.452)" fill="#c3ecfe"/>
              </g>
              <g id="Grupo_1017061" data-name="Grupo 1017061" transform="translate(17.378 3.463)">
                <path id="XMLID_7_" d="M455.63,296.632a9.429,9.429,0,0,0,.718-6.523,1.893,1.893,0,0,0-.86-1.335.614.614,0,0,0-.438-.051.786.786,0,0,0-.432.551,6.351,6.351,0,0,0,.223,3.788c.372,1.231.487,2.2.79,3.571" transform="translate(-454.412 -288.7)" fill="#c3ecfe"/>
              </g>
              <g id="Grupo_1017062" data-name="Grupo 1017062" transform="translate(14.641 8.263)">
                <path id="XMLID_8_" d="M446.039,312.223a9.428,9.428,0,0,0,1.51-6.387,1.893,1.893,0,0,0-.69-1.431.614.614,0,0,0-.429-.1.786.786,0,0,0-.5.494,6.349,6.349,0,0,0-.242,3.787c.219,1.267.214,2.245.347,3.641" transform="translate(-445.521 -304.294)" fill="#c3ecfe"/>
              </g>
              <g id="Grupo_1017063" data-name="Grupo 1017063" transform="translate(10.69 12.467)">
                <path id="XMLID_9_" d="M433.206,325.879a9.428,9.428,0,0,0,1.51-6.387,1.894,1.894,0,0,0-.69-1.431.615.615,0,0,0-.429-.1.787.787,0,0,0-.5.494,6.35,6.35,0,0,0-.242,3.787c.219,1.267.214,2.245.347,3.641" transform="translate(-432.688 -317.95)" fill="#c3ecfe"/>
              </g>
              <g id="Grupo_1017064" data-name="Grupo 1017064" transform="translate(5.29 17.409)">
                <path id="XMLID_10_" d="M415.147,341.841a9.429,9.429,0,0,0,2.163-6.2,1.9,1.9,0,0,0-.538-1.495.614.614,0,0,0-.416-.148.787.787,0,0,0-.545.44,6.351,6.351,0,0,0-.633,3.742c.086,1.283-.02,2.254-.032,3.657" transform="translate(-415.147 -334.001)" fill="#c3ecfe"/>
              </g>
              <g id="Grupo_1017065" data-name="Grupo 1017065" transform="translate(0.654 20.716)">
                <path id="XMLID_11_" d="M400.087,352.375a10.063,10.063,0,0,0,2.511-5.885,2.128,2.128,0,0,0-.3-1.549.509.509,0,0,0-.34-.2c-.209-.01-.383.179-.513.37a7.091,7.091,0,0,0-.939,3.636c-.063,1.284-.256,2.236-.416,3.627" transform="translate(-400.087 -344.743)" fill="#c3ecfe"/>
              </g>
              <g id="Grupo_1017066" data-name="Grupo 1017066" transform="translate(17.425 9.876)">
                <path id="XMLID_12_" d="M454.567,312.768a10.215,10.215,0,0,0,6.752-1.3,2.1,2.1,0,0,0,1.123-1.246.6.6,0,0,0-.061-.442.783.783,0,0,0-.666-.252,7.008,7.008,0,0,0-3.756,1.375c-1.143.738-2.091,1.147-3.392,1.861" transform="translate(-454.567 -309.533)" fill="#c3ecfe"/>
              </g>
              <g id="Grupo_1017067" data-name="Grupo 1017067" transform="translate(14.648 15.169)">
                <path id="XMLID_13_" d="M445.544,328.3a10.215,10.215,0,0,0,6.866.354,2.1,2.1,0,0,0,1.388-.941.6.6,0,0,0,.047-.444.782.782,0,0,0-.586-.4,7.009,7.009,0,0,0-3.976.438c-1.286.444-2.3.615-3.738,1" transform="translate(-445.544 -326.726)" fill="#c3ecfe"/>
              </g>
              <g id="Grupo_1017068" data-name="Grupo 1017068" transform="translate(10.498 20.63)">
                <path id="XMLID_14_" d="M432.065,344.812a10.214,10.214,0,0,0,6.656,1.72,2.1,2.1,0,0,0,1.548-.645.6.6,0,0,0,.134-.426c-.034-.24-.268-.4-.493-.513a7.01,7.01,0,0,0-3.983-.366c-1.349.178-2.381.141-3.862.229" transform="translate(-432.065 -344.466)" fill="#c3ecfe"/>
              </g>
              <g id="Grupo_1017069" data-name="Grupo 1017069" transform="translate(4.694 24.145)">
                <path id="XMLID_15_" d="M413.21,357.6a10.213,10.213,0,0,0,6.872.2,2.094,2.094,0,0,0,1.367-.972.6.6,0,0,0,.036-.445.783.783,0,0,0-.6-.391,7.007,7.007,0,0,0-3.965.527c-1.276.473-2.29.666-3.715,1.08" transform="translate(-413.21 -355.882)" fill="#c3ecfe"/>
              </g>
              <g id="Grupo_1017070" data-name="Grupo 1017070" transform="translate(0 28.669)">
                <path id="XMLID_16_" d="M397.964,370.577a10.214,10.214,0,0,0,6.046,3.273,2.094,2.094,0,0,0,1.658-.253.6.6,0,0,0,.233-.381.782.782,0,0,0-.356-.617,7.009,7.009,0,0,0-3.778-1.315c-1.352-.152-2.345-.436-3.8-.708" transform="translate(-397.964 -370.577)" fill="#c3ecfe"/>
              </g>
            </g>
          </g>
          <g id="XMLID_5_" transform="translate(111.257 44.309)">
            <g id="XMLID_17_" transform="translate(0.51)">
              <path id="Trazado_717253" data-name="Trazado 717253" d="M379.931,211.737a.121.121,0,0,1-.115-.113l-.043-.612a.121.121,0,0,1,.242-.017l.043.612a.121.121,0,0,1-.113.13Z" transform="translate(-379.773 -210.882)" fill="#599fd2"/>
            </g>
            <g id="XMLID_18_" transform="translate(0 2.59)">
              <g id="XMLID_19_">
                <path id="Trazado_717254" data-name="Trazado 717254" d="M381.534,245.388l-1.618.114-1.8-26.093.809-.057.809-.057Z" transform="translate(-378.115 -219.295)" fill="#c3ecfe"/>
              </g>
            </g>
            <path id="Trazado_717255" data-name="Trazado 717255" d="M378.936,212.441l-.327.023-.494,2.2,1.618-.114Z" transform="translate(-378.115 -211.961)" fill="#c3ecfe"/>
          </g>
          <g id="XMLID_20_" transform="translate(28.677 46.687)">
            <path id="Trazado_717256" data-name="Trazado 717256" d="M123.566,233.534a50.565,50.565,0,0,0,28.411,36.334" transform="translate(-119.35 -228.938)" fill="none" stroke="#c3ecfe" stroke-miterlimit="10" stroke-width="1.393"/>
            <g id="XMLID_22_">
              <g id="Grupo_1017071" data-name="Grupo 1017071" transform="translate(3.033)">
                <path id="XMLID_24_" d="M121.633,226.493a9.426,9.426,0,0,1-1.892-6.284,1.893,1.893,0,0,1,.6-1.47.615.615,0,0,1,.422-.13.787.787,0,0,1,.525.463,6.349,6.349,0,0,1,.47,3.765c-.142,1.278-.078,2.253-.127,3.655" transform="translate(-119.721 -218.606)" fill="#c3ecfe"/>
              </g>
              <g id="Grupo_1017072" data-name="Grupo 1017072" transform="translate(6.082 4.562)">
                <path id="XMLID_25_" d="M129.9,241.074a9.428,9.428,0,0,1,.755-6.519,1.893,1.893,0,0,1,1.136-1.11.614.614,0,0,1,.439.048.787.787,0,0,1,.3.633,6.35,6.35,0,0,1-1.062,3.643c-.637,1.117-.966,2.037-1.566,3.305" transform="translate(-129.625 -233.425)" fill="#c3ecfe"/>
              </g>
              <g id="Grupo_1017073" data-name="Grupo 1017073" transform="translate(8.021 9.806)">
                <path id="XMLID_26_" d="M136.537,258.308a9.429,9.429,0,0,1-.048-6.562,1.893,1.893,0,0,1,.992-1.241.613.613,0,0,1,.441-.006.786.786,0,0,1,.373.592,6.352,6.352,0,0,1-.608,3.746c-.5,1.186-.709,2.14-1.15,3.472" transform="translate(-135.923 -250.46)" fill="#c3ecfe"/>
              </g>
              <g id="Grupo_1017074" data-name="Grupo 1017074" transform="translate(10.934 14.785)">
                <path id="XMLID_27_" d="M146,274.482a9.428,9.428,0,0,1-.048-6.563,1.893,1.893,0,0,1,.992-1.241.613.613,0,0,1,.441-.006.787.787,0,0,1,.373.592,6.352,6.352,0,0,1-.608,3.746c-.5,1.186-.709,2.14-1.15,3.472" transform="translate(-145.388 -266.634)" fill="#c3ecfe"/>
              </g>
              <g id="Grupo_1017075" data-name="Grupo 1017075" transform="translate(15.227 20.751)">
                <path id="XMLID_28_" d="M160.339,293.943a9.429,9.429,0,0,1-.727-6.522,1.894,1.894,0,0,1,.858-1.337.614.614,0,0,1,.438-.052.786.786,0,0,1,.433.55,6.351,6.351,0,0,1-.217,3.788c-.37,1.231-.484,2.2-.785,3.572" transform="translate(-159.331 -286.011)" fill="#c3ecfe"/>
              </g>
              <g id="Grupo_1017076" data-name="Grupo 1017076" transform="translate(18.828 24.876)">
                <path id="XMLID_29_" d="M172.264,307.274a10.061,10.061,0,0,1-1.135-6.3,2.128,2.128,0,0,1,.64-1.443.508.508,0,0,1,.376-.117c.206.037.333.26.417.475a7.092,7.092,0,0,1,.1,3.754c-.225,1.265-.248,2.236-.4,3.627" transform="translate(-171.029 -299.413)" fill="#c3ecfe"/>
              </g>
              <g id="Grupo_1017077" data-name="Grupo 1017077" transform="translate(0 9.361)">
                <path id="XMLID_30_" d="M116.981,253.8a10.215,10.215,0,0,1-6.293-2.768,2.1,2.1,0,0,1-.817-1.465.6.6,0,0,1,.158-.418.783.783,0,0,1,.7-.1,7.01,7.01,0,0,1,3.355,2.178c.95.975,1.782,1.585,2.892,2.57" transform="translate(-109.87 -249.013)" fill="#c3ecfe"/>
              </g>
              <g id="Grupo_1017078" data-name="Grupo 1017078" transform="translate(1.076 15.183)">
                <path id="XMLID_31_" d="M121.3,271.047a10.215,10.215,0,0,1-6.772-1.186,2.1,2.1,0,0,1-1.143-1.227.6.6,0,0,1,.054-.443.783.783,0,0,1,.661-.263,7.008,7.008,0,0,1,3.778,1.314c1.155.719,2.11,1.113,3.422,1.805" transform="translate(-113.364 -267.926)" fill="#c3ecfe"/>
              </g>
              <g id="Grupo_1017079" data-name="Grupo 1017079" transform="translate(3.808 21.628)">
                <path id="XMLID_32_" d="M130.541,290.59a10.213,10.213,0,0,1-6.872.193,2.094,2.094,0,0,1-1.366-.974.6.6,0,0,1-.036-.445.782.782,0,0,1,.6-.39,7.012,7.012,0,0,1,3.965.531c1.276.474,2.289.669,3.714,1.085" transform="translate(-122.239 -288.86)" fill="#c3ecfe"/>
              </g>
              <g id="Grupo_1017080" data-name="Grupo 1017080" transform="translate(8.804 26.139)">
                <path id="XMLID_33_" d="M146.343,306.792a10.215,10.215,0,0,1-6.744-1.336,2.1,2.1,0,0,1-1.116-1.252.6.6,0,0,1,.064-.442.782.782,0,0,1,.667-.248,7.007,7.007,0,0,1,3.748,1.4c1.139.745,2.084,1.159,3.381,1.881" transform="translate(-138.469 -303.514)" fill="#c3ecfe"/>
              </g>
              <g id="Grupo_1017081" data-name="Grupo 1017081" transform="translate(12.3 32.949)">
                <path id="XMLID_34_" d="M158.154,325.881a10.214,10.214,0,0,1-6.623,1.843,2.1,2.1,0,0,1-1.56-.616.6.6,0,0,1-.142-.423c.029-.241.26-.407.484-.522a7.008,7.008,0,0,1,3.976-.439c1.352.152,2.383.1,3.866.158" transform="translate(-149.826 -325.633)" fill="#c3ecfe"/>
              </g>
            </g>
          </g>
          <g id="XMLID_23_" transform="translate(0 67.663)">
            <path id="Trazado_717257" data-name="Trazado 717257" d="M31.446,304.758a50.563,50.563,0,0,1,41.787,19.523" transform="translate(-26.912 -299.178)" fill="none" stroke="#c3ecfe" stroke-miterlimit="10" stroke-width="1.393"/>
            <g id="XMLID_35_">
              <g id="Grupo_1017082" data-name="Grupo 1017082" transform="translate(0 4.726)">
                <path id="XMLID_37_" d="M24.623,302.917a9.429,9.429,0,0,0-6.548-.432,1.894,1.894,0,0,0-1.3.917.612.612,0,0,0-.032.44.787.787,0,0,0,.569.408,6.35,6.35,0,0,0,3.775-.388c1.213-.425,2.178-.582,3.533-.945" transform="translate(-16.718 -302.092)" fill="#c3ecfe"/>
              </g>
              <g id="Grupo_1017083" data-name="Grupo 1017083" transform="translate(5.425 5.95)">
                <path id="XMLID_38_" d="M41.348,306.07a9.428,9.428,0,0,0-6.183,2.2,1.894,1.894,0,0,0-.827,1.356.615.615,0,0,0,.145.417.786.786,0,0,0,.684.148,6.35,6.35,0,0,0,3.312-1.853c.945-.872,1.768-1.4,2.869-2.269" transform="translate(-34.339 -306.069)" fill="#c3ecfe"/>
              </g>
              <g id="Grupo_1017084" data-name="Grupo 1017084" transform="translate(10.854 6.863)">
                <path id="XMLID_39_" d="M59.373,309.122a9.429,9.429,0,0,0-6.405,1.428,1.893,1.893,0,0,0-.986,1.245.613.613,0,0,0,.093.431.787.787,0,0,0,.661.231,6.351,6.351,0,0,0,3.513-1.434c1.045-.749,1.926-1.172,3.125-1.9" transform="translate(-51.976 -309.033)" fill="#c3ecfe"/>
              </g>
              <g id="Grupo_1017085" data-name="Grupo 1017085" transform="translate(16.361 8.583)">
                <path id="XMLID_40_" d="M77.259,314.711a9.429,9.429,0,0,0-6.405,1.428,1.9,1.9,0,0,0-.986,1.245.613.613,0,0,0,.093.431.787.787,0,0,0,.661.231,6.351,6.351,0,0,0,3.513-1.434c1.045-.749,1.927-1.171,3.125-1.9" transform="translate(-69.862 -314.622)" fill="#c3ecfe"/>
              </g>
              <g id="Grupo_1017086" data-name="Grupo 1017086" transform="translate(23.058 11.61)">
                <path id="XMLID_41_" d="M99.264,324.724a9.429,9.429,0,0,0-6.519.756,1.894,1.894,0,0,0-1.11,1.136.614.614,0,0,0,.048.439.787.787,0,0,0,.633.3,6.349,6.349,0,0,0,3.643-1.063c1.117-.637,2.037-.966,3.3-1.567" transform="translate(-91.616 -324.454)" fill="#c3ecfe"/>
              </g>
              <g id="Grupo_1017087" data-name="Grupo 1017087" transform="translate(27.807 14.318)">
                <path id="XMLID_42_" d="M114.754,333.633a10.062,10.062,0,0,0-6.39.308,2.127,2.127,0,0,0-1.262.948.508.508,0,0,0-.03.393c.082.193.329.266.557.3a7.093,7.093,0,0,0,3.682-.741c1.182-.5,2.123-.744,3.444-1.208" transform="translate(-107.044 -333.252)" fill="#c3ecfe"/>
              </g>
              <g id="Grupo_1017088" data-name="Grupo 1017088" transform="translate(8.334 0.239)">
                <path id="XMLID_43_" d="M49.945,293.533a10.213,10.213,0,0,0-4.111-5.51,2.1,2.1,0,0,0-1.611-.467.6.6,0,0,0-.372.248.782.782,0,0,0,.063.709,7.007,7.007,0,0,0,2.876,2.78c1.163.707,1.945,1.381,3.154,2.241" transform="translate(-43.789 -287.517)" fill="#c3ecfe"/>
              </g>
              <g id="Grupo_1017089" data-name="Grupo 1017089" transform="translate(14.28)">
                <path id="XMLID_44_" d="M67.792,293.912a10.215,10.215,0,0,0-2.677-6.332,2.1,2.1,0,0,0-1.453-.838.6.6,0,0,0-.42.152.782.782,0,0,0-.107.7,7.009,7.009,0,0,0,2.129,3.386c.96.964,1.558,1.805,2.528,2.929" transform="translate(-63.103 -286.741)" fill="#c3ecfe"/>
              </g>
              <g id="Grupo_1017090" data-name="Grupo 1017090" transform="translate(21.29 1.191)">
                <path id="XMLID_45_" d="M89.173,298.477a10.214,10.214,0,0,0-1.356-6.74,2.094,2.094,0,0,0-1.255-1.112.6.6,0,0,0-.442.065.782.782,0,0,0-.246.668,7.008,7.008,0,0,0,1.408,3.744c.748,1.137,1.166,2.081,1.891,3.375" transform="translate(-85.874 -290.611)" fill="#c3ecfe"/>
              </g>
              <g id="Grupo_1017091" data-name="Grupo 1017091" transform="translate(26.686 5.069)">
                <path id="XMLID_46_" d="M108.237,310.286a10.214,10.214,0,0,0-2.817-6.271,2.1,2.1,0,0,0-1.471-.806.6.6,0,0,0-.417.161.783.783,0,0,0-.092.706,7.01,7.01,0,0,0,2.2,3.338c.982.942,1.6,1.77,2.593,2.872" transform="translate(-103.401 -303.208)" fill="#c3ecfe"/>
              </g>
              <g id="Grupo_1017092" data-name="Grupo 1017092" transform="translate(34.472 6.83)">
                <path id="XMLID_47_" d="M130.312,317.245a10.215,10.215,0,0,0,.308-6.868,2.1,2.1,0,0,0-.951-1.382.6.6,0,0,0-.445-.043.783.783,0,0,0-.4.589,7.008,7.008,0,0,0,.465,3.973c.453,1.283.63,2.3,1.022,3.731" transform="translate(-128.694 -308.926)" fill="#c3ecfe"/>
              </g>
            </g>
          </g>
          <g id="Grupo_1017093" data-name="Grupo 1017093" transform="translate(8.689 76.998)">
            <path id="XMLID_48_" d="M91.262,320.068a11.3,11.3,0,0,0-8.733-2.949c-2.134.215-4.462,1.356-4.931,3.449-.224,1-.145,2.319-1.089,2.711-.924.383-1.815-.568-2.764-.886a2.374,2.374,0,0,0-2.847,2.852c.242.717.849,1.342.8,2.1-.069,1.029-1.34,1.565-2.358,1.4s-1.917-.754-2.916-1.009-2.293,0-2.643.97c-.314.869.228,2.036-.454,2.659a1.86,1.86,0,0,1-1.109.359c-8.649.821-18.174,2.373-17.206,3.909.265.42.941.286,1.437.279,18.409-.288,35.131-.563,53.533,0" transform="translate(-44.942 -317.066)" fill="#c3ecfe"/>
          </g>
          <g id="XMLID_49_" transform="translate(94.875 37.508)">
            <path id="Trazado_717258" data-name="Trazado 717258" d="M358.3,232.89l5.457,21.4-1.038.265-6.752-21.069" transform="translate(-346.402 -219.314)" fill="#88d2ff"/>
            <g id="XMLID_50_" transform="translate(0 1.716)">
              <path id="Trazado_717259" data-name="Trazado 717259" d="M331.747,206.712c-2.787.711-5.752-1.451-6.611-4.818s.71-6.685,3.5-7.4,5.753,1.451,6.611,4.818S334.534,206,331.747,206.712Zm-2.637-10.341c-1.754.447-2.7,2.711-2.1,5.046s2.507,3.87,4.261,3.423,2.7-2.711,2.1-5.046S330.864,195.924,329.11,196.372Z" transform="translate(-324.901 -194.364)" fill="#9bdfff"/>
            </g>
            <g id="XMLID_51_" transform="translate(6.547 7.029)">
              <path id="Trazado_717260" data-name="Trazado 717260" d="M349.73,215.117l1.659,6.507a.612.612,0,0,1-.441.744h0a.612.612,0,0,1-.744-.441l-.187-.735a2.548,2.548,0,0,0-3.28-1.092s2.873-.359,2.971-.352S349.639,214.762,349.73,215.117Z" transform="translate(-346.561 -214.029)" fill="#c0edff"/>
              <path id="Trazado_717261" data-name="Trazado 717261" d="M350.793,220.9a1.58,1.58,0,0,1-1.919-1.139,2.541,2.541,0,0,0-.3-.795c-.312-.443-.948-.61-2.113-.312l-.295-1.645a4.622,4.622,0,0,1,1.544-.457l.667-.08c0-.5-.012-1.168-.019-1.678-.008-.542.695-1.15.693-1.539,0-.7-.718-1.4.148-1.518l.852-.113,1.88,7.357A1.579,1.579,0,0,1,350.793,220.9Z" transform="translate(-346.168 -211.623)" fill="#9bdfff"/>
            </g>
            <g id="XMLID_52_" transform="translate(12.493)">
              <path id="Trazado_717262" data-name="Trazado 717262" d="M366.154,232.256l.016,22.084h1.071l1.32-22.085" transform="translate(-365.947 -218.874)" fill="#88d2ff"/>
              <g id="XMLID_53_">
                <path id="Trazado_717263" data-name="Trazado 717263" d="M365.482,195.1c0-3.475,2.335-6.3,5.211-6.306s5.218,2.823,5.22,6.3-2.335,6.3-5.211,6.306S365.484,198.571,365.482,195.1Zm1.932,0c0,2.41,1.476,4.369,3.287,4.368s3.282-1.963,3.28-4.372-1.476-4.369-3.287-4.367S367.413,192.685,367.414,195.094Z" transform="translate(-365.482 -188.79)" fill="#9bdfff"/>
              </g>
              <g id="XMLID_54_" transform="translate(0.004 6.566)">
                <path id="Trazado_717264" data-name="Trazado 717264" d="M368.623,213.282c0,.366,0,6.715,0,6.715a.612.612,0,0,0,.612.611h0a.612.612,0,0,0,.611-.612v-.759a2.548,2.548,0,0,1,2.907-1.871s-2.873.364-2.966.4S368.623,212.915,368.623,213.282Z" transform="translate(-367.66 -212.295)" fill="#c0edff"/>
                <path id="Trazado_717265" data-name="Trazado 717265" d="M367.076,219.4a1.579,1.579,0,0,0,1.576-1.579,2.542,2.542,0,0,1,.092-.844c.192-.506.768-.826,1.97-.827l-.122-1.667a4.626,4.626,0,0,0-1.61-.06l-.666.088c-.123-.489-.278-1.135-.4-1.63-.127-.526-.958-.942-1.053-1.319-.17-.676.348-1.536-.519-1.434l-.853.1,0,7.593A1.579,1.579,0,0,0,367.076,219.4Z" transform="translate(-365.495 -210.12)" fill="#9bdfff"/>
              </g>
            </g>
          </g>
          <g id="XMLID_55_" transform="translate(114.094 44.382)">
            <g id="XMLID_56_">
              <path id="XMLID_70_" d="M390.109,235.8l-2.777-.5,4.314-23.888a.36.36,0,0,1,.418-.29l2.069.374a.36.36,0,0,1,.29.418Z" transform="translate(-387.332 -211.119)" fill="#88d2ff"/>
            </g>
            <g id="XMLID_57_" transform="translate(3.9 0)">
              <path id="XMLID_69_" d="M402.776,214.213l-2.777-.5.415-2.3a.36.36,0,0,1,.418-.29l2.069.374a.36.36,0,0,1,.29.418Z" transform="translate(-399.999 -211.12)" fill="#fe7d90"/>
            </g>
            <g id="XMLID_58_" transform="translate(3.748 2.59)" opacity="0.5">
              <g id="XMLID_59_" transform="translate(0 0)">
                <rect id="Rectángulo_375566" data-name="Rectángulo 375566" width="0.845" height="2.823" transform="matrix(0.178, -0.984, 0.984, 0.178, 0, 0.832)" fill="#599fd2"/>
              </g>
            </g>
          </g>
          <g id="XMLID_60_" transform="translate(114.508 48.235)">
            <rect id="XMLID_68_" width="4.872" height="26.359" transform="translate(9.666 0) rotate(21.513)" fill="#c3ecfe"/>
            <g id="XMLID_61_" transform="translate(3.36 1.997)">
              <line id="Línea_3192" data-name="Línea 3192" x2="1.494" y2="0.589" transform="translate(9.037)" fill="none" stroke="#ccf3ff" stroke-miterlimit="10" stroke-width="1.393"/>
              <line id="Línea_3193" data-name="Línea 3193" x2="1.494" y2="0.589" transform="translate(8.535 1.274)" fill="none" stroke="#ccf3ff" stroke-miterlimit="10" stroke-width="1.393"/>
              <line id="Línea_3194" data-name="Línea 3194" x2="1.494" y2="0.589" transform="translate(8.033 2.547)" fill="none" stroke="#ccf3ff" stroke-miterlimit="10" stroke-width="1.393"/>
              <line id="Línea_3195" data-name="Línea 3195" x2="2.225" y2="0.877" transform="translate(6.8 3.533)" fill="none" stroke="#ccf3ff" stroke-miterlimit="10" stroke-width="1.393"/>
              <line id="Línea_3196" data-name="Línea 3196" x2="1.494" y2="0.589" transform="translate(7.029 5.095)" fill="none" stroke="#ccf3ff" stroke-miterlimit="10" stroke-width="1.393"/>
              <line id="Línea_3197" data-name="Línea 3197" x2="1.494" y2="0.589" transform="translate(6.527 6.369)" fill="none" stroke="#ccf3ff" stroke-miterlimit="10" stroke-width="1.393"/>
              <line id="Línea_3198" data-name="Línea 3198" x2="1.494" y2="0.589" transform="translate(6.025 7.643)" fill="none" stroke="#ccf3ff" stroke-miterlimit="10" stroke-width="1.393"/>
              <line id="Línea_3199" data-name="Línea 3199" x2="2.225" y2="0.877" transform="translate(4.792 8.628)" fill="none" stroke="#ccf3ff" stroke-miterlimit="10" stroke-width="1.393"/>
              <line id="Línea_3200" data-name="Línea 3200" x2="1.494" y2="0.589" transform="translate(5.021 10.19)" fill="none" stroke="#ccf3ff" stroke-miterlimit="10" stroke-width="1.393"/>
              <line id="Línea_3201" data-name="Línea 3201" x2="1.494" y2="0.589" transform="translate(4.519 11.464)" fill="none" stroke="#ccf3ff" stroke-miterlimit="10" stroke-width="1.393"/>
              <line id="Línea_3202" data-name="Línea 3202" x2="1.494" y2="0.589" transform="translate(4.017 12.738)" fill="none" stroke="#ccf3ff" stroke-miterlimit="10" stroke-width="1.393"/>
              <line id="Línea_3203" data-name="Línea 3203" x2="2.225" y2="0.877" transform="translate(2.784 13.723)" fill="none" stroke="#ccf3ff" stroke-miterlimit="10" stroke-width="1.393"/>
              <line id="Línea_3204" data-name="Línea 3204" x2="1.494" y2="0.589" transform="translate(3.013 15.285)" fill="none" stroke="#ccf3ff" stroke-miterlimit="10" stroke-width="1.393"/>
              <line id="Línea_3205" data-name="Línea 3205" x2="1.494" y2="0.589" transform="translate(2.511 16.559)" fill="none" stroke="#ccf3ff" stroke-miterlimit="10" stroke-width="1.393"/>
              <line id="Línea_3206" data-name="Línea 3206" x2="1.494" y2="0.589" transform="translate(2.008 17.833)" fill="none" stroke="#ccf3ff" stroke-miterlimit="10" stroke-width="1.393"/>
              <line id="Línea_3207" data-name="Línea 3207" x2="2.225" y2="0.877" transform="translate(0.775 18.819)" fill="none" stroke="#ccf3ff" stroke-miterlimit="10" stroke-width="1.393"/>
              <line id="Línea_3208" data-name="Línea 3208" x2="1.494" y2="0.589" transform="translate(1.004 20.38)" fill="none" stroke="#ccf3ff" stroke-miterlimit="10" stroke-width="1.393"/>
              <line id="Línea_3209" data-name="Línea 3209" x2="1.494" y2="0.589" transform="translate(0.502 21.654)" fill="none" stroke="#ccf3ff" stroke-miterlimit="10" stroke-width="1.393"/>
              <line id="Línea_3210" data-name="Línea 3210" x2="1.494" y2="0.589" transform="translate(0 22.928)" fill="none" stroke="#ccf3ff" stroke-miterlimit="10" stroke-width="1.393"/>
            </g>
          </g>
          <path id="Trazado_717266" data-name="Trazado 717266" d="M354.82,303.117h-22.6l-3.8-34.191a.734.734,0,0,1,.73-.815h28.736a.734.734,0,0,1,.729.815Z" transform="translate(-232.46 -206.184)" fill="#9bdfff"/>
          <g id="Grupo_1017094" data-name="Grupo 1017094" transform="translate(85.006 78.926)">
            <path id="XMLID_64_" d="M301.856,342.825l40.841.556c.457.006,1.9-.439-.585-2.04-2.1-1.355-8.744-.136-8.744-.136s1.546-.62,1.539-1.42a2.167,2.167,0,0,0-1.342-1.835,4.98,4.98,0,0,0-2.356-.31,15.014,15.014,0,0,0-4.745,1.062,1.376,1.376,0,1,0-1.6-2.234c1.02-1.382,2.6-7.505-2.25-10.2-6.076-3.383-10.691-.6-11.676,1.437-.5-2-2.792-3.511-4.3-3.886a11.716,11.716,0,0,0-8.9.9,12.75,12.75,0,0,0-3.417,3.347c-1.184,1.569-1.369,3.657-1.434,5.622q-.073,2.212-.02,4.426" transform="translate(-292.845 -323.327)" fill="#ccf3ff"/>
          </g>
          <g id="Grupo_1017096" data-name="Grupo 1017096" transform="translate(40.722 11.459)">
            <path id="XMLID_66_" d="M210.247,390.858c0,.706-13.711,1.278-30.625,1.278S149,391.564,149,390.858s13.711-1.278,30.625-1.278S210.247,390.152,210.247,390.858Z" transform="translate(-148.996 -301.717)" fill="#a1d7e5" opacity="0.4"/>
            <g id="XMLID_74_" transform="translate(28.135)">
              <g id="XMLID_219_">
                <path id="XMLID_224_" d="M243.461,104.175a3.073,3.073,0,0,0-3.073,3.073v3.939h6.147v-3.939A3.074,3.074,0,0,0,243.461,104.175Zm0,4.837a1.724,1.724,0,1,1,1.724-1.724A1.724,1.724,0,0,1,243.461,109.012Z" transform="translate(-240.388 -104.175)" fill="#e8505b"/>
              </g>
            </g>
            <g id="XMLID_82_" transform="translate(28.135 0.12)" opacity="0.45">
              <g id="XMLID_220_">
                <path id="XMLID_221_" d="M245.186,107.557a1.685,1.685,0,0,0-1.983-1.7,1.262,1.262,0,0,1,.7-.167,1.724,1.724,0,0,1,1.724,1.724,1.4,1.4,0,0,1-1.106,1.5A1.887,1.887,0,0,0,245.186,107.557Zm-3.859,3.506v-3.939a3,3,0,0,1,1.292-2.56,3.072,3.072,0,0,0-2.231,2.954v3.939h6.147v-.393Z" transform="translate(-240.388 -104.564)" fill="#b03d44"/>
              </g>
            </g>
            <path id="Trazado_717267" data-name="Trazado 717267" d="M209.32,209.532H157.388a3,3,0,0,1-3-3V130.624a3,3,0,0,1,3-3H209.32a3,3,0,0,1,3,3v75.909A3,3,0,0,1,209.32,209.532Z" transform="translate(-152.729 -120.406)" fill="#3e89cc"/>
            <rect id="XMLID_67_" width="51.215" height="75.482" transform="translate(5.018 10.432)" fill="#c3ecfe"/>
            <rect id="Rectángulo_375567" data-name="Rectángulo 375567" width="47.276" height="70.87" transform="translate(6.987 12.738)" fill="#fff"/>
            <path id="XMLID_198_" d="M225.216,127.171v3.079H187.95v-3.079a2.115,2.115,0,0,1,.1-.643,2.162,2.162,0,0,1,2.063-1.518h32.943A2.16,2.16,0,0,1,225.216,127.171Z" transform="translate(-175.958 -118.596)" fill="#e8505b"/>
            <path id="XMLID_195_" d="M225.216,129.48v.77H187.95v-2.229a9.587,9.587,0,0,1,.1-1.493,2.162,2.162,0,0,1,2.063-1.518h.265a3.216,3.216,0,0,0-.985,2.241v2.229Z" transform="translate(-175.958 -118.596)" fill="#b03d44" opacity="0.45"/>
            <g id="Grupo_1017095" data-name="Grupo 1017095" transform="translate(10.465 16.962)">
              <g id="XMLID_87_" transform="translate(9.633 3.31)">
                <g id="XMLID_88_" opacity="0.15">
                  <line id="XMLID_89_" x2="7.679" fill="none" stroke="#0964af" stroke-linecap="round" stroke-linejoin="round" stroke-miterlimit="10" stroke-width="3.122"/>
                  <line id="XMLID_90_" x2="5.839" transform="translate(24.913 2.448)" fill="none" stroke="#0964af" stroke-linecap="round" stroke-linejoin="round" stroke-miterlimit="10" stroke-width="3.122"/>
                  <line id="XMLID_91_" x2="22.382" transform="translate(0 2.448)" fill="none" stroke="#0964af" stroke-linecap="round" stroke-linejoin="round" stroke-miterlimit="10" stroke-width="3.122"/>
                  <line id="XMLID_92_" x2="30.752" transform="translate(0 4.896)" fill="none" stroke="#0964af" stroke-linecap="round" stroke-linejoin="round" stroke-miterlimit="10" stroke-width="3.122"/>
                  <line id="XMLID_93_" x2="9.775" transform="translate(20.977 7.345)" fill="none" stroke="#0964af" stroke-linecap="round" stroke-linejoin="round" stroke-miterlimit="10" stroke-width="3.122"/>
                  <line id="XMLID_94_" x2="18.544" transform="translate(0 7.345)" fill="none" stroke="#0964af" stroke-linecap="round" stroke-linejoin="round" stroke-miterlimit="10" stroke-width="3.122"/>
                  <line id="XMLID_95_" x2="20.552" transform="translate(10.199)" fill="none" stroke="#0964af" stroke-linecap="round" stroke-linejoin="round" stroke-miterlimit="10" stroke-width="3.122"/>
                </g>
              </g>
              <g id="XMLID_96_" transform="translate(9.633 20.909)">
                <g id="XMLID_97_" opacity="0.15">
                  <line id="XMLID_98_" x2="7.679" fill="none" stroke="#0964af" stroke-linecap="round" stroke-linejoin="round" stroke-miterlimit="10" stroke-width="3.122"/>
                  <line id="XMLID_99_" x2="5.839" transform="translate(24.913 2.448)" fill="none" stroke="#0964af" stroke-linecap="round" stroke-linejoin="round" stroke-miterlimit="10" stroke-width="3.122"/>
                  <line id="XMLID_100_" x2="22.382" transform="translate(0 2.448)" fill="none" stroke="#0964af" stroke-linecap="round" stroke-linejoin="round" stroke-miterlimit="10" stroke-width="3.122"/>
                  <line id="XMLID_101_" x2="30.752" transform="translate(0 4.897)" fill="none" stroke="#0964af" stroke-linecap="round" stroke-linejoin="round" stroke-miterlimit="10" stroke-width="3.122"/>
                  <line id="XMLID_102_" x2="9.775" transform="translate(20.977 7.345)" fill="none" stroke="#0964af" stroke-linecap="round" stroke-linejoin="round" stroke-miterlimit="10" stroke-width="3.122"/>
                  <line id="XMLID_103_" x2="18.544" transform="translate(0 7.345)" fill="none" stroke="#0964af" stroke-linecap="round" stroke-linejoin="round" stroke-miterlimit="10" stroke-width="3.122"/>
                  <line id="XMLID_104_" x2="20.552" transform="translate(10.199)" fill="none" stroke="#0964af" stroke-linecap="round" stroke-linejoin="round" stroke-miterlimit="10" stroke-width="3.122"/>
                </g>
              </g>
              <g id="XMLID_105_" transform="translate(9.633 37.894)">
                <g id="XMLID_106_" opacity="0.15">
                  <line id="XMLID_107_" x2="7.679" fill="none" stroke="#0964af" stroke-linecap="round" stroke-linejoin="round" stroke-miterlimit="10" stroke-width="3.122"/>
                  <line id="XMLID_108_" x2="5.839" transform="translate(24.913 2.448)" fill="none" stroke="#0964af" stroke-linecap="round" stroke-linejoin="round" stroke-miterlimit="10" stroke-width="3.122"/>
                  <line id="XMLID_109_" x2="22.382" transform="translate(0 2.448)" fill="none" stroke="#0964af" stroke-linecap="round" stroke-linejoin="round" stroke-miterlimit="10" stroke-width="3.122"/>
                  <line id="XMLID_110_" x2="30.752" transform="translate(0 4.897)" fill="none" stroke="#0964af" stroke-linecap="round" stroke-linejoin="round" stroke-miterlimit="10" stroke-width="3.122"/>
                  <line id="XMLID_111_" x2="9.775" transform="translate(20.977 7.345)" fill="none" stroke="#0964af" stroke-linecap="round" stroke-linejoin="round" stroke-miterlimit="10" stroke-width="3.122"/>
                  <line id="XMLID_112_" x2="18.544" transform="translate(0 7.345)" fill="none" stroke="#0964af" stroke-linecap="round" stroke-linejoin="round" stroke-miterlimit="10" stroke-width="3.122"/>
                  <line id="XMLID_113_" x2="20.552" transform="translate(10.199)" fill="none" stroke="#0964af" stroke-linecap="round" stroke-linejoin="round" stroke-miterlimit="10" stroke-width="3.122"/>
                </g>
              </g>
              <g id="XMLID_114_" transform="translate(9.633 55.186)">
                <g id="XMLID_115_" opacity="0.15">
                  <line id="XMLID_116_" x2="7.679" fill="none" stroke="#0964af" stroke-linecap="round" stroke-linejoin="round" stroke-miterlimit="10" stroke-width="3.122"/>
                  <line id="XMLID_117_" x2="5.839" transform="translate(24.913 2.448)" fill="none" stroke="#0964af" stroke-linecap="round" stroke-linejoin="round" stroke-miterlimit="10" stroke-width="3.122"/>
                  <line id="XMLID_118_" x2="22.382" transform="translate(0 2.448)" fill="none" stroke="#0964af" stroke-linecap="round" stroke-linejoin="round" stroke-miterlimit="10" stroke-width="3.122"/>
                  <line id="XMLID_119_" x2="30.752" transform="translate(0 4.896)" fill="none" stroke="#0964af" stroke-linecap="round" stroke-linejoin="round" stroke-miterlimit="10" stroke-width="3.122"/>
                  <line id="XMLID_120_" x2="9.775" transform="translate(20.977 7.345)" fill="none" stroke="#0964af" stroke-linecap="round" stroke-linejoin="round" stroke-miterlimit="10" stroke-width="3.122"/>
                  <line id="XMLID_121_" x2="18.544" transform="translate(0 7.345)" fill="none" stroke="#0964af" stroke-linecap="round" stroke-linejoin="round" stroke-miterlimit="10" stroke-width="3.122"/>
                  <line id="XMLID_122_" x2="20.552" transform="translate(10.199)" fill="none" stroke="#0964af" stroke-linecap="round" stroke-linejoin="round" stroke-miterlimit="10" stroke-width="3.122"/>
                </g>
              </g>
              <g id="XMLID_123_">
                <path id="XMLID_124_" d="M189.382,174.664h-5.746a.647.647,0,0,1-.647-.647v-5.746a.647.647,0,0,1,.647-.647h5.746a.647.647,0,0,1,.647.647v5.746A.647.647,0,0,1,189.382,174.664Z" transform="translate(-182.989 -165.053)" fill="none" stroke="#2396b5" stroke-miterlimit="10" stroke-width="1.157"/>
                <path id="XMLID_125_" d="M189.383,231.648h-5.746a.647.647,0,0,1-.647-.647v-5.746a.647.647,0,0,1,.647-.647h5.746a.647.647,0,0,1,.647.647V231A.647.647,0,0,1,189.383,231.648Z" transform="translate(-182.99 -204.495)" fill="none" stroke="#2396b5" stroke-miterlimit="10" stroke-width="1.157"/>
                <path id="XMLID_126_" d="M189.383,288.633h-5.746a.647.647,0,0,1-.647-.647V282.24a.647.647,0,0,1,.647-.647h5.746a.647.647,0,0,1,.647.647v5.746A.647.647,0,0,1,189.383,288.633Z" transform="translate(-182.99 -243.937)" fill="none" stroke="#2396b5" stroke-miterlimit="10" stroke-width="1.157"/>
                <path id="XMLID_127_" d="M189.382,345.617h-5.746a.647.647,0,0,1-.647-.647v-5.746a.647.647,0,0,1,.647-.647h5.746a.647.647,0,0,1,.647.647v5.746A.647.647,0,0,1,189.382,345.617Z" transform="translate(-182.989 -283.378)" fill="none" stroke="#2396b5" stroke-miterlimit="10" stroke-width="1.157"/>
                <path id="XMLID_130_" d="M185.8,164.125l2.654,3.2,5.106-8.056" transform="translate(-184.937 -159.274)" fill="none" stroke="#ffa829" stroke-linecap="round" stroke-linejoin="round" stroke-miterlimit="10" stroke-width="3.47"/>
                <path id="XMLID_133_" d="M185.8,220.635l2.654,3.2,5.106-8.056" transform="translate(-184.937 -198.387)" fill="none" stroke="#ffa829" stroke-linecap="round" stroke-linejoin="round" stroke-miterlimit="10" stroke-width="3.47"/>
              </g>
            </g>
          </g>
        </g>
        <g id="XMLID_77_" transform="translate(24.101 51.957)">
          <path id="XMLID_293_" d="M121.98,248.136a4.924,4.924,0,0,0,.216.955.4.4,0,0,1-.335.16" transform="translate(-113.593 -244.315)" fill="#ffb392"/>
          <path id="XMLID_65_" d="M110.609,392.47c0,.365-3.288.661-7.344.661s-7.344-.3-7.344-.661,3.288-.661,7.344-.661S110.609,392.105,110.609,392.47Z" transform="translate(-95.64 -343.758)" fill="#a1d7e5" opacity="0.4"/>
          <g id="XMLID_86_" transform="translate(9.349 7.657)">
            <path id="XMLID_135_" d="M127.006,260.862l-1.623,7.129a.341.341,0,0,0,.284.413l5.052.725a.341.341,0,0,0,.381-.262l1.623-7.129a.341.341,0,0,0-.284-.413l-5.052-.725A.341.341,0,0,0,127.006,260.862Z" transform="translate(-125.374 -260.597)" fill="#57c6f2"/>
            <path id="XMLID_136_" d="M128.207,262.206l-1.554,6.825,5.016.72,1.554-6.825Z" transform="translate(-126.259 -261.711)" fill="#e5f8ff"/>
            <g id="XMLID_137_" transform="translate(1.472 1.107)">
              <line id="XMLID_138_" x1="4.262" y1="0.612" transform="translate(0.698)" fill="none" stroke="#a1d2f0" stroke-linecap="round" stroke-linejoin="round" stroke-miterlimit="10" stroke-width="0.574"/>
              <line id="XMLID_139_" x1="4.262" y1="0.612" transform="translate(0.554 0.645)" fill="none" stroke="#a1d2f0" stroke-linecap="round" stroke-linejoin="round" stroke-miterlimit="10" stroke-width="0.574"/>
              <line id="XMLID_140_" x1="2.664" y1="0.382" transform="translate(0.379 1.409)" fill="none" stroke="#a1d2f0" stroke-linecap="round" stroke-linejoin="round" stroke-miterlimit="10" stroke-width="0.574"/>
              <line id="XMLID_141_" x1="2.664" y1="0.383" transform="translate(0.189 1.964)" fill="none" stroke="#a1d2f0" stroke-linecap="round" stroke-linejoin="round" stroke-miterlimit="10" stroke-width="0.574"/>
              <line id="XMLID_142_" x1="2.664" y1="0.383" transform="translate(0 2.518)" fill="none" stroke="#a1d2f0" stroke-linecap="round" stroke-linejoin="round" stroke-miterlimit="10" stroke-width="0.574"/>
              <line id="XMLID_143_" x1="2.664" y1="0.383" transform="translate(0.977 5.583)" fill="none" stroke="#a1d2f0" stroke-linecap="round" stroke-linejoin="round" stroke-miterlimit="10" stroke-width="0.574"/>
            </g>
          </g>
          <g id="XMLID_272_" transform="translate(8.039 11.926)">
            <path id="XMLID_145_" d="M122.117,277.673a2.211,2.211,0,0,0,.7-.626l.6-.717a.6.6,0,0,0,.171-.32c-.336-.027-.553.41-.89.436a7.042,7.042,0,0,1,.668-1.588.488.488,0,0,0,.1-.4,2.565,2.565,0,0,0-.935.683,4.993,4.993,0,0,0-.507.644,6.939,6.939,0,0,0-.907,2.227" transform="translate(-121.119 -274.462)" fill="#f2a181"/>
          </g>
          <g id="XMLID_144_" transform="translate(2.777 17.835)">
            <path id="XMLID_271_" d="M108.874,296.7l-3.607-3.043s-1.679,2.277-1.046,4.473a20.222,20.222,0,0,0,.871,2.128c.158.479,1.244,7.256,1.163,7.751a34.53,34.53,0,0,0-.886,3.34c-.268,1.754-.222,7.466-.43,8.981s1.191,1.771,1.268,1.258c.658-4.38,2.394-11.206,2.637-13.4S108.989,301.994,108.874,296.7Z" transform="translate(-104.062 -293.658)" fill="#ffbe9d"/>
            <g id="XMLID_268_" transform="translate(3.254 7.356)">
              <path id="XMLID_147_" d="M116.164,317.555l-1.569,3.6a8.065,8.065,0,0,1,1.094,3.773c.026.695-.035,1.39-.016,2.085a.671.671,0,0,0,.021.151c.21-1.029.367-1.878.428-2.431a66.042,66.042,0,0,0,.118-7.181A.652.652,0,0,0,116.164,317.555Z" transform="translate(-114.595 -317.551)" fill="#f2a181"/>
            </g>
            <path id="XMLID_266_" d="M106.765,379.073a9.273,9.273,0,0,0-.245,1.792,2.792,2.792,0,0,0,.748,1c.349.223,1.122.489,1.184.586a.24.24,0,0,1-.044.324,1.6,1.6,0,0,1-1.1.28c-1.049-.173-1.157-.637-1.768-.711-.105-.013-.3.143-.593-.006a.694.694,0,0,1-.409-.673,3,3,0,0,1,.464-1.122,9.134,9.134,0,0,0,.3-1.806" transform="translate(-104.377 -352.548)" fill="#ffbe9d"/>
            <path id="XMLID_263_" d="M108.137,387.492c.076-.131.1-.329.025-.377a6.119,6.119,0,0,0-.653-.393c-.2-.094-.526-.176-.412-.115s-.1.291-.286.279a5.792,5.792,0,0,1-1.516-.571,1.286,1.286,0,0,1-.79-.876,2.517,2.517,0,0,0-.388.74,1.293,1.293,0,0,0-.08.565,1.315,1.315,0,0,1,.06.539,1.03,1.03,0,0,0,.389.14,1.531,1.531,0,0,0,.418.006l.046-.339a1.528,1.528,0,0,1,.334.033,1.811,1.811,0,0,1,.511.239c.075.09.135.253.234.3a2.092,2.092,0,0,0,.862.215C107.6,387.92,108.007,387.715,108.137,387.492Z" transform="translate(-104.025 -357.184)" fill="#1b227a"/>
          </g>
          <g id="XMLID_146_" transform="translate(4.01 17.483)">
            <path id="XMLID_148_" d="M116.535,323.108c-.078-.086-.913-.222-1.3-.385a2.255,2.255,0,0,1-.914-.87,9.418,9.418,0,0,1-.057-1.744c.078-3.119.654-10.741.738-12.566.145-3.172-.267-6.447-1.488-11.54l-4.545-3.488a8.079,8.079,0,0,0-.847,4.629c.247,1.313,1.336,1.515,1.52,2.025s2.934,8.736,2.934,8.736a15.48,15.48,0,0,0-.566,3.727c-.026,1.663.728,6.68.868,8.591a6.282,6.282,0,0,1-.029,1.552c-.135.349-.479.759-.461,1.2a.677.677,0,0,0,.517.6c.322.1.5-.086.612-.091.641-.026.818.414,1.925.414a1.75,1.75,0,0,0,1.1-.457A.235.235,0,0,0,116.535,323.108Z" transform="translate(-108.031 -292.514)" fill="#ffbe9d"/>
            <path id="XMLID_149_" d="M126.137,389.935c.06-.142.052-.34-.028-.377a6.285,6.285,0,0,0-.729-.282c-.223-.059-.567-.088-.441-.046s-.058.3-.256.323a6.156,6.156,0,0,1-1.645-.316,1.051,1.051,0,0,1-.827-.737,2.645,2.645,0,0,0-.408.8,1.246,1.246,0,0,0,0,.572,1.245,1.245,0,0,1,.138.523,1.09,1.09,0,0,0,.421.075,1.671,1.671,0,0,0,.433-.062v-.343a1.688,1.688,0,0,1,.349-.022,1.162,1.162,0,0,1,.564.2c.094.071.193.19.3.218a2.32,2.32,0,0,0,.9.068C125.638,390.447,126.034,390.177,126.137,389.935Z" transform="translate(-117.538 -358.95)" fill="#1b227a"/>
          </g>
          <path id="XMLID_150_" d="M105.057,291.643a7.3,7.3,0,0,0-1.42,3.662,6.885,6.885,0,0,0,.566,2.758c.281.815.805,1.544.805,1.693s.82.252,2.558.143a12.579,12.579,0,0,0,4.393-.805,25.164,25.164,0,0,0-.224-4.236,13.4,13.4,0,0,0-1.329-3.558" transform="translate(-100.98 -274.191)" fill="#1b227a"/>
          <path id="XMLID_248_" d="M98.728,272.49s.517,2.571.653,3.028.807,3.362,1.443,3.312,4.121-2.96,4.121-2.96l-.493-.987-3.067,1.462a39.47,39.47,0,0,0-.52-4.111" transform="translate(-97.582 -260.994)" fill="#ffbe9d"/>
          <g id="XMLID_244_" transform="translate(2.332 13.078)">
            <path id="XMLID_152_" d="M102.58,278.2c.324,1.148.99,2.357,1.189,3.247.04.179,2.164-.594,2.169-1.391" transform="translate(-102.58 -278.204)" fill="#f2a181"/>
          </g>
          <path id="XMLID_153_" d="M100.519,261.489a3.768,3.768,0,0,0-1.533.5c-1.315,1.006-.3,4.659-.3,4.659s-.065.195.818.145a6.354,6.354,0,0,0,1.591-.3l-.255-2.993" transform="translate(-97.295 -253.557)" fill="#e8505b"/>
          <path id="XMLID_154_" d="M101.663,268.206a11.177,11.177,0,0,0,.277,3.231,3.517,3.517,0,0,0,.72-.094Z" transform="translate(-99.603 -258.206)" fill="#b03d44"/>
          <g id="XMLID_216_" transform="translate(3.521 0.989)">
            <path id="XMLID_156_" d="M111.007,239.139a3.79,3.79,0,0,1,.34,2.9q-.115.752-.229,1.5a.755.755,0,0,1-.968.794l.007,1.246q-1.065.026-2.131.009a2.05,2.05,0,0,0-.184-.846c-.348-.007-.58-.355-.716-.675a9.723,9.723,0,0,1-.381-1.139,6.288,6.288,0,0,1-.3-1.563,2.261,2.261,0,0,1,.451-1.5,2.72,2.72,0,0,1,.866-.647,1.691,1.691,0,0,1,1.424-.21" transform="translate(-106.443 -238.935)" fill="#ffbe9d"/>
          </g>
          <g id="XMLID_158_" transform="translate(2.356)">
            <path id="XMLID_157_" d="M107.651,240.7a1.3,1.3,0,0,1,.059-.931.612.612,0,0,1,.187-.236.394.394,0,0,1,.38-.039.421.421,0,0,1,.191.178,5.438,5.438,0,0,0,.133-1.74,2.263,2.263,0,0,0-1.436-1.971c-1.5-.618-3.666-.007-4.277,1.469a3.654,3.654,0,0,0,.656,3.66,3.2,3.2,0,0,0,2.946.779c.531-.087,1.351-.035,1.626-.757a.081.081,0,0,0-.083-.107C107.817,241.024,107.667,240.78,107.651,240.7Z" transform="translate(-102.656 -235.724)" fill="#1b227a"/>
          </g>
          <g id="XMLID_208_" transform="translate(5.945 0.3)">
            <path id="XMLID_160_" d="M115.838,239.412c.056.088.043.205.1.3a.693.693,0,0,0,.364.279c.255.119.2.49.188.656.193-.128.224-.477.27-.654.052-.2.086-.4.143-.6a3.045,3.045,0,0,0,.172-.575,2.36,2.36,0,0,0-.9-1.909,1.257,1.257,0,0,0-1.408.017,1.1,1.1,0,0,0-.4.511.339.339,0,0,0-.016.274" transform="translate(-114.318 -236.697)" fill="#1b227a"/>
          </g>
          <g id="XMLID_205_" transform="translate(4.047 7.175)">
            <path id="XMLID_161_" d="M108.15,259.8c.036-.243.1-.527.328-.623a.719.719,0,0,1,.2-.043,16.592,16.592,0,0,1,2.088-.1,1.947,1.947,0,0,1,.845.148,2.079,2.079,0,0,1,.823,1.046" transform="translate(-108.15 -259.031)" fill="#b03d44"/>
          </g>
          <g id="XMLID_164_" transform="translate(2.058 7.584)">
            <path id="XMLID_163_" d="M109.549,269.631a5.816,5.816,0,0,1-.4-.473,7.412,7.412,0,0,1-.295-2.379c.071-.437.457-.671.631-1.642a3.592,3.592,0,0,0-.575-2.64c-.405-.589-.165-.586-.3-1.307a.686.686,0,0,0-.143-.359,3.489,3.489,0,0,0-.811-.384,12.784,12.784,0,0,0-2.928.012,9.785,9.785,0,0,0-1.679.212c-.612.135-1.146.3-1.272,1.128a8.368,8.368,0,0,0,.36,3.8c.259.808,1.805,3.6,1.422,4.144a1.852,1.852,0,0,0-.333.513c-.1.565,1.179.763,1.726.808a21.352,21.352,0,0,0,2.622-.017c.632-.03,2.015-.25,2.113-1.031A.565.565,0,0,0,109.549,269.631Z" transform="translate(-101.691 -260.36)" fill="#e8505b"/>
          </g>
          <path id="XMLID_165_" d="M122.312,273.306a2.25,2.25,0,0,1-.168.652,1.748,1.748,0,0,1-1.148.052,16.669,16.669,0,0,0-.519-2.2A11.457,11.457,0,0,1,122.312,273.306Z" transform="translate(-112.635 -260.703)" fill="#b03d44"/>
          <g id="XMLID_166_" transform="translate(8.869 8.372)">
            <path id="XMLID_167_" d="M123.815,270.964s2.081,5.03,2.985,5.03c.657,0,2.268-4.643,2.268-4.643l-1.018-.482-1.135,1.945-1.149-3.627" transform="translate(-123.815 -267.256)" fill="#ffbe9d"/>
            <path id="XMLID_168_" d="M136.913,269.28a1.982,1.982,0,0,0,.313-.908,3.84,3.84,0,0,1-.023-.962,4.033,4.033,0,0,1,.34-.66c.1-.086.459-.223.548-.162s.2-.22.345-.2a.311.311,0,0,1,.269.281c0,.135.2.159.22.257a1.361,1.361,0,0,0,.049.257c.037.073.145.037.183.22.035.167-.012.184,0,.269s.086.078.061.24a2.044,2.044,0,0,1-.234.558,1.612,1.612,0,0,1-.568.575,1.082,1.082,0,0,0-.331.457" transform="translate(-132.881 -265.322)" fill="#ffbe9d"/>
            <path id="XMLID_169_" d="M138.2,262.989a.124.124,0,0,0-.179-.049.161.161,0,0,0-.04.2l.615,1.393s.05.057.145-.026.07-.137.07-.137S138.221,263.029,138.2,262.989Z" transform="translate(-133.604 -262.918)" fill="#1b227a"/>
            <g id="XMLID_170_" transform="translate(4.675 1.343)">
              <path id="XMLID_171_" d="M139.567,267.3a1.428,1.428,0,0,1-.375.391c-.1.09-.084.148-.189.241.185-.014.153-.123.393-.3a.508.508,0,0,0,.248-.3.042.042,0,0,0-.077-.032Z" transform="translate(-139.002 -267.28)" fill="#f2a181"/>
            </g>
          </g>
          <g id="XMLID_192_" transform="translate(6.955 7.575)">
            <path id="XMLID_173_" d="M117.6,260.348c.542.028,2.12-.249,3,.669.735.768,1.156,2.783,1.451,3.6a2.643,2.643,0,0,1-2.56,1.112c-.042-.031-.6-1.773-1-1.927" transform="translate(-117.596 -260.329)" fill="#e8505b"/>
          </g>
          <path id="XMLID_174_" d="M113.238,307.839s.358,8.606.293,9.233-.763,12.509-.763,12.509a6.485,6.485,0,0,1-2.292,0s-1.108-9.253,0-12.136l-.492-2.763s.074,2.055,0,2.473-2.289,12.132-2.289,12.132a4.156,4.156,0,0,1-2.135-.626s-.209-8.139,1.318-11.562l-1.4-8.955.805-2.279Z" transform="translate(-102.255 -284.272)" fill="#1b227a"/>
          <g id="XMLID_79_" transform="translate(4.655 22.826)">
            <path id="XMLID_176_" d="M113.2,317.454c-.2-1.323-1.468-6.018-1.521-6.131a5.948,5.948,0,0,1-1.551-1.453c.377,1.132,1.1,1.19,1.375,1.776.671,1.446.159,1.127,1.726,5.973" transform="translate(-110.127 -309.87)" fill="#170d54"/>
          </g>
          <path id="XMLID_177_" d="M96.567,255.207c-.032.458.061.915.069,1.374a1.663,1.663,0,0,1-.428,1.266.815.815,0,0,1-1.2-.068,1.813,1.813,0,0,0,1.316.947,2.785,2.785,0,0,0,1.638-.252,3.832,3.832,0,0,0,2.217-3.537c-.034-1.229-.968-2.416-2.271-1.77A2.51,2.51,0,0,0,96.567,255.207Z" transform="translate(-95.005 -247.671)" fill="#1b227a"/>
        </g>
      </g>
    </g>
  </g>
</svg>
