<svg xmlns="http://www.w3.org/2000/svg" width="124" height="124" viewBox="0 0 124 124">
  <g id="Grupo_1079628" data-name="Grupo 1079628" transform="translate(-1211.001 -3662.296)">
    <g id="Grupo_159183" data-name="Grupo 159183" transform="translate(1211.001 3662.296)">
      <path id="Unión_12" data-name="Unión 12" d="M62,0A62,62,0,1,1,0,62,62,62,0,0,1,62,0Z" fill="#01d8d1"/>
    </g>
    <g id="svg17" transform="translate(1207.302 3688.175)">
      <g id="Grupo_1017847" data-name="Grupo 1017847" transform="translate(9.689 4.219)">
        <path id="Trazado_720278" data-name="Trazado 720278" d="M18.482,66.315S2.468,49.291,13.662,33.433c4.2-5.908,14.925-9.25,24.72-6.53C44.212,28.535,53,28.224,61.624,14.232,73.362-4.968,122.1,3.816,112.619,37.4c-4.042,14.148,10.961,14.77,3.5,29.073Z" transform="translate(-9.689 -4.219)" fill="#ebf3fa"/>
        <g id="Grupo_1017824" data-name="Grupo 1017824" transform="translate(2.419 14.133)">
          <g id="Grupo_1017823" data-name="Grupo 1017823" transform="translate(0 5.986)">
            <path id="Trazado_720279" data-name="Trazado 720279" d="M105.849,37.951,70.946,67.18,52.6,51.555c-3.42,3.032-8.706,7.7-14.07,12.36-3.654,3.187-6.607,5.752-9.017,7.851H12.8C17.386,67.8,36.043,51.477,48.558,40.439L52.367,37.1l18.579,15.78L98.153,30.1Z" transform="translate(-12.8 -30.1)" fill="#d5e5fb"/>
          </g>
          <path id="Trazado_720280" data-name="Trazado 720280" d="M117.1,24.732l16.635,16.713L138.4,22.4Z" transform="translate(-36.022 -22.4)" fill="#d5e5fb"/>
        </g>
        <g id="Grupo_1017838" data-name="Grupo 1017838" transform="translate(22.474 38.207)">
          <g id="Grupo_1017832" data-name="Grupo 1017832" transform="translate(3.03)">
            <g id="Grupo_1017830" data-name="Grupo 1017830">
              <path id="Trazado_720281" data-name="Trazado 720281" d="M46,68.663a34.316,34.316,0,0,0-.389-3.809c-.233-1.477-.466-2.332-.466-2.332,0-.155-.544-.622-1.632-.622s-1.011.7-1.011.7h0v.078a32.261,32.261,0,0,1,.933,8.24v.233s2.488.078,2.488,0A6.007,6.007,0,0,0,46,68.663Z" transform="translate(-42.498 -55.269)" fill="#b7d3f3"/>
              <path id="Trazado_720282" data-name="Trazado 720282" d="M46.4,70.9c0,.078,0,.078-.078.078h0a.076.076,0,0,1-.078-.078H44.066c0,.078,0,.078-.078.078h0c-.078,0-.078-.078-.078-.155,0-1.321-.078-2.565-.155-3.654a21.866,21.866,0,0,0-.855-4.586V62.5s-.078-.7,1.011-.7a2.1,2.1,0,0,1,1.632.622,10.642,10.642,0,0,1,.311,1.321,3.939,3.939,0,0,1,.155,1.011,34.317,34.317,0,0,1,.389,3.809A11.1,11.1,0,0,1,46.4,70.9Z" transform="translate(-42.588 -55.246)" fill="#d2e3fc"/>
              <path id="Trazado_720283" data-name="Trazado 720283" d="M44.1,73.5h8.4s-.233-.777-5.053-.7C43.944,72.876,44.1,73.5,44.1,73.5Z" transform="translate(-42.855 -57.694)" fill="#c5dcf8"/>
              <g id="Grupo_1017825" data-name="Grupo 1017825" transform="translate(0.545 15.882)">
                <path id="Trazado_720284" data-name="Trazado 720284" d="M43.2,81.962a29.2,29.2,0,0,0,.7-8.007c0-.078.155-.155.233-.155s.389,0,.466.078a21.045,21.045,0,0,1-1.244,8.084Z" transform="translate(-43.2 -73.8)" fill="#b7d3f3"/>
              </g>
              <g id="Grupo_1017826" data-name="Grupo 1017826" transform="translate(6.873 15.882)">
                <path id="Trazado_720285" data-name="Trazado 720285" d="M52.864,81.962a31.775,31.775,0,0,1-.777-8.007c0-.078-.155-.155-.233-.155s-.389,0-.466.078a21.045,21.045,0,0,0,1.244,8.084Z" transform="translate(-51.34 -73.8)" fill="#b7d3f3"/>
              </g>
              <g id="Grupo_1017827" data-name="Grupo 1017827" transform="translate(8.428 15.882)">
                <path id="Trazado_720286" data-name="Trazado 720286" d="M54.864,81.962a31.776,31.776,0,0,1-.777-8.007c0-.078-.155-.155-.233-.155s-.389,0-.466.078a21.045,21.045,0,0,0,1.244,8.084Z" transform="translate(-53.34 -73.8)" fill="#b7d3f3"/>
              </g>
              <g id="Grupo_1017828" data-name="Grupo 1017828" transform="translate(2.1 15.882)">
                <path id="Trazado_720287" data-name="Trazado 720287" d="M45.2,81.962a29.2,29.2,0,0,0,.7-8.007c0-.078.155-.155.233-.155s.389,0,.466.078a21.045,21.045,0,0,1-1.244,8.084Z" transform="translate(-45.2 -73.8)" fill="#b7d3f3"/>
              </g>
              <path id="Trazado_720288" data-name="Trazado 720288" d="M52.351,73.866H44.033a.206.206,0,0,1-.233-.233h0a.206.206,0,0,1,.233-.233h8.318a.206.206,0,0,1,.233.233h0A.206.206,0,0,1,52.351,73.866Z" transform="translate(-42.788 -57.829)" fill="#b7d3f3"/>
              <g id="Grupo_1017829" data-name="Grupo 1017829" transform="translate(1.697)">
                <path id="Trazado_720289" data-name="Trazado 720289" d="M54.366,64.022l2.8-.622.155.389s-3.109,1.866-3.343,1.71C53.666,65.5,54.366,64.022,54.366,64.022Z" transform="translate(-46.733 -55.603)" fill="#ffb27d"/>
                <path id="Trazado_720290" data-name="Trazado 720290" d="M51.178,79.854a.286.286,0,0,0-.078.233h0a1.8,1.8,0,0,0,.544.544l.078.078h0c.233.233.155.233.544.7.466.466.777.466.855.466s-.078-.311-.233-.622v-.078a.271.271,0,0,1-.078-.155c-.233-.389-.155-.544-.078-1.011.078-.389.622-2.332.622-2.332l-.777-.078s-.233,1.555-.544,1.788c-.155.155-.311.155-.466.233h0A.831.831,0,0,0,51.178,79.854Z" transform="translate(-46.11 -58.764)" fill="#ffb27d"/>
                <path id="Trazado_720291" data-name="Trazado 720291" d="M51.178,80.411a.286.286,0,0,0-.078.233h0a1.8,1.8,0,0,0,.544.544l.078.078h0c.233.233.155.233.544.7.466.466.777.466.855.466s-.078-.311-.233-.622a1.959,1.959,0,0,1-.855-.622c-.311-.389-.466-.855-.7-1.088h0A.4.4,0,0,1,51.178,80.411Z" transform="translate(-46.11 -59.321)" fill="#1c468a"/>
                <path id="Trazado_720292" data-name="Trazado 720292" d="M60.4,79.266c.078.311.466.233.933.155s.311,0,.933-.078.855-.311.855-.389-.311-.078-.622-.155h-.155a5.861,5.861,0,0,1-1.011-.466,3.419,3.419,0,0,1-.777-.933l-.855.078s.466.7.622,1.011a1.515,1.515,0,0,1,.078.622C60.322,79.032,60.322,79.188,60.4,79.266Z" transform="translate(-48.025 -58.72)" fill="#ffb27d"/>
                <path id="Trazado_720293" data-name="Trazado 720293" d="M61.433,79.722c.466-.078.311,0,.933-.078s.855-.311.855-.389-.311-.078-.622-.155h0a2.746,2.746,0,0,1-.933.311c-.389,0-.855-.078-1.166-.078v.311C60.578,79.877,60.966,79.877,61.433,79.722Z" transform="translate(-48.203 -59.098)" fill="#1c468a"/>
                <path id="Trazado_720294" data-name="Trazado 720294" d="M58.1,63.324s.233-.466.466-.544c.233,0,.933-.155,1.011,0,.078.078,0,.466-.155.622a3.955,3.955,0,0,1-1.088.311Z" transform="translate(-47.669 -55.449)" fill="#ffb27d"/>
                <path id="Trazado_720295" data-name="Trazado 720295" d="M55.454,72.3l-1.866,4.975a2.051,2.051,0,0,1-.544-.078,5.177,5.177,0,0,1-.544-.233s.466-4.82,1.321-5.83C54.677,70.2,55.454,72.3,55.454,72.3Z" transform="translate(-46.422 -57.271)" fill="#163560"/>
                <path id="Trazado_720296" data-name="Trazado 720296" d="M46.5,69.683s5.364-1.788,6.53-1.4,4.742,7.54,4.742,7.54l-.233.078a3.008,3.008,0,0,1-.7.078A30.319,30.319,0,0,1,53.189,72.4c-.389-.777-.544-1.555-.933-1.477s-4.975,1.866-5.986.777a3.172,3.172,0,0,1-.777-2.488Z" transform="translate(-44.857 -56.678)" fill="#1c468a"/>
                <path id="Trazado_720297" data-name="Trazado 720297" d="M49.549,53.626a1.278,1.278,0,0,0-.7-.155.241.241,0,0,1,.155-.078,1.581,1.581,0,0,0-.389.078c-1.71-.622-1.943,1.788-1.866,2.41a1.588,1.588,0,0,1-.777,1.71c-1.632,1.011-.233,2.8-.233,2.8l.777,1.244c-.078-.466,2.1-2.876,3.187-3.654a3.915,3.915,0,0,0,.389-1.166,3.814,3.814,0,0,1-.233,1.011C50.715,57.047,50.093,53.937,49.549,53.626Z" transform="translate(-44.793 -53.369)" fill="#b5453c"/>
                <path id="Trazado_720298" data-name="Trazado 720298" d="M50.355,58.91a1.309,1.309,0,0,1-.933.155c-.389-.078-.622-.622-.622-.622.155,0,.233-.233.233-1.244h.078l1.244.233v.777C50.277,58.6,50.277,58.91,50.355,58.91Z" transform="translate(-45.598 -54.222)" fill="#ffb27d"/>
                <path id="Trazado_720299" data-name="Trazado 720299" d="M50.344,57.633v.777A1.441,1.441,0,0,1,49.1,57.4Z" transform="translate(-45.665 -54.267)" fill="#ed975d"/>
                <path id="Trazado_720300" data-name="Trazado 720300" d="M48.762,56.462a2.934,2.934,0,0,1-.466-1.088,1.25,1.25,0,0,1,1.4-1.477,1.078,1.078,0,0,1,.7.311c.311.155.7.622.233,1.71v.389Z" transform="translate(-45.482 -53.484)" fill="#b5453c"/>
                <path id="Trazado_720301" data-name="Trazado 720301" d="M50.526,57.3s-1.632,0-1.632-1.011-.233-1.71.855-1.788c1.011-.078,1.244.311,1.321.7S50.915,57.3,50.526,57.3Z" transform="translate(-45.615 -53.618)" fill="#ffb27d"/>
                <path id="Trazado_720302" data-name="Trazado 720302" d="M50.277,54.445s-.466,1.166-1.166,1.4a1.649,1.649,0,0,1-1.011,0,1.707,1.707,0,0,0,.622-1.166C48.8,54.678,49.966,53.9,50.277,54.445Z" transform="translate(-45.442 -53.566)" fill="#b5453c"/>
                <path id="Trazado_720303" data-name="Trazado 720303" d="M50.8,54.557a1.154,1.154,0,0,1,.389.544c.078.233.155.777.311.777a1.4,1.4,0,0,0-.078-1.244C51.033,54.168,50.8,54.557,50.8,54.557Z" transform="translate(-46.044 -53.6)" fill="#b5453c"/>
                <path id="Trazado_720304" data-name="Trazado 720304" d="M45.891,63.7a6.289,6.289,0,0,1,.933-3.109A20.04,20.04,0,0,1,47.912,58.8c1.4.777,1.477.155,1.477.155h0s1.244.155,1.632.777c.466.777.933,2.876,1.4,3.265a.852.852,0,0,0,0,.622c0,.078,0,.078.078.155l.233.466c-.233.155-.7.389-1.011.233-.544-.311-.933-1.244-1.166-1.555h0c-.466,2.8.155,3.42-.155,3.731-.389.311-.855-.155-2.021.311a11.826,11.826,0,0,1-2.488.855q-.583.117-.7-.233C44.958,66.884,46.2,65.019,45.891,63.7Z" transform="translate(-44.788 -54.578)" fill="#1c468a"/>
                <path id="Trazado_720305" data-name="Trazado 720305" d="M50.5,57.272s0,.155.389.078c0,0,.233,0,.233-.155A.976.976,0,0,0,50.5,57.272Z" transform="translate(-45.977 -54.217)" fill="#fff"/>
                <path id="Trazado_720306" data-name="Trazado 720306" d="M45.192,68.475c.078.233.389.311.7.233.466-.233,2.565-1.011,2.488-1.555,0-.777-.389-.855-.155-1.788.233-.777-1.71-2.254-2.021-2.565-.544,1.088-.622,1.166-.389,1.788C46.2,65.909,44.958,67.775,45.192,68.475Z" transform="translate(-44.788 -55.469)" fill="#163560"/>
                <path id="Trazado_720307" data-name="Trazado 720307" d="M44.851,64.73a3.388,3.388,0,0,1,1.011-.933c-.078-.155,1.555-2.1,1.555-2.41s.389-2.488.389-2.488-1.321.078-1.788.7C45.473,60.455,44.229,63.486,44.851,64.73Z" transform="translate(-44.681 -54.601)" fill="#1c468a"/>
                <path id="Trazado_720308" data-name="Trazado 720308" d="M45.906,65.2l2.643.7-.233.466a17.657,17.657,0,0,1-3.42-.233C44.74,65.9,45.906,65.2,45.906,65.2Z" transform="translate(-44.726 -56.003)" fill="#ffb27d"/>
                <path id="Trazado_720309" data-name="Trazado 720309" d="M52.1,64.1c.233.389.622,1.321,1.166,1.555.311.233.777-.078,1.011-.233l-.233-.466c-.155.078-.389.078-.544.155C53.188,65.188,52.1,64.1,52.1,64.1Z" transform="translate(-46.333 -55.758)" fill="#163560"/>
                <path id="Trazado_720310" data-name="Trazado 720310" d="M49.511,66.051a3.45,3.45,0,0,1,1.011-.155c.233.078.855.544.777.622-.078.155-.7-.078-1.011,0a2.885,2.885,0,0,1-.7.155A.943.943,0,0,1,49.2,66.6Z" transform="translate(-45.687 -56.155)" fill="#ffb27d"/>
                <path id="Trazado_720311" data-name="Trazado 720311" d="M49.6,66.011s.389-.233.544-.311h.078c0,.078.078.155-.078.233A.762.762,0,0,1,49.6,66.011Z" transform="translate(-45.776 -56.115)" fill="#ffb27d"/>
              </g>
            </g>
            <g id="Grupo_1017831" data-name="Grupo 1017831" transform="translate(5.52 6.787)">
              <path id="Trazado_720312" data-name="Trazado 720312" d="M53.487,67.511H49.6a.334.334,0,0,1,.311-.311h3.576Z" transform="translate(-49.6 -63.236)" fill="#ed7d2b"/>
              <path id="Trazado_720313" data-name="Trazado 720313" d="M54.177,62.1H60.24l-1.477,4.275H52.7Z" transform="translate(-50.29 -62.1)" fill="#ed7d2b"/>
              <path id="Trazado_720314" data-name="Trazado 720314" d="M60.34,62.1l-1.477,4.275H52.8L54.277,62.1Z" transform="translate(-50.312 -62.1)" fill="#f99746"/>
              <path id="Trazado_720315" data-name="Trazado 720315" d="M58.122,64.711c0,.155-.233.311-.389.311s-.233-.155-.233-.311.233-.311.389-.311S58.122,64.555,58.122,64.711Z" transform="translate(-51.359 -62.612)" fill="#f9ddbf"/>
              <path id="Trazado_720316" data-name="Trazado 720316" d="M60.919,62.1l-1.477,4.275H55.4A5.891,5.891,0,0,0,58.9,62.1Z" transform="translate(-50.891 -62.1)" fill="#ed893e"/>
            </g>
          </g>
          <g id="Grupo_1017837" data-name="Grupo 1017837" transform="translate(0 10.985)">
            <g id="Grupo_1017834" data-name="Grupo 1017834" transform="translate(0.933 0.7)">
              <g id="Grupo_1017833" data-name="Grupo 1017833">
                <path id="Trazado_720317" data-name="Trazado 720317" d="M39.878,80.76a.167.167,0,0,0,.155-.155l.777-4.275L41.9,70.11l.311-1.71h-.777l-.155,1.011-.933,7.074-.544,4.2C39.8,80.76,39.8,80.76,39.878,80.76Z" transform="translate(-39.8 -68.4)" fill="#95c0f4"/>
              </g>
              <path id="Trazado_720318" data-name="Trazado 720318" d="M41.7,69.433a1.372,1.372,0,0,1,.622.777l.311-1.71h-.777Z" transform="translate(-40.223 -68.422)" fill="#78acea"/>
            </g>
            <g id="Grupo_1017836" data-name="Grupo 1017836" transform="translate(18.035 0.7)">
              <g id="Grupo_1017835" data-name="Grupo 1017835" transform="translate(0)">
                <path id="Trazado_720319" data-name="Trazado 720319" d="M64.132,80.76a.167.167,0,0,1-.155-.155L63.2,76.329,62.111,70.11,61.8,68.4h.777l.155,1.011.933,7.074.544,4.2C64.21,80.76,64.21,80.76,64.132,80.76Z" transform="translate(-61.8 -68.4)" fill="#95c0f4"/>
              </g>
              <path id="Trazado_720320" data-name="Trazado 720320" d="M62.733,69.433a1.372,1.372,0,0,0-.622.777L61.8,68.5h.777Z" transform="translate(-61.8 -68.422)" fill="#78acea"/>
            </g>
            <path id="Trazado_720321" data-name="Trazado 720321" d="M39.3,68.9H58.811a.7.7,0,0,0,.7-.7h0a.7.7,0,0,0-.7-.7H39.3a.7.7,0,0,0-.7.7h0Q38.717,68.9,39.3,68.9Z" transform="translate(-38.6 -67.5)" fill="#78acea"/>
          </g>
        </g>
        <g id="Grupo_1017840" data-name="Grupo 1017840" transform="translate(69.385 36.116)">
          <path id="Trazado_720323" data-name="Trazado 720323" d="M102.681,66.7s-.544.622-.389.7.622.233.7.155a4.011,4.011,0,0,0,.155-.855Z" transform="translate(-99.686 -54.247)" fill="#ffb27d"/>
          <path id="Trazado_720324" data-name="Trazado 720324" d="M102.644,66.7a1.107,1.107,0,0,0-.311.155,3.1,3.1,0,0,0-.233.311c.078.078.311-.155.311-.155Z" transform="translate(-99.649 -54.247)" fill="#ffb27d"/>
          <path id="Trazado_720325" data-name="Trazado 720325" d="M104.743,55.7s-.544,5.441-.622,5.6l-.155.466c-.078.389-.233.855-.311,1.321-.155.7-.389,1.4-.389,1.4l-.466-.155s0-2.643.078-3.265c.155-.622.544-4.353.777-4.82C103.888,55.7,104.743,55.7,104.743,55.7Z" transform="translate(-99.805 -51.798)" fill="#aec3ff"/>
          <g id="Grupo_1017839" data-name="Grupo 1017839" transform="translate(0 12.92)">
            <path id="Trazado_720326" data-name="Trazado 720326" d="M102.72,71.32l-3.187-.855a.738.738,0,0,1-.544-.933l.389-1.4a.738.738,0,0,1,.933-.544l3.187.855a.738.738,0,0,1,.544.933l-.389,1.4A.8.8,0,0,1,102.72,71.32Z" transform="translate(-98.947 -67.355)" fill="#a02e2e"/>
            <path id="Trazado_720327" data-name="Trazado 720327" d="M99.88,68.233l-.389,1.4a.746.746,0,0,0,.155.7c.078.078.155.078.233.155h0c.078,0,.078.078.155.078l3.187.855a.8.8,0,0,0,.933-.544l.389-1.477a.8.8,0,0,0-.544-.933l-1.088-.311.078-.311c0-.155-.078-.311-.155-.311h-.155l-.7-.155-.155-.078h-.233c-.078,0-.078.078-.155.155v.389l-.622-.155h-.078a.784.784,0,0,0-.7.233h0C99.958,67.922,99.88,68.077,99.88,68.233Zm2.876-.078-1.166-.311.078-.311c0-.078.078-.078.155-.078l.311.078.544.155h.155l.078.078Z" transform="translate(-99.062 -67.3)" fill="#bc3f3f"/>
          </g>
          <path id="Trazado_720328" data-name="Trazado 720328" d="M103.022,67.686s.155-.233.078-.311-.233.233-.233.233.155-.311.078-.311c-.078-.078-.233.311-.233.311s.155-.311.078-.311-.155.233-.155.233.078-.233,0-.233-.233.233-.233.233Z" transform="translate(-99.716 -54.377)" fill="#ffb27d"/>
          <path id="Trazado_720329" data-name="Trazado 720329" d="M104.234,62.665c-.078.389-.233.855-.311,1.321a6.086,6.086,0,0,1-.233-1.088,10.682,10.682,0,0,1,.233-2.8Z" transform="translate(-99.995 -52.777)" fill="#9db0f4"/>
          <path id="Trazado_720330" data-name="Trazado 720330" d="M112.8,66.4a4.609,4.609,0,0,1,.622.622,3.5,3.5,0,0,1,.233.855c0,.155-.466-.389-.544-.466-.155-.078.155.233.078.311,0,.078-.311-.155-.389-.233s-.155-.466-.311-.7S112.8,66.4,112.8,66.4Z" transform="translate(-101.956 -54.18)" fill="#ffb27d"/>
          <path id="Trazado_720331" data-name="Trazado 720331" d="M103.4,83.555h2.8c.233-.155-.078-1.477-.078-1.477s-.777-.311-.933.311-1.011.777-1.4.855C103.555,83.244,103.478,83.4,103.4,83.555Z" transform="translate(-99.939 -57.653)" fill="#233862"/>
          <path id="Trazado_720332" data-name="Trazado 720332" d="M108.8,83.555h2.8c.233-.155-.078-1.477-.078-1.477s-.777-.311-.933.311-1.011.777-1.4.855C108.878,83.244,108.8,83.4,108.8,83.555Z" transform="translate(-101.141 -57.653)" fill="#233862"/>
          <path id="Trazado_720333" data-name="Trazado 720333" d="M104.4,66.455s.155,1.555.311,3.5c.233,2.565.777,8.94.777,8.94a1.461,1.461,0,0,0,1.166.155,21.542,21.542,0,0,0,.855-4.664v-.155c.155-2.565.466-7.929.466-7.929Z" transform="translate(-100.161 -54.158)" fill="#2b478b"/>
          <path id="Trazado_720334" data-name="Trazado 720334" d="M104.3,65.8s.155,2.1.311,4.042l2.8,4.353V74.04c.155-2.565.466-7.929.466-7.929Z" transform="translate(-100.139 -54.046)" fill="#233862"/>
          <path id="Trazado_720335" data-name="Trazado 720335" d="M105.4,65.511s2.021,4.975,2.643,6.841c.466,1.321,1.71,6.063,1.71,6.063a1.327,1.327,0,0,0,1.011-.155s.466-4.82-.466-6.219c-.544-.7-.155-7.463-2.177-7.54C106.022,64.5,105.4,65.511,105.4,65.511Z" transform="translate(-100.384 -53.757)" fill="#2b478b"/>
          <path id="Trazado_720336" data-name="Trazado 720336" d="M108.876,64c-.855.466-4.431.466-4.586.078-.389-.855-.466-5.053-.311-6.3,0,0,.078-1.943.311-1.866a6.16,6.16,0,0,1,3.42-.078c.544.155.544,1.477.7,3.343,0,.233.078.466.078.777a37.392,37.392,0,0,0,.544,3.809C109.031,63.844,108.954,63.921,108.876,64Z" transform="translate(-100.051 -51.779)" fill="#aec3ff"/>
          <path id="Trazado_720337" data-name="Trazado 720337" d="M107.193,55.183c0,.389-.466.311-1.011.155s-.389-.466-.389-.466a2.485,2.485,0,0,1,.078-.544.467.467,0,0,1,.078-.311v-.155c.078-.311,1.088,0,1.088.078A3.637,3.637,0,0,0,107.193,55.183Z" transform="translate(-100.467 -51.358)" fill="#ffb27d"/>
          <path id="Trazado_720338" data-name="Trazado 720338" d="M106,56.266V55.8l.622.078-.233.466Z" transform="translate(-100.518 -51.82)" fill="#233862"/>
          <path id="Trazado_720339" data-name="Trazado 720339" d="M105.689,55l-.389.544a.963.963,0,0,0,.311.622l.466-.466C106.155,55.622,105.844,55.544,105.689,55Z" transform="translate(-100.362 -51.642)" fill="#9db0f4"/>
          <path id="Trazado_720340" data-name="Trazado 720340" d="M106.4,55.622a.978.978,0,0,0,.311.544s.777-.233.933-.622L107.255,55C107.255,55.078,107.255,55.466,106.4,55.622Z" transform="translate(-100.607 -51.642)" fill="#9db0f4"/>
          <path id="Trazado_720341" data-name="Trazado 720341" d="M107.066,54.155a1.87,1.87,0,0,1-1.166.233.467.467,0,0,1,.078-.311.341.341,0,0,0,.233-.078Z" transform="translate(-100.495 -51.419)" fill="#e2915a"/>
          <path id="Trazado_720342" data-name="Trazado 720342" d="M107.288,53.135c-.233.7-1.166.466-1.477.389a.271.271,0,0,1-.155-.078c-.155-.078-.155-.233-.155-.544a4.153,4.153,0,0,1,.311-1.4c.155-.233.466-.544,1.321-.155C107.988,51.814,107.6,52.28,107.288,53.135Z" transform="translate(-100.406 -50.787)" fill="#ffb27d"/>
          <path id="Trazado_720343" data-name="Trazado 720343" d="M107.908,52.717c-.311.233-.855.622-.855.622a.851.851,0,0,0,.155-.311V52.95a.467.467,0,0,1,.078-.311c0-.078.078-.155,0-.155-.078-.078-.233,0-.311.078-.078,0-.155.078-.155,0h0c-.233-.155,0-.389-.155-.622s-1.011-.233-1.011-.389c-.311-.155-.078-.777-.078-.777a7.308,7.308,0,0,0,.933-.078,1.764,1.764,0,0,1,1.011.233v-.078a.271.271,0,0,1,.078.155h.078A1.6,1.6,0,0,1,107.908,52.717Z" transform="translate(-100.405 -50.68)" fill="#233862"/>
          <path id="Trazado_720344" data-name="Trazado 720344" d="M105.989,53.555s-.078.078-.233,0c0,0-.155-.078-.155-.155A.785.785,0,0,1,105.989,53.555Z" transform="translate(-100.429 -51.286)" fill="#fff"/>
          <path id="Trazado_720345" data-name="Trazado 720345" d="M105.866,56.4s-.466,6.219-.466,6.685a1.9,1.9,0,0,0,.544,1.088,3.452,3.452,0,0,0,.544-.933c.078-.466-.233-6.763-.233-6.763Z" transform="translate(-100.384 -51.953)" fill="#2a4e96"/>
          <path id="Trazado_720346" data-name="Trazado 720346" d="M108.8,55.9s.777.155,1.4,1.4c.622,1.166,1.088,3.654,1.4,4.275a11.737,11.737,0,0,1,.466,2.643l-.466.233a22.6,22.6,0,0,1-1.321-2.721c-.078-.389-1.477-3.265-1.477-3.265Z" transform="translate(-101.141 -51.842)" fill="#aec3ff"/>
          <path id="Trazado_720347" data-name="Trazado 720347" d="M109.986,64.931h0c-1.477-.233-1.088-5.131-.933-5.131s.544.855.544.855l.078.233a37.391,37.391,0,0,0,.544,3.809Z" transform="translate(-101.161 -52.71)" fill="#9db0f4"/>
        </g>
        <g id="Grupo_1017843" data-name="Grupo 1017843" transform="translate(83.671 24.902)">
          <g id="Grupo_1017841" data-name="Grupo 1017841" transform="translate(1.846 16.283)">
            <path id="Trazado_720348" data-name="Trazado 720348" d="M133.54,80.111s.622.544.466.933-.7.7-.777,1.166-.389.777-.622.777h-1.321s-.233-.311.311-.466c.466-.078.7-.7.622-1.244,0-.544.078-1.244.078-1.244l1.011-.233Z" transform="translate(-122.269 -62.232)" fill="#233862"/>
            <path id="Trazado_720349" data-name="Trazado 720349" d="M123.354,81.959s.078,1.321-.155,1.4h-3.5s0-.389.544-.466,1.555-.389,1.71-1.166C122.11,81.026,123.354,81.959,123.354,81.959Z" transform="translate(-119.7 -62.603)" fill="#233862"/>
            <path id="Trazado_720350" data-name="Trazado 720350" d="M120.6,58.633s.155,2.254.389,4.975c.311,3.654.622,8.24.7,9.095.078,1.477.311,3.887.311,3.887a1.9,1.9,0,0,0,1.71.311,40.59,40.59,0,0,0,1.321-7v-.155c.311-3.654.7-11.349.7-11.349Z" transform="translate(-119.9 -57.467)" fill="#2a4e96"/>
            <path id="Trazado_720351" data-name="Trazado 720351" d="M120.6,58.633s.155,2.254.389,4.975l4.042,6.3v-.155c.311-3.654.7-11.349.7-11.349Z" transform="translate(-119.9 -57.467)" fill="#233862"/>
            <path id="Trazado_720352" data-name="Trazado 720352" d="M121.7,58.677s3.343,8.162,5.519,12.049c2.177,3.809,2.876,4.9,2.876,4.9s1.244-.466,1.4-.855c0,0-.855-7.385-2.254-9.25a7.915,7.915,0,0,1-1.477-4.353,13.039,13.039,0,0,0-.622-3.964Z" transform="translate(-120.145 -57.2)" fill="#2a4e96"/>
          </g>
          <path id="Trazado_720353" data-name="Trazado 720353" d="M118.083,59.2a9.026,9.026,0,0,0-.7,1.088,3.346,3.346,0,0,0,0,1.244c.078.233.466-.7.622-.777s-.078.389,0,.466.389-.311.466-.389c.155-.155.078-.777.155-1.088C118.783,59.278,118.083,59.2,118.083,59.2Z" transform="translate(-117.325 -41.363)" fill="#ffb27d"/>
          <path id="Trazado_720354" data-name="Trazado 720354" d="M120.976,43.6s-.855,7.773-.933,8.007c0,.078-.078.311-.155.622-.155.544-.311,1.244-.466,1.943-.233,1.011-.544,1.943-.544,1.943a1.128,1.128,0,0,1-.466.078.347.347,0,0,1-.311-.233,37.514,37.514,0,0,1,.233-4.664c.155-.855.777-6.219,1.088-6.918C119.732,43.6,120.976,43.6,120.976,43.6Z" transform="translate(-117.498 -37.889)" fill="#fff"/>
          <path id="Trazado_720355" data-name="Trazado 720355" d="M120.168,53.654c-.155.544-.311,1.244-.466,1.943a10.653,10.653,0,0,1-.311-1.555A20.179,20.179,0,0,1,119.7,50Z" transform="translate(-117.778 -39.314)" fill="#dceaff"/>
          <path id="Trazado_720356" data-name="Trazado 720356" d="M126.851,55.445c-1.166.7-6.374.7-6.607.155-.544-1.166-.7-7.229-.389-9.095,0,0,.155-2.876.389-2.721,1.866-.855,4.975-.078,4.975-.078.855.233.777,2.1,1.011,4.82,0,.311.078.7.078,1.088.155,1.632.389,3.5.777,5.519C127.162,55.29,127.006,55.368,126.851,55.445Z" transform="translate(-117.853 -37.841)" fill="#fff"/>
          <path id="Trazado_720357" data-name="Trazado 720357" d="M124.412,42.907c0,.544-.7.466-1.477.233-.777-.155-.544-.622-.544-.622a4.516,4.516,0,0,1,.078-.777c0-.155.078-.311.078-.466a.286.286,0,0,1,.078-.233c.078-.466,1.555,0,1.555.078C124.179,41.43,124.412,42.441,124.412,42.907Z" transform="translate(-118.446 -37.274)" fill="#ffb27d"/>
          <path id="Trazado_720358" data-name="Trazado 720358" d="M122.778,44.4l-.078-.7.933.155-.389.622Z" transform="translate(-118.522 -37.912)" fill="#233862"/>
          <path id="Trazado_720359" data-name="Trazado 720359" d="M122.344,42.5l-.544.777a1.209,1.209,0,0,0,.466.855l.7-.7C122.966,43.511,122.5,43.355,122.344,42.5Z" transform="translate(-118.321 -37.644)" fill="#dceaff"/>
          <path id="Trazado_720360" data-name="Trazado 720360" d="M123.3,43.555a1.735,1.735,0,0,0,.466.777s1.088-.311,1.4-.855l-.622-.777S124.544,43.244,123.3,43.555Z" transform="translate(-118.655 -37.689)" fill="#dceaff"/>
          <path id="Trazado_720361" data-name="Trazado 720361" d="M124.21,41.455a2.913,2.913,0,0,1-1.71.389c0-.155.078-.311.078-.466a1.36,1.36,0,0,1,.389-.078Z" transform="translate(-118.477 -37.377)" fill="#e2915a"/>
          <path id="Trazado_720362" data-name="Trazado 720362" d="M124.543,39.988c-.389.933-1.632.7-2.177.544a.6.6,0,0,0-.233-.078c-.155-.078-.233-.389-.233-.777a5.516,5.516,0,0,1,.466-2.021c.233-.389.7-.777,1.943-.233S125.009,38.745,124.543,39.988Z" transform="translate(-118.344 -36.454)" fill="#ffb27d"/>
          <path id="Trazado_720363" data-name="Trazado 720363" d="M125.523,39.244c-.389.311-1.244.933-1.244.933a1.683,1.683,0,0,0,.233-.466v-.155a.986.986,0,0,1,.078-.466.146.146,0,0,0,0-.233c-.078-.078-.311,0-.389.078a.146.146,0,0,1-.233,0h0c-.311-.233,0-.544-.233-.855s-1.477-.311-1.4-.544c-.389-.233-.155-1.088-.155-1.088a3.381,3.381,0,0,0,1.322-.155,1.682,1.682,0,0,1,1.4.389v-.155a.271.271,0,0,1,.078.155h0a.241.241,0,0,1,.155.078h-.078C125.911,37.378,125.911,39.01,125.523,39.244Z" transform="translate(-118.391 -36.254)" fill="#bc3f3f"/>
          <path id="Trazado_720364" data-name="Trazado 720364" d="M122.722,40.533s-.078.155-.389,0c0,0-.233-.078-.233-.233A.986.986,0,0,1,122.722,40.533Z" transform="translate(-118.388 -37.155)" fill="#fff"/>
          <path id="Trazado_720365" data-name="Trazado 720365" d="M122.6,44.6s-.7,8.862-.7,9.639a2.714,2.714,0,0,0,.777,1.555,3.072,3.072,0,0,0,.7-1.4c.155-.7-.311-9.717-.311-9.717Z" transform="translate(-118.344 -38.112)" fill="#2a4e96"/>
          <path id="Trazado_720366" data-name="Trazado 720366" d="M128.446,56.785h0c-2.177-.311-1.555-7.385-1.321-7.385.155,0,.777,1.244.777,1.244l.078.311c.155,1.632.389,3.5.777,5.519C128.757,56.629,128.6,56.707,128.446,56.785Z" transform="translate(-119.448 -39.181)" fill="#dceaff"/>
          <g id="Grupo_1017842" data-name="Grupo 1017842" transform="translate(8.803 18.43)">
            <path id="Trazado_720367" data-name="Trazado 720367" d="M135.141,64.509l-4.509,1.322a1.112,1.112,0,0,1-1.4-.777l-.544-1.943a1.112,1.112,0,0,1,.777-1.4l4.509-1.321a1.112,1.112,0,0,1,1.4.777l.544,2.021A1.066,1.066,0,0,1,135.141,64.509Z" transform="translate(-128.649 -60.049)" fill="#a02e2e"/>
            <path id="Trazado_720368" data-name="Trazado 720368" d="M129.4,62.868l.544,2.021a1,1,0,0,0,.777.777c.155,0,.233.078.389.078h0a.286.286,0,0,0,.233-.078l4.509-1.321a1.112,1.112,0,0,0,.777-1.4l-.544-2.021a1.112,1.112,0,0,0-1.4-.777l-1.555.466-.155-.389a.326.326,0,0,0-.466-.233l-.155.078-.933.311-.233.078c-.078,0-.155.078-.233.155s-.078.155,0,.311l.155.389-.933.233H130.1a1.365,1.365,0,0,0-.7.777h0Zm3.5-2.177-1.632.466-.155-.389c0-.078,0-.155.078-.155l.389-.155.777-.233.233-.078h.078c.078,0,.078.078.155.078Z" transform="translate(-128.816 -59.963)" fill="#bc3f3f"/>
          </g>
          <path id="Trazado_720369" data-name="Trazado 720369" d="M132.189,59.211s-.155,1.166.155,1.166c.233,0,.933-.155.933-.311.078-.233-.466-1.166-.466-1.166Z" transform="translate(-120.626 -41.296)" fill="#ffb27d"/>
          <path id="Trazado_720370" data-name="Trazado 720370" d="M132.123,59.3a.814.814,0,0,0-.233.466c0,.233-.078.544,0,.544s.233-.466.233-.466Z" transform="translate(-120.56 -41.385)" fill="#ffb27d"/>
          <path id="Trazado_720371" data-name="Trazado 720371" d="M126.8,43.9s1.166.233,2.021,2.021c.933,1.71,1.632,5.208,2.021,6.141a17.07,17.07,0,0,1,.777,3.654.337.337,0,0,1-.311.155h-.389a23.928,23.928,0,0,1-1.943-3.654c-.155-.544-2.1-4.742-2.1-4.742Z" transform="translate(-119.435 -37.956)" fill="#fff"/>
        </g>
        <g id="Grupo_1017844" data-name="Grupo 1017844" transform="translate(7.31 28.04)">
          <path id="Trazado_720372" data-name="Trazado 720372" d="M30.555,81.988,30.4,80.744l.7-.544.233,1.555Z" transform="translate(-21.61 -49.176)" fill="#ffb27d"/>
          <path id="Trazado_720373" data-name="Trazado 720373" d="M32.871,83.455H29.994a1.512,1.512,0,0,1,.078-.777c.155-.311.389-.544.389-.777a.881.881,0,0,0,.855.233c.078.078.311.544.544.622C31.938,82.988,32.793,82.911,32.871,83.455Z" transform="translate(-21.515 -49.555)" fill="#233862"/>
          <path id="Trazado_720374" data-name="Trazado 720374" d="M31.888,60.742c-.155,1.555-.311,2.954-.466,4.353a96.9,96.9,0,0,0-.544,11.583s-.078.155-.466.155a1.7,1.7,0,0,1-.466-.078s-1.555-4.664-1.4-7.385a2.8,2.8,0,0,1,.155-.855c.389-1.4-1.321-6.607.544-8.551C31.033,58.021,31.966,60.042,31.888,60.742Z" transform="translate(-21.155 -44.488)" fill="#f99746"/>
          <path id="Trazado_720375" data-name="Trazado 720375" d="M31.888,60.742c-.155,1.555-.311,2.954-.466,4.353l-2.876,4.275a2.8,2.8,0,0,1,.155-.855c.389-1.4-1.321-6.607.544-8.551C31.033,58.021,31.966,60.042,31.888,60.742Z" transform="translate(-21.155 -44.488)" fill="#ed7d2b"/>
          <path id="Trazado_720376" data-name="Trazado 720376" d="M35.855,41.93s-.078-.389-.155-.622a2.291,2.291,0,0,1,.389-1.011c.155-.078.622.466.466.855a6.93,6.93,0,0,0-.155.855Z" transform="translate(-22.79 -40.29)" fill="#ffb27d"/>
          <path id="Trazado_720377" data-name="Trazado 720377" d="M35.789,42.19s-.078-.233-.155-.233-.155-.389-.233-.466a.108.108,0,0,1,.155,0l.233.233Z" transform="translate(-22.723 -40.55)" fill="#ffb27d"/>
          <path id="Trazado_720378" data-name="Trazado 720378" d="M20.109,43.676a.271.271,0,0,0-.078.155v-.078a2.2,2.2,0,0,0-.622-.855c-.155-.078-.466.622-.233.933a3.518,3.518,0,0,1,.389.777l.466-.233s0-.233.078-.311.078-.389.078-.544C20.264,43.6,20.187,43.52,20.109,43.676Z" transform="translate(-19.092 -40.87)" fill="#ffb27d"/>
          <path id="Trazado_720379" data-name="Trazado 720379" d="M24.278,81.552a11.174,11.174,0,0,1-.078-1.4s1.088-.311,1.011-.078a14.711,14.711,0,0,0-.155,1.71l-.389.233Z" transform="translate(-20.229 -49.129)" fill="#ffb27d"/>
          <path id="Trazado_720380" data-name="Trazado 720380" d="M30.058,61.041s-4.042,11.116-4.9,16.013a.606.606,0,0,1-.544.078c-.389-.078-.466-.311-.466-.311s-.7-5.83.7-7.851c1.011-1.4-.466-7.463,1.943-7.929C29.125,60.574,30.058,61.041,30.058,61.041Z" transform="translate(-20.179 -44.864)" fill="#f99746"/>
          <path id="Trazado_720381" data-name="Trazado 720381" d="M28.885,46.677h0c0-.078-.078-.233-.078-.311h0a3.789,3.789,0,0,0-.311-.855,1.7,1.7,0,0,0-.233-.389v-.078h0c-.155-.233-.311-.466-.466-.466a1.325,1.325,0,0,0-.777,0,.241.241,0,0,1,.155-.078.956.956,0,0,0-.389.155c-1.866-.389-1.788,2.254-1.632,2.8.155.622-.466.855-1.321,1.477a3.3,3.3,0,0,0-1.632,2.41h.078a3.38,3.38,0,0,1,.311-.544,2.264,2.264,0,0,0-.155.622,4.825,4.825,0,0,1,.933.622h0c.466.311,1.011.7,1.477,1.011,0-.155-.078-.311,0-.389l.155.466v.078c.311.155.466.311.622.389H25.7a4.611,4.611,0,0,1,.389-1.088.076.076,0,0,1,.078-.078,1.626,1.626,0,0,1,.311-.466.167.167,0,0,1,.155-.155h0c0-.078.078-.078.078-.155h0c.078-.155.155-.233.233-.389l.7-.933a5.975,5.975,0,0,1,.933-1.011v-.078a.467.467,0,0,0,.078-.311v-.078a3.987,3.987,0,0,0,.078-.777v.933h0a.286.286,0,0,1-.078.233l.155-.155c0-.078.078-.078.078-.155A3.207,3.207,0,0,0,28.885,46.677Z" transform="translate(-19.784 -41.228)" fill="#163560"/>
          <path id="Trazado_720382" data-name="Trazado 720382" d="M29.888,50.355a1.651,1.651,0,0,1-1.011.311,1.765,1.765,0,0,1-.777-.544c.155-.078.155-.311,0-1.321h.078l1.321.078a4.515,4.515,0,0,0,.078.777C29.732,49.966,29.81,50.277,29.888,50.355Z" transform="translate(-21.098 -42.185)" fill="#ffb27d"/>
          <path id="Trazado_720383" data-name="Trazado 720383" d="M29.621,48.878a4.515,4.515,0,0,0,.078.777,1.554,1.554,0,0,1-1.4-.855Z" transform="translate(-21.142 -42.185)" fill="#ed975d"/>
          <path id="Trazado_720384" data-name="Trazado 720384" d="M27.9,47.776a3.492,3.492,0,0,1-.622-1.088A1.313,1.313,0,0,1,28.524,44.9a3,3,0,0,1,.855.155c.311.155.855.544.544,1.788l-.078.389Z" transform="translate(-20.9 -41.317)" fill="#163560"/>
          <path id="Trazado_720385" data-name="Trazado 720385" d="M31.452,58.44a6.15,6.15,0,0,1-3.964.544L25.7,58.673a11.007,11.007,0,0,1,.311-1.555c.389-1.011,1.088-6.452,1.71-6.763a1.211,1.211,0,0,0,.933.233c.466,0,.544-.233.544-.389.466.233.855.466.855.466C30.442,51.288,31.452,58.44,31.452,58.44Z" transform="translate(-20.563 -42.497)" fill="#fff"/>
          <path id="Trazado_720386" data-name="Trazado 720386" d="M29.819,48.478s-1.71.311-1.866-.777-.466-1.788.622-2.021,1.4.155,1.555.466C30.208,46.535,30.285,48.4,29.819,48.478Z" transform="translate(-21.029 -41.474)" fill="#ffb27d"/>
          <path id="Trazado_720387" data-name="Trazado 720387" d="M29.221,45.454s-.311,1.321-1.011,1.632-1.011.155-1.011.155a2.207,2.207,0,0,0,.466-1.321S28.755,44.91,29.221,45.454Z" transform="translate(-20.897 -41.404)" fill="#163560"/>
          <path id="Trazado_720388" data-name="Trazado 720388" d="M29.6,45.624a2.093,2.093,0,0,1,.544.466c.155.233.233.855.389.777,0,0,.233-.933-.233-1.321C29.833,45.079,29.6,45.624,29.6,45.624Z" transform="translate(-21.432 -41.418)" fill="#163560"/>
          <path id="Trazado_720389" data-name="Trazado 720389" d="M35.175,42.378c-.078,0-.155-.078-.311-.078h-.233s-.466,3.032-.544,3.187c0,.155-2.1,2.488-2.643,2.488a3.2,3.2,0,0,0-1.244.466,30.972,30.972,0,0,1,1.244,2.954c.078.466.7,8.24.7,8.24s0,.389.622.155c.7-.155.855-.389.855-.389s-.622-6.141-.777-8.007a2.27,2.27,0,0,0-.155-.7.826.826,0,0,1,.078-.622,20.4,20.4,0,0,0,2.254-3.5C35.175,46.031,35.175,42.378,35.175,42.378Z" transform="translate(-21.565 -40.738)" fill="#2b478b"/>
          <path id="Trazado_720390" data-name="Trazado 720390" d="M26.571,83.455H23.694a1.512,1.512,0,0,1,.078-.777c.155-.311.389-.544.389-.777a.881.881,0,0,0,.855.233c.078.078.311.544.544.622C25.716,82.988,26.571,82.911,26.571,83.455Z" transform="translate(-20.113 -49.555)" fill="#233862"/>
          <path id="Trazado_720391" data-name="Trazado 720391" d="M27.707,52.175a20.223,20.223,0,0,0-1.321-3.032,2.877,2.877,0,0,0-1.321-.078c-.544.155-3.187-1.321-3.343-1.477-.078-.155-1.555-2.8-1.555-2.8a.375.375,0,0,0-.311,0c-.155.078-.155.311-.155.311s1.088,3.42,1.4,3.887a21.626,21.626,0,0,0,2.876,2.254.758.758,0,0,1,.311.7c-.155,1.166-.233,1.788-.389,3.809-.155,1.632-.233,4.82-.233,4.82a11.72,11.72,0,0,0,2.177.544,1.016,1.016,0,0,0,1.088-.855S27.784,52.8,27.707,52.175Z" transform="translate(-19.227 -41.285)" fill="#2b478b"/>
          <path id="Trazado_720392" data-name="Trazado 720392" d="M29.7,48.555a.6.6,0,0,0,.466.078c.155,0,.233-.233.233-.233h-.311A3.269,3.269,0,0,0,29.7,48.555Z" transform="translate(-21.454 -42.096)" fill="#fff"/>
        </g>
        <g id="Grupo_1017846" data-name="Grupo 1017846" transform="translate(46.473 8.642)">
          <path id="Trazado_720393" data-name="Trazado 720393" d="M100.7,21.573s-.777-1.477,0-1.71c.777-.311,1.166,0,1.244.311a15.532,15.532,0,0,1-.311,1.632Z" transform="translate(-76.349 -16.316)" fill="#ffb27d"/>
          <path id="Trazado_720394" data-name="Trazado 720394" d="M98.283,31.249a26.18,26.18,0,0,1-4.042.389,19.33,19.33,0,0,1-3.109-.155c-.233,0-.466-.078-.7-.078A15.288,15.288,0,0,1,86.7,30.394s2.177-4.586,3.964-4.431c2.1.233,5.6,2.1,5.908,1.555.389-.622.7-5.6.7-5.6a1.082,1.082,0,0,1,1.477,0S100.615,30.783,98.283,31.249Z" transform="translate(-73.308 -16.741)" fill="#f99746"/>
          <path id="Trazado_720395" data-name="Trazado 720395" d="M99.4,33.259a26.18,26.18,0,0,1-4.042.389,19.33,19.33,0,0,1-3.109-.155C91.7,31.7,91.313,29.917,92.4,31,94.345,32.948,99.4,33.259,99.4,33.259Z" transform="translate(-74.424 -18.751)" fill="#ed7d2b"/>
          <path id="Trazado_720396" data-name="Trazado 720396" d="M86.491,81.292s-.155,1.788.233,2.021h4.9s0-.544-.777-.7-2.177-.622-2.41-1.632C88.2,79.893,86.491,81.292,86.491,81.292Z" transform="translate(-73.255 -29.86)" fill="#233862"/>
          <path id="Trazado_720397" data-name="Trazado 720397" d="M89.441,51.574c0,1.166-.078,2.41-.155,3.5-.544,5.208-.7,11.583-.777,12.749-.155,2.1-.544,5.519-.544,5.519a2.678,2.678,0,0,1-2.41.389,57.119,57.119,0,0,1-1.632-9.95v-.233c0-.7-.078-1.477-.078-2.254-.233-5.6-.544-13.915-.544-13.915L89.441,45.9C89.363,45.822,89.441,48.543,89.441,51.574Z" transform="translate(-72.551 -22.141)" fill="#2a4e96"/>
          <path id="Trazado_720398" data-name="Trazado 720398" d="M89.4,51.552c-1.555,2.721-4.509,7.7-5.752,9.639-.233-5.6-.544-13.915-.544-13.915L89.241,45.8C89.319,45.8,89.4,48.521,89.4,51.552Z" transform="translate(-72.507 -22.119)" fill="#233862"/>
          <path id="Trazado_720399" data-name="Trazado 720399" d="M70.738,46.4a9.1,9.1,0,0,0-1.088,1.477,7.264,7.264,0,0,0-.155,1.866c.078.389.777-1.011,1.011-1.166s-.155.544-.078.622.544-.389.777-.544c.155-.155.155-1.088.389-1.632C71.671,46.555,70.738,46.4,70.738,46.4Z" transform="translate(-69.473 -22.253)" fill="#ffb27d"/>
          <path id="Trazado_720400" data-name="Trazado 720400" d="M70.594,78.689s-.855.777-.7,1.4c.155.544.933.933,1.088,1.632a1.1,1.1,0,0,0,.933,1.088h1.866s.311-.466-.389-.622A1.578,1.578,0,0,1,72.382,80.4a8.6,8.6,0,0,0-.078-1.788L70.827,78.3Z" transform="translate(-69.562 -29.356)" fill="#233862"/>
          <path id="Trazado_720401" data-name="Trazado 720401" d="M85.547,47.343s-5.752,12.36-8.862,17.8-4.042,6.918-4.042,6.918-1.788-.7-1.943-1.166c0,0,1.166-10.494,3.265-13.059a17.95,17.95,0,0,0,2.565-7.307,28.872,28.872,0,0,1,1.4-5.131Z" transform="translate(-69.746 -22.03)" fill="#2a4e96"/>
          <path id="Trazado_720402" data-name="Trazado 720402" d="M89.052,43.477a9.943,9.943,0,0,1-5.519,1.4c-1.4-.078-4.275-.466-4.742-1.632a2.009,2.009,0,0,1,.155-1.088,23.645,23.645,0,0,0,1.088-9.639V31.039a5.674,5.674,0,0,1,3.5-4.975c3.809-1.321,5.053.544,5.053.544a5.983,5.983,0,0,1,1.943,4.12C91,36.17,89.052,43.477,89.052,43.477Z" transform="translate(-71.541 -17.62)" fill="#f99746"/>
          <path id="Trazado_720403" data-name="Trazado 720403" d="M86.3,24.7a5.845,5.845,0,0,0,3.654.777s.389-.078.155-.544c.078-.389.078-.311.155-.622l.233-.933-1.088-1.088L88.4,21.2A4.56,4.56,0,0,1,86.3,24.7Z" transform="translate(-73.219 -16.642)" fill="#ffb27d"/>
          <path id="Trazado_720404" data-name="Trazado 720404" d="M88.8,22.5a4.016,4.016,0,0,0,2.021,2.177l.311-1.244-1.166-.855Z" transform="translate(-73.776 -16.932)" fill="#ed985f"/>
          <path id="Trazado_720405" data-name="Trazado 720405" d="M92.1,22.434s-3.343.389-3.576-1.632-.855-3.343,1.321-3.731c2.1-.389,2.643.389,2.876,1.011C92.955,18.78,92.955,22.278,92.1,22.434Z" transform="translate(-73.656 -15.699)" fill="#ffb27d"/>
          <path id="Trazado_720406" data-name="Trazado 720406" d="M87.233,16.4A.34.34,0,0,0,87,16.319a.8.8,0,0,1,.311-.078c.078-.233.155-.622.544-.7a.347.347,0,0,0-.233.311c.466-.389,1.4-.7,3.887-.389,3.265.389,2.1,2.488,1.71,2.721-.466.233-1.477-.466-2.332-.466-.777,0-1.011,1.166-1.244,1.321-.311.155-.155-.155-.544-.311s-.389.466-.311.855-.466.933-.466.933l-.466-.544a6.089,6.089,0,0,1-.622-3.42Z" transform="translate(-73.375 -15.337)" fill="#2c3a64"/>
          <g id="Grupo_1017845" data-name="Grupo 1017845" transform="translate(18.133 1.682)">
            <path id="Trazado_720407" data-name="Trazado 720407" d="M98.775,20.544l-5.675.078v-.855l5.6-.466Z" transform="translate(-92.867 -17.901)" fill="#2a4e96"/>
            <path id="Trazado_720408" data-name="Trazado 720408" d="M104.019,20.543l-6.141.078L97.8,19.066l6.141-.466Z" transform="translate(-93.913 -17.745)" fill="#2a4e96"/>
            <path id="Trazado_720409" data-name="Trazado 720409" d="M109.686,20.488h-5.208l-.078-2.021L109.531,18Z" transform="translate(-95.383 -17.611)" fill="#233862"/>
            <path id="Trazado_720410" data-name="Trazado 720410" d="M111.066,20.765h0a.334.334,0,0,0,.311-.311l-.155-2.643a.334.334,0,0,0-.311-.311h0a.334.334,0,0,0-.311.311l.155,2.643C110.833,20.609,110.911,20.765,111.066,20.765Z" transform="translate(-96.763 -17.5)" fill="#233862"/>
            <path id="Trazado_720411" data-name="Trazado 720411" d="M93.033,20.866h0a.206.206,0,0,1-.233-.233v-.7a.206.206,0,0,1,.233-.233h0a.206.206,0,0,1,.233.233v.7A.248.248,0,0,1,93.033,20.866Z" transform="translate(-92.8 -17.99)" fill="#2a4e96"/>
          </g>
          <path id="Trazado_720412" data-name="Trazado 720412" d="M78.9,43.715a23.645,23.645,0,0,0,1.088-9.639V32.6h0c1.244-.078,3.187,1.244,3.187,1.244S82.009,40.994,78.9,43.715Z" transform="translate(-71.572 -19.179)" fill="#ed7d2b"/>
          <path id="Trazado_720413" data-name="Trazado 720413" d="M82.782,25.7a9.321,9.321,0,0,0-4.9,2.565c-1.632,2.021-4.353,4.9-4.975,5.908s-2.41,7.851-2.41,7.851.078.233.622.311a.878.878,0,0,0,.777-.078s2.332-3.964,3.187-5.986c.389-.855,6.685-4.12,9.017-3.809C85.114,32.774,82.782,25.7,82.782,25.7Z" transform="translate(-69.701 -17.644)" fill="#f99746"/>
          <path id="Trazado_720414" data-name="Trazado 720414" d="M100.3,18.934s.7.389,1.088.233.389-.311.389-.311S100.533,18.468,100.3,18.934Z" transform="translate(-76.336 -16.087)" fill="#ffb27d"/>
          <path id="Trazado_720415" data-name="Trazado 720415" d="M86.738,28.555A15.032,15.032,0,0,1,75.388,39.983L74.3,42.159l1.943.311S87.593,39.205,87.437,28.4Z" transform="translate(-70.548 -18.245)" fill="#bc3f3f"/>
          <path id="Trazado_720416" data-name="Trazado 720416" d="M89.866,26.8l-.466.078V27.5l.7.7.622-.155v-.933l-.466-.311Z" transform="translate(-73.91 -17.889)" fill="#a02e2e"/>
          <path id="Trazado_720417" data-name="Trazado 720417" d="M87.277,24.5a3.856,3.856,0,0,0-1.477.933,4.39,4.39,0,0,0,3.109,2.41,7.536,7.536,0,0,1,.155-1.555S87.355,25.666,87.277,24.5Z" transform="translate(-73.108 -17.377)" fill="#ed7d2b"/>
          <path id="Trazado_720418" data-name="Trazado 720418" d="M90,26.622s1.011.544,1.088,1.4a1.981,1.981,0,0,0,.311-1.088A2.364,2.364,0,0,0,90.933,26S90.933,26.544,90,26.622Z" transform="translate(-74.043 -17.711)" fill="#ed7d2b"/>
        </g>
      </g>
    </g>
  </g>
</svg>
