<svg xmlns="http://www.w3.org/2000/svg" xmlns:xlink="http://www.w3.org/1999/xlink" width="124" height="124" viewBox="0 0 124 124">
  <defs>
    <linearGradient id="linear-gradient" x1="-0.538" y1="-0.982" x2="1.171" y2="1.492" gradientUnits="objectBoundingBox">
      <stop offset="0" stop-color="#ffc444"/>
      <stop offset="0.996" stop-color="#f36f56"/>
    </linearGradient>
    <linearGradient id="linear-gradient-2" x1="0.144" y1="0.004" x2="1.852" y2="2.479" xlink:href="#linear-gradient"/>
    <linearGradient id="linear-gradient-3" x1="0.168" y1="-0.519" x2="0.902" y2="1.657" xlink:href="#linear-gradient"/>
    <linearGradient id="linear-gradient-4" x1="0.243" y1="0.001" x2="0.685" y2="1.487" gradientUnits="objectBoundingBox">
      <stop offset="0" stop-color="#aa80f9"/>
      <stop offset="0.996" stop-color="#6165d7"/>
    </linearGradient>
    <linearGradient id="linear-gradient-5" x1="0.525" y1="3.978" x2="0.482" y2="-1.365" xlink:href="#linear-gradient-4"/>
    <linearGradient id="linear-gradient-6" x1="1.522" y1="0.577" x2="-0.194" y2="0.422" gradientUnits="objectBoundingBox">
      <stop offset="0" stop-color="#ff9085"/>
      <stop offset="1" stop-color="#fb6fbb"/>
    </linearGradient>
    <linearGradient id="linear-gradient-7" x1="1.524" y1="0.575" x2="-0.198" y2="0.428" xlink:href="#linear-gradient-6"/>
    <linearGradient id="linear-gradient-8" x1="0.589" y1="-1.51" x2="0.777" y2="-5.724" xlink:href="#linear-gradient-6"/>
    <linearGradient id="linear-gradient-9" x1="-0.225" y1="-3.694" x2="0.707" y2="1.7" xlink:href="#linear-gradient-6"/>
    <linearGradient id="linear-gradient-10" x1="-0.35" y1="-2.146" x2="0.91" y2="1.169" gradientUnits="objectBoundingBox">
      <stop offset="0" stop-color="#311944"/>
      <stop offset="1" stop-color="#a03976"/>
    </linearGradient>
    <linearGradient id="linear-gradient-11" x1="-0.665" y1="-0.607" x2="0.752" y2="0.747" xlink:href="#linear-gradient-10"/>
    <linearGradient id="linear-gradient-13" x1="-0.289" y1="-2.713" x2="0.917" y2="1.204" xlink:href="#linear-gradient-10"/>
    <linearGradient id="linear-gradient-14" x1="0.421" y1="0.95" x2="0.691" y2="-0.004" xlink:href="#linear-gradient-4"/>
    <linearGradient id="linear-gradient-15" x1="-6.575" y1="5.328" x2="-5.524" y2="6.777" gradientUnits="objectBoundingBox">
      <stop offset="0" stop-color="#444b8c"/>
      <stop offset="0.996" stop-color="#26264f"/>
    </linearGradient>
    <linearGradient id="linear-gradient-16" x1="-30.008" y1="4.033" x2="-30.008" y2="2.682" xlink:href="#linear-gradient"/>
    <linearGradient id="linear-gradient-17" x1="-8.83" y1="6.114" x2="-7.497" y2="7.903" xlink:href="#linear-gradient-15"/>
    <linearGradient id="linear-gradient-18" x1="-0.232" y1="-0.514" x2="0.863" y2="0.793" xlink:href="#linear-gradient-15"/>
    <linearGradient id="linear-gradient-19" x1="-14.067" y1="-14.388" x2="-13.106" y2="-13.789" xlink:href="#linear-gradient"/>
    <linearGradient id="linear-gradient-20" x1="-28.181" y1="1.222" x2="-28.181" y2="-0.194" xlink:href="#linear-gradient"/>
    <linearGradient id="linear-gradient-21" x1="-19.556" y1="1.09" x2="-20.213" y2="-0.252" xlink:href="#linear-gradient-15"/>
    <linearGradient id="linear-gradient-22" x1="-0.217" y1="0.072" x2="1.256" y2="0.961" xlink:href="#linear-gradient-4"/>
    <linearGradient id="linear-gradient-23" x1="-0.781" y1="-1.298" x2="0.579" y2="0.479" xlink:href="#linear-gradient-15"/>
    <linearGradient id="linear-gradient-24" x1="0.421" y1="0.29" x2="1.456" y2="1.505" xlink:href="#linear-gradient-4"/>
    <linearGradient id="linear-gradient-25" x1="-0.134" y1="-0.002" x2="1.214" y2="1.837" xlink:href="#linear-gradient"/>
    <linearGradient id="linear-gradient-26" x1="-3.539" y1="-2.784" x2="12.466" y2="10.461" xlink:href="#linear-gradient"/>
  </defs>
  <g id="Grupo_1016929" data-name="Grupo 1016929" transform="translate(-737.001 -2058)">
    <g id="Grupo_159183" data-name="Grupo 159183" transform="translate(737.001 2058)">
      <path id="Unión_12" data-name="Unión 12" d="M62,0A62,62,0,1,1,0,62,62,62,0,0,1,62,0Z" fill="#01d8d1"/>
    </g>
    <g id="svg11" transform="translate(780.603 1765.842)">
      <g id="Illustration" transform="translate(-25.603 307.954)">
        <g id="Grupo_1017732" data-name="Grupo 1017732">
          <path id="Trazado_719742" data-name="Trazado 719742" d="M386.76,686.028c21.306,29.736,86.871,3.84,86.842-4.156-.012-3.264-10.95-2.7-14.385-10.509-5.5-12.5,17.212-26.138,13.941-38.345-4.144-15.465-50.644-31.052-76.605-7.147C379.868,641.235,375.1,669.752,386.76,686.028Z" transform="translate(-380.334 -603.845)" fill="#f4f7fa"/>
          <g id="Grupo_1017723" data-name="Grupo 1017723" transform="translate(9.094)">
            <path id="Trazado_719743" data-name="Trazado 719743" d="M692.638,482.858a1.7,1.7,0,0,1-1.54,1.721l-54.094,2.81a1.683,1.683,0,0,1-1.8-1.685V405.449a1.665,1.665,0,0,1,1.8-1.669l.725-.039L691.1,407.08a1.715,1.715,0,0,1,1.54,1.735Z" transform="translate(-635.205 -401.523)" fill="url(#linear-gradient)"/>
            <path id="Trazado_719744" data-name="Trazado 719744" d="M722.509,482.769a1.7,1.7,0,0,1-1.539,1.721l-54.094,2.81a1.683,1.683,0,0,1-1.8-1.685V405.36a1.665,1.665,0,0,1,1.8-1.669l54.094,3.3a1.715,1.715,0,0,1,1.539,1.735Z" transform="translate(-664.01 -401.472)" fill="url(#linear-gradient-2)"/>
            <path id="Trazado_719745" data-name="Trazado 719745" d="M1082.021,446.793c-1.345,1.729-1.537,4.994.768,6.338,4.994,3.073,11.524,2.113,16.326-1.152,3.534-2.474,2.029-7.061,1.018-10.77l-10.639-.649C1088.579,443.119,1083.707,444.545,1082.021,446.793Z" transform="translate(-1065.122 -437.029)" fill="url(#linear-gradient-3)"/>
            <path id="Trazado_719746" data-name="Trazado 719746" d="M800.136,695.977a1.494,1.494,0,0,1-1.368,1.517l-48.98,2.292a1.484,1.484,0,0,1-1.576-1.489V629.6a1.478,1.478,0,0,1,1.576-1.483l48.98,2.468a1.5,1.5,0,0,1,1.368,1.522Z" transform="translate(-744.181 -617.891)" fill="#fff"/>
            <path id="Trazado_719747" data-name="Trazado 719747" d="M1166.1,352.09a.871.871,0,0,0-.818-.741l-2.578-.138a2.079,2.079,0,0,1-1.952-2.255l.128-2.828a.9.9,0,0,0-.839-.973l-.832-.052a1.061,1.061,0,0,1-.966-1.266,1.891,1.891,0,0,0-1.718-2.25,2.328,2.328,0,0,0-2.371,1.989,1.355,1.355,0,0,1-.469.829,1.254,1.254,0,0,1-.877.3l-.849-.053a1.145,1.145,0,0,0-1.143.863l-.738,2.834a2.712,2.712,0,0,1-2.688,2.038l-2.712-.146a1.176,1.176,0,0,0-1.089.661l-1.946,3.906.167.214,24.966.971Zm-9.943-8.071a.554.554,0,0,1-.506-.66.682.682,0,0,1,.694-.583.555.555,0,0,1,.5.66A.682.682,0,0,1,1156.155,344.019Z" transform="translate(-1123.572 -341.582)" fill="#6165d7"/>
            <path id="Trazado_719748" data-name="Trazado 719748" d="M1170.789,358.082a.871.871,0,0,0-.818-.741l-2.578-.138a2.079,2.079,0,0,1-1.952-2.255l.128-2.828a.9.9,0,0,0-.839-.973l-.832-.052a1.061,1.061,0,0,1-.966-1.266,1.891,1.891,0,0,0-1.717-2.25,2.328,2.328,0,0,0-2.371,1.989,1.357,1.357,0,0,1-.469.829,1.253,1.253,0,0,1-.877.3l-.849-.053a1.145,1.145,0,0,0-1.143.863l-.738,2.834a2.712,2.712,0,0,1-2.687,2.038l-2.712-.146a1.176,1.176,0,0,0-1.089.661l-1.946,3.906,25.134,1.185Zm-9.943-8.071a.554.554,0,0,1-.506-.66.682.682,0,0,1,.694-.583.554.554,0,0,1,.5.66A.682.682,0,0,1,1160.846,350.011Z" transform="translate(-1128.095 -347.361)" fill="url(#linear-gradient-4)"/>
            <g id="Grupo_1017722" data-name="Grupo 1017722" transform="translate(9.009 17.734)">
              <path id="Trazado_719749" data-name="Trazado 719749" d="M1190.541,844.187l-23.191-.937v-4.628l23.191,1.138Z" transform="translate(-1157.373 -838.622)" fill="#d8dee8"/>
              <g id="Grupo_1017718" data-name="Grupo 1017718" transform="translate(23.747 11.924)">
                <path id="Trazado_719750" data-name="Trazado 719750" d="M1572.96,1177.462a.279.279,0,0,1-.256.3l-19.15-.429a.31.31,0,0,1-.276-.328v-3.864a.291.291,0,0,1,.276-.313l19.15.594a.3.3,0,0,1,.256.318Z" transform="translate(-1553.278 -1172.832)" fill="#d8dee8"/>
                <path id="Trazado_719751" data-name="Trazado 719751" d="M1572.96,1377.489a.282.282,0,0,1-.256.306l-19.15-.265a.307.307,0,0,1-.276-.326v-1.073a.3.3,0,0,1,.276-.317l19.15.328a.293.293,0,0,1,.256.314Z" transform="translate(-1553.278 -1368.572)" fill="#d8dee8"/>
                <path id="Trazado_719752" data-name="Trazado 719752" d="M1572.96,1491.611a.285.285,0,0,1-.256.308l-19.15-.115a.3.3,0,0,1-.276-.324v-1.074a.3.3,0,0,1,.276-.319l19.15.178a.29.29,0,0,1,.256.312Z" transform="translate(-1553.278 -1478.769)" fill="#d8dee8"/>
                <path id="Trazado_719753" data-name="Trazado 719753" d="M1572.96,1605.732a.287.287,0,0,1-.256.31l-19.15.036a.3.3,0,0,1-.276-.322v-1.073a.3.3,0,0,1,.276-.322l19.15.028a.287.287,0,0,1,.256.31Z" transform="translate(-1553.278 -1588.964)" fill="#d8dee8"/>
                <path id="Trazado_719754" data-name="Trazado 719754" d="M1572.96,1716.532a.29.29,0,0,1-.256.312l-19.15.186a.3.3,0,0,1-.276-.319v-1.073a.3.3,0,0,1,.276-.324l19.15-.123a.285.285,0,0,1,.256.308Z" transform="translate(-1553.278 -1695.84)" fill="#d8dee8"/>
              </g>
              <g id="Grupo_1017719" data-name="Grupo 1017719" transform="translate(0 11.072)">
                <path id="Trazado_719755" data-name="Trazado 719755" d="M904.856,1171.218l-16.049.161a1.148,1.148,0,0,1-1.092-1.21v-20.036a1.119,1.119,0,0,1,1.092-1.187l16.049.5a1.153,1.153,0,0,1,1.024,1.212v19.367A1.123,1.123,0,0,1,904.856,1171.218Z" transform="translate(-887.715 -1148.946)" fill="#d8dee8"/>
                <path id="Trazado_719756" data-name="Trazado 719756" d="M888.77,1149.49h.021l16.049.5a.644.644,0,0,1,.566.679v19.372a.609.609,0,0,1-.547.646l-16.048.156a.643.643,0,0,1-.612-.677v-20.031A.607.607,0,0,1,888.77,1149.49Zm0-.541a1.124,1.124,0,0,0-1.055,1.187v20.036a1.148,1.148,0,0,0,1.092,1.21l16.049-.161h.006a1.125,1.125,0,0,0,1.018-1.19v-19.367a1.153,1.153,0,0,0-1.024-1.212l-16.049-.5Z" transform="translate(-887.715 -1148.95)" fill="#d8dee8"/>
              </g>
              <g id="Grupo_1017720" data-name="Grupo 1017720" transform="translate(0.258 41.542)">
                <path id="Trazado_719757" data-name="Trazado 719757" d="M905.346,2004.713l-10.266.217a.129.129,0,0,1-.124-.136v-1.525a.135.135,0,0,1,.124-.141l10.266-.183a.126.126,0,0,1,.12.134v1.5A.132.132,0,0,1,905.346,2004.713Z" transform="translate(-894.956 -2002.944)" fill="#d8dee8"/>
                <path id="Trazado_719758" data-name="Trazado 719758" d="M912.542,2101.318l-17.454.488a.128.128,0,0,1-.124-.135v-1.525a.136.136,0,0,1,.124-.142l17.454-.43a.123.123,0,0,1,.117.131v1.476A.131.131,0,0,1,912.542,2101.318Z" transform="translate(-894.963 -2096.126)" fill="#d8dee8"/>
                <path id="Trazado_719759" data-name="Trazado 719759" d="M912.542,2201.538l-17.454.606a.127.127,0,0,1-.124-.134v-1.525a.138.138,0,0,1,.124-.143l17.454-.549a.122.122,0,0,1,.117.131v1.476A.133.133,0,0,1,912.542,2201.538Z" transform="translate(-894.963 -2192.769)" fill="#d8dee8"/>
                <path id="Trazado_719760" data-name="Trazado 719760" d="M912.542,2301.756l-17.454.725a.126.126,0,0,1-.124-.134v-1.525a.138.138,0,0,1,.124-.144l17.454-.667a.121.121,0,0,1,.117.13v1.476A.134.134,0,0,1,912.542,2301.756Z" transform="translate(-894.963 -2289.412)" fill="#d8dee8"/>
              </g>
              <g id="Grupo_1017721" data-name="Grupo 1017721" transform="translate(23.747 41.042)">
                <path id="Trazado_719761" data-name="Trazado 719761" d="M1568.21,1990.6l-14.817.314a.121.121,0,0,1-.114-.131v-1.459a.127.127,0,0,1,.114-.135l14.817-.264a.117.117,0,0,1,.107.127v1.417A.122.122,0,0,1,1568.21,1990.6Z" transform="translate(-1553.279 -1988.92)" fill="#d8dee8"/>
                <path id="Trazado_719762" data-name="Trazado 719762" d="M1572.6,2083.8l-19.207.537a.12.12,0,0,1-.114-.13v-1.459a.128.128,0,0,1,.114-.136l19.207-.473a.115.115,0,0,1,.106.125v1.405A.122.122,0,0,1,1572.6,2083.8Z" transform="translate(-1553.276 -2078.811)" fill="#d8dee8"/>
                <path id="Trazado_719763" data-name="Trazado 719763" d="M1572.6,2179.218l-19.207.667a.119.119,0,0,1-.114-.129v-1.46a.129.129,0,0,1,.114-.136l19.207-.6a.114.114,0,0,1,.106.125v1.405A.123.123,0,0,1,1572.6,2179.218Z" transform="translate(-1553.276 -2170.826)" fill="#d8dee8"/>
                <path id="Trazado_719764" data-name="Trazado 719764" d="M1572.6,2274.637l-19.207.8a.118.118,0,0,1-.114-.128v-1.459a.131.131,0,0,1,.114-.137l19.207-.734a.113.113,0,0,1,.106.124v1.4A.124.124,0,0,1,1572.6,2274.637Z" transform="translate(-1553.276 -2262.841)" fill="#d8dee8"/>
              </g>
            </g>
            <path id="Trazado_719765" data-name="Trazado 719765" d="M1169.97,586.9l-2.578-.138a2.017,2.017,0,0,1-1.724-1.135c-2.388.5-4.905-.022-7.422.481-1.729.384-1.537,3.073-3.457,3.265a65.334,65.334,0,0,1-8.178.425l-.281.563,25.134,1.185-.676-3.9A.871.871,0,0,0,1169.97,586.9Z" transform="translate(-1128.095 -576.92)" fill="url(#linear-gradient-5)"/>
          </g>
          <g id="Grupo_1017724" data-name="Grupo 1017724" transform="translate(7.994 42.111)">
            <path id="Trazado_719766" data-name="Trazado 719766" d="M854.549,2817.68h-1.966s-2.348,7.172-3.4,8.229,1.433,4.227,26.075,3.962c16.805-.352,21.472-2.025,21.824-3.786s-1.891-3.786-1.87-4.843-2.927-3.562-2.927-3.562Z" transform="translate(-848.982 -2779.254)" fill="url(#linear-gradient-6)"/>
            <path id="Trazado_719767" data-name="Trazado 719767" d="M969,2821.246c.021-1.056-2.927-3.562-2.927-3.562h-39.7s-.364,1.111-.87,2.524a8.2,8.2,0,0,0,5.113,1.387c2.759.125,5.393-1.129,7.9-.251,4.515,1.506,8.905,3.763,13.8,2.509,3.01-.753,5.9-2.007,9.031-1.882,1.881,0,3.888,2.007,2.509,3.637-3.888,4.139-10.034,1.631-15.3,2.634-3.136.627-6.02.376-9.031.376-.376,0-.878.376-1.254.376a38.316,38.316,0,0,1-5.6.371,159.182,159.182,0,0,0,16.378.508c16.805-.352,21.472-2.025,21.824-3.786S968.981,2822.3,969,2821.246Z" transform="translate(-922.778 -2779.258)" opacity="0.3" fill="url(#linear-gradient-7)"/>
            <ellipse id="Elipse_5896" data-name="Elipse 5896" cx="19.849" cy="1.889" rx="19.849" ry="1.889" transform="translate(3.6 36.537)" fill="url(#linear-gradient-8)"/>
            <ellipse id="Elipse_5897" data-name="Elipse 5897" cx="13.194" cy="1.229" rx="13.194" ry="1.229" transform="translate(10.255 36.537)" opacity="0.3" fill="url(#linear-gradient-9)"/>
            <path id="Trazado_719768" data-name="Trazado 719768" d="M1755.11,2253.99s36.743,4.542,44.531,4.307,6.1,7.791,1.153,7.778-45.286-7.606-45.286-7.606Z" transform="translate(-1722.78 -2235.676)" fill="url(#linear-gradient-10)"/>
            <path id="Trazado_719769" data-name="Trazado 719769" d="M1226.7,1740.719a6.8,6.8,0,0,0-2.575,2.576c-1.275,2.36.007,3.876-1.057,6.736-.942,2.532-2.215,2.062-2.936,4.5-.789,2.667.627,3.588-.435,5.875-.8,1.721-1.907,1.861-2.136,3.544a20.665,20.665,0,0,0,.291,3.051c.241,2.252.259,2.593,0,3.018-.421.692-1.049.744-1.554,1.748a3.216,3.216,0,0,0-.34,1.068c-.089,1.679,4.651,3.634,9.091,4.6,1.936.421,7.878,1.7,8.993-.29.206-.368.134-.909.054-1.89-.126-1.549-.512-1.806-.452-2.576.108-1.378,1.419-1.547,2.317-3.1.935-1.614.027-2.318.534-4.855.6-2.979,2.008-2.8,2.622-5.729.547-2.606-.491-3.136.348-5.217.727-1.8,1.739-1.982,2.356-3.674a7.006,7.006,0,0,0-.13-4.633,22.2,22.2,0,0,0-14.991-4.755Z" transform="translate(-1202.866 -1740.686)" fill="url(#linear-gradient-11)"/>
            <path id="Trazado_719770" data-name="Trazado 719770" d="M1241.694,1745.471a22.2,22.2,0,0,0-14.99-4.755,7.059,7.059,0,0,0-2.217,2,13.077,13.077,0,0,1,9.1.939c.5.269,4.5,2.41,4.3,4.918-.131,1.615-1.859,1.59-2.839,3.822-1.16,2.64.717,3.906-.292,6.991-.774,2.368-2.058,2.168-2.622,4.564-.553,2.349.593,2.916-.1,4.952a7.323,7.323,0,0,1-3.884,3.981,8.27,8.27,0,0,1-3.265.607,13.191,13.191,0,0,1-7.757-2.728,2.865,2.865,0,0,0-.825,1,3.21,3.21,0,0,0-.34,1.068c-.09,1.679,4.651,3.634,9.091,4.6,1.936.421,7.878,1.7,8.993-.29.206-.368.135-.909.054-1.889-.126-1.548-.513-1.806-.452-2.577.108-1.377,1.42-1.547,2.317-3.1.935-1.614.027-2.319.534-4.855.6-2.979,2.008-2.8,2.622-5.729.547-2.606-.491-3.136.347-5.217.727-1.8,1.739-1.983,2.356-3.675A7.006,7.006,0,0,0,1241.694,1745.471Z" transform="translate(-1202.867 -1740.684)" opacity="0.3" fill="url(#linear-gradient-11)"/>
            <path id="Trazado_719771" data-name="Trazado 719771" d="M1947.4,2349.186a5.164,5.164,0,0,1-.265.462c-2.566,4.177-7.844,3.7-12.171,3.578-5.792-.026-11.07-2.406-16.623-4.238a12.825,12.825,0,0,0-11.477,1.246c10.967,2.03,36.409,6.662,40.269,6.671C1951.752,2356.917,1953.532,2349.918,1947.4,2349.186Z" transform="translate(-1869.121 -2326.506)" opacity="0.3" fill="url(#linear-gradient-13)"/>
          </g>
          <g id="Grupo_1017731" data-name="Grupo 1017731" transform="translate(49.239 25.389)">
            <path id="Trazado_719772" data-name="Trazado 719772" d="M2005.3,1378.542a.424.424,0,0,0-.261.2.414.414,0,0,0-.033.326l2.426,7.6a.427.427,0,0,0,.525.277l5.633-1.618a.418.418,0,0,0,.29-.517l-2.184-7.566a.426.426,0,0,0-.521-.29Z" transform="translate(-2004.984 -1373.201)" fill="#26264f"/>
            <path id="Trazado_719773" data-name="Trazado 719773" d="M2018.773,1393.57a.379.379,0,0,0-.233.181.368.368,0,0,0-.029.291l2.163,6.78a.38.38,0,0,0,.468.246l5.023-1.443a.373.373,0,0,0,.259-.461l-1.948-6.747a.38.38,0,0,0-.465-.258Z" transform="translate(-2018.012 -1387.86)" fill="#fff"/>
            <path id="Trazado_719774" data-name="Trazado 719774" d="M2674.212,1531.01c.312.118,5.072,2.011,6.05,6.978.079.4.844,4.669-2.051,7.684-3.246,3.381-9.495,3.3-11.976.471a5.069,5.069,0,0,1-1.055-2h0l.654-1.737a4.258,4.258,0,0,1,2.463-1.334c1.43-.352,2.509.285,3.328-.4a2.154,2.154,0,0,0,.623-1.421c.274-1.67-.669-2.7-.737-3.729-.051-.77-.321-2.457.684-3.558A3.246,3.246,0,0,1,2674.212,1531.01Z" transform="translate(-2641.625 -1521.769)" fill="url(#linear-gradient-14)"/>
            <path id="Trazado_719775" data-name="Trazado 719775" d="M2970.228,3072.411c.055-.306,1.043-.582,1.532-.173.243.2.41.615.27.8-.051.068.158.187-.042.189C2971.322,3073.238,2970.172,3072.716,2970.228,3072.411Z" transform="translate(-2935.787 -3007.809)" fill="url(#linear-gradient-15)"/>
            <path id="Trazado_719776" data-name="Trazado 719776" d="M2987.184,3017.824l1.016-.144a5.014,5.014,0,0,1-.384-2.371l-1.08.241s.123.5.332,1.226A4.794,4.794,0,0,1,2987.184,3017.824Z" transform="translate(-2951.708 -2953.11)" fill="url(#linear-gradient-16)"/>
            <path id="Trazado_719777" data-name="Trazado 719777" d="M2996.287,3078.549s1.223-.282,1.355-.039.235.892-.541.871S2996.218,3078.755,2996.287,3078.549Z" transform="translate(-2960.901 -3013.96)" fill="url(#linear-gradient-17)"/>
            <path id="Trazado_719778" data-name="Trazado 719778" d="M2579.511,3107.56c.1-.295,1.114-.43,1.541.043.212.236.32.667.155.832-.06.059.131.207-.068.181C2580.479,3108.531,2579.414,3107.854,2579.511,3107.56Z" transform="translate(-2559.007 -3041.811)" fill="url(#linear-gradient-18)"/>
            <path id="Trazado_719779" data-name="Trazado 719779" d="M2040.17,1581.754l-.928-.445a2.05,2.05,0,0,1-.532-.633,2.423,2.423,0,0,1-.267-1.075s-.042-.751.276-.879a.27.27,0,0,1,.146-.013l.33.87s.053.378.649.771a3.684,3.684,0,0,1,.83.986Z" transform="translate(-2037.247 -1567.761)" fill="url(#linear-gradient-19)"/>
            <path id="Trazado_719780" data-name="Trazado 719780" d="M2604.582,3057.055h1.026a5.013,5.013,0,0,1-.048-2.4l-1.1.088s.053.508.158,1.26A4.813,4.813,0,0,1,2604.582,3057.055Z" transform="translate(-2583.068 -2991.05)" fill="url(#linear-gradient-20)"/>
            <path id="Trazado_719781" data-name="Trazado 719781" d="M2481.366,2012.233a47.494,47.494,0,0,0-1.591,7.279c-1.246,9.063,1.4,9.352.908,19.4-.157,3.206,2.777,10.6,3.036,10.762a3.216,3.216,0,0,0,.406.016,4.054,4.054,0,0,0,1.034-.172c.465-.08,2.141-4.62,1.753-7.32a46.863,46.863,0,0,1-.036-8.062c.026-.664,1.726-12.929,1.726-12.929h0c.517,4.54,1.112,8.4,1.628,11.387,1.656,9.608,7.043,15.423,7.324,15.516a1.139,1.139,0,0,0,.974-.066.671.671,0,0,0,.247-.278,78.975,78.975,0,0,0-1.685-16.726c-2.385-10.355-1.347-12.778-2.1-17.4C2494.333,2009.629,2481.366,2012.233,2481.366,2012.233Z" transform="translate(-2462.511 -1985.019)" fill="url(#linear-gradient-21)"/>
            <path id="Trazado_719782" data-name="Trazado 719782" d="M2512.875,1505.557c-1.583-.047-4.65-.563-6.655,1.24-.035.031-.2.209-.4.446a13.12,13.12,0,0,0-1.415,2.031,13.621,13.621,0,0,0-1.189,2.942,25.268,25.268,0,0,0-.939,5.133,27.449,27.449,0,0,0,.326,8.554,16.68,16.68,0,0,0,9.515,1.4,14.848,14.848,0,0,0,4.744-1.563c-1.14-3.453-.246-5.3.177-7,.6-2.428.612-2.245,1.107-4.174.817-3.183.952-6.436.39-7.1C2517.023,1505.664,2514.293,1505.6,2512.875,1505.557Z" transform="translate(-2484.387 -1497.124)" fill="url(#linear-gradient-22)"/>
            <path id="Trazado_719783" data-name="Trazado 719783" d="M2604.857,3117.528s1.25-.108,1.347.151.108.916-.658.787S2604.76,3117.722,2604.857,3117.528Z" transform="translate(-2583.415 -3051.66)" fill="url(#linear-gradient-23)"/>
            <path id="Trazado_719784" data-name="Trazado 719784" d="M2063.115,1518.619c-1.732-1.127-6.26,2.4-7.631,3.377-5.316,3.775-4.679,6.13-7.093,4.954-1.632-.795-1.854-3.191-4.644-4.092a5.967,5.967,0,0,0-1.191-.253s-.921.49-.926.491a2.078,2.078,0,0,0-.925.491,7.225,7.225,0,0,0-.638,2.027,10.427,10.427,0,0,0,.208,1.309c.1.466,1.331,5.561,5.591,7.13a7.545,7.545,0,0,0,1.761.411,10.194,10.194,0,0,0,4.838-.785c3.674-1.266,6.48-2.454,8.96-5.357a3.983,3.983,0,0,0,.309-.42C2063.58,1525.073,2064.787,1519.706,2063.115,1518.619Z" transform="translate(-2038.816 -1509.608)" fill="url(#linear-gradient-24)"/>
            <g id="Grupo_1017725" data-name="Grupo 1017725" transform="translate(23.054)">
              <path id="Trazado_719785" data-name="Trazado 719785" d="M2652.116,1357.569a2.751,2.751,0,0,1-.223-1.981c.206-.857.283-.987.442-1.168l.225-.238.029-.021a3.219,3.219,0,0,1,.866-.289c.4-.02,1.222,1.424,1.691,3.649.038.079.076.16.113.241.232.5.433,1,.6,1.486,2.722.23,3.1.549,3.111.734.026.388-1.525.837-2.691,1.008-2.543.372-5.158-.3-5.146-.773,0-.206.511-.476,2.667-.758q-.075-.535-.151-1.07A2.424,2.424,0,0,1,2652.116,1357.569Z" transform="translate(-2651.138 -1350.951)" fill="url(#linear-gradient-25)"/>
              <path id="Trazado_719786" data-name="Trazado 719786" d="M2661.884,1274.816a2.645,2.645,0,0,0,.892,1.393,1.169,1.169,0,0,1,.318.2.353.353,0,0,1,.06.07c.263.389-.284,1.074-.1,1.231.133.114.546-.2.633-.09s-.24.436-.146.556c.072.09.284-.066.475.051.095.058.089.126.232.343a2.24,2.24,0,0,0,.252.323c.342.337,1.046.305,1.131.111.023-.054-.017-.083-.02-.242a1.246,1.246,0,0,1,.051-.333,3.2,3.2,0,0,1,.636-.848,2.28,2.28,0,0,0,.585-1.181c.006-.051.007-.088.009-.115a2.615,2.615,0,0,0-.514-1.673c-.579-.658-1.335-.071-2.232-.636-1.035-.652-.873-1.965-1.343-1.979C2662.284,1271.982,2661.545,1273.559,2661.884,1274.816Z" transform="translate(-2661.418 -1271.998)" fill="#26264f"/>
              <path id="Trazado_719787" data-name="Trazado 719787" d="M2699.755,1421.9c.105-.274.456-.136.536.159a.559.559,0,0,1-.418.7C2699.579,1422.77,2699.613,1422.267,2699.755,1421.9Z" transform="translate(-2697.918 -1416.408)" fill="url(#linear-gradient-26)"/>
            </g>
            <path id="Trazado_719788" data-name="Trazado 719788" d="M2666.95,1410.99l-.252.606s-.252.727-.585.455c-.272-.223-.322-.2-.331-.188s0,.006,0,.006-.008-.145-.01-.273a2.335,2.335,0,0,0-.142.8,1.3,1.3,0,0,0,.263.97,1,1,0,0,0,.687.293,2.647,2.647,0,0,0,.728-.273,3.514,3.514,0,0,1-.828-.414c-.11-.3.275-.584.424-1.3A2.6,2.6,0,0,0,2666.95,1410.99Z" transform="translate(-2642.056 -1406.031)" fill="#26264f"/>
            <g id="Grupo_1017730" data-name="Grupo 1017730" transform="translate(1.694 5.209)">
              <path id="Trazado_719789" data-name="Trazado 719789" d="M2072.961,1418.505l-2.567.668-.164-.528,2.571-.655Z" transform="translate(-2069.596 -1417.99)" fill="#d8dee8"/>
              <g id="Grupo_1017726" data-name="Grupo 1017726" transform="translate(2.562 0.987)">
                <path id="Trazado_719790" data-name="Trazado 719790" d="M2126.615,1446.107a.033.033,0,0,1-.018.044l-2.159.582a.038.038,0,0,1-.042-.029l-.139-.446a.034.034,0,0,1,.019-.045l2.162-.571a.037.037,0,0,1,.041.029Z" transform="translate(-2124.256 -1445.642)" fill="#d8dee8"/>
                <path id="Trazado_719791" data-name="Trazado 719791" d="M2133.806,1468.733a.033.033,0,0,1-.018.044l-2.156.592a.037.037,0,0,1-.042-.029l-.039-.124a.035.035,0,0,1,.019-.046l2.157-.588a.036.036,0,0,1,.041.028Z" transform="translate(-2131.289 -1467.764)" fill="#d8dee8"/>
                <path id="Trazado_719792" data-name="Trazado 719792" d="M2137.9,1481.645a.033.033,0,0,1-.018.044l-2.153.6a.038.038,0,0,1-.042-.029l-.039-.124a.034.034,0,0,1,.019-.046l2.154-.6a.037.037,0,0,1,.041.028Z" transform="translate(-2135.24 -1480.215)" fill="#d8dee8"/>
                <path id="Trazado_719793" data-name="Trazado 719793" d="M2142,1494.567a.034.034,0,0,1-.018.045l-2.149.612a.036.036,0,0,1-.042-.028l-.039-.124a.035.035,0,0,1,.019-.046l2.151-.608a.036.036,0,0,1,.04.028Z" transform="translate(-2139.201 -1492.676)" fill="#d8dee8"/>
                <path id="Trazado_719794" data-name="Trazado 719794" d="M2146.107,1507.479a.034.034,0,0,1-.018.045l-2.146.621a.037.037,0,0,1-.042-.028l-.039-.124a.035.035,0,0,1,.019-.046l2.148-.617a.036.036,0,0,1,.04.028Z" transform="translate(-2143.161 -1505.128)" fill="#d8dee8"/>
              </g>
              <g id="Grupo_1017727" data-name="Grupo 1017727" transform="translate(0 1.74)">
                <path id="Trazado_719795" data-name="Trazado 719795" d="M2055.05,1469.268l-1.724.5a.137.137,0,0,1-.159-.1l-.705-2.266a.127.127,0,0,1,.073-.169l1.738-.459a.138.138,0,0,1,.155.106l.692,2.224A.128.128,0,0,1,2055.05,1469.268Z" transform="translate(-2052.454 -1466.767)" fill="#d8dee8"/>
                <path id="Trazado_719796" data-name="Trazado 719796" d="M2052.548,1467.289h0l1.737-.458a.078.078,0,0,1,.086.06l.692,2.224a.07.07,0,0,1-.037.091l-1.724.5a.077.077,0,0,1-.089-.058l-.705-2.266A.07.07,0,0,1,2052.548,1467.289Zm-.019-.061a.129.129,0,0,0-.07.168l.705,2.266a.138.138,0,0,0,.159.1l1.725-.5h0a.128.128,0,0,0,.069-.168l-.692-2.224a.138.138,0,0,0-.155-.106l-1.737.458Z" transform="translate(-2052.451 -1466.765)" fill="#d8dee8"/>
              </g>
              <g id="Grupo_1017728" data-name="Grupo 1017728" transform="translate(1.076 5.372)">
                <path id="Trazado_719797" data-name="Trazado 719797" d="M2083.784,1568.764l-1.095.321a.016.016,0,0,1-.018-.012l-.053-.172a.015.015,0,0,1,.008-.02l1.1-.319a.016.016,0,0,1,.018.012l.053.171A.015.015,0,0,1,2083.784,1568.764Z" transform="translate(-2082.616 -1568.561)" fill="#d8dee8"/>
                <path id="Trazado_719798" data-name="Trazado 719798" d="M2088.205,1573.924l-1.871.556a.016.016,0,0,1-.018-.012l-.053-.173a.015.015,0,0,1,.008-.02l1.873-.552a.016.016,0,0,1,.018.012l.052.169A.015.015,0,0,1,2088.205,1573.924Z" transform="translate(-2086.131 -1573.539)" fill="#d8dee8"/>
                <path id="Trazado_719799" data-name="Trazado 719799" d="M2091.847,1585.423l-1.869.563a.016.016,0,0,1-.018-.012l-.054-.172a.015.015,0,0,1,.008-.02l1.871-.56a.015.015,0,0,1,.017.011l.053.17A.014.014,0,0,1,2091.847,1585.423Z" transform="translate(-2089.646 -1584.627)" fill="#d8dee8"/>
                <path id="Trazado_719800" data-name="Trazado 719800" d="M2095.49,1596.933l-1.867.571a.015.015,0,0,1-.018-.012l-.054-.173a.015.015,0,0,1,.008-.02l1.868-.567a.015.015,0,0,1,.018.011l.053.169A.014.014,0,0,1,2095.49,1596.933Z" transform="translate(-2093.16 -1595.727)" fill="#d8dee8"/>
              </g>
              <g id="Grupo_1017729" data-name="Grupo 1017729" transform="translate(3.612 4.473)">
                <path id="Trazado_719801" data-name="Trazado 719801" d="M2155.41,1543.555l-1.652.484a.015.015,0,0,1-.017-.012l-.052-.168a.014.014,0,0,1,.008-.019l1.653-.481a.015.015,0,0,1,.017.012l.052.166A.015.015,0,0,1,2155.41,1543.555Z" transform="translate(-2153.687 -1543.358)" fill="#d8dee8"/>
                <path id="Trazado_719802" data-name="Trazado 719802" d="M2159.464,1550.691l-2.148.638a.015.015,0,0,1-.017-.012l-.053-.168a.015.015,0,0,1,.008-.019l2.149-.634a.014.014,0,0,1,.017.012l.052.165A.015.015,0,0,1,2159.464,1550.691Z" transform="translate(-2157.119 -1550.241)" fill="#d8dee8"/>
                <path id="Trazado_719803" data-name="Trazado 719803" d="M2163.016,1561.89l-2.145.647a.015.015,0,0,1-.017-.012l-.052-.168a.014.014,0,0,1,.008-.019l2.146-.643a.015.015,0,0,1,.017.011l.051.165A.014.014,0,0,1,2163.016,1561.89Z" transform="translate(-2160.546 -1561.041)" fill="#d8dee8"/>
                <path id="Trazado_719804" data-name="Trazado 719804" d="M2166.577,1573.089l-2.142.655a.015.015,0,0,1-.018-.011l-.052-.168a.014.014,0,0,1,.008-.019l2.143-.651a.015.015,0,0,1,.017.011l.051.165A.014.014,0,0,1,2166.577,1573.089Z" transform="translate(-2163.983 -1571.84)" fill="#d8dee8"/>
              </g>
            </g>
          </g>
        </g>
      </g>
    </g>
  </g>
</svg>
