<svg xmlns="http://www.w3.org/2000/svg" xmlns:xlink="http://www.w3.org/1999/xlink" width="169" height="169" viewBox="0 0 169 169">
  <defs>
    <radialGradient id="radial-gradient" cx="0.5" cy="0.5" r="3.36" gradientTransform="translate(-5.81 96.206) scale(0.149 0.149)" gradientUnits="objectBoundingBox">
      <stop offset="0.086" stop-color="#0f0d03"/>
      <stop offset="0.093" stop-color="#131107"/>
      <stop offset="0.175" stop-color="#3c352f"/>
      <stop offset="0.261" stop-color="#655e58"/>
      <stop offset="0.348" stop-color="#8f8782"/>
      <stop offset="0.438" stop-color="#b4aeab"/>
      <stop offset="0.53" stop-color="#d3cfce"/>
      <stop offset="0.626" stop-color="#ebe8e9"/>
      <stop offset="0.729" stop-color="#faf8f9"/>
      <stop offset="0.85" stop-color="#fffdfe"/>
    </radialGradient>
  </defs>
  <g id="Grupo_1079621" data-name="Grupo 1079621" transform="translate(-367 -2685.268)">
    <g id="Grupo_1017057" data-name="Grupo 1017057" transform="translate(-18.001 627.268)">
      <g id="Grupo_159182" data-name="Grupo 159182" transform="translate(385.001 2058)">
        <path id="Unión_12" data-name="Unión 12" d="M84.5,0A84.5,84.5,0,1,1,0,84.5,84.5,84.5,0,0,1,84.5,0Z" transform="translate(0 0)" fill="#e8f3f8"/>
      </g>
    </g>
    <g id="svg07" transform="translate(401.816 2694.881)">
      <ellipse id="Elipse_5891" data-name="Elipse 5891" cx="44.004" cy="6.548" rx="44.004" ry="6.548" transform="translate(5.176 119.072)" opacity="0.4" fill="url(#radial-gradient)"/>
      <g id="Grupo_1017459" data-name="Grupo 1017459" transform="translate(16.298 17.058)">
        <g id="Grupo_1017455" data-name="Grupo 1017455">
          <g id="Grupo_1017453" data-name="Grupo 1017453">
            <g id="Grupo_1017446" data-name="Grupo 1017446" transform="translate(13.473)">
              <path id="Trazado_719355" data-name="Trazado 719355" d="M90.9,43.223c1.658,9.431,15.813,15.405,15.813,15.405s9.485-9.77,7.764-19.55c-2.335-13.274-11.142-20.367-25.3-22.02C94.212,28.238,89.246,33.792,90.9,43.223Z" transform="translate(-89.185 -17.058)" fill="#538830"/>
              <path id="Trazado_719356" data-name="Trazado 719356" d="M97.618,71.028c1.842,2.927,6.1,6.7,9.982,5.556,1.121-.33,2.285-.693,2.544-1.99.634-3.164,1.264-6.272,2.088-9.4.779-2.958,1.731-6.175,1.429-9.26-.033-.337-.078-.668-.126-1a27.621,27.621,0,0,1,4.242,10.931c1.721,9.78-7.764,19.55-7.764,19.55S95.859,79.44,94.2,70.009a25.987,25.987,0,0,1-.22-6.985A40.978,40.978,0,0,0,97.618,71.028Z" transform="translate(-92.481 -43.844)" fill="#afb4b6"/>
              <path id="Trazado_719357" data-name="Trazado 719357" d="M104.786,22.555c-3.357.3-9.213-2.357-11.24-3.042a.646.646,0,0,0-.857.538c-.262,2.621,1.253,5.433.7,7.955a4.879,4.879,0,0,1-2.119,3.16,24.827,24.827,0,0,0-2.083-14.108C95.477,17.793,100.707,19.606,104.786,22.555Z" transform="translate(-89.186 -17.058)" fill="#fff" opacity="0.3"/>
              <g id="Grupo_1017445" data-name="Grupo 1017445" transform="translate(2.433 1.552)">
                <g id="Grupo_1017444" data-name="Grupo 1017444">
                  <path id="Trazado_719358" data-name="Trazado 719358" d="M112.079,72.3s.008-.208.023-.6c.008-.2.017-.436.028-.72s.008-.588.013-.94,0-.748,0-1.179-.013-.9-.031-1.4c-.028-1-.093-2.127-.186-3.358-.045-.615-.11-1.256-.17-1.919-.076-.662-.138-1.349-.233-2.052-.167-1.409-.4-2.888-.65-4.417-.271-1.526-.564-3.1-.922-4.692s-.742-3.2-1.184-4.8-.915-3.186-1.428-4.736-1.07-3.057-1.631-4.509c-.585-1.441-1.165-2.83-1.781-4.118-.6-1.3-1.226-2.492-1.82-3.588-.3-.545-.606-1.059-.888-1.553l-.848-1.375c-.555-.848-1.046-1.585-1.481-2.169-.418-.6-.782-1.041-1.021-1.35l-.369-.472.392.453c.254.3.64.723,1.088,1.3.465.564.993,1.278,1.592,2.1l.92,1.339c.307.482.639.984.969,1.518.652,1.073,1.343,2.247,2.011,3.522.685,1.267,1.339,2.639,2,4.065.638,1.436,1.284,2.929,1.872,4.473s1.163,3.122,1.68,4.719,1,3.207,1.439,4.8.819,3.18,1.171,4.718c.333,1.542.642,3.038.884,4.467.132.713.23,1.411.342,2.085.095.676.194,1.329.271,1.958.157,1.258.282,2.416.362,3.447.044.515.081,1,.1,1.446s.054.857.063,1.237l.035,1.007c0,.283.006.525.008.72l.007.6Z" transform="translate(-97.496 -22.358)" fill="#457228"/>
                </g>
              </g>
            </g>
            <g id="Grupo_1017449" data-name="Grupo 1017449" transform="translate(30.936 20.928)">
              <path id="Trazado_719359" data-name="Trazado 719359" d="M191.485,113.473c-6.275,7.22-21.47,5.046-21.47,5.046s-3.091-13.249,3.419-20.736c8.834-10.161,20.027-11.7,33-5.826C196.37,98.941,197.762,106.252,191.485,113.473Z" transform="translate(-163.295 -88.538)" fill="#538830"/>
              <path id="Trazado_719360" data-name="Trazado 719360" d="M188.034,117.588c-3.084,1.557-8.675,2.594-11.407-.383-.789-.86-1.6-1.771-1.154-3.014,1.087-3.035,2.148-6.021,3.052-9.121.857-2.935,1.7-6.179,3.545-8.665.2-.271.411-.532.624-.792a27.6,27.6,0,0,0-9.26,7.174c-6.51,7.487-3.419,20.736-3.419,20.736s15.194,2.174,21.47-5.046a26,26,0,0,0,3.785-5.867A40.888,40.888,0,0,1,188.034,117.588Z" transform="translate(-163.293 -93.541)" fill="#afb4b6"/>
              <path id="Trazado_719361" data-name="Trazado 719361" d="M240.88,88.645c2.719,1.985,9.1,2.725,11.19,3.184a.645.645,0,0,1,.456.9c-1.126,2.378-3.87,4.005-4.694,6.45a4.874,4.874,0,0,0,.187,3.8,24.8,24.8,0,0,1,9.047-11.005C251.3,89.361,245.891,88.22,240.88,88.645Z" transform="translate(-213.93 -88.552)" fill="#fff" opacity="0.3"/>
              <g id="Grupo_1017448" data-name="Grupo 1017448" transform="translate(0 3.496)">
                <g id="Grupo_1017447" data-name="Grupo 1017447">
                  <path id="Trazado_719362" data-name="Trazado 719362" d="M148.83,134.53l.312-.511.375-.614.542-.841c.2-.319.433-.654.683-1.024s.525-.766.825-1.184c.593-.842,1.29-1.769,2.066-2.766.387-.5.8-1.008,1.23-1.539s.879-1.068,1.356-1.611c.936-1.1,1.963-2.225,3.035-3.376s2.218-2.305,3.41-3.447,2.418-2.285,3.684-3.383,2.552-2.171,3.849-3.189,2.607-1.974,3.888-2.88c1.3-.885,2.556-1.727,3.791-2.465,1.224-.753,2.416-1.407,3.523-1.995.556-.289,1.1-.55,1.607-.807l1.472-.679c.935-.4,1.753-.744,2.44-.991.68-.267,1.228-.435,1.6-.561l.568-.189-.56.212c-.365.14-.9.33-1.572.623-.675.273-1.476.648-2.391,1.084l-1.438.734c-.5.276-1.024.557-1.565.866-1.077.628-2.233,1.324-3.418,2.12-1.195.78-2.412,1.665-3.661,2.593-1.233.949-2.5,1.941-3.736,3.006s-2.48,2.163-3.681,3.306-2.377,2.31-3.506,3.486-2.2,2.369-3.227,3.533-1.977,2.322-2.852,3.44c-.447.552-.857,1.107-1.267,1.633s-.785,1.051-1.144,1.554c-.72,1.005-1.363,1.936-1.907,2.777-.275.418-.529.812-.754,1.181s-.442.7-.617,1.01l-.48.815-.35.629-.291.523Z" transform="translate(-148.83 -100.478)" fill="#457228"/>
                </g>
              </g>
            </g>
            <g id="Grupo_1017452" data-name="Grupo 1017452" transform="translate(0 26.009)">
              <path id="Trazado_719363" data-name="Trazado 719363" d="M53.03,128.253c4.416,7.288,18.083,7.679,18.083,7.679s4.718-11.162.137-18.72c-6.217-10.257-15.81-13.3-28.083-10.107C50.94,114.757,48.612,120.965,53.03,128.253Z" transform="translate(-43.166 -105.895)" fill="#538830"/>
              <path id="Trazado_719364" data-name="Trazado 719364" d="M74.137,136.738c2.472,1.834,7.223,3.59,10.071,1.39.823-.636,1.672-1.312,1.469-2.471-.495-2.828-.974-5.61-1.3-8.469-.308-2.706-.555-5.681-1.8-8.142-.136-.269-.28-.529-.427-.79a24.594,24.594,0,0,1,7.043,7.7c4.58,7.558-.137,18.72-.137,18.72S75.391,144.283,70.975,137a23.155,23.155,0,0,1-2.435-5.723A36.46,36.46,0,0,0,74.137,136.738Z" transform="translate(-61.111 -114.636)" fill="#afb4b6"/>
              <path id="Trazado_719365" data-name="Trazado 719365" d="M57.878,106.64c-2.688,1.331-8.4,1.016-10.3,1.1a.575.575,0,0,0-.538.723c.629,2.258,2.792,4.1,3.145,6.373a4.34,4.34,0,0,1-.738,3.3,22.089,22.089,0,0,0-6.276-11.03C48.621,105.692,53.544,105.51,57.878,106.64Z" transform="translate(-43.166 -105.901)" fill="#fff" opacity="0.3"/>
              <g id="Grupo_1017451" data-name="Grupo 1017451" transform="translate(2.519 1.713)">
                <g id="Grupo_1017450" data-name="Grupo 1017450">
                  <path id="Trazado_719366" data-name="Trazado 719366" d="M80.182,148.4l-.7-1.917c-.106-.311-.247-.628-.394-.982l-.478-1.141c-.163-.409-.364-.84-.579-1.293l-.669-1.43c-.234-.5-.51-1-.778-1.532s-.539-1.083-.857-1.629c-.62-1.1-1.257-2.275-1.991-3.446-.365-.586-.708-1.2-1.108-1.789l-1.182-1.8c-.395-.61-.834-1.2-1.253-1.8s-.843-1.209-1.3-1.789l-1.341-1.76c-.459-.574-.932-1.134-1.392-1.7l-.691-.838-.716-.8-1.409-1.571-1.429-1.457-.694-.706c-.231-.23-.474-.441-.706-.659L59.155,117.1c-.216-.208-.443-.395-.667-.576l-.656-.539L56.6,114.977c-.405-.3-.8-.578-1.163-.843l-1.026-.74-.233-.167-.234-.144-.436-.268-1.738-1.069,1.78,1L54,113l.24.135.24.159,1.058.7c.377.251.783.513,1.2.8l1.276.967.681.516c.233.174.469.353.694.553l1.421,1.208c.242.209.5.413.737.635l.726.683,1.5,1.411,1.483,1.527.755.78.73.817c.487.549.987,1.1,1.474,1.657l1.425,1.722c.485.568.933,1.165,1.385,1.755s.916,1.169,1.34,1.77l1.269,1.779c.429.58.8,1.188,1.195,1.768.791,1.158,1.486,2.323,2.161,3.418.345.543.634,1.1.938,1.624s.6,1.032.855,1.532l.743,1.435c.238.454.462.887.651,1.312l.547,1.176c.168.363.331.7.446,1l.776,1.888Z" transform="translate(-51.77 -111.746)" fill="#457228"/>
                </g>
              </g>
            </g>
            <line id="Línea_3211" data-name="Línea 3211" y1="33.14" transform="translate(31.854 50.64)" fill="none" stroke="#457228" stroke-miterlimit="10" stroke-width="8.973"/>
          </g>
          <g id="Grupo_1017454" data-name="Grupo 1017454" transform="translate(7.428 70.087)">
            <path id="Trazado_719367" data-name="Trazado 719367" d="M119.422,272.126a11.326,11.326,0,0,0-2.794-6.264,4.965,4.965,0,0,0-2.922-1.438c-2.4-.252-3.282-1.034-4.987-2.661a3.153,3.153,0,0,0-2.652-1.181c-3.077,0-2.915-.432-4.786-1.617a4.71,4.71,0,0,0-3.063-.937c-1.446.019-1.98-.851-3.2-1.194a4.3,4.3,0,0,0-3.388.348c-1.742.712-3.062.149-4.61.575-2.2.605-3.628,1.777-6.1,1.979a19.564,19.564,0,0,0-4.527,1.388c-2.584.915-3.143,2.925-5.52,4.205a3.488,3.488,0,0,0-1.983,2.4,4.417,4.417,0,0,0,.47,4.274c.49.8,1.54,1,2.372,1.227,1.378.378,1.589,1.707,2.851,2.446,2.352,1.378,6.962-.138,9.64.36a34.845,34.845,0,0,0,5.582,1c2.289.058,3.882-.451,6.134.491,1.084.454,2.824,1.1,4.029.668,1.6-.566,2.911-1.97,4.7-2a14.771,14.771,0,0,0,5.266-1.161c2.161-.829,3.616.126,5.68.129C117.239,275.169,119.7,274.279,119.422,272.126Z" transform="translate(-68.538 -256.574)" fill="#432918"/>
            <path id="Trazado_719368" data-name="Trazado 719368" d="M119.341,297.859c-.146.184-.291.368-.454.543-1.35,1.447-2.622-.036-4.094.162a70.855,70.855,0,0,0-10.343,2.271c-3.032.87-5.843,1.679-9.01,1.325-3.691-.413-7.367.159-11.026-.539a49.188,49.188,0,0,1-10.291-2.682,9.021,9.021,0,0,1-5.164-5.208c-.023.079-.047.158-.064.24a4.417,4.417,0,0,0,.47,4.275c.49.8,1.54,1,2.372,1.227,1.378.378,1.589,1.707,2.851,2.445,2.352,1.378,6.962-.138,9.64.36a34.845,34.845,0,0,0,5.582,1c2.289.058,3.882-.451,6.134.491,1.084.454,2.824,1.1,4.029.668,1.6-.567,2.911-1.97,4.7-2a14.77,14.77,0,0,0,5.266-1.161c2.161-.829,3.616.126,5.68.129,1.619,0,4.077-.887,3.8-3.041C119.4,298.2,119.369,298.028,119.341,297.859Z" transform="translate(-68.539 -282.814)" fill="#3a2313"/>
            <path id="Trazado_719369" data-name="Trazado 719369" d="M100.854,299.288A6.537,6.537,0,0,0,98.9,298.9c-1.477-.126-1.865-.944-2.865-1.764a1.7,1.7,0,0,0-1.637-.433c-.133.049-.264.1-.395.158a1.993,1.993,0,0,0-.946.748c-.02-.021-.042-.04-.062-.061a.794.794,0,0,0-1.24.16l-2.188-.372a.226.226,0,0,0-.39.227c.249.535.579,1.257,1.236,1.41,1.209.283,1.529-.34,2.287.933a.98.98,0,0,0,1.512.195.109.109,0,0,0,.041-.067c.061.041.128.085.227.143a2.547,2.547,0,0,0,1.757.2,18.914,18.914,0,0,1,4.519-.371A.372.372,0,0,0,100.854,299.288Z" transform="translate(-83.116 -284.865)" fill="#3a2313"/>
            <path id="Trazado_719370" data-name="Trazado 719370" d="M145.011,307.393c-.547-.1-1.031-.059-1.435-.486a.692.692,0,0,0-.69-.183c-.909.377-.935-.136-1.8-.03-.653.08-1.38.718-1.869.418a.606.606,0,0,0-.816.214c-1.116,1.62-2.6,2.246-4.165.815-.292-.267-.694-.763-1.112-.862-1.194-.283-1.63.815-2.066,1.767-.119.26.247.487.39.227,1.472-2.676,2.027-.475,2.977.054a6.943,6.943,0,0,0,2.03.622c1.172.242,2.424-1.617,2.8-1.343a.616.616,0,0,0,.633,0c1.176-.7,3.405-.1,4.752.131C145.518,308.888,145.9,307.555,145.011,307.393Z" transform="translate(-112.736 -291.973)" fill="#3a2313"/>
            <path id="Trazado_719371" data-name="Trazado 719371" d="M205.456,300.32a22.32,22.32,0,0,0-4.9-.457c-.834-.04-1.613.86-2.111,1.6-.821-.49-1.362-.241-2.4.238-.29.134-.074.543.206.488.762-.151,1.164-.425,1.992.306a.5.5,0,0,0,.766-.1c1.02-1.605,2.739-1.394,4.41-1.116.853.142,1.752.326,2.222-.507A.311.311,0,0,0,205.456,300.32Z" transform="translate(-158.616 -287.151)" fill="#3a2313"/>
            <path id="Trazado_719372" data-name="Trazado 719372" d="M102.135,285.553a3.033,3.033,0,0,0-3.028,1.073c-1.415-1.278-3.641-1.092-5.318-.3-.214.1-.062.439.158.375,1.448-.419,3.819-.5,4.769.929a.507.507,0,0,0,.861,0,2.411,2.411,0,0,1,2.416-1.031A.536.536,0,0,0,102.135,285.553Z" transform="translate(-86.323 -276.98)" fill="#3a2313"/>
            <path id="Trazado_719373" data-name="Trazado 719373" d="M116.493,270.581a3.161,3.161,0,0,1-2.012-2.616c-.034-.259-.217-.569-.531-.531-2.156.256-4.027-1.064-6.217-.662-.365.067-.28.669.087.645,2.046-.132,3.716,1.173,5.749,1.093a3.862,3.862,0,0,0,2.718,2.558C116.573,271.158,116.77,270.71,116.493,270.581Z" transform="translate(-96.091 -263.695)" fill="#3a2313"/>
            <path id="Trazado_719374" data-name="Trazado 719374" d="M149.5,271.325c-.572.086-1.245.164-1.456.8-.6,1.821-2.913,1.886-4.324,2.719a.264.264,0,0,0-.084.334,6.293,6.293,0,0,0-2.678-.1c-1.065.166-2.107.441-3.182.545a16.788,16.788,0,0,1-2.908-.391.269.269,0,0,0-.258.338c.432,1.434,2.022,1.667,3.345,1.378,2.5-.547,4.862-2.088,7.38-.722.079.043.175-.069.1-.129a5.156,5.156,0,0,0-1.385-.78,5.69,5.69,0,0,0,4.532-1.972c.808-.852.152-.9,1.83-1.035,2.518-.209,4.511-.446,6.554,1.452.017.016.045,0,.032-.025C155.286,271.1,152.447,270.886,149.5,271.325Z" transform="translate(-115.262 -266.842)" fill="#3a2313"/>
            <path id="Trazado_719375" data-name="Trazado 719375" d="M191.606,284.59c-2.395-.226-4.906.026-7.228-.66-1.767-.522-3.25-.834-4.475.775a.372.372,0,0,0,.417.543,5.363,5.363,0,0,1,3.219-.506,16.148,16.148,0,0,0,2.342.423,28.448,28.448,0,0,0,5.725-.409A.082.082,0,0,0,191.606,284.59Z" transform="translate(-147.257 -275.585)" fill="#3a2313"/>
            <path id="Trazado_719376" data-name="Trazado 719376" d="M143.815,258.694c-1.719-1.033-3.967-2.383-6.043-2.236-1.568.111-4.471,1.329-5.385,2.592a.27.27,0,0,0,.16.392c1.567.557,3.415-1.148,4.826-1.683,2.183-.829,4.226,1.318,6.411,1.05A.062.062,0,0,0,143.815,258.694Z" transform="translate(-113.665 -256.447)" fill="#3a2313"/>
            <path id="Trazado_719377" data-name="Trazado 719377" d="M155.239,266.625a12.15,12.15,0,0,0-3.842-.136c-.9.044-2.253-.158-2.819.656a.335.335,0,0,0,0,.352c.624.809,1.655.4,2.555.268a27.586,27.586,0,0,0,4.106-1.062A.042.042,0,0,0,155.239,266.625Z" transform="translate(-125.109 -263.489)" fill="#3a2313"/>
            <path id="Trazado_719378" data-name="Trazado 719378" d="M119.791,274.6c-1.291-.893-2.167-2.226-3.418-3.148-.65-.479-2.528-1.37-3.248-.739a.068.068,0,0,0-.011.084c.141.2.413.2.631.312a.021.021,0,0,0,.021-.036c-.078-.057-.725-.382-.088-.279a5.3,5.3,0,0,1,1.232.385,5.771,5.771,0,0,1,1.7,1.274,13.152,13.152,0,0,0,2.934,2.573A.246.246,0,0,0,119.791,274.6Z" transform="translate(-100.056 -266.38)" fill="#5e3b27"/>
            <path id="Trazado_719379" data-name="Trazado 719379" d="M157.555,264.3a5.72,5.72,0,0,0-1.565.161,12.218,12.218,0,0,1-2.211-.147c-.208-.024-.25.319-.049.363.966.207,3.161.895,3.916-.033A.208.208,0,0,0,157.555,264.3Z" transform="translate(-128.695 -261.982)" fill="#5e3b27"/>
            <path id="Trazado_719380" data-name="Trazado 719380" d="M170.751,270.877c-.614-.629-1.831.321-2.34.717-1.071.834-1.764,1.9-3.041,2.447-.017.008-.011.033,0,.037.794.212,1.693-.691,2.251-1.14a16.64,16.64,0,0,1,1.717-1.31c.456-.278,1.016-.192,1.408-.519A.165.165,0,0,0,170.751,270.877Z" transform="translate(-137.013 -266.504)" fill="#5e3b27"/>
            <path id="Trazado_719381" data-name="Trazado 719381" d="M193.788,282.886c-1.383-.228-2.888.036-4.3-.062a19.425,19.425,0,0,1-4.7-.715.041.041,0,0,0-.031.075,12.541,12.541,0,0,0,4.18,1.2c1.5.162,3.482.408,4.889-.237A.144.144,0,0,0,193.788,282.886Z" transform="translate(-150.714 -274.595)" fill="#5e3b27"/>
            <path id="Trazado_719382" data-name="Trazado 719382" d="M208.05,298.846c-1.089-.829-3.414-.672-4.686-.527a2.933,2.933,0,0,0-2.5,1.553c-.688-.663-1-.312-1.906.192a.041.041,0,0,0,.032.076c.64-.132,1.152-.553,1.747.3.093.133.346.185.425,0,1.206-2.828,4.771-.772,6.843-1.26A.187.187,0,0,0,208.05,298.846Z" transform="translate(-160.761 -285.978)" fill="#5e3b27"/>
            <path id="Trazado_719383" data-name="Trazado 719383" d="M143.74,306.241c-1.824-1.411-3.468-.046-5.417.335-1.483.291-2.18.53-3.53-.715a1.976,1.976,0,0,0-2.117-.655.228.228,0,0,0-.054.413c1.361.738,2.741,2.1,4.383,2.156,2.429.089,4.078-2.236,6.656-1.4C143.735,306.4,143.806,306.293,143.74,306.241Z" transform="translate(-113.782 -290.864)" fill="#5e3b27"/>
            <path id="Trazado_719384" data-name="Trazado 719384" d="M107.6,297.994c-1.594.953-3.8.206-5.1-.966-1-.906-2.582-.545-3.766-.433a.062.062,0,0,0,0,.123c1.428,0,2.854-.118,3.836,1.124a2.886,2.886,0,0,0,1.483.77c1.4.524,2.861,1.149,3.851-.309C108.035,298.111,107.783,297.882,107.6,297.994Z" transform="translate(-89.851 -284.723)" fill="#5e3b27"/>
            <path id="Trazado_719385" data-name="Trazado 719385" d="M105.78,284.04a8.993,8.993,0,0,0-1.828.1c-.658.1-.876.563-1.5.123a4.186,4.186,0,0,0-3.687-.453.044.044,0,0,0,.023.085,4.38,4.38,0,0,1,3.974,1.226.248.248,0,0,0,.3.039c.939-.609,1.825-.3,2.787-.633A.247.247,0,0,0,105.78,284.04Z" transform="translate(-89.892 -275.638)" fill="#5e3b27"/>
            <path id="Trazado_719386" data-name="Trazado 719386" d="M142.98,262.073c-1.677-1.148-4.3.769-6.02,1.033-.024,0-.016.039.006.04a6.792,6.792,0,0,0,2.528-.3c.441-.132.88-.258,1.33-.357a18.748,18.748,0,0,1,2.054-.032A.207.207,0,0,0,142.98,262.073Z" transform="translate(-116.917 -260.169)" fill="#5e3b27"/>
          </g>
        </g>
        <g id="Grupo_1017458" data-name="Grupo 1017458" transform="translate(4.808 80.011)">
          <path id="Trazado_719387" data-name="Trazado 719387" d="M59.6,290.345c-.008.283-.014.566-.014.85a27.7,27.7,0,0,0,55.4,0c0-.285-.006-.567-.014-.85Z" transform="translate(-59.588 -290.345)" fill="#53abaa"/>
          <g id="Grupo_1017457" data-name="Grupo 1017457" transform="translate(2.054)">
            <g id="Grupo_1017456" data-name="Grupo 1017456">
              <path id="Trazado_719388" data-name="Trazado 719388" d="M228.4,325.67c-.107-.15-.37.113-.393-.19a1.248,1.248,0,0,1,.2-.7,6.876,6.876,0,0,0,.708-1.336,2.291,2.291,0,0,1,.972-1.356,6.321,6.321,0,0,0,1.172-1.04c.167-.191.374-.547.581-.6a3.793,3.793,0,0,1-.078.81c-.023.151-.27.925-.39.6a5.662,5.662,0,0,1-.413,1.151,10.167,10.167,0,0,1-.724,1.028c-.226.29-1.373,2-1.645,1.672C228.4,325.686,228.4,325.681,228.4,325.67Z" transform="translate(-180.752 -311.63)" fill="#6a862b"/>
              <path id="Trazado_719389" data-name="Trazado 719389" d="M237.816,290.663a2.841,2.841,0,0,0,1.013-.318h-1.5C237.379,290.533,237.509,290.665,237.816,290.663Z" transform="translate(-187.343 -290.345)" fill="#6a862b"/>
              <path id="Trazado_719390" data-name="Trazado 719390" d="M183.979,290.931a.942.942,0,0,0-.693.114,3,3,0,0,1-1.424.491c-.566-.03-.834-.5-.952-1.015a.6.6,0,0,1-.193-.175H158.882c0,.033,0,.064.008.1.1.774.971,1.159,1.474,1.666.53.535,1.258.746,1.514,1.475.2.571.1.785.744.74.367-.026.734-.166,1.1-.173.335-.006.6.114.933.108a3.513,3.513,0,0,0,1.356-.342c.627-.277,1.327-.64,1.837-.061.279.317.4.55.816.627.367.068.509.029.711.362.392.646-.188,1.293-.051,1.968.112.556.731,1.005.99,1.459.171.3.044.567.078.9a6.836,6.836,0,0,0,.3.889c.154.668-.381,1.211-.552,1.843a8.553,8.553,0,0,0-.314,1.179,4.876,4.876,0,0,0,.071.894,2.336,2.336,0,0,0,.153.888c.117.228.369.367.395.647.048.524-.2,1.152-.11,1.635.047.239.218.312.321.482a2.59,2.59,0,0,1,.175.585c.113.381-.268,1.076.167,1.133.029.122.043.183.071.3a2.251,2.251,0,0,0,.7-.352,2.019,2.019,0,0,1,.713-.263,5.4,5.4,0,0,0,1.465-1.049,9.7,9.7,0,0,0,1.368-1.327,2.374,2.374,0,0,0,.4-.729c.064-.217-.025-.4.18-.637a.106.106,0,0,1,.02-.057c.414-.293,1.112-.583,1.2-1.168.04-.251-.175-.318-.073-.612a2.975,2.975,0,0,1,.578-.78,6.577,6.577,0,0,1,.823-.853,3.892,3.892,0,0,0,.761-.594,4.114,4.114,0,0,0,.582-1.612c.139-.4.076-.364-.053-.684a.772.772,0,0,1,0-.65c.066-.131.183-.115.214-.3.022-.13-.112-.152-.118-.263-.012-.263.182-.477.3-.718a3.03,3.03,0,0,1,.395-.713,7.018,7.018,0,0,1,.69-.666c.5-.456.887-.975,1.4-1.372a4.684,4.684,0,0,0,1.39-2.734C184.067,291.278,184.235,291.039,183.979,290.931Z" transform="translate(-131.866 -290.345)" fill="#6a862b"/>
              <path id="Trazado_719391" data-name="Trazado 719391" d="M86.238,298.828a2.8,2.8,0,0,0-1.458-.966,3.772,3.772,0,0,1-1.736-.711c-.537-.479-1.13-.226-1.675-.567a2.1,2.1,0,0,1-.662-.62,7.527,7.527,0,0,0-.3-.765c-.292-.5-.468-1.113-1.035-1.347-.489-.2-1.273,0-1.549-.458a2.145,2.145,0,0,0-.423-.652c-.188-.171-.43-.279-.6-.446-.2-.2-.266-.447-.511-.593a1.163,1.163,0,0,0-.782-.086,2.169,2.169,0,0,1-.858.069,4.225,4.225,0,0,1-.67-.377c-.3-.152-.47-.259-.71,0-.168.182-.081.634-.366.572.016-.193.071-.444-.141-.535-.048-.317.259-.33.231-.595a13.016,13.016,0,0,1-1.268.484.748.748,0,0,0-.477.494c-.058.183-.041.305-.154.456-.08.106-.2.146-.272.26l-.207-.243c-.189-.581-.848-.021-1.2-.148a1.085,1.085,0,0,1-.623-1.044c.01-.175.051-.425.065-.666H66.6a1.181,1.181,0,0,0,.257.137,1.651,1.651,0,0,1,1.072.768c.139.232.109.455.267.681a2.31,2.31,0,0,0,.631.511,3.07,3.07,0,0,0,.676.373c.312.1.324-.055.563-.175.643-.324.684.651.7,1.061a1.193,1.193,0,0,1-.158.73c-.1.234-.155.35-.256.58.056.037.1.031.072.132-.443.1-.338.3-.449.687s.027.548.07.936c.035.314-.211.281-.247.516-.029.188.265.52.381.7a5.26,5.26,0,0,0,.51.779,4.577,4.577,0,0,1,.716.764,9.37,9.37,0,0,0,.923,1.6,11.243,11.243,0,0,0,1.325.976A4.471,4.471,0,0,1,75,303.9c.232.809.344,1.541.507,2.306.185.872.655,1.7.873,2.534a9.338,9.338,0,0,0,.889,2.113c.327.6.864,1,1.239,1.642s.768,1.315,1.212,1.964c.347.507.8,1.3,1.3,1.49.319.123.241.054.53.447.233.317.4.343.618.562l-.053-.02c.161.063.594.318.689.259.174-.107-.218-.381-.4-.525a5.948,5.948,0,0,1-1.163-1.242c-.391-.555.23-.59-.093-1.074-.178-.268-1.161-.594-.98-.939.048-.091.253-.026.305-.135l-.138-.206c.047-.338-.118-.382-.365-.747a1.015,1.015,0,0,1-.182-.436c.03-.163.194-.023.321-.047.219-.042.166-.3.349-.4s.654.074.752-.163c.186-.451-1.29-1.392-.409-1.248.285.047.567.171.843.236.366.086.36-.044.442-.326a3.98,3.98,0,0,0,.167-.743.607.607,0,0,1,.126-.4c.068-.089.2-.1.266-.2a1.5,1.5,0,0,0,.243-.725c0-.266-.219-.559-.174-.834a1.241,1.241,0,0,1,1.078-.878c.284-.01.624.141.839-.059.178-.165.2-.481.382-.668.228-.23.415-.295.448-.658a5.281,5.281,0,0,0-.1-.949,3.369,3.369,0,0,1,.272-1.749,3.472,3.472,0,0,1,.307-.874c.165-.239.444-.411.6-.663a1.684,1.684,0,0,0,.089-.947C86.624,299.164,86.525,299.142,86.238,298.828Z" transform="translate(-66.605 -290.345)" fill="#6a862b"/>
            </g>
          </g>
        </g>
      </g>
    </g>
  </g>
</svg>
