<svg xmlns="http://www.w3.org/2000/svg" xmlns:xlink="http://www.w3.org/1999/xlink" width="169" height="169" viewBox="0 0 169 169">
  <defs>
    <linearGradient id="linear-gradient" x1="-0.045" y1="0.498" x2="0.984" y2="0.498" gradientUnits="objectBoundingBox">
      <stop offset="0" stop-color="#008603"/>
      <stop offset="0.18" stop-color="#189213"/>
      <stop offset="0.561" stop-color="#56b03d"/>
      <stop offset="1" stop-color="#a4d672"/>
    </linearGradient>
    <linearGradient id="linear-gradient-2" x1="0.039" y1="0.493" x2="1.015" y2="0.493" xlink:href="#linear-gradient"/>
    <linearGradient id="linear-gradient-3" x1="-0.106" y1="0.487" x2="0.869" y2="0.487" xlink:href="#linear-gradient"/>
    <linearGradient id="linear-gradient-4" x1="0.177" y1="0.493" x2="1.047" y2="0.493" xlink:href="#linear-gradient"/>
    <linearGradient id="linear-gradient-5" x1="0.138" y1="0.495" x2="1.088" y2="0.495" xlink:href="#linear-gradient"/>
    <linearGradient id="linear-gradient-6" x1="0.027" y1="0.489" x2="1.033" y2="0.489" xlink:href="#linear-gradient"/>
    <linearGradient id="linear-gradient-7" x1="-0.006" y1="0.495" x2="0.971" y2="0.495" xlink:href="#linear-gradient"/>
    <linearGradient id="linear-gradient-8" x1="0.001" y1="0.498" x2="0.98" y2="0.498" xlink:href="#linear-gradient"/>
    <linearGradient id="linear-gradient-9" x1="-0.012" y1="0.514" x2="0.987" y2="0.514" xlink:href="#linear-gradient"/>
    <linearGradient id="linear-gradient-10" x1="0.026" y1="0.524" x2="1.037" y2="0.524" xlink:href="#linear-gradient"/>
    <linearGradient id="linear-gradient-11" x1="-0.013" y1="0.517" x2="0.991" y2="0.517" xlink:href="#linear-gradient"/>
    <linearGradient id="linear-gradient-12" x1="0.039" y1="0.505" x2="1.025" y2="0.505" xlink:href="#linear-gradient"/>
    <linearGradient id="linear-gradient-13" x1="-0.14" y1="0.442" x2="0.695" y2="0.442" xlink:href="#linear-gradient"/>
    <linearGradient id="linear-gradient-14" x1="-0.001" y1="0.5" x2="1" y2="0.5" xlink:href="#linear-gradient"/>
    <radialGradient id="radial-gradient" cx="0.5" cy="0.5" r="0.5" gradientUnits="objectBoundingBox">
      <stop offset="0.386" stop-color="#046a38"/>
      <stop offset="0.571" stop-color="#046435"/>
      <stop offset="0.825" stop-color="#03522c"/>
      <stop offset="1" stop-color="#034223"/>
    </radialGradient>
    <linearGradient id="linear-gradient-15" x1="-59.949" y1="-2.356" x2="-56.611" y2="-1.043" gradientUnits="objectBoundingBox">
      <stop offset="0" stop-color="#a4d672"/>
      <stop offset="0.439" stop-color="#56b03d"/>
      <stop offset="0.82" stop-color="#189213"/>
      <stop offset="1" stop-color="#008603"/>
    </linearGradient>
    <linearGradient id="linear-gradient-16" x1="-58.303" y1="-2.151" x2="-58.573" y2="-1.619" xlink:href="#linear-gradient-15"/>
    <linearGradient id="linear-gradient-17" x1="-63.233" y1="-1.824" x2="-63.486" y2="-1.442" xlink:href="#linear-gradient-15"/>
    <linearGradient id="linear-gradient-18" x1="-0.138" y1="2.322" x2="3.199" y2="3.635" xlink:href="#linear-gradient-15"/>
    <linearGradient id="linear-gradient-19" x1="1.508" y1="2.526" x2="1.237" y2="3.057" xlink:href="#linear-gradient-15"/>
    <linearGradient id="linear-gradient-20" x1="1.367" y1="3" x2="1.113" y2="3.382" xlink:href="#linear-gradient-15"/>
  </defs>
  <g id="Grupo_1079620" data-name="Grupo 1079620" transform="translate(-1069.666 -2250.608)">
    <g id="Grupo_1017056" data-name="Grupo 1017056" transform="translate(-18.334 192.609)">
      <g id="Grupo_159184" data-name="Grupo 159184" transform="translate(1088 2057.999)">
        <path id="Unión_12" data-name="Unión 12" d="M84.5,0A84.5,84.5,0,1,1,0,84.5,84.5,84.5,0,0,1,84.5,0Z" transform="translate(0 0)" fill="#e8f3f8"/>
      </g>
    </g>
    <g id="svg05" transform="translate(1067.066 2240.902)">
      <g id="Grupo_1017317" data-name="Grupo 1017317" transform="translate(18.9 40.697)">
        <g id="Grupo_1017308" data-name="Grupo 1017308" transform="translate(12.567 2.321)">
          <path id="Trazado_719032" data-name="Trazado 719032" d="M235.331,176.7c-.162.539-.27,1.079-.431,1.672A5.471,5.471,0,0,0,235.331,176.7Z" transform="translate(-130.966 -105.667)" fill="url(#linear-gradient)"/>
          <path id="Trazado_719033" data-name="Trazado 719033" d="M244.531,175.6c-.108.593-.27,1.241-.432,1.888A3.917,3.917,0,0,0,244.531,175.6Z" transform="translate(-135.204 -105.16)" fill="url(#linear-gradient-2)"/>
          <path id="Trazado_719034" data-name="Trazado 719034" d="M45.5,152.6l.162,1.672V153.3A1.862,1.862,0,0,1,45.5,152.6Z" transform="translate(-43.72 -94.565)" fill="url(#linear-gradient-3)"/>
          <path id="Trazado_719035" data-name="Trazado 719035" d="M46.208,160.825c-.054-.431-.054-.755-.108-1.025C46.154,160.124,46.154,160.5,46.208,160.825Z" transform="translate(-43.997 -97.882)" fill="url(#linear-gradient-4)"/>
          <path id="Trazado_719036" data-name="Trazado 719036" d="M45.916,157.911c-.054-.7-.108-1.025-.216-2.211C45.754,156.455,45.862,157.156,45.916,157.911Z" transform="translate(-43.812 -95.993)" fill="url(#linear-gradient-5)"/>
          <path id="Trazado_719037" data-name="Trazado 719037" d="M57,86.972c.324-.539.647-1.133.971-1.672A3.58,3.58,0,0,0,57,86.972Z" transform="translate(-49.018 -63.564)" fill="url(#linear-gradient-6)"/>
          <path id="Trazado_719038" data-name="Trazado 719038" d="M46.3,161.808h0v0Z" transform="translate(-44.089 -98.757)" fill="#fff"/>
          <path id="Trazado_719039" data-name="Trazado 719039" d="M233.431,165.9h0c-.162.324-.27.7-.431,1.025Z" transform="translate(-130.091 -100.692)" fill="url(#linear-gradient-7)"/>
          <path id="Trazado_719040" data-name="Trazado 719040" d="M54.933,200.064c-.378-.539-.755-1.025-1.133-1.564A3.57,3.57,0,0,0,54.933,200.064Z" transform="translate(-47.543 -115.709)" fill="url(#linear-gradient-8)"/>
          <path id="Trazado_719041" data-name="Trazado 719041" d="M205.748,68.225,204.4,67.2c.216.216.485.431.7.647A4.024,4.024,0,0,1,205.748,68.225Z" transform="translate(-116.916 -55.226)" fill="url(#linear-gradient-9)"/>
          <path id="Trazado_719042" data-name="Trazado 719042" d="M199.5,63.6c.378.27.593.431.809.593C200.039,64.031,199.824,63.816,199.5,63.6Z" transform="translate(-114.659 -53.568)" fill="url(#linear-gradient-10)"/>
          <path id="Trazado_719043" data-name="Trazado 719043" d="M201.1,64.7c.539.431.863.647,1.78,1.348C202.287,65.617,201.693,65.185,201.1,64.7Z" transform="translate(-115.396 -54.075)" fill="url(#linear-gradient-11)"/>
          <path id="Trazado_719044" data-name="Trazado 719044" d="M246.6,120.8c.216.593.378,1.241.593,1.834A2.771,2.771,0,0,0,246.6,120.8Z" transform="translate(-136.355 -79.917)" fill="url(#linear-gradient-12)"/>
          <path id="Trazado_719045" data-name="Trazado 719045" d="M199.4,63.5h0c.054,0,.054.054.108.054A.188.188,0,0,1,199.4,63.5Z" transform="translate(-114.613 -53.522)" fill="url(#linear-gradient-13)"/>
          <path id="Trazado_719046" data-name="Trazado 719046" d="M154.872,102.28c-.7-5.609-.216-11.273-3.29-16.666a1,1,0,0,1,.917.27c-1.834-5.771-3.776-10.733-7.713-15.533.162,1.133,1.618,3.236,1.78,4.369-3.236-7.281-10.679-12.136-16.181-17.1-1.348-.647-3.182-.755-3.4-2.643a47.477,47.477,0,0,0-8.414-4.638c.324-.054.647-.054,1.025-.108-.485-.054-.971-.054-1.456-.108a56.589,56.589,0,0,0-7.066-2.265,56.877,56.877,0,0,1,8.414.647,57.844,57.844,0,0,0-9.6-.917,47.482,47.482,0,0,0-36.461,7.5,40.355,40.355,0,0,1,26.914-9.115c-4.962-.7-11-.162-15.857.27L85.564,45C72.3,47.319,63.666,55.949,56.331,65.657c.917-2.319,2-3.56,2.913-5.933a18.342,18.342,0,0,0-2.966,3.236c.054-.108.054-.27.108-.378,1.78-2.427,4.045-4.153,4.369-7.012C59.675,56.812,58.543,58,57.41,59.185l.162-.485-.324.647a38.113,38.113,0,0,0-4.045,4.8,60.322,60.322,0,0,1,2.859-5.987,53.254,53.254,0,0,0-3.4,6.8,18.182,18.182,0,0,0-2,4.261.909.909,0,0,1-.378-.863C47.27,73.64,44.9,78.386,43.98,84.481c.755-.863,1.294-3.4,2.05-4.261C42.793,87.555,44.2,96.293,44.2,103.682c.431,1.456,1.564,2.859.324,4.315a46.48,46.48,0,0,0,5.987,17.421c-.647-.863-1.241-1.78-1.888-2.643.485,1.025.485,1.025.971,2-3.991-3.074-3.883-8.09-7.389-10.14,2.427,5.07,3.829,10.571,8.306,14.671a.822.822,0,0,1-.863,0c3.506,4.854,6.8,8.9,11.7,12.189-.485-1.025-2.481-2.535-2.966-3.56a21.96,21.96,0,0,0,4.153,3.614c1.4,1.348,2.8,2.7,4.1,3.883l-1.618.054c10.517,8.2,22.761,8.792,34.842,7.713-2.373.863-3.991.917-6.31,1.78a17.423,17.423,0,0,0,4.423.054c-1.348.593-2.7,1.241-3.991,1.942a89.558,89.558,0,0,0,16.4-6.85c-.108,0-.216.054-.324.054a9.112,9.112,0,0,0,1.726-1.025c.27-.108.539-.162.809-.27-.755.431-1.456.863-2.211,1.294a14.518,14.518,0,0,0,5.555-2.643c.647-.27,1.241-.539,1.834-.809a55.112,55.112,0,0,1-23.192,11.758,57.319,57.319,0,0,0,26.267-13.214c.216-.108.431-.216.7-.324l-.324.863c-3.829,3.236-8.468,5.609-12.891,8.576a47.767,47.767,0,0,0,12.189-6.364c-.378.485-.755.971-1.133,1.51.917-.863,1.834-1.78,2.751-2.7a58.166,58.166,0,0,0,9.493-9.439c.971-2.05,2-4.207,3.937-5.609a1.352,1.352,0,0,1-.216.378c-1.187,1.78-2.427,3.56-3.722,5.178a23.749,23.749,0,0,1-1.672,3.074c1.618-2.157,3.182-4.423,4.692-6.85a54.384,54.384,0,0,1-13.915,16.99,56.7,56.7,0,0,0,19.039-26.429c.432-.917.863-1.834,1.241-2.751,0,.108-.054.27-.054.378a27.416,27.416,0,0,0-1.294,4.692c-1.942,4.854-5.286,9.277-8.036,14.185A48.649,48.649,0,0,0,144.57,116.3a2.879,2.879,0,0,0,.27-1.348c0-.108.054-.216.054-.324-.054-1.025-.108-2-.108-3.02a2.557,2.557,0,0,1,.7-1.294v-.054q-.243,2.184-.647,4.369a25.518,25.518,0,0,1,.054,2.859l-.324.971c.108-.27.216-.485.324-.755a1.187,1.187,0,0,1-.054.431c.054-.216.054-.378.108-.593.324-.755.593-1.456.917-2.211a.979.979,0,0,1,.647.863c.432-1.672.755-3.344,1.025-5.016a13.4,13.4,0,0,0,.108,2.05,32.632,32.632,0,0,0,.324-5.609,45.21,45.21,0,0,0-1.834-17.691,1.916,1.916,0,0,0-.108-.539l.324.755c-.162-.324-.216-.539-.324-.755a5.061,5.061,0,0,0-.324-.809c-.162-.324-.27-.7-.593-1.348a2.706,2.706,0,0,1,.108.647c-.809-1.187-1.834-2.427-1.294-3.722l.162,1.133c-.162-1.133-.27-2.211-.431-3.344.431,3.344,3.236,6.472,3.668,9.87-.162-1.133-.27-2.211-.431-3.344h.324c3.344,10.248,2.7,21.736.054,32.361.431-1.025.431-1.025.863-2.1.378,5.016-3.4,8.306-2.535,12.3,2.1-5.178,5.232-9.978,5.286-16.019a.873.873,0,0,1,.593.647c1.241-5.879,2.05-11,1.133-16.882-.431,1.025-.216,3.56-.647,4.585.863-7.767-2.913-15.21-5.016-21.844-.755-1.025-2-1.888-1.618-3.4.485.917.971,1.888,1.456,2.859.054.216.108.378.162.593a1.62,1.62,0,0,1,.324.593l-.216-.539a78.165,78.165,0,0,1,4.1,11.057c-.162-1.133-.162-1.133-.27-2.211C153.9,94.459,152.067,99.151,154.872,102.28ZM48.349,93c.054.378.054.755.108,1.187l-.162-.647C48.295,93.38,48.349,93.219,48.349,93Zm6.095-17.1.593-.7a1.27,1.27,0,0,0-.108.431A1.043,1.043,0,0,1,54.443,75.905Zm.647-.7c-.7.809-1.4,1.618-2.05,2.427,2.05-2.373,2.535-6.149,4.369-8.738A52.875,52.875,0,0,0,55.091,75.2Zm-1.51-2.589c-.324.593-.647,1.133-.917,1.726.27-1.079.593-2.157.917-3.236Zm-6.8,27.291c.917,2.157,1.834,4.423,1.51,6.85a65.184,65.184,0,0,1-1.51-6.85c-.27-.7-.539-1.4-.809-2.05a46.475,46.475,0,0,1,.108-4.746A59.264,59.264,0,0,0,46.785,99.907Zm1.564,7.443a3.636,3.636,0,0,0,.324,2.8c-.054-.863-.162-1.672-.216-2.535.431,1.294.863,2.589,1.348,3.883a6.082,6.082,0,0,1-1.133-1.294c.054.647.108,1.348.162,2a43.776,43.776,0,0,1-2.859-13.592C46.623,101.471,47.432,104.383,48.349,107.35Zm73.946,32.739a4.025,4.025,0,0,1-1.456,1.4C121.324,141.006,121.809,140.574,122.295,140.089Zm-5.178,4.369a30.007,30.007,0,0,0,2.913-2.265l.378.162c-1.456.593-1.888,1.672-3.344,2.265Zm6.418-87.376a2.364,2.364,0,0,0-1.025-.378l.054.054c-.054,0-.054,0-.108-.054h.054c-.539-.431-1.079-.809-1.618-1.241a41.961,41.961,0,0,1,8.738,4.585A42.544,42.544,0,0,0,123.535,57.082Zm-64.777,8.36c-.485,1.133-.917,2.211-1.348,3.344-.593.7-1.187,1.4-1.78,2.05a1.131,1.131,0,0,1-.324-.431,13.317,13.317,0,0,1,.539-1.564c.108-.162.216-.378.324-.539-.108.108-.162.216-.27.324A5.515,5.515,0,0,1,58.758,65.442ZM51.747,75.2a8.24,8.24,0,0,0-.378,1.942c-.108.27-.216.485-.324.755.162-.809.324-1.618.539-2.427a13.955,13.955,0,0,0-1.78,5.879c-.216.7-.431,1.456-.647,2.157a54.48,54.48,0,0,1,.539-6.095,69.267,69.267,0,0,1,3.614-7.875,54.43,54.43,0,0,0-1.672,5.987A.456.456,0,0,1,51.747,75.2Zm-3.182,5.232a69.285,69.285,0,0,0-.431,7.551c-.162,1.025-.324,2.05-.431,3.074a30.033,30.033,0,0,1,.054-7.929C48.025,82.216,48.295,81.353,48.564,80.436Zm50.052,71.357a48.267,48.267,0,0,0,5.555-1.133C102.392,151.469,100.558,152.386,98.617,151.793Zm7.066-.216c.647-.593,1.294-1.187,1.942-1.888a1.493,1.493,0,0,0-.485.054,43.2,43.2,0,0,0,7.929-3.883,36.071,36.071,0,0,1-5.448,3.722c-.593.216-1.187.485-1.834.7a7.887,7.887,0,0,0,1.079-.27C107.84,150.552,106.761,151.092,105.682,151.577Zm11.866-6.418a31,31,0,0,1-4.585,2.859A11.275,11.275,0,0,1,117.548,145.159Zm27.615-52.21a48.926,48.926,0,0,0,1.079,6.257c0,.108-.054.27-.054.378-.162-.809-.378-1.672-.593-2.481C145.487,95.7,145.325,94.3,145.163,92.949ZM146.35,108.1a9.011,9.011,0,0,0-.593,2.373c0-.324.054-.7.054-1.025A10.038,10.038,0,0,0,146.35,108.1Zm-.917,5.933a20.815,20.815,0,0,1-.324,2.643A20.815,20.815,0,0,0,145.433,114.038Zm.27-24.595a34.413,34.413,0,0,1,.755,6.742,66.188,66.188,0,0,0-2.7-8.2v-.27c.593,1.456.593,1.456,1.241,2.913-.27-1.079-.539-2.1-.863-3.128a5.166,5.166,0,0,1,.593,2.1c-.162-1.133-.27-2.211-.431-3.344A18.614,18.614,0,0,0,145.7,89.443Z" transform="translate(-42.2 -45)" fill="url(#linear-gradient-14)"/>
        </g>
        <g id="Grupo_1017309" data-name="Grupo 1017309" transform="translate(9.493)">
          <path id="Trazado_719047" data-name="Trazado 719047" d="M224.9,91c.324.431.7.917,1.025,1.4A4.291,4.291,0,0,0,224.9,91Z" transform="translate(-123.285 -63.869)" fill="#003538"/>
          <path id="Trazado_719048" data-name="Trazado 719048" d="M229.7,83.1c.378.485.809.971,1.187,1.51A3.17,3.17,0,0,0,229.7,83.1Z" transform="translate(-125.496 -60.23)" fill="#003538"/>
          <path id="Trazado_719049" data-name="Trazado 719049" d="M87.4,224.7l1.4.917c-.27-.216-.485-.378-.755-.593Z" transform="translate(-59.947 -125.457)" fill="#003538"/>
          <path id="Trazado_719050" data-name="Trazado 719050" d="M94.263,229.239c-.378-.216-.647-.431-.863-.539C93.724,228.862,93.993,229.078,94.263,229.239Z" transform="translate(-62.711 -127.299)" fill="#003538"/>
          <path id="Trazado_719051" data-name="Trazado 719051" d="M91.888,227.641c-.593-.378-.863-.593-1.888-1.241C90.593,226.831,91.241,227.209,91.888,227.641Z" transform="translate(-61.144 -126.24)" fill="#003538"/>
          <path id="Trazado_719052" data-name="Trazado 719052" d="M43.8,174.034c-.216-.593-.485-1.187-.7-1.834A3.364,3.364,0,0,0,43.8,174.034Z" transform="translate(-39.54 -101.273)" fill="#003538"/>
          <path id="Trazado_719053" data-name="Trazado 719053" d="M95.108,229.754h0c-.054,0-.054-.054-.108-.054A.188.188,0,0,1,95.108,229.754Z" transform="translate(-63.448 -127.76)" fill="#003538"/>
          <path id="Trazado_719054" data-name="Trazado 719054" d="M215.2,85.7h0c.162.324.378.647.539.971Z" transform="translate(-118.817 -61.428)" fill="#003538"/>
          <path id="Trazado_719055" data-name="Trazado 719055" d="M130.388,246.908c-.647-.054-1.241-.054-1.888-.108A3.322,3.322,0,0,0,130.388,246.908Z" transform="translate(-78.879 -135.637)" fill="#003538"/>
          <path id="Trazado_719056" data-name="Trazado 719056" d="M121.418,46.5l-1.618.431.971-.162A1.384,1.384,0,0,1,121.418,46.5Z" transform="translate(-74.872 -43.37)" fill="#003538"/>
          <path id="Trazado_719057" data-name="Trazado 719057" d="M113.9,48.47a5.732,5.732,0,0,0,.971-.27A6.522,6.522,0,0,1,113.9,48.47Z" transform="translate(-72.154 -44.153)" fill="#003538"/>
          <path id="Trazado_719058" data-name="Trazado 719058" d="M115.7,47.839c.647-.162,1.025-.27,2.157-.539A18.007,18.007,0,0,0,115.7,47.839Z" transform="translate(-72.983 -43.739)" fill="#003538"/>
          <path id="Trazado_719059" data-name="Trazado 719059" d="M188,47.6c.593.216,1.187.431,1.834.7A3.561,3.561,0,0,0,188,47.6Z" transform="translate(-106.287 -43.873)" fill="#003538"/>
          <path id="Trazado_719060" data-name="Trazado 719060" d="M113.7,48.754h0c.054,0,.054,0,.108-.054C113.754,48.754,113.754,48.754,113.7,48.754Z" transform="translate(-72.062 -44.384)" fill="#003538"/>
          <path id="Trazado_719061" data-name="Trazado 719061" d="M132.506,52.727c-4.8-2.913-8.953-6.9-15.1-7.821a1.16,1.16,0,0,1,.809-.539c-5.663-2.157-10.733-3.722-16.936-3.668.971.593,3.56.755,4.531,1.348-7.713-2-16.181.755-23.462,2-1.348.647-2.535,2-4.207,1.025a44.253,44.253,0,0,0-8.845,3.668c.162-.27.378-.539.539-.863a9.692,9.692,0,0,1-1.025,1.079A47.258,47.258,0,0,0,62.659,53.1a55.8,55.8,0,0,1,5.771-6.149,58.706,58.706,0,0,0-6.742,6.958,47.574,47.574,0,0,0-16.882,33.17,40.483,40.483,0,0,1,9.654-26.752c-3.668,3.452-7.012,8.522-9.654,12.513l-.27-1.618c-6.418,11.7-5.016,23.894-2.05,35.652-1.241-2.157-1.564-3.775-2.8-5.987a16.1,16.1,0,0,0,.7,4.369c-.054-.108-.162-.216-.216-.324-.755-2.913-.7-5.771-2.751-7.767.324,1.618.539,3.236.755,4.908-.108-.162-.216-.27-.324-.431l.324.647a34.515,34.515,0,0,0,1.241,6.149,55,55,0,0,1-2.913-5.933,61.671,61.671,0,0,0,3.182,6.9,16.853,16.853,0,0,0,2.05,4.207,1.172,1.172,0,0,1-.917-.216c2.211,5.663,4.477,10.464,8.684,14.994-.216-1.133-1.834-3.128-2.05-4.261,3.722,7.066,11.434,11.434,17.206,16.019,1.4.539,3.182.539,3.56,2.427a45.83,45.83,0,0,0,17.313,6.2c-1.079-.054-2.157-.108-3.236-.216,1.079.27,1.079.27,2.211.485-4.854,1.187-8.738-2-12.513-.539,5.448,1.241,10.679,3.614,16.666,2.643a.939.939,0,0,1-.539.7c5.987.324,11.219.27,16.828-1.564-1.079-.27-3.506.324-4.638.108a25.7,25.7,0,0,0,5.394-.971c1.942-.216,3.829-.539,5.555-.809l-.971,1.294c12.945-3.128,21.089-12.3,27.777-22.437-.755,2.373-1.78,3.668-2.535,6.095a18.318,18.318,0,0,0,2.8-3.452q-.566,2.184-.971,4.369a93.793,93.793,0,0,0,4.854-17.044,1.179,1.179,0,0,1-.162.27,6.362,6.362,0,0,0,.27-2c.108-.27.162-.539.27-.809-.108.863-.216,1.672-.378,2.535a13.8,13.8,0,0,0,1.4-5.987c.162-.647.324-1.294.485-2a54.832,54.832,0,0,1-5.286,25.458,57.077,57.077,0,0,0,6.041-28.748c.054-.27.108-.485.162-.755l.485.755c.162,5.016-.917,10.086-1.348,15.426a46.311,46.311,0,0,0,2.589-13.538l.485,1.78c-.108-1.294-.27-2.589-.431-3.883a58.957,58.957,0,0,0-1.456-13.322c-1.025-2.05-2.05-4.207-1.942-6.526a1.352,1.352,0,0,0,.216.378c.7,2.05,1.241,4.1,1.726,6.149a22.436,22.436,0,0,1,1.348,3.182c-.647-2.589-1.51-5.286-2.427-7.929a53.2,53.2,0,0,1,4.585,21.466,56.4,56.4,0,0,0-8.792-31.391c-.432-.917-.917-1.834-1.4-2.7l.27.27a33.2,33.2,0,0,0,2.859,3.937c2.589,4.531,3.937,9.924,6.095,15.1a48.8,48.8,0,0,0-10.949-25.3,3.319,3.319,0,0,0-.863-1.079c-.054-.054-.108-.162-.216-.216a26.033,26.033,0,0,1-2.427-1.834,2.376,2.376,0,0,1-.593-1.348v-.054c1.025,1.025,2.05,2.1,3.02,3.236a24.985,24.985,0,0,1,2.265,1.726,4.658,4.658,0,0,1,.539.863c-.108-.216-.27-.485-.378-.7a1.43,1.43,0,0,0,.324.27c-.108-.162-.27-.27-.378-.431-.378-.7-.809-1.4-1.187-2.1a.97.97,0,0,1,1.079.054,47.077,47.077,0,0,0-3.29-3.937A19.164,19.164,0,0,0,136.5,64.97a34.106,34.106,0,0,0-4.153-3.775A45.67,45.67,0,0,0,117.35,51.54a2.186,2.186,0,0,0-.485-.27l.809.378c-.324-.108-.593-.162-.809-.216a4.494,4.494,0,0,0-.809-.216c-.324-.108-.7-.216-1.4-.378.216.108.378.216.593.324-1.456-.108-3.02-.054-3.722-1.294l.971.593c-.971-.593-1.942-1.187-2.859-1.78,2.859,1.78,7.12,1.51,9.978,3.29-.971-.593-1.942-1.187-2.859-1.78a.421.421,0,0,1,.216-.216c10.086,3.776,18.662,11.434,25.3,20.172l-1.079-1.942c4.153,2.8,4.369,7.821,7.982,9.654-2.751-4.908-4.531-10.3-9.223-14.131a.837.837,0,0,1,.863-.054c-3.775-4.638-7.335-8.468-12.459-11.434.539.971,2.643,2.373,3.182,3.344-5.555-5.5-13.7-7.173-20.226-9.708-1.294-.054-2.751.431-3.668-.863,1.025.162,2.1.378,3.128.647.162.054.378.162.539.216a3.156,3.156,0,0,1,.7.108l-.539-.162a73.915,73.915,0,0,1,11.219,3.722l-1.942-1.187C125.818,48.627,128.3,53,132.506,52.727ZM58.883,130.232l.971.647a1.994,1.994,0,0,1-.593-.27A1.26,1.26,0,0,1,58.883,130.232Zm-9.6-15.426-.162-.917c.108.108.162.27.27.378A1.916,1.916,0,0,1,49.283,114.807Zm-.162-.917c.216,1.025.378,2.1.593,3.128-.593-3.074-3.182-5.825-4.1-8.845C46.748,110.168,47.88,112.11,49.121,113.89Zm-2.966-.485c.27.593.485,1.187.809,1.78-.7-.917-1.348-1.78-1.942-2.7A9.348,9.348,0,0,0,46.154,113.4Zm17.1,22.383c2.265.647,4.585,1.348,6.257,3.074a67.2,67.2,0,0,1-6.257-3.074c-.7-.216-1.456-.432-2.1-.647-1.294-.971-2.481-1.942-3.668-3.02C59.315,133.414,61.256,134.655,63.252,135.788Zm6.85,3.4a3.708,3.708,0,0,0,2.373,1.51c-.7-.485-1.4-.917-2.157-1.4,1.294.485,2.535.917,3.883,1.348a9.514,9.514,0,0,1-1.726.054c.539.378,1.133.755,1.672,1.133a43.259,43.259,0,0,1-12.405-6.257A90.688,90.688,0,0,0,70.1,139.185Zm71.681-37.377a4.2,4.2,0,0,1,.162,2C141.89,103.156,141.836,102.455,141.783,101.808Zm.162,6.8c.054-1.241.054-2.481.054-3.722l.324-.216c-.431,1.51.108,2.481-.324,4.045ZM77.707,49.059a2.58,2.58,0,0,0-.917.539h.054c-.054,0-.054.054-.108.054l.054-.054-1.942.485a45.543,45.543,0,0,1,9.007-3.991A46.208,46.208,0,0,0,77.707,49.059ZM43.781,104.936c.593,1.079,1.187,2.1,1.78,3.128.162.917.324,1.78.485,2.7a1.8,1.8,0,0,1-.539,0c-.324-.485-.647-.917-.917-1.4-.054-.216-.162-.378-.216-.593,0,.162.054.27.054.378A5.661,5.661,0,0,1,43.781,104.936Zm3.236,11.542a7.077,7.077,0,0,0,1.294,1.51c.108.216.27.485.378.7-.539-.647-1.079-1.294-1.564-1.942a14.9,14.9,0,0,0,3.452,5.07c.431.647.863,1.241,1.294,1.834a55.617,55.617,0,0,1-4.477-4.207,65.2,65.2,0,0,1-3.883-7.767c1.133,1.726,2.319,3.4,3.614,5.07A.911.911,0,0,0,47.017,116.479Zm2.157,5.771a55.483,55.483,0,0,0,5.609,5.016c.7.755,1.4,1.51,2.157,2.211a30.257,30.257,0,0,1-6.149-4.962C50.254,123.814,49.714,123,49.175,122.25Zm87,5.34a40.7,40.7,0,0,0,2.589-5.07C138.277,124.461,137.845,126.457,136.173,127.589Zm4.207-5.609a24.021,24.021,0,0,0-.27-2.7c-.108.108-.162.27-.27.378a46.535,46.535,0,0,0,1.942-8.63,33.5,33.5,0,0,1-.485,6.58,18.24,18.24,0,0,1-.593,1.834l.485-.971C140.92,119.661,140.7,120.793,140.38,121.98Zm2.427-13.322a29.485,29.485,0,0,1-.647,5.34A10.5,10.5,0,0,1,142.807,108.658ZM119.183,54.506a50.357,50.357,0,0,0,5.555,3.074l.27.27c-.755-.378-1.51-.755-2.319-1.079C121.5,56.017,120.37,55.261,119.183,54.506ZM131.8,63.028a8.569,8.569,0,0,0,1.51,1.942,8.952,8.952,0,0,1-.755-.7A9.5,9.5,0,0,1,131.8,63.028Zm4.045,4.423c.647.593,1.294,1.241,1.888,1.888ZM116.756,51.917a36.173,36.173,0,0,1,5.717,3.614,75.818,75.818,0,0,0-8.09-3.02c-.054-.054-.162-.108-.216-.162,1.51.431,1.51.431,3.074.863-1.025-.431-2-.863-2.966-1.294a5.352,5.352,0,0,1,2.05.863c-.971-.593-1.942-1.187-2.859-1.78A16.491,16.491,0,0,0,116.756,51.917Z" transform="translate(-36.5 -40.697)" fill="#003538"/>
        </g>
        <g id="Grupo_1017312" data-name="Grupo 1017312" transform="translate(46.331 9.71)">
          <g id="Grupo_1017310" data-name="Grupo 1017310">
            <path id="Trazado_719062" data-name="Trazado 719062" d="M107.065,70.518,104.8,65.287l.755-.324,2.319,2.265-1.187-2.751.863-.378,2.211,5.232-.755.324-2.373-2.427,1.241,2.913Z" transform="translate(-104.8 -61.187)" fill="#ededed"/>
            <path id="Trazado_719063" data-name="Trazado 719063" d="M117.324,67.395,117,61.57l.971-.27,2.7,5.178-1.079.324-.539-1.133-.7.216.108,1.241Zm.917-2.265.593-.162-.809-1.942Z" transform="translate(-110.42 -59.898)" fill="#ededed"/>
            <path id="Trazado_719064" data-name="Trazado 719064" d="M126.718,65.033l-.7-4.8-.809.108-.108-.863,2.751-.378.108.863-.809.108.7,4.8Z" transform="translate(-114.151 -58.884)" fill="#ededed"/>
            <path id="Trazado_719065" data-name="Trazado 719065" d="M135.254,62.314l-.054-3.56h1.133l.054,3.56v.755a.4.4,0,0,0,.054.27c0,.054.054.108.108.162s.108.108.162.108.108.054.216,0c.108,0,.162,0,.216-.054s.108-.054.162-.108.054-.108.108-.162a2.336,2.336,0,0,0,.054-.27V62.26h0l-.054-3.56h1.133l.054,3.56v.485c0,.162-.054.324-.054.431-.054.162-.054.324-.108.431a1.129,1.129,0,0,1-.216.324c-.108.108-.162.216-.27.27a3.716,3.716,0,0,1-.431.162,2.724,2.724,0,0,1-1.079,0,3.715,3.715,0,0,1-.432-.162,1.43,1.43,0,0,1-.324-.27,1.128,1.128,0,0,1-.216-.324,1.016,1.016,0,0,1-.108-.431,1.34,1.34,0,0,1-.054-.431A1.051,1.051,0,0,1,135.254,62.314Z" transform="translate(-118.804 -58.7)" fill="#ededed"/>
            <path id="Trazado_719066" data-name="Trazado 719066" d="M145.6,64.663,146.355,59l1.241.162c.27.054.539.108.755.162a4.744,4.744,0,0,1,.539.324,1.274,1.274,0,0,1,.324.485,2.849,2.849,0,0,1,.054.7c0,.108-.054.216-.054.324a.767.767,0,0,1-.108.324l-.162.324a.539.539,0,0,1-.27.216,2.63,2.63,0,0,1-.378.162c.216,1.133.378,2.05.539,2.859l-1.187-.162-.324-2.7h-.162l-.324,2.589Zm1.564-3.128.324.054c.108,0,.162,0,.216-.054a.745.745,0,0,0,.162-.216c.054-.108.054-.162.108-.216,0-.054.054-.162.054-.216v-.431a.381.381,0,0,0-.324-.324l-.378-.054Z" transform="translate(-123.594 -58.838)" fill="#ededed"/>
            <path id="Trazado_719067" data-name="Trazado 719067" d="M154.5,66.478l2.7-5.178.971.27-.324,5.825-1.079-.27.108-1.241-.7-.216-.539,1.133Zm1.888-1.51.593.162.27-2.1Z" transform="translate(-127.694 -59.898)" fill="#ededed"/>
            <path id="Trazado_719068" data-name="Trazado 719068" d="M164.1,69.286,166.257,64l1.079.431L165.5,68.962l1.025.431-.324.755Z" transform="translate(-132.116 -61.141)" fill="#ededed"/>
          </g>
          <g id="Grupo_1017311" data-name="Grupo 1017311" transform="translate(5.448 82.036)">
            <path id="Trazado_719069" data-name="Trazado 719069" d="M114.9,218.647l1.672-5.448.809.216.324,3.236.863-2.859.917.27-1.672,5.447-.755-.216-.27-3.4-.917,3.02Z" transform="translate(-114.9 -211.906)" fill="#ededed"/>
            <path id="Trazado_719070" data-name="Trazado 719070" d="M124.7,221.494l2.211-5.394,1.025.162.216,5.825-1.133-.216v-1.241l-.755-.108-.431,1.187Zm1.78-1.672.593.108.108-2.1Z" transform="translate(-119.414 -213.241)" fill="#ededed"/>
            <path id="Trazado_719071" data-name="Trazado 719071" d="M135.885,222.817l.324-4.8-.809-.054.054-.863,2.8.162-.054.863-.809-.054-.324,4.8Z" transform="translate(-124.343 -213.702)" fill="#ededed"/>
            <path id="Trazado_719072" data-name="Trazado 719072" d="M144.116,220.922l-.216-3.56,1.133-.054.216,3.56a.927.927,0,0,0,.054.431.684.684,0,0,0,.054.324,2.335,2.335,0,0,0,.054.27c0,.054.054.108.108.162s.108.108.162.108h.216c.108,0,.162,0,.216-.054.054,0,.108-.054.162-.108a.2.2,0,0,0,.054-.162,2.335,2.335,0,0,0,.054-.27v-.755h0l-.216-3.56,1.133-.054.216,3.56v.485a1.493,1.493,0,0,1-.054.485,1.016,1.016,0,0,1-.108.432c-.054.108-.108.27-.162.378a.65.65,0,0,1-.27.27,3.2,3.2,0,0,1-.431.216,1.6,1.6,0,0,1-.539.108,1.662,1.662,0,0,1-.539-.054,3.712,3.712,0,0,1-.431-.162,1.429,1.429,0,0,1-.324-.27,1.128,1.128,0,0,1-.216-.324,3.72,3.72,0,0,1-.162-.431c-.054-.162-.054-.324-.108-.431A2.023,2.023,0,0,1,144.116,220.922Z" transform="translate(-128.259 -213.748)" fill="#ededed"/>
            <path id="Trazado_719073" data-name="Trazado 719073" d="M154.925,221.979,153.9,216.37l1.241-.216a3.819,3.819,0,0,1,.755-.054,1.087,1.087,0,0,1,.593.162,1.454,1.454,0,0,1,.431.378,1.8,1.8,0,0,1,.27.647c0,.108.054.216.054.324v.324c0,.108-.054.216-.054.324l-.162.324c-.108.108-.162.216-.324.27.539,1.025.971,1.834,1.348,2.535l-1.187.216-1.133-2.481-.162.054.485,2.589Zm.539-3.452.324-.054a.28.28,0,0,0,.216-.108.412.412,0,0,0,.108-.27v-.485c0-.054-.054-.108-.054-.216a.409.409,0,0,0-.108-.216c-.054-.054-.108-.162-.162-.216a.324.324,0,0,0-.216-.054l-.378.054Z" transform="translate(-132.865 -213.241)" fill="#ededed"/>
            <path id="Trazado_719074" data-name="Trazado 719074" d="M165.085,219.795l-.485-5.771.971-.324,2.859,5.07-1.079.324-.593-1.079-.7.216.162,1.241Zm.809-2.265.539-.162-.917-1.942Z" transform="translate(-137.794 -212.136)" fill="#ededed"/>
            <path id="Trazado_719075" data-name="Trazado 719075" d="M173.865,216.517l-2.265-5.232,1.079-.485,1.942,4.477,1.025-.431.324.7Z" transform="translate(-141.018 -210.8)" fill="#ededed"/>
          </g>
        </g>
        <circle id="Elipse_5887" data-name="Elipse 5887" cx="34.087" cy="34.087" r="34.087" transform="translate(32.523 20.928)" fill="#ededed"/>
        <circle id="Elipse_5888" data-name="Elipse 5888" cx="32.793" cy="32.793" r="32.793" transform="translate(33.818 22.223)" fill="url(#radial-gradient)"/>
        <g id="Grupo_1017313" data-name="Grupo 1017313" transform="translate(97.354 33.373)">
          <path id="Trazado_719076" data-name="Trazado 719076" d="M199.4,143.645s.324,0,.917-.054a31.363,31.363,0,0,0,20.549-11.38c9.277-11.219,6.149-20.334,14.347-29.611a12.618,12.618,0,0,0-3.452,1.564c-3.452,2-9.061,6.472-14.886,16.181C207.436,136.094,204.038,140.733,199.4,143.645Z" transform="translate(-199.4 -102.585)" fill="url(#linear-gradient-15)"/>
          <path id="Trazado_719077" data-name="Trazado 719077" d="M199.4,143.632c4.638-2.966,8.036-7.6,17.475-23.3,5.825-9.708,11.488-14.185,14.886-16.181a15.258,15.258,0,0,1,3.452-1.564s-17.745-.971-26.536,12.783c-7.875,12.3-5.447,22.222-8.09,26.86A3.681,3.681,0,0,1,199.4,143.632Z" transform="translate(-199.4 -102.572)" fill="url(#linear-gradient-16)"/>
          <path id="Trazado_719078" data-name="Trazado 719078" d="M199.4,144.7s.324,0,.917-.054a12.124,12.124,0,0,0,1.133-.917,16.388,16.388,0,0,0,1.942-1.942c.7-.809,1.4-1.672,2.157-2.7,1.456-2,3.02-4.369,4.638-6.9s3.4-5.232,5.124-7.929c.863-1.348,1.726-2.7,2.643-3.991.863-1.294,1.78-2.589,2.7-3.829a62.31,62.31,0,0,1,5.34-6.418c.863-.863,1.672-1.672,2.427-2.319a18.951,18.951,0,0,1,2.05-1.564,7.509,7.509,0,0,1,1.4-.755,2.63,2.63,0,0,0,.378-.162c.108,0,.108-.054.108-.054.054,0,.108-.108.162-.162a.116.116,0,0,0-.108-.108.417.417,0,0,0-.162.054,1.958,1.958,0,0,0-.378.162h-.054a13.281,13.281,0,0,0-1.4.755,19,19,0,0,0-2.1,1.564c-.809.647-1.618,1.456-2.535,2.319a64.591,64.591,0,0,0-5.555,6.472c-.917,1.241-1.834,2.535-2.751,3.829s-1.78,2.643-2.7,3.991c-1.78,2.7-3.56,5.34-5.232,7.875s-3.236,4.854-4.692,6.8a27.7,27.7,0,0,1-2.05,2.535,17.2,17.2,0,0,1-1.78,1.726,1.429,1.429,0,0,1-.324.27A4.836,4.836,0,0,1,199.4,144.7Z" transform="translate(-199.4 -103.645)" fill="url(#linear-gradient-17)"/>
        </g>
        <g id="Grupo_1017314" data-name="Grupo 1017314" transform="translate(0 33.373)">
          <path id="Trazado_719079" data-name="Trazado 719079" d="M54.713,143.645s-.324,0-.917-.054a31.363,31.363,0,0,1-20.55-11.38C23.97,120.992,27.1,111.877,18.9,102.6a12.618,12.618,0,0,1,3.452,1.564c3.452,2,9.061,6.472,14.886,16.181C46.677,136.094,50.075,140.733,54.713,143.645Z" transform="translate(-18.9 -102.585)" fill="url(#linear-gradient-18)"/>
          <path id="Trazado_719080" data-name="Trazado 719080" d="M54.713,143.632c-4.638-2.966-8.036-7.6-17.475-23.3-5.825-9.708-11.488-14.185-14.886-16.181a15.259,15.259,0,0,0-3.452-1.564s17.745-.971,26.536,12.783c7.875,12.3,5.448,22.222,8.09,26.86A4.975,4.975,0,0,0,54.713,143.632Z" transform="translate(-18.9 -102.572)" fill="url(#linear-gradient-19)"/>
          <path id="Trazado_719081" data-name="Trazado 719081" d="M57.017,144.7s-.324,0-.917-.054a12.127,12.127,0,0,1-1.133-.917,16.389,16.389,0,0,1-1.942-1.942c-.7-.809-1.4-1.672-2.157-2.7-1.456-2-3.02-4.369-4.638-6.9s-3.4-5.232-5.124-7.929c-.863-1.348-1.726-2.7-2.643-3.991-.863-1.294-1.78-2.589-2.7-3.829a62.309,62.309,0,0,0-5.34-6.418c-.863-.863-1.672-1.672-2.427-2.319a18.953,18.953,0,0,0-2.05-1.564,7.509,7.509,0,0,0-1.4-.755,2.628,2.628,0,0,1-.378-.162c-.108,0-.108-.054-.108-.054-.054,0-.108-.108-.162-.162a.116.116,0,0,1,.108-.108.417.417,0,0,1,.162.054,1.958,1.958,0,0,1,.378.162H24.6a13.281,13.281,0,0,1,1.4.755,19,19,0,0,1,2.1,1.564c.809.647,1.618,1.456,2.535,2.319a64.589,64.589,0,0,1,5.555,6.472c.917,1.241,1.834,2.535,2.751,3.829s1.78,2.643,2.7,3.991c1.78,2.7,3.56,5.34,5.232,7.875s3.236,4.854,4.692,6.8a27.7,27.7,0,0,0,2.05,2.535,17.2,17.2,0,0,0,1.78,1.726,1.43,1.43,0,0,0,.324.27A6.909,6.909,0,0,0,57.017,144.7Z" transform="translate(-21.203 -103.645)" fill="url(#linear-gradient-20)"/>
        </g>
        <g id="Grupo_1017315" data-name="Grupo 1017315" transform="translate(40.978 59.095)">
          <path id="Trazado_719082" data-name="Trazado 719082" d="M101.253,156.849c0,.162.054.431.054.755a3.571,3.571,0,0,0,.054.809v2.265a4.082,4.082,0,0,1-.054.809c0,.216-.054.485-.054.755-.054.27-.054.539-.108.755a6.31,6.31,0,0,1-.27,1.079,3.577,3.577,0,0,1-.485,1.025,2.622,2.622,0,0,1-.7.809,2.052,2.052,0,0,1-.917.431,2.244,2.244,0,0,1-1.187-.054,2.828,2.828,0,0,1-.971-.539,2.388,2.388,0,0,1-.647-.809,4.133,4.133,0,0,1-.378-.917c-.108-.324-.162-.647-.27-1.079a25.311,25.311,0,0,1-.431-5.717c0-.054.054-1.079.162-3.182v-.7a5.235,5.235,0,0,1,.108-.485c0-.108.054-.162.054-.27,0-.054.054-.108.054-.216a.28.28,0,0,1,.108-.216c.054-.054.054-.162.108-.216a2.353,2.353,0,0,1,.917-.863,1.875,1.875,0,0,1,1.187-.216,1.041,1.041,0,0,1,.539-.162c.216.054.378.108.593.162a3.274,3.274,0,0,1,.539.378,2.06,2.06,0,0,1,.485.485c.108.162.27.324.378.485a5.439,5.439,0,0,1,.917,2.05C101.091,154.961,101.2,155.878,101.253,156.849Zm-1.618,7.227a10.361,10.361,0,0,0,.539-2.8,17.045,17.045,0,0,0-.054-2.913,10.343,10.343,0,0,0-.054-1.079,7.643,7.643,0,0,0-.054-1.241,3.984,3.984,0,0,0-.162-1.025,3.486,3.486,0,0,0-.324-1.133,4.066,4.066,0,0,0-.809-1.241,2.346,2.346,0,0,1-.324-.378.422.422,0,0,1-.431-.054,1.179,1.179,0,0,1-.27-.162.429.429,0,0,1-.539-.108.86.86,0,0,0-.647.216.954.954,0,0,0-.378.593,2.707,2.707,0,0,0-.108.647,2.419,2.419,0,0,0-.054.593,3.87,3.87,0,0,1-.054.7v.647a29.387,29.387,0,0,0,.108,5.987,23.487,23.487,0,0,0,.539,2.8,1.584,1.584,0,0,0,1.4,1.187A1.614,1.614,0,0,0,99.635,164.076Z" transform="translate(-94.876 -150.465)" fill="#fff"/>
          <path id="Trazado_719083" data-name="Trazado 719083" d="M114.071,163.2c.162.647.27,1.294.431,1.78a9.212,9.212,0,0,0,.485,1.456.454.454,0,0,1-.27.647.565.565,0,0,1-.7-.054l-.378-.378a.5.5,0,0,1-.054-.647,17.781,17.781,0,0,1-.647-2.589c-.27-1.133-.431-1.834-.539-2.211-.108-.324-.216-.809-.378-1.4s-.27-1.079-.378-1.4v.809c0,.755,0,1.834.054,3.344s.054,2.589.054,3.344a.566.566,0,0,1-.27.485.584.584,0,0,1-.593,0,.472.472,0,0,1-.27-.485c0-.7,0-1.834-.054-3.452s-.054-2.751,0-3.452c.108-2.859.216-5.016.27-6.472a.612.612,0,0,1-.162-.431.454.454,0,0,1,.216-.378,2.249,2.249,0,0,1,1.456-.324,2.969,2.969,0,0,1,1.348.539,2.5,2.5,0,0,1,.971,1.133,2.805,2.805,0,0,1,.27,1.456,2.4,2.4,0,0,1-.755,1.564,4.64,4.64,0,0,1-1.726.755l.054.216a3.439,3.439,0,0,1,.108.378,3.437,3.437,0,0,0,.108.378c.054.27.162.7.324,1.241l.755,2.7C113.856,162.014,113.963,162.5,114.071,163.2Zm-.431-8.306a1.8,1.8,0,0,0,.054-1.187,2.052,2.052,0,0,0-.7-.971,1.479,1.479,0,0,0-1.133-.324c0,.917,0,2-.054,3.29a2.335,2.335,0,0,1,.27-.054.8.8,0,0,1,.324-.054,2.336,2.336,0,0,1,.27-.054c.108-.054.216-.054.324-.108a.412.412,0,0,1,.27-.108.745.745,0,0,0,.216-.162C113.532,155.056,113.586,155,113.64,154.894Z" transform="translate(-102.085 -150.776)" fill="#fff"/>
          <path id="Trazado_719084" data-name="Trazado 719084" d="M122.762,161.79a52.851,52.851,0,0,1,.324-6.041,8.028,8.028,0,0,1,.054-.917c.054-.539.108-.863.108-1.079a7.492,7.492,0,0,0,.162-.917,10.181,10.181,0,0,1,.324-.971,2.552,2.552,0,0,1,1.187-1.294,1.961,1.961,0,0,1,1.726.108,2.42,2.42,0,0,1,1.241,1.4,6.369,6.369,0,0,1,.27,2.157.427.427,0,0,1-.27.431.4.4,0,0,1-.485,0,.48.48,0,0,1-.27-.431,2.222,2.222,0,0,0-.054-.647,5.667,5.667,0,0,0-.108-.7c-.054-.27-.162-.485-.216-.7a1.1,1.1,0,0,0-.432-.432,1.321,1.321,0,0,0-.647-.216.911.911,0,0,0-.539.162,1.26,1.26,0,0,0-.378.378,1.519,1.519,0,0,0-.216.593,3.353,3.353,0,0,1-.162.539c0,.108-.054.324-.054.539a55.745,55.745,0,0,0-.539,7.875v1.079c0,.216.054.324.054.431s.054.216.054.378c.054.162.054.324.108.378a.767.767,0,0,1,.108.324,1.794,1.794,0,0,0,.162.324c.054.108.162.162.27.27.216.162.485.324.755.485a.77.77,0,0,0,.755.054,1.753,1.753,0,0,0,.7-.971,9.827,9.827,0,0,0,.539-2.319c.108-.7.108-1.079.162-1.241a1.541,1.541,0,0,0,0-.755c0-.054-.054-.108-.054-.216h-.216a3.433,3.433,0,0,0-.378-.108.944.944,0,0,0-.27-.054h-.054a2.446,2.446,0,0,1-.431-.108,1.128,1.128,0,0,1-.324-.216.49.49,0,0,1-.162-.378.438.438,0,0,1,.216-.432.2.2,0,0,1,.162-.054h.162a.2.2,0,0,1,.162.054.417.417,0,0,0,.162.054,2.733,2.733,0,0,0,.7.108,3.44,3.44,0,0,1,.485.108.583.583,0,0,1,.378.162,2.345,2.345,0,0,1,.378.324.455.455,0,0,1,.108.378,1.6,1.6,0,0,1,.108.755,3.316,3.316,0,0,1-.054.755,7.073,7.073,0,0,1-.162.809c-.054.378-.108.593-.108.647q-.081.728-.162,1.133a7,7,0,0,1-.324,1.025,3.2,3.2,0,0,1-.593,1.025,2.061,2.061,0,0,1-1.672.7,2.657,2.657,0,0,1-1.726-.755,3.842,3.842,0,0,1-.809-1.187,4.641,4.641,0,0,1-.378-1.348A3.021,3.021,0,0,0,122.762,161.79Z" transform="translate(-107.647 -150.336)" fill="#fff"/>
          <path id="Trazado_719085" data-name="Trazado 719085" d="M143.663,162.294a20.017,20.017,0,0,0,.539,3.56.749.749,0,0,1-.108.593.517.517,0,0,1-.539.162.458.458,0,0,1-.378-.378,20.147,20.147,0,0,1-.539-3.452,13.371,13.371,0,0,0-.162-1.456,7.324,7.324,0,0,0-1.294-.054c-.7.054-1.079.054-1.079.054a20.937,20.937,0,0,0-.485,2.7c0,.108-.054.27-.054.485s-.054.378-.054.539c0,.108-.054.27-.054.485-.054.162-.054.378-.108.539a3.715,3.715,0,0,1-.162.431.48.48,0,0,1-.863,0,.618.618,0,0,1-.054-.539,4.445,4.445,0,0,0,.27-1.51c.054-.7.108-1.133.108-1.241.216-1.241.485-2.535.809-3.937.054-.216.108-.593.27-1.241s.27-1.079.324-1.348.162-.647.27-1.187.216-.971.324-1.348c.108-.324.216-.755.324-1.187s.27-.863.378-1.294c.108-.27.27-.431.539-.378a.587.587,0,0,1,.539.378c.054.216.108.378.162.593s.054.431.108.647c0,.216.054.432.054.647a2.85,2.85,0,0,0,.054.647,2.222,2.222,0,0,0,.054.647c0,.216.054.485.054.755a3.642,3.642,0,0,0,.108.755c.054.27.054.485.108.7s.054.485.108.755.054.539.108.755c.054.27.108.809.216,1.726A18.414,18.414,0,0,0,143.663,162.294Zm-2.1-2.1a1.3,1.3,0,0,1,.647,0c0-.162-.054-.324-.054-.647a2.9,2.9,0,0,1-.054-.593c-.054-.162-.108-.755-.216-1.672s-.216-1.672-.27-2.157v-.647c-.216.863-.647,2.7-1.241,5.448a.949.949,0,0,1-.054.324A11.866,11.866,0,0,1,141.56,160.191Z" transform="translate(-114.849 -150.732)" fill="#fff"/>
          <path id="Trazado_719086" data-name="Trazado 719086" d="M158.167,165.313a.526.526,0,0,1-.216.485.618.618,0,0,1-.539.054.533.533,0,0,1-.378-.378c-1.564-4.854-2.643-8.09-3.128-9.762.054.917.162,2.589.27,4.854.162,2.319.27,4.1.27,5.34a.472.472,0,0,1-.27.485.582.582,0,0,1-.593,0,.518.518,0,0,1-.324-.485c-.054-.324-.054-.593-.108-.755-.054-.108,0-.216,0-.27-.054-.917-.108-2.265-.216-4.045s-.216-3.4-.27-4.854-.054-2.8,0-4.1a.456.456,0,0,1,.108-.324.3.3,0,0,1,.27-.162h.324a.3.3,0,0,1,.27.162.766.766,0,0,1,.108.324v.162c.539,1.618,1.618,5.016,3.29,10.086.162-2.157.216-3.56.216-4.207v-2.913a12.7,12.7,0,0,1,.054-1.348,11.488,11.488,0,0,1,.108-1.456.444.444,0,0,1-.054-.647,2.7,2.7,0,0,1,.378-.431c.216-.216.432-.27.647-.108a.769.769,0,0,1,.324.647,12.009,12.009,0,0,0-.27,1.942,18.147,18.147,0,0,0,0,2.427v2c0,.755-.054,1.888-.162,3.506C158.221,163.209,158.167,164.45,158.167,165.313Z" transform="translate(-121.478 -150.569)" fill="#fff"/>
          <path id="Trazado_719087" data-name="Trazado 719087" d="M167.662,152.471a.438.438,0,0,1-.431-.216.4.4,0,0,1,0-.485h0a.4.4,0,0,1,.431-.27c.054,0,.378.054.971.108s1.025.108,1.348.108a.566.566,0,0,1,.485.27.49.49,0,0,1,0,.539.518.518,0,0,1-.485.324H169.6c.054,2.535.054,4.531-.054,6.041,0,.378-.054.971-.054,1.78s-.054,1.456-.054,1.888v.593c0,.27-.054.431-.054.647v1.241c0,.216.054.378.054.593a1.6,1.6,0,0,0,.539-.108c.216-.054.432-.054.539.108a.587.587,0,0,1-.216.971,4.835,4.835,0,0,1-2.319-.054.409.409,0,0,1-.216-.108l-.162-.162a.6.6,0,0,1,0-.431c.054-.162.162-.216.324-.27a.408.408,0,0,1,.216-.054h.162a21.033,21.033,0,0,1,0-2.7c0-.432.054-1.079.054-1.942s.054-1.51.054-1.942c.054-.539.054-1.241.054-2v-2.211c0-.755,0-1.4.054-2a.408.408,0,0,1-.216-.054c-.108,0-.162-.054-.216-.054s-.108-.054-.162-.054a.188.188,0,0,1-.108-.054c-.054,0-.108-.054-.162-.054Z" transform="translate(-128.168 -150.833)" fill="#fff"/>
          <path id="Trazado_719088" data-name="Trazado 719088" d="M182.909,161.34a2.507,2.507,0,0,1,.27,1.133,4.6,4.6,0,0,1-.162,1.241,9.72,9.72,0,0,1-.431,1.133,3,3,0,0,1-1.294,1.4,2.008,2.008,0,0,1-1.834-.054,3.058,3.058,0,0,1-.7-.431,2.827,2.827,0,0,1-.539-.593,4.023,4.023,0,0,1-.378-.647,5.862,5.862,0,0,1-.27-.755c-.054-.324-.108-.539-.162-.755s-.054-.485-.108-.809V159.83c0-1.78.054-3.829.108-6.095a7.292,7.292,0,0,1,.378-2,2.223,2.223,0,0,1,1.187-1.241,2,2,0,0,1,1.187-.216,2.486,2.486,0,0,1,.917.485,2.343,2.343,0,0,1,.647.917,4.66,4.66,0,0,1,.378,1.133,4.028,4.028,0,0,1,.162,1.079.491.491,0,0,1-.216.431.524.524,0,0,1-.485.054.342.342,0,0,1-.27-.324,8.182,8.182,0,0,0-.485-1.888,1.469,1.469,0,0,0-.431-.539.811.811,0,0,0-.593-.216.932.932,0,0,0-.647.324,2.47,2.47,0,0,0-.378.755,2.377,2.377,0,0,0-.162.755,5.674,5.674,0,0,0,0,.971v.755c-.054,2.211-.108,3.668-.108,4.315v1.942a4.359,4.359,0,0,0,.054.863,4.031,4.031,0,0,0,.755,2.535c.485.485.917.7,1.294.593a1.667,1.667,0,0,0,.971-1.025c.485-1.133.593-1.888.324-2.319a.584.584,0,0,1,0-.593.566.566,0,0,1,.485-.27A1.119,1.119,0,0,1,182.909,161.34Z" transform="translate(-132.844 -150.264)" fill="#fff"/>
        </g>
        <g id="Grupo_1017316" data-name="Grupo 1017316" transform="translate(47.969 35.454)">
          <path id="Trazado_719089" data-name="Trazado 719089" d="M109,109.543a.554.554,0,0,1-.917,0,.586.586,0,0,1-.054-.917c.162-.162.431-.485.809-.917s.7-.755.917-1.025a.594.594,0,0,1,.809-.162.827.827,0,0,1,.485.647c.054,1.564.108,2.751.108,3.614,0,.809-.054,2.05-.162,3.614-.054,1.564-.108,2.751-.108,3.56a47.821,47.821,0,0,0,.27,5.232c.108,1.241.162,2.157.216,2.751v.809a.4.4,0,0,1-.054.27c0,.108-.054.162-.108.27s-.108.162-.162.27a.643.643,0,0,1-.755.216.69.69,0,0,1-.539-.539c0-.054,0-.054-.054-.108a.878.878,0,0,1,.054-.647,5.59,5.59,0,0,1-.054-.863c0-.324-.054-.809-.108-1.4-.054-.539-.108-1.348-.216-2.427a47.161,47.161,0,0,1-.108-4.854c0-.324.054-1.456.108-3.4.054-2,.108-3.506.108-4.531Z" transform="translate(-107.837 -106.431)" fill="#fff"/>
          <path id="Trazado_719090" data-name="Trazado 719090" d="M123.142,128.027a3.354,3.354,0,0,1-2.7-2.1,11.332,11.332,0,0,1-.7-2.751,13.57,13.57,0,0,1-.162-2.913c.054-.917.054-1.834.054-2.859a20.314,20.314,0,0,1,1.348-7.389,5.338,5.338,0,0,1,1.618-2.265.585.585,0,0,1,.431-.431c.378-.108.755-.162,1.025-.216a1.906,1.906,0,0,1,.917.216,4.073,4.073,0,0,1,.755.593,3.143,3.143,0,0,1,.593.809,4.084,4.084,0,0,1,.485.971,5.749,5.749,0,0,1,.378,1.025c.108.378.216.755.27,1.025s.162.593.216.863a29.968,29.968,0,0,1,.431,6.742v.863a3.628,3.628,0,0,1-.054.971,6.82,6.82,0,0,1-.054.863,4.551,4.551,0,0,1-.108,1.025,8.463,8.463,0,0,0-.162.863,3.7,3.7,0,0,1-.27.917,3.3,3.3,0,0,1-.378.755,4.682,4.682,0,0,1-1.726,1.834A2.85,2.85,0,0,1,123.142,128.027ZM121.417,113.9a45.627,45.627,0,0,0-.27,6.257,18.021,18.021,0,0,0,.324,3.991c.324,1.51.863,2.319,1.618,2.319a2.421,2.421,0,0,0,2.157-.863,4.964,4.964,0,0,0,1.025-2.427,33.72,33.72,0,0,0,.162-7.443c-.054-.378-.054-.7-.108-1.025s-.108-.755-.162-1.4q-.162-.971-.324-1.618a7.693,7.693,0,0,0-.485-1.456,2.906,2.906,0,0,0-.7-1.133,1.034,1.034,0,0,0-.917-.324c-.485.108-.917.647-1.294,1.51A16.334,16.334,0,0,0,121.417,113.9Z" transform="translate(-113.238 -106.739)" fill="#fff"/>
          <path id="Trazado_719091" data-name="Trazado 719091" d="M143.842,128.027a3.354,3.354,0,0,1-2.7-2.1,11.331,11.331,0,0,1-.7-2.751,13.57,13.57,0,0,1-.162-2.913c.054-.917.054-1.834.054-2.859a20.314,20.314,0,0,1,1.348-7.389,5.338,5.338,0,0,1,1.618-2.265.585.585,0,0,1,.431-.431c.378-.108.755-.162,1.025-.216a1.906,1.906,0,0,1,.917.216,4.073,4.073,0,0,1,.755.593,3.142,3.142,0,0,1,.593.809,4.084,4.084,0,0,1,.485.971,5.751,5.751,0,0,1,.378,1.025c.108.378.216.755.27,1.025s.162.593.216.863a29.967,29.967,0,0,1,.431,6.742v.863a3.629,3.629,0,0,1-.054.971,6.821,6.821,0,0,1-.054.863,4.552,4.552,0,0,1-.108,1.025,8.46,8.46,0,0,0-.162.863,3.7,3.7,0,0,1-.27.917,3.294,3.294,0,0,1-.378.755,4.682,4.682,0,0,1-1.726,1.834A2.8,2.8,0,0,1,143.842,128.027ZM142.17,113.9a45.627,45.627,0,0,0-.27,6.257,18.022,18.022,0,0,0,.324,3.991c.324,1.51.863,2.319,1.618,2.319A2.421,2.421,0,0,0,146,125.6a4.964,4.964,0,0,0,1.025-2.427,33.72,33.72,0,0,0,.162-7.443c-.054-.378-.054-.7-.108-1.025s-.108-.755-.162-1.4q-.162-.971-.324-1.618a7.691,7.691,0,0,0-.485-1.456,2.906,2.906,0,0,0-.7-1.133,1.034,1.034,0,0,0-.917-.324c-.485.108-.917.647-1.294,1.51A13.864,13.864,0,0,0,142.17,113.9Z" transform="translate(-122.773 -106.739)" fill="#fff"/>
          <path id="Trazado_719092" data-name="Trazado 719092" d="M163.572,112.014a1.252,1.252,0,0,1-1.4.216,2,2,0,0,1-.971-1.187,4.1,4.1,0,0,1-.216-1.834,4.839,4.839,0,0,1,.485-1.78.617.617,0,0,1,.7-.324,1.609,1.609,0,0,1,1.888.108c.108,0,.593-.108,1.348-.27a6.092,6.092,0,0,1,1.834-.162.684.684,0,0,1,.485.216.625.625,0,0,1,.216.539,5.457,5.457,0,0,1-.216,1.564c-.162.539-.324,1.133-.539,1.78s-.378,1.187-.485,1.51q-.081.485-1.133,5.34c-.216,1.025-.593,3.02-1.025,5.987a24.936,24.936,0,0,1-.647,2.913l-.162.539a1.016,1.016,0,0,1-.108.431.777.777,0,0,1-.7.432c-.27,0-.485-.054-.593-.27a1.493,1.493,0,0,1-.162-.7,1.865,1.865,0,0,1,.162-.647,2.311,2.311,0,0,0,.162-.539,20.989,20.989,0,0,0,.593-2.913c.324-2.265.7-4.153,1.025-5.663a14.154,14.154,0,0,1,.324-1.618c.108-.647.27-1.241.378-1.78s.27-1.025.378-1.618a15.7,15.7,0,0,1,.593-1.834,11.183,11.183,0,0,0,.593-2.157c-.378.054-.971.108-1.726.27A3.313,3.313,0,0,1,163.572,112.014Zm-.917-1.241c0,.054.054.054.054.108a2.017,2.017,0,0,0,.7-1.672,1.34,1.34,0,0,0-.054-.431,4.082,4.082,0,0,1-.809-.054,4.242,4.242,0,0,0-.108,1.241A1.455,1.455,0,0,0,162.655,110.774Zm4.908,11.488a1.548,1.548,0,0,1,1.726,1.133,4.132,4.132,0,0,1,.162,2.8,2.317,2.317,0,0,1-1.564,1.834,1.5,1.5,0,0,1-1.834-.593,3.7,3.7,0,0,1-.647-2.211,5.232,5.232,0,0,1,.054-.917,8.764,8.764,0,0,1,.216-1.025,1.742,1.742,0,0,1,.539-.917,1,1,0,0,1,.863-.27A.41.41,0,0,1,167.564,122.262Zm-.054,4.261c.324-.216.485-.755.593-1.618.054-.809-.054-1.241-.378-1.187-.054,0-.108.054-.162.054a1.493,1.493,0,0,1-.485.054c0,.054-.054.108-.108.216a5.04,5.04,0,0,0-.108,1.241c0,.7.108,1.187.378,1.348C167.294,126.577,167.4,126.577,167.51,126.523Z" transform="translate(-132.309 -106.584)" fill="#fff"/>
        </g>
      </g>
    </g>
  </g>
</svg>
