<svg xmlns="http://www.w3.org/2000/svg" width="380.023" height="272.648" viewBox="0 0 380.023 272.648">
  <g id="_12" data-name="12" transform="translate(-0.119 -10.016)">
    <path id="Trazado_820702" data-name="Trazado 820702" d="M380.023,311h0Z" transform="translate(0.119 -28.336)" fill="#fff"/>
    <g id="Grupo_1072011" data-name="Grupo 1072011" transform="translate(27.804 10.015)">
      <g id="Grupo_1072010" data-name="Grupo 1072010">
        <path id="Trazado_820507" data-name="Trazado 820507" d="M501.336,166.092c-9.012-4.864-.007-41.5-31.441-53.916-27.583-10.893-50.014,1.244-55.034-21.038C405.375,49.032,298.747,74.853,273.87,86.13c-80.9,36.675-76.5,115.465-76.5,127.464v67.339L510.4,283.476c3.569.007,11.34-9.951,14.783-30.413l-1.1-45.817a50.481,50.481,0,0,0-6.135-24.277A41.14,41.14,0,0,0,501.336,166.092Z" transform="translate(-197.31 -67.918)" fill="#6ea7ce"/>
        <path id="Trazado_820508" data-name="Trazado 820508" d="M1490.465,1087.91c-26.877,4.472-63.188,33.994-97.588,51.229v12.894l158.362.468v-25.354C1536.2,1107.47,1513.145,1084.137,1490.465,1087.91Z" transform="translate(-1224.466 -943.896)" fill="#45ad92"/>
        <g id="Grupo_1071968" data-name="Grupo 1071968" transform="translate(231.022 56.058)">
          <path id="Trazado_820509" data-name="Trazado 820509" d="M1928.009,948.445c.014-.489.69-.869,1.047-.435s.342.14.689,1.075a30.366,30.366,0,0,0,4.171,7.551,31.5,31.5,0,0,0,10.184,8.716,29.2,29.2,0,0,1-2.659-10.731,8.575,8.575,0,0,1,.552-3.957.462.462,0,0,1,.837.11c.309,1.9-.146,3.326.468,6.72,1.464,8.1,7.261,16.688,12.852,22.7-1.072-10.183-1.592-21.755.326-32.026.315-1.685.814-3.287,1.279-4.933a.307.307,0,0,1,.592.164c-.1.548-1.01,7.615-1.065,8.1a126.045,126.045,0,0,0-.02,24.389,48.852,48.852,0,0,0,8.6-19.918c.4-2.12.508-4.31,1.071-6.391.077-.287.551-.317.61,0,.578,3.118-.579,8.634-1.422,11.631a47.881,47.881,0,0,1-8.181,16.381c-.145.189,6,47.714,5.838,48.316-.279,1.015-2.047,1.727-2.321-.073-.112-.733-3.49-29.63-5.015-43.015-.576-.318-.946-.882-2.428-2.547a64.112,64.112,0,0,1-9.087-13.174c-1.36-.077-11.181-4.856-16.053-15.737-.141-.314-.773-1.787-.864-2.115A2.548,2.548,0,0,1,1928.009,948.445Z" transform="translate(-1915.217 -875.817)" fill="#184655"/>
          <path id="Trazado_820510" data-name="Trazado 820510" d="M2151.123,657.343q-.169-2.194-.17-4.481c0-16.975,7.2-30.736,16.092-30.736s16.093,13.761,16.093,30.736q0,2.283-.17,4.481Z" transform="translate(-2106.789 -600.124)" fill="#50bfa5"/>
          <path id="Trazado_820511" data-name="Trazado 820511" d="M2021.823,515.581q-.167-3.094-.17-6.319c0-23.939,7.2-43.346,16.092-43.346s16.092,19.406,16.092,43.346q0,3.22-.17,6.319Z" transform="translate(-1995.701 -465.916)" fill="#96d9c9"/>
          <path id="Trazado_820512" data-name="Trazado 820512" d="M1869.412,792.289q.169-2.194.171-4.481c0-16.975-7.2-30.736-16.092-30.736s-16.092,13.761-16.092,30.736q0,2.283.17,4.481Z" transform="translate(-1837.399 -716.063)" fill="#96d9c9"/>
          <path id="Trazado_820513" data-name="Trazado 820513" d="M1999.989,704.159q.213-3.094.215-6.319c0-23.939-9.133-43.346-20.4-43.346s-20.4,19.407-20.4,43.346q0,3.22.215,6.319Z" transform="translate(-1942.22 -627.933)" fill="#50bfa5"/>
          <path id="Trazado_820514" data-name="Trazado 820514" d="M2025.928,654.5c5.631,0,10.661,6.157,13.981,15.812a11.434,11.434,0,0,1,5.349-1.364c10,0,18.1,13.761,18.1,30.736q0,2.283-.191,4.481h-55.15q-.189-3.094-.191-6.319C2007.826,673.9,2015.93,654.5,2025.928,654.5Z" transform="translate(-1983.822 -627.935)" fill="#96d9c9"/>
        </g>
        <path id="Trazado_820515" data-name="Trazado 820515" d="M245.733,1177.91l2.707,21.879h-5.414Z" transform="translate(-236.572 -1021.567)" fill="#50bfa5"/>
        <path id="Trazado_820516" data-name="Trazado 820516" d="M289.133,1082.75l3.555,28.725h-7.109Z" transform="translate(-273.132 -939.81)" fill="#50bfa5"/>
        <g id="Grupo_1071969" data-name="Grupo 1071969" transform="translate(0 145.489)">
          <path id="Trazado_820517" data-name="Trazado 820517" d="M394.683,1162.237c-43.159,0-100.063-54.672-137.827-60.956-22.35-3.719-44.827,17.478-59.65,36.869v24.985l291.514-.861a138.981,138.981,0,0,1-18.314-1.914C454.22,1157.5,437.842,1162.237,394.683,1162.237Z" transform="translate(-197.206 -1100.853)" fill="#3c8f7c"/>
          <path id="Trazado_820518" data-name="Trazado 820518" d="M2279.393,1536.66l-12.512.037C2274.334,1537,2279.393,1536.66,2279.393,1536.66Z" transform="translate(-1975.366 -1475.277)" fill="#86b1f2"/>
        </g>
        <path id="Trazado_820519" data-name="Trazado 820519" d="M1319.9,954.271,1316.35,983h7.109Z" transform="translate(-1158.718 -829.428)" fill="#50bfa5"/>
        <path id="Trazado_820520" data-name="Trazado 820520" d="M1248.677,1027.98l-2.707,21.878h5.414Z" transform="translate(-1098.251 -892.755)" fill="#50bfa5"/>
        <path id="Trazado_820521" data-name="Trazado 820521" d="M1443.968,1112.16l-2.707,21.878h5.414Z" transform="translate(-1266.035 -965.078)" fill="#50bfa5"/>
        <path id="Trazado_820522" data-name="Trazado 820522" d="M1390.234,1016.99l-3.554,28.726h7.109Z" transform="translate(-1219.142 -883.313)" fill="#50bfa5"/>
        <path id="Trazado_820523" data-name="Trazado 820523" d="M589.353,1048.959s42.536-68.472,58.743-71.528,30.091,24.946,30.091,24.946a22.228,22.228,0,0,1,18.62-3.9c11.282,2.5,71.794,59.287,71.794,59.287l-182.353-2.274Z" transform="translate(-531.451 -849.126)" fill="#45ad92"/>
        <path id="Trazado_820524" data-name="Trazado 820524" d="M207.41,1310.48s41.4-35.966,94.791-38.175c17.927-.742,220.532,38.277,229.354,38.632Z" transform="translate(-205.973 -1102.658)" fill="#50bfa5"/>
        <g id="Grupo_1071970" data-name="Grupo 1071970" transform="translate(90.999 173.427)">
          <path id="Trazado_820525" data-name="Trazado 820525" d="M853.5,1325.54h-4.186V1301.2l2.093-2,2.093,2Z" transform="translate(-848.464 -1299.2)" fill="#fffbe3"/>
          <path id="Trazado_820526" data-name="Trazado 820526" d="M900.128,1325.54h-4.186V1301.2l2.093-2,2.093,2Z" transform="translate(-888.524 -1299.2)" fill="#fffbe3"/>
          <path id="Trazado_820527" data-name="Trazado 820527" d="M988.8,1325.54h-4.185V1301.2l2.093-2,2.092,2Z" transform="translate(-964.711 -1299.2)" fill="#fffbe3"/>
          <path id="Trazado_820528" data-name="Trazado 820528" d="M944.467,1325.54h-4.186V1301.2l2.093-2,2.093,2Z" transform="translate(-926.618 -1299.2)" fill="#fffbe3"/>
          <path id="Trazado_820529" data-name="Trazado 820529" d="M1035.435,1325.54h-4.184V1301.2l2.092-2,2.093,2Z" transform="translate(-1004.774 -1299.2)" fill="#fffbe3"/>
          <path id="Trazado_820530" data-name="Trazado 820530" d="M1124.106,1325.54h-4.186V1301.2l2.093-2,2.093,2Z" transform="translate(-1080.955 -1299.2)" fill="#fffbe3"/>
          <path id="Trazado_820531" data-name="Trazado 820531" d="M1079.775,1325.54h-4.185V1301.2l2.092-2,2.093,2Z" transform="translate(-1042.868 -1299.2)" fill="#fffbe3"/>
          <path id="Trazado_820532" data-name="Trazado 820532" d="M1170.736,1325.54h-4.186V1301.2l2.093-2,2.093,2Z" transform="translate(-1121.017 -1299.2)" fill="#fffbe3"/>
          <path id="Trazado_820533" data-name="Trazado 820533" d="M1259.415,1325.54h-4.185V1301.2l2.093-2,2.092,2Z" transform="translate(-1197.206 -1299.2)" fill="#fffbe3"/>
          <path id="Trazado_820534" data-name="Trazado 820534" d="M1215.076,1325.54h-4.186V1301.2l2.093-2,2.093,2Z" transform="translate(-1159.111 -1299.2)" fill="#fffbe3"/>
          <path id="Trazado_820535" data-name="Trazado 820535" d="M893.156,1356.76H843.275v1.341h69.877v-1.341Z" transform="translate(-843.275 -1348.653)" fill="#fffbe3"/>
          <path id="Trazado_820536" data-name="Trazado 820536" d="M893.156,1426.62H843.275v1.341h69.877v-1.341Z" transform="translate(-843.275 -1408.673)" fill="#fffbe3"/>
          <path id="Trazado_820537" data-name="Trazado 820537" d="M1306.045,1325.54h-4.185V1301.2l2.093-2,2.091,2Z" transform="translate(-1237.268 -1299.2)" fill="#fffbe3"/>
        </g>
        <g id="Grupo_1071972" data-name="Grupo 1071972" transform="translate(8.493 142.572)">
          <path id="Trazado_820538" data-name="Trazado 820538" d="M481.255,1113.05l33.122.262,1.022-2.219-31.944-30.943-31.388,3.655Z" transform="translate(-424.663 -1080.149)" fill="#9e4233"/>
          <path id="Trazado_820539" data-name="Trazado 820539" d="M468.678,1085.637l26.092-3.037,33.879,32.817-37.469-.364Z" transform="translate(-438.934 -1082.254)" fill="#b75742"/>
          <path id="Trazado_820540" data-name="Trazado 820540" d="M607.206,1285.71l-10.359,11.653,5.013,22.117,20.729-2.232,2.115-25.573Z" transform="translate(-549.051 -1256.755)" fill="#184655"/>
          <path id="Trazado_820541" data-name="Trazado 820541" d="M294.74,1379.947l35.342-4.114-5.2-25.583-35.342,4.114Z" transform="translate(-285.027 -1312.205)" fill="#eab054"/>
          <path id="Trazado_820542" data-name="Trazado 820542" d="M353.232,1395.675l12.55-1.461L361.9,1376.93l-12.55,1.461Z" transform="translate(-336.409 -1335.127)" fill="#082026"/>
          <path id="Trazado_820543" data-name="Trazado 820543" d="M508.3,1098.8l-2.091,2.927,28.654,27.417-1.356,26.348-13.305,1.4-2.312-19.862a8.648,8.648,0,0,0-9.59-7.59h0a8.648,8.648,0,0,0-7.59,9.59L503,1158.707l-12.053,1.27-10.728-42.692Z" transform="translate(-448.85 -1096.172)" fill="#f7cc7f"/>
          <path id="Trazado_820544" data-name="Trazado 820544" d="M367.56,1394l12.55-1.46-3.888-17.284-12.55,1.46Z" transform="translate(-348.718 -1333.693)" fill="#184655"/>
          <g id="Grupo_1071971" data-name="Grupo 1071971" transform="translate(40.373 5.937)" opacity="0.6">
            <path id="Trazado_820545" data-name="Trazado 820545" d="M692.658,1175.859l-.674.071-1.745-31.888-9.554-9.138,2.941,41.906-.338.035-.338.024-2.993-42.662L670.333,1125l2.23,24.892q-.343-.1-.7-.167l-2.279-25.437-2.091-2,.011,0,28.254,27.034-4.809-4.6Z" transform="translate(-650.123 -1122.291)" fill="#eab054"/>
            <path id="Trazado_820546" data-name="Trazado 820546" d="M611.069,1217.233q-.29.325-.547.678l-4.339-20.083.662-.143Z" transform="translate(-597.445 -1187.066)" fill="#eab054"/>
            <path id="Trazado_820547" data-name="Trazado 820547" d="M551.543,1331.932l-.677.072-6.723-32.225.663-.138Z" transform="translate(-544.143 -1274.661)" fill="#eab054"/>
          </g>
          <path id="Trazado_820548" data-name="Trazado 820548" d="M709.956,1308.5a.4.4,0,1,0,.352-.445A.4.4,0,0,0,709.956,1308.5Z" transform="translate(-646.226 -1275.949)" fill="#eab054"/>
          <path id="Trazado_820549" data-name="Trazado 820549" d="M746.754,1208.787a.4.4,0,1,0,.352-.446A.4.4,0,0,0,746.754,1208.787Z" transform="translate(-677.841 -1190.282)" fill="#eab054"/>
          <path id="Trazado_820550" data-name="Trazado 820550" d="M767.773,1232.537a.4.4,0,1,0,.352-.446A.4.4,0,0,0,767.773,1232.537Z" transform="translate(-695.9 -1210.687)" fill="#eab054"/>
          <path id="Trazado_820551" data-name="Trazado 820551" d="M820.989,1279.788a.4.4,0,1,0,.353-.445A.4.4,0,0,0,820.989,1279.788Z" transform="translate(-741.62 -1251.283)" fill="#eab054"/>
          <path id="Trazado_820552" data-name="Trazado 820552" d="M830.932,1491.2a.4.4,0,1,0,.352-.445A.4.4,0,0,0,830.932,1491.2Z" transform="translate(-750.163 -1432.914)" fill="#eab054"/>
          <path id="Trazado_820553" data-name="Trazado 820553" d="M784.942,1493.677a.4.4,0,1,0,.352-.445A.4.4,0,0,0,784.942,1493.677Z" transform="translate(-710.65 -1435.045)" fill="#eab054"/>
          <path id="Trazado_820554" data-name="Trazado 820554" d="M686.1,1304.107a.4.4,0,1,0,.352-.445A.4.4,0,0,0,686.1,1304.107Z" transform="translate(-625.726 -1272.176)" fill="#eab054"/>
          <path id="Trazado_820555" data-name="Trazado 820555" d="M641.588,1319.327a.4.4,0,1,0,.352-.445A.4.4,0,0,0,641.588,1319.327Z" transform="translate(-587.488 -1285.253)" fill="#eab054"/>
          <path id="Trazado_820556" data-name="Trazado 820556" d="M660.349,1309.967a.4.4,0,1,0,.352-.446A.4.4,0,0,0,660.349,1309.967Z" transform="translate(-603.606 -1277.211)" fill="#eab054"/>
          <path id="Trazado_820557" data-name="Trazado 820557" d="M617.854,1205.587a.4.4,0,1,0,.352-.445A.4.4,0,0,0,617.854,1205.587Z" transform="translate(-567.096 -1187.532)" fill="#eab054"/>
          <path id="Trazado_820558" data-name="Trazado 820558" d="M673.968,1142.017a.4.4,0,1,0,.352-.445A.4.4,0,0,0,673.968,1142.017Z" transform="translate(-615.307 -1132.916)" fill="#eab054"/>
          <path id="Trazado_820559" data-name="Trazado 820559" d="M621.722,1338.059a.4.4,0,1,0,.352-.445A.4.4,0,0,0,621.722,1338.059Z" transform="translate(-570.42 -1301.346)" fill="#eab054"/>
          <path id="Trazado_820560" data-name="Trazado 820560" d="M613.451,1361.3a.4.4,0,1,0-.366-.434A.4.4,0,0,0,613.451,1361.3Z" transform="translate(-563 -1321.011)" fill="#eab054"/>
          <path id="Trazado_820561" data-name="Trazado 820561" d="M612.9,1381.189a.4.4,0,1,0-.366-.434A.4.4,0,0,0,612.9,1381.189Z" transform="translate(-562.524 -1338.097)" fill="#eab054"/>
          <path id="Trazado_820562" data-name="Trazado 820562" d="M554.645,1308.5a.4.4,0,1,0-.366-.434A.4.4,0,0,0,554.645,1308.5Z" transform="translate(-512.477 -1275.648)" fill="#eab054"/>
          <path id="Trazado_820563" data-name="Trazado 820563" d="M538.611,1334.59a.4.4,0,1,0-.366-.435A.4.4,0,0,0,538.611,1334.59Z" transform="translate(-498.702 -1298.061)" fill="#eab054"/>
          <path id="Trazado_820564" data-name="Trazado 820564" d="M519.16,1368.58a.4.4,0,1,0-.366-.434A.4.4,0,0,0,519.16,1368.58Z" transform="translate(-481.99 -1327.264)" fill="#eab054"/>
          <path id="Trazado_820565" data-name="Trazado 820565" d="M482.336,1377.8a.4.4,0,1,0-.366-.434A.4.4,0,0,0,482.336,1377.8Z" transform="translate(-450.353 -1335.186)" fill="#eab054"/>
          <path id="Trazado_820566" data-name="Trazado 820566" d="M457.912,1380.64a.4.4,0,1,0-.366-.434A.4.4,0,0,0,457.912,1380.64Z" transform="translate(-429.369 -1337.625)" fill="#eab054"/>
          <path id="Trazado_820567" data-name="Trazado 820567" d="M427.479,1507.96a.4.4,0,1,0-.366-.435A.4.4,0,0,0,427.479,1507.96Z" transform="translate(-403.222 -1447.013)" fill="#eab054"/>
          <path id="Trazado_820568" data-name="Trazado 820568" d="M434.5,1538.82a.4.4,0,1,0-.366-.434A.4.4,0,0,0,434.5,1538.82Z" transform="translate(-409.253 -1473.526)" fill="#eab054"/>
          <path id="Trazado_820569" data-name="Trazado 820569" d="M373.971,1545.869a.4.4,0,1,0-.366-.434A.4.4,0,0,0,373.971,1545.869Z" transform="translate(-357.251 -1479.583)" fill="#eab054"/>
          <path id="Trazado_820570" data-name="Trazado 820570" d="M331.221,1393.6a.4.4,0,1,0-.366-.434A.4.4,0,0,0,331.221,1393.6Z" transform="translate(-320.523 -1348.761)" fill="#eab054"/>
          <path id="Trazado_820571" data-name="Trazado 820571" d="M298.245,1399.23a.4.4,0,1,0-.366-.434A.4.4,0,0,0,298.245,1399.23Z" transform="translate(-292.191 -1353.597)" fill="#eab054"/>
          <path id="Trazado_820572" data-name="Trazado 820572" d="M329.985,1552.4a.4.4,0,1,0-.366-.434A.4.4,0,0,0,329.985,1552.4Z" transform="translate(-319.461 -1485.193)" fill="#eab054"/>
          <path id="Trazado_820573" data-name="Trazado 820573" d="M506.372,1373.211a.4.4,0,1,0-.366-.434A.4.4,0,0,0,506.372,1373.211Z" transform="translate(-471.004 -1331.243)" fill="#eab054"/>
          <path id="Trazado_820574" data-name="Trazado 820574" d="M546.359,1524.721a.4.4,0,1,0-.366-.434A.4.4,0,0,0,546.359,1524.721Z" transform="translate(-505.358 -1461.413)" fill="#eab054"/>
          <path id="Trazado_820575" data-name="Trazado 820575" d="M505.37,1530.57a.4.4,0,1,0-.366-.434A.4.4,0,0,0,505.37,1530.57Z" transform="translate(-470.142 -1466.438)" fill="#eab054"/>
          <path id="Trazado_820576" data-name="Trazado 820576" d="M560.554,1523.071a.4.4,0,1,0-.366-.434A.4.4,0,0,0,560.554,1523.071Z" transform="translate(-517.554 -1459.995)" fill="#eab054"/>
          <path id="Trazado_820577" data-name="Trazado 820577" d="M631.448,1515.89a.4.4,0,1,0-.366-.434A.4.4,0,0,0,631.448,1515.89Z" transform="translate(-578.462 -1453.825)" fill="#eab054"/>
          <path id="Trazado_820578" data-name="Trazado 820578" d="M603.97,1228.051a.4.4,0,1,0-.366-.434A.4.4,0,0,0,603.97,1228.051Z" transform="translate(-554.854 -1206.529)" fill="#eab054"/>
          <path id="Trazado_820579" data-name="Trazado 820579" d="M732.346,1322.308a.4.4,0,1,0,.352-.445A.4.4,0,0,0,732.346,1322.308Z" transform="translate(-665.463 -1287.814)" fill="#eab054"/>
          <path id="Trazado_820580" data-name="Trazado 820580" d="M748.945,1350.867a.4.4,0,1,0,.352-.446A.4.4,0,0,0,748.945,1350.867Z" transform="translate(-679.724 -1312.35)" fill="#eab054"/>
          <path id="Trazado_820581" data-name="Trazado 820581" d="M847.906,1486.347a.4.4,0,1,0,.353-.446A.4.4,0,0,0,847.906,1486.347Z" transform="translate(-764.746 -1428.747)" fill="#eab054"/>
          <path id="Trazado_820582" data-name="Trazado 820582" d="M843.279,1299.647a.4.4,0,1,0,.352-.445A.4.4,0,0,0,843.279,1299.647Z" transform="translate(-760.77 -1268.344)" fill="#eab054"/>
          <path id="Trazado_820583" data-name="Trazado 820583" d="M692.732,1160.547a.4.4,0,1,0,.352-.445A.4.4,0,0,0,692.732,1160.547Z" transform="translate(-631.428 -1148.836)" fill="#eab054"/>
          <path id="Trazado_820584" data-name="Trazado 820584" d="M435.192,1508.911l-1.571-5.982.68-.079,1.571,5.982Z" transform="translate(-408.815 -1443.311)" fill="#eab054" opacity="0.6"/>
          <path id="Trazado_820585" data-name="Trazado 820585" d="M475.149,1385.333l-6.517-24.811.655-.172,6.542,24.9Z" transform="translate(-438.895 -1320.883)" fill="#eab054" opacity="0.6"/>
          <path id="Trazado_820586" data-name="Trazado 820586" d="M317.213,1373l.655-.172,6.727,25.607-.68.079Z" transform="translate(-308.803 -1331.605)" fill="#eab054" opacity="0.6"/>
          <path id="Trazado_820587" data-name="Trazado 820587" d="M257.505,1377.494l.239,2.057,9.8-1.139-2.017-1.851Z" transform="translate(-257.505 -1334.809)" fill="#9e4233"/>
          <path id="Trazado_820588" data-name="Trazado 820588" d="M316.159,1083.3l27.138-3.159,1.5,1.924-24.71,38.7-31.176,3.628Z" transform="translate(-284.492 -1080.14)" fill="#9e4233"/>
          <path id="Trazado_820589" data-name="Trazado 820589" d="M257.505,1122.825l32.731-3.81,26.074-38.875-32.731,3.81Z" transform="translate(-257.505 -1080.14)" fill="#b75742"/>
          <path id="Trazado_820590" data-name="Trazado 820590" d="M257.505,1122.825l32.731-3.81,26.074-38.875-32.731,3.81Z" transform="translate(-257.505 -1080.14)" fill="#b75742"/>
          <path id="Trazado_820591" data-name="Trazado 820591" d="M344.637,1268.716l-32.925,4.1.5-.747,32.925-4.1Z" transform="translate(-304.077 -1241.514)" fill="#f7cc7f" opacity="0.5"/>
          <path id="Trazado_820592" data-name="Trazado 820592" d="M374.53,1224.156l-32.925,4.1.5-.746,32.925-4.1Z" transform="translate(-329.76 -1203.23)" fill="#f7cc7f" opacity="0.5"/>
          <path id="Trazado_820593" data-name="Trazado 820593" d="M404.424,1179.585l-32.925,4.1.5-.745,32.925-4.1Z" transform="translate(-355.443 -1164.938)" fill="#f7cc7f" opacity="0.5"/>
          <path id="Trazado_820594" data-name="Trazado 820594" d="M434.317,1135.017l-32.925,4.1.5-.745,32.925-4.1Z" transform="translate(-381.126 -1126.646)" fill="#f7cc7f" opacity="0.5"/>
          <path id="Trazado_820595" data-name="Trazado 820595" d="M314.744,1313.287l-32.925,4.1.5-.745,32.925-4.1Z" transform="translate(-278.394 -1279.807)" fill="#f7cc7f" opacity="0.5"/>
        </g>
        <path id="Trazado_820596" data-name="Trazado 820596" d="M197.206,1472.266s130.568-24.79,326.773,0v22.512l-326.611-1.294Z" transform="translate(-197.206 -1264.997)" fill="#96d9c9"/>
        <rect id="Rectángulo_375772" data-name="Rectángulo 375772" width="326.773" height="55.448" transform="translate(0 207.269)" fill="#96d9c9"/>
        <g id="Grupo_1071973" data-name="Grupo 1071973" transform="translate(80.325 188.533)">
          <path id="Trazado_820597" data-name="Trazado 820597" d="M887.758,1708.75s-.6,7.743-.286,8.032-1.561,2.343-1.775,3.069a11.7,11.7,0,0,1,2.51-1.68c.791-.227,4.11.7,7.294.392a13.428,13.428,0,0,1-3.35-.779,8.738,8.738,0,0,0-2.187-.528,8.075,8.075,0,0,1,3.341-.4,9.432,9.432,0,0,0,3.769-.728,22.083,22.083,0,0,1-4,.054,16.914,16.914,0,0,0-4.093.357l.4-7.89Z" transform="translate(-869.048 -1666.088)" fill="#b75742"/>
          <path id="Trazado_820598" data-name="Trazado 820598" d="M960.213,1683.82s2.7,7.066,2.9,7.441-2.247,1.694-2.69,2.308a11.7,11.7,0,0,1,2.924-.755c.821.047,3.647,2.02,6.754,2.781a13.418,13.418,0,0,1-2.9-1.842,8.7,8.7,0,0,0-1.889-1.221,8.064,8.064,0,0,1,3.284.732,9.436,9.436,0,0,0,3.8.558,22.089,22.089,0,0,1-3.8-1.272,16.9,16.9,0,0,0-3.981-1.017l-2.361-7.6Z" transform="translate(-933.068 -1644.753)" fill="#b75742"/>
          <path id="Trazado_820599" data-name="Trazado 820599" d="M931.466,1644.957s1.06,4.015,3.321,4.483,2.626,1.383,3.906.165,3.937-4.948,5.642-6.324S932.808,1643.007,931.466,1644.957Z" transform="translate(-908.37 -1609.396)" fill="#eb753b"/>
          <path id="Trazado_820600" data-name="Trazado 820600" d="M803.4,1434.6s-2.519.62-4.4,5.128-2.739,7.4-5.293,8.145-7.086,0-10.149.779a8.747,8.747,0,0,1-8.217-1.85c-2.122-1.965-6.606-3.4-7.568-1.738s.819,4.6.819,4.6-1.355.413.248,2.356a18.6,18.6,0,0,0,2.2,2.408s-1.725-.378-.5,1.347a10.031,10.031,0,0,0,2.693,2.606s-1.219.217.707,2.046c0,0-.952,1.713,1.535,1.555a3.74,3.74,0,0,0,1.128,2.485s-.031,3.035,1.7,4.385a65.136,65.136,0,0,0,7.407,4.681c1.311.624,2.593,1.081,3.95.039s4.117-5.763,7.322-7.02,7.4-1.434,9.888-6.735,3.347-14.256,1.057-17.163S809.782,1432.55,803.4,1434.6Z" transform="translate(-767.491 -1430.325)" fill="#ee944c"/>
          <path id="Trazado_820601" data-name="Trazado 820601" d="M1053.434,1451a3.373,3.373,0,0,1,2.82,1.764s-2.8-.054-3.353.055-.274-1.218-.224-1.256Z" transform="translate(-1012.41 -1444.723)" fill="#f9a653"/>
          <path id="Trazado_820602" data-name="Trazado 820602" d="M1011.12,1411.8s-1.091-1.416-2.357-.828-.515,1.92-.347,2.119.583.811.151,1.059-1.784-.711-1.913-.364.362,2.564,1.756,2.049.227.417.56,1.539.913,2.238,2.25.971.1-3.905.011-4.536,1.255-.548,1.987-1.25.291-3.176-.547-3.713-1.583-1.185-2.378-1.691-.89-1.042-2.169-.413-3.3-.441-3.934.91-.725,2.454.322,2.877a3.3,3.3,0,0,0,1.444.362S1009.049,1409.7,1011.12,1411.8Z" transform="translate(-970.443 -1406.453)" fill="#b75742"/>
          <path id="Trazado_820603" data-name="Trazado 820603" d="M875.143,1548.89s.818,8.6-3.646,9.851-8.259,5.13-11.268,4.923-5.13-.886-6.924-4.539c0,0,1.981,3.419,5.126,3.431s6.762-2.948,8.583-3.473,4.227-.8,5.4-2.1C875.276,1553.782,875.052,1550.593,875.143,1548.89Z" transform="translate(-841.218 -1528.828)" fill="#eb753b"/>
        </g>
        <g id="Grupo_1071974" data-name="Grupo 1071974" transform="translate(132.725 211.921)">
          <path id="Trazado_820604" data-name="Trazado 820604" d="M1221.656,1816.44s-2.141,8.281-1.862,8.654-2.145,2.239-2.518,2.984a12.88,12.88,0,0,1,3.047-1.337c.9-.093,4.321,1.554,7.834,1.834a14.768,14.768,0,0,1-3.482-1.492,9.618,9.618,0,0,0-2.269-.995,8.887,8.887,0,0,1,3.7.218,10.4,10.4,0,0,0,4.228-.062,24.322,24.322,0,0,1-4.352-.715,18.612,18.612,0,0,0-4.507-.4l1.96-8.479Z" transform="translate(-1206.323 -1782.081)" fill="#ee944c"/>
          <path id="Trazado_820605" data-name="Trazado 820605" d="M1323.47,1818.5s4.18,7.207,4.46,7.58-2.145,2.238-2.518,2.984a12.876,12.876,0,0,1,3.047-1.337c.9-.093,4.321,1.554,7.834,1.834a14.767,14.767,0,0,1-3.482-1.492,9.653,9.653,0,0,0-2.269-.995,8.883,8.883,0,0,1,3.7.218,10.394,10.394,0,0,0,4.228-.062,24.322,24.322,0,0,1-4.352-.715,18.626,18.626,0,0,0-4.508-.4l-3.906-7.85Z" transform="translate(-1297.56 -1783.647)" fill="#ee944c"/>
          <path id="Trazado_820606" data-name="Trazado 820606" d="M1287.83,1770.01s1.859,4.179,4.4,4.29,3.1,1.041,4.276-.509,3.409-6.074,5.02-7.871S1288.946,1767.655,1287.83,1770.01Z" transform="translate(-1266.94 -1738.254)" fill="#c5d0e2"/>
          <path id="Trazado_820607" data-name="Trazado 820607" d="M1166.888,1581.111c-2.927-.051-7.087-1.374-10.2-1.151a9.635,9.635,0,0,1-8.553-3.595c-1.921-2.541-6.507-4.958-7.871-3.347s0,5.144,0,5.144-1.55.186-.186,2.6A20.518,20.518,0,0,0,1142,1583.8s-1.8-.744-.806,1.364a11.048,11.048,0,0,0,2.417,3.347s-1.364,0,.372,2.355c0,0-1.364,1.674,1.363,1.983a4.121,4.121,0,0,0,.744,2.913s-.62,3.285.992,5.082a71.72,71.72,0,0,0,7.127,6.508c1.3.93,2.6,1.673,4.276.806s5.578-5.454,9.3-6.2c3.515-.7,7.8-.191,11.4-4.581Z" transform="translate(-1139.516 -1572.498)" fill="#e9eef6"/>
          <path id="Trazado_820608" data-name="Trazado 820608" d="M1353.174,1608.112c.065-4.075,8.611-7.342,1.736-10.024,0,0-2.583-1.221-7.326,1.321s-16.192,3.424-16.192,3.424l5.245,20.342a11.843,11.843,0,0,0,3.7-1.135C1346.147,1619.239,1353.109,1612.187,1353.174,1608.112Z" transform="translate(-1304.366 -1594.232)" fill="#e9eef6"/>
          <path id="Trazado_820609" data-name="Trazado 820609" d="M1505.388,1645.718c.078.031,1.376,1.012,1.183,3.468,0,0-2.356-1.992-2.9-2.284s.613-1.231.682-1.229Z" transform="translate(-1452.251 -1635.366)" fill="#ee944c"/>
          <path id="Trazado_820610" data-name="Trazado 820610" d="M1482.256,1586.755s.052-1.968-1.439-2.346-1.776,1.282-1.769,1.57-.066,1.1-.608,1.01-1.03-1.848-1.381-1.641-1.474,2.443.076,2.972-.1.514-.591,1.7-.775,2.547,1.247,2.393,2.8-3.264,3.162-3.868,1.453.4,2.567.314,2.457-2.511,2.113-3.552-.529-2.113-.856-3.1-.037-1.509-1.566-1.861-2.512-2.67-3.994-1.957-2.325,1.592-1.725,2.682a3.635,3.635,0,0,0,.982,1.313S1481.947,1583.524,1482.256,1586.755Z" transform="translate(-1428.766 -1577.447)" fill="#f47458"/>
          <path id="Trazado_820611" data-name="Trazado 820611" d="M1240,1663.32s-.775,9.482-5.857,9.978-9.947,3.967-13.17,3.161-5.392-1.952-6.631-6.259c0,0,1.487,4.09,4.9,4.71s7.9-1.89,9.978-2.107,4.738-.048,6.26-1.239C1239.2,1668.65,1239.572,1665.15,1240,1663.32Z" transform="translate(-1203.804 -1650.528)" fill="#c5d0e2"/>
        </g>
        <g id="Grupo_1071976" data-name="Grupo 1071976" transform="translate(54.733 212.248)">
          <path id="Trazado_820612" data-name="Trazado 820612" d="M688.773,1586.65c.041,0,.419.547,1.469,1.516a17.911,17.911,0,0,1-1.978.3c-.3-.03.022-1.018.054-1.03S688.773,1586.65,688.773,1586.65Z" transform="translate(-673.722 -1584.984)" fill="#b75742"/>
          <path id="Trazado_820613" data-name="Trazado 820613" d="M615.752,1684.83a23.619,23.619,0,0,0-.593,2.755c.089.119-.683.713-.8.95a4.085,4.085,0,0,1,.97-.426c.287-.03,1.376.495,2.494.584a4.711,4.711,0,0,1-1.109-.475,3.051,3.051,0,0,0-.723-.317,2.822,2.822,0,0,1,1.178.069,3.305,3.305,0,0,0,1.346-.02,7.742,7.742,0,0,1-1.386-.228,5.931,5.931,0,0,0-1.435-.129l.624-2.7Z" transform="translate(-610.335 -1669.336)" fill="#ee944c"/>
          <path id="Trazado_820614" data-name="Trazado 820614" d="M649.757,1684.912s1.429,2.464,1.525,2.592-.734.765-.861,1.02a4.4,4.4,0,0,1,1.042-.457c.308-.032,1.477.531,2.678.627a5.041,5.041,0,0,1-1.19-.51,3.283,3.283,0,0,0-.776-.34,3.033,3.033,0,0,1,1.265.074,3.55,3.55,0,0,0,1.445-.021,8.317,8.317,0,0,1-1.488-.244,6.371,6.371,0,0,0-1.541-.138l-1.336-2.684Z" transform="translate(-640.748 -1669.336)" fill="#ee944c"/>
          <g id="Grupo_1071975" data-name="Grupo 1071975">
            <path id="Trazado_820615" data-name="Trazado 820615" d="M595.93,1575.516a2.729,2.729,0,0,0-1.477,2.027c-.376,1.622-.55,2.491-1.8,2.867s-5.126,1.593-5.619,3.331a3.777,3.777,0,0,1-.8,1.517,1.739,1.739,0,0,0-.172,2.08,5.19,5.19,0,0,0,3.439,2.543c2.983.493,1.477,1.969,5.648.7s2.346-2.2,4.634-4.895.145-4.576,1.129-6.922S599.753,1573.46,595.93,1575.516Z" transform="translate(-585.795 -1574.824)" fill="#f7cc7f"/>
            <path id="Trazado_820616" data-name="Trazado 820616" d="M620.587,1632.23a6.64,6.64,0,0,0-.906.228,2.154,2.154,0,0,0-.773.4.49.49,0,0,0-.169.287.413.413,0,0,0,.014.152.37.37,0,0,0,.028.08l.042.1a4.422,4.422,0,0,1,.241.953.832.832,0,0,0,.12.335.533.533,0,0,0,.236.188,2.943,2.943,0,0,0,.8.2l.453.056a4.9,4.9,0,0,1,.5.084,3.494,3.494,0,0,1,.971.355c.152.083.29.179.414.259a.745.745,0,0,0,.281.131,1.287,1.287,0,0,0,.653-.248c.126-.069.252-.156.378-.238a1.221,1.221,0,0,0,.172-.128l.159-.13a3.448,3.448,0,0,0,.277-.3c.076-.114.154-.23.221-.353a3.971,3.971,0,0,0,.351-1.713,8.368,8.368,0,0,0-.216-1.843,6.019,6.019,0,0,1,.565,1.819,3.967,3.967,0,0,1-.193,1.965,4.668,4.668,0,0,1-.236.465,3.573,3.573,0,0,1-.332.409l-.2.179a1.633,1.633,0,0,1-.2.162c-.131.1-.258.194-.4.284a2.837,2.837,0,0,1-.459.252,1.452,1.452,0,0,1-.285.091c-.054.01-.107.02-.162.027s-.119,0-.179-.006a1.405,1.405,0,0,1-.577-.226c-.14-.087-.262-.167-.385-.233a2.772,2.772,0,0,0-.78-.3c-.136-.041-.285-.051-.427-.079s-.319-.044-.477-.074a3.472,3.472,0,0,1-.99-.32,1.1,1.1,0,0,1-.45-.431,1.4,1.4,0,0,1-.156-.554,4.656,4.656,0,0,0-.132-.883,1.949,1.949,0,0,1-.061-.266.831.831,0,0,1,.018-.314.851.851,0,0,1,.351-.471,2.276,2.276,0,0,1,.944-.322A4.574,4.574,0,0,1,620.587,1632.23Z" transform="translate(-613.735 -1623.169)" fill="#eab054"/>
          </g>
        </g>
        <g id="Grupo_1071978" data-name="Grupo 1071978" transform="translate(216.354 221.53)">
          <path id="Trazado_820617" data-name="Trazado 820617" d="M1802.28,1648.65c.027,0,.281.367.984,1.016a12.042,12.042,0,0,1-1.326.2c-.2-.02.015-.682.035-.69S1802.28,1648.65,1802.28,1648.65Z" transform="translate(-1792.193 -1647.533)" fill="#b75742"/>
          <path id="Trazado_820618" data-name="Trazado 820618" d="M1753.34,1714.45a15.846,15.846,0,0,0-.4,1.847c.06.079-.458.477-.537.637a2.763,2.763,0,0,1,.65-.285c.192-.02.922.332,1.672.391a3.153,3.153,0,0,1-.743-.319,2.035,2.035,0,0,0-.484-.212,1.884,1.884,0,0,1,.789.046,2.216,2.216,0,0,0,.9-.013,5.175,5.175,0,0,1-.929-.152,3.975,3.975,0,0,0-.962-.086l.418-1.809Z" transform="translate(-1749.709 -1704.066)" fill="#ee944c"/>
          <path id="Trazado_820619" data-name="Trazado 820619" d="M1776.13,1714.505s.958,1.652,1.022,1.737-.492.513-.577.684a2.964,2.964,0,0,1,.7-.307c.207-.022.99.356,1.8.421a3.4,3.4,0,0,1-.8-.342,2.2,2.2,0,0,0-.52-.228,2.043,2.043,0,0,1,.848.05,2.378,2.378,0,0,0,.969-.014,5.562,5.562,0,0,1-1-.164,4.258,4.258,0,0,0-1.033-.093l-.9-1.8Z" transform="translate(-1770.092 -1704.066)" fill="#ee944c"/>
          <g id="Grupo_1071977" data-name="Grupo 1071977">
            <path id="Trazado_820620" data-name="Trazado 820620" d="M1740.056,1641.187a1.829,1.829,0,0,0-.99,1.359c-.253,1.087-.369,1.669-1.2,1.922s-3.436,1.068-3.766,2.232a2.528,2.528,0,0,1-.54,1.016,1.166,1.166,0,0,0-.116,1.395,3.481,3.481,0,0,0,2.305,1.7c2,.33.99,1.32,3.785.466s1.572-1.475,3.106-3.28.1-3.067.757-4.639S1742.618,1639.808,1740.056,1641.187Z" transform="translate(-1733.263 -1640.722)" fill="#f7cc7f"/>
            <path id="Trazado_820621" data-name="Trazado 820621" d="M1756.582,1679.191a4.518,4.518,0,0,0-.607.153,1.458,1.458,0,0,0-.518.27.328.328,0,0,0-.113.192.283.283,0,0,0,.009.1.243.243,0,0,0,.019.054l.028.069a2.948,2.948,0,0,1,.161.638.569.569,0,0,0,.08.225.361.361,0,0,0,.158.126,1.968,1.968,0,0,0,.538.137l.3.038a3.355,3.355,0,0,1,.333.056,2.336,2.336,0,0,1,.651.238c.1.056.194.12.277.174a.505.505,0,0,0,.189.087.863.863,0,0,0,.438-.166c.084-.046.169-.1.253-.16a.774.774,0,0,0,.115-.086l.106-.087a2.345,2.345,0,0,0,.186-.2c.051-.076.1-.154.148-.237a2.663,2.663,0,0,0,.235-1.148,5.606,5.606,0,0,0-.145-1.235,4.034,4.034,0,0,1,.379,1.219,2.655,2.655,0,0,1-.13,1.317,3.059,3.059,0,0,1-.158.312,2.4,2.4,0,0,1-.223.274l-.131.12a1.061,1.061,0,0,1-.131.109c-.088.064-.172.13-.269.191a1.933,1.933,0,0,1-.308.169,1,1,0,0,1-.191.061c-.036.006-.072.014-.109.018s-.08,0-.12,0a.936.936,0,0,1-.387-.152c-.094-.058-.176-.112-.258-.156a1.856,1.856,0,0,0-.523-.2c-.091-.028-.191-.035-.286-.053s-.213-.03-.319-.05a2.334,2.334,0,0,1-.664-.214.74.74,0,0,1-.3-.289.946.946,0,0,1-.1-.372,3.132,3.132,0,0,0-.088-.591,1.264,1.264,0,0,1-.041-.178.559.559,0,0,1,.012-.21.572.572,0,0,1,.235-.316,1.525,1.525,0,0,1,.632-.215A3.157,3.157,0,0,1,1756.582,1679.191Z" transform="translate(-1751.99 -1673.12)" fill="#eab054"/>
          </g>
        </g>
        <g id="Grupo_1071980" data-name="Grupo 1071980" transform="translate(189.216 234.798)">
          <path id="Trazado_820622" data-name="Trazado 820622" d="M1636.112,1745.89c.037,0,.389.507,1.363,1.406a16.576,16.576,0,0,1-1.835.275c-.277-.027.021-.944.05-.955S1636.112,1745.89,1636.112,1745.89Z" transform="translate(-1622.151 -1744.345)" fill="#b75742"/>
          <path id="Trazado_820623" data-name="Trazado 820623" d="M1568.381,1836.96a21.933,21.933,0,0,0-.55,2.556c.082.11-.633.661-.744.881a3.821,3.821,0,0,1,.9-.395c.266-.027,1.276.459,2.314.542a4.363,4.363,0,0,1-1.028-.441,2.867,2.867,0,0,0-.67-.293,2.626,2.626,0,0,1,1.092.064,3.063,3.063,0,0,0,1.249-.018,7.2,7.2,0,0,1-1.285-.211,5.5,5.5,0,0,0-1.332-.12l.579-2.5Z" transform="translate(-1563.356 -1822.588)" fill="#ee944c"/>
          <path id="Trazado_820624" data-name="Trazado 820624" d="M1599.92,1837.037s1.326,2.286,1.414,2.4-.68.71-.8.947a4.078,4.078,0,0,1,.966-.424c.286-.03,1.37.493,2.484.582a4.671,4.671,0,0,1-1.1-.473,3.055,3.055,0,0,0-.719-.316,2.821,2.821,0,0,1,1.173.069,3.292,3.292,0,0,0,1.341-.02,7.7,7.7,0,0,1-1.38-.226,5.932,5.932,0,0,0-1.43-.128l-1.239-2.49Z" transform="translate(-1591.564 -1822.589)" fill="#ee944c"/>
          <g id="Grupo_1071979" data-name="Grupo 1071979">
            <path id="Trazado_820625" data-name="Trazado 820625" d="M1549.993,1735.563a2.532,2.532,0,0,0-1.37,1.88c-.349,1.505-.51,2.31-1.666,2.66s-4.755,1.477-5.212,3.089a3.507,3.507,0,0,1-.747,1.406,1.613,1.613,0,0,0-.16,1.93,4.811,4.811,0,0,0,3.19,2.358c2.767.457,1.37,1.827,5.238.645s2.176-2.042,4.3-4.54.135-4.244,1.048-6.421S1553.54,1733.656,1549.993,1735.563Z" transform="translate(-1540.591 -1734.921)" fill="#f7cc7f"/>
            <path id="Trazado_820626" data-name="Trazado 820626" d="M1572.862,1788.16a6.193,6.193,0,0,0-.84.212,2,2,0,0,0-.718.374.451.451,0,0,0-.156.266.39.39,0,0,0,.013.142.346.346,0,0,0,.026.074l.039.1a4.1,4.1,0,0,1,.224.884.773.773,0,0,0,.111.311.5.5,0,0,0,.219.175,2.734,2.734,0,0,0,.745.189l.419.052a4.606,4.606,0,0,1,.462.078,3.228,3.228,0,0,1,.9.33c.141.077.269.166.384.24a.7.7,0,0,0,.261.121,1.192,1.192,0,0,0,.606-.23c.117-.064.234-.144.351-.221a1.089,1.089,0,0,0,.16-.119l.147-.121a3.155,3.155,0,0,0,.257-.281c.071-.106.144-.213.2-.327a3.679,3.679,0,0,0,.326-1.589,7.756,7.756,0,0,0-.2-1.709,5.566,5.566,0,0,1,.524,1.687,3.684,3.684,0,0,1-.179,1.822,4.408,4.408,0,0,1-.219.431,3.414,3.414,0,0,1-.308.379l-.181.166a1.541,1.541,0,0,1-.182.15c-.121.089-.239.18-.372.263a2.667,2.667,0,0,1-.426.233,1.376,1.376,0,0,1-.264.085c-.05.009-.1.019-.15.025s-.111,0-.166-.005a1.3,1.3,0,0,1-.535-.21c-.13-.081-.243-.155-.357-.216a2.57,2.57,0,0,0-.724-.279,4,4,0,0,0-.4-.074c-.14-.023-.3-.042-.443-.069a3.2,3.2,0,0,1-.918-.3,1.02,1.02,0,0,1-.418-.4,1.306,1.306,0,0,1-.145-.514,4.326,4.326,0,0,0-.122-.819,1.84,1.84,0,0,1-.057-.247.764.764,0,0,1,.016-.291.791.791,0,0,1,.326-.438,2.117,2.117,0,0,1,.875-.3A4.42,4.42,0,0,1,1572.862,1788.16Z" transform="translate(-1566.507 -1779.757)" fill="#eab054"/>
          </g>
        </g>
        <g id="Grupo_1071982" data-name="Grupo 1071982" transform="translate(150.33 205.195)">
          <path id="Trazado_820627" data-name="Trazado 820627" d="M1265.229,1530.57c-.02,0-.206.27-.724.747a8.817,8.817,0,0,0,.974.146c.147-.015-.011-.5-.026-.507S1265.229,1530.57,1265.229,1530.57Z" transform="translate(-1264.505 -1529.75)" fill="#b75742"/>
          <path id="Trazado_820628" data-name="Trazado 820628" d="M1295.019,1578.93a11.653,11.653,0,0,1,.292,1.357c-.044.058.337.351.395.468a2.022,2.022,0,0,0-.478-.21c-.141-.015-.677.244-1.229.288a2.316,2.316,0,0,0,.546-.234,1.532,1.532,0,0,1,.355-.156,1.388,1.388,0,0,0-.58.034,1.626,1.626,0,0,1-.663-.009,3.811,3.811,0,0,0,.682-.112,2.938,2.938,0,0,1,.707-.063l-.307-1.329Z" transform="translate(-1289.552 -1571.299)" fill="#ee944c"/>
          <path id="Trazado_820629" data-name="Trazado 820629" d="M1275.354,1578.975s-.7,1.213-.751,1.276.361.377.424.5a2.161,2.161,0,0,0-.513-.225c-.152-.016-.727.262-1.319.309a2.484,2.484,0,0,0,.586-.251,1.6,1.6,0,0,1,.382-.167,1.491,1.491,0,0,0-.623.037,1.753,1.753,0,0,1-.712-.011,4.109,4.109,0,0,0,.733-.12,3.137,3.137,0,0,1,.759-.068l.658-1.322Z" transform="translate(-1271.656 -1571.302)" fill="#ee944c"/>
          <g id="Grupo_1071981" data-name="Grupo 1071981" transform="translate(0.572)">
            <path id="Trazado_820630" data-name="Trazado 820630" d="M1271.138,1525.09a1.344,1.344,0,0,1,.728,1c.185.8.271,1.227.884,1.412s2.525.784,2.767,1.64a1.865,1.865,0,0,0,.4.747.856.856,0,0,1,.085,1.025,2.557,2.557,0,0,1-1.694,1.252c-1.469.242-.728.97-2.782.342s-1.156-1.084-2.282-2.411-.072-2.254-.556-3.409S1269.257,1524.077,1271.138,1525.09Z" transform="translate(-1268.568 -1524.749)" fill="#f7cc7f"/>
            <path id="Trazado_820631" data-name="Trazado 820631" d="M1283.724,1553.02a3.228,3.228,0,0,1,.446.112,1.065,1.065,0,0,1,.381.2.24.24,0,0,1,.083.141.25.25,0,0,1-.02.115l-.021.051a2.175,2.175,0,0,0-.119.47.416.416,0,0,1-.059.165.271.271,0,0,1-.116.093,1.447,1.447,0,0,1-.4.1l-.223.028c-.082.014-.163.019-.245.041a1.724,1.724,0,0,0-.478.175c-.075.041-.143.088-.2.128a.381.381,0,0,1-.139.064.639.639,0,0,1-.322-.122c-.062-.034-.124-.077-.187-.118a.649.649,0,0,1-.085-.063l-.078-.064a1.667,1.667,0,0,1-.136-.149c-.037-.056-.076-.114-.109-.174a1.948,1.948,0,0,1-.173-.844,4.115,4.115,0,0,1,.106-.908,2.95,2.95,0,0,0-.278.9,1.949,1.949,0,0,0,.1.968,2.3,2.3,0,0,0,.116.229,1.764,1.764,0,0,0,.164.2l.1.088a.74.74,0,0,0,.1.08c.064.047.127.1.2.14a1.363,1.363,0,0,0,.226.124.731.731,0,0,0,.14.045c.027,0,.053.01.08.013l.088,0a.688.688,0,0,0,.284-.111c.069-.043.129-.083.19-.115a1.361,1.361,0,0,1,.385-.148,2.039,2.039,0,0,1,.21-.039c.074-.012.157-.022.235-.036a1.7,1.7,0,0,0,.488-.158.541.541,0,0,0,.222-.212.7.7,0,0,0,.077-.273,2.311,2.311,0,0,1,.065-.435.974.974,0,0,0,.03-.131.4.4,0,0,0-.009-.154.419.419,0,0,0-.173-.233,1.13,1.13,0,0,0-.464-.158A2.3,2.3,0,0,0,1283.724,1553.02Z" transform="translate(-1279.534 -1548.558)" fill="#eab054"/>
          </g>
        </g>
        <g id="Grupo_1071984" data-name="Grupo 1071984" transform="translate(36.844 207.481)">
          <path id="Trazado_820632" data-name="Trazado 820632" d="M459.51,1546.8c-.02,0-.206.27-.723.747a8.818,8.818,0,0,0,.975.146c.147-.015-.011-.5-.026-.507S459.51,1546.8,459.51,1546.8Z" transform="translate(-458.787 -1545.98)" fill="#b75742"/>
          <path id="Trazado_820633" data-name="Trazado 820633" d="M489.31,1595.16a11.6,11.6,0,0,1,.292,1.357c-.044.058.336.35.395.468a2.009,2.009,0,0,0-.478-.21c-.141-.015-.678.244-1.228.287a2.325,2.325,0,0,0,.546-.234,1.513,1.513,0,0,1,.356-.156,1.4,1.4,0,0,0-.58.034,1.629,1.629,0,0,1-.663-.01,3.811,3.811,0,0,0,.682-.112,2.912,2.912,0,0,1,.707-.064l-.307-1.33Z" transform="translate(-483.842 -1587.529)" fill="#ee944c"/>
          <path id="Trazado_820634" data-name="Trazado 820634" d="M469.645,1595.206s-.7,1.214-.751,1.277.361.376.424.5a2.178,2.178,0,0,0-.513-.225c-.152-.016-.728.261-1.319.309a2.487,2.487,0,0,0,.586-.251,1.6,1.6,0,0,1,.382-.167,1.5,1.5,0,0,0-.623.036,1.739,1.739,0,0,1-.712-.01,4.074,4.074,0,0,0,.733-.12,3.141,3.141,0,0,1,.759-.068l.658-1.322Z" transform="translate(-465.945 -1587.534)" fill="#ee944c"/>
          <g id="Grupo_1071983" data-name="Grupo 1071983" transform="translate(0.573)">
            <path id="Trazado_820635" data-name="Trazado 820635" d="M465.429,1541.32a1.345,1.345,0,0,1,.727,1c.185.8.271,1.227.884,1.412s2.525.784,2.767,1.64a1.858,1.858,0,0,0,.4.747.857.857,0,0,1,.085,1.025,2.555,2.555,0,0,1-1.694,1.252c-1.469.243-.727.97-2.782.343s-1.155-1.084-2.282-2.411-.071-2.254-.556-3.409S463.546,1540.307,465.429,1541.32Z" transform="translate(-462.858 -1540.979)" fill="#f7cc7f"/>
            <path id="Trazado_820636" data-name="Trazado 820636" d="M478.009,1569.252a3.215,3.215,0,0,1,.446.112,1.064,1.064,0,0,1,.381.2.241.241,0,0,1,.083.141.207.207,0,0,1-.007.075.175.175,0,0,1-.014.039l-.021.051a2.165,2.165,0,0,0-.119.469.414.414,0,0,1-.059.165.259.259,0,0,1-.116.092,1.437,1.437,0,0,1-.4.1l-.223.027c-.082.014-.163.019-.245.041a1.727,1.727,0,0,0-.478.175c-.075.041-.143.088-.2.127a.377.377,0,0,1-.138.065.639.639,0,0,1-.322-.122c-.062-.034-.124-.077-.186-.117a.607.607,0,0,1-.085-.063l-.078-.064a1.668,1.668,0,0,1-.137-.15c-.038-.056-.076-.113-.109-.174a1.953,1.953,0,0,1-.173-.844,4.1,4.1,0,0,1,.106-.907,2.956,2.956,0,0,0-.278.9,1.954,1.954,0,0,0,.1.968,2.268,2.268,0,0,0,.116.229,1.761,1.761,0,0,0,.164.2l.1.088a.745.745,0,0,0,.1.079c.064.047.127.1.2.14a1.385,1.385,0,0,0,.226.124.72.72,0,0,0,.14.045l.08.013.088,0a.693.693,0,0,0,.284-.111c.069-.043.129-.082.19-.115a1.379,1.379,0,0,1,.384-.148c.067-.02.14-.025.21-.039s.157-.022.235-.037a1.713,1.713,0,0,0,.488-.158.547.547,0,0,0,.222-.213.692.692,0,0,0,.077-.273,2.3,2.3,0,0,1,.065-.434.978.978,0,0,0,.03-.131.41.41,0,0,0-.009-.154.42.42,0,0,0-.173-.232,1.125,1.125,0,0,0-.465-.158A2.255,2.255,0,0,0,478.009,1569.252Z" transform="translate(-473.82 -1564.79)" fill="#eab054"/>
          </g>
        </g>
        <path id="Trazado_820637" data-name="Trazado 820637" d="M219.329,1619.638c2.717-5.813.483-12.6-4.989-15.156a4.482,4.482,0,0,0-5.884,2.339l-1.394,3.138a6.957,6.957,0,0,1-4.312,4.106,12.7,12.7,0,0,0-5.54,3.338l-.005,33.037s7.14-2.675,8.78-6.182l1.878-2.441c.715-1.529,2.007-.2,3.463-.6a9.015,9.015,0,0,0,5.754-4.875l1.047-2.241a4.768,4.768,0,0,0-.351-4.782,5.4,5.4,0,0,1-.434-5.43Z" transform="translate(-197.205 -1387.724)" fill="#50bfa5"/>
        <path id="Trazado_820638" data-name="Trazado 820638" d="M197.206,1759.363s15.543-18.37,24.437-21.249.511,8.557.511,8.557,15.778-17.253,21.568-15.7c5.308,1.426,0,12.12,0,12.12s5.978-5.922,13.227-5.922-5.6,22.175-5.6,22.175Z" transform="translate(-197.206 -1496.646)" fill="#3c8f7c"/>
        <path id="Trazado_820639" data-name="Trazado 820639" d="M527.463,1792.169s9.661-25.837,21.626-22.849c9.7,2.421,2.8,15.421,3.394,14.83s5.792-9.415,14.206-9.415-2.583,11.909-2.583,11.909,17.928-5.6,19.332.281c1.165,4.879-5.351,5.244-5.351,5.244Z" transform="translate(-480.946 -1529.47)" fill="#50bfa5"/>
        <path id="Trazado_820640" data-name="Trazado 820640" d="M2144.854,1541.94s4.185,7.35,3.765,7.917-6.4,9.994-6.929,8.443-3.156-11.695-2.8-12.41S2144.854,1541.94,2144.854,1541.94Z" transform="translate(-1865.376 -1334.324)" fill="#f7a491"/>
        <path id="Trazado_820641" data-name="Trazado 820641" d="M2135.482,1024.9c-2.972,7.409-18.9,8-35.569,1.308s-27.781-18.114-24.809-25.524,18.9-8,35.57-1.308S2138.454,1017.493,2135.482,1024.9Z" transform="translate(-1810.188 -864.181)" fill="#b75742"/>
        <path id="Trazado_820642" data-name="Trazado 820642" d="M2383.388,1320.174s-5.862-23.168-10.473-29.036-15.682-7.355-19.636-2.064,14.534,34.749,14.534,34.749Z" transform="translate(-2049.118 -1114.275)" fill="#f7cc7f"/>
        <path id="Trazado_820643" data-name="Trazado 820643" d="M2159.386,992.034c1.6-12.512,12.65-21.758,24.6-16.006a28,28,0,0,1,8.238,6.269c5.113,6.232,6.576,14.052,11.847,20.095a50.52,50.52,0,0,1-6.749,4.528l-3.292-4.167,1.23,5.273c-7.822,3.988-18.924,7.394-34.221,7.69A66.171,66.171,0,0,1,2159.386,992.034Z" transform="translate(-1882.646 -846.619)" fill="#184655"/>
        <path id="Trazado_820644" data-name="Trazado 820644" d="M2130.288,1325.97c6.249-18.958,14.214-18.548,14.214-18.548l-6.381,40.254c-3.859-1.055-8.884-3.4-12.74-4.493A173.519,173.519,0,0,1,2130.288,1325.97Z" transform="translate(-1853.798 -1132.836)" fill="#eab054"/>
        <path id="Trazado_820645" data-name="Trazado 820645" d="M2205.112,1341.24c.007-.164.02-.322.039-.467.828-6.334,15.489-45.7,10.934-50.676s-16.071-4.241-16.071-4.241-14.377,1.809-16.033,3.619-8.559,20.208-9.386,24.732c-.375,2.047-1.241,14.846-2.078,28.25C2181.648,1341.818,2193.656,1341.28,2205.112,1341.24Z" transform="translate(-1894.293 -1114.276)" fill="#f7cc7f"/>
        <path id="Trazado_820646" data-name="Trazado 820646" d="M2277.719,1175.041s.06.34.167.918c.514,2.775,2.49,11.979,3.826,14.509,1.614,3.058-5.526,12.811-12.4,11.62-2.045-.354,1.729-8.961,1.548-9.873-.347-1.745-.818-4.126-1.3-6.567-.272-1.377-.547-2.773-.806-4.085-.734-3.73-1.334-6.779-1.334-6.779Z" transform="translate(-1975.831 -1018.882)" fill="#f7a491"/>
        <path id="Trazado_820647" data-name="Trazado 820647" d="M2277.884,1175.959c-.107-.578-.167-.918-.167-.918l-10.3-.257s.6,3.05,1.335,6.779c.257,1.3.531,2.693.8,4.063a9.637,9.637,0,0,0,4.916-2.471,13.019,13.019,0,0,0,3.724-5.551C2278.069,1176.951,2277.964,1176.389,2277.884,1175.959Z" transform="translate(-1975.829 -1018.882)" fill="#f47458"/>
        <path id="Trazado_820648" data-name="Trazado 820648" d="M2217.89,1018.045a9.27,9.27,0,0,1,7.978,3.182c3.14,3.866,6.724,15.976-.664,22.794s-15.042-.5-16.349-8.424S2206.877,1018.035,2217.89,1018.045Z" transform="translate(-1924.907 -884.18)" fill="#f7a491"/>
        <path id="Trazado_820649" data-name="Trazado 820649" d="M2193.065,1340.036a59.557,59.557,0,0,1,1.8-6.9,8.523,8.523,0,0,1-5.114-1.229c-6.434-3.938.621-34.659,3.644-46.821a11.448,11.448,0,0,0-3.349,0c-1.148,6.774-5.74,23.166-5.74,23.166-2.505.358-16.289.977-16.431-.623-.187-2.111,7.094-20.171,7.1-20.185-1.826.461-2.5.5-2.961,1-1.657,1.809-8.675,20.505-9.5,25.029s-4.059,62.786-4.059,62.786h44.286S2192.237,1346.369,2193.065,1340.036Z" transform="translate(-1882.208 -1113.539)" fill="#355389"/>
        <path id="Trazado_820650" data-name="Trazado 820650" d="M2192.97,1115.882c.945,1.734,2.484,2.67,3.436,2.089s.956-2.458.01-4.193-2.484-2.669-3.435-2.088S2192.024,1114.147,2192.97,1115.882Z" transform="translate(-1911.259 -964.526)" fill="#f7a491"/>
        <path id="Trazado_820651" data-name="Trazado 820651" d="M2273.23,1008.069s6.774,11.431,11.425,11.85,5.414,6.565,5.414,6.565-2.014-14.154-6.674-16.776A17.029,17.029,0,0,0,2273.23,1008.069Z" transform="translate(-1980.821 -875.493)" fill="#184655"/>
        <path id="Trazado_820652" data-name="Trazado 820652" d="M2345.78,1093.833c-.326,2.068.48,3.937,1.8,4.175s2.653-1.247,2.979-3.316-.481-3.937-1.8-4.175S2346.105,1091.765,2345.78,1093.833Z" transform="translate(-2043.091 -946.462)" fill="#f7a491"/>
        <path id="Trazado_820653" data-name="Trazado 820653" d="M2265.031,1171.7l6.037-1.375a2.707,2.707,0,0,1-2.255,3.006C2265.6,1174.167,2265.031,1171.7,2265.031,1171.7Z" transform="translate(-1973.777 -1015.055)" fill="#fff"/>
        <path id="Trazado_820654" data-name="Trazado 820654" d="M2119.2,999.382c-15.382-6.169-30.126-6.148-34.652-.29,5.66-4.461,19.21-4,33.294,1.647,16.673,6.687,27.781,18.115,24.809,25.524a6.678,6.678,0,0,1-.918,1.6,7.149,7.149,0,0,0,2.275-2.955C2146.985,1017.5,2135.877,1006.07,2119.2,999.382Z" transform="translate(-1818.718 -864.185)" fill="#eab054"/>
        <path id="Trazado_820655" data-name="Trazado 820655" d="M2210.661,948.908a63.909,63.909,0,0,1,16.2,9.252,20.088,20.088,0,0,0,.141-2.341,19.84,19.84,0,0,0-36-11.518A62.3,62.3,0,0,1,2210.661,948.908Z" transform="translate(-1910.176 -813.711)" fill="#eab054"/>
        <path id="Trazado_820656" data-name="Trazado 820656" d="M2194.319,969.492a19.937,19.937,0,0,0-3.314,3.6,62.3,62.3,0,0,1,19.659,4.607,63.921,63.921,0,0,1,16.2,9.253,19.979,19.979,0,0,0,.141-2.342q0-.783-.06-1.552C2216.931,973.548,2202.344,970.477,2194.319,969.492Z" transform="translate(-1910.177 -842.505)" fill="#355389"/>
        <path id="Trazado_820657" data-name="Trazado 820657" d="M1843.737,1457.26h37.026a2.528,2.528,0,0,1,2.234,1.7l15.613,49.2a1.2,1.2,0,0,1-1.158,1.7h-37.026a2.528,2.528,0,0,1-2.235-1.7l-15.613-49.2A1.2,1.2,0,0,1,1843.737,1457.26Z" transform="translate(-1610.755 -1261.571)" fill="#184655"/>
        <path id="Trazado_820658" data-name="Trazado 820658" d="M1994.809,1556.282a2.286,2.286,0,1,1-2.862-2.087A2.53,2.53,0,0,1,1994.809,1556.282Z" transform="translate(-1737.799 -1344.8)" fill="#fff"/>
        <path id="Trazado_820659" data-name="Trazado 820659" d="M1913.679,1706.834a33.334,33.334,0,0,1-1.071-4.072c-.125-.4-.283-.946-.394-1.452a1.349,1.349,0,0,1,.822-1.542,10.364,10.364,0,0,1,2.4-.792c.624.034,1.484,1.352,1.41,1.888,0,0,.046.139.361.182a1.849,1.849,0,0,1,1.084.894,1.188,1.188,0,0,1-.37,1.4s-.213.179-.194.277a4.012,4.012,0,0,1,.58,1.02c.126.505-.1,1.01-.861,1.444,0,0,1.453,1.361-.174,2.271l-.746.418a1.583,1.583,0,0,1-2.171-.64C1914.105,1707.661,1913.852,1707.175,1913.679,1706.834Z" transform="translate(-1670.627 -1469.241)" fill="#f7a491"/>
        <path id="Trazado_820660" data-name="Trazado 820660" d="M2104,1557.514c.244-.224.2-.371.2-.371a2.411,2.411,0,0,1,.08-2.455c.513-.4,3.285-.858,3.528-1.039a2.931,2.931,0,0,1,1.056-.634c.4-.071,3.2-1.531,3.767-1.631s2.521.652,3.681.79a13.949,13.949,0,0,1,3.521,1.437c.392.187,8-1.038,9.97-1.329,2.134-.317,3.771-.691,3.771-.691s12.39-3.231,25.409-5.631l-3.519-10.55,12.188-2.867c1.506,6.038,4.78,15.394,5.195,18.277.816,5.672-18.661,7.211-35.931,8.293h0c-1.9.119-3.691.221-5.327.309-2.218.2-5.9.845-7.6,1.13h0a25.056,25.056,0,0,0-2.679.771,18.2,18.2,0,0,1-2.367.8,7.192,7.192,0,0,0-1.084.674c-.275.186-4.2.746-4.832.858a9.431,9.431,0,0,1-2.082-.111l-2.635.262c-1.935.192-1.5-1.839-1.5-1.839-.914.085-1.4-.215-1.6-.722a4.158,4.158,0,0,1-.114-1.217c-.042-.1-.33-.122-.33-.122-.58.077-1.054-.56-1.155-.981A1.916,1.916,0,0,1,2104,1557.514Z" transform="translate(-1835.073 -1326.25)" fill="#f7a491"/>
        <g id="Grupo_1071985" data-name="Grupo 1071985" transform="translate(187.207 173.337)">
          <path id="Trazado_820661" data-name="Trazado 820661" d="M1650.223,1497.91s1.411,5.456,1.226,5.7,1.413,1.475,1.659,1.966a8.486,8.486,0,0,0-2.007-.881c-.594-.062-2.847,1.024-5.161,1.208a9.74,9.74,0,0,0,2.294-.983,6.355,6.355,0,0,1,1.5-.656,5.854,5.854,0,0,0-2.437.143,6.839,6.839,0,0,1-2.785-.041,16.03,16.03,0,0,0,2.867-.471,12.277,12.277,0,0,1,2.969-.266l-1.291-5.586Z" transform="translate(-1627.86 -1469.832)" fill="#ee944c"/>
          <path id="Trazado_820662" data-name="Trazado 820662" d="M1575.338,1499.27s-2.754,4.748-2.938,4.994,1.413,1.475,1.659,1.966a8.493,8.493,0,0,0-2.007-.881c-.594-.061-2.847,1.024-5.161,1.209a9.741,9.741,0,0,0,2.293-.983,6.315,6.315,0,0,1,1.5-.655,5.845,5.845,0,0,0-2.437.143,6.839,6.839,0,0,1-2.785-.041,15.976,15.976,0,0,0,2.867-.471,12.272,12.272,0,0,1,2.969-.266l2.573-5.172Z" transform="translate(-1559.945 -1470.865)" fill="#ee944c"/>
          <path id="Trazado_820663" data-name="Trazado 820663" d="M1603.538,1467.326s-1.225,2.753-2.9,2.826-2.042.685-2.817-.335-2.246-4-3.307-5.185S1602.8,1465.774,1603.538,1467.326Z" transform="translate(-1584.838 -1440.962)" fill="#933b2c"/>
          <path id="Trazado_820664" data-name="Trazado 820664" d="M1547.117,1318.387s1.878.122,3.8,3.1,2.9,4.94,4.818,5.144,5.063-.9,7.349-.735a6.348,6.348,0,0,0,5.635-2.368c1.265-1.674,4.287-3.266,5.185-2.2s0,3.389,0,3.389,1.021.122.123,1.715a13.529,13.529,0,0,1-1.266,2s1.184-.49.531.9a7.284,7.284,0,0,1-1.593,2.2s.9,0-.245,1.551c0,0,.9,1.1-.9,1.307a2.714,2.714,0,0,1-.49,1.919s.408,2.164-.653,3.348a47.255,47.255,0,0,1-4.7,4.287c-.858.613-1.715,1.1-2.817.531s-3.675-3.593-6.124-4.083-5.472-.082-7.921-3.552-4.205-9.758-2.94-12.126S1542.3,1317.734,1547.117,1318.387Z" transform="translate(-1541.931 -1315.541)" fill="#b75742"/>
          <path id="Trazado_820665" data-name="Trazado 820665" d="M1528.113,1333.549c-.054-.007-1.116.143-1.789,1.62,0,0,1.994-.4,2.4-.388s.041-.905,0-.925Z" transform="translate(-1526.324 -1328.621)" fill="#b75742"/>
          <path id="Trazado_820666" data-name="Trazado 820666" d="M1528.532,1302.776s.6-1.15,1.579-.891.613,1.306.517,1.47-.313.653.027.776,1.184-.735,1.32-.5.068,1.879-.993,1.688-.109.326-.2,1.171-.368,1.714-1.483.98-.572-2.777-.585-3.239-.966-.231-1.579-.64-.612-2.232-.082-2.722.98-1.048,1.484-1.511.5-.857,1.5-.572,2.3-.735,2.926.15.83,1.661.136,2.1a2.391,2.391,0,0,1-.986.443A3.721,3.721,0,0,0,1528.532,1302.776Z" transform="translate(-1526.613 -1298.563)" fill="#f47458"/>
          <path id="Trazado_820667" data-name="Trazado 820667" d="M1587.49,1397.04s.51,6.247,3.859,6.574,6.553,2.613,8.677,2.082,3.552-1.286,4.369-4.124c0,0-.98,2.695-3.226,3.1s-5.206-1.245-6.574-1.388-3.121-.032-4.124-.817A8.193,8.193,0,0,1,1587.49,1397.04Z" transform="translate(-1578.875 -1383.17)" fill="#933b2c"/>
        </g>
        <path id="Trazado_820668" data-name="Trazado 820668" d="M1162.224,1124.177l-12.585,11.525s5.08-10.522,9.622-16.735C1159.261,1118.967,1161.583,1122.7,1162.224,1124.177Z" transform="translate(-1015.488 -970.925)" fill="#206654"/>
        <g id="Grupo_1072009" data-name="Grupo 1072009" transform="translate(49.423 42.508)">
          <path id="Trazado_820669" data-name="Trazado 820669" d="M741.364,503.207H569.434a9.382,9.382,0,0,1-9.382-9.382V391.054a9.382,9.382,0,0,1,9.382-9.382h171.93a9.382,9.382,0,0,1,9.382,9.382V493.825A9.382,9.382,0,0,1,741.364,503.207Z" transform="translate(-558.368 -379.988)" fill="#fff" opacity="0.5"/>
          <path id="Trazado_820670" data-name="Trazado 820670" d="M1333.836,854.92c.355-.289.7-.591,1.061-.874a.331.331,0,0,1,.277-.043c.491.2.972.428,1.464.625.143.057.21.114.223.272.044.556.1,1.111.158,1.667.009.09.021.18.039.336l2.491-.021c.066-.674.136-1.286.18-1.9a.368.368,0,0,1,.3-.393c.465-.15.908-.366,1.365-.541a.3.3,0,0,1,.249.034c.447.348.895.7,1.319,1.07a.32.32,0,0,0,.521-.015,1.561,1.561,0,0,1,.239-.169l.921-.918a.758.758,0,0,1,.07-.129c.317-.391.287-.306-.008-.672-.36-.446-.728-.885-1.045-1.269.271-.664.523-1.284.784-1.925l2.109-.206a7.946,7.946,0,0,0-.02-2.483c-.663-.063-1.31-.127-1.957-.186a.22.22,0,0,1-.228-.169c-.187-.514-.388-1.024-.609-1.524a.259.259,0,0,1,.047-.325c.367-.443.723-.894,1.088-1.338a.223.223,0,0,0,.016-.324,7.092,7.092,0,0,0-1.538-1.49c-.114-.085-.188-.04-.281.038-.427.36-.862.71-1.286,1.073a.28.28,0,0,1-.366.046c-.552-.264-1.119-.5-1.726-.761-.061-.619-.129-1.322-.2-2.024a7.419,7.419,0,0,0-2.51-.005c-.066.724-.13,1.428-.188,2.066-.545.244-1.057.458-1.553.7a.356.356,0,0,1-.462-.051c-.417-.359-.847-.7-1.276-1.047-.085-.068-.174-.179-.3-.052l-1.525,1.544c-.108.11-.089.2.01.321.368.431.717.878,1.091,1.3a.359.359,0,0,1,.035.461,12.93,12.93,0,0,0-.539,1.337.313.313,0,0,1-.334.267c-.63.044-1.259.113-1.875.17a7.114,7.114,0,0,0,.021,2.524c.64.056,1.286.119,1.934.164.162.011.214.076.27.22.182.463.4.913.581,1.375a.327.327,0,0,1-.028.276c-.314.4-.642.788-.97,1.176-.183.217-.258.3-.223.419l1.63,1.634C1333.442,855.24,1333.549,855.154,1333.836,854.92Zm1.856-3.681a3.735,3.735,0,0,1,.007-5.281h0a3.735,3.735,0,0,1,5.281.007h0a3.734,3.734,0,0,1-.007,5.281h0a3.734,3.734,0,0,1-5.281-.006Z" transform="translate(-1219.839 -773.996)" fill="#fff" opacity="0.5"/>
          <path id="Trazado_820671" data-name="Trazado 820671" d="M1403.3,774.9c.209-.171.413-.349.625-.515a.2.2,0,0,1,.164-.025c.29.118.573.252.863.368.085.034.124.067.132.16.026.328.061.655.093.983.005.053.012.106.023.2l1.469-.012c.039-.4.08-.758.106-1.12a.217.217,0,0,1,.177-.232c.274-.089.535-.216.805-.319a.178.178,0,0,1,.147.02c.263.205.528.41.778.631a.188.188,0,0,0,.307-.009.9.9,0,0,1,.141-.1l.543-.542a.44.44,0,0,1,.041-.076c.187-.231.169-.181,0-.4-.213-.263-.43-.522-.616-.748l.462-1.135,1.244-.122a4.7,4.7,0,0,0-.012-1.464c-.391-.037-.772-.075-1.154-.109a.129.129,0,0,1-.134-.1c-.111-.3-.229-.6-.36-.9a.153.153,0,0,1,.028-.192c.216-.261.426-.528.641-.789a.132.132,0,0,0,.01-.191,4.181,4.181,0,0,0-.907-.878c-.068-.05-.111-.024-.166.022-.251.212-.508.419-.758.633a.165.165,0,0,1-.216.027c-.325-.156-.66-.293-1.018-.449-.036-.365-.076-.78-.117-1.194a4.369,4.369,0,0,0-1.48,0c-.039.427-.077.842-.111,1.219-.321.144-.624.27-.916.415a.209.209,0,0,1-.272-.03c-.246-.212-.5-.414-.752-.617-.05-.04-.1-.106-.176-.031l-.9.911c-.064.064-.053.121.006.189.217.254.422.518.643.768a.211.211,0,0,1,.021.272,7.631,7.631,0,0,0-.318.788.184.184,0,0,1-.2.157c-.372.026-.742.066-1.106.1a4.191,4.191,0,0,0,.013,1.489c.377.033.759.07,1.141.1.1.007.126.045.159.129.107.273.233.539.343.811a.194.194,0,0,1-.017.162c-.185.236-.379.465-.572.694-.108.128-.152.179-.132.247l.961.963C1403.066,775.086,1403.13,775.035,1403.3,774.9Zm1.094-2.171a2.2,2.2,0,0,1,0-3.114h0a2.2,2.2,0,0,1,3.114,0h0a2.2,2.2,0,0,1,0,3.114h0a2.2,2.2,0,0,1-3.114,0Z" transform="translate(-1280.882 -710.407)" fill="#fff" opacity="0.5"/>
          <g id="Grupo_1071991" data-name="Grupo 1071991" transform="translate(115.877 79.759)">
            <rect id="Rectángulo_375773" data-name="Rectángulo 375773" width="7.509" height="38.799" transform="translate(35.065)" fill="#fff" opacity="0.3"/>
            <rect id="Rectángulo_375774" data-name="Rectángulo 375774" width="7.509" height="26.965" transform="translate(24.578 11.616)" fill="#fff" opacity="0.3"/>
            <rect id="Rectángulo_375775" data-name="Rectángulo 375775" width="7.509" height="30.393" transform="translate(45.703 8.406)" fill="#fff" opacity="0.3"/>
            <rect id="Rectángulo_375776" data-name="Rectángulo 375776" width="7.509" height="31.588" transform="translate(14.091 6.992)" fill="#fff" opacity="0.3"/>
            <rect id="Rectángulo_375777" data-name="Rectángulo 375777" width="7.509" height="22.223" transform="translate(3.603 16.357)" fill="#fff" opacity="0.3"/>
            <g id="Grupo_1071986" data-name="Grupo 1071986" transform="translate(3.603 8.723)" opacity="0.5">
              <rect id="Rectángulo_375778" data-name="Rectángulo 375778" width="7.509" height="30.076" transform="translate(31.462)" fill="#fff"/>
              <rect id="Rectángulo_375779" data-name="Rectángulo 375779" width="7.509" height="20.75" transform="translate(20.975 9.107)" fill="#fff"/>
              <rect id="Rectángulo_375780" data-name="Rectángulo 375780" width="7.509" height="23.607" transform="translate(42.1 6.469)" fill="#fff"/>
              <rect id="Rectángulo_375781" data-name="Rectángulo 375781" width="7.509" height="24.308" transform="translate(10.488 5.549)" fill="#fff"/>
              <rect id="Rectángulo_375782" data-name="Rectángulo 375782" width="7.509" height="17.101" transform="translate(0 12.756)" fill="#fff"/>
            </g>
            <g id="Grupo_1071990" data-name="Grupo 1071990" transform="translate(0 6.316)">
              <g id="Grupo_1071987" data-name="Grupo 1071987" transform="translate(0 1.396)">
                <path id="Trazado_820672" data-name="Trazado 820672" d="M1372.5,1022.434l-1.706-.589,4.8-6.189,2.771,1.5,5.62-7.148,6.971,5.048L1403.6,996.52l7.085,7.557,12.858-13.345,1.616.694-14.5,15.043-6.793-7.245-12.365,18.123-7.083-5.131-5.444,6.923-2.76-1.494Z" transform="translate(-1370.79 -990.731)" fill="#fff"/>
              </g>
              <g id="Grupo_1071989" data-name="Grupo 1071989" transform="translate(49.229)">
                <g id="Grupo_1071988" data-name="Grupo 1071988">
                  <path id="Trazado_820673" data-name="Trazado 820673" d="M1725.085,985.636l-1.738-1.707-3.047-.349,6.045-2.758Z" transform="translate(-1720.3 -980.822)" fill="#fff"/>
                </g>
              </g>
            </g>
          </g>
          <path id="Trazado_820674" data-name="Trazado 820674" d="M785.391,823.811a24.5,24.5,0,0,0-4.2.127c-9.091,1.121-16.884,8.3-23.394,16.111-1.407,1.687-2.927,3.511-4.881,3.855-2.359.415-4.558-1.458-6.316-3.418-3.072-3.426-6.4-7.768-10.536-7.174-2.959.424-5.2,3.3-7.37,5.791s-4.99,4.891-7.889,4.055c-2.583-.745-4.5-3.317-6.621-5.256-4.783-4.367-10.309-.3-13.671,3.662v6.17h84.88V823.811Z" transform="translate(-679.042 -759.82)" fill="#fff" opacity="0.3"/>
          <rect id="Rectángulo_375783" data-name="Rectángulo 375783" width="6.054" height="0.854" transform="translate(25.708 60.057)" fill="#fff" opacity="0.5"/>
          <rect id="Rectángulo_375784" data-name="Rectángulo 375784" width="5.56" height="0.853" transform="translate(25.708 62.002)" fill="#fff" opacity="0.5"/>
          <rect id="Rectángulo_375785" data-name="Rectángulo 375785" width="4.795" height="0.854" transform="translate(69.886 56.404) rotate(180)" fill="#fff" opacity="0.5"/>
          <rect id="Rectángulo_375786" data-name="Rectángulo 375786" width="6.054" height="0.854" transform="translate(69.885 58.349) rotate(180)" fill="#fff" opacity="0.5"/>
          <rect id="Rectángulo_375787" data-name="Rectángulo 375787" width="6.054" height="0.854" transform="translate(87.965 50.364)" fill="#fff" opacity="0.5"/>
          <rect id="Rectángulo_375788" data-name="Rectángulo 375788" width="4.078" height="0.853" transform="translate(89.94 52.309)" fill="#fff" opacity="0.5"/>
          <g id="Grupo_1071992" data-name="Grupo 1071992" transform="translate(32.111 62.855)">
            <path id="Trazado_820675" data-name="Trazado 820675" d="M778.193,820.357l-2.121-4.323.092-.067,2.121,4.323Z" transform="translate(-776.072 -815.967)" fill="#fff" opacity="0.5"/>
          </g>
          <g id="Grupo_1071993" data-name="Grupo 1071993" transform="translate(61.024 58.349)">
            <path id="Trazado_820676" data-name="Trazado 820676" d="M981.441,788.363l2.121-4.323-.092-.067-2.121,4.323Z" transform="translate(-981.349 -783.973)" fill="#fff" opacity="0.5"/>
          </g>
          <g id="Grupo_1071994" data-name="Grupo 1071994" transform="translate(87.583 53.659)">
            <path id="Trazado_820677" data-name="Trazado 820677" d="M1170,755.068l2.121-4.323-.093-.067L1169.91,755Z" transform="translate(-1169.91 -750.678)" fill="#fff" opacity="0.5"/>
          </g>
          <g id="Grupo_1071995" data-name="Grupo 1071995" transform="translate(72.69 30.21)">
            <rect id="Rectángulo_375789" data-name="Rectángulo 375789" width="24.822" height="3.159" fill="#fff" opacity="0.3"/>
            <rect id="Rectángulo_375790" data-name="Rectángulo 375790" width="24.822" height="3.159" transform="translate(0 4.689)" fill="#fff" opacity="0.3"/>
            <rect id="Rectángulo_375791" data-name="Rectángulo 375791" width="24.822" height="3.159" transform="translate(0 9.378)" fill="#fff" opacity="0.3"/>
            <rect id="Rectángulo_375792" data-name="Rectángulo 375792" width="4.692" height="3.159" fill="#fff" opacity="0.5"/>
            <rect id="Rectángulo_375793" data-name="Rectángulo 375793" width="11.509" height="3.159" transform="translate(0 4.689)" fill="#fff" opacity="0.5"/>
            <rect id="Rectángulo_375794" data-name="Rectángulo 375794" width="5.525" height="3.159" transform="translate(0 9.378)" fill="#fff" opacity="0.5"/>
          </g>
          <circle id="Elipse_6044" data-name="Elipse 6044" cx="9.002" cy="9.002" r="9.002" transform="translate(101.185 41.188) rotate(-80.782)" fill="#fff" opacity="0.3"/>
          <g id="Grupo_1071996" data-name="Grupo 1071996" transform="translate(125.543 24.774)">
            <path id="Trazado_820678" data-name="Trazado 820678" d="M1447.715,545.6a9,9,0,0,0,0,17.944Z" transform="translate(-1439.414 -545.599)" fill="#fff" opacity="0.5"/>
            <path id="Trazado_820679" data-name="Trazado 820679" d="M1508.3,545.6v17.944a9,9,0,0,0,0-17.944Z" transform="translate(-1498.598 -545.599)" fill="#fff" opacity="0.3"/>
          </g>
          <g id="Grupo_1071997" data-name="Grupo 1071997" transform="translate(148.581 24.763)">
            <path id="Trazado_820680" data-name="Trazado 820680" d="M1611.418,545.525a9,9,0,0,0,0,17.965Z" transform="translate(-1602.98 -545.525)" fill="#fff" opacity="0.5"/>
            <path id="Trazado_820681" data-name="Trazado 820681" d="M1670.88,554.349l7.3-4.216a9,9,0,0,0-7.3-4.607Z" transform="translate(-1661.317 -545.525)" fill="#fff"/>
            <path id="Trazado_820682" data-name="Trazado 820682" d="M1670.88,589.975v7.84a9,9,0,0,0,7.79-12.337Z" transform="translate(-1661.317 -579.851)" fill="#fff" opacity="0.3"/>
          </g>
          <g id="Grupo_1071998" data-name="Grupo 1071998" transform="translate(135.162 53.125)">
            <rect id="Rectángulo_375795" data-name="Rectángulo 375795" width="35.274" height="2.203" fill="#fff" opacity="0.5"/>
            <rect id="Rectángulo_375796" data-name="Rectángulo 375796" width="35.274" height="0.539" transform="translate(0 3.938)" fill="#fff" opacity="0.5"/>
            <rect id="Rectángulo_375797" data-name="Rectángulo 375797" width="35.274" height="0.539" transform="translate(0 6.005)" fill="#fff" opacity="0.5"/>
            <rect id="Rectángulo_375798" data-name="Rectángulo 375798" width="35.274" height="0.539" transform="translate(0 8.071)" fill="#fff" opacity="0.5"/>
            <rect id="Rectángulo_375799" data-name="Rectángulo 375799" width="35.274" height="0.539" transform="translate(0 10.138)" fill="#fff" opacity="0.5"/>
            <rect id="Rectángulo_375800" data-name="Rectángulo 375800" width="35.274" height="0.539" transform="translate(0 12.205)" fill="#fff" opacity="0.5"/>
            <rect id="Rectángulo_375801" data-name="Rectángulo 375801" width="35.274" height="0.539" transform="translate(0 14.271)" fill="#fff" opacity="0.5"/>
            <rect id="Rectángulo_375802" data-name="Rectángulo 375802" width="35.274" height="0.539" transform="translate(0 16.338)" fill="#fff" opacity="0.5"/>
            <rect id="Rectángulo_375803" data-name="Rectángulo 375803" width="35.274" height="0.539" transform="translate(0 18.405)" fill="#fff" opacity="0.5"/>
            <rect id="Rectángulo_375804" data-name="Rectángulo 375804" width="35.274" height="0.539" transform="translate(0 20.471)" fill="#fff" opacity="0.5"/>
            <rect id="Rectángulo_375805" data-name="Rectángulo 375805" width="35.274" height="0.539" transform="translate(0 22.538)" fill="#fff" opacity="0.5"/>
          </g>
          <rect id="Rectángulo_375806" data-name="Rectángulo 375806" width="6.763" height="0.783" transform="translate(164.389 18.578)" fill="#fff" opacity="0.5"/>
          <rect id="Rectángulo_375807" data-name="Rectángulo 375807" width="6.763" height="0.783" transform="translate(141.818 46.292)" fill="#fff" opacity="0.5"/>
          <rect id="Rectángulo_375808" data-name="Rectángulo 375808" width="3.381" height="0.783" transform="translate(141.818 44.796)" fill="#fff" opacity="0.5"/>
          <rect id="Rectángulo_375809" data-name="Rectángulo 375809" width="6.763" height="0.783" transform="translate(144.374 20.719)" fill="#fff" opacity="0.5"/>
          <rect id="Rectángulo_375810" data-name="Rectángulo 375810" width="3.381" height="0.783" transform="translate(144.374 19.222)" fill="#fff" opacity="0.5"/>
          <rect id="Rectángulo_375811" data-name="Rectángulo 375811" width="4.556" height="0.783" transform="translate(166.595 20.362)" fill="#fff" opacity="0.5"/>
          <g id="Grupo_1071999" data-name="Grupo 1071999" transform="translate(163.965 21.606)">
            <rect id="Rectángulo_375812" data-name="Rectángulo 375812" width="4.62" height="0.12" transform="matrix(0.513, -0.859, 0.859, 0.513, 0, 3.966)" fill="#fff" opacity="0.5"/>
          </g>
          <g id="Grupo_1072000" data-name="Grupo 1072000" transform="translate(147.753 41.813)">
            <rect id="Rectángulo_375813" data-name="Rectángulo 375813" width="4.62" height="0.12" transform="matrix(0.513, -0.859, 0.859, 0.513, 0, 3.966)" fill="#fff" opacity="0.5"/>
          </g>
          <g id="Grupo_1072002" data-name="Grupo 1072002" transform="translate(120.51 42.661)">
            <rect id="Rectángulo_375814" data-name="Rectángulo 375814" width="6.763" height="0.783" transform="translate(0 4.379)" fill="#fff" opacity="0.5"/>
            <rect id="Rectángulo_375815" data-name="Rectángulo 375815" width="3.381" height="0.783" transform="translate(0 2.883)" fill="#fff" opacity="0.5"/>
            <g id="Grupo_1072001" data-name="Grupo 1072001" transform="translate(5.036 0)">
              <rect id="Rectángulo_375816" data-name="Rectángulo 375816" width="4.62" height="0.12" transform="matrix(0.513, -0.859, 0.859, 0.513, 0, 3.966)" fill="#fff" opacity="0.5"/>
            </g>
          </g>
          <g id="Grupo_1072003" data-name="Grupo 1072003" transform="translate(141.035 20.747)">
            <rect id="Rectángulo_375817" data-name="Rectángulo 375817" width="4.62" height="0.12" transform="matrix(0.513, -0.859, 0.859, 0.513, 0, 3.966)" fill="#fff" opacity="0.5"/>
          </g>
          <rect id="Rectángulo_375818" data-name="Rectángulo 375818" width="6.763" height="0.783" transform="translate(120.766 20.719)" fill="#fff" opacity="0.5"/>
          <rect id="Rectángulo_375819" data-name="Rectángulo 375819" width="3.381" height="0.783" transform="translate(120.766 19.222)" fill="#fff" opacity="0.5"/>
          <rect id="Rectángulo_375820" data-name="Rectángulo 375820" width="4.868" height="0.783" transform="translate(120.766 22.368)" fill="#fff" opacity="0.5"/>
          <g id="Grupo_1072004" data-name="Grupo 1072004" transform="translate(117.426 20.747)">
            <rect id="Rectángulo_375821" data-name="Rectángulo 375821" width="4.62" height="0.12" transform="matrix(0.513, -0.859, 0.859, 0.513, 0, 3.966)" fill="#fff" opacity="0.5"/>
          </g>
          <g id="Grupo_1072005" data-name="Grupo 1072005" transform="translate(21.467 95.178)" opacity="0.5">
            <rect id="Rectángulo_375822" data-name="Rectángulo 375822" width="1.972" height="11.29" transform="translate(3.395 5.199)" fill="#fff"/>
            <rect id="Rectángulo_375823" data-name="Rectángulo 375823" width="1.972" height="8.467" transform="translate(6.948 6.61)" fill="#fff"/>
            <rect id="Rectángulo_375824" data-name="Rectángulo 375824" width="1.972" height="11.29" transform="translate(10.501 5.199)" fill="#fff"/>
            <rect id="Rectángulo_375825" data-name="Rectángulo 375825" width="1.972" height="21.342" transform="translate(14.054)" fill="#fff" opacity="0.3"/>
            <rect id="Rectángulo_375826" data-name="Rectángulo 375826" width="1.972" height="15.598" transform="translate(17.606 3.045)" fill="#fff"/>
            <rect id="Rectángulo_375827" data-name="Rectángulo 375827" width="1.972" height="21.342" transform="translate(49.715)" fill="#fff" opacity="0.3"/>
            <rect id="Rectángulo_375828" data-name="Rectángulo 375828" width="1.972" height="13.37" transform="translate(53.267 4.159)" fill="#fff"/>
            <rect id="Rectángulo_375829" data-name="Rectángulo 375829" width="1.972" height="6.239" transform="translate(56.575 7.724)" fill="#fff"/>
            <rect id="Rectángulo_375830" data-name="Rectángulo 375830" width="1.972" height="9.953" transform="translate(59.773 5.868)" fill="#fff"/>
            <rect id="Rectángulo_375831" data-name="Rectángulo 375831" width="1.972" height="20.445" transform="translate(63.042 0.621)" fill="#fff" opacity="0.3"/>
            <rect id="Rectángulo_375832" data-name="Rectángulo 375832" width="1.972" height="8.467" transform="translate(66.414 6.61)" fill="#fff"/>
            <rect id="Rectángulo_375833" data-name="Rectángulo 375833" width="1.972" height="13.37" transform="translate(69.906 4.159)" fill="#fff"/>
            <rect id="Rectángulo_375834" data-name="Rectángulo 375834" width="1.972" height="21.688" transform="translate(73.157)" fill="#fff" opacity="0.3"/>
            <rect id="Rectángulo_375835" data-name="Rectángulo 375835" width="1.972" height="12.701" transform="translate(76.351 4.159)" fill="#fff"/>
            <rect id="Rectángulo_375836" data-name="Rectángulo 375836" width="1.972" height="6.495" transform="translate(79.685 7.262)" fill="#fff"/>
            <rect id="Rectángulo_375837" data-name="Rectángulo 375837" width="1.972" height="3.838" transform="translate(82.908 8.59)" fill="#fff"/>
            <rect id="Rectángulo_375838" data-name="Rectángulo 375838" width="1.972" height="5.57" transform="translate(0 7.724)" fill="#fff"/>
            <rect id="Rectángulo_375839" data-name="Rectángulo 375839" width="1.972" height="21.342" transform="translate(35.168)" fill="#fff" opacity="0.3"/>
            <rect id="Rectángulo_375840" data-name="Rectángulo 375840" width="1.972" height="15.598" transform="translate(38.72 3.045)" fill="#fff"/>
            <rect id="Rectángulo_375841" data-name="Rectángulo 375841" width="1.972" height="8.467" transform="translate(21.159 6.61)" fill="#fff"/>
            <rect id="Rectángulo_375842" data-name="Rectángulo 375842" width="1.972" height="6.239" transform="translate(24.712 7.724)" fill="#fff"/>
            <rect id="Rectángulo_375843" data-name="Rectángulo 375843" width="1.972" height="8.467" transform="translate(42.563 6.61)" fill="#fff"/>
            <rect id="Rectángulo_375844" data-name="Rectángulo 375844" width="1.972" height="13.37" transform="translate(46.116 4.159)" fill="#fff"/>
            <rect id="Rectángulo_375845" data-name="Rectángulo 375845" width="1.972" height="9.953" transform="translate(28.265 5.868)" fill="#fff"/>
            <rect id="Rectángulo_375846" data-name="Rectángulo 375846" width="1.972" height="13.37" transform="translate(31.818 4.159)" fill="#fff"/>
          </g>
          <g id="Grupo_1072008" data-name="Grupo 1072008">
            <path id="Trazado_820695" data-name="Trazado 820695" d="M730.715,494.616H559.534a11.454,11.454,0,0,1-11.441-11.441V381.153a11.454,11.454,0,0,1,11.441-11.441h171.18a11.454,11.454,0,0,1,11.441,11.441V483.175A11.452,11.452,0,0,1,730.715,494.616ZM559.534,373.081a8.081,8.081,0,0,0-8.072,8.072V483.175a8.081,8.081,0,0,0,8.072,8.072h171.18a8.081,8.081,0,0,0,8.072-8.072V381.153a8.081,8.081,0,0,0-8.072-8.072Z" transform="translate(-548.093 -369.712)" fill="#fff"/>
          </g>
          <path id="Trazado_820696" data-name="Trazado 820696" d="M781.188,755.478c-9.091,1.12-16.884,8.3-23.394,16.111-1.407,1.687-2.927,3.511-4.881,3.855-2.359.415-4.558-1.458-6.316-3.418-3.072-3.426-6.4-7.768-10.536-7.174-2.959.425-5.2,3.3-7.37,5.791s-4.99,4.892-7.889,4.055c-2.583-.745-4.5-3.317-6.621-5.256-4.783-4.367-10.309-.3-13.671,3.662v9.642c3.361-3.961,8.888-8.03,13.671-3.662,2.124,1.939,4.038,4.511,6.621,5.256,2.9.837,5.721-1.567,7.889-4.055s4.411-5.366,7.37-5.791c4.137-.593,7.464,3.748,10.536,7.174,1.758,1.961,3.956,3.833,6.316,3.418,1.955-.344,3.474-2.168,4.881-3.855,6.51-7.807,14.3-14.991,23.394-16.111a24.465,24.465,0,0,1,4.2-.127v-9.642A24.5,24.5,0,0,0,781.188,755.478Z" transform="translate(-679.042 -701.003)" fill="#fff" opacity="0.5"/>
        </g>
        <path id="Trazado_820697" data-name="Trazado 820697" d="M1809.74,1232.822l12.272,21.759-1.435-22.911Z" transform="translate(-1582.614 -1067.755)" fill="#fff"/>
      </g>
      <path id="Trazado_820698" data-name="Trazado 820698" d="M982.9,227.968a5.547,5.547,0,0,0-6.8-4.119,8.166,8.166,0,0,0-9.818-4.337,10.058,10.058,0,0,0-18.066,1.757A6.9,6.9,0,0,0,937.96,227.3c0,.226.012.449.033.669Z" transform="translate(-833.625 -193.98)" fill="#fff" opacity="0.5"/>
      <path id="Trazado_820699" data-name="Trazado 820699" d="M364.792,692.888a2.671,2.671,0,0,1,3.275-1.983,3.931,3.931,0,0,1,4.728-2.089,4.843,4.843,0,0,1,8.7.846,3.323,3.323,0,0,1,4.938,2.9c0,.109-.006.216-.016.322Z" transform="translate(-341.187 -599.349)" fill="#fff" opacity="0.5"/>
      <path id="Trazado_820700" data-name="Trazado 820700" d="M1331.543,194.546a3.282,3.282,0,0,0-4.024-2.438,4.832,4.832,0,0,0-5.81-2.567,5.952,5.952,0,0,0-10.691,1.04,4.083,4.083,0,0,0-6.068,3.568q0,.2.019.4h26.574Z" transform="translate(-1148.923 -169.938)" fill="#fff" opacity="0.5"/>
      <path id="Trazado_820701" data-name="Trazado 820701" d="M270.912,803.653a4.434,4.434,0,0,0-5.435-3.292,6.525,6.525,0,0,0-7.846-3.466,8.038,8.038,0,0,0-14.439,1.4,5.514,5.514,0,0,0-8.2,4.819c0,.18.009.359.026.535Z" transform="translate(-229.674 -690.878)" fill="#fff" opacity="0.5"/>
    </g>
  </g>
</svg>
