<svg xmlns="http://www.w3.org/2000/svg" width="169" height="169" viewBox="0 0 169 169">
  <g id="Grupo_1079619" data-name="Grupo 1079619" transform="translate(-719.001 -2250.609)">
    <g id="Grupo_159183" data-name="Grupo 159183" transform="translate(719.001 2250.609)">
      <path id="Unión_12" data-name="Unión 12" d="M84.5,0A84.5,84.5,0,1,1,0,84.5,84.5,84.5,0,0,1,84.5,0Z" fill="#e8f3f8"/>
    </g>
    <g id="svg06" transform="translate(660.717 2222.882)">
      <path id="Trazado_719093" data-name="Trazado 719093" d="M209.083,122.031c0,11.759-1.548,20.162-7.374,28.019H81.66C70.345,129.295,80.6,126.545,84.1,119.626a9.685,9.685,0,0,0,1.029-5.367c-.031-.369-.079-.746-.149-1.143h0A16.65,16.65,0,0,0,84.457,111c-.248-.786-.487-1.579-.715-2.373h0c-.2-.7-.389-1.387-.566-2.082-2.137-8.36-2.369-16.54,6.247-20.72,12.179-5.909,17.121,3.147,26.923,1.642C127.441,85.765,129.2,74.435,146.361,74.4c9.869-.02,23.026,11.794,35.527,6.29,11.664-5.135,24.6,3.3,21.517,14.4C200.687,104.882,209.083,108.276,209.083,122.031Z" fill="#d4deff"/>
      <g id="Grupo_1017318" data-name="Grupo 1017318" transform="translate(111.714 94.813)">
        <path id="Trazado_719094" data-name="Trazado 719094" d="M973.2,633.493c.008.075.035.216.035.216l1.56.035.031-1.509L973.783,632C973.123,632.153,973.162,633.088,973.2,633.493Z" transform="translate(-973.181 -630.507)" fill="#f0f4ff"/>
        <path id="Trazado_719095" data-name="Trazado 719095" d="M990.946,594.067c-.986.059-1.446,1.245-1.446,1.245,1.63.173,1.882.7,1.882.7l-.177.6,1.481-1.029L992.168,594l-.22.487A4.576,4.576,0,0,0,990.946,594.067Z" transform="translate(-988.859 -594)" fill="#f0f4ff"/>
        <path id="Trazado_719096" data-name="Trazado 719096" d="M1077.305,609l-.605,1.438,1.391.581.6-.884c.1-.672-.786-.978-1.175-1.092C1077.45,609.024,1077.305,609,1077.305,609Z" transform="translate(-1072.633 -608.411)" fill="#f0f4ff"/>
        <path id="Trazado_719097" data-name="Trazado 719097" d="M1085.487,642.1l-.487-.381.416,1.756,1.658.094-.373-.385a4.535,4.535,0,0,0,.754-.782,1.962,1.962,0,0,0-.633-1.8C1086.069,642.054,1085.487,642.1,1085.487,642.1Z" transform="translate(-1080.607 -638.769)" fill="#f0f4ff"/>
        <path id="Trazado_719098" data-name="Trazado 719098" d="M1037.375,712.69c.538.416,1.237-.2,1.528-.491.051-.051.141-.165.141-.165l-.958-1.234-1.187.927Z" transform="translate(-1034.397 -706.211)" fill="#f0f4ff"/>
        <path id="Trazado_719099" data-name="Trazado 719099" d="M976,695.4l.519-.138a4.506,4.506,0,0,0,.31,1.041,1.962,1.962,0,0,0,1.878.33c-.9-1.371-.652-1.9-.652-1.9l.574-.24L976.892,694Z" transform="translate(-975.889 -690.071)" fill="#f0f4ff"/>
      </g>
      <g id="Grupo_1017319" data-name="Grupo 1017319" transform="translate(79.765 130.962)">
        <path id="Trazado_719100" data-name="Trazado 719100" d="M203.834,1514.635c-.047.043-.134.138-.134.138l.79,1.131,1.092-.766-.377-.868C204.749,1513.881,204.1,1514.4,203.834,1514.635Z" transform="translate(-201.982 -1514.13)" fill="#e3eaff"/>
        <path id="Trazado_719101" data-name="Trazado 719101" d="M246.774,1514.9a1.735,1.735,0,0,0-1.642-.377c.731,1.253.487,1.709.487,1.709l-.519.185,1.509.519.853-1.194-.464.1A3.947,3.947,0,0,0,246.774,1514.9Z" transform="translate(-241.756 -1514.449)" fill="#e3eaff"/>
        <path id="Trazado_719102" data-name="Trazado 719102" d="M279.844,1579.6l-1.344.322.314,1.3.943-.035c.53-.279.287-1.073.165-1.411C279.9,1579.714,279.844,1579.6,279.844,1579.6Z" transform="translate(-273.843 -1577.028)" fill="#e3eaff"/>
        <path id="Trazado_719103" data-name="Trazado 719103" d="M240.818,1606.45l.016-.55-1.033,1.218.8,1.23.079-.468a4.06,4.06,0,0,0,.951.13c.829-.275.951-1.391.951-1.391C241.151,1606.839,240.818,1606.45,240.818,1606.45Z" transform="translate(-236.664 -1602.295)" fill="#e3eaff"/>
        <path id="Trazado_719104" data-name="Trazado 719104" d="M183.194,1606.841c-.016.6.794.774,1.147.833a1.74,1.74,0,0,0,.193.016l.377-1.328-1.285-.361Z" transform="translate(-182.282 -1602.391)" fill="#e3eaff"/>
        <path id="Trazado_719105" data-name="Trazado 719105" d="M160.2,1557.594l.369.3a4.085,4.085,0,0,0-.581.766c-.169.857.746,1.513.746,1.513.511-1.359,1.014-1.458,1.014-1.458l.471.283-.554-1.5Z" transform="translate(-159.97 -1555.796)" fill="#e3eaff"/>
      </g>
      <g id="Grupo_1017343" data-name="Grupo 1017343" transform="translate(114.105 90.773)">
        <g id="Grupo_1017338" data-name="Grupo 1017338">
          <path id="Trazado_719106" data-name="Trazado 719106" d="M1470.6,836s1.556.546,3.383,3.3H1471.2Z" transform="translate(-1453.449 -822.453)" fill="#c4204a"/>
          <g id="Grupo_1017323" data-name="Grupo 1017323" transform="translate(17.029 13.539)">
            <path id="Trazado_719107" data-name="Trazado 719107" d="M1508.2,908.8s1.292.063,2.169.161,5.4.99,6.887,2.051c-.683.558-4.4.2-5.257,0A6.686,6.686,0,0,1,1508.2,908.8Z" transform="translate(-1506.601 -905.932)" fill="#87571a"/>
            <path id="Trazado_719108" data-name="Trazado 719108" d="M1515.242,839.32l-.8-.02a.134.134,0,0,0-.134.126l0,.169a.13.13,0,0,0,.039.094l-.043,1.587a1.6,1.6,0,0,1-.33.931l-.012.012a1.866,1.866,0,0,0-.385,1.084l-.083,3.178a.421.421,0,0,0,.409.432l1.493.039a.421.421,0,0,0,.432-.409l.082-3.163a1.841,1.841,0,0,0-.346-1.128,1.579,1.579,0,0,1-.295-.966l.043-1.567a.141.141,0,0,0,.055-.1l0-.169A.133.133,0,0,0,1515.242,839.32Z" transform="translate(-1511.687 -839.163)" fill="#3f964f"/>
            <path id="Trazado_719109" data-name="Trazado 719109" d="M1637.259,878.908l-.762-.24a.128.128,0,0,0-.161.086l-.051.161a.133.133,0,0,0,.012.1l-.475,1.516a1.6,1.6,0,0,1-.573.805l-.016.012a1.871,1.871,0,0,0-.668.939l-.947,3.033a.421.421,0,0,0,.275.526l1.422.444a.421.421,0,0,0,.526-.275l.943-3.017a1.832,1.832,0,0,0-.023-1.179,1.587,1.587,0,0,1-.02-1.01l.468-1.5a.127.127,0,0,0,.079-.083l.051-.161A.126.126,0,0,0,1637.259,878.908Z" transform="translate(-1627.072 -876.979)" fill="#444cc2"/>
            <path id="Trazado_719110" data-name="Trazado 719110" d="M1619.054,888.756V888.3h-1.2v.456a.9.9,0,0,1-.267.644,1.257,1.257,0,0,0-.389.911v3.434h2.515v-3.434a1.264,1.264,0,0,0-.389-.911A.879.879,0,0,1,1619.054,888.756Z" transform="translate(-1611.319 -886.237)" fill="#4bb35e"/>
            <path id="Trazado_719111" data-name="Trazado 719111" d="M1531.063,836.664l.169-.424-1.112-.44-.169.424a.894.894,0,0,1-.487.5,1.267,1.267,0,0,0-.7.7l-1.265,3.19,2.338.927,1.265-3.19a1.237,1.237,0,0,0-.027-.99A.9.9,0,0,1,1531.063,836.664Z" transform="translate(-1525.143 -835.8)" fill="#7078e6"/>
            <path id="Trazado_719112" data-name="Trazado 719112" d="M1540.452,862.564l-.731-.322a.127.127,0,0,0-.169.067l-.067.153a.131.131,0,0,0,0,.1l-.64,1.454a1.578,1.578,0,0,1-.66.735l-.016.008a1.842,1.842,0,0,0-.766.857l-1.281,2.911a.421.421,0,0,0,.216.554l1.363.6a.421.421,0,0,0,.554-.216l1.273-2.9a1.856,1.856,0,0,0,.106-1.175,1.579,1.579,0,0,1,.094-1.006l.632-1.434a.118.118,0,0,0,.087-.075l.067-.153A.12.12,0,0,0,1540.452,862.564Z" transform="translate(-1533.392 -861.193)" fill="#c4204a"/>
            <path id="Trazado_719113" data-name="Trazado 719113" d="M1469.1,908.8s1.175,1.253,4.549,1.929c3.328.668,4.506.283,4.506.283a53.1,53.1,0,0,1-1.395,5.5c-.617,1.945-1.76,3.363-1.8,4.671-1.332.9-7.461-1.293-7.461-1.293Z" transform="translate(-1467.5 -905.932)" fill="#fad56e"/>
            <g id="Grupo_1017322" data-name="Grupo 1017322" transform="translate(9.084 6.055)">
              <g id="Grupo_1017321" data-name="Grupo 1017321">
                <g id="Grupo_1017320" data-name="Grupo 1017320">
                  <path id="Trazado_719114" data-name="Trazado 719114" d="M1699.074,991.463a.745.745,0,0,0-.1.923c.02,0,.016.02.016.02-.035,0-.059.024-.094.047a.607.607,0,0,0-.106.711.382.382,0,0,0,.578.173.57.57,0,0,0,.169-.585.386.386,0,0,0,.188-.071.676.676,0,0,0,.192-.629l.114-.067a.762.762,0,0,0,.134-.841.327.327,0,0,0,.188-.071.713.713,0,0,0,.134-.841.45.45,0,0,0-.687-.212.657.657,0,0,0-.212.672.39.39,0,0,0-.208.071.677.677,0,0,0-.193.629Z" transform="translate(-1698.717 -989.932)" fill="#f37a50"/>
                </g>
              </g>
            </g>
            <path id="Trazado_719115" data-name="Trazado 719115" d="M1542.953,964.163a4.863,4.863,0,0,1-3.253-.963c.177.915,1.037,1.65,1.52,3.009a3.543,3.543,0,0,0-.44-1.815A9.436,9.436,0,0,0,1542.953,964.163Z" transform="translate(-1536.863 -958.195)" fill="#fabd6e"/>
            <path id="Trazado_719116" data-name="Trazado 719116" d="M1648.879,1114.1l-1.257,2.463A2.125,2.125,0,0,1,1648.879,1114.1Z" transform="translate(-1640.484 -1103.166)" fill="#fabd6e"/>
          </g>
          <g id="Grupo_1017337" data-name="Grupo 1017337">
            <path id="Trazado_719117" data-name="Trazado 719117" d="M1309.931,1183.7l-6.231,4.219s4.007,10.792,6.7,14.316c.467.613,3.823.248,4.015-.487C1315.117,1199.073,1309.931,1183.7,1309.931,1183.7Z" transform="translate(-1293.106 -1156.493)" fill="#16142b"/>
            <path id="Trazado_719118" data-name="Trazado 719118" d="M1456.855,1592.753h-4.019c-.452-2.577-1.253-7.995-.809-11.912.016-.149.035-.291.055-.436a10.181,10.181,0,0,1,.358-1.654h0a3.95,3.95,0,0,1,1.493-2.224,1.837,1.837,0,0,1,2.581.2,2.229,2.229,0,0,1,.279.487c.024.3.047.609.063.939v.008c.047.888.075,1.9.083,3.056,0,.134,0,.267,0,.4C1456.95,1584.361,1456.887,1587.924,1456.855,1592.753Z" transform="translate(-1435.481 -1533.476)" fill="#16142b"/>
            <path id="Trazado_719119" data-name="Trazado 719119" d="M1229.712,1141.384s-3.988-5.775-6.518-1.815-.786,14.732.055,19.557c.145.841,2.562,1.792,3.029,1.3C1227.967,1158.627,1229.712,1141.384,1229.712,1141.384Z" transform="translate(-1214.498 -1112.763)" fill="#2c2858"/>
            <path id="Trazado_719120" data-name="Trazado 719120" d="M1213.982,1603H1208.8c.083-2.856.421-9.912,1.74-13.746a8.855,8.855,0,0,1,.436-1.068,2.589,2.589,0,0,1,1.214-1.285c1.21-.534,2.522.562,2.357,2.479h0c0,.012,0,.024,0,.035C1213.99,1592.09,1215.577,1595.578,1213.982,1603Z" transform="translate(-1201.935 -1543.719)" fill="#2c2858"/>
            <path id="Trazado_719121" data-name="Trazado 719121" d="M1049.381,492.585c-1.316-2.3-6.3-1.666-6.639,1.135s-.043,4.628-3.512,4.428c-2.762-.157-5.418,2.491-5.158,6.357.33,4.95,3.63,2.793,3,5.292s-.978,5.013,2.565,4.856a6.223,6.223,0,0,0,5.893-7.311c-.683-4,2.471-3.63,3.088-5.669C1049.491,498.773,1049.381,492.585,1049.381,492.585Z" transform="translate(-1034.053 -491.182)" fill="#16142b"/>
            <path id="Trazado_719122" data-name="Trazado 719122" d="M1336.2,700.773s-.138,1.5-1.022,1.5-2.424-1.862-2.424-1.862a4.855,4.855,0,0,0,.208-1.536c0-.161,0-.33-.008-.5a23.244,23.244,0,0,0-.456-3.481l3.343,1.674s.1,1.4.2,2.62c.012.149.024.3.039.44C1336.13,700.125,1336.17,700.546,1336.2,700.773Z" transform="translate(-1320.775 -686.897)" fill="#de623c"/>
            <g id="Grupo_1017326" data-name="Grupo 1017326" transform="translate(8.232 12.752)">
              <g id="Grupo_1017325" data-name="Grupo 1017325">
                <g id="Grupo_1017324" data-name="Grupo 1017324">
                  <path id="Trazado_719123" data-name="Trazado 719123" d="M1252.986,827.737c.122-1.862,2.145-4.679,1.493-6.612-.467-1.552-1.143-4.168-2.338-4.479-.483-.126-.758-.468-1.426-.483,0,0,.157,1.634-.644,1.646-1.544.024-2.561-2.012-2.561-2.012-.821-.134-3.607.57-3.783,1.273-.149,2.44.7,5.469,1.175,8.152a11.041,11.041,0,0,1-.53,3.17c-.3.778-.754,1.626-.77,1.8,0,0,5.536,2.118,9.283.361C1252.887,830.55,1252.9,828.994,1252.986,827.737Z" transform="translate(-1243.6 -815.781)" fill="#f5a3b7"/>
                </g>
              </g>
            </g>
            <path id="Trazado_719124" data-name="Trazado 719124" d="M1424.7,825.6a10.637,10.637,0,0,1,2.613,5.673,35.433,35.433,0,0,1-.739,7.523l.963-.346a38.457,38.457,0,0,0,1.21-7.916c-1.454-4.133-2.243-4.526-2.243-4.526Z" transform="translate(-1409.353 -812.462)" fill="#e62552"/>
            <g id="Grupo_1017333" data-name="Grupo 1017333" transform="translate(10.592 1.383)">
              <g id="Grupo_1017330" data-name="Grupo 1017330" transform="translate(1.119 0.685)">
                <path id="Trazado_719125" data-name="Trazado 719125" d="M1332.145,548.6c-.122,2.738,1.52,5.037,3.669,5.135s4-2.043,4.117-4.781-1.52-5.037-3.669-5.135S1332.266,545.864,1332.145,548.6Z" transform="translate(-1332.138 -543.817)" fill="#f37a50"/>
                <path id="Trazado_719126" data-name="Trazado 719126" d="M1496.936,685.668a.374.374,0,1,0,.3-.436A.372.372,0,0,0,1496.936,685.668Z" transform="translate(-1490.455 -679.67)"/>
                <path id="Trazado_719127" data-name="Trazado 719127" d="M1427.143,668.815a.405.405,0,1,0,.326-.471A.406.406,0,0,0,1427.143,668.815Z" transform="translate(-1423.405 -663.445)"/>
                <path id="Trazado_719128" data-name="Trazado 719128" d="M1462.976,700.1a3.743,3.743,0,0,0,.4.692.151.151,0,0,1-.008.2,2.009,2.009,0,0,1-1.045.357.039.039,0,0,1-.02-.075,1.926,1.926,0,0,0,.593-.389.171.171,0,0,0,.043-.153c-.024-.126-.071-.389-.094-.6A.067.067,0,0,1,1462.976,700.1Z" transform="translate(-1457.171 -693.93)" fill="#de623c"/>
                <g id="Grupo_1017327" data-name="Grupo 1017327" transform="translate(3.114 7.523)">
                  <path id="Trazado_719129" data-name="Trazado 719129" d="M1413.863,736.184a.2.2,0,0,0-.244-.149,1.918,1.918,0,0,1-1.823-.593.2.2,0,0,0-.2-.145.183.183,0,0,0-.09.024.2.2,0,0,0-.11.185c0,.13.142.283.287.4.031.027.063.051.09.075a2.417,2.417,0,0,0,1.434.511,2.071,2.071,0,0,0,.5-.063A.207.207,0,0,0,1413.863,736.184Z" transform="translate(-1411.4 -735.296)" fill="#de623c"/>
                </g>
                <g id="Grupo_1017328" data-name="Grupo 1017328" transform="translate(3.347 4.098)">
                  <path id="Trazado_719130" data-name="Trazado 719130" d="M1417.532,648.686a.2.2,0,0,1-.094-.381,1.372,1.372,0,0,1,1.171-.071.2.2,0,0,1,.1.271.2.2,0,0,1-.267.1.987.987,0,0,0-.817.067A.337.337,0,0,1,1417.532,648.686Z" transform="translate(-1417.329 -648.137)" fill="#201d40"/>
                </g>
                <g id="Grupo_1017329" data-name="Grupo 1017329" transform="translate(6.807 4.876)">
                  <path id="Trazado_719131" data-name="Trazado 719131" d="M1506.074,668.838a.2.2,0,0,1-.192-.145.537.537,0,0,0-.338-.358.2.2,0,0,1-.141-.247.2.2,0,0,1,.247-.145.937.937,0,0,1,.621.633.2.2,0,0,1-.137.251A.194.194,0,0,1,1506.074,668.838Z" transform="translate(-1505.394 -667.936)" fill="#201d40"/>
                </g>
              </g>
              <path id="Trazado_719132" data-name="Trazado 719132" d="M1304.632,532.631c1.583.236,3.351-1.532,4.487-2.279a4.021,4.021,0,0,0,2.7-1.422c-.031-1.642-.947-2.557-4.3-2.538C1305.445,526.4,1301.933,529.044,1304.632,532.631Z" transform="translate(-1303.652 -526.392)" fill="#201d40"/>
              <path id="Trazado_719133" data-name="Trazado 719133" d="M1413.8,581.511s3.218.688,4.585,2.11c1.623-1.237.538-2.813-.813-3.72A14.211,14.211,0,0,0,1413.8,581.511Z" transform="translate(-1409.473 -577.798)" fill="#201d40"/>
              <g id="Grupo_1017332" data-name="Grupo 1017332" transform="translate(0.282 5.227)">
                <path id="Trazado_719134" data-name="Trazado 719134" d="M1312.635,659.984a.974.974,0,1,1-1.457-.381A1.072,1.072,0,0,1,1312.635,659.984Z" transform="translate(-1310.829 -659.447)" fill="#f37a50"/>
                <g id="Grupo_1017331" data-name="Grupo 1017331" transform="translate(0.698 0.536)">
                  <path id="Trazado_719135" data-name="Trazado 719135" d="M1329.051,674.305a.134.134,0,0,0,.059-.027.64.64,0,0,0,.263-.739.682.682,0,0,0-.644-.452.14.14,0,1,0,.012.279.4.4,0,0,1,.369.263.362.362,0,0,1-.169.416.147.147,0,0,0,.11.259Z" transform="translate(-1328.595 -673.087)" fill="#de623c"/>
                </g>
              </g>
            </g>
            <path id="Trazado_719136" data-name="Trazado 719136" d="M1227.88,813.339a10.8,10.8,0,0,1,2.837-.668,14.9,14.9,0,0,1,1.685,5.838c.173,2.825-.526,3.933.075,8.081-1.662.354-4.683.318-6.376-.966.845-1.693.935-1.968.907-4.624A55.906,55.906,0,0,1,1227.88,813.339Z" transform="translate(-1218.555 -800.036)" fill="#e62552"/>
            <path id="Trazado_719137" data-name="Trazado 719137" d="M1209.334,831.062c-1.513,2.361-1.878,9.873-.051,12.415a6.236,6.236,0,0,0,3.6-1.611s-.574-6.27-.295-8.026c.11-.707.578-2.593-.31-3.143A2.146,2.146,0,0,0,1209.334,831.062Z" transform="translate(-1201.216 -816.965)" fill="#c4204a"/>
            <g id="Grupo_1017336" data-name="Grupo 1017336" transform="translate(8.362 22.303)">
              <g id="Grupo_1017334" data-name="Grupo 1017334" transform="translate(10.178)">
                <path id="Trazado_719138" data-name="Trazado 719138" d="M1510.359,1066.279h0a1.775,1.775,0,0,1,.13-1.12l.844-1.8-.974-.456-.849,1.819a1.816,1.816,0,0,1-.75.805l-.016.008a2.059,2.059,0,0,0-.876.935l-1.85,3.9a.47.47,0,0,0,.228.625l1.509.7a.469.469,0,0,0,.625-.228l1.843-3.881A2.175,2.175,0,0,0,1510.359,1066.279Z" transform="translate(-1505.973 -1062.742)" fill="#3f964f"/>
                <path id="Trazado_719139" data-name="Trazado 719139" d="M1615.578,1059.715l-.805-.377a.149.149,0,0,1-.071-.193l.079-.173a.149.149,0,0,1,.192-.071l.805.377a.149.149,0,0,1,.071.193l-.078.173A.15.15,0,0,1,1615.578,1059.715Z" transform="translate(-1610.419 -1058.89)" fill="#3f964f"/>
              </g>
              <path id="Trazado_719140" data-name="Trazado 719140" d="M1256.788,1124.826s-6.274-1.964-7.437-2.444c-1.214-.5-2.169,1.194-2.452,2.42a23.849,23.849,0,0,0,9.672,1.324A6.706,6.706,0,0,1,1256.788,1124.826Z" transform="translate(-1246.9 -1119.801)" fill="#f37a50"/>
              <g id="Grupo_1017335" data-name="Grupo 1017335" transform="translate(9.539 3.765)">
                <path id="Trazado_719141" data-name="Trazado 719141" d="M1489.7,1157.257c.145-.456-.024-.943.2-1.234.137-.177.554-.173.884-.358s.4-.57.786-.782c.338-.185.5-.2.6-.083l-.4.837c-.043.247.173.578,1.155.931.75.271,1.406.185,1.363.621-.027.287-.424.145-.951-.02.581.365.743.141.75.5.008.436-1,.1-1.454-.134.534.55,1.147.31,1.151.593-.016.318-.609.479-1.3-.035.538.558.916.354.853.617s-1.2.279-2.208-.346C1490.879,1158.208,1489.7,1157.257,1489.7,1157.257Z" transform="translate(-1489.7 -1154.728)" fill="#f37a50"/>
              </g>
            </g>
            <path id="Trazado_719142" data-name="Trazado 719142" d="M1221.462,1105.192c.216-.079.016.409.161.625s.42.283.2.483-1.913,2.169-3.834,1.976a2.888,2.888,0,0,1-.9-2.259C1218.052,1106.3,1221.462,1105.192,1221.462,1105.192Z" transform="translate(-1209.863 -1081.062)" fill="#e64369"/>
            <path id="Trazado_719143" data-name="Trazado 719143" d="M1314.9,797.3l-1.2.727,1.171,2.365,1.336.974S1315.6,799.1,1314.9,797.3Z" transform="translate(-1302.714 -785.274)" fill="#c4204a"/>
            <path id="Trazado_719144" data-name="Trazado 719144" d="M1423.5,811.9l1.21.707.884,1.56-.173,1.163-1.874-2.891Z" transform="translate(-1408.2 -799.3)" fill="#c4204a"/>
          </g>
        </g>
        <g id="Grupo_1017342" data-name="Grupo 1017342" transform="translate(7.58 30.652)">
          <path id="Trazado_719145" data-name="Trazado 719145" d="M1295.891,1273.121l-.071.888-2,25.674a.458.458,0,0,1-.169.342h-16.493a.445.445,0,0,1-.169-.342l-.794-11.271-.314-4.487-.7-9.916-.086-1.23c0-.283,1.069-1.379,1.442-1.379l.821,0h0l3.257.016,2.966.016,1.147,0h0l1.984.008,7.826.039C1295.352,1271.219,1295.891,1272.838,1295.891,1273.121Z" transform="translate(-1273.21 -1271.4)" fill="#444cc2"/>
          <path id="Trazado_719146" data-name="Trazado 719146" d="M1250.627,1271.4h-22.951c-.369,0-.676.22-.676.491v1.63c0,.267.3.491.676.491h22.951c.373,0,.676-.22.676-.491v-1.63C1251.3,1271.62,1251,1271.4,1250.627,1271.4Z" transform="translate(-1227 -1271.4)" fill="#7078e6"/>
          <g id="Grupo_1017341" data-name="Grupo 1017341" transform="translate(6.266 5.677)">
            <g id="Grupo_1017339" data-name="Grupo 1017339" transform="translate(4.031 2.683)">
              <path id="Trazado_719147" data-name="Trazado 719147" d="M1491.21,1488.761h-.244a1.868,1.868,0,0,1-1.866-1.866v-2.7h3.976v2.7A1.865,1.865,0,0,1,1491.21,1488.761Z" transform="translate(-1489.1 -1484.2)" fill="#7078e6"/>
              <rect id="Rectángulo_375591" data-name="Rectángulo 375591" width="0.664" height="3.917" transform="translate(1.658 3.709)" fill="#7078e6"/>
              <path id="Trazado_719148" data-name="Trazado 719148" d="M1509.293,1659.762c0-.42-.581-.762-1.3-.762s-1.3.342-1.3.762Z" transform="translate(-1506.008 -1652.133)" fill="#7078e6"/>
            </g>
            <g id="Grupo_1017340" data-name="Grupo 1017340">
              <path id="Trazado_719149" data-name="Trazado 719149" d="M1392.519,1415.9c-.075,0-.149,0-.22,0a6.032,6.032,0,0,0-5.406,3.874,5.956,5.956,0,0,0-.393,2.141,6.019,6.019,0,1,0,6.019-6.019Zm1.591,11.417a5.631,5.631,0,0,1-6.977-7.028,5.642,5.642,0,0,1,5.276-4h.114a5.626,5.626,0,0,1,1.587,11.024Z" transform="translate(-1386.5 -1415.9)" fill="#7078e6"/>
            </g>
          </g>
        </g>
      </g>
      <g id="Grupo_1017361" data-name="Grupo 1017361" transform="translate(172.248 88.377)">
        <g id="c_8_" transform="translate(7.928 0)">
          <path id="Trazado_719150" data-name="Trazado 719150" d="M2722.263,780s-5.308,2.581-6.463,7.441c1.049,2.008,6.29,1.8,6.29,1.8Z" transform="translate(-2715.8 -766.256)" fill="#c4204a"/>
          <path id="Trazado_719151" data-name="Trazado 719151" d="M2752.891,1190.1l7.4,3.885s-6.035,11.381-9.5,14.905c-.6.613-4.062-.342-4.31-1.076C2745.568,1205.139,2752.891,1190.1,2752.891,1190.1Z" transform="translate(-2745.198 -1160.245)" fill="#2c2858"/>
          <path id="Trazado_719152" data-name="Trazado 719152" d="M2750.556,1587.109h-4.569c-.047-5.5-.319-9.091-.417-11.794,0-.161-.012-.318-.016-.475-.024-.864-.028-1.634.008-2.353h0c.011-.247.027-.487.047-.723v-.012c.008-.086.016-.177.024-.263a.32.32,0,0,0,.019-.039h0c0-.012.012-.02.016-.031a2.418,2.418,0,0,1,.676-.774,2.832,2.832,0,0,1,.267-.169,2.3,2.3,0,0,1,2.09,0,2.866,2.866,0,0,1,.625.4,3.368,3.368,0,0,1,.534.566,4.515,4.515,0,0,1,.271.4,4.765,4.765,0,0,1,.283.566c.028.067.055.138.083.208s.035.13.051.2c.039.149.074.306.106.463h0c0,.028.012.051.016.079a18.6,18.6,0,0,1,.279,1.98c.012.134.023.271.035.409A65.724,65.724,0,0,1,2750.556,1587.109Z" transform="translate(-2744.369 -1525.436)" fill="#2c2858"/>
          <path id="Trazado_719153" data-name="Trazado 719153" d="M2953.1,1182.445l8.855-2.145s.373,14.383-.708,19.207c-.188.841-3.3,1.792-3.905,1.3C2955.159,1199.012,2953.1,1182.445,2953.1,1182.445Z" transform="translate(-2943.777 -1150.83)" fill="#494c7f"/>
          <path id="Trazado_719154" data-name="Trazado 719154" d="M3040.771,1600.99h-3.96c-1.469-4.557-2.192-7.468-2.684-9.641-.365-1.622-.6-2.836-.915-4.023a.034.034,0,0,0,0-.02h0a2.254,2.254,0,0,1,1.426-2.491,2.681,2.681,0,0,1,3.174,1.277,8.342,8.342,0,0,1,.542,1.014h0C3040.189,1591.117,3040.665,1598.593,3040.771,1600.99Z" transform="translate(-3020.719 -1539.316)" fill="#494c7f"/>
          <g id="Grupo_1017351" data-name="Grupo 1017351" transform="translate(4.685)">
            <path id="v-2_2_" d="M2987.527,660.35h0l-1.654,0-.373,3.9,1.929,1.021,2.059-1.01V659.8Z" transform="translate(-2979.59 -650.779)" fill="#de623c"/>
            <g id="Grupo_1017350" data-name="Grupo 1017350">
              <g id="Grupo_1017349" data-name="Grupo 1017349">
                <path id="Trazado_719155" data-name="Trazado 719155" d="M2842.93,439.928c1.5.189,2.3-1.717,2.3-1.717a.908.908,0,0,0,.774-1.061,1.182,1.182,0,0,0,.841-1.426c-.153-.707-.845-.68-.927-1.5-.067-.664.42-2.279-1.689-2.424a1.693,1.693,0,0,0-1.308-1.536c-1.552-.373-1.945.558-2.628.723-.762.181-2.393-.53-2.621,1.23a2.088,2.088,0,0,0-1.595.805,1.851,1.851,0,0,0,.1,2.027,1.755,1.755,0,0,0-1.08,1.116,1.543,1.543,0,0,0,.621,1.623,1.614,1.614,0,0,0,.684.247c.357.063.369,1.014.683,1.2a7.216,7.216,0,0,0,1.6.684Z" transform="translate(-2835.055 -430.172)" fill="#16142b"/>
                <path id="Trazado_719156" data-name="Trazado 719156" d="M2904.954,500.131c.306,2.719-1.465,5.367-3.6,5.606s-3.827-2.012-4.133-4.734,1.175-5.119,3.312-5.363S2904.648,497.412,2904.954,500.131Z" transform="translate(-2894.738 -493.05)" fill="#f37a50"/>
                <path id="Trazado_719157" data-name="Trazado 719157" d="M2912.883,641.153a.373.373,0,1,1-.33-.413A.374.374,0,0,1,2912.883,641.153Z" transform="translate(-2909.11 -632.465)"/>
                <path id="Trazado_719158" data-name="Trazado 719158" d="M2983.448,626.291a.405.405,0,1,1-.358-.448A.406.406,0,0,1,2983.448,626.291Z" transform="translate(-2976.842 -618.153)"/>
                <path id="Trazado_719159" data-name="Trazado 719159" d="M2946.485,646.9c-.255.589-.585,1.312-.585,1.312a.983.983,0,0,0,1.033.436c-.338-.083-.684-.251-.617-.7S2946.485,646.9,2946.485,646.9Z" transform="translate(-2941.545 -638.385)" fill="#de623c"/>
                <g id="Grupo_1017344" data-name="Grupo 1017344" transform="translate(5.762 6.931)">
                  <path id="Trazado_719160" data-name="Trazado 719160" d="M2983.012,607.112a.269.269,0,0,0,.031-.031.188.188,0,0,0-.036-.263.992.992,0,0,0-1.206-.043.187.187,0,1,0,.235.291c.33-.263.743.047.747.051A.178.178,0,0,0,2983.012,607.112Z" transform="translate(-2981.732 -606.585)" fill="#16142b"/>
                </g>
                <g id="Grupo_1017345" data-name="Grupo 1017345" transform="translate(2.582 7.581)">
                  <path id="Trazado_719161" data-name="Trazado 719161" d="M2901.83,623.52a.154.154,0,0,0,.008-.267.775.775,0,0,0-.585-.075.783.783,0,0,0-.471.487.156.156,0,1,0,.287.122.517.517,0,0,1,.283-.314.458.458,0,0,1,.326.043A.163.163,0,0,0,2901.83,623.52Z" transform="translate(-2900.767 -623.149)" fill="#16142b"/>
                </g>
                <path id="Trazado_719162" data-name="Trazado 719162" d="M2871,477.058l4.1-3.658,5.209,2.672-.652,3.76c-.13-1.737-1.194-1.179-1.744-1.689s-.8-1.32-2.109-.613c0,0-1.065-.735-1.611.3-.425.8-1,.644-1.568.684-.675.047-.514.7-.927.68Z" transform="translate(-2869.588 -471.702)" fill="#16142b"/>
                <g id="Grupo_1017347" data-name="Grupo 1017347" transform="translate(9.374 6.358)">
                  <path id="Trazado_719163" data-name="Trazado 719163" d="M3073.868,592.605a.974.974,0,1,0,1.43-.471A1.078,1.078,0,0,0,3073.868,592.605Z" transform="translate(-3073.654 -592.009)" fill="#f37a50"/>
                  <g id="Grupo_1017346" data-name="Grupo 1017346" transform="translate(0.549 0.538)">
                    <path id="Trazado_719164" data-name="Trazado 719164" d="M3088.021,606.934a.11.11,0,0,1-.059-.024.641.641,0,0,1-.31-.719.677.677,0,0,1,.613-.491.142.142,0,0,1,.008.283.4.4,0,0,0-.35.287.363.363,0,0,0,.193.4.14.14,0,0,1,.039.2A.152.152,0,0,1,3088.021,606.934Z" transform="translate(-3087.63 -605.7)" fill="#de623c"/>
                  </g>
                </g>
                <g id="Grupo_1017348" data-name="Grupo 1017348" transform="translate(4.833 10.23)">
                  <path id="Trazado_719165" data-name="Trazado 719165" d="M2958.57,691.778a2.157,2.157,0,0,1-.346-.027.184.184,0,1,1,.051-.365,1.888,1.888,0,0,0,1.78-.739.184.184,0,1,1,.3.208A2.245,2.245,0,0,1,2958.57,691.778Z" transform="translate(-2958.065 -690.567)" fill="#de623c"/>
                </g>
              </g>
            </g>
          </g>
          <g id="v_1_" transform="translate(5.901 13.142)">
            <path id="Trazado_719166" data-name="Trazado 719166" d="M2879.4,783.368s-3.458.358-6.7.377a45.3,45.3,0,0,1-6.7-.652s.436-5.952.393-8.234c-.063-2.624.169-6.1.169-9.57,0,0,2.3-.369,3.595-.53.212-.028.393-.047.538-.059,0,0,.739,1.548,3.956,0a4.472,4.472,0,0,1,.613,0,27.82,27.82,0,0,1,3.528.589c0,3.457.141,6.848.094,9.472C2879.031,777.1,2879.4,783.368,2879.4,783.368Z" transform="translate(-2866 -764.686)" fill="#e62552"/>
          </g>
          <g id="Grupo_1017352" data-name="Grupo 1017352" transform="translate(3.198 14.697)">
            <rect id="Rectángulo_375592" data-name="Rectángulo 375592" width="8.627" height="7.323" transform="translate(3.106 0) rotate(3.452)" fill="#3f964f"/>
            <rect id="Rectángulo_375593" data-name="Rectángulo 375593" width="5.143" height="2.687" transform="translate(7.333 0.492) rotate(19.7)" fill="#fff"/>
            <path id="Trazado_719167" data-name="Trazado 719167" d="M2833.242,841.6l-4.247.424-.7-6.926,4.935.5Z" transform="translate(-2827.078 -833.889)" fill="#b8c9ff"/>
            <rect id="Rectángulo_375594" data-name="Rectángulo 375594" width="4.318" height="6.887" transform="translate(0.526 2.417) rotate(-5.72)" fill="#4bb35e"/>
            <path id="Trazado_719168" data-name="Trazado 719168" d="M2808.573,845.7l-8.557,2.8-2.817-11.4,8.553-2.8Z" transform="translate(-2797.2 -833.12)" fill="#444cc2"/>
            <rect id="Rectángulo_375595" data-name="Rectángulo 375595" width="9.28" height="11.743" transform="translate(0.819 3.895) rotate(-14.324)" fill="#b8c9ff"/>
            <rect id="Rectángulo_375596" data-name="Rectángulo 375596" width="9.503" height="11.814" transform="translate(2.57 3.611) rotate(-0.796)" fill="#fff"/>
            <rect id="Rectángulo_375597" data-name="Rectángulo 375597" width="9.28" height="11.743" transform="matrix(0.986, -0.166, 0.166, 0.986, 0.003, 3.985)" fill="#7078e6"/>
            <path id="Trazado_719169" data-name="Trazado 719169" d="M2891.2,839.25l2.715-1.85.44,1.092Z" transform="translate(-2887.507 -836.098)" fill="#fff"/>
            <path id="Trazado_719170" data-name="Trazado 719170" d="M2920.4,1172.437l.483,1.234,3.284-1.87Z" transform="translate(-2915.56 -1157.361)" fill="#e3eaff"/>
          </g>
          <path id="Trazado_719171" data-name="Trazado 719171" d="M2977,764.723h0a2.3,2.3,0,0,1-.986.88,4.856,4.856,0,0,1-2.259.464,2.575,2.575,0,0,1-1.32-.491,1.534,1.534,0,0,1-.538-.79c.212-.028.428-.059.569-.071,0,0,.707,1.564,3.925.012A3.441,3.441,0,0,1,2977,764.723Z" transform="translate(-2961.839 -751.569)" fill="#c4204a"/>
          <g id="c_1_" transform="translate(5.011 13.748)">
            <g id="Grupo_1017354" data-name="Grupo 1017354" transform="translate(0 4.615)">
              <g id="Grupo_1017353" data-name="Grupo 1017353">
                <path id="Trazado_719172" data-name="Trazado 719172" d="M2848.1,902.012c.318-.727.609-.8.609-1.842a4.4,4.4,0,0,0-.613-1.45c-.275-.652-.613-1.163-.762-1.139-.338.055-.377.263-.283.676.074.318.4.656.247.908-.134.224-.369.424-1.316-.1-1.206-.668-1.517-1.112-1.78-.743-.173.244.4.625,1.528,1.281-.7-.11-1.969-1.352-2.251-.8-.2.4,1.685,1.293,2.2,1.418-.994-.02-2.074-1.061-2.271-.841-.381.479,1.12,1.312,2.008,1.383-.868.161-1.426-.5-1.579-.263-.287.44,1.375,1.253,2.436,1.347C2846.6,901.875,2848.1,902.012,2848.1,902.012Z" transform="translate(-2843.353 -897.58)" fill="#f37a50"/>
              </g>
              <path id="Trazado_719173" data-name="Trazado 719173" d="M2966.048,961.128l-1.548-.4.456-2.031,1.575.487Z" transform="translate(-2959.741 -956.299)" fill="#f37a50"/>
            </g>
            <path id="c_2_" d="M2989.954,788.782c-2.958-.911-6.942-1.811-6.942-1.811a4.22,4.22,0,0,0-.605,2.538c4.247,3.43,10.112,4.6,11.99,3.744,1.717-.786.527-10.761-3.779-13.153l-.149.016C2988.991,782.611,2989.954,788.782,2989.954,788.782Z" transform="translate(-2976.932 -780.1)" fill="#c4204a"/>
          </g>
          <g id="Grupo_1017356" data-name="Grupo 1017356" transform="translate(4.184 24.642)">
            <g id="Grupo_1017355" data-name="Grupo 1017355" transform="translate(1.336 0.077)">
              <path id="Trazado_719174" data-name="Trazado 719174" d="M2856.3,1061.825c.326-.723.185-.99.955-1.689a4.5,4.5,0,0,1,1.485-.523c.668-.236,1.273-.326,1.355-.2.188.287.055.456-.31.664-.283.161-.754.149-.837.428-.075.251-.067.558.958.908,1.308.444,1.846.377,1.748.817-.062.291-.731.122-1.976-.271.554.448,2.322.55,2.106,1.131-.157.42-2.086-.381-2.53-.676.68.723,2.181.825,2.149,1.116-.1.605-1.72.055-2.373-.558.463.75,1.328.719,1.257.99-.134.507-1.854-.177-2.636-.9Z" transform="translate(-2856.3 -1059.356)" fill="#f37a50"/>
            </g>
            <path id="Trazado_719175" data-name="Trazado 719175" d="M2822.3,1059.062l1.332.88,1.2-1.7-1.422-.841Z" transform="translate(-2822.3 -1057.4)" fill="#f37a50"/>
          </g>
          <path id="Trazado_719176" data-name="Trazado 719176" d="M2715.8,969.4s1.528,4.384,5.017,6.223c.247-.75,1.08-2.683,1.08-2.683s-1.461-1.74-2.412-3.159C2718.908,969.679,2715.8,969.4,2715.8,969.4Z" transform="translate(-2715.8 -948.216)" fill="#c4204a"/>
        </g>
        <g id="Grupo_1017360" data-name="Grupo 1017360" transform="translate(0 33.053)">
          <path id="Trazado_719177" data-name="Trazado 719177" d="M2580.759,1300.12a.448.448,0,0,0,.157-.33l.727-9.315.161-2.055.35-4.479.766-9.83.071-.888a1.194,1.194,0,0,0-.063-.3c-.165-.55-.64-1.548-1.289-1.332l-3.877-.02-3.363-.016h0l-10.76-.055c-.373,0-1.438,1.1-1.438,1.379l.086,1.229,1.8,25.674a.448.448,0,0,0,.157.33h16.512Z" transform="translate(-2560.306 -1271.5)" fill="#0e6a41"/>
          <path id="Trazado_719178" data-name="Trazado 719178" d="M2537.627,1271.7h-22.951c-.373,0-.676.22-.676.491v1.63c0,.271.3.491.676.491h22.951c.373,0,.676-.22.676-.491v-1.63C2538.3,1271.92,2538,1271.7,2537.627,1271.7Z" transform="translate(-2514 -1271.692)" fill="#3f964f"/>
          <g id="Grupo_1017357" data-name="Grupo 1017357" transform="translate(6.266 5.685)">
            <path id="Trazado_719179" data-name="Trazado 719179" d="M2685.141,1420.066a6.029,6.029,0,0,0-5.622-3.866,5.945,5.945,0,0,0-.652.035,6.014,6.014,0,1,0,6.274,3.831Zm-3.386,7.315a5.64,5.64,0,1,1,3.39-5.17A5.595,5.595,0,0,1,2681.754,1427.381Z" transform="translate(-2673.5 -1416.2)" fill="#3f964f"/>
          </g>
          <g id="Grupo_1017359" data-name="Grupo 1017359" transform="translate(9.24 7.963)">
            <path id="Trazado_719180" data-name="Trazado 719180" d="M2755.293,1481.122H2749.2v-5.4l1.312-1.524h4.781Z" transform="translate(-2749.2 -1474.2)" fill="#3f964f"/>
            <path id="Trazado_719181" data-name="Trazado 719181" d="M2749.2,1475.724l1.312-1.524.224,1.524Z" transform="translate(-2749.2 -1474.2)" fill="#4bb35e"/>
            <g id="Grupo_1017358" data-name="Grupo 1017358" transform="translate(0.676 1.12)">
              <rect id="Rectángulo_375598" data-name="Rectángulo 375598" width="3.662" height="0.405" transform="translate(1.08)" fill="#4bb35e"/>
              <rect id="Rectángulo_375599" data-name="Rectángulo 375599" width="4.742" height="0.405" transform="translate(0 2.911)" fill="#4bb35e"/>
              <rect id="Rectángulo_375600" data-name="Rectángulo 375600" width="3.662" height="0.405" transform="translate(1.08 4.856)" fill="#4bb35e"/>
              <rect id="Rectángulo_375601" data-name="Rectángulo 375601" width="1.56" height="0.405" transform="translate(0 1.941)" fill="#4bb35e"/>
              <rect id="Rectángulo_375602" data-name="Rectángulo 375602" width="2.412" height="0.405" transform="translate(0 3.885)" fill="#4bb35e"/>
              <rect id="Rectángulo_375603" data-name="Rectángulo 375603" width="2.118" height="0.405" transform="translate(2.601 3.885)" fill="#4bb35e"/>
              <rect id="Rectángulo_375604" data-name="Rectángulo 375604" width="3.017" height="0.405" transform="translate(1.725 1.941)" fill="#4bb35e"/>
              <rect id="Rectángulo_375605" data-name="Rectángulo 375605" width="2.805" height="0.405" transform="translate(0 0.97)" fill="#4bb35e"/>
              <rect id="Rectángulo_375606" data-name="Rectángulo 375606" width="1.733" height="0.405" transform="translate(3.005 0.97)" fill="#4bb35e"/>
            </g>
          </g>
        </g>
      </g>
      <g id="Grupo_1017387" data-name="Grupo 1017387" transform="translate(80.827 89.505)">
        <g id="Grupo_1017382" data-name="Grupo 1017382" transform="translate(0 0)">
          <path id="Trazado_719182" data-name="Trazado 719182" d="M847.913,1106.19l-.813-.271.413-1.819,1.3.456Z" transform="translate(-821.167 -1078.752)" fill="#f37a50"/>
          <path id="Trazado_719183" data-name="Trazado 719183" d="M626.262,1036.978c-1.418-.027-7.814-.927-9.362-2.444.656-1.159,1.194-2.554,2.483-2.4,2.137.193,7.52,2.778,7.52,2.778Z" transform="translate(-600.011 -1009.599)" fill="#30357f"/>
          <path id="Trazado_719184" data-name="Trazado 719184" d="M596.319,820.7s-3.159,1.595-3.359,4.49c-.126,1.839-.157,4.722.837,6.034.57.75,2.2-.97,2.943-.978C597.851,825.136,597.085,822.213,596.319,820.7Z" transform="translate(-576.95 -806.486)" fill="#30357f"/>
          <g id="Grupo_1017367" data-name="Grupo 1017367" transform="translate(24.749 25.51)">
            <path id="Trazado_719185" data-name="Trazado 719185" d="M866.817,1114.748a3.732,3.732,0,0,0-1.87-.35c-.35.11-.581.617-.672,1-.589.479.251,2.031.251,2.031l2.165-1.611Z" transform="translate(-862.215 -1114.112)" fill="#f37a50"/>
            <g id="Grupo_1017363" data-name="Grupo 1017363">
              <g id="Grupo_1017362" data-name="Grupo 1017362">
                <path id="Trazado_719186" data-name="Trazado 719186" d="M1020.647,1108.315l.44.947a.152.152,0,0,1-.075.2l-.746.346-.566-1.222.746-.346A.142.142,0,0,1,1020.647,1108.315Z" transform="translate(-1011.734 -1108.226)" fill="#3f964f"/>
                <path id="Trazado_719187" data-name="Trazado 719187" d="M817.186,1119.791s5.26-2.554,5.7-2.593a2.611,2.611,0,0,1,.464,0h1.564l.566,1.222-1.014,1.194a2.424,2.424,0,0,1-.3.35c-.31.306-5.657,2.675-5.657,2.675a.406.406,0,0,1-.542-.2s-.271-.833-.393-1.092-.581-1.01-.581-1.01A.412.412,0,0,1,817.186,1119.791Z" transform="translate(-816.948 -1116.834)" fill="#fff"/>
              </g>
            </g>
            <g id="Grupo_1017366" data-name="Grupo 1017366" transform="translate(2.851 3.257)">
              <g id="Grupo_1017365" data-name="Grupo 1017365">
                <g id="Grupo_1017364" data-name="Grupo 1017364">
                  <path id="Trazado_719188" data-name="Trazado 719188" d="M891.026,1191.509a.743.743,0,0,0-.77.519c.012.012,0,.027,0,.027-.024-.027-.055-.027-.1-.043a.6.6,0,0,0-.609.377.387.387,0,0,0,.24.554.57.57,0,0,0,.558-.248.365.365,0,0,0,.177.1.67.67,0,0,0,.605-.259c.043.016.083.031.126.043a.766.766,0,0,0,.727-.44.319.319,0,0,0,.177.1.706.706,0,0,0,.727-.44.447.447,0,0,0-.283-.66.668.668,0,0,0-.652.271.379.379,0,0,0-.189-.114.67.67,0,0,0-.6.259C891.112,1191.536,891.069,1191.525,891.026,1191.509Z" transform="translate(-889.51 -1191.125)" fill="#f37a50"/>
                </g>
              </g>
            </g>
            <path id="Trazado_719189" data-name="Trazado 719189" d="M919.327,1124.376c-.259-.047-.53.24-.605.648s.071.774.33.825.53-.24.605-.648S919.586,1124.427,919.327,1124.376Z" transform="translate(-914.705 -1123.737)" fill="#f37a50"/>
          </g>
          <path id="Trazado_719190" data-name="Trazado 719190" d="M380,1225.6l-7.4,3.885s6.034,11.381,9.5,14.905c.605.613,4.062-.342,4.31-1.076C387.317,1240.639,380,1225.6,380,1225.6Z" transform="translate(-365.308 -1195.479)" fill="#3c3f73"/>
          <path id="Trazado_719191" data-name="Trazado 719191" d="M590.493,1621.331h-4.734c-.33-3.328-.7-8.887.039-12.418h0c.047-.232.1-.452.157-.664a4.06,4.06,0,0,1,1.175-1.752,2.321,2.321,0,0,1,3.669.57.184.184,0,0,1,.02.039c.008.09.02.181.028.271v.008c.02.232.035.471.047.715h0C591.031,1610.927,590.6,1614.581,590.493,1621.331Z" transform="translate(-569.718 -1560.786)" fill="#3c3f73"/>
          <path id="Trazado_719192" data-name="Trazado 719192" d="M301.328,1217.845l-8.851-2.145s-.373,14.383.707,19.207c.189.841,3.3,1.791,3.905,1.3C299.273,1234.412,301.328,1217.845,301.328,1217.845Z" transform="translate(-288.273 -1185.968)" fill="#494c7f"/>
          <path id="Trazado_719193" data-name="Trazado 719193" d="M255.684,1622.826v.02c-.691,2.6-.994,5.351-3.155,12.273H248.2c.2-3.17.778-9.079,2.338-12.485a7.9,7.9,0,0,1,.546-1.014C252.71,1619.094,255.991,1620.19,255.684,1622.826Z" transform="translate(-245.796 -1574.57)" fill="#494c7f"/>
          <g id="v_2_" transform="translate(3.25 12.226)">
            <path id="h-5_1_" d="M276.6,770.1l6.757.986,2.471,1c.137,3.913-2.88,17.875-2.88,17.875s-4.373,1.63-6.958,1.654a11.737,11.737,0,0,1-6.266-1.894,43.641,43.641,0,0,1,2.624-14.465C273.024,773.27,274.784,770.815,276.6,770.1Z" transform="translate(-269.716 -770.1)" fill="#2c2858"/>
          </g>
          <g id="Grupo_1017373" data-name="Grupo 1017373" transform="translate(10.991)">
            <path id="v-2_1_" d="M500.839,698.422h0l1.634.138.063,3.882s-.024.919-1.693,1.053a2.611,2.611,0,0,1-2.243-1.355l.636-3.838Z" transform="translate(-497.349 -688.895)" fill="#de623c"/>
            <g id="Grupo_1017372" data-name="Grupo 1017372">
              <path id="Trazado_719194" data-name="Trazado 719194" d="M505.651,505.354c-.169,2.821,1.175,5.19,3.39,5.319s4.149-2.047,4.318-4.868-1.493-5.217-3.709-5.347S505.82,502.534,505.651,505.354Z" transform="translate(-504.11 -498.821)" fill="#f37a50"/>
              <path id="Trazado_719195" data-name="Trazado 719195" d="M623.469,648.6c.3.593.676,1.32.676,1.32a1.015,1.015,0,0,1-1.045.507c.342-.106.691-.295.6-.75S623.469,648.6,623.469,648.6Z" transform="translate(-616.958 -641.147)" fill="#de623c"/>
              <path id="Trazado_719196" data-name="Trazado 719196" d="M485.878,463.021a3.473,3.473,0,0,1,2.852-3.06s-.5-.295-.22-1.061a2.163,2.163,0,0,0,1.234.55c3.053.283,4.844,1.143,4.318,2.259-.189.4,1.717.99.31,3.595-.122-.361-.051-1.626-.581-2.008s-.369.64-1.666.236-2.066-1.131-3.143-.794c-.872.326-2.463,3.328-2.459,3.555C486.518,465.771,485.756,464.192,485.878,463.021Z" transform="translate(-485.114 -458.9)" fill="#181b47"/>
              <path id="Trazado_719197" data-name="Trazado 719197" d="M513.607,622.257a6.619,6.619,0,0,1-.951,1.78c.055-.656-1.438-.526-2.059-.593-1.131-.118-2.066-1.324-2.723.063-1.905-.173-1.34-3.406-1.34-3.406-.762,2.412-.558,5.826,3.108,6.514C512,627.062,513.575,624.606,513.607,622.257Z" transform="translate(-504.628 -613.767)" fill="#181b47"/>
              <g id="Grupo_1017368" data-name="Grupo 1017368" transform="translate(7.673 6.214)">
                <path id="Trazado_719198" data-name="Trazado 719198" d="M663.307,617.946a.192.192,0,0,1-.153-.114.585.585,0,0,0-.318-.342.711.711,0,0,0-.487.047.193.193,0,0,1-.259-.082.2.2,0,0,1,.079-.259,1.083,1.083,0,0,1,.79-.071.941.941,0,0,1,.546.55.2.2,0,0,1-.1.255A.2.2,0,0,1,663.307,617.946Z" transform="translate(-662.068 -617.076)" fill="#181b47"/>
              </g>
              <g id="Grupo_1017369" data-name="Grupo 1017369" transform="translate(4.237 5.584)">
                <path id="Trazado_719199" data-name="Trazado 719199" d="M574.766,601.73a.2.2,0,0,1-.11-.063.192.192,0,0,1,.02-.271,1.2,1.2,0,0,1,.915-.346.963.963,0,0,1,.613.338.194.194,0,0,1-.039.271.189.189,0,0,1-.267-.039.565.565,0,0,0-.35-.189.846.846,0,0,0-.617.255A.2.2,0,0,1,574.766,601.73Z" transform="translate(-574.609 -601.044)" fill="#181b47"/>
              </g>
              <g id="Grupo_1017371" data-name="Grupo 1017371" transform="translate(0 5.779)">
                <path id="Trazado_719200" data-name="Trazado 719200" d="M468.637,606.558a1.006,1.006,0,1,1-1.5-.409A1.11,1.11,0,0,1,468.637,606.558Z" transform="translate(-466.77 -605.996)" fill="#f37a50"/>
                <g id="Grupo_1017370" data-name="Grupo 1017370" transform="translate(0.724 0.554)">
                  <path id="Trazado_719201" data-name="Trazado 719201" d="M485.656,621.352a.147.147,0,0,0,.063-.027.658.658,0,0,0,.279-.758.7.7,0,0,0-.66-.471.145.145,0,0,0,.008.291.417.417,0,0,1,.377.275.376.376,0,0,1-.177.428.148.148,0,0,0-.031.2A.142.142,0,0,0,485.656,621.352Z" transform="translate(-485.196 -620.094)" fill="#de623c"/>
                </g>
              </g>
              <path id="Trazado_719202" data-name="Trazado 719202" d="M589.324,627.5a.422.422,0,1,0-.6.02A.422.422,0,0,0,589.324,627.5Z" transform="translate(-583.807 -620.197)"/>
              <path id="Trazado_719203" data-name="Trazado 719203" d="M664.58,639.526a.386.386,0,1,0-.02-.546A.386.386,0,0,0,664.58,639.526Z" transform="translate(-656.69 -631.787)"/>
            </g>
          </g>
          <g id="Grupo_1017378" data-name="Grupo 1017378" transform="translate(0 12.234)">
            <g id="Grupo_1017376" data-name="Grupo 1017376" transform="translate(7.082 8.927)">
              <g id="Grupo_1017374" data-name="Grupo 1017374">
                <path id="Trazado_719204" data-name="Trazado 719204" d="M529.686,997.566l.754.719a.151.151,0,0,1,0,.216l-.57.6-.974-.931.57-.6A.154.154,0,0,1,529.686,997.566Z" transform="translate(-522.55 -997.524)" fill="#e62552"/>
                <path id="Trazado_719205" data-name="Trazado 719205" d="M367.388,1019.245s3.96-4.3,4.349-4.5a2.638,2.638,0,0,1,.428-.173l1.458-.574.974.931-.507,1.481a2.707,2.707,0,0,1-.153.436c-.177.4-4.286,4.561-4.286,4.561a.405.405,0,0,1-.577.012s-.558-.676-.766-.872-.908-.727-.908-.727A.406.406,0,0,1,367.388,1019.245Z" transform="translate(-367.273 -1013.353)" fill="#fff"/>
              </g>
              <g id="Grupo_1017375" data-name="Grupo 1017375" transform="translate(4.516 1.709)">
                <path id="Trazado_719206" data-name="Trazado 719206" d="M484.046,1042.791h-.02a2.29,2.29,0,0,1-1.811-1.634.117.117,0,0,1,.228-.055h0a2.025,2.025,0,0,0,1.623,1.458.123.123,0,0,1,.1.137A.126.126,0,0,1,484.046,1042.791Z" transform="translate(-482.212 -1041.012)" fill="#e3eaff"/>
              </g>
            </g>
            <g id="Grupo_1017377" data-name="Grupo 1017377" transform="translate(7.189 10.968)">
              <path id="Trazado_719207" data-name="Trazado 719207" d="M370,1051.746c.306-.475.263-1.08.613-1.34.212-.157.684-.027,1.116-.134.416-.1.605-.507,1.088-.7.4-.157.593-.082.664.075l-.652.876c-.126.271.043.731,1.053,1.438.77.542,1.544.644,1.359,1.128-.122.318-.53.031-1.076-.318.55.6.805.389.7.8-.126.5-1.167-.192-1.611-.6.436.79,1.21.711,1.124,1.033-.114.358-.841.358-1.469-.44.44.8.931.684.782.966s-1.458-.055-2.4-1.076C371.045,1053.192,370,1051.746,370,1051.746Z" transform="translate(-370 -1049.487)" fill="#f37a50"/>
            </g>
            <path id="Trazado_719208" data-name="Trazado 719208" d="M197.077,770.3A19.826,19.826,0,0,0,187,777.949c1.434,2.844,3.634,1.619,3.634,1.619l5.826-3.276a5.71,5.71,0,0,0,1.524-3.512C198,770.858,197.077,770.3,197.077,770.3Z" transform="translate(-187 -770.3)" fill="#30357f"/>
            <path id="Trazado_719209" data-name="Trazado 719209" d="M195.7,946.347l-5.06-4.054s-1.088-1.846-3.638.138c.369,1.6,1.788,4.408,7.072,5.96A8.327,8.327,0,0,0,195.7,946.347Z" transform="translate(-187 -934.784)" fill="#30357f"/>
          </g>
          <g id="Grupo_1017379" data-name="Grupo 1017379" transform="translate(15.345 9.786)">
            <path id="Trazado_719210" data-name="Trazado 719210" d="M579.277,709.061a2.323,2.323,0,0,0,.774-.13.2.2,0,0,0-.145-.365,1.809,1.809,0,0,1-1.968-.507.2.2,0,1,0-.295.263,2.131,2.131,0,0,0,1.591.743A.146.146,0,0,1,579.277,709.061Z" transform="translate(-577.592 -707.992)" fill="#de623c"/>
          </g>
          <g id="Grupo_1017380" data-name="Grupo 1017380" transform="translate(26.683 27.917)">
            <path id="Trazado_719211" data-name="Trazado 719211" d="M867.106,1171.376a.117.117,0,0,1-.063-.02,2.5,2.5,0,0,1-.849-1.736.118.118,0,0,1,.236-.016h0a2.306,2.306,0,0,0,.743,1.556.12.12,0,0,1,.035.165A.13.13,0,0,1,867.106,1171.376Z" transform="translate(-866.194 -1169.494)" fill="#e3eaff"/>
          </g>
          <g id="Grupo_1017381" data-name="Grupo 1017381" transform="translate(30.64 26.102)">
            <path id="Trazado_719212" data-name="Trazado 719212" d="M968.085,1125.593a.11.11,0,0,1-.075-.028,3.331,3.331,0,0,1-1.116-2.145.116.116,0,0,1,.106-.126.118.118,0,0,1,.126.106h0a3.157,3.157,0,0,0,1.029,1.98.114.114,0,0,1,.016.165A.088.088,0,0,1,968.085,1125.593Z" transform="translate(-966.894 -1123.294)" fill="#e3eaff"/>
          </g>
        </g>
        <g id="Grupo_1017386" data-name="Grupo 1017386" transform="translate(14.65 31.917)">
          <path id="Trazado_719213" data-name="Trazado 719213" d="M628.891,1273.025l-.071.888-2,25.674a.458.458,0,0,1-.169.342H610.159a.446.446,0,0,1-.169-.342l-.778-11.1-.24-3.4-.786-11.181-.02-.287h0l-.067-.943c0-.283,1.069-1.379,1.438-1.379l18,.09C628.348,1271.123,628.891,1272.742,628.891,1273.025Z" transform="translate(-606.206 -1271.3)" fill="#fa942f"/>
          <path id="Trazado_719214" data-name="Trazado 719214" d="M583.527,1271.4H560.576c-.369,0-.676.22-.676.491v1.63c0,.267.3.491.676.491h22.951c.369,0,.676-.22.676-.491v-1.63C584.2,1271.62,583.9,1271.4,583.527,1271.4Z" transform="translate(-559.9 -1271.396)" fill="#fad56e"/>
          <g id="Grupo_1017383" data-name="Grupo 1017383" transform="translate(6.27 5.681)">
            <path id="Trazado_719215" data-name="Trazado 719215" d="M725.519,1415.9a6.019,6.019,0,1,0,6.019,6.019A6.024,6.024,0,0,0,725.519,1415.9Zm0,11.645a5.63,5.63,0,1,1,5.63-5.63A5.637,5.637,0,0,1,725.519,1427.545Z" transform="translate(-719.5 -1415.9)" fill="#fad56e"/>
          </g>
          <g id="Grupo_1017385" data-name="Grupo 1017385" transform="translate(10.579 7.229)">
            <g id="Grupo_1017384" data-name="Grupo 1017384">
              <path id="Trazado_719216" data-name="Trazado 719216" d="M853.294,1455.3h-1.041a.151.151,0,0,0-.153.153v.825h1.348v-.825A.159.159,0,0,0,853.294,1455.3Z" transform="translate(-851.199 -1455.3)" fill="#fad56e"/>
              <path id="Trazado_719217" data-name="Trazado 719217" d="M832.329,1638.2H829.4a.1.1,0,0,0-.1.1v1.779a.411.411,0,0,0,.409.409h2.314a.411.411,0,0,0,.409-.409V1638.3A.1.1,0,0,0,832.329,1638.2Z" transform="translate(-829.295 -1631.014)" fill="#fad56e"/>
              <path id="Trazado_719218" data-name="Trazado 719218" d="M833.082,1553.6H830.2a.1.1,0,0,0-.1.1v2.868a.1.1,0,0,0,.1.1h2.88a.1.1,0,0,0,.1-.1V1553.7A.1.1,0,0,0,833.082,1553.6Z" transform="translate(-830.064 -1549.738)" fill="#fad56e"/>
              <path id="Trazado_719219" data-name="Trazado 719219" d="M832.271,1516.72a2.641,2.641,0,0,0-.193-.42h-2.656a3.046,3.046,0,0,0-.192.42,1,1,0,0,0,.071.786h2.9A1,1,0,0,0,832.271,1516.72Z" transform="translate(-829.178 -1513.904)" fill="#fad56e"/>
              <path id="Trazado_719220" data-name="Trazado 719220" d="M835.4,1481.618l.656-1.418h.177l-.621,1.45Z" transform="translate(-835.156 -1479.222)" fill="#fad56e"/>
              <path id="Trazado_719221" data-name="Trazado 719221" d="M882.152,1481.618l-.656-1.418h-.2l.621,1.45Z" transform="translate(-879.252 -1479.222)" fill="#fad56e"/>
            </g>
          </g>
        </g>
      </g>
      <g id="Grupo_1017429" data-name="Grupo 1017429" transform="translate(146.967 91.087)">
        <g id="Grupo_1017425" data-name="Grupo 1017425" transform="translate(3.257)">
          <g id="Grupo_1017424" data-name="Grupo 1017424">
            <g id="Grupo_1017388" data-name="Grupo 1017388" transform="translate(13.62 13.877)">
              <path id="Trazado_719222" data-name="Trazado 719222" d="M2301.532,852.461c2.133.766,3.469,5.029,2.817,10.325-1.666,1.069-2.44-1.835-2.44-1.835s-.9-3.355-1.363-4.64C2299.442,853.231,2300.5,852.092,2301.532,852.461Z" transform="translate(-2300.078 -852.394)" fill="#de623c"/>
            </g>
            <path id="Trazado_719223" data-name="Trazado 719223" d="M1976.594,514.713c-1.41-2.086-2.566-5.343-.373-6.219s1.835-2.573,1.34-4.215,1.281-4.9,4.887-5.1c4-.232,6.871,2.62,6.6,4.274s-.051,2.7,1.182,3.277a3.2,3.2,0,0,1,1.014,4.793c-1.56,1.913.1.9-.012,2.778S1978.09,516.928,1976.594,514.713Z" transform="translate(-1974.15 -499.161)" fill="#2c2858"/>
            <path id="Trazado_719224" data-name="Trazado 719224" d="M2052.147,1180.175l5.775-3.383-1.744-5.693-9.307.165-1.371,5.815,5.928,3.111Z" transform="translate(-2041.882 -1144.702)" fill="#16142b"/>
            <path id="Trazado_719225" data-name="Trazado 719225" d="M2285.033,839.094a6.633,6.633,0,0,0-3.779-4L2280.8,835l-.8,3.614s1.061,1.422,1.8,2.7Z" transform="translate(-2267.169 -821.806)" fill="#0e6a41"/>
            <g id="Grupo_1017389" data-name="Grupo 1017389" transform="translate(0.012 14.071)">
              <path id="Trazado_719226" data-name="Trazado 719226" d="M1957.283,857.419c-2.094.864-3.343,6.306-3.583,9.61,1.713.99,2.534-.978,2.534-.978a50.832,50.832,0,0,0,2.212-4.832C1959.409,858.091,1958.3,857,1957.283,857.419Z" transform="translate(-1953.7 -857.334)" fill="#de623c"/>
            </g>
            <path id="Trazado_719227" data-name="Trazado 719227" d="M1980.1,844.38a5.924,5.924,0,0,1,3.473-4.066l.448-.114.966,3.575a17.923,17.923,0,0,0-1.843,2.707Z" transform="translate(-1979.051 -826.802)" fill="#0e6a41"/>
            <path id="Trazado_719228" data-name="Trazado 719228" d="M2075.529,826.727a5,5,0,0,0-.68-2.043,3.616,3.616,0,0,1-.212-1.772,5.711,5.711,0,0,1,.177-1.843,12.785,12.785,0,0,0-2.774-.57l-3.221.118a13.091,13.091,0,0,0-2.809.652,6.047,6.047,0,0,1,.342,1.874,3.743,3.743,0,0,1-.228,1.8,5.094,5.094,0,0,0-.534,2.016,4.949,4.949,0,0,0,.625,1.646l-.193,6.078,9.539-.165-.613-5.987A5.493,5.493,0,0,0,2075.529,826.727Z" transform="translate(-2061.182 -807.876)" fill="#3f964f"/>
            <g id="Grupo_1017419" data-name="Grupo 1017419" transform="translate(2.672 17.366)">
              <path id="Trazado_719229" data-name="Trazado 719229" d="M2024.6,941.856l1.493,2.357a37.643,37.643,0,0,0-3.925,4.777c-1.532,2.569-1.135,8.847,4.781,8.847,5.8,0,5.571-4.907,5.213-7.378-.432-3-5.382-5.72-4.836-6.4a12.3,12.3,0,0,0,1.167-2.86l-1.854.7-1.418-.7Z" transform="translate(-2021.408 -941.2)" fill="#fff"/>
              <path id="Trazado_719230" data-name="Trazado 719230" d="M2155.8,1025.3s1.12,3.7,2.02,4.514S2156.413,1026.553,2155.8,1025.3Z" transform="translate(-2150.52 -1021.996)" fill="#c2d1ff"/>
              <path id="Trazado_719231" data-name="Trazado 719231" d="M2174.6,1035.1s1.658,3.445,2.471,3.2S2174.6,1035.1,2174.6,1035.1Z" transform="translate(-2168.582 -1031.411)" fill="#c2d1ff"/>
              <path id="Trazado_719232" data-name="Trazado 719232" d="M2129.923,978.6a4.358,4.358,0,0,1-.723-1.6c.44.475.786.762.9,1.2a3.319,3.319,0,0,1,.762-1.084,5.309,5.309,0,0,1-.51,1.56Z" transform="translate(-2124.965 -975.594)" fill="#c2d1ff"/>
              <path id="Trazado_719233" data-name="Trazado 719233" d="M2177.053,1259.028a.418.418,0,1,1-.354.68A1.137,1.137,0,0,1,2177.053,1259.028Z" transform="translate(-2170.599 -1246.346)" fill="#3f964f"/>
              <path id="Trazado_719234" data-name="Trazado 719234" d="M2065.512,1175.288a1.291,1.291,0,0,1-.181.951c-.3.35-.711.495-.912.322s-.118-.6.181-.951A1.281,1.281,0,0,1,2065.512,1175.288Z" transform="translate(-2062.624 -1166.091)" fill="#e6cf91"/>
              <path id="Trazado_719235" data-name="Trazado 719235" d="M2105.6,1199.917a.971.971,0,1,1-.656-.707A1.263,1.263,0,0,1,2105.6,1199.917Z" transform="translate(-2100.755 -1189.042)" fill="#e6cf91"/>
              <g id="Grupo_1017392" data-name="Grupo 1017392" transform="translate(1.032 9.874)">
                <path id="Trazado_719236" data-name="Trazado 719236" d="M2136.179,1237.2s.22.739-.256.978c-.177-.012-.157-.5-.157-.5l-.067-.44Z" transform="translate(-2132.241 -1235.445)" fill="#b83131"/>
                <path id="Trazado_719237" data-name="Trazado 719237" d="M2127.7,1249.6s-.043.3.727.668a2.577,2.577,0,0,1-.829.185l-.294-.558Z" transform="translate(-2124.171 -1247.358)" fill="#c4670a"/>
                <path id="Trazado_719238" data-name="Trazado 719238" d="M2067.473,1194.768a.574.574,0,0,0,.008.216.621.621,0,0,0,.126.255,4.335,4.335,0,0,1-2.848-1.5,1.318,1.318,0,0,1-.13-.357.683.683,0,0,1,.452-.821.8.8,0,0,1,.354-.031,1.284,1.284,0,0,1,.864.593,1.671,1.671,0,0,0,1.069.746.825.825,0,0,0,.322.334.712.712,0,0,0,.2.079A.588.588,0,0,0,2067.473,1194.768Z" transform="translate(-2063.947 -1192.526)" fill="#fa942f"/>
                <g id="Grupo_1017390" data-name="Grupo 1017390" transform="translate(1.628 0.243)">
                  <path id="Trazado_719239" data-name="Trazado 719239" d="M2089.1,1198.7Z" transform="translate(-2089.1 -1198.7)" fill="#fa942f"/>
                </g>
                <g id="Grupo_1017391" data-name="Grupo 1017391" transform="translate(0.313 0.015)">
                  <path id="Trazado_719240" data-name="Trazado 719240" d="M2086.2,1203.1Z" transform="translate(-2084.999 -1202.699)" fill="#ea3f3f"/>
                  <path id="Trazado_719241" data-name="Trazado 719241" d="M2059.577,1195.862v.008c-1.579-.134-3.155-.656-3.85-2.051-.024-.043-.043-.09-.063-.134a.615.615,0,0,1,.786-.754.558.558,0,0,1,.381.385h0a2.864,2.864,0,0,0,2.228,1.261.709.709,0,0,0,.2.079.6.6,0,0,0-.413.483.577.577,0,0,0,.008.216.623.623,0,0,0,.126.255.594.594,0,0,0,.589.2h0A.311.311,0,0,0,2059.577,1195.862Z" transform="translate(-2055.63 -1192.908)" fill="#ea3f3f"/>
                </g>
                <path id="Trazado_719242" data-name="Trazado 719242" d="M2052.466,1216.825a1.991,1.991,0,0,1-.884.251,5.91,5.91,0,0,1-.876.008,3.707,3.707,0,0,1-1.406-.33c-.18-.094-.342-.189-.487-.283-1.449-.947-1.312-1.9-.735-2.157a.861.861,0,0,1,.271-.067,1.239,1.239,0,0,1,1.049.581,2.066,2.066,0,0,0,1.792.8.584.584,0,0,0,.008.216.625.625,0,0,0,.126.255.594.594,0,0,0,.589.2h0a.335.335,0,0,0,.012.059v.008A.6.6,0,0,0,2052.466,1216.825Z" transform="translate(-2047.668 -1213.392)" fill="#fa942f"/>
                <path id="Trazado_719243" data-name="Trazado 719243" d="M2141.772,1270.16c.012.055.114.078.224.051s.193-.09.181-.141-.114-.078-.224-.051S2141.761,1270.1,2141.772,1270.16Z" transform="translate(-2138.074 -1266.963)" fill="#fad56e"/>
                <path id="Trazado_719244" data-name="Trazado 719244" d="M2130.149,1276.34c-.016.051.059.122.169.157s.212.02.228-.035-.059-.122-.169-.157S2130.165,1276.289,2130.149,1276.34Z" transform="translate(-2126.906 -1272.997)" fill="#fad56e"/>
                <path id="Trazado_719245" data-name="Trazado 719245" d="M2065.3,1253.5c-.039.02-.039.106.008.193s.114.134.153.114.039-.106-.008-.193S2065.341,1253.478,2065.3,1253.5Z" transform="translate(-2064.582 -1251.098)" fill="#fad56e"/>
                <path id="Trazado_719246" data-name="Trazado 719246" d="M2054.5,1240.3c-.039.02-.039.106.008.193s.114.134.153.114.039-.106-.008-.193S2054.545,1240.278,2054.5,1240.3Z" transform="translate(-2054.206 -1238.416)" fill="#fad56e"/>
                <path id="Trazado_719247" data-name="Trazado 719247" d="M2126.1,1267.878c0,.043.075.075.165.071s.161-.043.161-.086-.074-.075-.165-.071S2126.092,1267.835,2126.1,1267.878Z" transform="translate(-2123.014 -1264.835)" fill="#fad56e"/>
                <path id="Trazado_719248" data-name="Trazado 719248" d="M2064,1244.421c.02.039.1.039.181,0s.134-.1.114-.141-.1-.039-.181,0S2063.978,1244.382,2064,1244.421Z" transform="translate(-2063.352 -1242.218)" fill="#fad56e"/>
              </g>
              <g id="Grupo_1017402" data-name="Grupo 1017402" transform="translate(6.801 6.903)">
                <g id="Grupo_1017401" data-name="Grupo 1017401" transform="translate(0)">
                  <path id="Trazado_719249" data-name="Trazado 719249" d="M2241.74,1117.66a1.521,1.521,0,0,0,.314-.3.554.554,0,0,0,.13-.346.162.162,0,0,0-.283-.051s.24.184-.2.593Z" transform="translate(-2239.847 -1116.901)" fill="#82421a"/>
                  <g id="Grupo_1017394" data-name="Grupo 1017394" transform="translate(0.901 1.497)">
                    <g id="Grupo_1017393" data-name="Grupo 1017393">
                      <g id="Layer0_40_FILL_1_">
                        <path id="Trazado_719250" data-name="Trazado 719250" d="M877.413,809.3Z" transform="translate(-877.413 -809.301)" fill="#f5e9a8"/>
                      </g>
                    </g>
                  </g>
                  <g id="Grupo_1017396" data-name="Grupo 1017396" transform="translate(0.904 1.5)">
                    <g id="Grupo_1017395" data-name="Grupo 1017395">
                      <g id="Layer0_40_MEMBER_1_MEMBER_0_FILL_1_">
                        <path id="Trazado_719251" data-name="Trazado 719251" d="M877.34,809.338Z" transform="translate(-877.34 -809.338)" fill="#f5e9a8"/>
                      </g>
                    </g>
                  </g>
                  <path id="Trazado_719252" data-name="Trazado 719252" d="M2195.822,1121.1a1.013,1.013,0,0,1,.063.77c-.086.055-.632.393-.632.393l-.047.432a1.16,1.16,0,0,1-.6.424.816.816,0,0,0,.507.137.451.451,0,0,0,.354.251.8.8,0,0,0,.307.417,2.32,2.32,0,0,1-.055-.613c.106-.063.7-.495.7-.495l.232-.664a.811.811,0,0,1,.33-.122,2.051,2.051,0,0,1,.236.043.616.616,0,0,0-.526-.161c-.02-.055-.279-.326-.472-.31C2196.183,1121.532,2196.022,1121.143,2195.822,1121.1Z" transform="translate(-2194.597 -1120.935)" fill="#fad56e"/>
                  <g id="Grupo_1017398" data-name="Grupo 1017398" transform="translate(1.225 0.169)">
                    <g id="Grupo_1017397" data-name="Grupo 1017397" transform="translate(0 0)">
                      <g id="Layer0_40_MEMBER_4_FILL_1_">
                        <path id="Trazado_719253" data-name="Trazado 719253" d="M885.848,775.578a.776.776,0,0,0-.348-.131.81.81,0,0,1,.355.523.435.435,0,0,1,.256.079.427.427,0,0,1,.168.212.809.809,0,0,1,.614.144.809.809,0,0,0-.258-.284,1.269,1.269,0,0,0-.424-.179c-.016,0-.032-.007-.048-.01-.013-.023-.026-.043-.04-.065A1.011,1.011,0,0,0,885.848,775.578Z" transform="translate(-885.5 -775.447)" fill="#ea3f3f"/>
                      </g>
                    </g>
                  </g>
                  <g id="Grupo_1017400" data-name="Grupo 1017400" transform="translate(0 2.185)">
                    <g id="Grupo_1017399" data-name="Grupo 1017399" transform="translate(0 0)">
                      <g id="Layer0_40_MEMBER_6_MEMBER_0_FILL_1_">
                        <path id="Trazado_719254" data-name="Trazado 719254" d="M854.329,826.761a.832.832,0,0,0,.228.232,1.028,1.028,0,0,0,.243.123c.038.013.078.027.121.039a1.277,1.277,0,0,0,.094.117.988.988,0,0,0,.18.159.875.875,0,0,0,.308.136.719.719,0,0,1-.308-.414.452.452,0,0,1-.367-.253A.722.722,0,0,1,854.329,826.761Z" transform="translate(-854.329 -826.761)" fill="#ea3f3f"/>
                      </g>
                    </g>
                  </g>
                </g>
              </g>
              <g id="Grupo_1017408" data-name="Grupo 1017408" transform="translate(4.967 9.114)">
                <path id="Trazado_719255" data-name="Trazado 719255" d="M2166.5,1234.365a.411.411,0,0,1,.074.471,2.733,2.733,0,0,0,.444.224l.142-.519-.456-.342Z" transform="translate(-2165.766 -1231.803)" fill="#c4670a"/>
                <g id="Grupo_1017403" data-name="Grupo 1017403" transform="translate(3.085 3.188)">
                  <path id="Trazado_719256" data-name="Trazado 719256" d="M2226.4,1257.256c-.137.161,0,.507.307.77s.672.35.809.189,0-.507-.307-.77S2226.537,1257.1,2226.4,1257.256Z" transform="translate(-2226.342 -1257.065)" fill="#b83131"/>
                  <path id="Trazado_719257" data-name="Trazado 719257" d="M2227.095,1254.413c-.137.161,0,.507.307.77s.672.35.809.189,0-.507-.307-.77S2227.233,1254.252,2227.095,1254.413Z" transform="translate(-2227.014 -1254.332)" fill="#ea3f3f"/>
                </g>
                <g id="Grupo_1017404" data-name="Grupo 1017404" transform="translate(0.62 1.93)">
                  <path id="Trazado_719258" data-name="Trazado 719258" d="M2165.4,1238.408l.043.024v-.031a.035.035,0,0,0-.019,0A.05.05,0,0,0,2165.4,1238.408Z" transform="translate(-2165.329 -1237.768)" fill="#fab62f"/>
                  <path id="Trazado_719259" data-name="Trazado 719259" d="M2163.714,1224.95a.508.508,0,0,1,.417.161.476.476,0,0,1,.063.083.5.5,0,0,1,.055.4.229.229,0,0,1-.02.055c.189.071.4.141.633.2,1.234.334,2.047.232,2.122-.043a.873.873,0,0,0,.016-.322h0l-.012-.059a.27.27,0,0,0-.149-.193.055.055,0,0,0-.023-.008l-3.045-.825a.531.531,0,0,1-.169.212A.5.5,0,0,1,2163.714,1224.95Z" transform="translate(-2163.6 -1224.318)" fill="#fa942f"/>
                  <path id="Trazado_719260" data-name="Trazado 719260" d="M2165.4,1238.408l.043.024v-.031a.035.035,0,0,0-.019,0A.05.05,0,0,0,2165.4,1238.408Z" transform="translate(-2165.329 -1237.768)" fill="#d49415"/>
                  <path id="Trazado_719261" data-name="Trazado 719261" d="M2163.714,1222.933a.506.506,0,0,1,.417.161.478.478,0,0,1,.063.083,7.849,7.849,0,0,0,.774.263c.707.193,1.949.361,2.023.078a.181.181,0,0,0,0-.047h0a.164.164,0,0,0-.012-.059.487.487,0,0,0-.153-.185.066.066,0,0,1-.02-.016,5.057,5.057,0,0,0-1.6-.668,6.66,6.66,0,0,0-1.414-.244c0,.008,0,.012,0,.02l-.023.071a.533.533,0,0,1-.169.212A.464.464,0,0,1,2163.714,1222.933Z" transform="translate(-2163.6 -1222.3)" fill="#c4670a"/>
                </g>
                <path id="Trazado_719262" data-name="Trazado 719262" d="M2166.02,1238.412v-.012a.036.036,0,0,0-.02,0A.03.03,0,0,1,2166.02,1238.412Z" transform="translate(-2165.286 -1235.838)" fill="#82421a"/>
                <path id="Trazado_719263" data-name="Trazado 719263" d="M2163.869,1218.448a.527.527,0,0,1-.169.212.517.517,0,0,1,.114.338.545.545,0,0,1,.177.016.535.535,0,0,1,.24.146,6.211,6.211,0,0,0,.774.188,3.039,3.039,0,0,0,1.921-.059l.008-.008a.143.143,0,0,0,.047-.086l.04-.2c.051-.275-.806-.362-1.847-.554-.487-.09-.927-.185-1.265-.236a.527.527,0,0,1-.012.157c0,.008,0,.012,0,.02Z" transform="translate(-2163.076 -1216.431)" fill="#82421a"/>
                <path id="Trazado_719264" data-name="Trazado 719264" d="M2171.1,1212.1l.216.562a19.454,19.454,0,0,1,2.216.86c.012.11-.071.794-.071.794l.9-.314-.051-.8-.963-.935Z" transform="translate(-2170.186 -1210.571)" fill="#ffc930"/>
                <g id="Grupo_1017405" data-name="Grupo 1017405" transform="translate(2.571 1.834)">
                  <path id="Trazado_719265" data-name="Trazado 719265" d="M2213.272,1223.567c-.024.212.318.424.758.471s.793-.1.841-.3a.478.478,0,0,0,.031-.134c-.047-.189-.4-.295-.793-.338C2213.673,1223.221,2213.3,1223.355,2213.272,1223.567Z" transform="translate(-2213.271 -1223.125)" fill="#b83131"/>
                  <path id="Trazado_719266" data-name="Trazado 719266" d="M2214.072,1220.167c-.024.212.318.424.758.471s.821-.087.841-.3-.318-.424-.758-.471S2214.1,1219.955,2214.072,1220.167Z" transform="translate(-2214.04 -1219.859)" fill="#ea3f3f"/>
                </g>
                <g id="Grupo_1017406" data-name="Grupo 1017406" transform="translate(1.12 1.537)">
                  <path id="Trazado_719267" data-name="Trazado 719267" d="M2176.957,1216.435c-.114.2.1.538.483.754s.782.236.9.035-.1-.538-.483-.754S2177.071,1216.239,2176.957,1216.435Z" transform="translate(-2176.903 -1216.14)" fill="#b83131"/>
                  <path id="Trazado_719268" data-name="Trazado 719268" d="M2176.356,1212.435c-.114.2.1.538.483.754s.782.236.9.035-.1-.538-.483-.754S2176.47,1212.239,2176.356,1212.435Z" transform="translate(-2176.326 -1212.297)" fill="#ea3f3f"/>
                </g>
                <path id="Trazado_719269" data-name="Trazado 719269" d="M2151.887,1191.7c.271.1.251.334,0,.334a1.8,1.8,0,0,0-.64.2c-.208.075-.79-.232-1.021-.244s-.428.1-.554-.039a1.16,1.16,0,0,0-.731-.275c-.24.008-.432-.094-.46-.212s-.075-.09-.295-.083c-.456.016-.4-.306-.259-.326.656-.1.774-.334,1.509-.2C2149.687,1190.909,2151.887,1191.7,2151.887,1191.7Z" transform="translate(-2147.825 -1190.126)" fill="#3f964f"/>
                <g id="Grupo_1017407" data-name="Grupo 1017407" transform="translate(1.33)">
                  <path id="Trazado_719270" data-name="Trazado 719270" d="M2185.066,1175.463c.157-.279.255-.974-1.206-1.8-1.493-.845-2.008-.385-2.165-.106l0,0a0,0,0,0,1,0,0c-.067.173.6.731,1.517,1.249s1.736.806,1.85.656a0,0,0,0,1,0,0Z" transform="translate(-2181.682 -1173.176)" fill="#fa942f"/>
                  <path id="Trazado_719271" data-name="Trazado 719271" d="M2244.427,1210.079c-.016.031.031.082.106.118s.145.039.157.008-.031-.083-.106-.118S2244.442,1210.047,2244.427,1210.079Z" transform="translate(-2241.958 -1208.609)" fill="#d49415"/>
                  <path id="Trazado_719272" data-name="Trazado 719272" d="M2197.5,1187.605c0,.035.059.067.137.075s.149-.012.149-.047-.059-.067-.137-.075S2197.5,1187.57,2197.5,1187.605Z" transform="translate(-2196.875 -1186.991)" fill="#d49415"/>
                  <path id="Trazado_719273" data-name="Trazado 719273" d="M2224.3,1190.472c0,.035.059.067.138.075s.149-.012.149-.047-.059-.067-.137-.075S2224.3,1190.437,2224.3,1190.472Z" transform="translate(-2222.621 -1189.745)" fill="#b87b1f"/>
                </g>
                <path id="Trazado_719274" data-name="Trazado 719274" d="M2165.4,1238.408l.043.024v-.031a.035.035,0,0,0-.019,0A.05.05,0,0,0,2165.4,1238.408Z" transform="translate(-2164.709 -1235.838)" fill="#606060"/>
                <path id="Trazado_719275" data-name="Trazado 719275" d="M2165.4,1238.408l.043.024v-.031a.035.035,0,0,0-.019,0A.05.05,0,0,0,2165.4,1238.408Z" transform="translate(-2164.709 -1235.838)" fill="#606060"/>
              </g>
              <g id="Grupo_1017418" data-name="Grupo 1017418" transform="translate(2.412 6.412)">
                <g id="Grupo_1017417" data-name="Grupo 1017417">
                  <path id="Trazado_719276" data-name="Trazado 719276" d="M2086.373,1105.423a1.971,1.971,0,0,0-.248-.464.652.652,0,0,0-.362-.259.2.2,0,0,0-.149.314s.291-.22.629.424Z" transform="translate(-2085.466 -1104.688)" fill="#82421a"/>
                  <g id="Grupo_1017410" data-name="Grupo 1017410" transform="translate(1.454 2.129)">
                    <g id="Grupo_1017409" data-name="Grupo 1017409">
                      <g id="Layer0_40_FILL_2_">
                        <path id="Trazado_719277" data-name="Trazado 719277" d="M779.747,812.9Z" transform="translate(-779.747 -812.903)" fill="#f5e9a8"/>
                      </g>
                    </g>
                  </g>
                  <g id="Grupo_1017412" data-name="Grupo 1017412" transform="translate(1.458 2.127)">
                    <g id="Grupo_1017411" data-name="Grupo 1017411">
                      <g id="Layer0_40_MEMBER_1_MEMBER_0_FILL_2_">
                        <path id="Trazado_719278" data-name="Trazado 719278" d="M779.711,812.793Z" transform="translate(-779.711 -812.793)" fill="#f5e9a8"/>
                      </g>
                    </g>
                  </g>
                  <path id="Trazado_719279" data-name="Trazado 719279" d="M2082.8,1105.724a1.228,1.228,0,0,1,.919.173c.035.118.255.864.255.864l.487.193a1.408,1.408,0,0,1,.3.845,1.057,1.057,0,0,0,.326-.55.556.556,0,0,0,.409-.334.964.964,0,0,0,.582-.228,2.933,2.933,0,0,1-.735-.134c-.039-.145-.354-.982-.354-.982l-.7-.483a.958.958,0,0,1-.035-.424c.051-.122.125-.263.125-.263a.747.747,0,0,0-.358.566c-.071.008-.471.224-.515.452C2083.421,1105.437,2082.918,1105.5,2082.8,1105.724Z" transform="translate(-2082.8 -1104.4)" fill="#fad56e"/>
                  <g id="Grupo_1017414" data-name="Grupo 1017414" transform="translate(0.004 0.004)">
                    <g id="Grupo_1017413" data-name="Grupo 1017413" transform="translate(0 0)">
                      <g id="Layer0_40_MEMBER_4_FILL_2_">
                        <path id="Trazado_719280" data-name="Trazado 719280" d="M742.961,759.715a.941.941,0,0,0-.266.365.991.991,0,0,1,.724-.248.553.553,0,0,1,.477-.4.982.982,0,0,1,.365-.671.989.989,0,0,0-.416.211,1.5,1.5,0,0,0-.345.439c-.01.017-.017.035-.027.052l-.089.026A1.294,1.294,0,0,0,742.961,759.715Z" transform="translate(-742.695 -758.759)" fill="#ea3f3f"/>
                      </g>
                    </g>
                  </g>
                  <g id="Grupo_1017416" data-name="Grupo 1017416" transform="translate(1.969 2.289)">
                    <g id="Grupo_1017415" data-name="Grupo 1017415" transform="translate(0)">
                      <g id="Layer0_40_MEMBER_6_MEMBER_0_FILL_2_">
                        <path id="Trazado_719281" data-name="Trazado 719281" d="M792.723,818.023a1,1,0,0,0,.345-.192,1.257,1.257,0,0,0,.221-.244c.029-.04.056-.082.084-.129a1.352,1.352,0,0,0,.166-.072,1.23,1.23,0,0,0,.244-.16,1.053,1.053,0,0,0,.257-.316.879.879,0,0,1-.583.227.548.548,0,0,1-.413.348A.879.879,0,0,1,792.723,818.023Z" transform="translate(-792.723 -816.91)" fill="#ea3f3f"/>
                      </g>
                    </g>
                  </g>
                  <path id="Trazado_719282" data-name="Trazado 719282" d="M2120.264,1144.281a.111.111,0,0,1-.063.142.107.107,0,0,1-.126-.083c-.02-.063-.023-.189.031-.2S2120.248,1144.222,2120.264,1144.281Z" transform="translate(-2118.598 -1142.576)" fill="#82421a"/>
                  <path id="Trazado_719283" data-name="Trazado 719283" d="M2125.947,1139.767a.109.109,0,0,1,.043.145.112.112,0,0,1-.153.02c-.055-.035-.137-.13-.106-.173S2125.892,1139.732,2125.947,1139.767Z" transform="translate(-2124.037 -1138.345)" fill="#82421a"/>
                </g>
              </g>
              <path id="Trazado_719284" data-name="Trazado 719284" d="M2046.27,1148.134a.419.419,0,1,1-.692-.334A1.156,1.156,0,0,1,2046.27,1148.134Z" transform="translate(-2044.628 -1139.683)" fill="#3f964f"/>
              <path id="Trazado_719285" data-name="Trazado 719285" d="M2249.354,1153.428a.418.418,0,1,1-.354.68A1.137,1.137,0,0,1,2249.354,1153.428Z" transform="translate(-2240.059 -1144.895)" fill="#3f964f"/>
              <path id="Trazado_719286" data-name="Trazado 719286" d="M2078.418,1049.2s-2.369,1.179-2.33,2.487S2078.418,1049.2,2078.418,1049.2Z" transform="translate(-2073.939 -1044.957)" fill="#c2d1ff"/>
            </g>
            <path id="Trazado_719287" data-name="Trazado 719287" d="M2204.5,1027.3l5.606.9s2.88.027,2.216,2.707c-1.2.7-2.742.468-8.022-2.251Z" transform="translate(-2194.443 -1006.551)" fill="#f37a50"/>
            <path id="Trazado_719288" data-name="Trazado 719288" d="M1961.57,1017.8l-5.991,1.5s-2.872.24-2.011,2.864c1.249.613,2.915,0,7.983-3.088C1962.7,1018.488,1961.57,1017.8,1961.57,1017.8Z" transform="translate(-1953.406 -997.424)" fill="#de623c"/>
            <path id="Trazado_719289" data-name="Trazado 719289" d="M2145.8,770.875l3.257-.075.055,2.424a4.475,4.475,0,0,1-1.729.314,2.991,2.991,0,0,1-1.524-.24Z" transform="translate(-2138.241 -760.128)" fill="#de623c"/>
            <path id="Trazado_719290" data-name="Trazado 719290" d="M2261.558,650.7a1.13,1.13,0,0,0,.448,1.5c.479.161,1.053-.251,1.285-.919a1.129,1.129,0,0,0-.448-1.5C2262.359,649.621,2261.786,650.03,2261.558,650.7Z" transform="translate(-2249.36 -643.829)" fill="#de623c"/>
            <path id="Trazado_719291" data-name="Trazado 719291" d="M2096.586,540.592c-.212-2.334-.192-4.734-3.89-4.648s-3.575,2.11-3.649,4.82c-.079,2.844,2,5.107,3.889,5.178C2094.759,546.014,2096.846,543.425,2096.586,540.592Z" transform="translate(-2083.717 -534.497)" fill="#f37a50"/>
            <path id="Trazado_719292" data-name="Trazado 719292" d="M2208.414,667.838a.449.449,0,0,1-.608.157.434.434,0,0,1-.161-.6.45.45,0,0,1,.609-.157A.434.434,0,0,1,2208.414,667.838Z" transform="translate(-2197.599 -660.581)"/>
            <path id="Trazado_719293" data-name="Trazado 719293" d="M2124,673.4a.421.421,0,0,1-.57.149.4.4,0,0,1-.149-.562.421.421,0,0,1,.569-.149A.411.411,0,0,1,2124,673.4Z" transform="translate(-2116.547 -665.964)"/>
            <g id="Grupo_1017420" data-name="Grupo 1017420" transform="translate(6.077 5.911)">
              <path id="Trazado_719294" data-name="Trazado 719294" d="M2108.193,650.34a.155.155,0,0,1-.043-.028.18.18,0,0,1-.008-.244,1.172,1.172,0,0,1,1.131-.432.164.164,0,0,1,.11.208.179.179,0,0,1-.2.134.838.838,0,0,0-.8.31A.176.176,0,0,1,2108.193,650.34Z" transform="translate(-2108.099 -649.618)" fill="#2c2858"/>
            </g>
            <g id="Grupo_1017421" data-name="Grupo 1017421" transform="translate(9.991 5.752)">
              <path id="Trazado_719295" data-name="Trazado 719295" d="M2208.955,646.242a.165.165,0,0,0,.043-.031.178.178,0,0,0-.011-.244,1.164,1.164,0,0,0-1.155-.354.163.163,0,0,0-.094.216.176.176,0,0,0,.212.118.829.829,0,0,1,.817.255A.165.165,0,0,0,2208.955,646.242Z" transform="translate(-2207.727 -645.577)" fill="#2c2858"/>
            </g>
            <path id="Trazado_719296" data-name="Trazado 719296" d="M2157.85,695.3a3.627,3.627,0,0,1-.361.731.152.152,0,0,0,.024.2,2.129,2.129,0,0,0,1.1.275.041.041,0,0,0,.016-.079,1.952,1.952,0,0,1-.64-.346.185.185,0,0,1-.059-.153c.016-.13.043-.4.047-.609C2157.984,695.249,2157.877,695.23,2157.85,695.3Z" transform="translate(-2149.443 -687.552)" fill="#de623c"/>
            <path id="Trazado_719297" data-name="Trazado 719297" d="M2158.134,742.236a.11.11,0,0,0-.1-.173,7.174,7.174,0,0,1-.951.106,7.62,7.62,0,0,1-.955-.031.111.111,0,0,0-.086.181,1.208,1.208,0,0,0,2.09-.083Z" transform="translate(-2148.062 -732.519)" fill="#fff"/>
            <path id="Trazado_719298" data-name="Trazado 719298" d="M2077.6,531.1a9.449,9.449,0,0,0,5.716-1.638,6.535,6.535,0,0,0,2.22,1.792c.719.357.09-3.387-.538-3.992s-4.84-1.1-5.76-.648S2077.6,531.1,2077.6,531.1Z" transform="translate(-2072.721 -525.365)" fill="#2c2858"/>
            <g id="Grupo_1017422" data-name="Grupo 1017422" transform="translate(5.978 18.992)">
              <path id="Trazado_719299" data-name="Trazado 719299" d="M2109.457,985.694c.075-.444.42-.778.354-1.124-.039-.2-.389-.381-.589-.676s-.09-.644-.326-.99c-.2-.3-.3-.358-.425-.307l-.035.853c-.071.228-.417.409-1.395.287-.747-.094-1.257-.448-1.407-.063-.1.251.295.3.806.389-.644.059-.684-.2-.841.1-.192.362.793.511,1.277.507-.684.236-1.1-.228-1.218.008-.126.275.306.66,1.1.526-.691.24-.919-.094-.982.153s.892.75,2,.652C2108.066,985.989,2109.457,985.694,2109.457,985.694Z" transform="translate(-2105.574 -982.582)" fill="#f37a50"/>
            </g>
            <g id="Grupo_1017423" data-name="Grupo 1017423" transform="translate(11.211 15.57)">
              <path id="Trazado_719300" data-name="Trazado 719300" d="M2239.363,895.653c.354-.409.68-.024.6.263a1.388,1.388,0,0,1-.613.707C2238.2,895.771,2239.049,895.17,2239.363,895.653Z" transform="translate(-2238.764 -895.475)" fill="#0e6a41"/>
            </g>
          </g>
        </g>
        <g id="Grupo_1017428" data-name="Grupo 1017428" transform="translate(0 30.339)">
          <path id="Trazado_719301" data-name="Trazado 719301" d="M1939.391,1273.121l-.071.888-2,25.674a.458.458,0,0,1-.169.342h-16.493a.445.445,0,0,1-.169-.342l-1.8-25.674-.086-1.23c0-.283,1.069-1.379,1.438-1.379l2.9.016,1.127,0,.825,0h0l2.506.012H1928l.845,0,.77,0,1.218,0h.114l.888,0h.075l1.45.008,2.133.012h0l2.546.012C1938.852,1271.219,1939.391,1272.838,1939.391,1273.121Z" transform="translate(-1916.711 -1271.4)" fill="#c4204a"/>
          <path id="Trazado_719302" data-name="Trazado 719302" d="M1894.127,1271.4h-22.951c-.374,0-.676.22-.676.491v1.63c0,.267.3.491.676.491h22.951c.373,0,.676-.22.676-.491v-1.63C1894.8,1271.62,1894.5,1271.4,1894.127,1271.4Z" transform="translate(-1870.5 -1271.4)" fill="#e62552"/>
          <g id="Grupo_1017426" data-name="Grupo 1017426" transform="translate(6.266 5.677)">
            <path id="Trazado_719303" data-name="Trazado 719303" d="M2036.019,1415.9a6.019,6.019,0,1,0,6.019,6.019A6.024,6.024,0,0,0,2036.019,1415.9Zm0,11.645a5.63,5.63,0,1,1,5.63-5.63A5.637,5.637,0,0,1,2036.019,1427.545Z" transform="translate(-2030 -1415.9)" fill="#e62552"/>
          </g>
          <g id="Grupo_1017427" data-name="Grupo 1017427" transform="translate(8.797 8.537)">
            <path id="Trazado_719304" data-name="Trazado 719304" d="M2198.261,1532.082a1.626,1.626,0,0,1-1.367.012,6.294,6.294,0,0,1,1.21-1.8,3.954,3.954,0,0,0-1.418,1.646l-.035-.035a1.433,1.433,0,0,1-.071-1.583,2.99,2.99,0,0,1,2.695-1.222C2199.53,1530.494,2199.086,1531.7,2198.261,1532.082Z" transform="translate(-2192.369 -1527.513)" fill="#e62552"/>
            <path id="Trazado_719305" data-name="Trazado 719305" d="M2095.3,1489.6a17.614,17.614,0,0,1,2.377,2.612,2.065,2.065,0,0,1-2.074-.051,3.031,3.031,0,0,1-1.057-3.418c1.776-.236,3.241.436,3.622,1.485a1.833,1.833,0,0,1-.318,1.842A14.424,14.424,0,0,0,2095.3,1489.6Z" transform="translate(-2094.416 -1488.7)" fill="#e62552"/>
            <path id="Trazado_719306" data-name="Trazado 719306" d="M2107.617,1593.721c-.68.531-1.913.365-3.017-.487.636-1.234,1.67-1.917,2.514-1.736a1.489,1.489,0,0,1,.958.66,3.338,3.338,0,0,0-1.941.487,3.7,3.7,0,0,1,2.043-.216A1.388,1.388,0,0,1,2107.617,1593.721Z" transform="translate(-2104.2 -1587.432)" fill="#e62552"/>
          </g>
        </g>
      </g>
      <g id="Grupo_1017430" data-name="Grupo 1017430" transform="translate(136.704 82.49)">
        <path id="Trazado_719307" data-name="Trazado 719307" d="M1662.357,280.854c-.059.047-.157.149-.157.149l.829,1.324,1.277-.8-.377-1C1663.433,280.056,1662.675,280.6,1662.357,280.854Z" transform="translate(-1660.121 -280.341)" fill="#f0f4ff"/>
        <path id="Trazado_719308" data-name="Trazado 719308" d="M1709.072,282.72a1.965,1.965,0,0,0-1.835-.519c.754,1.458.456,1.956.456,1.956l-.593.181,1.674.668,1.029-1.3-.53.083A4.737,4.737,0,0,0,1709.072,282.72Z" transform="translate(-1703.257 -282.085)" fill="#f0f4ff"/>
        <path id="Trazado_719309" data-name="Trazado 719309" d="M1744.932,358.8l-1.532.291.283,1.481,1.069.016c.617-.287.385-1.194.263-1.583C1744.991,358.93,1744.932,358.8,1744.932,358.8Z" transform="translate(-1738.131 -355.718)" fill="#f0f4ff"/>
        <path id="Trazado_719310" data-name="Trazado 719310" d="M1698.087,386.421l.047-.621-1.234,1.316.837,1.434.114-.523a4.6,4.6,0,0,0,1.069.2c.951-.263,1.155-1.516,1.155-1.516C1698.444,386.88,1698.087,386.421,1698.087,386.421Z" transform="translate(-1693.458 -381.657)" fill="#f0f4ff"/>
        <path id="Trazado_719311" data-name="Trazado 719311" d="M1633.549,382.823c-.051.676.853.919,1.25,1.006.071.016.216.027.216.027l.5-1.477-1.43-.479Z" transform="translate(-1632.594 -377.91)" fill="#f0f4ff"/>
        <path id="Trazado_719312" data-name="Trazado 719312" d="M1609.615,327.628l.4.358a4.574,4.574,0,0,0-.7.833c-.236.959.758,1.748.758,1.748.652-1.5,1.226-1.591,1.226-1.591l.515.346-.542-1.721Z" transform="translate(-1609.28 -325.743)" fill="#f0f4ff"/>
      </g>
      <g id="Grupo_1017431" data-name="Grupo 1017431" transform="translate(171.804 108.327)">
        <path id="Trazado_719313" data-name="Trazado 719313" d="M2505.3,968.173c0,.067.016.192.016.192l1.371.153.149-1.328-.9-.291C2505.344,966.986,2505.3,967.815,2505.3,968.173Z" transform="translate(-2505.198 -965.764)" fill="#e3eaff"/>
        <path id="Trazado_719314" data-name="Trazado 719314" d="M2524.071,937.99c-.872-.024-1.371.982-1.371.982,1.422.283,1.6.762,1.6.762l-.2.511,1.387-.79-.334-1.43-.232.412A3.969,3.969,0,0,0,2524.071,937.99Z" transform="translate(-2521.915 -937.99)" fill="#e3eaff"/>
        <path id="Trazado_719315" data-name="Trazado 719315" d="M2598.845,954.9l-.645,1.222,1.183.621.6-.731c.141-.585-.617-.923-.951-1.057C2598.966,954.932,2598.845,954.9,2598.845,954.9Z" transform="translate(-2594.448 -954.236)" fill="#e3eaff"/>
        <path id="Trazado_719316" data-name="Trazado 719316" d="M2604,987.018l-.4-.377.228,1.579,1.454.212-.3-.369a4.018,4.018,0,0,0,.727-.629,1.742,1.742,0,0,0-.412-1.634C2604.512,987.022,2604,987.018,2604,987.018Z" transform="translate(-2599.636 -983.922)" fill="#e3eaff"/>
        <path id="Trazado_719317" data-name="Trazado 719317" d="M2556.442,1044.4c.44.409,1.108-.083,1.387-.31.051-.043.137-.134.137-.134l-.746-1.159-1.12.723Z" transform="translate(-2554.002 -1038.682)" fill="#e3eaff"/>
        <path id="Trazado_719318" data-name="Trazado 719318" d="M2502.7,1023.659l.467-.079a4.023,4.023,0,0,0,.193.943,1.738,1.738,0,0,0,1.626.44c-.683-1.281-.424-1.725-.424-1.725l.523-.165-1.489-.574Z" transform="translate(-2502.7 -1019.18)" fill="#e3eaff"/>
      </g>
      <circle id="Elipse_5889" data-name="Elipse 5889" cx="1.34" cy="1.34" r="1.34" transform="translate(143.199 99.166)" fill="#f0f4ff"/>
      <path id="Trazado_719319" data-name="Trazado 719319" d="M1171.486,210.643a.943.943,0,1,1-.943-.943A.943.943,0,0,1,1171.486,210.643Z" transform="translate(-1050.17 -129.985)" fill="#d4deff"/>
      <circle id="Elipse_5890" data-name="Elipse 5890" cx="1.34" cy="1.34" r="1.34" transform="matrix(0.122, -0.993, 0.993, 0.122, 84.514, 98.698)" fill="#f0f4ff"/>
      <path id="Trazado_719320" data-name="Trazado 719320" d="M2276.279,273.24a1.34,1.34,0,1,1-1.34-1.34A1.341,1.341,0,0,1,2276.279,273.24Z" transform="translate(-2110.797 -189.741)" fill="#f0f4ff"/>
      <path id="Trazado_719321" data-name="Trazado 719321" d="M2704.068,686.284a.884.884,0,1,1-.884-.884A.885.885,0,0,1,2704.068,686.284Z" transform="translate(-2522.655 -586.996)" fill="#f0f4ff"/>
      <path id="Trazado_719322" data-name="Trazado 719322" d="M3263.868,1598.484a.884.884,0,1,1-.884-.884A.886.886,0,0,1,3263.868,1598.484Z" transform="translate(-3060.462 -1463.359)" fill="#f0f4ff"/>
      <path id="Trazado_719323" data-name="Trazado 719323" d="M2533.315,143.307a2.007,2.007,0,1,1-2.007-2.008A2.008,2.008,0,0,1,2533.315,143.307Z" transform="translate(-2356.451 -64.272)" fill="#d4deff"/>
      <g id="Grupo_1017432" data-name="Grupo 1017432" transform="translate(116.869 82.233)">
        <path id="Trazado_719324" data-name="Trazado 719324" d="M1106.152,273.8a1.752,1.752,0,1,0,1.752,1.752A1.754,1.754,0,0,0,1106.152,273.8Zm0,2.711a.959.959,0,1,1,.959-.959A.96.96,0,0,1,1106.152,276.511Z" transform="translate(-1104.4 -273.8)" fill="#d4deff"/>
      </g>
      <g id="Grupo_1017433" data-name="Grupo 1017433" transform="translate(106.096 105.982)">
        <path id="Trazado_719325" data-name="Trazado 719325" d="M831.54,878.3a1.338,1.338,0,1,0,1.336,1.34A1.341,1.341,0,0,0,831.54,878.3Zm0,2.07a.731.731,0,1,1,.731-.731A.729.729,0,0,1,831.54,880.37Z" transform="translate(-830.2 -878.3)" fill="#f0f4ff"/>
      </g>
      <g id="Grupo_1017434" data-name="Grupo 1017434" transform="translate(140.633 96.058)">
        <path id="Trazado_719326" data-name="Trazado 719326" d="M1710.64,625.7a1.34,1.34,0,1,0,1.336,1.34A1.341,1.341,0,0,0,1710.64,625.7Zm0,2.07a.731.731,0,1,1,.731-.731A.729.729,0,0,1,1710.64,627.771Z" transform="translate(-1709.3 -625.7)" fill="#f0f4ff"/>
      </g>
      <g id="Grupo_1017435" data-name="Grupo 1017435" transform="translate(173.776 101.786)">
        <path id="Trazado_719327" data-name="Trazado 719327" d="M2554.24,771.5a1.34,1.34,0,1,0,1.336,1.34A1.341,1.341,0,0,0,2554.24,771.5Zm0,2.07a.731.731,0,1,1,.731-.731A.729.729,0,0,1,2554.24,773.57Z" transform="translate(-2552.9 -771.5)" fill="#f0f4ff"/>
      </g>
      <g id="Grupo_1017436" data-name="Grupo 1017436" transform="translate(143.934 139.879)">
        <path id="Trazado_719328" data-name="Trazado 719328" d="M1794.636,1741.1a1.338,1.338,0,1,0,1.34,1.336A1.337,1.337,0,0,0,1794.636,1741.1Zm0,2.07a.731.731,0,1,1,.731-.731A.732.732,0,0,1,1794.636,1743.171Z" transform="translate(-1793.3 -1741.1)" fill="#f0f4ff"/>
      </g>
    </g>
  </g>
</svg>
