<svg xmlns="http://www.w3.org/2000/svg" width="124" height="124" viewBox="0 0 124 124">
  <g id="Grupo_1079629" data-name="Grupo 1079629" transform="translate(-581.001 -4023.656)">
    <g id="Grupo_159183" data-name="Grupo 159183" transform="translate(581.001 4023.656)">
      <path id="Unión_12" data-name="Unión 12" d="M62,0A62,62,0,1,1,0,62,62,62,0,0,1,62,0Z" fill="#01d8d1"/>
    </g>
    <g id="svg18" transform="translate(581.991 4041.097)">
      <path id="Trazado_720419" data-name="Trazado 720419" d="M13.925,78.039S.3,64.826,8.96,49.291s20.274-7.745,19.727-25.832S55.43,3.823,64.131,9.062s8.656,11.572,26.606,9.476,21.367,15.353,16.72,24.237C100.852,55.4,125.864,53.3,110.1,78.039Z" transform="translate(0 0)" fill="#ebf3fa"/>
      <g id="Grupo_1017848" data-name="Grupo 1017848" transform="translate(73.422 30.725)">
        <path id="Trazado_720420" data-name="Trazado 720420" d="M154.5,79.113s2.87-12.255,12.665-13.622a2.435,2.435,0,0,1,2.551,1.868c.638,2.1-3.144,2.1-5.467,2.961C161.881,71.141,156.459,74.694,154.5,79.113Z" transform="translate(-154.224 -62.871)" fill="#aec3ff" opacity="0.3"/>
        <path id="Trazado_720421" data-name="Trazado 720421" d="M153.942,73.668s-1-10.16,6.1-13.759a1.917,1.917,0,0,1,2.415.774c1.048,1.412-1.868,2.46-3.417,3.69C157.5,65.649,154.261,69.8,153.942,73.668Z" transform="translate(-153.894 -59.749)" fill="#aec3ff" opacity="0.3"/>
      </g>
      <path id="Trazado_720422" data-name="Trazado 720422" d="M38.187,129.7c-1.5-3.417,3.964-6.378,3.964-6.378s7.2,2.324,8.246,1.686-5.786-3.189-5.786-3.189c1.686-1.64,8.109-3.144,8.109-3.144s4.328,5.968,5.194,5.1-4.1-5.1-4.1-5.1c2.187-.911,5.467-.137,5.467-.137,4.738,1.686,2.324,7.7,2.324,7.7a11.818,11.818,0,0,0,4.647,3.326h0a6.587,6.587,0,0,1,1.458.683l-.5.364-.41-.273h0a1.786,1.786,0,0,0-.41-.182h0l-.82-.41h0A9.688,9.688,0,0,0,62.2,128.6a.787.787,0,0,0-.091-.319,2.906,2.906,0,0,1,.091.319c.592,2.415-3.28,6.014-5.923,7.381-2.688,1.367-2.187-.091-1.822-2.1.41-2.05,3.189-3.827,3.645-4.875.41-1.048-1-.547-2.46.82-1.412,1.367-.957,3.508-3.235,5.695-2.278,2.232-7.882-.911-7.882-.911,2.141-.82,4.419-4.237,4.055-4.92s-4.829,3.007-5.695,3.417C42.06,133.522,39.691,133.112,38.187,129.7Z" transform="translate(-17.337 -60.859)" fill="#cde0fb"/>
      <path id="Trazado_720423" data-name="Trazado 720423" d="M158.632,134.271c2.187-2.6-1.777-6.56-1.777-6.56s-6.879.182-7.608-.683c-.729-.82,5.832-1.276,5.832-1.276-1.048-1.868-6.242-4.829-6.242-4.829s-5.33,4.1-5.832,3.1c-.5-.957,4.875-3.371,4.875-3.371a10.443,10.443,0,0,0-4.738-1.549c-4.556.228-4.009,6.1-4.009,6.1a10.813,10.813,0,0,1-4.875,1.686h0a6.338,6.338,0,0,0-1.458.228l.319.456c.137-.046.319-.091.456-.137h0a2.312,2.312,0,0,0,.41-.091h0a7.489,7.489,0,0,0,.82-.137h0a7.885,7.885,0,0,1,3.235-.091,2.368,2.368,0,0,1,.137-.228c-.046.091-.091.137-.137.228-1.139,1.959,1.276,6.1,3.235,7.973s1.913.5,2.1-1.367-1.777-4.146-1.868-5.194c-.091-1,1-.228,1.913,1.321s-.046,3.28,1.321,5.786c1.412,2.506,7.107,1.276,7.107,1.276-1.64-1.276-2.734-4.829-2.278-5.33.5-.5,3.417,3.873,4.055,4.419C154.258,136.64,156.445,136.868,158.632,134.271Z" transform="translate(-68.988 -61.335)" fill="#cde0fb"/>
      <path id="Trazado_720424" data-name="Trazado 720424" d="M67.954,39.99c2.278-3.781,8.838-.592,8.838-.592s2.688,8.52,4.009,9.066-.866-7.745-.866-7.745c2.734.5,8.565,5.649,8.565,5.649s-2.779,8.292-1.367,8.474c1.412.228,2.1-7.472,2.1-7.472,2.369,1.5,3.918,5.148,3.918,5.148,1.64,5.74-5.786,7.517-5.786,7.517a14.093,14.093,0,0,0-.046,6.743h0a11.466,11.466,0,0,1,.364,1.913L87,68.51a2.6,2.6,0,0,0-.046-.592h0a2.974,2.974,0,0,0-.091-.5h0c-.091-.5-.137-.82-.182-1.093h0c-.273-1.5-.729-3.462-1.23-4.009a2.789,2.789,0,0,0,.228-.273c-.091.091-.137.182-.228.273-1.913,2.232-8.018,1-11.207-.638-3.144-1.64-1.412-2.141.82-3.189s5.877.41,7.153.137-.182-1.321-2.46-1.777-4.009,1.458-7.7.82c-3.69-.683-4.556-8.2-4.556-8.2,2.278,1.458,7.107,1.321,7.517.547.41-.82-6.2-2.551-7.153-3.1C66.906,46.323,65.676,43.772,67.954,39.99Z" transform="translate(-32.98 -17.26)" fill="#cde0fb" opacity="0.5"/>
      <g id="Grupo_1017850" data-name="Grupo 1017850" transform="translate(60.259 17.126)">
        <g id="Grupo_1017849" data-name="Grupo 1017849">
          <path id="Trazado_720425" data-name="Trazado 720425" d="M125,42.474a1.828,1.828,0,0,1,.137-.683,1.638,1.638,0,0,1,.364-.547,2.583,2.583,0,0,1,.592-.364,2.263,2.263,0,0,1,1.549,0,1.608,1.608,0,0,1,.592.364,1.162,1.162,0,0,1,.364.547,1.777,1.777,0,0,1,0,1.367,3.8,3.8,0,0,1-.364.547,2.583,2.583,0,0,1-.592.364,2.263,2.263,0,0,1-1.549,0,1.608,1.608,0,0,1-.592-.364,1.162,1.162,0,0,1-.364-.547A1.828,1.828,0,0,1,125,42.474Zm3.189-3.189h-2.734l-.41-9.385h3.508Z" transform="translate(-125 -29.9)" fill="#f78248"/>
        </g>
      </g>
      <g id="Grupo_1017852" data-name="Grupo 1017852" transform="translate(51.967 10.885)">
        <g id="Grupo_1017851" data-name="Grupo 1017851" transform="translate(0 0)">
          <path id="Trazado_720426" data-name="Trazado 720426" d="M106.8,25.813a1.638,1.638,0,0,1,.091-.5.927.927,0,0,1,.273-.41.945.945,0,0,1,.456-.273,1.97,1.97,0,0,1,1.185,0,.945.945,0,0,1,.456.273,1.076,1.076,0,0,1,.273.41,1.937,1.937,0,0,1,.091.5,1.638,1.638,0,0,1-.091.5,2.14,2.14,0,0,1-.273.41A.945.945,0,0,1,108.8,27a1.97,1.97,0,0,1-1.185,0,.945.945,0,0,1-.456-.273,1.076,1.076,0,0,1-.273-.41A1.638,1.638,0,0,1,106.8,25.813Zm2.46-2.415h-2.1l-.319-7.2h2.688Z" transform="translate(-106.8 -16.2)" fill="#aec3ff"/>
        </g>
      </g>
      <g id="Grupo_1017854" data-name="Grupo 1017854" transform="translate(92.879 23.049)">
        <g id="Grupo_1017853" data-name="Grupo 1017853">
          <path id="Trazado_720427" data-name="Trazado 720427" d="M196.6,52.513a1.638,1.638,0,0,1,.091-.5.927.927,0,0,1,.273-.41.945.945,0,0,1,.456-.273,1.97,1.97,0,0,1,1.185,0,.945.945,0,0,1,.456.273,1.075,1.075,0,0,1,.273.41,1.937,1.937,0,0,1,.091.5,1.638,1.638,0,0,1-.091.5,2.139,2.139,0,0,1-.273.41.945.945,0,0,1-.456.273,1.97,1.97,0,0,1-1.185,0,.945.945,0,0,1-.456-.273,1.076,1.076,0,0,1-.273-.41A1.638,1.638,0,0,1,196.6,52.513Zm2.46-2.415h-2.1l-.319-7.2h2.688Z" transform="translate(-196.6 -42.9)" fill="#aec3ff"/>
        </g>
      </g>
      <g id="Grupo_1017856" data-name="Grupo 1017856" transform="translate(81.262 41.273)">
        <g id="Grupo_1017855" data-name="Grupo 1017855">
          <path id="Trazado_720428" data-name="Trazado 720428" d="M178.116,99.736a17.168,17.168,0,0,1-1.549,2.323h0a4.925,4.925,0,0,1-1.686,1.412h0c-.046,0-.046,0-.091.046h0a.578.578,0,0,1-.273.046c-1.686-.091-3.417-3.645-3.417-3.645a1.348,1.348,0,0,1,.364-.729,1.109,1.109,0,0,1,.5-.319,12.587,12.587,0,0,0,2.232,1.959c.273.091.638-1.185,1.139-2.825a3.257,3.257,0,0,1,2.369-2S179.483,97.139,178.116,99.736Z" transform="translate(-171.1 -90.032)" fill="#aec3ff"/>
          <path id="Trazado_720429" data-name="Trazado 720429" d="M180.977,107.789h0a4.926,4.926,0,0,1-1.686,1.412h0l-.091.046h0a1.258,1.258,0,0,0,.638-.82c.091-.547-.5-.957.957-1.822C181.569,106.149,180.977,107.789,180.977,107.789Z" transform="translate(-175.51 -95.761)" fill="#94b0ed"/>
          <path id="Trazado_720430" data-name="Trazado 720430" d="M180.2,160.628h3.918c.273-.182-.091-2.05-.091-2.05s-1.048-.41-1.23.41-1.367,1.093-1.959,1.185C180.382,160.263,180.246,160.491,180.2,160.628Z" transform="translate(-176.054 -124.044)" fill="#24406d"/>
          <path id="Trazado_720431" data-name="Trazado 720431" d="M187.42,119.321s-.137,2.278-.273,4.92c-.091,1.913-.228,3.964-.364,5.558,0,.228-.046.41-.046.592v.182a33.332,33.332,0,0,1-1.23,6.56,1.955,1.955,0,0,1-1.595-.182s-.775-8.884-1.048-12.483c-.228-2.642-.365-6.469-.365-6.469Z" transform="translate(-177.306 -102.009)" fill="#ff9e55"/>
          <path id="Trazado_720432" data-name="Trazado 720432" d="M189.651,128.434c-.091,1.913-.228,3.964-.364,5.558-.729-1.686-2.187-8.292-2.187-8.292Z" transform="translate(-179.811 -106.201)" fill="#ed7d2b"/>
          <path id="Trazado_720433" data-name="Trazado 720433" d="M192.9,160.628h3.918c.273-.182-.091-2.05-.091-2.05s-1.048-.41-1.23.41-1.367,1.093-2,1.185A.726.726,0,0,0,192.9,160.628Z" transform="translate(-182.968 -124.044)" fill="#24406d"/>
          <path id="Trazado_720434" data-name="Trazado 720434" d="M184.8,118.316s2.779,6.971,3.69,9.567c.638,1.868,2.415,8.474,2.415,8.474a1.889,1.889,0,0,0,1.458-.228s.683-6.743-.683-8.611c-.729-1-.182-10.479-3.1-10.524C185.711,116.9,184.8,118.316,184.8,118.316Z" transform="translate(-178.558 -101.459)" fill="#ff9e55"/>
          <path id="Trazado_720435" data-name="Trazado 720435" d="M188.844,104.146v1.913c0,.592-.364.729-.775.82a6.392,6.392,0,0,1-.82.137,7.7,7.7,0,0,1-1.367.137,11.821,11.821,0,0,1-3.6-.592c-.364,0-.547-.592-.592-1.367-.046-.547.137-5.923.137-7.244a3.624,3.624,0,0,1,.683-2c1.367-1.23,5.421-1.048,6.15-.228a20.085,20.085,0,0,1,.228,4.374C188.89,101.549,188.844,103.007,188.844,104.146Z" transform="translate(-176.862 -89.521)" fill="#aec3ff"/>
          <path id="Trazado_720436" data-name="Trazado 720436" d="M189.486,93.322c-.5.547-2.232.456-2.187,0a1.55,1.55,0,0,1,.046-.456V92.73a.675.675,0,0,1,.046-.319,2.812,2.812,0,0,0,.046-.41h0c.046,0,1.185-.319,1.731-.456a1.456,1.456,0,0,1,.319-.046C189.212,92.73,189.622,93.14,189.486,93.322Z" transform="translate(-179.918 -87.582)" fill="#ffb27d"/>
          <path id="Trazado_720437" data-name="Trazado 720437" d="M189.222,91.964a2.8,2.8,0,0,1-1.822.5,2.811,2.811,0,0,0,.046-.41h0c.046,0,1.184-.319,1.731-.456C189.222,91.6,189.131,91.873,189.222,91.964Z" transform="translate(-179.974 -87.636)" fill="#ed975d"/>
          <path id="Trazado_720438" data-name="Trazado 720438" d="M186.419,88.337a2.889,2.889,0,0,0,.774.182c.638.091,1.458.046,1.731-.729.456-1.276,1-2.05-.273-2.6a1.975,1.975,0,0,0-1.458-.182,1.1,1.1,0,0,0-.547.456C186.419,85.876,185.872,88.109,186.419,88.337Z" transform="translate(-179.312 -84.009)" fill="#ffb27d"/>
          <path id="Trazado_720439" data-name="Trazado 720439" d="M187.072,83.356a.6.6,0,0,0,.228,1.093c.319.046.592.091.775.137.319.137.592.273.547.774-.046.182-.091.364.319.273h.137c.182.091-.046.638-.137.729a.581.581,0,0,0,.137.547c.046,0,.456.228,1.549-1.412a1.52,1.52,0,0,0,.091-1.367,2.422,2.422,0,0,0-2.324-1.23A3.272,3.272,0,0,0,187.072,83.356Z" transform="translate(-179.646 -82.9)" fill="#233862"/>
          <path id="Trazado_720440" data-name="Trazado 720440" d="M195.824,109.558c-.182.911-.137.911-.456.683-1.23-1-.866-1.5-.592-2.323.273-.866-.683-2.187,0-2.734s1.048.319,1.093.364C195.87,106.961,195.824,108.419,195.824,109.558Z" transform="translate(-183.842 -94.934)" fill="#94b0ed"/>
          <path id="Trazado_720441" data-name="Trazado 720441" d="M194.6,114.8s-.456.775-.774.729-.729-.137-.957.091-.638.82-.5.957c.091.137.547,0,.866-.137.319-.182.775.091,1.048-.091a6.678,6.678,0,0,0,.866-.957Z" transform="translate(-182.663 -100.267)" fill="#ffb27d"/>
          <path id="Trazado_720442" data-name="Trazado 720442" d="M195.9,96.6s3.872,3.645,3.371,6.059c-.228,1.093-.957,2.05-2.825,3.554,0,0-.911-.638-1.093-1.139,0,0,1.731-2.415,1.64-2.825a4.688,4.688,0,0,0-1.686-1.959C194.9,100.062,194.943,97.01,195.9,96.6Z" transform="translate(-184.145 -90.358)" fill="#aec3ff"/>
          <path id="Trazado_720443" data-name="Trazado 720443" d="M194.838,116.037a5.87,5.87,0,0,1-.547-.273c-.137-.091-.091.046-.046.091a.632.632,0,0,0,.319.228A.351.351,0,0,0,194.838,116.037Z" transform="translate(-183.676 -100.775)" fill="#ffb27d"/>
        </g>
      </g>
      <g id="Grupo_1017858" data-name="Grupo 1017858" transform="translate(19.967 40.337)">
        <path id="Trazado_720444" data-name="Trazado 720444" d="M44.466,89.162c-.137-.273,3.052-1.23,3.1,1.412,0,0,5.968-.137,3.1-3.462a3.748,3.748,0,0,1-.866-3.007c.046-.866-.592-3.462-2.825-3.189a1.744,1.744,0,0,0-1.321.137C44.056,81.873,40.366,90.119,44.466,89.162Z" transform="translate(-39.846 -80.846)" fill="#163560"/>
        <path id="Trazado_720445" data-name="Trazado 720445" d="M68.1,103.577s.41-.592.683-.592c.319,0,.911-.182.866-.046s-.41.137-.456.182c-.046.091.547.182.683.182.182,0,.547,0,.547.091a1.771,1.771,0,0,1-1.185.364,3.241,3.241,0,0,0-1.048.137Z" transform="translate(-53.731 -92.846)" fill="#ffb27d"/>
        <path id="Trazado_720446" data-name="Trazado 720446" d="M55.8,99.247a9.92,9.92,0,0,0,.592.911,3.448,3.448,0,0,0,2.05,1.367,2.792,2.792,0,0,0,1.23-.182h0a5.838,5.838,0,0,0,1.913-1.595.9.9,0,0,0-.137-.866,15.585,15.585,0,0,1-2.415.41A29.605,29.605,0,0,1,57.3,95.876,2.561,2.561,0,0,0,56.028,94.6Z" transform="translate(-47.035 -88.334)" fill="#aec3ff"/>
        <path id="Trazado_720447" data-name="Trazado 720447" d="M57,105.4a3.448,3.448,0,0,0,2.05,1.367,2.792,2.792,0,0,0,1.23-.182c-.046,0-1.139.137-1.549-.638-.456-.774-.911-2.05-1.549-1.64C56.86,104.487,56.86,104.943,57,105.4Z" transform="translate(-47.639 -93.574)" fill="#94b0ed"/>
        <path id="Trazado_720448" data-name="Trazado 720448" d="M37.125,156.264s-.683.592-.547,1.048.729.729.82,1.23c.091.547.41.82.683.82h1.412s.228-.364-.319-.5c-.5-.091-.729-.729-.683-1.321a8.566,8.566,0,0,0-.046-1.367l-1.093-.273Z" transform="translate(-36.56 -121.706)" fill="#1d3356"/>
        <path id="Trazado_720449" data-name="Trazado 720449" d="M50.094,157.3s-.228,2.6.046,2.734h3.736s0-.456-.592-.547-1.64-.456-1.822-1.23S50.094,157.3,50.094,157.3Z" transform="translate(-43.88 -122.468)" fill="#1d3356"/>
        <path id="Trazado_720450" data-name="Trazado 720450" d="M43.876,97.147s-.046.774,0,1.731a5.327,5.327,0,0,0,.774,1.686c.228.5.5.592.5.592l1.959.5.683.182,2.187-.638s1-2.779.592-4.328a13.214,13.214,0,0,0-1-2.642,8.209,8.209,0,0,0-4.1-.137Z" transform="translate(-40.532 -87.965)" fill="#aec3ff"/>
        <path id="Trazado_720451" data-name="Trazado 720451" d="M45.2,104.638a6.193,6.193,0,0,0,.182,1.412c.228.5.5.592.5.592l1.959.5.866-.273s-2.87-.456-2.551-2.87Z" transform="translate(-41.264 -93.451)" fill="#f2ccaa"/>
        <path id="Trazado_720452" data-name="Trazado 720452" d="M52.723,110.646a29.789,29.789,0,0,1,1.139,4.51c.091,1.139-2.05,16.31-2.141,16.811a1.424,1.424,0,0,1-.683.82.817.817,0,0,1-.683.046,1.385,1.385,0,0,1-.729-.364s-.82-10.8-.319-14.67a70.393,70.393,0,0,0,.547-7.2h2.87Z" transform="translate(-43.411 -97.044)" fill="#233862"/>
        <path id="Trazado_720453" data-name="Trazado 720453" d="M42.218,110.5a10.957,10.957,0,0,0-1.822,3.736c-.137,1.5-.228,6.743-.547,8.2a29.812,29.812,0,0,0-1.549,8.838.948.948,0,0,0,.5.41c.137.046.273.091.456.137a.676.676,0,0,0,.775-.364c.82-1.64,3.417-6.925,3.554-8.018.091-.775.911-5.923,2.688-8.93.41-.729-.273-3.6-.273-3.6Z" transform="translate(-37.507 -96.99)" fill="#2b478b"/>
        <path id="Trazado_720454" data-name="Trazado 720454" d="M51.466,109.6a2.149,2.149,0,0,1-1.276.364c-1.048,0-3.6-.273-3.6-.273a2.665,2.665,0,0,0-.091.638s3.1.774,4.92.137A1.979,1.979,0,0,0,51.466,109.6Z" transform="translate(-41.972 -96.5)" fill="#233862"/>
        <g id="Grupo_1017857" data-name="Grupo 1017857" transform="translate(7.945 13.282)">
          <path id="Trazado_720455" data-name="Trazado 720455" d="M54,110.547a.546.546,0,0,1,.456-.547c.273,0,.456.228.456.547a.546.546,0,0,1-.456.547A.586.586,0,0,1,54,110.547Zm.182,0a.325.325,0,0,0,.319.364.352.352,0,0,0,.319-.364.322.322,0,1,0-.638,0Z" transform="translate(-54 -110)" fill="#fff"/>
        </g>
        <path id="Trazado_720456" data-name="Trazado 720456" d="M39.807,106.2l2.551,2.187a.443.443,0,0,0,.638-.046l3.235-3.736a.443.443,0,0,0-.046-.638l-2.551-2.187a.488.488,0,0,0-.638.046l-3.235,3.736A.443.443,0,0,0,39.807,106.2Z" transform="translate(-38.24 -92.191)" fill="#f78248"/>
        <path id="Trazado_720457" data-name="Trazado 720457" d="M47.982,111c.046,0,1.367.182,1.367.456a.823.823,0,0,1-.729.729c-.137,0-.82-.638-.82-.638Z" transform="translate(-42.679 -97.262)" fill="#ffb27d"/>
        <path id="Trazado_720458" data-name="Trazado 720458" d="M49.651,91.895a4.738,4.738,0,0,0,.228-1.595h.091l1.686.319s-.046.5-.046,1h0c0,.41.273.866-.41,1.048C50.972,92.76,49.332,92.669,49.651,91.895Z" transform="translate(-43.665 -85.993)" fill="#ffb27d"/>
        <path id="Trazado_720459" data-name="Trazado 720459" d="M52.086,90.664s-.046.5-.046,1A2.066,2.066,0,0,1,50.4,90.3Z" transform="translate(-44.095 -85.993)" fill="#e8945b"/>
        <path id="Trazado_720460" data-name="Trazado 720460" d="M52.161,87.678s-2.187.046-2.187-1.321-.273-2.278,1.139-2.369,1.686.456,1.777.911S52.708,87.633,52.161,87.678Z" transform="translate(-43.852 -82.551)" fill="#ffb27d"/>
        <path id="Trazado_720461" data-name="Trazado 720461" d="M51.17,83.56s-.592,1.595-1.549,1.868a1.944,1.944,0,0,1-1.321,0,2.484,2.484,0,0,0,.866-1.549C49.166,83.833,50.715,82.786,51.17,83.56Z" transform="translate(-42.952 -82.169)" fill="#163560"/>
        <path id="Trazado_720462" data-name="Trazado 720462" d="M54.2,83.877a1.462,1.462,0,0,1,.638.5,2.5,2.5,0,0,1,.319,1.276s.456-1.093-.046-1.731C54.564,83.239,54.2,83.877,54.2,83.877Z" transform="translate(-46.164 -82.349)" fill="#163560"/>
        <path id="Trazado_720463" data-name="Trazado 720463" d="M48.2,110.891a2.475,2.475,0,0,1,.5-.091c.228.046.364,0,.364.046s-.273.091-.319.137C48.7,110.982,48.2,110.891,48.2,110.891Z" transform="translate(-42.897 -97.153)" fill="#ffb27d"/>
        <path id="Trazado_720464" data-name="Trazado 720464" d="M42.773,94.1a2.6,2.6,0,0,0-2.141,1.549A43.435,43.435,0,0,0,38.9,99.977c0,.41.638,1.686,4.055,2.415,0,0,.364-.364.319-.683a17.806,17.806,0,0,1-2.141-2.05c0-.41.364-.957,2.232-2.825C43.82,96.378,42.773,94.1,42.773,94.1Z" transform="translate(-37.834 -88.061)" fill="#aec3ff"/>
      </g>
      <g id="Grupo_1017861" data-name="Grupo 1017861" transform="translate(38.208 33.983)">
        <g id="Grupo_1017860" data-name="Grupo 1017860">
          <path id="Trazado_720465" data-name="Trazado 720465" d="M106.988,66.9h-16.9a1.591,1.591,0,0,0-1.093.456L77.056,79.292a1.591,1.591,0,0,0-.456,1.093v16.9a1.591,1.591,0,0,0,.456,1.093l11.936,11.936a1.591,1.591,0,0,0,1.093.456h16.9a1.591,1.591,0,0,0,1.093-.456l11.936-11.936a1.591,1.591,0,0,0,.456-1.093v-16.9a1.591,1.591,0,0,0-.456-1.093L108.081,67.356A1.413,1.413,0,0,0,106.988,66.9Z" transform="translate(-76.6 -66.9)" fill="#f78248"/>
          <g id="Grupo_1017859" data-name="Grupo 1017859" transform="translate(2.232 2.232)">
            <path id="Trazado_720466" data-name="Trazado 720466" d="M108.471,111.254H93.938a2.17,2.17,0,0,1-1.549-.638L82.138,100.365a2.17,2.17,0,0,1-.638-1.549V84.238a2.17,2.17,0,0,1,.638-1.549L92.389,72.438a2.17,2.17,0,0,1,1.549-.638h14.533a2.17,2.17,0,0,1,1.549.638l10.251,10.251a2.17,2.17,0,0,1,.638,1.549V98.771a2.17,2.17,0,0,1-.638,1.549l-10.251,10.3A2.17,2.17,0,0,1,108.471,111.254Zm-14.533-38a.732.732,0,0,0-.5.228L83.186,83.736a.732.732,0,0,0-.228.5V98.771a.732.732,0,0,0,.228.5l10.251,10.251a.732.732,0,0,0,.5.228h14.533a.732.732,0,0,0,.5-.228l10.251-10.251a.732.732,0,0,0,.228-.5V84.238a.732.732,0,0,0-.228-.5L108.972,73.486a.732.732,0,0,0-.5-.228Z" transform="translate(-81.5 -71.8)" fill="#ffe5d4"/>
          </g>
          <path id="Trazado_720467" data-name="Trazado 720467" d="M127.254,99.587l-.273-.273a1.793,1.793,0,0,0-2.506.182l-1.686,1.913a.394.394,0,0,1-.683-.273h0a1.55,1.55,0,0,0-.046-.456V88.561A1.439,1.439,0,0,0,120.6,87.1h-.091a1.439,1.439,0,0,0-1.458,1.458v7.927a.359.359,0,0,1-.364.364h0a.359.359,0,0,1-.364-.364V87.012a1.419,1.419,0,0,0-1.412-1.412h-.182a1.419,1.419,0,0,0-1.412,1.412v9.476a.311.311,0,0,1-.319.319h0a.408.408,0,0,1-.41-.41V88.88a1.439,1.439,0,0,0-1.458-1.458h-.091a1.439,1.439,0,0,0-1.458,1.458v7.608a.359.359,0,0,1-.364.364h0a.359.359,0,0,1-.364-.364V90.475a1.439,1.439,0,0,0-1.458-1.458h-.137a1.439,1.439,0,0,0-1.458,1.458v16.4a4.258,4.258,0,0,0,4.237,4.237h5.74a4.152,4.152,0,0,0,3.554-1.959,5.368,5.368,0,0,1,.775-1l5.285-6.1A1.7,1.7,0,0,0,127.254,99.587Z" transform="translate(-93.586 -77.08)" fill="#ffe5d4"/>
        </g>
      </g>
    </g>
  </g>
</svg>
