<svg xmlns="http://www.w3.org/2000/svg" xmlns:xlink="http://www.w3.org/1999/xlink" width="420" height="399.439" viewBox="0 0 420 399.439">
  <defs>
    <linearGradient id="linear-gradient" x1="0.701" y1="-0.392" x2="-0.062" y2="2.923" gradientUnits="objectBoundingBox">
      <stop offset="0" stop-color="#ff9085"/>
      <stop offset="1" stop-color="#fb6fbb"/>
    </linearGradient>
    <clipPath id="clip-path">
      <path id="Trazado_721653" data-name="Trazado 721653" d="M1964.772,914.443c-1.392.128-2.728.27-3.935.384-3.764.369-12.031,2.656-14.873-1.094-4.7-6.194,7.23-16.691,10.242-21.407,3.722-5.838,8.325-12.33,9.063-19.419,1.136-10.782-6.251-25.356-15.356-30.982-12.572-7.77-30.129-2.486-41.408,5.142-16.351,11.037-27.857,29.249-32.517,48.27-5.029,20.5,1.9,41.721-.085,62.5-3.126,32.658-49.42-8.95-40.372,76.936,2,18.964,5.256,39.7,15.91,55.955,4.418,6.733,13.254,16.109,22.047,15.569,12.486-.767,11.918-18.424,15.8-26.578,4.532-9.532,12.43-17.061,21.195-22.686,11.166-7.16,24.106-13.566,28.538-27.089,2.884-8.779-1.449-17.828-7-24.661-3.054-3.764-9.574-8.068-8.594-13.623.81-4.6,7.273-7.983,10.639-10.412a272.211,272.211,0,0,0,29.675-24.348c8.268-7.941,22.274-19.987,21.138-32.9C1983.949,913.647,1973.224,913.7,1964.772,914.443Z" transform="translate(-1834.361 -838.104)"/>
    </clipPath>
    <linearGradient id="linear-gradient-2" x1="0.626" y1="-0.415" x2="0.119" y2="3.024" gradientUnits="objectBoundingBox">
      <stop offset="0.004" stop-color="#e38ddd"/>
      <stop offset="1" stop-color="#9571f6"/>
    </linearGradient>
    <clipPath id="clip-path-2">
      <path id="Trazado_721660" data-name="Trazado 721660" d="M2241.14,1380.153c-4.361-15.739-18.2-27.657-34.007-31.777-9.632-2.5-21.394-3.352-31.21-1.648-13.821,2.4-25.214,11.421-34.106,21.862-10.441,12.274-11.421,27.488-15.158,42.588-.738,2.969-5.553,19.277-9.219,9.717-5.1-13.325-16.464-10.981-16.478-10.981-8.894,1.847-15.74,8.367-19.021,16.592-8.793,21.961-6.066,50.486-4.219,73.5.88,10.825,2.216,21.592,3.821,32.331a6.857,6.857,0,0,0,11.989,3.438c1.819-2.116,3.722-4.063,5.484-5.781,16.933-16.478,43.426-18.907,65.8-19.9,13.055-.583,23.822-1.406,35.187-8.424,4.73-2.912,9.858-6.492,12.06-11.819,1.989-4.816,2.372-13.069-.611-17.544-3.722-5.583-11.975-5.227-16.891-9.333-7.941-6.634,12.828-11.265,17.018-12.6,6.677-2.145,11.094-7.472,16.095-12.074a58.774,58.774,0,0,0,10.185-11.776C2246.3,1413.067,2245.245,1394.97,2241.14,1380.153Z" transform="translate(-2075.821 -1345.839)"/>
    </clipPath>
    <linearGradient id="linear-gradient-3" y1="0.5" x2="1" y2="0.5" gradientUnits="objectBoundingBox">
      <stop offset="0.494" stop-color="#ebeff2"/>
      <stop offset="1" stop-color="#fff"/>
    </linearGradient>
    <linearGradient id="linear-gradient-4" x1="0" y1="0.5" x2="1" y2="0.5" xlink:href="#linear-gradient-3"/>
    <linearGradient id="linear-gradient-5" y1="0.5" x2="1" y2="0.5" gradientUnits="objectBoundingBox">
      <stop offset="0" stop-color="#ffc444"/>
      <stop offset="0.996" stop-color="#f36f56"/>
    </linearGradient>
    <linearGradient id="linear-gradient-6" x1="0.573" y1="-0.22" x2="0.288" y2="2.049" gradientUnits="objectBoundingBox">
      <stop offset="0" stop-color="#ffc444"/>
      <stop offset="0.592" stop-color="#f8924f"/>
      <stop offset="0.996" stop-color="#f36f56"/>
    </linearGradient>
    <linearGradient id="linear-gradient-7" x1="0.572" y1="-0.745" x2="0.393" y2="2.504" xlink:href="#linear-gradient-6"/>
    <linearGradient id="linear-gradient-8" x1="0.548" y1="-0.287" x2="0.486" y2="1.276" xlink:href="#linear-gradient-5"/>
    <linearGradient id="linear-gradient-9" x1="0" y1="0.5" x2="1" y2="0.5" xlink:href="#linear-gradient-5"/>
    <linearGradient id="linear-gradient-10" x1="1.087" y1="-0.027" x2="0.798" y2="0.192" gradientUnits="objectBoundingBox">
      <stop offset="0" stop-color="#aa80f9"/>
      <stop offset="0.996" stop-color="#6165d7"/>
    </linearGradient>
    <linearGradient id="linear-gradient-11" x1="0.201" y1="0.023" x2="1.194" y2="1.294" xlink:href="#linear-gradient-10"/>
    <linearGradient id="linear-gradient-12" x1="0.73" y1="0.758" x2="-0.115" y2="-0.571" xlink:href="#linear-gradient-10"/>
    <linearGradient id="linear-gradient-13" y1="0.5" x2="1" y2="0.5" gradientUnits="objectBoundingBox">
      <stop offset="0.004" stop-color="#26264f"/>
      <stop offset="1" stop-color="#444b8c"/>
    </linearGradient>
    <linearGradient id="linear-gradient-14" x1="0.688" y1="1.104" x2="0.376" y2="-0.135" xlink:href="#linear-gradient-10"/>
    <linearGradient id="linear-gradient-15" x1="0" y1="0.5" x2="1" y2="0.5" xlink:href="#linear-gradient-10"/>
    <linearGradient id="linear-gradient-16" x1="0.504" y1="1.151" x2="0.491" y2="-1.815" xlink:href="#linear-gradient-10"/>
    <linearGradient id="linear-gradient-17" x1="0.503" y1="1.273" x2="0.497" y2="0.374" gradientUnits="objectBoundingBox">
      <stop offset="0" stop-color="#ab316d"/>
      <stop offset="1" stop-color="#792d3d"/>
    </linearGradient>
    <linearGradient id="linear-gradient-18" x1="0.444" y1="0.849" x2="0.577" y2="-0.356" xlink:href="#linear-gradient-17"/>
    <linearGradient id="linear-gradient-19" x1="0.422" y1="1.319" x2="0.873" y2="-2.77" xlink:href="#linear-gradient-17"/>
    <linearGradient id="linear-gradient-20" x1="0.403" y1="1.533" x2="0.855" y2="-2.555" xlink:href="#linear-gradient-17"/>
    <linearGradient id="linear-gradient-21" x1="0.425" y1="0.686" x2="0.693" y2="-0.204" gradientUnits="objectBoundingBox">
      <stop offset="0" stop-color="#311944"/>
      <stop offset="1" stop-color="#6b3976"/>
    </linearGradient>
    <linearGradient id="linear-gradient-22" x1="0.463" y1="0.589" x2="0.756" y2="-0.579" xlink:href="#linear-gradient-21"/>
    <linearGradient id="linear-gradient-23" x1="0" y1="0.5" x2="1" y2="0.5" xlink:href="#linear-gradient-5"/>
    <linearGradient id="linear-gradient-24" x1="-0.003" y1="0.5" x2="0.999" y2="0.5" xlink:href="#linear-gradient-5"/>
    <linearGradient id="linear-gradient-25" x1="3.594" y1="0.5" x2="4.594" y2="0.5" xlink:href="#linear-gradient-5"/>
    <linearGradient id="linear-gradient-26" x1="30.91" y1="0.5" x2="31.911" y2="0.5" xlink:href="#linear-gradient-5"/>
    <linearGradient id="linear-gradient-27" x1="0.622" y1="3.822" x2="0.513" y2="0.609" gradientUnits="objectBoundingBox">
      <stop offset="0.004" stop-color="#6165d7"/>
      <stop offset="1" stop-color="#aa80f9"/>
    </linearGradient>
    <linearGradient id="linear-gradient-28" x1="-0.001" y1="0.501" x2="1" y2="0.501" xlink:href="#linear-gradient-13"/>
    <linearGradient id="linear-gradient-29" x1="-17.861" y1="0.501" x2="-16.86" y2="0.501" xlink:href="#linear-gradient-13"/>
    <linearGradient id="linear-gradient-30" x1="0.88" y1="-1.538" x2="-1.985" y2="12.824" xlink:href="#linear-gradient-10"/>
    <linearGradient id="linear-gradient-31" x1="0" y1="0.5" x2="0.999" y2="0.5" xlink:href="#linear-gradient-13"/>
    <linearGradient id="linear-gradient-32" x1="0.16" y1="-0.873" x2="0.811" y2="1.928" xlink:href="#linear-gradient-5"/>
    <linearGradient id="linear-gradient-33" x1="0.153" y1="0.104" x2="1.944" y2="2.224" xlink:href="#linear-gradient-5"/>
    <linearGradient id="linear-gradient-34" x1="0" y1="0.5" x2="1" y2="0.5" xlink:href="#linear-gradient-5"/>
    <linearGradient id="linear-gradient-35" x1="0.36" y1="-2.136" x2="0.658" y2="2.425" xlink:href="#linear-gradient-5"/>
    <linearGradient id="linear-gradient-36" x1="0" y1="0.5" x2="1" y2="0.5" xlink:href="#linear-gradient-13"/>
    <linearGradient id="linear-gradient-37" y1="0.5" x2="1" y2="0.5" gradientUnits="objectBoundingBox">
      <stop offset="0" stop-color="#fcb148"/>
      <stop offset="0.052" stop-color="#fdba46"/>
      <stop offset="0.142" stop-color="#ffc244"/>
      <stop offset="0.318" stop-color="#ffc444"/>
      <stop offset="0.485" stop-color="#fdb946"/>
      <stop offset="0.775" stop-color="#f99c4d"/>
      <stop offset="0.866" stop-color="#f8924f"/>
      <stop offset="1" stop-color="#f8924f"/>
    </linearGradient>
    <linearGradient id="linear-gradient-38" x1="0" y1="0.5" x2="1" y2="0.5" xlink:href="#linear-gradient-37"/>
  </defs>
  <g id="Illustration" transform="translate(-376.641 -440.146)">
    <g id="Grupo_1076215" data-name="Grupo 1076215" transform="translate(376.641 440.146)">
      <path id="Trazado_721646" data-name="Trazado 721646" d="M551.943,837.363c-104.2-15.768-188.874-114.282-173.489-223.776C391.58,520.2,473.445,447.541,571.618,440.679c7.1-.5,14.3-.654,21.564-.44a214.56,214.56,0,0,1,139.425,56.637C768.432,529.86,791.7,574,795.934,620.291,807.227,743.451,681.538,856.995,551.943,837.363Z" transform="translate(-376.642 -440.146)" fill="#f4f7fa"/>
      <g id="Grupo_1076173" data-name="Grupo 1076173" transform="translate(207.074 56.531)">
        <g id="Grupo_1076164" data-name="Grupo 1076164">
          <g id="Grupo_1076163" data-name="Grupo 1076163">
            <path id="Trazado_721647" data-name="Trazado 721647" d="M1964.772,914.443c-1.392.128-2.728.27-3.935.384-3.764.369-12.031,2.656-14.873-1.094-4.7-6.194,7.23-16.691,10.242-21.407,3.722-5.838,8.325-12.33,9.063-19.419,1.136-10.782-6.251-25.356-15.356-30.982-12.572-7.77-30.129-2.486-41.408,5.142-16.351,11.037-27.857,29.249-32.517,48.27-5.029,20.5,1.9,41.721-.085,62.5-3.126,32.658-49.42-8.95-40.372,76.936,2,18.964,5.256,39.7,15.91,55.955,4.418,6.733,13.254,16.109,22.047,15.569,12.486-.767,11.918-18.424,15.8-26.578,4.532-9.532,12.43-17.061,21.195-22.686,11.166-7.16,24.106-13.566,28.538-27.089,2.884-8.779-1.449-17.828-7-24.661-3.054-3.764-9.574-8.068-8.594-13.623.81-4.6,7.273-7.983,10.639-10.412a272.211,272.211,0,0,0,29.675-24.348c8.268-7.941,22.274-19.987,21.138-32.9C1983.949,913.647,1973.224,913.7,1964.772,914.443Z" transform="translate(-1834.361 -838.104)" fill="url(#linear-gradient)"/>
            <g id="Grupo_1076162" data-name="Grupo 1076162" opacity="0.8" clip-path="url(#clip-path)">
              <g id="Grupo_1076157" data-name="Grupo 1076157" transform="translate(32.83 -10.205)">
                <path id="Trazado_721648" data-name="Trazado 721648" d="M2096.528,1067.113a.706.706,0,0,1-.369-.113c-21.308-15.214-31.337-38.454-30.655-71.027.6-28.4,8.92-59.222,16.975-89.025,6.335-23.467,12.331-45.642,13.425-63.441a79.8,79.8,0,0,1,12.1-38.468,84.3,84.3,0,0,1,22.885-23.609,103.432,103.432,0,0,1,32.1-15.143.614.614,0,0,1,.752.469.635.635,0,0,1-.468.767,102.249,102.249,0,0,0-31.693,14.972c-14.632,10.328-32.473,29.292-34.419,61.083-1.094,17.927-7.1,40.159-13.466,63.7-15.84,58.654-33.809,125.12,13.2,158.688a.62.62,0,0,1,.142.88A.6.6,0,0,1,2096.528,1067.113Z" transform="translate(-2065.471 -766.268)" fill="#fff"/>
              </g>
              <g id="Grupo_1076158" data-name="Grupo 1076158" transform="translate(44.779 24.544)">
                <path id="Trazado_721649" data-name="Trazado 721649" d="M2169.191,1048.56a.97.97,0,0,1-.2-.028c-.171-.057-4.219-1.406-8.665-6.676-4.049-4.816-9.191-13.964-10.74-30.272a.647.647,0,0,1,.568-.7.656.656,0,0,1,.7.568c1.505,15.91,6.478,24.817,10.37,29.49,4.205,5.043,8.112,6.364,8.154,6.378a.65.65,0,0,1,.411.8A.609.609,0,0,1,2169.191,1048.56Z" transform="translate(-2149.585 -1010.885)" fill="#fff"/>
              </g>
              <g id="Grupo_1076159" data-name="Grupo 1076159" transform="translate(57.421 54.099)">
                <path id="Trazado_721650" data-name="Trazado 721650" d="M2239.211,1266.861a.621.621,0,0,1-.625-.568.645.645,0,0,1,.568-.7c.114-.014,10.98-1.179,25.215-7.458a111.124,111.124,0,0,0,46.763-38.923.639.639,0,0,1,.881-.171.653.653,0,0,1,.17.881,112.5,112.5,0,0,1-47.346,39.391c-14.418,6.35-25.442,7.529-25.556,7.543Z" transform="translate(-2238.584 -1218.937)" fill="#fff"/>
              </g>
              <g id="Grupo_1076160" data-name="Grupo 1076160" transform="translate(4.451 128.417)">
                <path id="Trazado_721651" data-name="Trazado 721651" d="M1896.435,1812.852a.576.576,0,0,1-.213-.042,48.857,48.857,0,0,1-19.546-14.5,47.922,47.922,0,0,1-9.986-21.606c-1.932-10.128-1.051-21.607,2.642-34.136a.629.629,0,0,1,1.208.355c-8.2,27.843-.682,45.017,7.074,54.534a48.55,48.55,0,0,0,19.021,14.163.638.638,0,0,1,.384.809A.623.623,0,0,1,1896.435,1812.852Z" transform="translate(-1865.694 -1742.111)" fill="#fff"/>
              </g>
              <g id="Grupo_1076161" data-name="Grupo 1076161" transform="translate(38.241 150.298)">
                <path id="Trazado_721652" data-name="Trazado 721652" d="M2104.2,1923.624a.629.629,0,0,1-.626-.554.638.638,0,0,1,.54-.711c.512-.071,50.784-6.9,63.114-25.924a.636.636,0,1,1,1.065.7c-5.327,8.21-17.728,15.171-36.876,20.683a211.152,211.152,0,0,1-27.133,5.81Z" transform="translate(-2103.566 -1896.142)" fill="#fff"/>
              </g>
            </g>
          </g>
        </g>
        <g id="Grupo_1076172" data-name="Grupo 1076172" transform="translate(34.3 72.125)">
          <g id="Grupo_1076171" data-name="Grupo 1076171">
            <path id="Trazado_721654" data-name="Trazado 721654" d="M2241.14,1380.153c-4.361-15.739-18.2-27.657-34.007-31.777-9.632-2.5-21.394-3.352-31.21-1.648-13.821,2.4-25.214,11.421-34.106,21.862-10.441,12.274-11.421,27.488-15.158,42.588-.738,2.969-5.553,19.277-9.219,9.717-5.1-13.325-16.464-10.981-16.478-10.981-8.894,1.847-15.74,8.367-19.021,16.592-8.793,21.961-6.066,50.486-4.219,73.5.88,10.825,2.216,21.592,3.821,32.331a6.857,6.857,0,0,0,11.989,3.438c1.819-2.116,3.722-4.063,5.484-5.781,16.933-16.478,43.426-18.907,65.8-19.9,13.055-.583,23.822-1.406,35.187-8.424,4.73-2.912,9.858-6.492,12.06-11.819,1.989-4.816,2.372-13.069-.611-17.544-3.722-5.583-11.975-5.227-16.891-9.333-7.941-6.634,12.828-11.265,17.018-12.6,6.677-2.145,11.094-7.472,16.095-12.074a58.774,58.774,0,0,0,10.185-11.776C2246.3,1413.067,2245.245,1394.97,2241.14,1380.153Z" transform="translate(-2075.821 -1345.839)" fill="url(#linear-gradient-2)"/>
            <g id="Grupo_1076170" data-name="Grupo 1076170" opacity="0.8" clip-path="url(#clip-path-2)">
              <g id="Grupo_1076165" data-name="Grupo 1076165" transform="translate(2.476 6.104)">
                <path id="Trazado_721655" data-name="Trazado 721655" d="M2093.883,1580.451a.611.611,0,0,1-.27-.057.621.621,0,0,1-.3-.838,923.491,923.491,0,0,1,50.1-90.119c17-26.677,33.383-48.511,48.7-64.89,19.206-20.555,36.806-32.573,52.3-35.726a.638.638,0,0,1,.256,1.25c-15.242,3.1-32.615,15-51.636,35.343-15.271,16.336-31.607,38.1-48.553,64.706a925.582,925.582,0,0,0-50.017,89.976A.645.645,0,0,1,2093.883,1580.451Z" transform="translate(-2093.251 -1388.808)" fill="#fff"/>
              </g>
              <g id="Grupo_1076166" data-name="Grupo 1076166" transform="translate(77.797 -0.633)">
                <path id="Trazado_721656" data-name="Trazado 721656" d="M2624.127,1413.025a.245.245,0,0,1-.1-.014.639.639,0,0,1-.526-.725c.1-.6,9.432-59.847.157-69.834a.633.633,0,1,1,.923-.866c9.688,10.441.554,68.441.156,70.9A.611.611,0,0,1,2624.127,1413.025Z" transform="translate(-2623.486 -1341.385)" fill="#fff"/>
              </g>
              <g id="Grupo_1076167" data-name="Grupo 1076167" transform="translate(111.06 29.422)">
                <path id="Trazado_721657" data-name="Trazado 721657" d="M2935.765,1563.877a.627.627,0,0,1-.34-.1c-24.845-15.526-76.539-7.415-77.05-7.33a.633.633,0,1,1-.2-1.25,217.692,217.692,0,0,1,29.334-2.23c14.874-.114,35.371,1.492,48.582,9.745a.627.627,0,0,1,.2.867A.6.6,0,0,1,2935.765,1563.877Z" transform="translate(-2857.642 -1552.962)" fill="#fff"/>
              </g>
              <g id="Grupo_1076168" data-name="Grupo 1076168" transform="translate(4.35 83.102)">
                <path id="Trazado_721658" data-name="Trazado 721658" d="M2126.055,2005.047a.485.485,0,0,1-.142-.014.636.636,0,0,1-.469-.767c6.776-29.306-18.651-72.021-18.907-72.462a.631.631,0,0,1,1.08-.653,183.088,183.088,0,0,1,12.131,25.357c5.157,13.31,10.527,32.445,6.919,48.042A.635.635,0,0,1,2126.055,2005.047Z" transform="translate(-2106.444 -1930.844)" fill="#fff"/>
              </g>
              <g id="Grupo_1076169" data-name="Grupo 1076169" transform="translate(44.355 101.004)">
                <path id="Trazado_721659" data-name="Trazado 721659" d="M2388.694,2076.706a.635.635,0,0,1-.2-1.235,473.646,473.646,0,0,1,50.656-12.969c25.542-5.015,60.557-9.234,82.291-.9a.638.638,0,1,1-.455,1.193c-21.449-8.239-56.209-4.034-81.581.952a466.869,466.869,0,0,0-50.513,12.942C2388.821,2076.693,2388.75,2076.706,2388.694,2076.706Z" transform="translate(-2388.064 -2056.872)" fill="#fff"/>
              </g>
            </g>
          </g>
        </g>
      </g>
      <g id="Grupo_1076186" data-name="Grupo 1076186" transform="translate(20.691 51.516)">
        <rect id="Rectángulo_376408" data-name="Rectángulo 376408" width="27.217" height="4.105" transform="translate(59.066 5.142)" fill="#fff"/>
        <rect id="Rectángulo_376409" data-name="Rectángulo 376409" width="21.052" height="4.105" transform="translate(9.248 5.142)" fill="#fff"/>
        <rect id="Rectángulo_376410" data-name="Rectángulo 376410" width="21.578" height="4.105" transform="translate(139.198 5.142)" fill="#d8dee8"/>
        <rect id="Rectángulo_376411" data-name="Rectángulo 376411" width="21.578" height="4.105" transform="translate(211.105 5.142)" fill="#fff"/>
        <g id="Grupo_1076174" data-name="Grupo 1076174" transform="translate(51.366)">
          <rect id="Rectángulo_376412" data-name="Rectángulo 376412" width="27.217" height="106.327" transform="translate(14.376 15.924)" fill="#d8dee8"/>
          <rect id="Rectángulo_376413" data-name="Rectángulo 376413" width="14.376" height="106.327" transform="translate(0 15.924)" fill="#97a6b7"/>
          <rect id="Rectángulo_376414" data-name="Rectángulo 376414" width="4.617" height="22.089" transform="translate(6.165)" fill="#97a6b7"/>
          <rect id="Rectángulo_376415" data-name="Rectángulo 376415" width="4.617" height="22.089" transform="translate(30.3)" fill="#d8dee8"/>
        </g>
        <g id="Grupo_1076175" data-name="Grupo 1076175" transform="translate(200.323)">
          <rect id="Rectángulo_376416" data-name="Rectángulo 376416" width="26.706" height="106.327" transform="translate(14.376 15.924)" fill="#d8dee8"/>
          <rect id="Rectángulo_376417" data-name="Rectángulo 376417" width="14.376" height="106.327" transform="translate(0 15.924)" fill="#97a6b7"/>
          <rect id="Rectángulo_376418" data-name="Rectángulo 376418" width="5.142" height="22.089" transform="translate(5.64)" fill="#97a6b7"/>
          <rect id="Rectángulo_376419" data-name="Rectángulo 376419" width="5.142" height="22.089" transform="translate(29.789)" fill="#d8dee8"/>
        </g>
        <g id="Grupo_1076176" data-name="Grupo 1076176" transform="translate(128.402)">
          <rect id="Rectángulo_376420" data-name="Rectángulo 376420" width="26.195" height="106.327" transform="translate(15.413 15.924)" fill="#d8dee8"/>
          <rect id="Rectángulo_376421" data-name="Rectángulo 376421" width="15.413" height="106.327" transform="translate(0 15.924)" fill="#97a6b7"/>
          <rect id="Rectángulo_376422" data-name="Rectángulo 376422" width="4.617" height="22.089" transform="translate(6.165)" fill="#97a6b7"/>
          <rect id="Rectángulo_376423" data-name="Rectángulo 376423" width="4.617" height="22.089" transform="translate(30.314)" fill="#d8dee8"/>
        </g>
        <g id="Grupo_1076177" data-name="Grupo 1076177" transform="translate(2.046)">
          <rect id="Rectángulo_376424" data-name="Rectángulo 376424" width="22.601" height="106.327" transform="translate(12.33 15.924)" fill="#d8dee8"/>
          <rect id="Rectángulo_376425" data-name="Rectángulo 376425" width="12.33" height="106.327" transform="translate(0 15.924)" fill="#97a6b7"/>
          <rect id="Rectángulo_376426" data-name="Rectángulo 376426" width="4.105" height="22.089" transform="translate(5.142)" fill="#97a6b7"/>
          <rect id="Rectángulo_376427" data-name="Rectángulo 376427" width="5.142" height="22.089" transform="translate(25.172)" fill="#d8dee8"/>
        </g>
        <path id="Trazado_721661" data-name="Trazado 721661" d="M605.528,1815.7l-65.728-5.98v-197.07l65.728-3.452Z" transform="translate(-537.314 -1494.649)" fill="#d8dee8"/>
        <path id="Trazado_721662" data-name="Trazado 721662" d="M584.036,1590.791l-61.736,2.117v-11.364l61.736-2.444Z" transform="translate(-522.3 -1468.824)" fill="#97a6b7"/>
        <path id="Trazado_721663" data-name="Trazado 721663" d="M584.036,2187.377l-61.736-.2v-11.364l61.736-.114Z" transform="translate(-522.3 -1980.676)" fill="#97a6b7"/>
        <path id="Trazado_721664" data-name="Trazado 721664" d="M1168.154,1801.149,988.4,1808.181V1600.3l179.754,3.466Z" transform="translate(-922.189 -1487.013)" fill="#fff"/>
        <path id="Trazado_721665" data-name="Trazado 721665" d="M1145.6,1585.944l-188.7-.214V1573.5l188.7.853Z" transform="translate(-895.164 -1464.02)" fill="#d8dee8"/>
        <path id="Trazado_721666" data-name="Trazado 721666" d="M1145.6,2161.723l-188.7,4.3V2154.28l188.7-3.679Z" transform="translate(-895.164 -1959.141)" fill="#d8dee8"/>
        <path id="Trazado_721667" data-name="Trazado 721667" d="M1145.6,2981.347,956.9,2991.7v-1.945l188.7-10.257Z" transform="translate(-895.164 -2670.293)" fill="#d8dee8"/>
        <g id="Grupo_1076181" data-name="Grupo 1076181" transform="translate(78.172 133.544)">
          <g id="Grupo_1076178" data-name="Grupo 1076178" transform="translate(0 0.27)">
            <path id="Trazado_721668" data-name="Trazado 721668" d="M1114.918,1796.308l-42.318.725V1744.9l42.318-.1Z" transform="translate(-1072.6 -1744.8)" fill="#d8dee8"/>
          </g>
          <g id="Grupo_1076179" data-name="Grupo 1076179" transform="translate(59.748 0.142)">
            <path id="Trazado_721669" data-name="Trazado 721669" d="M1534.026,1794.542l-40.826.7v-51.253l40.826-.085Z" transform="translate(-1493.2 -1743.9)" fill="#d8dee8"/>
          </g>
          <g id="Grupo_1076180" data-name="Grupo 1076180" transform="translate(117.506)">
            <path id="Trazado_721670" data-name="Trazado 721670" d="M1939.632,1792.719l-39.832.682v-50.415l39.832-.085Z" transform="translate(-1899.8 -1742.9)" fill="#d8dee8"/>
          </g>
        </g>
        <g id="Grupo_1076184" data-name="Grupo 1076184" transform="translate(78.172 237.84)">
          <g id="Grupo_1076182" data-name="Grupo 1076182" transform="translate(0 3.807)">
            <path id="Trazado_721671" data-name="Trazado 721671" d="M1114.918,2554.926l-42.318,2v-51.636l42.318-1.392Z" transform="translate(-1072.6 -2503.9)" fill="#d8dee8"/>
          </g>
          <g id="Grupo_1076183" data-name="Grupo 1076183" transform="translate(117.506)">
            <path id="Trazado_721672" data-name="Trazado 721672" d="M1939.632,2526.45l-39.832,1.889v-49.932l39.832-1.307Z" transform="translate(-1899.8 -2477.1)" fill="#d8dee8"/>
          </g>
        </g>
        <path id="Trazado_721673" data-name="Trazado 721673" d="M988.314,1663.1s36.2,4.872,51.778,28.951c15.456,23.865,50.315,13.878,80.686,20.128,29.845,6.137,47.616,20.712,47.616,20.712l-180.095,4.02V1663.1Z" transform="translate(-922.103 -1540.892)" fill="#97a6b7" opacity="0.1"/>
        <path id="Trazado_721674" data-name="Trazado 721674" d="M988.314,2530.5s36.2,3.637,51.778,27.189c15.456,23.34,50.315,12.175,80.686,17.374,29.845,5.114,47.616,19.092,47.616,19.092L988.3,2604.3v-73.8Z" transform="translate(-922.103 -2285.075)" fill="#97a6b7" opacity="0.1"/>
        <path id="Trazado_721675" data-name="Trazado 721675" d="M1534.026,2497.071l-40.826,2.1v-74.237l40.826-1.236Z" transform="translate(-1355.281 -2193.446)" fill="#e4e9f2"/>
        <path id="Trazado_721676" data-name="Trazado 721676" d="M1504.384,2386.1l-53.284,1.676V2377.22l53.284-1.52Z" transform="translate(-1319.161 -2152.264)" fill="#d8dee8"/>
        <g id="Grupo_1076185" data-name="Grupo 1076185" transform="translate(116.512 296.905)">
          <path id="Trazado_721677" data-name="Trazado 721677" d="M1479.328,2899.037l-63.228,3.252v-6.25l63.228-3.14Z" transform="translate(-1405.645 -2892.9)" fill="url(#linear-gradient-3)"/>
          <path id="Trazado_721678" data-name="Trazado 721678" d="M1443.183,2939.922,1367,2944v-6.264l76.183-3.936Z" transform="translate(-1363.52 -2927.99)" fill="#d8dee8"/>
          <path id="Trazado_721679" data-name="Trazado 721679" d="M1426.141,2981.523l-83.641,4.616v-6.265l83.641-4.474Z" transform="translate(-1342.5 -2963.681)" fill="url(#linear-gradient-4)"/>
        </g>
      </g>
      <g id="Grupo_1076188" data-name="Grupo 1076188" transform="translate(7.409 252.763)">
        <path id="Trazado_721680" data-name="Trazado 721680" d="M590.912,2959.866v5.91c0,1.519-.781,2.77-1.8,2.9l-92.207,8.353a6.58,6.58,0,0,1-2.046-.043c-.17-.027-.355-.071-.526-.113l-64.251-12.117a2.066,2.066,0,0,1-1.179-2.1v-6.25l68.171-8.452,8.779-4.149,8.722,1.25,5.157-.994,11.776,3.423Z" transform="translate(-428.886 -2840.91)" fill="url(#linear-gradient-5)"/>
        <path id="Trazado_721681" data-name="Trazado 721681" d="M989.257,2959.953v5.908c0,1.521-.781,2.771-1.8,2.9l-92.207,8.353a6.46,6.46,0,0,1-2.046-.042v-31.834l10.966-1.335,8.722,1.249,5.156-.994,11.776,3.423Z" transform="translate(-827.231 -2840.998)" opacity="0.3" fill="url(#linear-gradient-6)"/>
        <path id="Trazado_721682" data-name="Trazado 721682" d="M519.615,2945.8,428.8,2957.86l65.5,12.344a6.187,6.187,0,0,0,2.443.143l94.1-8.751Z" transform="translate(-428.8 -2842.627)" fill="url(#linear-gradient-7)"/>
        <g id="Grupo_1076187" data-name="Grupo 1076187" transform="translate(29.987)">
          <path id="Trazado_721683" data-name="Trazado 721683" d="M734.01,2333.655c0,4.319-13.609,7.685-32.4,8.566-4.745.213-9.816.284-15.072.156-25.868-.6-46.636-5.412-46.636-10.74a1.11,1.11,0,0,1,.043-.383H639.9l.114-.256a1.255,1.255,0,0,1,.1-.242l5.966-15.6,7.2-18.808,10.086-26.366,7.714-20.185,9.6-25.1c1.207-3.14,3.423-5.1,5.838-5.1a4.415,4.415,0,0,1,.966.1c2.031.441,3.85,2.273,4.887,5l9.688,25.271,7.727,20.456,10.2,26.891h0l7.33,19.319h0l.114.015,6.108,15.711A2.613,2.613,0,0,1,734.01,2333.655Z" transform="translate(-639.9 -2219.586)" fill="url(#linear-gradient-8)"/>
          <path id="Trazado_721684" data-name="Trazado 721684" d="M764.668,2780.042c-5.9,1.975-15.3,3.381-26.564,3.907-4.546.213-9.347.284-14.348.185-17.373-.327-32.445-2.571-40.457-5.611l7.216-18.822c8.438,1.9,20.2,3.182,33.269,3.381,4.219.057,8.339.014,12.259-.142a143.47,143.47,0,0,0,21.265-2.245l7.259,19.32h0Z" transform="translate(-677.135 -2682.963)" fill="#fff"/>
          <path id="Trazado_721685" data-name="Trazado 721685" d="M851.608,2452.826c-4.489.483-9.432.809-14.674.966q-4.219.128-8.651.085a203.01,203.01,0,0,1-23.183-1.492l7.713-20.186c4.83.384,10.029.6,15.47.625q2.876.022,5.668-.043c3.409-.056,6.7-.2,9.844-.412Z" transform="translate(-781.633 -2401.985)" fill="#fff"/>
          <path id="Trazado_721686" data-name="Trazado 721686" d="M701.608,2342.121c-4.745.213-9.816.284-15.072.156-25.868-.6-46.636-5.412-46.636-10.739a1.114,1.114,0,0,1,.043-.384H639.9l.114-.255a1.251,1.251,0,0,1,.1-.243l5.966-15.6,7.2-18.807,10.086-26.366,7.714-20.185,9.6-25.1c1.207-3.14,3.423-5.1,5.838-5.1a4.415,4.415,0,0,1,.966.1c1.023,6.393,2.784,17.543,4.73,30.684.98,6.62,1.989,13.736,3,21.009,1.293,9.39,2.543,19.05,3.594,28.184.867,7.486,1.605,14.632,2.131,21.009C701.679,2329.733,701.992,2337.362,701.608,2342.121Z" transform="translate(-639.9 -2219.5)" opacity="0.2" fill="url(#linear-gradient-9)"/>
        </g>
      </g>
      <g id="Grupo_1076190" data-name="Grupo 1076190" transform="translate(24.072 11)">
        <g id="Grupo_1076189" data-name="Grupo 1076189">
          <path id="Trazado_721687" data-name="Trazado 721687" d="M613.873,684.667a17.453,17.453,0,0,1-9.5-2.458,182.688,182.688,0,0,1-33.013-25.03c-14.632-14.262-23.041-28.751-24.874-43l-.029-.227-.355-60.742c0-12,7.827-21.748,22.53-28.155,12.146-5.284,28.24-7.912,45.244-7.415,16.805.483,32.36,3.949,43.88,9.731,13.68,6.889,20.867,16.549,20.867,27.984l-.327,58.043-.028.213c-1.676,13.637-9.418,27.729-23.084,41.977a190.3,190.3,0,0,1-31.862,26.1A18.191,18.191,0,0,1,613.873,684.667Z" transform="translate(-546.1 -517.581)" fill="url(#linear-gradient-10)"/>
          <path id="Trazado_721688" data-name="Trazado 721688" d="M642.693,684.667a17.054,17.054,0,0,1-9.376-2.458,181.34,181.34,0,0,1-32.587-25.03c-14.433-14.262-22.729-28.751-24.547-43l-.028-.227-.355-60.742c0-12,7.728-21.748,22.231-28.155,11.989-5.284,27.871-7.912,44.647-7.415,16.592.483,31.934,3.949,43.3,9.731,13.509,6.875,20.583,16.521,20.583,27.97l-.327,58.043-.028.213c-1.662,13.637-9.29,27.729-22.785,41.977a188.48,188.48,0,0,1-31.436,26.1A17.511,17.511,0,0,1,642.693,684.667Z" transform="translate(-571.581 -517.581)" fill="url(#linear-gradient-11)"/>
          <path id="Trazado_721689" data-name="Trazado 721689" d="M604.1,575.909l.355,60.429c3.977,30.84,40.215,55.8,56,65.288a13.935,13.935,0,0,0,14.788-.4c15.455-10.171,49.7-35.769,53.369-65.415l.327-57.873C728.936,535,604.1,531.077,604.1,575.909Z" transform="translate(-595.861 -540.223)" fill="url(#linear-gradient-12)"/>
          <path id="Trazado_721690" data-name="Trazado 721690" d="M740.193,760.438a2.205,2.205,0,0,1-1.165-.312,171.879,171.879,0,0,1-30.058-22.942c-11.833-11.634-18.666-22.927-20.228-33.553L688.4,644.2c.014-5.7,4.531-10.583,13.381-14.49,9.873-4.361,23.908-6.648,38.425-6.307,14.376.341,28,3.239,37.431,7.912,8.353,4.148,12.572,9.02,12.572,14.532l-.327,57.375c-1.463,10.271-7.87,21.35-19.12,33-10.583,10.952-22.942,19.632-29.391,23.851A2.267,2.267,0,0,1,740.193,760.438Z" transform="translate(-668.186 -608.338)" fill="url(#linear-gradient-13)"/>
          <path id="Trazado_721691" data-name="Trazado 721691" d="M753.729,779.133a166.808,166.808,0,0,1-28.411-21.862c-11.123-10.952-17.558-21.45-19.078-31.181L705.9,667c.014-4.077,3.764-7.813,11.109-11.066,9.361-4.148,22.771-6.321,36.721-6.009,13.822.313,26.862,3.04,35.811,7.472,6.961,3.438,10.484,7.2,10.484,11.18l-.327,57.162c-1.421,9.432-7.486,19.746-18.112,30.712A172.442,172.442,0,0,1,753.729,779.133Z" transform="translate(-683.2 -631.096)" fill="url(#linear-gradient-14)"/>
        </g>
        <path id="Trazado_721692" data-name="Trazado 721692" d="M881.343,912.973a5.95,5.95,0,0,1-5.043-2.628l-16.308-25.371c-1.421-2.2-.653-5.4,1.719-7.2,2.429-1.847,5.668-1.577,7.188.667l12,17.615,17.913-33.709a9.281,9.281,0,0,1,9.6-4.546c3.693.81,5.2,4.29,3.281,7.7l-24.888,44.377a6.264,6.264,0,0,1-5.256,3.083A1.066,1.066,0,0,1,881.343,912.973Z" transform="translate(-814.792 -809.328)" fill="#fff"/>
      </g>
      <g id="Grupo_1076210" data-name="Grupo 1076210" transform="translate(92.932 81.972)">
        <g id="Grupo_1076192" data-name="Grupo 1076192" transform="translate(0 16.914)">
          <path id="Trazado_721693" data-name="Trazado 721693" d="M1034.008,2227.729c-9.191-23.95,3.779-63.2,11.961-81,23.837-51.849,67.632-53.611,103.528-55.045,35.272-1.406,69.308-2.77,94.224,37,16.28,25.981,31.238,73.655,21.265,99.04-10.5,26.706-39.647,6.009-108.983,5.639C1079.763,2232.971,1045.486,2257.631,1034.008,2227.729Z" transform="translate(-1030.847 -1955.522)" fill="url(#linear-gradient-15)"/>
          <path id="Trazado_721694" data-name="Trazado 721694" d="M1670.4,2107.463c0,6.534-15.938,14.362-35.6,14.362s-35.6-7.842-35.6-14.362c0-6.535,15.939-3.608,35.6-3.608S1670.4,2100.942,1670.4,2107.463Z" transform="translate(-1518.464 -1965.846)" fill="url(#linear-gradient-16)"/>
          <path id="Trazado_721695" data-name="Trazado 721695" d="M1671.707,1812.6c-5.412,0,7.088,38.042-12.6,43.27a2.169,2.169,0,0,0-.483,4.006c5.285,2.869,15.185,6.492,31.408,6.492a40.094,40.094,0,0,0,22.259-6.662,2.167,2.167,0,0,0-.227-3.722c-6.066-3.125-14.49-13.069-11.975-42.389Z" transform="translate(-1568.47 -1716.525)" fill="url(#linear-gradient-17)"/>
          <path id="Trazado_721696" data-name="Trazado 721696" d="M1641.8,1360.543c.085.483,1.719,35.2,9.659,52.545,2.273,4.972,13.58,4.375,20.9,3.779,6.35-.525,16.307,1.8,19.106-2.585,11.279-17.629,9.361-61.3,9.361-61.3s-5.781-14.532-29.462-14.134S1641.8,1360.543,1641.8,1360.543Z" transform="translate(-1555.012 -1310.068)" fill="url(#linear-gradient-18)"/>
          <path id="Trazado_721697" data-name="Trazado 721697" d="M1592.815,1583.31s-4.958-5.753-9.617-6.52-7.713,11.321-1.335,19.192,13.736,1.349,13.736,1.349Z" transform="translate(-1500.473 -1514.183)" fill="url(#linear-gradient-19)"/>
          <path id="Trazado_721698" data-name="Trazado 721698" d="M2003.884,1583.31s4.958-5.753,9.617-6.52,7.713,11.321,1.335,19.192-13.736,1.349-13.736,1.349Z" transform="translate(-1863.273 -1514.183)" fill="url(#linear-gradient-20)"/>
          <path id="Trazado_721699" data-name="Trazado 721699" d="M1589.851,1204.958c.625,1.151,1.336,2.216,1.818,2.088,2-.525-5.724-20.03,1.392-26.862,3.679-3.537,7.828-.313,22.885-.994,15.171-.682,19.049-4.319,23.637-1.534,4.176,2.529,7.913,9.759,4.816,31.195.867-.2,1.719-.4,2.585-.6-1.165-7.017.1-11.449,1.563-14.233,1.051-2.031,2.969-4.659,2.827-8.452-.086-2.344-.867-2.458-.995-4.375-.37-5.64,6.066-7.16,6.378-12.728.241-4.29-3.466-5.27-2.784-9.745.583-3.821,3.466-4.532,3.011-7.287-.5-2.969-4.361-5.185-7.088-5.952-2.77-.781-3.779.085-5.4-1.037-2.628-1.818-1.364-5.029-3.267-6.222-3.381-2.13-10.1,6.364-14.446,4.248-2.628-1.279-1.62-5.1-3.949-6.023-4.5-1.79-12.444,10.81-15.641,9.134-1.534-.8-.057-3.864-2.2-6.137-2.514-2.656-8.565-2.642-11.336.156-2.571,2.614-.383,5.739-3.111,9.063-2.443,2.983-5.27,1.747-8.026,4.134-4.688,4.049-3.054,13.225-2.472,16.507,2,11.279,8.24,13.552,6.848,21.237-.356,1.96-1.194,4.148-.6,7.358A15.108,15.108,0,0,0,1589.851,1204.958Z" transform="translate(-1501.387 -1136.271)" fill="url(#linear-gradient-21)"/>
          <g id="Grupo_1076191" data-name="Grupo 1076191" transform="translate(77.924 17.221)" opacity="0.3">
            <path id="Trazado_721700" data-name="Trazado 721700" d="M1647.587,1284.618c-.554-5.54,3.736-8.126,3.026-12.075-.582-3.182-4.176-6.037-7.543-6.648-7.2-1.307-11.862,9.3-19.021,8.154-5.54-.9-4.915-7.572-11.165-10.271-9.9-4.262-20.285,8.737-26.862,5.128-1.974-1.079-3.977-3.864-4.12-11.407-3.778,4.333-2.3,12.686-1.747,15.768,2,11.279,8.253,13.552,6.847,21.237-.355,1.96-1.194,4.148-.6,7.358a15.106,15.106,0,0,0,3.552,7.074c.625,1.151,1.335,2.216,1.818,2.088,2-.526-5.725-20.03,1.392-26.862,3.679-3.537,7.827-.312,22.885-.994,15.171-.682,19.049-4.319,23.638-1.534,4.176,2.528,7.912,9.759,4.816,31.195.867-.2,1.719-.4,2.585-.6-1.164-7.017.1-11.45,1.563-14.234.44-.838,1.022-1.776,1.534-2.855a25.839,25.839,0,0,0-1.079-6.009C1648.325,1286.649,1647.757,1286.408,1647.587,1284.618Z" transform="translate(-1579.402 -1257.5)" fill="url(#linear-gradient-22)"/>
          </g>
        </g>
        <g id="Grupo_1076195" data-name="Grupo 1076195" transform="translate(41.743 152.406)">
          <g id="Grupo_1076193" data-name="Grupo 1076193">
            <path id="Trazado_721701" data-name="Trazado 721701" d="M1402.3,2167.674V2241.6h-70.316a5.587,5.587,0,0,1-5.583-5.511l-.582-44.136-1.122-85.2a2.88,2.88,0,0,1,1.548-2.585l3.765-1.932,4.02-2.074,26.493-9.816a4.177,4.177,0,0,1,5.185,2.06l36.01,72.788A5.649,5.649,0,0,1,1402.3,2167.674Z" transform="translate(-1324.698 -2090.082)" fill="url(#linear-gradient-23)"/>
            <path id="Trazado_721702" data-name="Trazado 721702" d="M1331.532,2255.151a7.924,7.924,0,0,1-1.591,4.915l-4.02,5.355-1.122-85.2a2.881,2.881,0,0,1,1.548-2.586l3.764-1.932Z" transform="translate(-1324.784 -2163.538)" opacity="0.7" fill="url(#linear-gradient-24)"/>
            <rect id="Rectángulo_376428" data-name="Rectángulo 376428" width="76.013" height="19.518" transform="translate(1.577 103.247)" fill="#fff"/>
            <path id="Trazado_721703" data-name="Trazado 721703" d="M1604.026,2165.278l-36.01-72.788a4.167,4.167,0,0,0-5.185-2.06l-2.329.866a4.245,4.245,0,0,1,.895,1.208l35.982,72.787a5.524,5.524,0,0,1,.554,2.472v73.924h6.676v-73.924A5.562,5.562,0,0,0,1604.026,2165.278Z" transform="translate(-1527.004 -2090.157)" fill="#e4e9f2"/>
          </g>
          <g id="Grupo_1076194" data-name="Grupo 1076194" transform="translate(77.604)">
            <path id="Trazado_721704" data-name="Trazado 721704" d="M1871,2167.674V2241.6h70.359a5.588,5.588,0,0,0,5.583-5.511l.582-44.136,1.122-85.2a2.88,2.88,0,0,0-1.548-2.585l-3.764-1.932-4.02-2.074-26.493-9.816a4.177,4.177,0,0,0-5.185,2.06l-36.039,72.788A5.668,5.668,0,0,0,1871,2167.674Z" transform="translate(-1871 -2090.082)" fill="url(#linear-gradient-25)"/>
            <path id="Trazado_721705" data-name="Trazado 721705" d="M2370.094,2255.151a7.933,7.933,0,0,0,1.591,4.915l4.021,5.355,1.122-85.2a2.881,2.881,0,0,0-1.548-2.586l-3.764-1.932Z" transform="translate(-2299.195 -2163.538)" opacity="0.7" fill="url(#linear-gradient-26)"/>
            <rect id="Rectángulo_376429" data-name="Rectángulo 376429" width="76.538" height="19.518" transform="translate(0 103.247)" fill="#fff"/>
            <path id="Trazado_721706" data-name="Trazado 721706" d="M1871.6,2165.278l36.025-72.788a4.184,4.184,0,0,1,5.2-2.06l2.33.866a4.24,4.24,0,0,0-.895,1.208l-36.01,72.774a5.525,5.525,0,0,0-.568,2.472v73.924H1871v-73.924A5.561,5.561,0,0,1,1871.6,2165.278Z" transform="translate(-1871 -2090.157)" fill="#d5dae0"/>
          </g>
        </g>
        <g id="Grupo_1076196" data-name="Grupo 1076196" transform="translate(90.592 102.588)">
          <path id="Trazado_721707" data-name="Trazado 721707" d="M1669.537,1739.584a.393.393,0,0,0-.526-.156l-.227.128a.393.393,0,0,0-.156.526l6.662,12.458a.394.394,0,0,0,.526.157l.227-.128a.393.393,0,0,0,.156-.526Z" transform="translate(-1668.583 -1739.383)" fill="#fff"/>
          <path id="Trazado_721708" data-name="Trazado 721708" d="M1994.244,1739.556l-.227-.128a.394.394,0,0,0-.526.156l-6.663,12.458a.393.393,0,0,0,.157.525l.227.128a.394.394,0,0,0,.526-.156l6.662-12.458A.367.367,0,0,0,1994.244,1739.556Z" transform="translate(-1941.582 -1739.383)" fill="#fff"/>
        </g>
        <g id="Grupo_1076203" data-name="Grupo 1076203" transform="translate(86.913 83.078)">
          <g id="Grupo_1076199" data-name="Grupo 1076199" transform="translate(6.608 11.064)">
            <path id="Trazado_721709" data-name="Trazado 721709" d="M1735.978,1688.031c0,.27-.014.54-.014.81a20.469,20.469,0,0,1-2.344,10.171c-1.932,4.432-4.816,7.884-7.714,9.276-.043.015-.085.043-.128.057-.241.114-.483.2-.711.284-.185.128-.284.185-.284.185s-.213.014-.583.043a120.045,120.045,0,0,1-23.325,0c-.369-.029-.582-.043-.582-.043s-.114-.071-.285-.185c-.17-.057-.326-.114-.5-.185-.114-.043-.227-.1-.341-.142-2.912-1.392-5.682-4.844-7.6-9.276a17.054,17.054,0,0,1-2.23-10.171v-.1a1.416,1.416,0,0,0-.085-.412,1.1,1.1,0,0,1-.057-.3,24.35,24.35,0,0,1,.142-3.225,1.692,1.692,0,0,1,1.051-1.364,71.741,71.741,0,0,1,44.321,0,1.725,1.725,0,0,1,1.079,1.364,23.371,23.371,0,0,1,.185,2.983Z" transform="translate(-1689.2 -1679.923)" fill="#fff"/>
            <path id="Trazado_721710" data-name="Trazado 721710" d="M1735.978,1711.642c0,.27-.014.54-.014.809a20.47,20.47,0,0,1-2.344,10.171c-1.932,4.432-4.816,7.884-7.714,9.276-.043.014-.085.043-.128.057-5.71.469-19.063.27-26.266.1-.114-.042-.227-.1-.341-.142-2.912-1.392-5.682-4.844-7.6-9.276a17.052,17.052,0,0,1-2.23-10.171v-.1c0-.114-.114-.227-.1-.341l-.043-.014.057-.057a5.918,5.918,0,0,1,2.742-1.648c4.972-1.378,24.107-5.881,42.147.355l1.819.738A1.306,1.306,0,0,1,1735.978,1711.642Z" transform="translate(-1689.2 -1703.534)" opacity="0.3" fill="url(#linear-gradient-27)"/>
            <g id="Grupo_1076197" data-name="Grupo 1076197" transform="translate(1.458 12.578)">
              <path id="Trazado_721711" data-name="Trazado 721711" d="M1719.046,1770.488c-12.856,0-19.263-1.406-19.348-1.435a.313.313,0,0,1-.227-.355.306.306,0,0,1,.354-.227c.142.029,14.462,3.182,43.44,0a.293.293,0,0,1,.072.583A220.752,220.752,0,0,1,1719.046,1770.488Z" transform="translate(-1699.467 -1768.466)" fill="#fff"/>
            </g>
            <g id="Grupo_1076198" data-name="Grupo 1076198" transform="translate(6.495 20.207)">
              <path id="Trazado_721712" data-name="Trazado 721712" d="M1750.716,1824.191c-10.342,0-15.5-1.421-15.583-1.435a.3.3,0,0,1-.2-.369.294.294,0,0,1,.37-.2c.114.029,11.606,3.168,34.86-.014a.293.293,0,0,1,.071.582A142.847,142.847,0,0,1,1750.716,1824.191Z" transform="translate(-1734.923 -1822.17)" fill="#fff"/>
            </g>
          </g>
          <g id="Grupo_1076202" data-name="Grupo 1076202">
            <g id="Grupo_1076200" data-name="Grupo 1076200" transform="translate(0 0.333)">
              <path id="Trazado_721713" data-name="Trazado 721713" d="M1651.193,1619.6a.615.615,0,0,1-.512-.3l-7.927-14.049a.585.585,0,1,1,1.022-.569l7.927,14.049a.583.583,0,0,1-.227.8A.644.644,0,0,1,1651.193,1619.6Z" transform="translate(-1642.681 -1604.381)" fill="#fff"/>
            </g>
            <g id="Grupo_1076201" data-name="Grupo 1076201" transform="translate(51.701)">
              <path id="Trazado_721714" data-name="Trazado 721714" d="M2007.227,1619.048a.308.308,0,0,1-.114-.015.6.6,0,0,1-.468-.7l3.125-15.825a.594.594,0,0,1,1.165.227l-3.125,15.824A.6.6,0,0,1,2007.227,1619.048Z" transform="translate(-2006.636 -1602.035)" fill="#fff"/>
            </g>
          </g>
        </g>
        <g id="Grupo_1076208" data-name="Grupo 1076208" transform="translate(83.393 74.15)">
          <g id="Grupo_1076204" data-name="Grupo 1076204" transform="translate(0 4.803)">
            <path id="Trazado_721715" data-name="Trazado 721715" d="M1618.993,1573c-.867,0-1.094.682-1.094,1.549v2.372c0,.867.227,1.208,1.094,1.208h2.5V1573Z" transform="translate(-1617.9 -1573)" fill="url(#linear-gradient-28)"/>
            <path id="Trazado_721716" data-name="Trazado 721716" d="M2050.628,1573a1.559,1.559,0,0,1,1.578,1.549v2.372c0,.867-.71,1.208-1.578,1.208H2048.1V1573Z" transform="translate(-1986.989 -1573)" fill="url(#linear-gradient-29)"/>
          </g>
          <g id="Grupo_1076207" data-name="Grupo 1076207" transform="translate(3.097)">
            <g id="Grupo_1076205" data-name="Grupo 1076205" transform="translate(0.497 0.637)">
              <path id="Trazado_721717" data-name="Trazado 721717" d="M1701.329,1546.345v7.287a8.669,8.669,0,0,1-7.728,8.566l-6.833.767a10.83,10.83,0,0,1-9.333-3.352l-3.821-4.048h-2.458l-3.807,4.048a10.9,10.9,0,0,1-9.333,3.452l-6.946-.81a8.765,8.765,0,0,1-7.77-8.608v-7.287a2.891,2.891,0,0,1,3-2.685l26.067,1.108,26.053-1.108a2.79,2.79,0,0,1,2.046.738A2.724,2.724,0,0,1,1701.329,1546.345Z" transform="translate(-1643.286 -1543.67)" fill="url(#linear-gradient-30)"/>
              <path id="Trazado_721718" data-name="Trazado 721718" d="M1697.748,1578.522a8.579,8.579,0,0,1-4.261,1.7l-6.833.767a10.826,10.826,0,0,1-9.333-3.352l-3.807-4.049h-2.458l-3.807,4.049a10.9,10.9,0,0,1-9.333,3.452l-6.946-.81a8.764,8.764,0,0,1-7.77-8.608V1564.7c2.571,1.832,6.548,3.4,12.6,3.637C1670.63,1568.905,1690.617,1562.144,1697.748,1578.522Z" transform="translate(-1643.2 -1561.713)" fill="#fff" opacity="0.5"/>
            </g>
            <g id="Grupo_1076206" data-name="Grupo 1076206">
              <path id="Trazado_721719" data-name="Trazado 721719" d="M1682.941,1559.942a11.122,11.122,0,0,1-8.452-3.579l-3.622-3.637h-1.947l-3.707,3.665a11.073,11.073,0,0,1-8.381,3.452,13.62,13.62,0,0,1-1.52-.1l-7.047-.781a9.562,9.562,0,0,1-8.566-9.177V1542.5a3.559,3.559,0,0,1,1.378-2.387,4.1,4.1,0,0,1,2.756-.923l26.024,1.108,26.067-1.108a2.844,2.844,0,0,1,2.855,3.3v7.316a9.014,9.014,0,0,1-7.9,9.248l-6.506.838C1683.879,1559.914,1683.41,1559.942,1682.941,1559.942Zm-14.532-8.239h2.969l3.992,3.935a9.921,9.921,0,0,0,7.557,3.182c.413,0,.839-.071,1.265-.114l6.605-.867a7.906,7.906,0,0,0,6.919-8.054V1542.5a1.933,1.933,0,0,0-.441-1.506,1.858,1.858,0,0,0-1.335-.583h-.114l-25.981,1.108-26.152-1.108a2.521,2.521,0,0,0-1.634.583c-.768.738-.838,1.221-.838,1.506v7.287a8.179,8.179,0,0,0,7.33,7.955l6.932.768a11.261,11.261,0,0,0,1.364.085,9.764,9.764,0,0,0,7.487-2.926Z" transform="translate(-1639.7 -1539.186)" fill="url(#linear-gradient-31)"/>
            </g>
          </g>
        </g>
        <g id="Grupo_1076209" data-name="Grupo 1076209" transform="translate(71.418)">
          <path id="Trazado_721720" data-name="Trazado 721720" d="M1636.6,1053.6h-59.108a11.3,11.3,0,0,0-11.293,11.293v39.9h81.695v-39.9A11.3,11.3,0,0,0,1636.6,1053.6Z" transform="translate(-1561.569 -1048.429)" fill="url(#linear-gradient-32)"/>
          <path id="Trazado_721721" data-name="Trazado 721721" d="M1796.529,1073.567H1773.8v-54.335a2.031,2.031,0,0,1,2.031-2.031H1794.5a2.031,2.031,0,0,1,2.032,2.031Z" transform="translate(-1739.679 -1017.2)" fill="url(#linear-gradient-33)"/>
          <path id="Trazado_721722" data-name="Trazado 721722" d="M1623.207,1419.687h-88.244a1.364,1.364,0,0,1-1.364-1.364v-7.159a1.364,1.364,0,0,1,1.364-1.364h88.244a1.364,1.364,0,0,1,1.364,1.364v7.159A1.364,1.364,0,0,1,1623.207,1419.687Z" transform="translate(-1533.6 -1354.03)" fill="url(#linear-gradient-34)"/>
          <path id="Trazado_721723" data-name="Trazado 721723" d="M1574.9,1475.3c1.719,7.814,18.794,13.936,39.619,13.936s37.9-6.137,39.6-13.936Z" transform="translate(-1569.033 -1410.225)" fill="url(#linear-gradient-35)"/>
        </g>
      </g>
      <g id="Grupo_1076214" data-name="Grupo 1076214" transform="translate(233.465 229.793)">
        <g id="Grupo_1076212" data-name="Grupo 1076212">
          <g id="Grupo_1076211" data-name="Grupo 1076211">
            <path id="Trazado_721724" data-name="Trazado 721724" d="M2031.82,2216.985a11.585,11.585,0,0,1-10.114-17.4l78.513-135.959a11.687,11.687,0,0,1,20.229.014l78.513,135.988A11.571,11.571,0,0,1,2188.845,2217H2031.82Z" transform="translate(-2020.15 -2057.8)" fill="url(#linear-gradient-36)"/>
            <path id="Trazado_721725" data-name="Trazado 721725" d="M2225.134,2239.631a6.754,6.754,0,0,1-5.725,3.452H2062.384a6.8,6.8,0,0,1-5.726-10.143l78.514-136.016a6.592,6.592,0,0,1,4.461-3.2,6.232,6.232,0,0,1,1.264-.128,6.6,6.6,0,0,1,5.725,3.3l78.512,136.059A6.743,6.743,0,0,1,2225.134,2239.631Z" transform="translate(-2050.714 -2088.515)" fill="url(#linear-gradient-37)"/>
            <path id="Trazado_721726" data-name="Trazado 721726" d="M2137.318,2227.973c-16.805,6.976-28.112,10.754-35.172,15.882h-39.661a6.8,6.8,0,0,1-5.725-10.142l78.513-136.015a6.588,6.588,0,0,1,4.46-3.2c-6.889,13.58-16.364,41.72,7.145,64.293C2179.138,2189.775,2175.231,2212.234,2137.318,2227.973Z" transform="translate(-2050.8 -2089.287)" opacity="0.3" fill="url(#linear-gradient-38)"/>
          </g>
        </g>
        <g id="Grupo_1076213" data-name="Grupo 1076213" transform="translate(80.438 48.602)">
          <path id="Trazado_721727" data-name="Trazado 721727" d="M2600.693,2455.221l-6.847-.17a3.785,3.785,0,0,1-3.58-3.594l-2.5-48.2a3.111,3.111,0,0,1,.995-2.486,3.339,3.339,0,0,1,2.613-.824l11.777.824a3.649,3.649,0,0,1,2.557,1.137,3.6,3.6,0,0,1,.952,2.628l-2.444,47.318A3.5,3.5,0,0,1,2600.693,2455.221Z" transform="translate(-2587.567 -2399.939)" fill="#fff"/>
          <path id="Trazado_721728" data-name="Trazado 721728" d="M2588.971,2857.662c1.705-1.634,4.106-2.415,7.2-2.373q4.773.085,7.259,2.515t2.472,7.116a9.309,9.309,0,0,1-2.528,6.989c-1.69,1.663-4.091,2.486-7.2,2.486a9.706,9.706,0,0,1-7.174-2.571,9.5,9.5,0,0,1-2.6-7.06Q2586.4,2860.12,2588.971,2857.662Z" transform="translate(-2586.4 -2790.604)" fill="#fff"/>
        </g>
      </g>
    </g>
  </g>
</svg>
