<svg xmlns="http://www.w3.org/2000/svg" width="124.181" height="124" viewBox="0 0 124.181 124">
  <g id="Grupo_1079627" data-name="Grupo 1079627" transform="translate(-895.82 -3662.296)">
    <g id="Grupo_159183" data-name="Grupo 159183" transform="translate(896.001 3662.296)">
      <path id="Unión_12" data-name="Unión 12" d="M62,0A62,62,0,1,1,0,62,62,62,0,0,1,62,0Z" fill="#01d8d1"/>
    </g>
    <g id="Grupo_1017822" data-name="Grupo 1017822" transform="translate(503.486 139.237)">
      <path id="Trazado_720216" data-name="Trazado 720216" d="M266.2,252.428s-23.921-23.942-9.066-38.257,26.6,4.269,34.717,2.9c10.278-1.733,14.723-27.809,30.088-27.834,17.482-.028,30.314,10.307,23.479,34.919-5.041,18.153,29.611,3.288,24.521,28.625Z" transform="translate(140.06 3360.253)" fill="#ebf2f9"/>
      <path id="Trazado_720217" data-name="Trazado 720217" d="M890.275,1175.448c-3.252-.523-5.707.616-8.068.288-1.882-.261-2.864-2.166-5.393-2.705a10.514,10.514,0,0,0,1.638-1.122c.651-.627,1.586-1.881,0-1.931-1.141-.035-2.03,1.865-2.439,2.935a7.8,7.8,0,0,0-1.222,0c.522-1.683,1.541-4.941,1.79-5.566.339-.852-1.085-3.691-2.763-.5-1.177,2.235-.378,4.818.2,6.161a9.387,9.387,0,0,0-1.308.311c-1.387-3.163-5.8-12.183-10.58-11.062-5.213,1.222,5.955,7.285,8.772,11.781-2.3,1.067-4.323,2.362-7.818,1.416-9.288-2.515-10.025,3.143-10.025,3.143l41.507.014A5.619,5.619,0,0,0,890.275,1175.448Z" transform="translate(-431.838 2434.122)" fill="#acd29a"/>
      <g id="Grupo_1017813" data-name="Grupo 1017813" transform="translate(435.069 3551.121)">
        <path id="Trazado_720218" data-name="Trazado 720218" d="M1381.515,955.98c.043.4.608.385,1.247.289s.474.072,1.372.055,1.2-.325,1.237-.454-.4-.2-.867-.294l-.176-.038a3.861,3.861,0,0,1-1.342-.82c-.433-.309-.726-1.724-.726-1.724l-1.277-.008s.4,1.28.61,1.725a1.5,1.5,0,0,1-.049.85A1.554,1.554,0,0,0,1381.515,955.98Z" transform="translate(-1369.438 -917.89)" fill="#ffb07b"/>
        <path id="Trazado_720219" data-name="Trazado 720219" d="M1393.193,1007.239c.639-.1.474.072,1.372.055s1.2-.324,1.237-.454-.4-.2-.867-.294l-.005.009a2.515,2.515,0,0,1-1.309.28c-.6-.04-1.228-.271-1.646-.3a1.588,1.588,0,0,0-.028.418C1391.99,1007.349,1392.555,1007.335,1393.193,1007.239Z" transform="translate(-1379.87 -968.86)" fill="#365da4"/>
        <path id="Trazado_720220" data-name="Trazado 720220" d="M1184.421,947.881c.028.4.593.408,1.235.336s.471.09,1.369.107,1.209-.279,1.253-.407-.393-.212-.855-.326l-.175-.044a3.861,3.861,0,0,1-1.31-.87c-.422-.325-.075-1.673-.075-1.673l-.969-.458s-.133,1.389-.2,2.092a8.123,8.123,0,0,1-.224.827A1.579,1.579,0,0,0,1184.421,947.881Z" transform="translate(-1182.326 -909.854)" fill="#ffb07b"/>
        <path id="Trazado_720221" data-name="Trazado 720221" d="M1185.656,1006c.642-.072.47.09,1.369.106s1.209-.279,1.253-.407-.393-.212-.855-.326l-.006.008a2.516,2.516,0,0,1-1.319.23c-.6-.063-1.217-.318-1.633-.365a1.566,1.566,0,0,0-.045.417C1184.449,1006.064,1185.014,1006.071,1185.656,1006Z" transform="translate(-1182.327 -967.637)" fill="#365da4"/>
        <path id="Trazado_720222" data-name="Trazado 720222" d="M1189.852,586.287a70.788,70.788,0,0,0-.537,7.89,21.277,21.277,0,0,0-.86,2.712c-.362,1.492-.617,7.718-.617,7.718a.752.752,0,0,0,.582.234,1.265,1.265,0,0,0,.636-.135s2.514-8.154,3.738-11.32a45.838,45.838,0,0,0,1.94-7.686Z" transform="translate(-1185.582 -568.266)" fill="#2b478b"/>
        <path id="Trazado_720223" data-name="Trazado 720223" d="M1292.59,565.12a70.853,70.853,0,0,0,2.228,7.588,21.261,21.261,0,0,0,.132,2.842,76.506,76.506,0,0,0,2.232,7.529,1.261,1.261,0,0,0,.682-.013,2.153,2.153,0,0,0,.679-.329s-.788-8.581-.736-11.975a45.847,45.847,0,0,0-.841-7.882Z" transform="translate(-1285.296 -546.542)" fill="#2b478b"/>
        <path id="Trazado_720224" data-name="Trazado 720224" d="M1235.346,223.569a1.839,1.839,0,0,0-.985-.24.466.466,0,0,1,.215-.089,1.542,1.542,0,0,0-.557.116c-2.322-1.03-2.868,2.436-2.859,3.249a2.319,2.319,0,0,1-1.25,2.412c-2.4,1.313-.559,3.905-.559,3.905-.431,1.238,1.166,2.754,1.166,2.754-.027-.657,2.99-4.845,4.617-5.8a4.555,4.555,0,0,0,.612-1.614,4.31,4.31,0,0,1-.4,1.468C1236.744,228.569,1236.189,224.106,1235.346,223.569Z" transform="translate(-1224.457 -223.167)" fill="#c65447"/>
        <path id="Trazado_720225" data-name="Trazado 720225" d="M1312.614,307.128a2.181,2.181,0,0,1-1.34.245,1.738,1.738,0,0,1-.893-.856c.23-.046.3-.363.292-1.724l.1.02,1.69.335.063.012s-.04.551-.041,1.071c0,.11,0,.218.005.32C1312.506,306.853,1312.54,307.093,1312.614,307.128Z" transform="translate(-1302.232 -300.868)" fill="#ffb07b"/>
        <path id="Trazado_720226" data-name="Trazado 720226" d="M1319.418,308.247c0,.11,0,.218.005.32-.983-.04-1.549-1.163-1.763-1.656l1.736.253.063.012S1319.419,307.727,1319.418,308.247Z" transform="translate(-1309.16 -302.883)" fill="#ea8e50"/>
        <path id="Trazado_720227" data-name="Trazado 720227" d="M1301.949,229.982a5.154,5.154,0,0,1-.637-1.506,1.769,1.769,0,0,1,2.011-2.068,2.508,2.508,0,0,1,1.04.393c.4.271.979.855.333,2.459l-.168.542Z" transform="translate(-1293.584 -226.226)" fill="#c65447"/>
        <path id="Trazado_720228" data-name="Trazado 720228" d="M1315.6,249.367s-2.3-.3-2.089-1.734.057-2.432,1.535-2.3,1.682.721,1.727,1.216S1316.2,249.409,1315.6,249.367Z" transform="translate(-1305.197 -244.258)" fill="#ffb07b"/>
        <path id="Trazado_720229" data-name="Trazado 720229" d="M1303,240.393s-.878,1.583-1.879,1.688a1.92,1.92,0,0,1-1.381-.216,2.761,2.761,0,0,0,1.134-1.48S1302.64,239.524,1303,240.393Z" transform="translate(-1292.097 -239.195)" fill="#c65447"/>
        <path id="Trazado_720230" data-name="Trazado 720230" d="M1363.87,246.136a2.05,2.05,0,0,1,.474.825c.06.381,0,1.138.222,1.145,0,0,.643-1.069.207-1.793C1364.311,245.545,1363.87,246.136,1363.87,246.136Z" transform="translate(-1353.148 -244.825)" fill="#c65447"/>
        <path id="Trazado_720231" data-name="Trazado 720231" d="M1178.11,515.425a3.593,3.593,0,0,0-2.954-1.868,3.357,3.357,0,0,0-2.141.749.564.564,0,0,1-.906-.32l-.989-4.6a1.241,1.241,0,0,0-1.475-.952l-16.01,3.446a1.213,1.213,0,0,0-.931,1.441l3.442,15.992a1.258,1.258,0,0,0,.85.935l-.21.06h.627a1.263,1.263,0,0,0,.23-.028l.349-.075h0l4.109-.884a.776.776,0,0,0,.423-1.266,3.33,3.33,0,1,1,5.577-.883.529.529,0,0,0,.156.624l-.24.117h.555a.547.547,0,0,0,.128-.012l4.906-1.056a1.242,1.242,0,0,0,.953-1.476l-.983-4.569a.582.582,0,0,1,.714-.686,3.333,3.333,0,0,0,3.821-4.69Z" transform="translate(-1152.112 -494.691)" fill="#d86713"/>
        <path id="Trazado_720232" data-name="Trazado 720232" d="M1163.4,513.557a3.357,3.357,0,0,0-2.141.749.564.564,0,0,1-.906-.32l-.989-4.6a1.242,1.242,0,0,0-1.475-.952l-16.01,3.446a1.213,1.213,0,0,0-.931,1.441l3.442,15.992a1.26,1.26,0,0,0,1.5.966l4.457-.959a.775.775,0,0,0,.423-1.266,3.33,3.33,0,1,1,5.577-.883.531.531,0,0,0,.6.729l4.906-1.056a1.242,1.242,0,0,0,.953-1.476l-.983-4.569a.582.582,0,0,1,.714-.686,3.333,3.333,0,0,0,3.821-4.69A3.594,3.594,0,0,0,1163.4,513.557Z" transform="translate(-1140.917 -494.691)" fill="#f1a34f"/>
        <path id="Trazado_720233" data-name="Trazado 720233" d="M1486.53,489.057s1,.164,1.26.813-.1,1.089-.244,1.088a.627.627,0,0,1-.536-.442C1486.883,490.179,1486.53,489.057,1486.53,489.057Z" transform="translate(-1469.91 -476.27)" fill="#ffb07b"/>
        <path id="Trazado_720234" data-name="Trazado 720234" d="M1200.66,549.315s1.121,0,1.524.661.083,1.209-.071,1.233a.7.7,0,0,1-.666-.386C1201.249,550.477,1200.66,549.315,1200.66,549.315Z" transform="translate(-1197.787 -533.631)" fill="#ffb07b"/>
        <path id="Trazado_720235" data-name="Trazado 720235" d="M1187.4,348.447c-.1-.021-.534-.072-1.087-.159a7.274,7.274,0,0,1-2.913-.88,7.929,7.929,0,0,1-.741-1.527,14.271,14.271,0,0,0-.25,3.914l-6.879,1.481c.589-1.193,1.5-2.671,1.331-3.867-.063-.444-.307-1.052-.4-1.736-.008-.059-.014-.118-.019-.177a15.591,15.591,0,0,0-2.106,1.846c-.045.294.707,3.546.707,3.546-.187.429-1,.339-1,.339-.759-.542-1.876-3.614-1.786-4.294s2.857-4.559,3.527-5.486,3.078-.893,3.136-.893h0c1.922,1.154,2.095.195,2.095.195s1.734.33,2.032.842,1.6,4.4,1.7,4.532c.193.286,3.352,1.43,3.408,1.761S1187.681,348.507,1187.4,348.447Z" transform="translate(-1170.749 -334.907)" fill="#80bdcc"/>
        <path id="Trazado_720236" data-name="Trazado 720236" d="M1242.7,448.6l-2.4.514c.6-1.189,1.382-2.67,1.211-3.859-.064-.444-.208-.969-.278-1.656-.007-.066-.018-.265-.018-.265s1.7,1.337,1.728,2.783A14.508,14.508,0,0,1,1242.7,448.6Z" transform="translate(-1235.524 -432.744)" fill="#5f9aa8"/>
        <path id="Trazado_720237" data-name="Trazado 720237" d="M1392.246,430.818a7.43,7.43,0,0,1-2.949-.88,7.911,7.911,0,0,1-.751-1.529s-.111-1.21.206-1.165.782,2.192,1.114,2.328A9.073,9.073,0,0,1,1392.246,430.818Z" transform="translate(-1376.62 -417.428)" fill="#5f9aa8"/>
      </g>
      <g id="man_2_" transform="translate(461.402 3563.753)">
        <g id="Grupo_1017814" data-name="Grupo 1017814" transform="translate(26.098 23.969)">
          <path id="Trazado_720238" data-name="Trazado 720238" d="M2456.088,1430.753c-.145.489-.815.816-.906,1.414a1.3,1.3,0,0,1-.291.674H2452.8c.021-.115.112-.239.384-.3.579-.127.8-.83.762-1.482-.015-.273-.008-.585.005-.855.019-.373.049-.667.049-.667l1.232-.29.13.166.124.16S2456.232,1430.264,2456.088,1430.753Z" transform="translate(-2442.146 -1407.849)" fill="#2c3a64"/>
          <path id="Trazado_720239" data-name="Trazado 720239" d="M2235.417,1464.456h-4.223a.847.847,0,0,1,.532-.265c.65-.105,1.775-.483,2.026-1.313.008-.027.016-.054.022-.082.2-.888,1.649.272,1.649.272s0,.035.011.1A4.538,4.538,0,0,1,2235.417,1464.456Z" transform="translate(-2231.194 -1439.464)" fill="#2c3a64"/>
          <path id="Trazado_720240" data-name="Trazado 720240" d="M2245.85,1007.239s.22,2.747.479,6.049c.352,4.486.774,10,.816,11.039.072,1.812.363,4.711.363,4.711a2.279,2.279,0,0,0,2.066.4,47.433,47.433,0,0,0,1.578-8.517c.005-.072.01-.144.016-.216.326-4.458.833-13.844.833-13.844Z" transform="translate(-2245.146 -1005.771)" fill="#35488b"/>
          <path id="Trazado_720241" data-name="Trazado 720241" d="M2245.85,1007.238s.22,2.747.479,6.049l4.823,7.631c.005-.072.01-.144.016-.216.326-4.458.833-13.844.833-13.844Z" transform="translate(-2245.146 -1005.77)" fill="#2c3a64"/>
          <path id="Trazado_720242" data-name="Trazado 720242" d="M2266.75,986.041s3.968,9.948,6.578,14.623,3.425,5.98,3.425,5.98,1.495-.6,1.631-1.006c0,0-1-9.026-2.745-11.226a16.537,16.537,0,0,1-2.2-6.279c-.054-1.3-.353-3.887-.353-3.887Z" transform="translate(-2265.04 -984.247)" fill="#35488b"/>
        </g>
        <path id="Trazado_720243" data-name="Trazado 720243" d="M2288.347,637.27a11.611,11.611,0,0,1-.182-1.659l2.013-1.622a4.038,4.038,0,0,0,1.355,3.3s-2.683,1.321-4.234.832A3.71,3.71,0,0,1,2288.347,637.27Z" transform="translate(-2258.502 -626.863)" fill="#935c2f"/>
        <path id="Trazado_720244" data-name="Trazado 720244" d="M2285.54,583.084s2.562.425,2.8-1.174.733-2.621-.892-2.961-2.035.223-2.246.737S2284.881,582.932,2285.54,583.084Z" transform="translate(-2256.353 -574.373)" fill="#a16d3c"/>
        <g id="Grupo_1017815" data-name="Grupo 1017815" transform="translate(17.547 11.028)">
          <path id="Trazado_720245" data-name="Trazado 720245" d="M2056.014,717.269l-.545-.338a1.379,1.379,0,0,0-1.841-.38s-.46.293-.151.539.226.107.653.463a1.277,1.277,0,0,0,1.338.287l.458-.043Z" transform="translate(-2053.37 -716.289)" fill="#a16d3c"/>
          <path id="Trazado_720246" data-name="Trazado 720246" d="M2093.731,716.223c.141-.44.207-.478.207-.478s4.41.521,4.826.552,6.19-1.159,6.19-1.159l2.726,3.311s-8.038.3-9.09.2a19.326,19.326,0,0,1-4.891-1.781A1.29,1.29,0,0,1,2093.731,716.223Z" transform="translate(-2091.734 -715.138)" fill="#d3782f"/>
        </g>
        <path id="Trazado_720247" data-name="Trazado 720247" d="M2249.08,704.527c.008.171-.344.358-.5.427a10.712,10.712,0,0,1-3.435.991,25.179,25.179,0,0,1-3.717-.168.25.25,0,0,1-.163-.062c-.039-.031-.07-1.786-.039-4,0-.085,0-.179.008-.264v-.031c0-.231.006-.465.011-.7.015-.647.039-1.311.067-1.971.042-.973.1-1.929.18-2.776a16.021,16.021,0,0,1,.325-2.194,5.352,5.352,0,0,1,1.677-2.679l.536-.473a2.542,2.542,0,0,0,1.67-.2c.613-.3,1.281-.629,1.39-.551.828.619,1.385,2.023,1.671,3.809a19.735,19.735,0,0,1,.224,3.15c0,.429-.015.864-.04,1.3a42.943,42.943,0,0,0,.085,5.591C2249.056,704.068,2249.075,704.34,2249.08,704.527Z" transform="translate(-2214.636 -680.049)" fill="#e69d43"/>
        <path id="Trazado_720248" data-name="Trazado 720248" d="M1721.182,490.289l-16.2-2.573a1.263,1.263,0,0,0-1.445,1.049l-.717,4.515a5.315,5.315,0,0,0,.02.8l.584.087a.742.742,0,0,0,.1.015h0a.771.771,0,0,0,.326-.044,3.339,3.339,0,1,1-1.194,5.534.526.526,0,0,0-.316-.149h0l-.611-.092-.761,5.508a1.245,1.245,0,0,0,1.034,1.425l4.628.735a.583.583,0,0,1,.383.915,3.342,3.342,0,0,0,3,5.271,3.6,3.6,0,0,0,2.817-2.086,3.366,3.366,0,0,0,.075-2.273.565.565,0,0,1,.627-.731l4.656.739a1.245,1.245,0,0,0,1.425-1.034l2.575-16.217A1.216,1.216,0,0,0,1721.182,490.289Z" transform="translate(-1700.355 -487.611)" fill="#4a75cb"/>
        <path id="Trazado_720249" data-name="Trazado 720249" d="M2247.774,768.313s-1.242,5.795-5.9,7.085c.014-.647.039-1.311.067-1.971.042-.973.1-1.929.18-2.776a1.549,1.549,0,0,1,.233-.1C2243.931,770.031,2247.774,768.313,2247.774,768.313Z" transform="translate(-2215.259 -754.728)" fill="#d3782f"/>
        <path id="Trazado_720250" data-name="Trazado 720250" d="M1700.379,509.317a3.364,3.364,0,0,0,.075-2.273.565.565,0,0,1,.627-.731l4.656.74a1.245,1.245,0,0,0,1.425-1.034l2.575-16.217a1.216,1.216,0,0,0-1.01-1.392l-16.2-2.573a1.263,1.263,0,0,0-1.445,1.049l-.717,4.515a.778.778,0,0,0,1.031.854,3.338,3.338,0,1,1-1.194,5.534.533.533,0,0,0-.9.3l-.789,4.97a1.246,1.246,0,0,0,1.035,1.425l4.628.735a.583.583,0,0,1,.383.915,3.342,3.342,0,0,0,3,5.271A3.6,3.6,0,0,0,1700.379,509.317Z" transform="translate(-1688.499 -485.822)" fill="#699dee"/>
        <g id="Grupo_1017816" data-name="Grupo 1017816" transform="translate(17.165 10.686)">
          <path id="Trazado_720251" data-name="Trazado 720251" d="M2048.473,797.759l-.666-.11a1.644,1.644,0,0,0-2.083-.482s-.525.294-.178.568.255.123.735.521a1.538,1.538,0,0,0,1.513.362l.52-.027Z" transform="translate(-2045.427 -792.701)" fill="#a16d3c"/>
          <path id="Trazado_720252" data-name="Trazado 720252" d="M2098.134,713.418c.021-.49.282-.542.282-.542s5.046-.334,5.48-.418a52.893,52.893,0,0,0,4.454-3.414s1.554-1.4,2.643-.925a2.133,2.133,0,0,1,1.29,1.96,2.159,2.159,0,0,1-1.247,2.089,57.455,57.455,0,0,1-6.236,2.64c-1.829.318-6.531-.7-6.531-.7A1.54,1.54,0,0,1,2098.134,713.418Z" transform="translate(-2095.599 -708.021)" fill="#e69d43"/>
        </g>
        <path id="Trazado_720253" data-name="Trazado 720253" d="M2276.748,555.556a1.5,1.5,0,0,1-.362-1.969,3.961,3.961,0,0,0,1.98,0c1.162-.271,2.2.113,2.337.52a.945.945,0,0,1,.5.859c.045.678-1.314,2.814-1.314,2.814s-.29-.362-.211-.61.327-.8.023-.8-.407.452-.531.271.1-.938-.26-1.062S2277.155,555.785,2276.748,555.556Z" transform="translate(-2247.896 -550.242)" fill="#2c3a64"/>
      </g>
      <path id="Trazado_720254" data-name="Trazado 720254" d="M1112.714,1045l-4.579-20.791h1.26a.545.545,0,0,0,.543-.543v-.7a.545.545,0,0,0-.543-.543h-15.99a.545.545,0,0,0-.543.543v.7a.545.545,0,0,0,.543.543h1.623L1090.45,1045a.519.519,0,1,0,1.014.224l4.629-21.015h10.981l4.629,21.015a.521.521,0,0,0,.619.4h0A.521.521,0,0,0,1112.714,1045Z" transform="translate(-657.795 2567.142)" fill="#c3e0f4"/>
      <g id="Grupo_1017817" data-name="Grupo 1017817" transform="translate(463.942 3599.23)">
        <path id="Trazado_720255" data-name="Trazado 720255" d="M2030.783,1223.719c-1.694-1.627-7.8,8.639-7.8,8.639S2032.478,1225.347,2030.783,1223.719Z" transform="translate(-2009.441 -1223.545)" fill="#acd29a"/>
        <path id="Trazado_720256" data-name="Trazado 720256" d="M1762.449,1324.894c-1.5-.6-6.3,4.455-7.375,5.623a23.887,23.887,0,0,0-2.726-.2c-7.593-.136-11.037,3.3-11.037,3.3l21.182.072s-1.876-2.383-7.2-3.147a58.536,58.536,0,0,1,6.547-2.747C1763.534,1327.382,1764.144,1325.572,1762.449,1324.894Z" transform="translate(-1741.31 -1319.973)" fill="#acd29a"/>
      </g>
      <g id="Grupo_1017818" data-name="Grupo 1017818" transform="translate(454.931 3593.832)">
        <path id="Trazado_720257" data-name="Trazado 720257" d="M1641.7,1111.61h-4.572a.777.777,0,0,0-.682,1.152c.276.5-.7,4.833-2.744,4.946a3.338,3.338,0,0,1-2.909-5.257.533.533,0,0,0-.435-.841h-5.032a1.245,1.245,0,0,0-1.245,1.245s-.456,5.4-.844,5.207a3.321,3.321,0,0,0-1.316-.346h0c-.056,0-.113,0-.17,0l-.885-.014-.126,6.674.719.008a4.159,4.159,0,0,0,1.806-.354.565.565,0,0,1,.82.505v4.715a1.245,1.245,0,0,0,1.245,1.245h16.42a1.216,1.216,0,0,0,1.216-1.216v-16.4A1.263,1.263,0,0,0,1641.7,1111.61Z" transform="translate(-1617.524 -1111.596)" fill="#d86713"/>
        <path id="Trazado_720258" data-name="Trazado 720258" d="M1556.52,1124.01a3.367,3.367,0,0,0,2.256-.282.565.565,0,0,1,.82.5v4.715a1.245,1.245,0,0,0,1.245,1.245h16.42a1.216,1.216,0,0,0,1.216-1.216v-16.4a1.263,1.263,0,0,0-1.263-1.263h-4.572a.777.777,0,0,0-.682,1.152,3.339,3.339,0,1,1-5.653-.311.533.533,0,0,0-.435-.841h-5.032a1.245,1.245,0,0,0-1.245,1.245v4.685a.583.583,0,0,1-.844.522,3.342,3.342,0,0,0-4.734,3.791A3.6,3.6,0,0,0,1556.52,1124.01Z" transform="translate(-1553.924 -1111.311)" fill="#f1a34f"/>
      </g>
      <path id="Trazado_720259" data-name="Trazado 720259" d="M528.162,1337.426l2.951.022s-.1-.714-2.089-.9h0c-.77-2.139-3.033-7.894-5-7.622-1.94.269,2.654,5.549,4.523,7.6a4.67,4.67,0,0,0-.738.059c-.45-.9-1.343-2.164-2.776-2.106-1.525.061.553,1.454,1.983,2.309a3.525,3.525,0,0,0-1.116.619l2.226.016.04.022Z" transform="translate(-118.178 2275.38)" fill="#acd29a"/>
      <g id="Grupo_1017821" data-name="Grupo 1017821" transform="translate(404.955 3565.518)">
        <g id="Grupo_1017819" data-name="Grupo 1017819" transform="translate(2.541 15.066)">
          <path id="Trazado_720260" data-name="Trazado 720260" d="M828.455,1009.96l.437.355a1.088,1.088,0,0,1,1.464.991s.072.6-.311.606a7.643,7.643,0,0,0-.768-.05.982.982,0,0,1-1.072-.711l-.26-.373Z" transform="translate(-815.422 -1001.586)" fill="#ea8e50"/>
          <path id="Trazado_720261" data-name="Trazado 720261" d="M580.521,844.955a.893.893,0,0,0,.32-.633s-4.034-3.3-4.443-3.572a49.761,49.761,0,0,1-4.638-4.423c-.689-.8-1.542-.487-2.518-.207l-.8.231a1.345,1.345,0,0,0-.427,2.3,60.807,60.807,0,0,0,6.673,4.387,38.491,38.491,0,0,0,5.126,2.386A2.147,2.147,0,0,0,580.521,844.955Z" transform="translate(-567.537 -835.819)" fill="#1e3d70"/>
        </g>
        <path id="Trazado_720262" data-name="Trazado 720262" d="M910.185,1447.01a3.041,3.041,0,0,0,2.479.346s1.209-.275,1.475.328c0,0-1.855.942-2.324,1.2a5.608,5.608,0,0,0-.984.738.486.486,0,0,1-.7-.054c-.082-.1-.175-.22-.277-.358-.286-.388-.953-1.64-.953-1.64Z" transform="translate(-889.939 -1402.552)" fill="#233862"/>
        <path id="Trazado_720263" data-name="Trazado 720263" d="M646.433,1093.741a1.88,1.88,0,0,1-1.972,1.122,38.406,38.406,0,0,1-4.734-4.728,10.707,10.707,0,0,1-1.471-2.3c-1.277-2.957-4.724-7.367-6.916-9.6l5.484-1.984s1.756,3.533,4.093,7.874C642.6,1087.25,644.586,1090.8,646.433,1093.741Z" transform="translate(-625.731 -1049.622)" fill="#2b478b"/>
        <path id="Trazado_720264" data-name="Trazado 720264" d="M640.918,1084.124l-1.19,6.012a10.712,10.712,0,0,1-1.471-2.3c-1.277-2.957-4.724-7.368-6.916-9.6l5.484-1.984S638.581,1079.784,640.918,1084.124Z" transform="translate(-625.732 -1049.623)" fill="#233862"/>
        <path id="Trazado_720265" data-name="Trazado 720265" d="M697.936,1451.33a1.242,1.242,0,0,0,1.27,1.243s.76,0,.762.7l-3.864.012a3.007,3.007,0,0,1-.139-.885,6.913,6.913,0,0,1,.449-1.673Z" transform="translate(-687.246 -1406.092)" fill="#233862"/>
        <path id="Trazado_720266" data-name="Trazado 720266" d="M602.524,1071.433a21.932,21.932,0,0,1,3.994,7.52c.844,2.631-1.547,9.247-2.012,11.545a7.328,7.328,0,0,1-2.7-.288,53.185,53.185,0,0,1,.558-8.406c.359-2.048-3.217-4.38-4.779-8.08-1.063-2.517.23-2.474,1.819-2.535Z" transform="translate(-593.23 -1044.805)" fill="#2b478b"/>
        <path id="Trazado_720267" data-name="Trazado 720267" d="M567.347,761.65c-1.359.767-4.142.06-4.142.06a3.877,3.877,0,0,0,.617-3.372l1.067.542,1.146.582a9.534,9.534,0,0,1,.126,1.027c.013.17.025.36.033.567A3.566,3.566,0,0,1,567.347,761.65Z" transform="translate(-560.873 -746.997)" fill="#ffb07b"/>
        <path id="Trazado_720268" data-name="Trazado 720268" d="M552.061,826.17c0,.239-.275.353-.334.365a25.741,25.741,0,0,1-3.458.832,11.058,11.058,0,0,1-3.423-.232c-.157-.031-.525-.131-.551-.281s-4.568-9.246-1.042-13.147a4.093,4.093,0,0,1,1.415.224,2.615,2.615,0,0,0,1.608-.131l.6.314a5.438,5.438,0,0,1,2.282,3c.082.579.414,1.008.509,1.517q.053.283.109.552.108.528.223,1.005c.207.861.426,1.6.641,2.243.229.68.453,1.246.653,1.719.26.614.48,1.072.617,1.423A1.753,1.753,0,0,1,552.061,826.17Z" transform="translate(-540.603 -799.68)" fill="#2a4e96"/>
        <path id="Trazado_720269" data-name="Trazado 720269" d="M579.179,886.575a17.82,17.82,0,0,1-8.619-8.808s5.2,1.919,6.485,2.418q.108.528.223,1c.207.861.426,1.6.641,2.243.229.68.453,1.246.653,1.719C578.822,885.766,579.042,886.224,579.179,886.575Z" transform="translate(-567.874 -860.684)" fill="#1e3d70"/>
        <path id="Trazado_720270" data-name="Trazado 720270" d="M671.983,542.015l-1.371-4.348a.778.778,0,0,0-.952-.515h0c-.02.006-.04.013-.06.02l-.481.161a4.24,4.24,0,0,1-1.293.932,3.117,3.117,0,0,1-3.843-2.024,3.239,3.239,0,0,1,1.918-4.35,4.308,4.308,0,0,1,1.839.169l.49-.163a.531.531,0,0,0,.353-.669l-1.509-4.786a1.242,1.242,0,0,0-1.558-.811l-4.457,1.406a.582.582,0,0,1-.749-.646,3.333,3.333,0,0,0-5.026-3.366,3.594,3.594,0,0,0-1.584,3.116,3.356,3.356,0,0,0,.945,2.062.564.564,0,0,1-.235.932l-4.484,1.414a1.241,1.241,0,0,0-.81,1.557l4.925,15.618a1.213,1.213,0,0,0,1.522.792l15.6-4.92A1.26,1.26,0,0,0,671.983,542.015Z" transform="translate(-642.594 -522.539)" fill="#4a75cb"/>
        <path id="Trazado_720271" data-name="Trazado 720271" d="M643.825,529.428a3.355,3.355,0,0,0,.945,2.062.564.564,0,0,1-.234.931l-4.484,1.414a1.242,1.242,0,0,0-.811,1.557l4.925,15.618a1.213,1.213,0,0,0,1.522.792l15.6-4.92a1.26,1.26,0,0,0,.822-1.58l-1.371-4.348a.776.776,0,0,0-1.3-.3,3.33,3.33,0,1,1-1.4-5.47.531.531,0,0,0,.669-.665l-1.51-4.786a1.242,1.242,0,0,0-1.558-.811l-4.457,1.406a.582.582,0,0,1-.749-.646,3.333,3.333,0,0,0-5.026-3.366A3.593,3.593,0,0,0,643.825,529.428Z" transform="translate(-633.197 -525.669)" fill="#699dee"/>
        <g id="Grupo_1017820" data-name="Grupo 1017820" transform="translate(1.827 15.352)">
          <path id="Trazado_720272" data-name="Trazado 720272" d="M821.969,1023.879l.553.2a1.183,1.183,0,0,1,1.8.491s.249.556-.146.677-.251.007-.806.192a1.057,1.057,0,0,1-1.312-.345l-.376-.276Z" transform="translate(-808.745 -1015.088)" fill="#ffb07b"/>
          <path id="Trazado_720273" data-name="Trazado 720273" d="M566.378,851.35c.2-.534.3-.775.3-.775s-4.18-3.407-4.606-3.7a31.716,31.716,0,0,1-4.589-4.042,2.948,2.948,0,0,0-2.866-.993l-.877.184a1.305,1.305,0,0,0-.582,2.268,66.267,66.267,0,0,0,6.947,4.765,48.637,48.637,0,0,0,5.8,2.854A1.03,1.03,0,0,0,566.378,851.35Z" transform="translate(-552.699 -841.776)" fill="#2a4e96"/>
        </g>
        <path id="Trazado_720274" data-name="Trazado 720274" d="M581,771.216a2.861,2.861,0,0,1-2.206-1.028,10.609,10.609,0,0,0,.934-.581l1.146.582A9.531,9.531,0,0,1,581,771.216Z" transform="translate(-575.716 -757.724)" fill="#ea8e50"/>
        <path id="Trazado_720275" data-name="Trazado 720275" d="M556.73,707.05s-2.025,1.453-2.911.178-1.743-1.946-.488-2.928,1.847-.672,2.247-.318S557.234,706.639,556.73,707.05Z" transform="translate(-550.872 -694.931)" fill="#ffb07b"/>
        <path id="Trazado_720276" data-name="Trazado 720276" d="M519.621,670.275a3.254,3.254,0,0,0-.236-.835s-.127.526-1.089.454-2.487.095-3,1.191q-.049.1-.087.215a2.542,2.542,0,0,1-.114-.607,1.872,1.872,0,0,0,0,1.062h0c0,.017-.005.034-.008.052a2.145,2.145,0,0,0-.391.738.669.669,0,0,1,.36-.32,2.038,2.038,0,0,0,.949,1.935c.888.363.881.086,1.774.678,0,0,.24-.3.076-.5s-.781-.49-.436-.781.472.036.6-.163-.508-.781.309-1.325S519.694,670.765,519.621,670.275Z" transform="translate(-514.702 -662.376)" fill="#233862"/>
      </g>
      <path id="Trazado_720277" data-name="Trazado 720277" d="M1409.776,1313.727a3.231,3.231,0,0,0-2.627-1.392c-.487.037-1.279.156-2.2.282-.694-2.42-2.6-8.172-5.183-8.5-2.633-.331,2.519,6.066,4.626,8.57-.384.051-.783.1-1.186.144-1.115-1.191-3.059-2.955-4.682-2.82s1.419,1.818,3.618,2.919a8.851,8.851,0,0,1-3.41-.212c-1.915-.74-3.674,1-3.674,1Z" transform="translate(-947.77 2298.993)" fill="#82b378"/>
    </g>
  </g>
</svg>
