<svg xmlns="http://www.w3.org/2000/svg" xmlns:xlink="http://www.w3.org/1999/xlink" width="124" height="124" viewBox="0 0 124 124">
  <defs>
    <clipPath id="clip-path">
      <path id="Trazado_719509" data-name="Trazado 719509" d="M297.552,97.284a26.02,26.02,0,1,1-23.141-28.61A26.02,26.02,0,0,1,297.552,97.284Z" transform="translate(-245.654 -68.527)"/>
    </clipPath>
    <clipPath id="clip-path-4">
      <path id="Trazado_719579" data-name="Trazado 719579" d="M391.257,117.063a2.51,2.51,0,0,1,2.885-2.717C393.168,118.4,391.257,117.063,391.257,117.063Zm-.558.061a2.29,2.29,0,0,0-3.178-2.06C388.978,118.854,390.7,117.123,390.7,117.123Zm.518,4.521c.027-.508.044-1,.052-1.481.824.249,2.656.315,3.783-3.356,0,0-2.727-.342-3.791,1.486-.036-1.469-.133-2.533-.17-2.823a2.555,2.555,0,0,0,.629-1.9,2.463,2.463,0,0,0-.922-2.044,1.479,1.479,0,0,1-.5-1.38s-2.053,3.826.376,5.378a36.871,36.871,0,0,1,.106,3.875c-.886-2.881-4.685-1.93-4.685-1.93,1.836,3.955,4.06,3.04,4.666,2.692-.023.695-.062,1.433-.126,2.191-1.275-2.712-5.854-2-5.854-2,1.959,4.139,4.656,3.734,5.714,3.376-.073.6-.163,1.208-.273,1.8,0,0,.416-.017.554,0,.127-.7.225-1.4.3-2.1.828.366,3.2.937,4.886-3.461C395.964,119.966,392.478,119.326,391.217,121.645Z" transform="translate(-384.786 -110.142)"/>
    </clipPath>
  </defs>
  <g id="Grupo_1079623" data-name="Grupo 1079623" transform="translate(-266.001 -3314.913)">
    <g id="Grupo_159183" data-name="Grupo 159183" transform="translate(266.001 3314.913)">
      <path id="Unión_12" data-name="Unión 12" d="M62,0A62,62,0,1,1,0,62,62,62,0,0,1,62,0Z" fill="#01d8d1"/>
    </g>
    <g id="svg09" transform="translate(197.932 3287.928)">
      <g id="OBJECTS" transform="translate(76.449 52.672)">
        <g id="Grupo_1017585" data-name="Grupo 1017585" transform="translate(0 0)">
          <path id="Trazado_719503" data-name="Trazado 719503" d="M183,96.437c.727-8.045.414-17.06-4.512-25.586-3.762-6.511-12.821-14.186-21.4-16.991-10.85-3.547-21,1.884-31.52,2.843-9.4.857-19.093-2.387-28.289-.683a25.148,25.148,0,0,0-15.417,9.413A28.5,28.5,0,0,0,76.62,80.276a46.894,46.894,0,0,0,7.458,29.163c2.843,4.518,6.857,8.078,10.422,12.179,3.633,4.178,61.983,2.052,71.585-.183C178.315,118.586,182.153,105.863,183,96.437Z" transform="translate(-76.449 -52.672)" fill="#ffeae6"/>
          <g id="Grupo_1017532" data-name="Grupo 1017532" transform="translate(4.158 6.666)">
            <path id="Trazado_719504" data-name="Trazado 719504" d="M414.818,98.117c2.524-1.864,5.825-4.778,9.03-6.5,3.649-1.957,5.135-1.043,3.984,3.02,2.369-1.3,5.377-3.648,8.207-3.669,3.292-.025,1.63,2,1.55,4.08,2.125.073,4.335-3.473,6.463-1.271.825.854.279,2.151.916,2.994.655.865,2.269,1.005,2.966,1.733-3.813,1.823-8.848,1.268-13.025,1.077-3.357-.154-6.77.005-10.14-.168-1.951-.1-9.558.38-10.578-1.083a8.854,8.854,0,0,1,1.71-.866" transform="translate(-359.039 -90.631)" fill="#fff"/>
            <path id="Trazado_719505" data-name="Trazado 719505" d="M501.591,189.857a54.027,54.027,0,0,1,6.1-4.39c2.465-1.322,3.469-.7,2.693,2.041,1.6-.878,3.633-2.465,5.546-2.48,2.225-.017,1.1,1.354,1.047,2.757,1.436.05,2.93-2.347,4.367-.859.558.577.189,1.454.619,2.023.442.585,1.533.679,2,1.171-2.577,1.232-5.979.857-8.8.728-2.269-.1-4.575,0-6.853-.114-1.318-.068-6.459.257-7.148-.732a5.986,5.986,0,0,1,1.155-.585" transform="translate(-430.741 -168.262)" fill="#fff"/>
            <path id="Trazado_719506" data-name="Trazado 719506" d="M100.656,196.715a68.12,68.12,0,0,1,7.655-4.98c3.093-1.5,4.352-.8,3.378,2.315,2.008-1,4.558-2.8,6.957-2.813,2.79-.019,1.382,1.536,1.314,3.128,1.8.056,3.675-2.662,5.478-.974.7.655.237,1.649.777,2.295.555.663,1.923.771,2.514,1.329-3.233,1.4-7.5.972-11.041.825-2.846-.118-5.739,0-8.6-.129-1.653-.077-8.1.291-8.967-.83a7.87,7.87,0,0,1,1.449-.664" transform="translate(-100.124 -173.355)" fill="#fff"/>
          </g>
          <g id="Grupo_1017537" data-name="Grupo 1017537" transform="translate(29.714 2.784)">
            <path id="Trazado_719507" data-name="Trazado 719507" d="M297.569,97.308a26.015,26.015,0,1,1-23.137-28.6A26.015,26.015,0,0,1,297.569,97.308Z" transform="translate(-245.676 -68.553)" fill="#c5dbbb"/>
            <g id="Grupo_1017536" data-name="Grupo 1017536">
              <g id="Grupo_1017533" data-name="Grupo 1017533" clip-path="url(#clip-path)">
                <path id="Trazado_719508" data-name="Trazado 719508" d="M375.353,61.239l-.869-.083.144-.238-.5.028.289-.18-.183-.013a2.833,2.833,0,0,1-.317-.048,1.169,1.169,0,0,0-1.125.206l.116-.518-.619.226a.379.379,0,0,0,.064-.315c-.04-.115-.17-.177-.375-.179a1,1,0,0,0-.438.145c-.04.021-.082.041-.123.06a1.419,1.419,0,0,0-.212.13l-.049.034-.013-.02.455-.514-.059-.04a.976.976,0,0,0-.864-.218.707.707,0,0,0-.371.352l-.162-.377-.052.059c-.04.045-.078.086-.114.124a1.9,1.9,0,0,0-.2.239.746.746,0,0,1-.762.294c-.064,0-.128,0-.192,0h-.041a.332.332,0,0,0-.158-.238c-.12-.057-.256.033-.355.1a.628.628,0,0,1-.07.044.51.51,0,0,1-.451-.015,1.191,1.191,0,0,0-.2-.06,1.044,1.044,0,0,0-.31.008l-.1.011c-.016-.015-.033-.035-.05-.054-.067-.076-.142-.162-.235-.165a.548.548,0,0,0-.291.12l-.028.018a.28.28,0,0,0-.069-.163c-.111-.116-.314-.084-.457-.05a8.284,8.284,0,0,0-.974.317l-.131.049a.537.537,0,0,0-.267.218,2.475,2.475,0,0,0-.156.364c-.011.031-.024.064-.036.1l-.03-.015-.032-.11-.036-.124-.05.021h0l-1.347.353-.012.025a.514.514,0,0,0-.062.291c-.013-.014-.029-.028-.042-.043s-.074.013-.051.042a3.733,3.733,0,0,0,1.442.98,1.893,1.893,0,0,1,.7.5.4.4,0,0,1,.032.435c-.106.22-.361.149-.547.228-.1.041-.243.241-.158.352s.321.215.184.39a2.456,2.456,0,0,1-.386.278.494.494,0,0,0-.175.551,1.281,1.281,0,0,1-.067.713.957.957,0,0,0,.072.473,2.415,2.415,0,0,0,1.356,1.554.792.792,0,0,0,.689-.251c.372-.319.711-.658,1.115-.943a9.572,9.572,0,0,1,2.715-1.371,3.347,3.347,0,0,1,1.6,0,1.283,1.283,0,0,0,1.023-.156,1.526,1.526,0,0,0,.667-.968.642.642,0,0,0-.074-.356c-.156-.3.168-.4.4-.528a1.618,1.618,0,0,0,.895-.805c.078-.23.156-.452.247-.676a2.06,2.06,0,0,0,.11-.293c.136,0,.271,0,.4-.009.1,0,.193-.007.29-.008h.052Z" transform="translate(-342.194 -61.224)" fill="#95b374"/>
              </g>
              <g id="Grupo_1017534" data-name="Grupo 1017534" clip-path="url(#clip-path)">
                <path id="Trazado_719510" data-name="Trazado 719510" d="M480.711,120.235c-.081-.047-.164-.1-.252-.155a3.445,3.445,0,0,0-.653-.349c-1.089-.391-2.266-.791-3.6-1.221-.363-.118-.737-.208-1.1-.3-.164-.039-.325-.078-.485-.12l-.068-.017.009.423-.025,0a1.868,1.868,0,0,1-.187-.042c-.138-.039-.282-.092-.418-.143a2.514,2.514,0,0,0-.946-.219,2.211,2.211,0,0,1-1.489-.4.829.829,0,0,0-.376-.17c-.35-.042-.707-.078-1.052-.112-.3-.03-.6-.06-.891-.093a.3.3,0,0,1-.124-.062.661.661,0,0,0-.108-.062l-.322-.135c-.357-.15-.727-.3-1.1-.438a3.589,3.589,0,0,0-.777-.165.4.4,0,0,0-.364.134c-.251.431-.268.441-.645.332-.047-.014-.1-.032-.151-.049-.2-.07-.413-.143-.559-.051-.519.325-.855-.033-1.152-.35a1.874,1.874,0,0,0-1.778-.577,1.631,1.631,0,0,1-.735-.063c-.047-.015-.092-.032-.137-.048a1.165,1.165,0,0,0-.944-.06.166.166,0,0,1-.139-.027,1.6,1.6,0,0,0-1.458-.161.367.367,0,0,1-.192-.031l-.067-.021v-.034l.914-.534-.07-.058a1.856,1.856,0,0,1-.143-.137.666.666,0,0,0-.3-.216c-.493-.1-.982-.169-1.5-.246l-.5-.075.1-.392-.749.306c-.07.029-.141.065-.208.1a1.073,1.073,0,0,1-.424.151c-.433.014-.862,0-1.316-.021-.181-.007-.363-.014-.55-.02l-.078,0,.026.085a.581.581,0,0,1,.013.441.214.214,0,0,1-.209.069c-.187-.015-.375-.034-.562-.053l-.284-.027-.077.205.518.5v0l-.963-.37.034.155-.362.144.236.125c.077.042.147.079.215.115l.137.068c-.065-.02-.134-.037-.2-.052-.315-.072-.589-.136-.585-.667l0-.155-.541.672.052.039c.09.066.175.141.259.214a1.567,1.567,0,0,0,.6.388c.374.1.628.186.733.505l-.012-.02a.951.951,0,0,0-.211-.258.839.839,0,0,0-.374-.122c-.054-.008-.109-.017-.162-.03l-.116-.028.126.263c-.018.064-.033.132-.047.2a.951.951,0,0,1-.147.4.464.464,0,0,1-.359.177.471.471,0,0,1-.317-.133c.025-.018.051-.035.077-.053a.9.9,0,0,0,.3-.283c.073-.128-.016-.381-.077-.519s-.126-.261-.192-.385a2.94,2.94,0,0,1-.279-.638c-.062-.241-.138-.367-.372-.377-.141-.008-.283-.022-.448-.039l-.261-.026-.061-.006.023,1.069.713.427c-.264.223-.438.093-.638-.058a.813.813,0,0,0-.335-.178,3.61,3.61,0,0,1-.769-.241c-.1-.038-.191-.076-.279-.107l-.04-.014-.021.043c-.031.06-.063.126-.092.185s-.055.111-.073.146a1.05,1.05,0,0,0-.655,0c-.286.06-.555.116-.792-.135-.078-.084-.262-.029-.315-.01-.138.048-.275.1-.408.154a6.618,6.618,0,0,1-.709.247.384.384,0,0,1-.354-.135l-.04-.087c-.128-.286-.157-.3-.445-.269l-.068.008.252.861c-.334-.168-.566-.2-.727-.092a.664.664,0,0,0-.238.494l-.737-.289-.056.16.267.252a.716.716,0,0,1-.473-.054.5.5,0,0,1-.274-.288,1.478,1.478,0,0,0-.439-.634c-.028-.028-.059-.058-.088-.088a.187.187,0,0,1-.03-.057l.156.084c.194.106.362.2.539.275l.1.045a.768.768,0,0,0,.882.011,1.4,1.4,0,0,0,.163-.157c.023-.024.044-.048.067-.071l.041-.042-.034-.045c-.019-.025-.037-.055-.055-.083a.491.491,0,0,0-.157-.181l-.217-.122a6.4,6.4,0,0,0-.991-.49,1.13,1.13,0,0,0-.272-.05.541.541,0,0,1-.486-.243.326.326,0,0,0-.224-.175c-.135-.015-.263.1-.376.207l-.087-.276-.63-.06c-.036-.015-.054.019-.092.093l-.006.012-.1-.173-.2.24.027-.163-.029-.022c-.128-.1-.23.042-.3.138-.043.06-.092.13-.129.127-.017,0-.058-.019-.117-.131l-.028-.053-.423.324-.249-.165-2.611,2.058.117-.009a2.6,2.6,0,0,0-1.461.533l-.09.07.324.127-.387.084.063.249.4-.121-.63.337.2.021c.115.012.169.115.233.234.086.161.195.362.484.242a1.761,1.761,0,0,1,.255-.074.681.681,0,0,0,.6-.448l.148.192a.157.157,0,0,0-.042.131c.115.415.24.857.38,1.294a.279.279,0,0,0,.161.139.094.094,0,0,0,.093-.005l.107-.082a3.388,3.388,0,0,0,.566-.509,3.776,3.776,0,0,0,.368-.571c.046-.081.093-.162.139-.239l.039-.064-.264-.118.493.074-.019-.089a.308.308,0,0,0-.077-.159.126.126,0,0,1-.014-.018c-.035-.056-.076-.11-.117-.166a.912.912,0,0,1-.212-.4c.006-.041.135-.138.215-.195a2.04,2.04,0,0,0,.2-.167c.357-.354.775-.774,1.182-1.208a.14.14,0,0,0,.034-.081l.315.576c-.072.066-.14.13-.205.191-.166.156-.31.291-.464.416a.63.63,0,0,0-.227.471.565.565,0,0,0,.192.45.941.941,0,0,0,.98.293,1.166,1.166,0,0,1,.433-.033c.063,0,.126.005.187,0l.126.159q-.014.091-.026.172a3.185,3.185,0,0,1-.066.365.228.228,0,0,1-.044.079l-.014-.509-1.145-.109-.093.228.412.417-.282.371-.3-.383-.036.018a.582.582,0,0,0-.323.3.486.486,0,0,0,.014.322.381.381,0,0,0-.1.316c.029.074.1.111.23.113.24,0,.316.133.341.345l-.14-.023a1.7,1.7,0,0,0-.47-.034,1.627,1.627,0,0,1-.545-.063,1.211,1.211,0,0,0-.852.016,2.559,2.559,0,0,1-.327.122l-.114.038a.735.735,0,0,0-.157-.2,1.551,1.551,0,0,0-.882-.495.743.743,0,0,0-.606.051.789.789,0,0,0-.159.2c-.127.176-.31.159-.5.147-.5-.03-.969.552-1.217.93a.387.387,0,0,1-.6.136.62.62,0,0,0-.294-.125,1.124,1.124,0,0,0-.752.169.079.079,0,0,0-.011.12c.209.221-.2.129-.261.113a2.5,2.5,0,0,0-.379-.063.5.5,0,0,0-.409.129c-.254.23.036.873.22,1.06.232.234.507.314.546.683.037.335-.129.41-.41.307a2.361,2.361,0,0,0-1.021-.314c-.352.025-.943.256-.981.668-.012.142.113.262.195.362.217.27.019.665.054.986a1.683,1.683,0,0,1-.329.932.461.461,0,0,0,0,.51c.242.344.577.022.82-.143.036.12.078.263.189.311a2.307,2.307,0,0,0,.819.127,1.7,1.7,0,0,0,.811-.215,3.1,3.1,0,0,0,.8-.5c.244-.25.259-.634.549-.843.209-.151.462-.18.621-.405.191-.27-.283-.348-.395-.53,0,0,.006-.006.008-.01.21-.368.43-.3.74-.158a.728.728,0,0,0,.533-.012c.072-.028.077-.152.086-.323,0-.026,0-.051,0-.077l.062.032a.467.467,0,0,0,.313.085.444.444,0,0,1,.118-.014,7.966,7.966,0,0,1,.191,1.061.75.75,0,0,0,.5.589,1.169,1.169,0,0,1,.851.957c.026.214.012.432.027.647.024.34.21.462.462.2a1.1,1.1,0,0,0,.267-.563c.054-.241.09-.829.448-.772a.07.07,0,0,0,.082-.054c.1-.439-.343-.866-.613-1.153-.167-.175-.346-.336-.514-.508-.214-.217-.473-.367-.566-.63l.29-.058.088.074-.151.153.067.041a1.457,1.457,0,0,0,.169.086c.095.044.211.1.223.153a.547.547,0,0,0,.484.458l.086.024.537.234.087.121,0,.006c0,.045-.011.09-.016.137a1.3,1.3,0,0,0,.222,1.169l.375.555-.234.043.658.833.072-.755.222.123.131-.209-.358-.327-.083-.614.017-.008.411.475-.043-.586.719.139v.059l-.01.032c-.058.175-.129.393.1.557a.735.735,0,0,1,0,.179c0,.07-.005.149,0,.238v.018l.01.014c.032.051.065.116.1.185a1.124,1.124,0,0,0,.6.645c.043.013.253.075.323-.022.159-.218.277-.142.443-.038.034.021.07.044.105.063s.051.027.075.042a.749.749,0,0,0,.406.138,2.158,2.158,0,0,0,.519-.139l.158-.055.012.87c0,.037,0,.074,0,.111a2.092,2.092,0,0,1,0,.223c-.01.132-.027.267-.042.4-.007.055-.013.109-.02.163l-.132.4c.005-.134.009-.268.015-.4l.005-.121-.136-.053-.351.718c-.083-.021-.167-.048-.25-.076a1.248,1.248,0,0,0-.658-.1,2.316,2.316,0,0,1-1.243-.131l-.054-.015a1.442,1.442,0,0,0-.44-.035c-.054,0-.108,0-.162,0a1.276,1.276,0,0,0-.868-.725l-.068-.027a.372.372,0,0,0-.363,0c-.121.082-.172.263-.216.527a.783.783,0,0,1-.342.442l-.087-.026c-.337-.1-.759-.227-.888-.5a1.408,1.408,0,0,0-.88-.726c-.079-.032-.16-.064-.239-.1l-.034-.016-.186.233-.214-.787.23-.3-.234-.362.291-.306-.053-.044c-.257-.211-.585-.4-.889-.017-.024-.036-.05-.069-.092-.072-.119-.007-.24,0-.358,0a2.365,2.365,0,0,1-.658-.047,2.241,2.241,0,0,0-1.994.5c-.044-.022-.085-.041-.117-.054-.173-.075-.357-.125-.535-.189-.222-.082-.29-.182-.477-.132l0,0,0,0a.784.784,0,0,0-.1.037c-.231.1-.408.324-.633.448a3.9,3.9,0,0,0-.661.395,1.21,1.21,0,0,0-.414,1.024.847.847,0,0,1-.59.557,2.538,2.538,0,0,0-.655.356c-.193.144-.421.18-.594.351-.159.154-.113.438-.137.63-.038.306-.39.55-.589.758a3.362,3.362,0,0,0-.5.718,1.488,1.488,0,0,0,.083,1.313.952.952,0,0,1-.059.9c-.12.2-.338.426-.322.678a.552.552,0,0,0,.225.418c.286.251-.161.454-.221.685-.108.415.246.656.578.816a3.611,3.611,0,0,1,.537.291l.176.363a.9.9,0,0,0,.4,1c.245.492.562,1.014,1.212,1.052.036,0,.073.011.109.016a.831.831,0,0,0,.255.015c.281-.04.558-.088.852-.14l.31-.054a.038.038,0,0,0,.017.006.044.044,0,0,0,.037-.006l.126.25.038-.01c.077-.02.153-.039.23-.056a3.1,3.1,0,0,0,.561-.167.557.557,0,0,0,.212-.256l.037-.065.2.251.039-.056.03-.04a.517.517,0,0,0,.071-.111.662.662,0,0,0,.026-.081c.066.067.137.113.2.086s.119-.129.145-.327a1.814,1.814,0,0,1,.055-.253l-.043.463.123.051c.4.165.77.32.748.924l0,.062.828.011a1.506,1.506,0,0,1,.478,1.041.427.427,0,0,0-.194.273.391.391,0,0,0,.081.284.852.852,0,0,1-.361.585l-.024.018-.006.027a.3.3,0,0,0,.028.167c.168.292.338.582.507.873l.162.276a1.771,1.771,0,0,1,.054.18c.049.188.1.4.322.453a.23.23,0,0,0-.018.025c-.061.085-.131.18-.1.279a.219.219,0,0,0,.135.136.362.362,0,0,0-.105.19.388.388,0,0,0,.07.279.562.562,0,0,1,.058.639.5.5,0,0,0,0,.366,1.628,1.628,0,0,1-.295,1.5l-.033.057a5.522,5.522,0,0,0-.385.963c-.05.152-.1.312-.162.47l-.027.073.3.046a.416.416,0,0,0-.145.2.643.643,0,0,0,.082.484,4.831,4.831,0,0,1,.249.648l.013.037a8.825,8.825,0,0,1,.3,2.763c0,.261.042.569.332.68a.16.16,0,0,0-.036.14c.046.133.1.263.151.39.081.2.166.413.228.626a1.476,1.476,0,0,1,.045.626.807.807,0,0,0,.142.64.53.53,0,0,0,.367.2.669.669,0,0,0,.154-.006c.071-.011.143-.025.213-.038a1.343,1.343,0,0,1,1.048.081.227.227,0,0,0,.226,0c.136-.093.273-.182.411-.271a8.064,8.064,0,0,0,1.074-.781,8.881,8.881,0,0,0,.881-.975c.129-.157.263-.321.4-.484l.046-.053-.421-.328.024-.006c.13-.031.254-.059.284-.156a.852.852,0,0,1,.572-.549c.584-.254.733-.623.527-1.314-.113-.379-.08-.459-.067-.475A12.461,12.461,0,0,1,442,150.837a3.044,3.044,0,0,1,.408-.31,2.544,2.544,0,0,0,.525-.429,1.459,1.459,0,0,0,.232-1.187,2.355,2.355,0,0,1,0-.7l0-.019,0-.018c-.025-.075-.058-.15-.087-.222a1.329,1.329,0,0,1-.133-.461c-.009-.449.012-.908.032-1.351.008-.172.016-.345.022-.516.046-.061.091-.123.135-.184.1-.144.212-.29.322-.43.128-.166.263-.329.393-.487.054-.064.107-.128.159-.193l.054-.026a.463.463,0,0,0,.147-.093c.127-.128.252-.262.377-.393.191-.2.388-.411.59-.6a4.236,4.236,0,0,1,.367-.3,2.647,2.647,0,0,0,.6-.569,20.071,20.071,0,0,0,1.212-2.106,3.371,3.371,0,0,0,.238-.694c.03-.113.062-.23.1-.348l.031-.1-.09.021c-.146.035-.281.07-.409.1a6.818,6.818,0,0,1-.74.162c-.107.015-.217.041-.323.064-.444.1-.863.2-1.162-.377-.031-.06-.106-.051-.192-.042l-.034,0-.023-.208.168-.16-.02-.044c-.038-.08-.07-.165-.1-.249a2.516,2.516,0,0,0-.267-.542c-.08-.11-.171-.209-.259-.307a1.307,1.307,0,0,1-.472-1.007c0-.082-.067-.141-.142-.2a.792.792,0,0,1-.066-.058l-.13-.384c-.025-.075-.056-.149-.086-.221a1.414,1.414,0,0,1-.135-.458l0-.059c-.032-.616-.052-.717-.475-.767l.273-.119-1.065-3,.533.849.1-.545.016.037c.047.1.093.21.138.318.106.243.215.494.334.737.088.18.195.357.3.528a2.8,2.8,0,0,1,.471,1.069,3.863,3.863,0,0,0,.518,1.385,5.385,5.385,0,0,1,.38.813.508.508,0,0,0,.241.24c.028.018.057.037.084.056a2.351,2.351,0,0,0,.065,1.526c.069.215.143.372.426.275.183-.063.374-.12.557-.175a3.974,3.974,0,0,0,2.2-1.253.943.943,0,0,0,.75-.244,1.975,1.975,0,0,1,.314-.186.87.87,0,0,0,.327-.372c.034-.056.067-.112.1-.162a1.788,1.788,0,0,0,.1-.166.813.813,0,0,1,.152-.223,1.016,1.016,0,0,0,.41-.691.675.675,0,0,0-.233-.512,4.52,4.52,0,0,0-.539-.43c-.074-.054-.148-.106-.22-.161l.027-.362-.074.024a.752.752,0,0,1-.093.024.372.372,0,0,0-.22.1.784.784,0,0,1-.955.3c-.038-.016-.06.01-.085.061l-.118-.21c-.139-.247-.278-.493-.415-.742a1.505,1.505,0,0,1-.071-.167,1.217,1.217,0,0,0-.111-.232c-.177-.26-.363-.518-.544-.767-.059-.082-.117-.164-.179-.246l.023-.022c.05-.052.1-.1.149-.155s.07-.08.1-.121l.03-.037c.044,0,.09,0,.133.005a1.328,1.328,0,0,1,.331.037c.244.074.314.313.386.566.015.055.03.108.048.161.147.447.932,1.01,1.318.847.34-.144.506.017.69.366a1.3,1.3,0,0,0,1.19.49.451.451,0,0,0,.163-.181c.007-.011.013-.022.021-.032a.9.9,0,0,0,1.019.3.551.551,0,0,1,.654.187,1,1,0,0,1,.162.248,1.169,1.169,0,0,0,.175.268,4.013,4.013,0,0,0,.462.392c.042.033.085.065.126.1l-.242.145.009.047c.086.428.29.647.576.617a.856.856,0,0,0,.41-.233l.117-.093.014.036a.606.606,0,0,1,.07.337,3.222,3.222,0,0,0,.153,1.833l.049.168c.135.477.263.964.386,1.437.116.441.236.9.362,1.344a2.752,2.752,0,0,0,.2.48c.039.079.08.161.12.251l.035.079.817-1.083c.061-.062.058-.17.053-.3a.957.957,0,0,1,.021-.306,2.024,2.024,0,0,0,.108-1.208.287.287,0,0,1,.076-.166l.1-.1c.329-.323.669-.657,1.021-.962.2-.178.424-.342.636-.5.118-.088.236-.177.352-.267a.222.222,0,0,0,.077-.172.356.356,0,0,1,.4-.459c.047-.007.1-.014.141-.024s.1-.015.156-.022a.569.569,0,0,0,.393-.141c.086-.1.159-.153.2-.149s.1.1.155.218l.022.047c.1.2.209.409.313.607.137.257.279.525.4.8a6.631,6.631,0,0,1,.276.785c.031.1.061.2.1.3.024.077.044.158.056.219,0,.021.009.04.013.055l.014.06.687-.265a4.709,4.709,0,0,0,.184.73,3.354,3.354,0,0,1,.2,1.766l0,.022.007.019a.057.057,0,0,0,.019.025c-.021.074-.048.151-.075.227a1.079,1.079,0,0,0-.1.643,2.431,2.431,0,0,0,.464.717c.069.083.14.169.205.255a2.586,2.586,0,0,0,.444,1.76.865.865,0,0,0,.588.358.645.645,0,0,0,.123,0l.071-.006-.022-.077c-.027-.092-.065-.186-.1-.278a.974.974,0,0,1-.116-.513,1.019,1.019,0,0,0-.339-1.1.832.832,0,0,0-.315-.378.651.651,0,0,1-.32-.493,2.393,2.393,0,0,0-.123-.53,2.05,2.05,0,0,1-.117-.534,2.263,2.263,0,0,1,.149-.73c.022-.069.044-.138.063-.207a.677.677,0,0,1,.1-.182v.04l.789.537.347.8.377-.113-.078.82.09-.063c.121-.085.239-.167.355-.247.3-.2.574-.395.84-.614a.758.758,0,0,0,.231-.527,3.224,3.224,0,0,0-.672-2.082c-.4-.472-.545-.756-.524-1.01.021-.229.191-.463.567-.775a.535.535,0,0,1,.5.011.944.944,0,0,1,.325.645l.016.084-.478.237.225.633.461-.7-.093-.231-.037.018.009-.049c.1-.532.375-.658.826-.7a2.24,2.24,0,0,0,1.474-.6,2.954,2.954,0,0,0,.658-1.259c.055-.168.113-.342.18-.505a.915.915,0,0,0,.1-.648.466.466,0,0,0-.331-.259.089.089,0,0,0,0-.012.348.348,0,0,0,.186-.24.5.5,0,0,0-.193-.378,2.275,2.275,0,0,1-.293-.426c-.038-.064-.075-.127-.114-.189s-.065-.1-.1-.148a3.9,3.9,0,0,1-.262-.442.534.534,0,0,1-.056-.318,5.676,5.676,0,0,1,.456-.543c.061-.067.121-.134.181-.2l.061-.069-.078-.032a1.329,1.329,0,0,1-.139-.073c-.19-.11-.423-.245-.678.074l-.78-.724.168-.123c.145-.105.26-.189.374-.279s.218-.179.321-.269c.031-.026.061-.052.09-.078.016.034.033.068.048.1.06.124.12.253.171.383a1.55,1.55,0,0,1,.069.26c0,.024.01.044.013.058l.017.067.709-.377a.643.643,0,0,0,.184.194c.144.115.248.2.123.444l-.013.029.009.027a.389.389,0,0,0,.163.163c.1.04.2.07.291.1l.092.029c.03.08.061.16.091.24.074.191.149.388.21.586.1.311.17.477.294.525s.283-.036.528-.211a.412.412,0,0,0,.152-.348,1.521,1.521,0,0,0-.866-1.065l-.324-.516.072-.039a1.335,1.335,0,0,0,.247-.159.852.852,0,0,0,.2-.306l0-.031-.018-.019c-.128-.135-.077-.236-.007-.377a.851.851,0,0,0,.079-.2c.148-.267.3-.312.55-.164.124.075.413-.053.493-.19a3.835,3.835,0,0,0,.511-2.244,1.6,1.6,0,0,0-.117-.536,3.422,3.422,0,0,0-.2-.354,2.882,2.882,0,0,1-.207-.383,1.2,1.2,0,0,0-1.256-.841l-.082-.333-.219.23-.155-.358-.4-.039.094-.242c.085-.21.162-.41.23-.611a.918.918,0,0,1,1.176-.691,1.342,1.342,0,0,0,.374.043,1.972,1.972,0,0,1,.236.014,7.758,7.758,0,0,1,.788.149c.005.025.011.074.015.112s.012.1.022.158l.013.072.85-.435-.189-.1c.009-.055.019-.11.027-.167a1.225,1.225,0,0,1,.119-.446c.036-.06.255-.08.4-.037a1.123,1.123,0,0,1,.279.154,1.4,1.4,0,0,0,.262.15.349.349,0,0,0,.334-.138,1.274,1.274,0,0,0,.156-.313c.011-.031.022-.061.035-.09l.108.019c.023.074.052.148.08.22a1.263,1.263,0,0,1,.126.527,2.2,2.2,0,0,1-.32.879.78.78,0,0,0,0,.892c.2.307.412.609.617.9l.1.148q.068.1.135.2a6.151,6.151,0,0,0,.465.624.526.526,0,0,0,.291.133,1.2,1.2,0,0,1,.129.034l.075.027-.005-.091c-.009-.151-.024-.287-.038-.418a2.525,2.525,0,0,1-.015-.683,1.658,1.658,0,0,0-.219-1.2c-.188-.2-.373-.412-.552-.615l-.213-.243.031-.094.246-.09c.223-.081.453-.166.684-.23a.423.423,0,0,1,.344.031.389.389,0,0,0,.33.112.5.5,0,0,0,.3-.264.715.715,0,0,1,.774-.375,1.511,1.511,0,0,0,.2.009h.129l.186,0-1.174-.893.1-.069.089-.439c.108.17.233.331.4.358a.464.464,0,0,0,.374-.14.562.562,0,0,1,.094.049l.2.122a3.712,3.712,0,0,0,.406.238.4.4,0,0,0,.329-.027.6.6,0,0,0,.176-.168c.027-.033.057-.07.094-.109l.055-.061ZM442.6,131.5l.037-.215.113-.234c-.007.08-.014.162-.024.251l0,.061.2.019Z" transform="translate(-393.624 -105.839)" fill="#95b374"/>
              </g>
              <g id="Grupo_1017535" data-name="Grupo 1017535" clip-path="url(#clip-path)">
                <path id="Trazado_719512" data-name="Trazado 719512" d="M280.562,117.346a1.868,1.868,0,0,1-.754-.595c-.209-.34-.421-.5-.668-.511a1.254,1.254,0,0,1-.436-.128c-.034-.013-.068-.028-.1-.042a.834.834,0,0,0-.183-.415,2,2,0,0,0-.819-.46c-.337-.15-.356-.531-.689-.672-.213-.09-.421-.036-.518-.31a1.4,1.4,0,0,1,.007-.561,1.4,1.4,0,0,0-.181-.865,2.078,2.078,0,0,0-.735-.728,1.8,1.8,0,0,0-.468-.194c-.223-.063-.339-.071-.393-.309a.982.982,0,0,0-.529-.6,1.443,1.443,0,0,1-.52-.363,1.182,1.182,0,0,1-.143-.455c-.119-.615-.61-.514-1.094-.357-.346.113-.636-.332-.984-.382a.944.944,0,0,1-.594-.253c-.135-.117-.474-.207-.519-.388-.05-.2-.131-.326-.352-.264a.582.582,0,0,0-.236.2c-.169.2-.279.352-.578.361-.806.026-.8.862-1.307,1.272a1.061,1.061,0,0,1-.2-.125.754.754,0,0,0-.626-.176.85.85,0,0,1-.9-.114c-.024-.094-.052-.19-.08-.283a1.972,1.972,0,0,1-.12-.653,2.548,2.548,0,0,1,.172-.684c.042-.123.087-.251.12-.379a.843.843,0,0,0,.005-.6.4.4,0,0,0-.326-.193c-.223-.03-.45-.04-.671-.051l-.29-.015c-.129-.008-.206-.038-.228-.091s0-.151.07-.284c.21-.4.416-.822.615-1.224q.126-.256.252-.51l.026-.052-.044-.03a.777.777,0,0,0-.7-.155.881.881,0,0,0-.482.505,1.162,1.162,0,0,1-.693.564.98.98,0,0,1-.846-.039,2.242,2.242,0,0,1-.509-1.944c.092-.249.194-.5.291-.735.045-.108.089-.214.13-.321l.017-.041-.182-.2.052-.023c.114-.049.224-.1.252-.2a.938.938,0,0,1,.586-.661,3.12,3.12,0,0,0,.349-.182,3.223,3.223,0,0,1,.375-.191,1.112,1.112,0,0,1,.6-.124,2.378,2.378,0,0,1,.587.255l.043.022a1.062,1.062,0,0,0,.455.551.071.071,0,0,0,.1-.048.925.925,0,0,0-.086-.64,1.494,1.494,0,0,1,1.1.327,1.179,1.179,0,0,1,.39,1.154c-.03.446.09,1.206.7,1.215.779.012.429-1.759.623-2.206.364-.823,1.356-.984,1.992-1.486a1.543,1.543,0,0,0,.45-.91c.157-.593.569-.311.934-.563a.8.8,0,0,0,.233-.31c.134-.26.21-.436.5-.56.344-.145.713-.175.926-.513.113-.183.073-.4.212-.584.107-.14.361-.2.515-.285a.651.651,0,0,0,.4-.567.287.287,0,0,0-.023-.105,1.443,1.443,0,0,0,.106-.14c.016-.025.036-.05.052-.073a.691.691,0,0,0,.881-.141l.012.011c.034.08.058.168-.007.214a.49.49,0,0,1-.1.053h0a2.315,2.315,0,0,1-.356.08.856.856,0,0,0-.516.209c-.146.166-.241.68.074.745a.563.563,0,0,0,.473-.156,1.65,1.65,0,0,1,.8-.384c.39-.065.93-.091,1.129-.5.1-.211-.211-.333-.352-.378-.188-.062-.38-.107-.562-.184a1.179,1.179,0,0,1-.234-.245,1.367,1.367,0,0,1,.337.022c.224.022.467-.007.388-.287a.721.721,0,0,0-.444-.342.687.687,0,0,0-.677-.123,3.494,3.494,0,0,0-.513.192c-.113.049-.23.1-.346.14-.023.009-.069-.015-.109-.035l-.023-.011c0-.008,0-.017.008-.025a.369.369,0,0,1,.041-.1c.124-.057.25-.118.375-.18a2.494,2.494,0,0,1,1.728-.39,3.067,3.067,0,0,0,2.347-.511.694.694,0,0,0,.253-.579.447.447,0,0,0-.225-.293.406.406,0,0,0-.378.042.858.858,0,0,1-.293.085c-.034,0-.066.011-.1.016l0-.02.7-.24-.081-.073c-.043-.039-.087-.072-.126-.1a.535.535,0,0,1-.163-.164,1.52,1.52,0,0,1-.19-.6,6.4,6.4,0,0,1,.06-.814c.016-.13.032-.265.045-.407l.011-.109-1.3.756c-.027-.037-.056-.072-.083-.107-.168-.207-.279-.344-.074-.616.073-.1-.011-.368-.084-.467a1.537,1.537,0,0,0-.414-.355c-.688-.434-1.053-.326-1.5.446l-.032.058a.347.347,0,0,1-.093.133.735.735,0,0,0-.428.919.347.347,0,0,1-.112.188c-.32.245-.648.483-.994.737l-.381.278-.007.018c-.015.041-.031.093-.049.155a1.625,1.625,0,0,1-.227.527.733.733,0,0,1-.567.254.8.8,0,0,1-.165-.527,1.642,1.642,0,0,1,.25-.524c.051-.084.105-.169.155-.261l.036-.065-.062-.025c-.036-.014-.074-.027-.113-.041a1.48,1.48,0,0,1-.25-.105c-.441-.253-.952-.551-1.451-.865a.62.62,0,0,1-.165-.243l-.019-.039c-.049-.1-.09-.2-.14-.325l-.059-.151c.028-.04.056-.084.086-.131a1.2,1.2,0,0,1,.3-.351,6.689,6.689,0,0,1,.671-.362c.177-.088.361-.177.537-.279a.6.6,0,0,1,.168-.056c.165-.039.368-.089.388-.415a.9.9,0,0,1,.179-.035c.271-.019.542-.034.842-.05l.448-.025-.317-.529c.185-.113.257.01.332.139a.569.569,0,0,0,.074.107l.02.02.025-.007c.131-.036.255-.079.377-.121a1.849,1.849,0,0,1,.7-.153c.6.044.915-.355,1.25-.777l.093-.116-.052-.04a.642.642,0,0,0-.981.056,1.769,1.769,0,0,1-.508.325c-.044.022-.089.044-.132.067a.224.224,0,0,1-.128-.008l-.032-.007c0-.01,0-.02,0-.03a.837.837,0,0,1,.023-.176.921.921,0,0,1,.074-.168c.012-.026.026-.05.036-.074l.02-.041-.028-.032c-.012-.014-.022-.027-.031-.038a.12.12,0,0,0-.072-.059c-.2-.032-.309-.059-.341-.121s0-.2.075-.455c.013-.045.04-.216-.029-.259a.3.3,0,0,0-.248-.037c-.17.069-.332.146-.5.228-.063.031-.126.061-.19.091l-.068.032.044.065a.52.52,0,0,1,.138.424c-.032.1-.145.176-.336.222l-.022,0a1.076,1.076,0,0,0-.435.175.34.34,0,0,1-.562-.055.6.6,0,0,0-.365-.15l-.012,0a2.011,2.011,0,0,0-.263-.022,1.164,1.164,0,0,1-.395-.062,1.225,1.225,0,0,0-1.029-.074,2.642,2.642,0,0,0-.463.3c-.053.04-.107.081-.164.122a.658.658,0,0,0-.2-.419.634.634,0,0,0-.579-.076.868.868,0,0,1-.4-.052c-.052-.013-.107-.029-.166-.043l.275-.293-.086-.031c-.113-.041-.228-.078-.34-.115a5.959,5.959,0,0,1-.726-.274,1.553,1.553,0,0,0-.618-.115,1.316,1.316,0,0,1-.747-.19,1.014,1.014,0,0,0-.78.006,2.757,2.757,0,0,1-.421.081l-.048,0a11.087,11.087,0,0,1-1.343.045,2.118,2.118,0,0,1-.55-.134c-.084-.029-.167-.056-.249-.08-.044-.026-.089-.055-.132-.083a1.337,1.337,0,0,0-.326-.173c-.15-.047-.3-.081-.454-.113a3.952,3.952,0,0,1-.56-.15,5.267,5.267,0,0,0-2.662-.219c-.578.085-1.162.2-1.727.312l-.151.029a1.7,1.7,0,0,0-.321.111c-.05.022-.1.043-.157.063l-.071.026.338.548c-.077.019-.151.042-.223.064a.8.8,0,0,1-.493.061,1.394,1.394,0,0,0-1.166.14l-.085.037-.015.25,1.177.111.006.1c-.082.032-.165.066-.245.1a4.311,4.311,0,0,1-.64.229,3.716,3.716,0,0,1-.493.071,2.849,2.849,0,0,0-.662.119,1.565,1.565,0,0,0-.51.372c-.069.065-.139.132-.209.189l-.043.034.109.2.341.033-.449.315.015.2.837.079v.05a5.787,5.787,0,0,1-2.657.94l.006.122a14.873,14.873,0,0,0,3.4-.849c.626-.21,1.269-.426,1.916-.589l-.7.336.062.224.047-.018.4-.142c.357-.129.726-.264,1.093-.383a.6.6,0,0,1,.34.018,4.891,4.891,0,0,1,.756.3,3.291,3.291,0,0,1,.443.293c.053.04.106.079.16.117.035.025.068.054.1.083a.714.714,0,0,0,.2.142.568.568,0,0,1,.36.383.554.554,0,0,1-.085.44.469.469,0,0,0-.1.334.367.367,0,0,0,.187.235c-.031.037-.065.075-.1.113-.143.161-.256.289-.224.4a.849.849,0,0,1-.106.652,1.16,1.16,0,0,0-.1.257l-.007.03.016.024c.052.072.1.139.14.2.087.125.162.234.241.337a1.106,1.106,0,0,0,.691.5.514.514,0,0,0-.648.355.432.432,0,0,1-.178.161l-.072.047.188-.261-.034-.039c-.078-.093-.174-.185-.282-.172-.086.011-.165.082-.255.231l-.073.12c-.492.815-1,1.658-1.563,2.427A1.367,1.367,0,0,0,257,97.1a.252.252,0,0,1-.017.051.32.32,0,0,0-.031.126c.007.121,0,.264,0,.4-.011.361-.022.7.132.846a1.925,1.925,0,0,1,.26.337,1.21,1.21,0,0,0,.524.525l-.167-.016-.015.043a1.51,1.51,0,0,0,0,1.32l.022.083a.9.9,0,0,1-.018.371c-.009.05-.019.1-.025.153l-.167.045.06.078c.035.046.072.09.109.135a3.179,3.179,0,0,1,.234.316l.008.012c.055.091.17.28.147.353a.766.766,0,0,0,.207.817,1.2,1.2,0,0,1,.168.236l.156.314-.058-.359a2.382,2.382,0,0,0-.07-.278,1.393,1.393,0,0,1-.071-.314,6.086,6.086,0,0,0-.34-1.9.753.753,0,0,1-.037-.213,1.03,1.03,0,0,0-.033-.22.473.473,0,0,1,.013-.351.264.264,0,0,1,.185-.144.23.23,0,0,1,.213.049.528.528,0,0,1,.127.359,6.651,6.651,0,0,0,.8,2.6l.037.073a1.843,1.843,0,0,1,.255,1.632.588.588,0,0,0,.056.44,3.855,3.855,0,0,0,1.408,1.254c.135.084.274.171.408.262a1.586,1.586,0,0,1,.129.1.616.616,0,0,0,.643.18c.555-.2.688-.132,1.013.512a1.4,1.4,0,0,0,1.407.7,1.161,1.161,0,0,0,.213.637.948.948,0,0,1,.188.684c-.016.082.055.163.145.255a1.571,1.571,0,0,0,.161.14.625.625,0,0,1,.235.26c.043.132.085.2.143.221a.21.21,0,0,0,.181-.029l.742.651.01-.114a.6.6,0,0,1,.131-.392.393.393,0,0,1,.329-.1.258.258,0,0,1,.212.09.559.559,0,0,1,.042.368.63.63,0,0,0,.034.233.7.7,0,0,1,.031.165c0,.1,0,.2.009.3a2.393,2.393,0,0,1-.054.8,3.65,3.65,0,0,1-.424.8c-.071.112-.145.227-.211.341L266,114.556l.325.422-.128.326a.845.845,0,0,0-.32.566.858.858,0,0,0,.2.641,1.994,1.994,0,0,1,.338.606c.076.226.141.464.2.695.066.246.135.5.22.744a9.736,9.736,0,0,0,.542,1.276,3.938,3.938,0,0,0,.572.814,6.294,6.294,0,0,0,.649.592l.111.092c.137.114.283.22.422.322l.151.11c-.005.011-.011.022-.016.032a.413.413,0,0,0-.062.22c.017.148.047.3.074.442a2.533,2.533,0,0,1,.078.769c-.017.155-.037.308-.056.46a9.578,9.578,0,0,0-.107,1.445,8.153,8.153,0,0,1-.045.914c-.024.272-.049.554-.048.833,0,.182,0,.366.009.548a8.793,8.793,0,0,1-.128,2.1,3.412,3.412,0,0,0,.023,1.161c.022.165.044.336.055.5a.236.236,0,0,0,.086.153,1.61,1.61,0,0,1,.43,1.123c.012.1.026.211.044.316l-.012.113-.021.007v-.031l-.043.029-.042-.081-.1.151-.017.212.081.03a.1.1,0,0,0,.01.026h0a.114.114,0,0,0,0,.048l-.124.208.017.032c.056.11.115.212.173.308a1.718,1.718,0,0,1,.257.578,3.428,3.428,0,0,0,.843,1.8.774.774,0,0,0,.516.173l.054,0h0c.076.008.145-.063.2-.119a.452.452,0,0,1,.045-.041l.076-.057-.324-.2.379.036-.013-.095c-.061-.428-.061-.428.295-1.079a.6.6,0,0,0-.084-.812,1.514,1.514,0,0,1-.232-.364c-.028-.052-.057-.108-.089-.166.553-.112.528-.51.506-.863-.005-.084-.011-.169-.009-.25l.735.144-.433-.209c-.274-.131-.5-.271-.5-.611l.893.085-.039-.1c-.15-.378-.19-.6-.128-.719s.215-.168.528-.191a1.225,1.225,0,0,0,.724-.356.63.63,0,0,0,.16-.473,1.117,1.117,0,0,0-.389-.8c-.143-.117-.178-.2-.128-.342l.169.086c.156.079.319.163.474.253a.524.524,0,0,0,.525.046.754.754,0,0,0,.326-.512l.453-.619a2.057,2.057,0,0,0,.56-.986,3.108,3.108,0,0,1,.293-.669.54.54,0,0,0,.1-.4.706.706,0,0,1-.056-.475c.057-.187.23-.317.468-.454l.035-.018c.286-.163.582-.332.878-.486a.17.17,0,0,1,.143.008.48.48,0,0,0,.428.078.866.866,0,0,0,.434-.494,6.427,6.427,0,0,0,.793-3.085,1.063,1.063,0,0,1,.139-.561,8.314,8.314,0,0,1,.513-.706c.071-.091.142-.182.212-.275,0-.005.011-.01.018-.018a.17.17,0,0,0,.046-.05c.061-.109.126-.214.189-.319a5.574,5.574,0,0,0,.418-.785A.757.757,0,0,0,280.562,117.346Z" transform="translate(-250.141 -81.615)" fill="#95b374"/>
              </g>
            </g>
            <path id="Trazado_719514" data-name="Trazado 719514" d="M269.429,135.068c-3.295-11.006-20.567-2.176-16.583-26.049a30.691,30.691,0,0,1,2.961-9.6,26.016,26.016,0,1,0,38.8,32.934C289.493,136.3,271.427,141.743,269.429,135.068Z" transform="translate(-245.676 -93.993)" fill="#95b374" opacity="0.2"/>
          </g>
          <g id="Grupo_1017541" data-name="Grupo 1017541" transform="translate(5.283 4.711)">
            <path id="Trazado_719515" data-name="Trazado 719515" d="M206.415,118.62V118a.26.26,0,0,0-.26-.261h-.194a.29.29,0,0,1-.273-.193,1.938,1.938,0,0,0-.107-.257.294.294,0,0,1,.056-.331l.138-.137a.26.26,0,0,0,0-.368l-.44-.439a.261.261,0,0,0-.369,0l-.137.136a.288.288,0,0,1-.33.055,2.432,2.432,0,0,0-.258-.106.289.289,0,0,1-.194-.273v-.194a.261.261,0,0,0-.261-.26h-.621a.261.261,0,0,0-.261.26v.194a.288.288,0,0,1-.193.273,2.274,2.274,0,0,0-.257.106.288.288,0,0,1-.33-.055l-.138-.136a.26.26,0,0,0-.368,0l-.44.439a.261.261,0,0,0,0,.368l.136.137a.287.287,0,0,1,.056.331,2.322,2.322,0,0,0-.106.257.289.289,0,0,1-.273.193H200.8a.261.261,0,0,0-.261.261v.622a.261.261,0,0,0,.261.26h.193a.289.289,0,0,1,.273.194,2.466,2.466,0,0,0,.106.257.285.285,0,0,1-.056.33l-.136.137a.262.262,0,0,0,0,.369l.44.439a.261.261,0,0,0,.368,0l.138-.138a.289.289,0,0,1,.33-.055,2.244,2.244,0,0,0,.257.107.288.288,0,0,1,.193.273v.194a.261.261,0,0,0,.261.26h.621a.261.261,0,0,0,.261-.26v-.194a.288.288,0,0,1,.194-.273,2.361,2.361,0,0,0,.258-.107.289.289,0,0,1,.33.055l.137.138a.262.262,0,0,0,.369,0l.44-.439a.262.262,0,0,0,0-.369l-.138-.137a.293.293,0,0,1-.056-.33,2.049,2.049,0,0,0,.107-.257.289.289,0,0,1,.273-.194h.194A.26.26,0,0,0,206.415,118.62Zm-2.825,1.1a1.416,1.416,0,1,1,1.3-1.3A1.416,1.416,0,0,1,203.59,119.721Z" transform="translate(-184.027 -109.071)" fill="#bac9e7"/>
            <g id="Grupo_1017540" data-name="Grupo 1017540">
              <g id="Grupo_1017538" data-name="Grupo 1017538" transform="translate(0 3.557)">
                <path id="Trazado_719516" data-name="Trazado 719516" d="M115.571,191.478c.089-3.791-4.114-6.9-6.228-9.8a13.639,13.639,0,0,1-2.529-10.725,6.794,6.794,0,0,1,6.234-5.379c2.623-.229,5.41,1.442,7.738-.168,3.5-2.42.973-7.181,1.355-7.971" transform="translate(-106.535 -147.303)" fill="none" stroke="#598e5f" stroke-miterlimit="10" stroke-width="0.5" stroke-dasharray="2 2"/>
                <path id="Trazado_719517" data-name="Trazado 719517" d="M174.467,105.663v-1.13a.475.475,0,0,0-.474-.474h-.352a.522.522,0,0,1-.5-.352,4.452,4.452,0,0,0-.194-.468.525.525,0,0,1,.1-.6l.248-.248a.474.474,0,0,0,0-.67l-.8-.8a.474.474,0,0,0-.67,0l-.248.248a.525.525,0,0,1-.6.1,4.328,4.328,0,0,0-.469-.195.525.525,0,0,1-.351-.5v-.351a.474.474,0,0,0-.473-.474h-1.13a.474.474,0,0,0-.475.474v.351a.524.524,0,0,1-.353.5,4.461,4.461,0,0,0-.467.195.524.524,0,0,1-.6-.1l-.249-.248a.473.473,0,0,0-.67,0l-.8.8a.474.474,0,0,0,0,.67l.247.248a.524.524,0,0,1,.1.6,4.085,4.085,0,0,0-.194.468.525.525,0,0,1-.5.352h-.351a.475.475,0,0,0-.474.474v1.13a.474.474,0,0,0,.474.473h.351a.525.525,0,0,1,.5.352,4.132,4.132,0,0,0,.194.468.523.523,0,0,1-.1.6l-.247.248a.475.475,0,0,0,0,.671l.8.8a.474.474,0,0,0,.67,0l.249-.248a.525.525,0,0,1,.6-.1,4.463,4.463,0,0,0,.467.195.523.523,0,0,1,.353.5v.352a.474.474,0,0,0,.475.474h1.13a.474.474,0,0,0,.473-.474v-.352a.524.524,0,0,1,.351-.5,4.331,4.331,0,0,0,.469-.195.527.527,0,0,1,.6.1l.248.248a.474.474,0,0,0,.67,0l.8-.8a.474.474,0,0,0,0-.671l-.248-.248a.524.524,0,0,1-.1-.6,4.476,4.476,0,0,0,.194-.468.522.522,0,0,1,.5-.352h.352A.474.474,0,0,0,174.467,105.663Zm-5.134,2a2.573,2.573,0,1,1,2.355-2.355A2.573,2.573,0,0,1,169.333,107.661Z" transform="translate(-153.729 -99.755)" fill="#32436b"/>
              </g>
              <g id="Grupo_1017539" data-name="Grupo 1017539" transform="translate(66.168)">
                <path id="Trazado_719518" data-name="Trazado 719518" d="M525.386,86.733c2.42-5.672,7.3-7.607,11.2-7.174a8.98,8.98,0,0,1,6.955,6.245c1.03,3.158.864,7.181.338,10.543a31.85,31.85,0,0,0-.676,8.225c.261,3.03,1.523,5.146,2.546,7.546,1.559,3.658,2.393,6.969,1.432,11.424-.8,3.721-2.165,6.368-4.366,7.719a19.691,19.691,0,0,1-6.14,2.132c-.673.155-2.305.832-2.6.625" transform="translate(-518.001 -79.5)" fill="none" stroke="#598e5f" stroke-miterlimit="10" stroke-width="0.5" stroke-dasharray="2 2"/>
                <path id="Trazado_719519" data-name="Trazado 719519" d="M493.6,90.159a5.133,5.133,0,1,1-5.133-5.133A5.133,5.133,0,0,1,493.6,90.159Z" transform="translate(-483.333 -84.056)" fill="#bac9e7"/>
                <path id="Trazado_719520" data-name="Trazado 719520" d="M494.131,104.077l2.159,4.034h2.159L500.9,102.7h-1.625l-1.758,4.345-1.8-3.04Z" transform="translate(-492.235 -98.623)" fill="#32436b"/>
              </g>
            </g>
          </g>
          <g id="Grupo_1017556" data-name="Grupo 1017556" transform="translate(54.146 10.092)">
            <g id="Grupo_1017555" data-name="Grupo 1017555">
              <g id="Grupo_1017543" data-name="Grupo 1017543" transform="translate(1.589 16.392)">
                <path id="Trazado_719521" data-name="Trazado 719521" d="M399.813,209.709a26.771,26.771,0,0,0-3.051-1.725,8.028,8.028,0,0,1-1.941-1.135,5.075,5.075,0,0,1-.951-1.3c.647-.231,1.23.243,1.663.766a5.685,5.685,0,0,1-1.7-2.578c.252-.189.6.047.815.27l1.381,1.436-.807-1.376c-.115-.2-.174-.523.057-.574.132-.03.25.073.34.168l1.472,1.539a3.091,3.091,0,0,0,3.646.075c.092-.066.146-.183.256-.218.227-.075.454.157.466.384a1.482,1.482,0,0,1-.209.649,2.826,2.826,0,0,0,.584,3.124c-.6.379-1.44.878-2.022.5" transform="translate(-393.835 -203.487)" fill="#bb535d"/>
                <path id="Trazado_719522" data-name="Trazado 719522" d="M418.464,230.046c.815,3.092.132,8.533,3.656,12.149,1.5,1.537,5.013,3.893,7.3,4.157a9.457,9.457,0,0,0,7.771-2.437c2.16-1.763,1.385-7.058-.221-9.179-1.645-2.173-6.556,3.333-8.457,3.084-1.784-.233-2.82-1.854-3.6-3.3-.86-1.592-2.581-5.305-3.346-5.535-.259-.077-1.679.66-3.1,1.061" transform="translate(-414.139 -224.503)" fill="#fff"/>
                <path id="Trazado_719523" data-name="Trazado 719523" d="M436.969,238.154c-.9-1.193-2.789-.072-4.622,1.14a19.152,19.152,0,0,0-.883,1.971c-.452,1.155-.833,2.337-1.268,3.5a3.708,3.708,0,0,1-.762,1.308,1.427,1.427,0,0,1-1.281.518c-.764-.161-1.15-.889-1.634-1.438a1.65,1.65,0,0,0-.929-.579,2.38,2.38,0,0,0-.815.022,4.885,4.885,0,0,1-.744.06,2.822,2.822,0,0,1-1.409-.427,5.185,5.185,0,0,1-2-2.339c-.112-.253-.2-.516-.3-.77s-.216-.542-.308-.819a12.452,12.452,0,0,1-.382-1.434c-.014-.048-.027-.1-.04-.145a5.774,5.774,0,0,1-.126-.65c-.059-.419-.092-.846-.123-1.268-.033-.443-.045-.887-.04-1.331s.028-.888.063-1.33a4.623,4.623,0,0,1,.128-1.018c-.332.121-.677.241-1.026.339.815,3.092.132,8.533,3.656,12.149,1.5,1.537,5.013,3.893,7.3,4.157a9.458,9.458,0,0,0,7.771-2.437c2.16-1.763,1.386-7.058-.22-9.179" transform="translate(-414.137 -227.92)" fill="#bac9e7"/>
                <path id="Trazado_719524" data-name="Trazado 719524" d="M421.26,235.862a6.6,6.6,0,0,0,3.209-1.027" transform="translate(-416.444 -229.33)" fill="none" stroke="#2e4369" stroke-miterlimit="10" stroke-width="1"/>
                <g id="Grupo_1017542" data-name="Grupo 1017542" transform="translate(12.675 13.489)">
                  <path id="Trazado_719525" data-name="Trazado 719525" d="M466.633,280.3a3.107,3.107,0,0,0-.617,1.4" transform="translate(-466.016 -280.301)" fill="none" stroke="#2e4369" stroke-miterlimit="10" stroke-width="0.5"/>
                  <path id="Trazado_719526" data-name="Trazado 719526" d="M471.2,281.068a3.031,3.031,0,0,0,.034,2.014" transform="translate(-470.164 -280.933)" fill="none" stroke="#2e4369" stroke-miterlimit="10" stroke-width="0.5"/>
                  <path id="Trazado_719527" data-name="Trazado 719527" d="M474.709,281.693a1.579,1.579,0,0,0,.268,1.2" transform="translate(-473.161 -281.449)" fill="none" stroke="#2e4369" stroke-miterlimit="10" stroke-width="0.5"/>
                </g>
              </g>
              <path id="Trazado_719528" data-name="Trazado 719528" d="M539.763,191.813c.13-.669.332-1.435.942-1.718.688-.319,1.465.175,1.991.721a7.975,7.975,0,0,1,1.944,3.459,10.361,10.361,0,0,0,.862,2.84c.8,1.3,2.391,1.8,3.826,2.284s3,1.21,3.494,2.667c.412,1.215-.061,2.608.35,3.823.734,2.175,3.7,2.549,5.056,4.387a3.7,3.7,0,0,1,.344,3.686,6.988,6.988,0,0,1-2.961,2.72,14.593,14.593,0,0,1-3.884,1.618,11.212,11.212,0,0,1-12.758-10.839,76.808,76.808,0,0,1,.795-15.648" transform="translate(-511.788 -175.972)" fill="#232743"/>
              <g id="Grupo_1017544" data-name="Grupo 1017544" transform="translate(19.015 24.947)">
                <path id="Trazado_719529" data-name="Trazado 719529" d="M509.2,277.242a21.564,21.564,0,0,1-.25-4.62,20.785,20.785,0,0,1,.842-4.568c.86-2.991,2.105-6.129,1.57-9.305a8.154,8.154,0,0,0-2.359-4.448,12.348,12.348,0,0,0-1.577-.705c-1.815-.665-3.763-.971-5.181-1.356a9.257,9.257,0,0,0-6.8,2.165,7.8,7.8,0,0,0-1.378,1.6,11.761,11.761,0,0,0-.532,7.081c.135.688.3,1.372.475,2.05a10.231,10.231,0,0,1,.4,2.185,23.1,23.1,0,0,1-.508,4.577,55.345,55.345,0,0,0-.837,9.365,39.978,39.978,0,0,0,.309,4.708,49.106,49.106,0,0,0,17,.472c.651-.1.868.1,1.354-.242a28.571,28.571,0,0,1-2.528-8.956" transform="translate(-493.067 -252.205)" fill="#fff"/>
                <path id="Trazado_719530" data-name="Trazado 719530" d="M528.94,277.242a21.565,21.565,0,0,1-.25-4.62,20.787,20.787,0,0,1,.842-4.568c.86-2.991,2.105-6.129,1.57-9.305a8.153,8.153,0,0,0-2.359-4.448,12.354,12.354,0,0,0-1.577-.705c-1.815-.665-3.763-.971-5.181-1.356a9.466,9.466,0,0,0-4.978.945.286.286,0,0,0,.055,0c5.1-.351,7.184.626,7.353,2.9.032.426.116.845.148,1.269a9.41,9.41,0,0,0,.251,1.533c.268,1.107.666,2.183.831,3.314a6.556,6.556,0,0,1-.3,3.149,7.849,7.849,0,0,1-1.53,2.649.757.757,0,0,0-.2.283c-.019.1.054.174.127.237a1.813,1.813,0,0,0,.557.291c.2.073.4.106.593.192a2.44,2.44,0,0,1,.516.311,3.372,3.372,0,0,1,1.2,2.167c.291,2.065-1.04,4.011-2.329,5.449-1.336,1.49-2.936,2.7-4.247,4.218a13.417,13.417,0,0,0-2.752,5.478,48.8,48.8,0,0,0,12.838-.193c.651-.1.868.1,1.354-.243a28.567,28.567,0,0,1-2.528-8.956" transform="translate(-512.803 -252.205)" fill="#bac9e7"/>
                <path id="Trazado_719531" data-name="Trazado 719531" d="M504.651,323.442a4.051,4.051,0,0,0,1.007,3.038c.258.285.558.529.807.823a6.489,6.489,0,0,1,.937,1.705" transform="translate(-502.604 -310.932)" fill="none" stroke="#2e4369" stroke-miterlimit="10" stroke-width="0.5"/>
                <path id="Trazado_719532" data-name="Trazado 719532" d="M508.041,351.181c.732.575,1.465,1.15,2.227,1.684" transform="translate(-505.411 -333.8)" fill="none" stroke="#2e4369" stroke-miterlimit="10" stroke-width="0.5"/>
                <path id="Trazado_719533" data-name="Trazado 719533" d="M549.126,295.957a3.217,3.217,0,0,0,.74,2.1c.588.7,1.479,1.138,1.866,1.971" transform="translate(-539.281 -288.274)" fill="none" stroke="#2e4369" stroke-miterlimit="10" stroke-width="0.5"/>
              </g>
              <g id="Grupo_1017545" data-name="Grupo 1017545" transform="translate(32.035 26.863)">
                <path id="Trazado_719534" data-name="Trazado 719534" d="M583.148,396.026a5.718,5.718,0,0,0-1.408,1.328c-.927,1.441-.38,2.739-.2,2.763.351.048.277-1.318.625-1.374a11.473,11.473,0,0,0,.758,4.009c.114.27.465.81.758.6.235-.171-.349-2.082-.592-3.058a15.557,15.557,0,0,0,.424,1.657c.169.54.613,1.735.963,1.3a6.789,6.789,0,0,0-.551-2.65c.265.649.284.779.484,1.268s.819,1.541,1.05,1.068c.172-.352-.585-1.81-.978-2.672l.85,1.371c.088.141.234.3.384.235s.124-.307.06-.47a20.067,20.067,0,0,1-.981-2.257,2,2,0,0,1,.639-2.209,6.6,6.6,0,0,1-1.393-1.651c-.359.237-.658.567-.9.751" transform="translate(-578.756 -372.066)" fill="#bb535d"/>
                <path id="Trazado_719535" data-name="Trazado 719535" d="M569.369,273.819c1.843,3.4,4.065,5.071,6.407,7.315l-2.92,3.481c-.86,1.027-1.708,2.21-1.708,2.21l2.164,3.164a22.986,22.986,0,0,0,6.915-5.693,6.744,6.744,0,0,0,1.963-3.71,6.6,6.6,0,0,0-.863-3.264c-2.113-4.4-5.089-8.1-8.4-12.639-2.7-3.7-9.016-.945-3.556,9.136" transform="translate(-567.213 -263.112)" fill="#fff"/>
                <path id="Trazado_719536" data-name="Trazado 719536" d="M593.672,277.326c-2.113-4.4-5.089-8.1-8.4-12.639a3.449,3.449,0,0,0-3.082-1.555c.108.067.216.135.322.206a13.275,13.275,0,0,1,4.4,5.509c.257.549.49,1.11.7,1.679q.16.426.305.86c.1.309.18.619.265.933a5.536,5.536,0,0,0,.858,1.863,8.176,8.176,0,0,0,1.285,1.278,7.164,7.164,0,0,1,2.133,2.665,5.927,5.927,0,0,1,.315,3.353,6.248,6.248,0,0,1-1.781,3.153c-.479.488-1,.922-1.506,1.383-.539.495-1.1.958-1.669,1.421a11.048,11.048,0,0,0-1.472,1.327,1.868,1.868,0,0,0-.41.741,1.142,1.142,0,0,0-.031.369,24.136,24.136,0,0,0,6.667-5.569,6.744,6.744,0,0,0,1.963-3.71,6.594,6.594,0,0,0-.863-3.265" transform="translate(-579.558 -263.116)" fill="#bac9e7"/>
                <path id="Trazado_719537" data-name="Trazado 719537" d="M618.633,359.77A2.293,2.293,0,0,0,620.6,359" transform="translate(-609.603 -342.158)" fill="none" stroke="#2e4369" stroke-miterlimit="10" stroke-width="0.5"/>
                <path id="Trazado_719538" data-name="Trazado 719538" d="M617.809,366.291a2,2,0,0,0,1.714,1.031" transform="translate(-608.924 -348.172)" fill="none" stroke="#2e4369" stroke-miterlimit="10" stroke-width="0.5"/>
                <path id="Trazado_719539" data-name="Trazado 719539" d="M619.495,364.2a1.543,1.543,0,0,0,1.089.21,3.085,3.085,0,0,0,1.055-.406c.012-.007.026-.018.023-.032s-.031,0-.02.005" transform="translate(-610.314 -346.258)" fill="none" stroke="#2e4369" stroke-miterlimit="10" stroke-width="0.5"/>
                <path id="Trazado_719540" data-name="Trazado 719540" d="M595.345,395.293a8.837,8.837,0,0,0,2.2,2.829" transform="translate(-590.405 -372.081)" fill="none" stroke="#2e4369" stroke-miterlimit="10" stroke-width="1"/>
              </g>
              <path id="Trazado_719541" data-name="Trazado 719541" d="M517.231,254.452a7.946,7.946,0,0,0,.969,4.975c2.176-2,.891-2.177,3.8.6,1.306-1.792,2.737-3.084,4.043-4.876-1.306,1.344-5.072-2.725-9.04-.414" transform="translate(-493.787 -228.747)" fill="#bac9e7"/>
              <g id="Grupo_1017550" data-name="Grupo 1017550" transform="translate(21.57 13.563)">
                <g id="Grupo_1017546" data-name="Grupo 1017546">
                  <path id="Trazado_719542" data-name="Trazado 719542" d="M516.463,200.168a7.984,7.984,0,0,0-1.285,3.292,5.215,5.215,0,0,0,.394,3.139,2.989,2.989,0,0,0,2.5,1.7c1.439.016,2.58-1.241,3.278-2.523a4.193,4.193,0,0,0,.563-1.861,4.007,4.007,0,0,0-1.635-3.752c-1.194-.672-3.147-.979-3.816.005" transform="translate(-513.787 -197.403)" fill="#bb535d"/>
                  <path id="Trazado_719543" data-name="Trazado 719543" d="M527.813,228.4a57.313,57.313,0,0,1,.089,6.162.517.517,0,0,0,.073.369.466.466,0,0,0,.221.122,5.1,5.1,0,0,0,3.623-.2.382.382,0,0,0,.185-.137.4.4,0,0,0,.023-.248c-.253-2.137.056-4.556-.2-6.694a27.307,27.307,0,0,1-4.017.623" transform="translate(-524.267 -220.679)" fill="#bb535d"/>
                  <path id="Trazado_719544" data-name="Trazado 719544" d="M547.76,222.664a.934.934,0,0,0-.031.683c.2.447.98.531,1.44.251a1.667,1.667,0,0,0,.715-1.256.628.628,0,0,0-.176-.629.817.817,0,0,0-.367-.124,2.436,2.436,0,0,0-1.581,1.075" transform="translate(-540.642 -215.58)" fill="#bb535d"/>
                  <path id="Trazado_719545" data-name="Trazado 719545" d="M513.2,190.175a2.52,2.52,0,0,0-1.718.761,14.987,14.987,0,0,0-1.184,1.808,1.731,1.731,0,0,1-1.817.841,1.587,1.587,0,0,1-.859-1.572,4.475,4.475,0,0,1,4.091-4.57,5.439,5.439,0,0,1,4.75,1.544c.9.942-.315,2.973-.583,4.263a6.825,6.825,0,0,0-.974-2.023,2.746,2.746,0,0,0-1.706-1.052" transform="translate(-507.619 -187.377)" fill="#232743"/>
                  <path id="Trazado_719546" data-name="Trazado 719546" d="M535.873,217.482a2.2,2.2,0,0,0-.682.024.284.284,0,0,0-.162.071.1.1,0,0,0,.012.154.174.174,0,0,0,.128,0,1.725,1.725,0,0,1,1.137.1.35.35,0,0,0,.164.048c.057,0,.114-.055.1-.109a.141.141,0,0,0-.069-.07,1.722,1.722,0,0,0-.626-.221" transform="translate(-530.193 -212.182)" fill="#232743"/>
                  <path id="Trazado_719547" data-name="Trazado 719547" d="M538.38,220.326a.256.256,0,1,1,.255.268.262.262,0,0,1-.255-.268" transform="translate(-532.978 -214.319)" fill="#232743"/>
                  <path id="Trazado_719548" data-name="Trazado 719548" d="M519.572,216.717a2.3,2.3,0,0,0-.66.172.291.291,0,0,0-.142.1.1.1,0,0,0,.045.141.183.183,0,0,0,.124-.029,1.784,1.784,0,0,1,1.131-.152.361.361,0,0,0,.17.009c.055-.016.1-.077.072-.123a.139.139,0,0,0-.082-.05,1.763,1.763,0,0,0-.658-.07" transform="translate(-516.8 -211.559)" fill="#232743"/>
                  <path id="Trazado_719549" data-name="Trazado 719549" d="M522.61,219.27a.254.254,0,0,1,.19-.307.259.259,0,0,1,.307.2.255.255,0,1,1-.5.112" transform="translate(-519.972 -213.411)" fill="#232743"/>
                  <path id="Trazado_719550" data-name="Trazado 719550" d="M524.741,219.816a4.042,4.042,0,0,1-.954,1.63.306.306,0,0,0-.12.226.244.244,0,0,0,.054.114.644.644,0,0,0,.672.23" transform="translate(-520.848 -214.12)" fill="none" stroke="#232743" stroke-miterlimit="10" stroke-width="0.5"/>
                  <path id="Trazado_719551" data-name="Trazado 719551" d="M521.646,234.379a2.287,2.287,0,0,0,2.315.075,1.322,1.322,0,0,1-1.219.937,1.171,1.171,0,0,1-1.1-1.012" transform="translate(-519.183 -226.125)" fill="#fff"/>
                  <path id="Trazado_719552" data-name="Trazado 719552" d="M550.128,230.4a.564.564,0,1,1,.563.58.572.572,0,0,1-.563-.58" transform="translate(-542.663 -222.366)" fill="#fff"/>
                </g>
                <g id="Grupo_1017549" data-name="Grupo 1017549" transform="translate(1.869 11.254)">
                  <g id="Grupo_1017547" data-name="Grupo 1017547" transform="translate(0.974 3.175)">
                    <path id="Trazado_719553" data-name="Trazado 719553" d="M528.645,269.758c-.394.308-.311.422-.391.9a1.3,1.3,0,0,0,.519,1.286,1.112,1.112,0,0,0,1.389-.123,1.2,1.2,0,0,0,.244-.484,1.557,1.557,0,0,0-.229-1.352,1.328,1.328,0,0,0-1.355-.365Z" transform="translate(-527.459 -269.545)" fill="#32436b"/>
                    <path id="Trazado_719554" data-name="Trazado 719554" d="M525.281,276.956a34.553,34.553,0,0,1-1.134,6.266,6.841,6.841,0,0,0-.335,1.686c-.026,1.357,1.07,6.634,1.885,7.752.55-.851,1.826-7.269,1.892-7.642a2.805,2.805,0,0,0-.1-1.1q-.7-3.166-1.41-6.332a.929.929,0,0,0-.318-.613c-.2-.134-.569-.028-.484-.016" transform="translate(-523.811 -275.612)" fill="#32436b"/>
                  </g>
                  <g id="Grupo_1017548" data-name="Grupo 1017548">
                    <path id="Trazado_719555" data-name="Trazado 719555" d="M518.268,252.963a12.927,12.927,0,0,0,.448,2.2,4.368,4.368,0,0,0,.7,2.03,5.438,5.438,0,0,1,1.786-1.912,1.558,1.558,0,0,1-1.068-1.154,14.135,14.135,0,0,1-.061-1.917c0,.22-.538.194-.921.318A3.481,3.481,0,0,0,518.268,252.963Z" transform="translate(-518.264 -252.076)" fill="#fff"/>
                    <path id="Trazado_719556" data-name="Trazado 719556" d="M535.693,253.655a15.951,15.951,0,0,1-1.988,1.017c.972.305,1.3,1.649,2.235,2.069a3,3,0,0,1,.8-1.328c.252-.239.544-.432.783-.686a4.6,4.6,0,0,0,.925-2.573,9.052,9.052,0,0,1-1.676-.691S536.676,253.135,535.693,253.655Z" transform="translate(-530.993 -251.463)" fill="#fff"/>
                  </g>
                </g>
              </g>
              <path id="Trazado_719557" data-name="Trazado 719557" d="M528.237,240.723a2.553,2.553,0,0,0,2.81-1.725,3.414,3.414,0,0,1-.949,1.723,2.853,2.853,0,0,1-1.8.95C528.272,241.425,528.237,240.723,528.237,240.723Z" transform="translate(-503.046 -216.37)" fill="#9e4350"/>
              <path id="Trazado_719558" data-name="Trazado 719558" d="M501.832,289.984a4.581,4.581,0,0,0,.28,3.007,1.866,1.866,0,0,0,.927,1.018,1.563,1.563,0,0,0,1.775-.773,4.857,4.857,0,0,0,.541-2.054q.07-.63.139-1.26c-1.241.09-2.49.062-3.662.062" transform="translate(-481.167 -258.351)" fill="#bac9e7"/>
              <path id="Trazado_719559" data-name="Trazado 719559" d="M484.927,375.714s-2,7.288-2.263,9.395a5.724,5.724,0,0,0,0,2.634s6.737,2.215,12.431,1.844a35.553,35.553,0,0,0,8.451-1.4l-3.3-12.468a59.064,59.064,0,0,1-8.284.966A28.279,28.279,0,0,1,484.927,375.714Z" transform="translate(-465.379 -329.078)" fill="#232743"/>
              <path id="Trazado_719560" data-name="Trazado 719560" d="M545.713,360.449a7.4,7.4,0,0,1,.977-1.262,4.587,4.587,0,0,0,1-1.723" transform="translate(-517.453 -314.033)" fill="none" stroke="#2e4369" stroke-miterlimit="10" stroke-width="0.5"/>
              <g id="Grupo_1017554" data-name="Grupo 1017554">
                <g id="Grupo_1017553" data-name="Grupo 1017553">
                  <path id="Trazado_719561" data-name="Trazado 719561" d="M391.257,117.063a2.51,2.51,0,0,1,2.885-2.717C393.168,118.4,391.257,117.063,391.257,117.063Zm-.558.061a2.29,2.29,0,0,0-3.178-2.06C388.978,118.854,390.7,117.123,390.7,117.123Zm.518,4.521c.027-.508.044-1,.052-1.481.824.249,2.656.315,3.783-3.356,0,0-2.727-.342-3.791,1.486-.036-1.469-.133-2.533-.17-2.823a2.555,2.555,0,0,0,.629-1.9,2.463,2.463,0,0,0-.922-2.044,1.479,1.479,0,0,1-.5-1.38s-2.053,3.826.376,5.378a36.871,36.871,0,0,1,.106,3.875c-.886-2.881-4.685-1.93-4.685-1.93,1.836,3.955,4.06,3.04,4.666,2.692-.023.695-.062,1.433-.126,2.191-1.275-2.712-5.854-2-5.854-2,1.959,4.139,4.656,3.734,5.714,3.376-.073.6-.163,1.208-.273,1.8,0,0,.416-.017.554,0,.127-.7.225-1.4.3-2.1.828.366,3.2.937,4.886-3.461C395.964,119.966,392.478,119.326,391.217,121.645Z" transform="translate(-384.786 -110.142)" fill="#546f5b"/>
                  <g id="Grupo_1017552" data-name="Grupo 1017552">
                    <g id="Grupo_1017551" data-name="Grupo 1017551" clip-path="url(#clip-path-4)">
                      <path id="Trazado_719562" data-name="Trazado 719562" d="M427.331,170.311a2.173,2.173,0,0,0,.151-.632,4.514,4.514,0,0,1,.234-.765,4.451,4.451,0,0,1,1.006-1.376,4.405,4.405,0,0,1,2.462-1.3" transform="translate(-419.86 -156.386)" fill="none" stroke="#598e5f" stroke-miterlimit="10" stroke-width="0.5"/>
                      <path id="Trazado_719563" data-name="Trazado 719563" d="M432.007,170.639a4.872,4.872,0,0,1,1.423-2.337,8.808,8.808,0,0,1,1.135-1.067c.24-.179.716-.413.853-.639" transform="translate(-423.715 -156.682)" fill="none" stroke="#598e5f" stroke-miterlimit="10" stroke-width="0.5"/>
                      <path id="Trazado_719564" data-name="Trazado 719564" d="M391.264,165.417a6.316,6.316,0,0,1,.332,3.145" transform="translate(-390.126 -155.71)" fill="none" stroke="#598e5f" stroke-miterlimit="10" stroke-width="0.5"/>
                      <path id="Trazado_719565" data-name="Trazado 719565" d="M393.014,164.749a7.793,7.793,0,0,1,1.415,2.6,3,3,0,0,1-.189,1.579" transform="translate(-391.569 -155.16)" fill="none" stroke="#598e5f" stroke-miterlimit="10" stroke-width="0.5"/>
                      <path id="Trazado_719566" data-name="Trazado 719566" d="M396.848,165.833c.3.272,2.143,1.494,2.44,1.784a2.811,2.811,0,0,1,.631.964,2.725,2.725,0,0,1,.292,1.587" transform="translate(-394.73 -156.053)" fill="none" stroke="#598e5f" stroke-miterlimit="10" stroke-width="0.5"/>
                      <path id="Trazado_719567" data-name="Trazado 719567" d="M426.791,152.873a3.015,3.015,0,0,1,.826-2.338A3.343,3.343,0,0,1,429,149.77a2.249,2.249,0,0,1,1.041-.087" transform="translate(-419.415 -142.706)" fill="none" stroke="#598e5f" stroke-miterlimit="10" stroke-width="0.5"/>
                      <path id="Trazado_719568" data-name="Trazado 719568" d="M428.431,158.821c0-1.288,1.236-1.937,2.428-1.937" transform="translate(-420.767 -148.676)" fill="none" stroke="#598e5f" stroke-miterlimit="10" stroke-width="0.5"/>
                      <path id="Trazado_719569" data-name="Trazado 719569" d="M391.9,151.128a2.691,2.691,0,0,1,1.611,2.5" transform="translate(-390.647 -143.931)" fill="none" stroke="#598e5f" stroke-miterlimit="10" stroke-width="0.5"/>
                      <path id="Trazado_719570" data-name="Trazado 719570" d="M399.99,150.408c1.461.469,1.757,3.348,1.737,3.316" transform="translate(-397.32 -143.337)" fill="none" stroke="#598e5f" stroke-miterlimit="10" stroke-width="0.5"/>
                      <path id="Trazado_719571" data-name="Trazado 719571" d="M397.292,150.588a11.946,11.946,0,0,0,.83.94,4.546,4.546,0,0,1,.536.962c.138.326.438.886.308,1.225" transform="translate(-395.096 -143.485)" fill="none" stroke="#598e5f" stroke-miterlimit="10" stroke-width="0.5"/>
                      <path id="Trazado_719572" data-name="Trazado 719572" d="M423.747,138.589a2.576,2.576,0,0,1,.849-2.21,3.541,3.541,0,0,1,2.224-.629" transform="translate(-416.888 -131.253)" fill="none" stroke="#598e5f" stroke-miterlimit="10" stroke-width="0.5"/>
                      <path id="Trazado_719573" data-name="Trazado 719573" d="M429.384,140.941c-.458-.949.776-1.753,1.548-1.864" transform="translate(-421.47 -133.996)" fill="none" stroke="#598e5f" stroke-miterlimit="10" stroke-width="0.5"/>
                      <path id="Trazado_719574" data-name="Trazado 719574" d="M414.749,111.018a2.6,2.6,0,0,0-.181,2.906,1.89,1.89,0,0,0,1.634,1.011" transform="translate(-409.046 -110.864)" fill="none" stroke="#598e5f" stroke-miterlimit="10" stroke-width="0.5"/>
                      <path id="Trazado_719575" data-name="Trazado 719575" d="M417.5,113a2.667,2.667,0,0,0,.149,2.211,1.068,1.068,0,0,0,1.209.505" transform="translate(-411.612 -112.496)" fill="none" stroke="#598e5f" stroke-miterlimit="10" stroke-width="0.5"/>
                      <path id="Trazado_719576" data-name="Trazado 719576" d="M405.207,136.2a3.615,3.615,0,0,1,1.737,2.892" transform="translate(-401.621 -131.623)" fill="none" stroke="#598e5f" stroke-miterlimit="10" stroke-width="0.5"/>
                      <path id="Trazado_719577" data-name="Trazado 719577" d="M402.509,136.371c.316-.046.727.9.828,1.176a15.6,15.6,0,0,1,.709,1.684" transform="translate(-399.397 -131.764)" fill="none" stroke="#598e5f" stroke-miterlimit="10" stroke-width="0.5"/>
                      <path id="Trazado_719578" data-name="Trazado 719578" d="M409.7,136.019a2.771,2.771,0,0,1,1.064,2.967" transform="translate(-405.327 -131.475)" fill="none" stroke="#598e5f" stroke-miterlimit="10" stroke-width="0.5"/>
                    </g>
                  </g>
                </g>
                <path id="Trazado_719580" data-name="Trazado 719580" d="M401.431,192.5l1.238,4.8h3.5l.995-4.8Z" transform="translate(-398.508 -178.037)" fill="#32436b"/>
                <path id="Trazado_719581" data-name="Trazado 719581" d="M410.432,192.5a7.42,7.42,0,0,1-.04,1.226,3.085,3.085,0,0,1-.995,2.06,2.089,2.089,0,0,1-1.01.445,2.532,2.532,0,0,0-1.058.285l.2.783h3.5l.995-4.8h-1.6Z" transform="translate(-403.37 -178.037)" fill="#232743"/>
              </g>
            </g>
            <path id="Trazado_719582" data-name="Trazado 719582" d="M507.142,396.81c.47-1.756,2.27-2.132,3.746-2.723a27.5,27.5,0,0,0,4.455-1.887,7.729,7.729,0,0,0,2.553-2.548c0-.046-.031-.06-.085-.042" transform="translate(-485.655 -340.527)" fill="none" stroke="#2e4369" stroke-miterlimit="10" stroke-width="0.5"/>
            <path id="Trazado_719583" data-name="Trazado 719583" d="M533.893,413.046a3.324,3.324,0,0,1,.537-1.372,5.729,5.729,0,0,1,2.1-1.394c2.327-1.138,3.453-2.5,3.249-2.634" transform="translate(-507.709 -355.402)" fill="none" stroke="#2e4369" stroke-miterlimit="10" stroke-width="0.5"/>
          </g>
          <g id="Grupo_1017572" data-name="Grupo 1017572" transform="translate(8.901 27.084)">
            <g id="Grupo_1017559" data-name="Grupo 1017559" transform="translate(7.933 12.414)">
              <path id="Trazado_719584" data-name="Trazado 719584" d="M271.981,289.842c5.5,6.714,6.09,16.745,12.444,22.655l-2.684,2.588a1.031,1.031,0,0,1-.7.382,1.006,1.006,0,0,1-.54-.263,27.319,27.319,0,0,1-8.638-10.8,18.778,18.778,0,0,1-.561-13.643,1.819,1.819,0,0,1,.682-.921" transform="translate(-253.069 -287.691)" fill="#232743"/>
              <g id="Grupo_1017558" data-name="Grupo 1017558">
                <path id="Trazado_719585" data-name="Trazado 719585" d="M182.012,277.592c-3.193.314-9.771,2.639-8.879,10.73.242,2.191,1.425,10.491-.557,16.356a2.479,2.479,0,0,0-.179,1.642,1.773,1.773,0,0,0,.8.82,11.157,11.157,0,0,0,4.144,1.226c5.344.828,10.906,1.439,16.084-.312a1.221,1.221,0,0,0,.723-.475,1.448,1.448,0,0,0,.1-.83l-1.659-22.6a8.911,8.911,0,0,0-.744-3.518,5.212,5.212,0,0,0-3.134-2.426,14.512,14.512,0,0,0-3.939-.466,20.846,20.846,0,0,1-2.76-.154" transform="translate(-172.313 -277.592)" fill="#32436b"/>
                <path id="Trazado_719586" data-name="Trazado 719586" d="M191.87,307.633a14.791,14.791,0,0,1-3.154.52,4.022,4.022,0,0,1-2.468-.753,2.6,2.6,0,0,1-.436-.433,5.549,5.549,0,0,1-.424-.542,8.8,8.8,0,0,0-.681-1.176c-1.047-1.246-2.79-1.648-3.777-2.958a1.913,1.913,0,0,1-.309-.532,3.254,3.254,0,0,1-.148-.7,3.977,3.977,0,0,1,.131-1.414,6.967,6.967,0,0,1,1.5-2.632c.633-.751,1.331-1.449,1.9-2.252a4.2,4.2,0,0,0,.724-1.339,1.57,1.57,0,0,0-.206-1.394,1.486,1.486,0,0,0-1.032-.4,3.659,3.659,0,0,0-1.227.129,2.522,2.522,0,0,1-2.424-.3,2.212,2.212,0,0,1-.107-2.371c.18-.424.372-.848.573-1.262a12.077,12.077,0,0,1,.723-1.292,7.681,7.681,0,0,1,1.948-2.1,13.646,13.646,0,0,1,2.739-1.39,12.84,12.84,0,0,0,1.376-.646,5.527,5.527,0,0,0,1.18-.926,3.444,3.444,0,0,0,1.068-2.005h0c-.005-.067-.006-.135-.008-.2,0-.014,0-.028,0-.043-.013-.092-.027-.185-.039-.277-.018-.139-.031-.277-.046-.416-.012-.051-.027-.1-.04-.154-.155-.055-.317-.109-.487-.162a14.511,14.511,0,0,0-3.939-.466,20.832,20.832,0,0,1-2.76-.154c-3.193.314-9.771,2.639-8.878,10.73.241,2.191,1.424,10.491-.558,16.356a2.48,2.48,0,0,0-.179,1.642,1.776,1.776,0,0,0,.8.821,11.166,11.166,0,0,0,4.144,1.226c5.344.828,10.906,1.439,16.084-.312a1.22,1.22,0,0,0,.723-.475.838.838,0,0,0,.09-.246c-.261,0-.523.008-.783.029a11.523,11.523,0,0,0-1.583.269" transform="translate(-172.313 -277.593)" fill="#232743"/>
                <g id="Grupo_1017557" data-name="Grupo 1017557" transform="translate(9.866 6.079)">
                  <path id="Trazado_719587" data-name="Trazado 719587" d="M232.524,318.215a2.923,2.923,0,0,1,1.688-1.782c.76-.364,1.592-.562,2.344-.946a5.367,5.367,0,0,0,2.679-3.278" transform="translate(-231.817 -312.21)" fill="none" stroke="#232743" stroke-miterlimit="10" stroke-width="0.5"/>
                  <path id="Trazado_719588" data-name="Trazado 719588" d="M228.5,371.868a3.033,3.033,0,0,1,1.117-2.237c.633-.578,1.393-.994,2.076-1.511a17.433,17.433,0,0,0,3.76-4.5" transform="translate(-228.497 -354.594)" fill="none" stroke="#232743" stroke-miterlimit="10" stroke-width="0.5"/>
                  <path id="Trazado_719589" data-name="Trazado 719589" d="M251.809,332.628a23.641,23.641,0,0,0,3.116-3.648" transform="translate(-247.715 -326.035)" fill="none" stroke="#232743" stroke-miterlimit="10" stroke-width="0.5"/>
                </g>
              </g>
            </g>
            <g id="Grupo_1017563" data-name="Grupo 1017563" transform="translate(14.695)">
              <path id="Trazado_719590" data-name="Trazado 719590" d="M217.209,209.608c-1.075-.265-2.1-.506-3.2.492a4.89,4.89,0,0,0-1.4,5.029,1.631,1.631,0,0,1-.267,1.17,3.961,3.961,0,0,1-.94.79,1.336,1.336,0,0,0-.544,1.362,2.815,2.815,0,0,1,.232.627,4.13,4.13,0,0,1-.159.715,1.115,1.115,0,0,0,.142.624,2.133,2.133,0,0,0,1.423,1.1c.3.065.611.064.915.106.825.114,1.656.546,2.45.3a2.169,2.169,0,0,0,1.306-1.544,12.417,12.417,0,0,0,.26-2.092,3.293,3.293,0,0,1,.733-1.938c.169-.18.37-.327.526-.517a1.86,1.86,0,0,0,.361-1.383,3.621,3.621,0,0,0-.5-1.374c-.437-.763-.451-3.245-1.343-3.465" transform="translate(-210.816 -208.941)" fill="#bb535d"/>
              <path id="Trazado_719591" data-name="Trazado 719591" d="M227.684,245.226a4.841,4.841,0,0,0,.836.558,4.985,4.985,0,0,0,2.362.558,4.776,4.776,0,0,0,1.641-.331,61.414,61.414,0,0,1,.372-7.341,33.477,33.477,0,0,1-4.3-1.7c.264,2.812.484,5.8-.915,8.259" transform="translate(-224.722 -231.687)" fill="#ffb299"/>
              <path id="Trazado_719592" data-name="Trazado 719592" d="M239.262,256.742c.224,1.612,2.754,2.97,2.879,1.973.148-1.188-2.073-1.025-2.879-1.973" transform="translate(-234.267 -247.99)" fill="#ff7478"/>
              <g id="Grupo_1017562" data-name="Grupo 1017562" transform="translate(2.583)">
                <path id="Trazado_719593" data-name="Trazado 719593" d="M235.873,218.988a4.731,4.731,0,0,0-1.74,2.7c-.375,1.947-.028,2.777,1.4,4.2a3.5,3.5,0,0,0,1.6.979,2.979,2.979,0,0,0,2.948-1.164,4.6,4.6,0,0,0,.8-3.1,5.182,5.182,0,0,0-1.293-3.21,3.666,3.666,0,0,0-3.267-1.148c-.424.082-.283.664-.448.748" transform="translate(-232.505 -216.204)" fill="#ffb299"/>
                <path id="Trazado_719594" data-name="Trazado 719594" d="M227.751,236.642c-.479-.236-.7-.819-1.249-.872a.96.96,0,0,0-.956.865,2.1,2.1,0,0,0,.841,1.953.714.714,0,0,0,.3.156.729.729,0,0,0,.555-.178,1.59,1.59,0,0,0,.507-1.923" transform="translate(-225.523 -230.698)" fill="#ffb299"/>
                <g id="Grupo_1017560" data-name="Grupo 1017560" transform="translate(3.27 5.101)">
                  <path id="Trazado_719595" data-name="Trazado 719595" d="M245.095,236.6a1.342,1.342,0,0,1,.7-.415,1.535,1.535,0,0,1,.872.063.231.231,0,0,0-.2-.286,1.313,1.313,0,0,0-1.372.637" transform="translate(-244.928 -235.953)" fill="#232743"/>
                  <path id="Trazado_719596" data-name="Trazado 719596" d="M248.276,238.893a.229.229,0,1,1,.2.257.23.23,0,0,1-.2-.257" transform="translate(-247.549 -238.213)" fill="#232743"/>
                  <path id="Trazado_719597" data-name="Trazado 719597" d="M262.508,238.893a.229.229,0,1,1,.2.257.23.23,0,0,1-.2-.257" transform="translate(-259.281 -238.213)" fill="#232743"/>
                  <path id="Trazado_719598" data-name="Trazado 719598" d="M261.469,236.142a.262.262,0,0,0,.045.208,1.067,1.067,0,0,1,.6-.092,3.207,3.207,0,0,1,.6.142,3.042,3.042,0,0,0-.71-.3.568.568,0,0,0-.532.045" transform="translate(-258.422 -236.036)" fill="#232743"/>
                  <path id="Trazado_719599" data-name="Trazado 719599" d="M257.824,238.858a1.378,1.378,0,0,0,.372.848,1.556,1.556,0,0,1,.332.387.506.506,0,0,1-.283.659,2.007,2.007,0,0,1-.665-.007" transform="translate(-255.22 -238.348)" fill="none" stroke="#bb535d" stroke-miterlimit="10" stroke-width="0.5"/>
                  <path id="Trazado_719600" data-name="Trazado 719600" d="M253.1,252.908a1.83,1.83,0,0,0,.976.493,1.144,1.144,0,0,0,1.006-.346" transform="translate(-251.525 -249.931)" fill="none" stroke="#bb535d" stroke-miterlimit="10" stroke-width="1"/>
                  <path id="Trazado_719601" data-name="Trazado 719601" d="M244.15,244.537a.575.575,0,1,1,.5.621.565.565,0,0,1-.5-.621" transform="translate(-244.145 -242.64)" fill="#ff7478"/>
                  <path id="Trazado_719602" data-name="Trazado 719602" d="M266.36,244.84a.444.444,0,0,1,.509-.37.449.449,0,0,1,.4.492.444.444,0,0,1-.509.369.449.449,0,0,1-.4-.492" transform="translate(-262.456 -242.971)" fill="#ff7478"/>
                </g>
                <g id="Grupo_1017561" data-name="Grupo 1017561" transform="translate(1.121)">
                  <path id="Trazado_719603" data-name="Trazado 719603" d="M234.468,209.951a1.3,1.3,0,0,0,1.14.239c.394-.113.738-.345,1.12-.493a1.287,1.287,0,0,1,1.183.039c.362.254.462.758.824,1.011.4.282,1.011.168,1.385.487.476.407.251,1.219.654,1.693a1.21,1.21,0,0,0,1.218.28,2.113,2.113,0,0,0,1.5-1.672,2.684,2.684,0,0,0-.684-2.185,3.98,3.98,0,0,0-2.069-1.175,5.041,5.041,0,0,1-.66-.171c-.52-.2-.906-.642-1.406-.887a2.692,2.692,0,0,0-2.542.254c-.746.467-2.393,2.018-1.658,2.58" transform="translate(-233.867 -206.902)" fill="#bb535d"/>
                  <path id="Trazado_719604" data-name="Trazado 719604" d="M232.618,222.3a3.122,3.122,0,0,0-.676,1.424,2.223,2.223,0,0,0,.27,1.536,1.686,1.686,0,0,1,.339.666c.032.322-.2.621-.185.945a.631.631,0,0,0,.5.574c-.275-.275-.157-.752.05-1.084a2.271,2.271,0,0,0,.5-1.042c.015-.471-.376-.912-.267-1.37.047-.2.181-.362.22-.56a.816.816,0,0,0-.2-.656,1.942,1.942,0,0,0-.557-.431" transform="translate(-231.908 -219.598)" fill="#bb535d"/>
                </g>
              </g>
            </g>
            <g id="Grupo_1017564" data-name="Grupo 1017564" transform="translate(15.724 11.883)">
              <path id="Trazado_719605" data-name="Trazado 719605" d="M219.314,274.568c-.932.17-1.325.495-2.636.865.7.336,1.362,2.063,1.855,2.66a2.218,2.218,0,0,0,1.959,1.008,2.72,2.72,0,0,1,1.45-1.745,4.689,4.689,0,0,1-2.431-1.593,1.592,1.592,0,0,1-.2-1.194" transform="translate(-216.678 -274.568)" fill="#fff"/>
              <path id="Trazado_719606" data-name="Trazado 719606" d="M248.012,277.895c-.062,1.271-.235,1.576-.832,1.93-.19.113-.54.147-.7.273-.047.036-.057-.013,0,0a11.569,11.569,0,0,1,2.15.874,4.912,4.912,0,0,1,1.023-2.551,8.529,8.529,0,0,0-1.636-.527" transform="translate(-241.21 -277.311)" fill="#fff"/>
            </g>
            <g id="Grupo_1017571" data-name="Grupo 1017571" transform="translate(0 14.37)">
              <g id="Grupo_1017566" data-name="Grupo 1017566" transform="translate(5.694 12.308)">
                <path id="Trazado_719607" data-name="Trazado 719607" d="M159.848,367.589l7.8-8.432a1.047,1.047,0,0,1,1.489-.052l5.623,5.3a1.071,1.071,0,0,1,.05,1.5l-7.8,8.432a1.046,1.046,0,0,1-1.489.053l-5.623-5.3a1.071,1.071,0,0,1-.05-1.5" transform="translate(-159.564 -358.819)" fill="#448e61"/>
                <path id="Trazado_719608" data-name="Trazado 719608" d="M161.352,370.655l8.475-9.161,6.279,5.92-8.476,9.161Z" transform="translate(-161.038 -361.024)" fill="#fff"/>
                <path id="Trazado_719609" data-name="Trazado 719609" d="M213.705,369.011l.987-1.068,3.338,3.147-.988,1.067Z" transform="translate(-204.197 -366.341)" fill="#bddbbb"/>
                <g id="Grupo_1017565" data-name="Grupo 1017565" transform="translate(2.403 2.322)">
                  <path id="Trazado_719610" data-name="Trazado 719610" d="M203.41,372.138l.09-.1,5.6,5.28-.09.1Z" transform="translate(-198.113 -372.041)" fill="#bac9e7"/>
                  <path id="Trazado_719611" data-name="Trazado 719611" d="M201.492,374.212l.09-.1,5.6,5.281-.09.1Z" transform="translate(-196.532 -373.751)" fill="#bac9e7"/>
                  <path id="Trazado_719612" data-name="Trazado 719612" d="M199.673,376.181l.09-.1,5.6,5.279-.09.1Z" transform="translate(-195.032 -375.374)" fill="#bac9e7"/>
                  <path id="Trazado_719613" data-name="Trazado 719613" d="M192.993,383.4l.09-.1,5.6,5.28-.09.1Z" transform="translate(-189.525 -381.327)" fill="#bac9e7"/>
                  <path id="Trazado_719614" data-name="Trazado 719614" d="M191.072,385.474l.09-.1,5.6,5.28-.09.1Z" transform="translate(-187.942 -383.035)" fill="#bac9e7"/>
                  <path id="Trazado_719615" data-name="Trazado 719615" d="M189.256,387.439l.09-.1,5.6,5.281-.089.1Z" transform="translate(-186.445 -384.655)" fill="#bac9e7"/>
                  <path id="Trazado_719616" data-name="Trazado 719616" d="M186.9,389.5l.089-.1,5.6,5.28-.09.1Z" transform="translate(-184.506 -386.352)" fill="#bac9e7"/>
                  <path id="Trazado_719617" data-name="Trazado 719617" d="M184.985,391.572l.09-.1,5.6,5.28-.09.1Z" transform="translate(-182.924 -388.062)" fill="#bac9e7"/>
                  <path id="Trazado_719618" data-name="Trazado 719618" d="M183.169,393.538l.09-.1,5.6,5.28-.09.1Z" transform="translate(-181.426 -389.683)" fill="#bac9e7"/>
                  <path id="Trazado_719619" data-name="Trazado 719619" d="M173.246,403.263l.382-.413,5.347,5.042-.381.413Z" transform="translate(-173.246 -397.44)" fill="#bac9e7"/>
                  <path id="Trazado_719620" data-name="Trazado 719620" d="M180.14,396.155l.315-.34,1.31,1.235-.314.339Z" transform="translate(-178.929 -391.64)" fill="#bac9e7"/>
                  <path id="Trazado_719621" data-name="Trazado 719621" d="M192.963,430.727l.364-.393,1.123,1.058-.364.393Z" transform="translate(-189.501 -420.097)" fill="#bac9e7"/>
                </g>
              </g>
              <g id="Grupo_1017570" data-name="Grupo 1017570">
                <path id="Trazado_719622" data-name="Trazado 719622" d="M179.4,428.041a5.694,5.694,0,0,1,1.06,1.335c.167.292,1.6,1.868,2.809,1.578.177-.042.177-.042.294-.223.146-.224-.1-.246-.3-.521a.715.715,0,0,0,1.03.1.426.426,0,0,0-.116-.747.8.8,0,0,0,.843-.262c.181-.19.058-.967-.094-1.179s-.3.307-.4.175c-.033-.042-.68-.329.011-.361a2.825,2.825,0,0,0,.339-.06c.505-.084,1.527-.918,1.19-1.2-.569-.484-2.907.038-3.833-.552a.867.867,0,0,0-.373-.169.789.789,0,0,0-.566.28c-.655.6-1.31,1.208-1.9,1.808" transform="translate(-170.221 -401.854)" fill="#ffb299"/>
                <g id="Grupo_1017569" data-name="Grupo 1017569">
                  <path id="Trazado_719623" data-name="Trazado 719623" d="M139.6,288.736c-1.5-.048-2.562,1.378-3.594,2.48a93.83,93.83,0,0,0-6.735,8.039,8.518,8.518,0,0,0-2.127,4.694,7.567,7.567,0,0,0,1.209,3.781,24.86,24.86,0,0,0,7.869,8.453,15.868,15.868,0,0,1,3.969-3.607,26.939,26.939,0,0,0-5.842-8.489,15.492,15.492,0,0,0,6.72-9.742,6.7,6.7,0,0,0,.061-3.066,5.187,5.187,0,0,0-1.345-2.272Z" transform="translate(-127.138 -288.735)" fill="#32436b"/>
                  <g id="Grupo_1017567" data-name="Grupo 1017567" transform="translate(5.846 13.719)">
                    <path id="Trazado_719624" data-name="Trazado 719624" d="M160.429,376.817a2.105,2.105,0,0,0,1.057,0" transform="translate(-160.429 -375.065)" fill="none" stroke="#232743" stroke-miterlimit="10" stroke-width="0.5"/>
                    <path id="Trazado_719625" data-name="Trazado 719625" d="M161.784,372.213a1.7,1.7,0,0,0,.819.575" transform="translate(-161.546 -371.272)" fill="none" stroke="#232743" stroke-miterlimit="10" stroke-width="0.5"/>
                    <path id="Trazado_719626" data-name="Trazado 719626" d="M162.63,366.854a3.875,3.875,0,0,0,.819,1.408" transform="translate(-162.243 -366.854)" fill="none" stroke="#232743" stroke-miterlimit="10" stroke-width="0.5"/>
                  </g>
                  <g id="Grupo_1017568" data-name="Grupo 1017568" transform="translate(8.401 23.162)">
                    <path id="Trazado_719627" data-name="Trazado 719627" d="M174.975,424.314a10.122,10.122,0,0,1,4.118-3.685" transform="translate(-174.975 -420.629)" fill="none" stroke="#232743" stroke-miterlimit="10" stroke-width="0.5"/>
                    <line id="Línea_3212" data-name="Línea 3212" x2="0.484" y2="0.483" transform="translate(0.484 3.232)" fill="none" stroke="#232743" stroke-miterlimit="10" stroke-width="0.5"/>
                    <path id="Trazado_719628" data-name="Trazado 719628" d="M179.281,436.691c.2.184.385.376.566.574" transform="translate(-178.525 -433.87)" fill="none" stroke="#232743" stroke-miterlimit="10" stroke-width="0.5"/>
                    <path id="Trazado_719629" data-name="Trazado 719629" d="M181.794,434.373q.294.258.566.539" transform="translate(-180.597 -431.959)" fill="none" stroke="#232743" stroke-miterlimit="10" stroke-width="0.5"/>
                    <path id="Trazado_719630" data-name="Trazado 719630" d="M184.459,431.57c.209.168.335.442.579.549" transform="translate(-182.794 -429.649)" fill="none" stroke="#232743" stroke-miterlimit="10" stroke-width="0.5"/>
                    <path id="Trazado_719631" data-name="Trazado 719631" d="M187.9,428.434a5.349,5.349,0,0,1,.449.573" transform="translate(-185.634 -427.063)" fill="none" stroke="#232743" stroke-miterlimit="10" stroke-width="0.5"/>
                    <line id="Línea_3213" data-name="Línea 3213" x2="0.401" y2="0.614" transform="translate(2.833 0.977)" fill="none" stroke="#232743" stroke-miterlimit="10" stroke-width="0.5"/>
                    <path id="Trazado_719632" data-name="Trazado 719632" d="M194.239,424.309l.339.531" transform="translate(-190.856 -423.663)" fill="none" stroke="#232743" stroke-miterlimit="10" stroke-width="0.5"/>
                    <path id="Trazado_719633" data-name="Trazado 719633" d="M196.883,422.406q.164.266.353.516" transform="translate(-193.036 -422.094)" fill="none" stroke="#232743" stroke-miterlimit="10" stroke-width="0.5"/>
                  </g>
                  <path id="Trazado_719634" data-name="Trazado 719634" d="M135.656,313.447a5.4,5.4,0,0,1-2.851-2.437c-.293-.539-.543-1.109-.885-1.62a5.839,5.839,0,0,0-1.4-1.391,3.594,3.594,0,0,1-1.405-2.774,7.449,7.449,0,0,1,2.187-5.249c.661-.756,1.368-1.473,1.99-2.262a9.918,9.918,0,0,0,1.634-3.15,9.29,9.29,0,0,1,2.1-3.148,9.5,9.5,0,0,1,2.752-2.423l-.176-.259c-1.5-.048-2.562,1.378-3.594,2.48a93.838,93.838,0,0,0-6.735,8.039,8.518,8.518,0,0,0-2.127,4.694,7.567,7.567,0,0,0,1.209,3.781,24.86,24.86,0,0,0,7.869,8.453,15.873,15.873,0,0,1,1.716-1.863C137.187,314,136.4,313.756,135.656,313.447Z" transform="translate(-127.139 -288.733)" fill="#232743"/>
                </g>
              </g>
            </g>
          </g>
          <g id="Grupo_1017584" data-name="Grupo 1017584" transform="translate(30.973 34.939)">
            <g id="Grupo_1017575" data-name="Grupo 1017575" transform="translate(3.227 12.501)">
              <g id="Grupo_1017573" data-name="Grupo 1017573">
                <path id="Trazado_719635" data-name="Trazado 719635" d="M281.34,322.988a24.8,24.8,0,0,0-5.966,1.872,6.394,6.394,0,0,0-2.509,1.766,6.831,6.831,0,0,0-1.092,3.161,48.128,48.128,0,0,0-.07,14.376,1.235,1.235,0,0,0,1.366,1.377c8.01.524,16.065,1.047,24.053.255-2.1-5.19-.732-11.045-.848-16.641a5.028,5.028,0,0,0-.394-2.159c-.635-1.27-2.114-1.832-3.461-2.283-3.762-1.26-7.754-2.32-11.08-1.723" transform="translate(-271.198 -322.817)" fill="#fff"/>
                <path id="Trazado_719636" data-name="Trazado 719636" d="M296.064,341.264c-.207-.114-.424-.209-.641-.3a5.228,5.228,0,0,0-.919-.3,10.2,10.2,0,0,0-1.923-.215,16.371,16.371,0,0,1-3.879-.383c-3.536-.99-4.02-2.334-6.764-7.226-.273-.486-.772-.914-.82-1.486a1.324,1.324,0,0,1,.257-.872,1.236,1.236,0,0,1,.294-.272c.117-.089.226-.189.344-.277a4.681,4.681,0,0,1,3.414-.928,5.938,5.938,0,0,0,2.059.168,2.962,2.962,0,0,0,1.528-1.143,8.71,8.71,0,0,0,1.058-1.779,9.831,9.831,0,0,0,.665-1.922s0,0,0,0c0-.05.011-.1.02-.147-3.253-1-6.578-1.7-9.418-1.19a24.807,24.807,0,0,0-5.966,1.872,6.4,6.4,0,0,0-2.508,1.766,6.825,6.825,0,0,0-1.091,3.161,48.121,48.121,0,0,0-.071,14.376,1.234,1.234,0,0,0,1.367,1.377c8.01.524,16.065,1.047,24.053.255a16.188,16.188,0,0,1-1.06-4.532" transform="translate(-271.199 -322.819)" fill="#bac9e7"/>
              </g>
              <path id="Trazado_719637" data-name="Trazado 719637" d="M346.525,346.443l2.18,12.876" transform="translate(-333.297 -342.294)" fill="none" stroke="#2e4369" stroke-miterlimit="10" stroke-width="1"/>
              <g id="Grupo_1017574" data-name="Grupo 1017574" transform="translate(8.012 5.882)">
                <path id="Trazado_719638" data-name="Trazado 719638" d="M316.822,373.488a3.459,3.459,0,0,0,1.262,1.79,21.513,21.513,0,0,1,1.736,1.422,9.234,9.234,0,0,1,1.546,2.478" transform="translate(-316.822 -370.472)" fill="none" stroke="#2e4369" stroke-miterlimit="10" stroke-width="0.5"/>
                <path id="Trazado_719639" data-name="Trazado 719639" d="M319.433,396.289a17.44,17.44,0,0,0,2.545,2.472" transform="translate(-318.974 -389.269)" fill="none" stroke="#2e4369" stroke-miterlimit="10" stroke-width="0.5"/>
                <path id="Trazado_719640" data-name="Trazado 719640" d="M365.893,389.959a7.832,7.832,0,0,0,3.276,3.507" transform="translate(-357.276 -384.051)" fill="none" stroke="#2e4369" stroke-miterlimit="10" stroke-width="0.5"/>
                <path id="Trazado_719641" data-name="Trazado 719641" d="M375.844,356.315a11.541,11.541,0,0,1,1.931,3.453,1.573,1.573,0,0,0,.349.66" transform="translate(-365.479 -356.315)" fill="none" stroke="#2e4369" stroke-miterlimit="10" stroke-width="0.5"/>
              </g>
            </g>
            <g id="Grupo_1017576" data-name="Grupo 1017576" transform="translate(26.445 15.799)">
              <path id="Trazado_719642" data-name="Trazado 719642" d="M404.29,341.6a30.649,30.649,0,0,0-.839,8.657,7.026,7.026,0,0,0,.279,1.876,7.478,7.478,0,0,0,1.418,2.294,59.867,59.867,0,0,0,4.74,5.179,3.3,3.3,0,0,0,.986.738,2.694,2.694,0,0,0,1.08.166c2.285-.034,4.6-1.335,6.751-.562a31.638,31.638,0,0,0-7.024-10.591l-5.3-5.747a15.888,15.888,0,0,0-2.089-2.009" transform="translate(-403.418 -341.602)" fill="#fff"/>
              <path id="Trazado_719643" data-name="Trazado 719643" d="M414.129,360.1a7.09,7.09,0,0,1-1.5-2.109c-.208-.384-.415-.77-.655-1.136a3.677,3.677,0,0,0-.8-.929,5.335,5.335,0,0,0-1.271-.613,10.677,10.677,0,0,1-1.278-.554,3.251,3.251,0,0,1-1.629-2.136,11.461,11.461,0,0,1-.122-2.862c.008-.568.037-1.134.017-1.7a17.539,17.539,0,0,0-.145-1.784,17.1,17.1,0,0,0-.715-3.045,13.468,13.468,0,0,0-1.734-1.626,30.63,30.63,0,0,0-.839,8.657,7,7,0,0,0,.278,1.876,7.478,7.478,0,0,0,1.418,2.294,59.859,59.859,0,0,0,4.74,5.179,3.3,3.3,0,0,0,.986.738,2.686,2.686,0,0,0,1.08.166,11.389,11.389,0,0,0,2.282-.331c-.037-.029-.076-.053-.111-.082" transform="translate(-403.422 -341.602)" fill="#bac9e7"/>
            </g>
            <g id="Grupo_1017577" data-name="Grupo 1017577" transform="translate(9.561)">
              <path id="Trazado_719644" data-name="Trazado 719644" d="M327.972,307.48q.126,2.53.251,5.06a.5.5,0,0,0,.053.242.752.752,0,0,0,.28.226c.686.4,1.549.413,2.274.87.585.368,1.137-.074,1.661-.245a1.916,1.916,0,0,0,.774-.408,1.306,1.306,0,0,0,.21-1.184q-.368-2.39-.737-4.779a26.931,26.931,0,0,0-4.767.218" transform="translate(-324.337 -297.468)" fill="#ff9c6e"/>
              <path id="Trazado_719645" data-name="Trazado 719645" d="M323.6,267.368a2.322,2.322,0,0,0-1.705,1.446,5.6,5.6,0,0,0-.325,2.271,7.4,7.4,0,0,0,1.048,4.224,3.337,3.337,0,0,0,3.912,1.324,3.09,3.09,0,0,0,1.259-1.148,7.984,7.984,0,0,0,.947-3.627,4.878,4.878,0,0,0-.375-3.077,3.33,3.33,0,0,0-2.288-1.391,8.373,8.373,0,0,0-2.472-.024" transform="translate(-319.06 -264.539)" fill="#ff9c6e"/>
              <path id="Trazado_719646" data-name="Trazado 719646" d="M327.812,286.425a.932.932,0,0,0-.827.558,2.287,2.287,0,0,1,1.658-.129.2.2,0,0,0-.04-.259.481.481,0,0,0-.246-.1,3.656,3.656,0,0,0-.545-.074" transform="translate(-323.523 -280.314)" fill="#232743"/>
              <path id="Trazado_719647" data-name="Trazado 719647" d="M344.165,285.257a1.813,1.813,0,0,0-.3.146.148.148,0,0,0-.089.11c0,.1.122.112.207.1l.525-.11a1.425,1.425,0,0,1,.777-.015.547.547,0,0,0,.331.074.389.389,0,0,0-.224-.3.984.984,0,0,0-.362-.074,2.182,2.182,0,0,0-.864.07" transform="translate(-337.364 -279.285)" fill="#232743"/>
              <path id="Trazado_719648" data-name="Trazado 719648" d="M331.553,289.811a.262.262,0,1,1,.261.256.258.258,0,0,1-.261-.256" transform="translate(-327.289 -282.895)" fill="#232743"/>
              <path id="Trazado_719649" data-name="Trazado 719649" d="M347.2,289.8a.277.277,0,1,1,.276.252.265.265,0,0,1-.276-.252" transform="translate(-340.184 -282.894)" fill="#232743"/>
              <path id="Trazado_719650" data-name="Trazado 719650" d="M336.749,288.277a2.269,2.269,0,0,1-.406,1.354,1.544,1.544,0,0,0-.322.572c-.037.216.122.482.346.455" transform="translate(-330.967 -281.842)" fill="none" stroke="#bb535d" stroke-miterlimit="10" stroke-width="0.5"/>
              <path id="Trazado_719651" data-name="Trazado 719651" d="M332.533,304.887a2.251,2.251,0,0,0,2.5-.033,1.636,1.636,0,0,1-.4.788,1.092,1.092,0,0,1-.81.344,1.23,1.23,0,0,1-.8-.4,3.348,3.348,0,0,1-.488-.7" transform="translate(-328.097 -295.508)" fill="#fff"/>
              <path id="Trazado_719652" data-name="Trazado 719652" d="M310.108,253.336c-2.518-.1-3.245,1.507-2.633,3.292a1.9,1.9,0,0,0,2.978.894c.351-.351.872-1.067,1.222-1.417.789-.788,1.776-1.222,2.642-.687a4.493,4.493,0,0,0,.7.445c.414.159.9.036,1.292.247.584.313.67,1.741.661,2.432,1.3,0,1.257-1.552,1.257-2.639a2.808,2.808,0,0,0-.6-2.318c-.159-.2-.382-1.21-1.507-1.21-1.464,0-1.342-.83-3.077-.736-2.183.119-1.246,1.764-2.944,1.7" transform="translate(-307.27 -251.632)" fill="#232743"/>
              <path id="Trazado_719653" data-name="Trazado 719653" d="M359.854,287.24a3.271,3.271,0,0,1,.461-1.043.833.833,0,0,1,.46-.385.7.7,0,0,1,.673.217.953.953,0,0,1,.21.608,2.126,2.126,0,0,1-.7,1.616.844.844,0,0,1-.765.269c-.355-.106-.386-.508-.352-.822.029-.28.059-.558.015-.461" transform="translate(-350.599 -279.795)" fill="#ff9c6e"/>
              <path id="Trazado_719654" data-name="Trazado 719654" d="M329.142,314.311a3.205,3.205,0,0,0,2.316.991,3.341,3.341,0,0,0,2.327-.981,2.8,2.8,0,0,1-2.349,1.294,2.7,2.7,0,0,1-2.294-1.3" transform="translate(-325.301 -303.304)" fill="#bb535d"/>
            </g>
            <g id="Grupo_1017578" data-name="Grupo 1017578" transform="translate(10.746 12.201)">
              <path id="Trazado_719655" data-name="Trazado 719655" d="M316.566,322.82c-.591.241-1.74.258-2.331.5a.283.283,0,0,0-.2.407,16.924,16.924,0,0,0,.837,3.071,5.687,5.687,0,0,0,1.884,2.519,6.738,6.738,0,0,1,3.07-2.416c-1.692-.941-3.161-2.115-3.264-4.081" transform="translate(-314.02 -322.52)" fill="#fff"/>
              <path id="Trazado_719656" data-name="Trazado 719656" d="M347.36,325.484a4.244,4.244,0,0,0,1.7-4.374,11.415,11.415,0,0,1,3.259,1.14c-.811,1.754-1.017,3.2-2.183,4.739-.083.11-.2.232-.331.211a.41.41,0,0,1-.232-.178,5.277,5.277,0,0,0-2.215-1.537" transform="translate(-341.505 -321.11)" fill="#fff"/>
            </g>
            <g id="Grupo_1017582" data-name="Grupo 1017582" transform="translate(0 15.2)">
              <g id="Grupo_1017580" data-name="Grupo 1017580" transform="translate(20.355 14.386)">
                <path id="Trazado_719657" data-name="Trazado 719657" d="M368.947,421.222c3.765.6,7.655-1.878,11.3-.863a1.147,1.147,0,0,1,.666.379c-.859,1.059-2.411.414-3.423.623a.79.79,0,0,1,.71,1.168c-.162.235-.476.383-.574.645a1.431,1.431,0,0,0-.046.4c-.065.875-1.059,1.5-2.039,1.629a11.343,11.343,0,0,1-2.95-.233,14.408,14.408,0,0,0-3.2-.065.544.544,0,0,1-.423-.076.389.389,0,0,1-.093-.216,8.152,8.152,0,0,1,.063-3.391" transform="translate(-368.737 -420.111)" fill="#ff9c6e"/>
                <g id="Grupo_1017579" data-name="Grupo 1017579" transform="translate(1.079 0.776)">
                  <path id="Trazado_719658" data-name="Trazado 719658" d="M378.11,426.535q.12.2.237.411" transform="translate(-377.543 -426.183)" fill="none" stroke="#2e4369" stroke-miterlimit="10" stroke-width="1"/>
                  <path id="Trazado_719659" data-name="Trazado 719659" d="M375.533,426.616c-.45,1.127-.373,3.521.282,3.587,0,0,.747.02.741-.056a7.631,7.631,0,0,1,.186-3.619c-.347.033-.929.042-1.209.088" transform="translate(-375.185 -426.177)" fill="#32436b"/>
                  <path id="Trazado_719660" data-name="Trazado 719660" d="M374.883,425.31a.838.838,0,1,1,.836.781.81.81,0,0,1-.836-.781" transform="translate(-374.883 -424.53)" fill="#232743"/>
                  <path id="Trazado_719661" data-name="Trazado 719661" d="M375.838,425.808a.669.669,0,1,1,.669.641.655.655,0,0,1-.669-.641" transform="translate(-375.67 -425.055)" fill="#fff"/>
                  <path id="Trazado_719662" data-name="Trazado 719662" d="M378.232,426.434a3.092,3.092,0,0,1-.187.515s-.015-.011-.013-.011l-.321-.336" transform="translate(-377.214 -426.1)" fill="none" stroke="#2e4369" stroke-linecap="round" stroke-miterlimit="10" stroke-width="0.5"/>
                  <path id="Trazado_719663" data-name="Trazado 719663" d="M377.434,427.055a2.515,2.515,0,0,1,.353.339l.03.02" transform="translate(-376.986 -426.612)" fill="none" stroke="#2e4369" stroke-miterlimit="10" stroke-width="0.5"/>
                </g>
              </g>
              <g id="Grupo_1017581" data-name="Grupo 1017581">
                <path id="Trazado_719664" data-name="Trazado 719664" d="M256.577,339.756c-6.1,5.5-3.331,14.941-1.587,17.2a4.608,4.608,0,0,0,2.728,1.378c7.2,1.393,10.241.745,14.941-.2a1.711,1.711,0,0,0,.519-.123c.557-.313.365-1.138.224-1.761a4.623,4.623,0,0,1,.429-3.168c-3.459-.918-7.182-.447-10.617-1.451a1.55,1.55,0,0,1-.558-.253,1.706,1.706,0,0,1-.359-1.506,17.749,17.749,0,0,0-.351-6.435c-.6-2.074-.871-4.451-2.88-5.249a13.689,13.689,0,0,0-2.489,1.567" transform="translate(-252.824 -338.189)" fill="#fff"/>
                <path id="Trazado_719665" data-name="Trazado 719665" d="M347.981,421.555a8.684,8.684,0,0,0-1.382,3.1,3.764,3.764,0,0,0,2.047.578,1.718,1.718,0,0,0,1.458-.746" transform="translate(-330.131 -406.915)" fill="none" stroke="#2e4369" stroke-miterlimit="10" stroke-width="1"/>
                <path id="Trazado_719666" data-name="Trazado 719666" d="M347.43,443.912a2.45,2.45,0,0,0,.069,1.578" transform="translate(-330.735 -425.346)" fill="none" stroke="#2e4369" stroke-miterlimit="10" stroke-width="1"/>
                <path id="Trazado_719667" data-name="Trazado 719667" d="M356.821,432.493a.321.321,0,1,1,.321.321.321.321,0,0,1-.321-.321" transform="translate(-338.558 -415.668)" fill="#32436b"/>
                <path id="Trazado_719668" data-name="Trazado 719668" d="M290.648,413.285a5.314,5.314,0,0,0-2.887.993" transform="translate(-281.626 -400.098)" fill="none" stroke="#2e4369" stroke-miterlimit="10" stroke-width="0.7"/>
                <path id="Trazado_719669" data-name="Trazado 719669" d="M297.627,415.225a4.706,4.706,0,0,0-2.085,1.667" transform="translate(-288.04 -401.697)" fill="none" stroke="#2e4369" stroke-miterlimit="10" stroke-width="0.7"/>
                <path id="Trazado_719670" data-name="Trazado 719670" d="M304.149,417.147a3.51,3.51,0,0,0-1.108,1.135" transform="translate(-294.223 -403.281)" fill="none" stroke="#2e4369" stroke-miterlimit="10" stroke-width="0.7"/>
              </g>
            </g>
            <g id="Grupo_1017583" data-name="Grupo 1017583" transform="translate(19.082 19.777)">
              <path id="Trazado_719671" data-name="Trazado 719671" d="M422.765,366.914l-3.454,13.708,18.237-.1,3.466-13.1a1.958,1.958,0,0,0-1.785-2.456l-12.853-.708a3.524,3.524,0,0,0-3.611,2.658" transform="translate(-409.157 -364.25)" fill="#32436b"/>
              <path id="Trazado_719672" data-name="Trazado 719672" d="M436.346,379.662c-.515-.338-1.056-.637-1.538-1.023a2.577,2.577,0,0,1-.6-.65c-.154-.247-.281-.509-.411-.769a3.171,3.171,0,0,0-.991-1.3,3.33,3.33,0,0,0-1.448-.508c-.279-.037-.557-.036-.838-.049-.34-.017-.677-.051-1.018-.06a11.575,11.575,0,0,1-2.023-.155,3.215,3.215,0,0,1-1.316-.664,2.246,2.246,0,0,1-.765-1.119,3.7,3.7,0,0,1-.1-.771,2.637,2.637,0,0,1,.18-.923,4.377,4.377,0,0,1,.152-.451c.054-.125.109-.248.165-.371q.184-.4.39-.793a14.744,14.744,0,0,1,.889-1.478,11.69,11.69,0,0,1,2.3-2.519,9.393,9.393,0,0,1,2.618-1.5l-5.624-.31a3.524,3.524,0,0,0-3.611,2.658l-3.454,13.708,17.864-.1a2.94,2.94,0,0,0-.827-.858" transform="translate(-409.155 -364.25)" fill="#232743"/>
              <rect id="Rectángulo_375636" data-name="Rectángulo 375636" width="10.592" height="1.224" transform="translate(0 15.147)" fill="#32436b"/>
              <path id="Trazado_719673" data-name="Trazado 719673" d="M489.476,390.811s-1.109.354-1.412,1.065.2,1.647.591,1.52a1.454,1.454,0,0,0,.886-.943,4.777,4.777,0,0,0-.064-1.641" transform="translate(-465.759 -386.147)" fill="#8ab375"/>
              <path id="Trazado_719674" data-name="Trazado 719674" d="M495.943,403.167a2.253,2.253,0,0,0-1.539-.547c-.816.1-1.593.871-1.334,1.1a1.515,1.515,0,0,0,1.243.222,7.253,7.253,0,0,0,1.63-.772" transform="translate(-469.921 -395.874)" fill="#8ab375"/>
              <path id="Trazado_719675" data-name="Trazado 719675" d="M477.659,400.48a2.15,2.15,0,0,0,.73,1.267c.567.362,1.427.156,1.367-.165a1.3,1.3,0,0,0-.692-.845,4.677,4.677,0,0,0-1.4-.256" transform="translate(-457.258 -394.118)" fill="#8ab375"/>
              <path id="Trazado_719676" data-name="Trazado 719676" d="M512.611,373.715q1.423.063,2.842.2a1.117,1.117,0,0,1,.716.242.931.931,0,0,1,.205.709,5.123,5.123,0,0,1-.24,1.182l-1.216,4.236" transform="translate(-486.072 -372.053)" fill="none" stroke="#232743" stroke-miterlimit="10" stroke-width="1"/>
            </g>
          </g>
        </g>
      </g>
    </g>
  </g>
</svg>
