<svg xmlns="http://www.w3.org/2000/svg" width="124" height="124" viewBox="0 0 124 124">
  <g id="Grupo_1016928" data-name="Grupo 1016928" transform="translate(-737.001 -2058)">
    <g id="Grupo_159183" data-name="Grupo 159183" transform="translate(737.001 2058)">
      <path id="Unión_12" data-name="Unión 12" d="M62,0A62,62,0,1,1,0,62,62,62,0,0,1,62,0Z" fill="#01d8d1"/>
    </g>
    <g id="object" transform="translate(675.3 2059.51)">
      <g id="Grupo_1017715" data-name="Grupo 1017715" transform="translate(80.7 27.16)">
        <g id="Grupo_1017586" data-name="Grupo 1017586" transform="translate(0.858 57.426)" opacity="0.12">
          <path id="Trazado_719677" data-name="Trazado 719677" d="M174.574,536.1h-73.58c-2.324,0-4.231,1.151-4.231,2.561,0,.982.914,1.828,2.245,2.257H92.531c-2.324,0-4.231,1.151-4.231,2.561s1.907,2.561,4.231,2.561h2.257a2.1,2.1,0,0,0-1.016,1.659v1.027c0,1.41,1.907,2.561,4.231,2.561h72.485a5.473,5.473,0,0,0,3.2-.914,2.782,2.782,0,0,0,.869-3.374,1.91,1.91,0,0,0-.192-.327,4.723,4.723,0,0,0-3.678-1.534h-.2l-1.106.056a2.385,2.385,0,0,0,1.4-.542c1.117-.982.587-3.475-1.094-3.475l4.886.034c2.324,0,4.231-1.151,4.231-2.561S176.9,536.1,174.574,536.1Z" transform="translate(-88.3 -536.1)" fill="#606060"/>
        </g>
        <g id="Grupo_1017714" data-name="Grupo 1017714">
          <g id="Grupo_1017587" data-name="Grupo 1017587" transform="translate(14.003 42.137)">
            <path id="Trazado_719678" data-name="Trazado 719678" d="M211.514,401.92v7.436L209.246,424.9l-2.81-.18.282-13.619L204.8,400.6h6.443Z" transform="translate(-204.8 -400.6)" fill="#484f5b"/>
          </g>
          <g id="Grupo_1017588" data-name="Grupo 1017588" transform="translate(6.748 39.711)">
            <path id="Trazado_719679" data-name="Trazado 719679" d="M148.229,381.876l-1.749,10.155-3.34,12.987-2.64-.5,1.252-12.457L140.5,382.3l5.427-3.2Z" transform="translate(-140.5 -379.1)" fill="#484f5b"/>
          </g>
          <g id="Grupo_1017589" data-name="Grupo 1017589" transform="translate(57.286 13.895)">
            <path id="Trazado_719680" data-name="Trazado 719680" d="M602.651,157.262l-7.65.722-4.66-7.684-1.941.779,3.893,10.877,7.853.519Z" transform="translate(-588.4 -150.3)" fill="#c0ccc0"/>
          </g>
          <g id="Grupo_1017590" data-name="Grupo 1017590" transform="translate(33.207 21.093)">
            <path id="Trazado_719681" data-name="Trazado 719681" d="M382.594,214.1l-2.494,1.918-5.1,8.316,1.907,5.845,1.7.7-.6-6.544,5.439-5.472Z" transform="translate(-375 -214.1)" fill="#d1e0da"/>
          </g>
          <g id="Grupo_1017592" data-name="Grupo 1017592" transform="translate(5.403 21.364)">
            <g id="Grupo_1017591" data-name="Grupo 1017591" transform="translate(0 0)">
              <path id="Trazado_719682" data-name="Trazado 719682" d="M139.248,216.974l-5.664-.474s-1.862,2.437-3.927,9.433a27.964,27.964,0,0,0-.53,13.19,58.218,58.218,0,0,1,15.413-.113l-2.629-17.365Z" transform="translate(-128.583 -216.5)" fill="#dcf1f2"/>
            </g>
          </g>
          <g id="Grupo_1017609" data-name="Grupo 1017609" transform="translate(62.161 12.371)">
            <g id="Grupo_1017593" data-name="Grupo 1017593" transform="translate(2.731 50.98)">
              <path id="Trazado_719683" data-name="Trazado 719683" d="M655.8,589.209l.5,2.968,1.568-.575.248-3Z" transform="translate(-655.8 -588.6)" fill="#eacdb0"/>
            </g>
            <g id="Grupo_1017594" data-name="Grupo 1017594" transform="translate(12.773 49.693)">
              <path id="Trazado_719684" data-name="Trazado 719684" d="M744.8,578.34l1.331,2.889,1.365.2-.621-4.231Z" transform="translate(-744.8 -577.2)" fill="#eacdb0"/>
            </g>
            <g id="Grupo_1017595" data-name="Grupo 1017595" transform="translate(1.636 53.891)">
              <path id="Trazado_719685" data-name="Trazado 719685" d="M649.271,614.4l-1.58.666-1.591,1.5.812.88,2.731-1.241Z" transform="translate(-646.1 -614.4)" fill="#514943"/>
            </g>
            <g id="Grupo_1017596" data-name="Grupo 1017596" transform="translate(12.164 53.721)">
              <path id="Trazado_719686" data-name="Trazado 719686" d="M741.341,612.9l-1.941,1.3.587,1.162,3.193-1.2-.474-1.061Z" transform="translate(-739.4 -612.9)" fill="#514943"/>
            </g>
            <g id="Grupo_1017597" data-name="Grupo 1017597" transform="translate(0.485 29.123)">
              <path id="Trazado_719687" data-name="Trazado 719687" d="M636.182,395.464l-.282,8.293L637.367,418l3.4-.35.508-13.8,1.016-8.948Z" transform="translate(-635.9 -394.9)" fill="#726562"/>
            </g>
            <g id="Grupo_1017598" data-name="Grupo 1017598" transform="translate(5.427 29.011)">
              <path id="Trazado_719688" data-name="Trazado 719688" d="M679.7,393.9l1.049,5.3s6.037,17.23,6.229,17.219,2.64-1.027,2.64-1.027l-1.805-12.1s.621-6.906.6-7.1S679.7,393.9,679.7,393.9Z" transform="translate(-679.7 -393.9)" fill="#726562"/>
            </g>
            <g id="Grupo_1017606" data-name="Grupo 1017606" transform="translate(8.326)">
              <g id="Grupo_1017600" data-name="Grupo 1017600" transform="translate(1.896 2.3)">
                <g id="Grupo_1017599" data-name="Grupo 1017599">
                  <path id="Trazado_719689" data-name="Trazado 719689" d="M727.46,159.83c-.248-2.37-3.25-3.825-4.547-1.422a5.384,5.384,0,0,0-.722,2.336,2.607,2.607,0,0,0,.948,2.166.011.011,0,0,1,.011.011c-.068.2-.147.395-.214.6-.011.045-.034.09-.011.135a.212.212,0,0,0,.124.09c.237.09.463.181.7.271a.8.8,0,0,0,.361.079c.271-.023.44-.316.508-.575.011-.068.034-.124.045-.192A3.512,3.512,0,0,0,727.46,159.83Z" transform="translate(-722.19 -157.175)" fill="#eacdb0"/>
                </g>
              </g>
              <g id="Grupo_1017605" data-name="Grupo 1017605">
                <g id="Grupo_1017602" data-name="Grupo 1017602" transform="translate(0 1.076)">
                  <g id="Grupo_1017601" data-name="Grupo 1017601">
                    <path id="Trazado_719690" data-name="Trazado 719690" d="M707.942,149.5a2.891,2.891,0,0,0-.553,1.9,18.229,18.229,0,0,0-.124,1.918c-.079.09-.226,0-.3-.09-.485-.508-.97-1.027-1.444-1.546a.443.443,0,0,1-.113-.181.551.551,0,0,1,.011-.271,8.51,8.51,0,0,1,2.5-4.175c.587-.6,1.986-1.151,2.6-.226a1.349,1.349,0,0,1,.158.733,1.241,1.241,0,0,1-.056.451c-.226.564-.756.44-1.219.564A2.868,2.868,0,0,0,707.942,149.5Z" transform="translate(-705.391 -146.329)" fill="#333"/>
                  </g>
                </g>
                <g id="Grupo_1017604" data-name="Grupo 1017604" transform="translate(3.929)">
                  <g id="Grupo_1017603" data-name="Grupo 1017603">
                    <path id="Trazado_719691" data-name="Trazado 719691" d="M742.678,142.831a5.529,5.529,0,0,1-.519,1.523c-.079.158-.463.5-.485.609-.079.327.474,1.2.609,1.512,1.14-.417,2.291-.835,3.43-1.264a.545.545,0,0,0,.237-.135.607.607,0,0,0,.09-.237,11.08,11.08,0,0,0-.271-4.829,4.031,4.031,0,0,0-3.329-3.2c-1.365-.124-2.471.722-2.189,2.2.214,1.117,1.489,1.535,2.087,2.37A1.805,1.805,0,0,1,742.678,142.831Z" transform="translate(-740.208 -136.794)" fill="#333"/>
                  </g>
                </g>
              </g>
            </g>
            <g id="Grupo_1017608" data-name="Grupo 1017608" transform="translate(0 8.389)">
              <g id="Grupo_1017607" data-name="Grupo 1017607">
                <path id="Trazado_719692" data-name="Trazado 719692" d="M644.948,211.862a.551.551,0,0,0,.079.034c1.162.632,1.862,2.821,2.268,4.107a25.536,25.536,0,0,1,.914,10.121c-.169,1.862-.429,3.724-.722,5.574-.079.508-1.117,5.044-.9,5.19a42.951,42.951,0,0,0-7.109-3.859c-2.494-.993-5.2-.124-7.876.1,1.523-5.732,3.441-12.965,5.811-18.381a15.184,15.184,0,0,1,.88-1.952c.429-.688.97-.835,1.659-1.185a3.473,3.473,0,0,1,.733-.3A6.3,6.3,0,0,1,644.948,211.862Z" transform="translate(-631.6 -211.145)" fill="#d0ddd0"/>
              </g>
            </g>
          </g>
          <g id="Grupo_1017619" data-name="Grupo 1017619" transform="translate(10.855 12.948)">
            <g id="Grupo_1017611" data-name="Grupo 1017611" transform="translate(4.331 1.433)">
              <g id="Grupo_1017610" data-name="Grupo 1017610">
                <path id="Trazado_719693" data-name="Trazado 719693" d="M216.146,155.945a3.594,3.594,0,0,1,.3,1.659c0,.147-.011.327.1.417s-.011.3.1.181a2.877,2.877,0,0,0,.5-.688,5.428,5.428,0,0,0,.079-1.128,1.659,1.659,0,0,0-.237-.937,1.743,1.743,0,0,0-.429-.384,2.419,2.419,0,0,0-.722-.406c-.463-.124-.767.023-.372.384A3.109,3.109,0,0,1,216.146,155.945Z" transform="translate(-215.287 -154.616)" fill="#534741"/>
              </g>
            </g>
            <g id="Grupo_1017614" data-name="Grupo 1017614" transform="translate(0.462 1.436)">
              <g id="Grupo_1017613" data-name="Grupo 1017613">
                <g id="Grupo_1017612" data-name="Grupo 1017612">
                  <path id="Trazado_719694" data-name="Trazado 719694" d="M182.32,162.135c.643.113,1.286.226,1.918.339a11.009,11.009,0,0,0,.3-1.7c.564-.056,1.241-.192,1.478-.767a2.006,2.006,0,0,0,.113-.587c.068-.824.135-1.659.2-2.482a2.428,2.428,0,0,0-.034-.858,1.732,1.732,0,0,0-.948-1,3.638,3.638,0,0,0-3.34-.056,1.85,1.85,0,0,0-.722.632,2.923,2.923,0,0,0-.282,1.535c0,.485-.011.982-.011,1.467a1.983,1.983,0,0,0,.429,1.535c.214.169.508.226.688.44C182.433,161,182.23,161.628,182.32,162.135Z" transform="translate(-181 -154.636)" fill="#bf9e6c"/>
                </g>
              </g>
            </g>
            <g id="Grupo_1017616" data-name="Grupo 1017616" transform="translate(0.276 5.32)">
              <g id="Grupo_1017615" data-name="Grupo 1017615">
                <path id="Trazado_719695" data-name="Trazado 719695" d="M184.894,189.63c0-.158-.034-.609-.282-.35a.443.443,0,0,0-.1.271.847.847,0,0,1-.056.293.533.533,0,0,1-.53.271.457.457,0,0,1-.237-.079.865.865,0,0,1-.169-.181c-.124-.169-.237-.327-.361-.5-.2-.282-.666-.2-.982-.192a1.962,1.962,0,0,0-1.027.316c-.034.023-.056.045-.09.068a1.034,1.034,0,0,1-.237.147.672.672,0,0,1-.779-.327c-.079-.124-.147-.282-.282-.3a.291.291,0,0,0-.282.147.7.7,0,0,0-.1.339,2.652,2.652,0,0,0,.113,1.264,1.839,1.839,0,0,0,1.862,1.061c.3.011.609.034.914.045a2.793,2.793,0,0,0,1.636-.237,2.01,2.01,0,0,0,.858-1.241A2.235,2.235,0,0,0,184.894,189.63Zm-2.121,1.016a1.041,1.041,0,0,1-.948.034c-.135-.056-.056-.282.079-.237a.861.861,0,0,0,.779-.023C182.807,190.352,182.9,190.567,182.773,190.646Z" transform="translate(-179.348 -189.061)" fill="#534741"/>
              </g>
            </g>
            <g id="Grupo_1017618" data-name="Grupo 1017618" transform="translate(0 0)">
              <g id="Grupo_1017617" data-name="Grupo 1017617">
                <path id="Trazado_719696" data-name="Trazado 719696" d="M183.186,143.321a5.2,5.2,0,0,0,.169-.6,1.078,1.078,0,0,1-.6,0c.011-.124.023-.237.023-.361a6.9,6.9,0,0,0-1.41-.293,4.349,4.349,0,0,0-2.855.169,2.762,2.762,0,0,0-1.546,1.963,4.31,4.31,0,0,0,.451,2.776,4.977,4.977,0,0,1,0-1,1.718,1.718,0,0,1,.26-.609,2.635,2.635,0,0,1,.97-.891,6.2,6.2,0,0,1,4.017-.361c.293.1.339.181.542-.1a5.709,5.709,0,0,0,.316-.666C183.389,143.333,183.288,143.321,183.186,143.321Z" transform="translate(-176.901 -141.912)" fill="#534741"/>
              </g>
            </g>
          </g>
          <g id="Grupo_1017647" data-name="Grupo 1017647" transform="translate(31.162 12.093)">
            <g id="Grupo_1017620" data-name="Grupo 1017620" transform="translate(9.978 8.346)">
              <path id="Trazado_719697" data-name="Trazado 719697" d="M445.3,208.3l2.956,1.433,5.45,5.676-.214,3.114-3.509-.587-3.611-8.3Z" transform="translate(-445.3 -208.3)" fill="#ebc254"/>
            </g>
            <g id="Grupo_1017645" data-name="Grupo 1017645">
              <g id="Grupo_1017637" data-name="Grupo 1017637" transform="translate(1.014 7.748)">
                <g id="Grupo_1017625" data-name="Grupo 1017625" transform="translate(1.596 21.687)">
                  <g id="Grupo_1017622" data-name="Grupo 1017622" transform="translate(0.124 24.745)">
                    <g id="Grupo_1017621" data-name="Grupo 1017621">
                      <path id="Trazado_719698" data-name="Trazado 719698" d="M381.19,615.335l-.09.824,1.5,1.038.88-.734-.711-.925-1.5-1.038Z" transform="translate(-381.1 -614.5)" fill="#514943"/>
                    </g>
                  </g>
                  <g id="Grupo_1017624" data-name="Grupo 1017624">
                    <g id="Grupo_1017623" data-name="Grupo 1017623">
                      <path id="Trazado_719699" data-name="Trazado 719699" d="M380.248,395.471,380,397.987l2.245,8.632L380.158,420.5l1.535.53,4.062-13.54.643-3.949-.023-8.338Z" transform="translate(-380 -395.2)" fill="#8c9498"/>
                    </g>
                  </g>
                </g>
                <g id="Grupo_1017630" data-name="Grupo 1017630" transform="translate(6.03 22.646)">
                  <g id="Grupo_1017627" data-name="Grupo 1017627">
                    <g id="Grupo_1017626" data-name="Grupo 1017626">
                      <path id="Trazado_719700" data-name="Trazado 719700" d="M426.95,405.821l-3.238,23.244h-1.467l-.271-14.906L419.3,403.7Z" transform="translate(-419.3 -403.7)" fill="#8c9498"/>
                    </g>
                  </g>
                  <g id="Grupo_1017629" data-name="Grupo 1017629" transform="translate(2.945 25.185)">
                    <g id="Grupo_1017628" data-name="Grupo 1017628">
                      <path id="Trazado_719701" data-name="Trazado 719701" d="M445.4,626.9v.835l1.591.835.8-.835-.8-.835Z" transform="translate(-445.4 -626.9)" fill="#514943"/>
                    </g>
                  </g>
                </g>
                <g id="Grupo_1017633" data-name="Grupo 1017633" transform="translate(0 0.002)">
                  <g id="Grupo_1017632" data-name="Grupo 1017632">
                    <g id="Grupo_1017631" data-name="Grupo 1017631">
                      <path id="Trazado_719702" data-name="Trazado 719702" d="M367.78,222.183a91.815,91.815,0,0,0,.869-15.921,3.389,3.389,0,0,1,1.23-2.5c.508-.113.948-.44,1.467-.575,3.475-.869,5.371,1.783,6.669,4.638a82.784,82.784,0,0,1,4.039,10.877,61.386,61.386,0,0,1,2.313,9.941c.169,1.4-.011,4.118-1.535,4.728a21.411,21.411,0,0,1-8.372,1.365c-2.663-.034-5.315-.858-7.955-.745C364.947,234.065,366.527,230.443,367.78,222.183Z" transform="translate(-365.857 -203.014)" fill="#ffd35b"/>
                    </g>
                  </g>
                </g>
                <g id="Grupo_1017635" data-name="Grupo 1017635" transform="translate(5.917)">
                  <g id="Grupo_1017634" data-name="Grupo 1017634">
                    <path id="Trazado_719703" data-name="Trazado 719703" d="M418.3,203l4.976,7.357-1.93-6.759-.959-.519L419.338,203Z" transform="translate(-418.3 -203)" fill="#fff5d7"/>
                  </g>
                </g>
                <g id="Grupo_1017636" data-name="Grupo 1017636" transform="translate(0.783 0.654)">
                  <path id="Trazado_719704" data-name="Trazado 719704" d="M376.806,208.8l-1.952,1.681-.666,8.97L372.8,221.8l2.054.53,1.952-2.11.948-8.395Z" transform="translate(-372.8 -208.8)" fill="#ebc254"/>
                </g>
              </g>
              <g id="Grupo_1017644" data-name="Grupo 1017644">
                <g id="Grupo_1017639" data-name="Grupo 1017639" transform="translate(9.131 0.695)">
                  <g id="Grupo_1017638" data-name="Grupo 1017638">
                    <path id="Trazado_719705" data-name="Trazado 719705" d="M437.8,141.673a2.577,2.577,0,0,1,1.286,2.223c-.045.406-.3.711-.339,1.151-.079.869-1.456,1.693-.711,2.584a2.571,2.571,0,0,0,1.625.688.459.459,0,0,0,.214,0,.3.3,0,0,0,.181-.282,1.741,1.741,0,0,0-.056-.35c-.293-1.219.372-2.561.519-3.78a3.95,3.95,0,0,0-1.072-3.408,2.149,2.149,0,0,0-1.489,1.027Z" transform="translate(-437.8 -140.5)" fill="#483d3f"/>
                  </g>
                </g>
                <g id="Grupo_1017641" data-name="Grupo 1017641" transform="translate(6.481 1.647)">
                  <g id="Grupo_1017640" data-name="Grupo 1017640">
                    <path id="Trazado_719706" data-name="Trazado 719706" d="M418.89,150.48c-.53-2.55-3.588-1.647-4.412.609a3.245,3.245,0,0,0,1.128,3.6c-.079.226-.09.485-.181.711a4.655,4.655,0,0,0,1.061.293.331.331,0,0,0,.384-.35c0-.124-.011-.248-.011-.339a1.958,1.958,0,0,0,.666-.2,2.891,2.891,0,0,0,1.4-1.929A5.509,5.509,0,0,0,418.89,150.48Z" transform="translate(-414.31 -148.938)" fill="#eacdb0"/>
                  </g>
                </g>
                <g id="Grupo_1017643" data-name="Grupo 1017643">
                  <g id="Grupo_1017642" data-name="Grupo 1017642">
                    <path id="Trazado_719707" data-name="Trazado 719707" d="M364.3,141.893c-.485-1.241-.1-3.791.937-4.638a1.68,1.68,0,0,1,1.2-.316c.3.011.3.124.575-.023a1.221,1.221,0,0,0,.181-1.749c-1.343-1.749-3.385-.384-4.5.869a9.4,9.4,0,0,0-2.1,3.554,14.8,14.8,0,0,0-.463,4.389c.079,1.23.733,2.437.44,3.633a5.425,5.425,0,0,1-2.11,2.527,3.449,3.449,0,0,0-1.568,2.8,2.3,2.3,0,0,0,1.162,1.625,4.326,4.326,0,0,0,1.986.508,7.274,7.274,0,0,1,1.647.124,1.548,1.548,0,0,1,1.174,1.049c.068.293.023.666.271.846a.834.834,0,0,0,.406.1,1.562,1.562,0,0,0,1.241-.271c.474-.485.248-1.5.869-1.76a2.045,2.045,0,0,1,.587-.079c1-.135,1.444-1.444,1.14-2.415a10.547,10.547,0,0,0-1.636-2.55c-1.106-1.647-1.817-3.814-1.027-5.676a2.784,2.784,0,0,0,.271-.835,3.275,3.275,0,0,0-.621-1.546A.594.594,0,0,0,364.3,141.893Z" transform="translate(-356.873 -134.338)" fill="#483d3f"/>
                  </g>
                </g>
              </g>
            </g>
            <g id="Grupo_1017646" data-name="Grupo 1017646" transform="translate(17.041 10.546)">
              <path id="Trazado_719708" data-name="Trazado 719708" d="M507.9,232.708l2.527-4.908,1.3.237-1.3,6.962-1.4.824Z" transform="translate(-507.9 -227.8)" fill="#ebc254"/>
            </g>
          </g>
          <g id="Grupo_1017656" data-name="Grupo 1017656" transform="translate(16.993 16.241)">
            <g id="Grupo_1017648" data-name="Grupo 1017648" transform="translate(23.705 27.408)">
              <path id="Trazado_719709" data-name="Trazado 719709" d="M445.418,414s-4.592,7.425-3.972,25.783h4.829s-1.568-16.034,1.693-25.106Z" transform="translate(-441.389 -414)" fill="#726562"/>
            </g>
            <g id="Grupo_1017651" data-name="Grupo 1017651" transform="translate(26.252)">
              <g id="Grupo_1017649" data-name="Grupo 1017649">
                <path id="Trazado_719710" data-name="Trazado 719710" d="M489.419,171.1s-16.316,3.013-22.443,10.561S465.949,200,465.949,200s11.611,2.787,17.738-4.762S489.419,171.1,489.419,171.1Z" transform="translate(-463.958 -171.1)" fill="#64a195"/>
              </g>
              <g id="Grupo_1017650" data-name="Grupo 1017650" transform="translate(1.325 10.719)">
                <path id="Trazado_719711" data-name="Trazado 719711" d="M476.354,284.266s.666.158,1.76.293l13-18.46L475.7,282.608C476.061,283.646,476.354,284.266,476.354,284.266Z" transform="translate(-475.7 -266.1)" fill="#698178"/>
              </g>
            </g>
            <g id="Grupo_1017654" data-name="Grupo 1017654" transform="translate(0 15.35)">
              <g id="Grupo_1017652" data-name="Grupo 1017652">
                <path id="Trazado_719712" data-name="Trazado 719712" d="M231.3,307.146s2.742,14.556,9.5,19.994,16.372.858,16.372.858,2.448-10.37-4.31-15.808S231.3,307.146,231.3,307.146Z" transform="translate(-231.3 -307.139)" fill="#64a195"/>
              </g>
              <g id="Grupo_1017653" data-name="Grupo 1017653" transform="translate(9.602 7.747)">
                <path id="Trazado_719713" data-name="Trazado 719713" d="M332.659,388.911s.135-.6.259-1.58L316.4,375.8l14.77,13.7C332.107,389.171,332.659,388.911,332.659,388.911Z" transform="translate(-316.4 -375.8)" fill="#698178"/>
              </g>
            </g>
            <g id="Grupo_1017655" data-name="Grupo 1017655" transform="translate(28.231 11.577)">
              <path id="Trazado_719714" data-name="Trazado 719714" d="M481.5,291.009s17.7-3.182,22.556-17.309C504.056,273.7,502.465,295.793,481.5,291.009Z" transform="translate(-481.5 -273.7)" fill="#539689"/>
            </g>
          </g>
          <g id="Grupo_1017657" data-name="Grupo 1017657" transform="translate(50.595 21.308)">
            <path id="Trazado_719715" data-name="Trazado 719715" d="M529.1,217.636l.316-1.072,1.207-.564,1.275.824-.485.812Z" transform="translate(-529.1 -216)" fill="#eacdb0"/>
          </g>
          <g id="Grupo_1017658" data-name="Grupo 1017658" transform="translate(32.542 33.065)">
            <path id="Trazado_719716" data-name="Trazado 719716" d="M371.571,321.091,370.5,320.2l-1.219.282-.181,1.884,1.23.293Z" transform="translate(-369.1 -320.2)" fill="#eacdb0"/>
          </g>
          <g id="Grupo_1017659" data-name="Grupo 1017659" transform="translate(74.324 21.849)">
            <path id="Trazado_719717" data-name="Trazado 719717" d="M741.093,220.8l1.647,1.106,3.6,8.609,6.951-1.929.982,1.975-7.786,4.13H743.7l-4.3-9.083Z" transform="translate(-739.4 -220.8)" fill="#c0ccc0"/>
          </g>
          <g id="Grupo_1017660" data-name="Grupo 1017660" transform="translate(14.477 19.841)">
            <path id="Trazado_719718" data-name="Trazado 719718" d="M209.463,206.385,210.591,205l2.742,1.489,4.276,3.329L221.92,203l2.008,1.3-4.231,8.97-2.437.824L209,208.709Z" transform="translate(-209 -203)" fill="#dcf1f2"/>
          </g>
          <g id="Grupo_1017661" data-name="Grupo 1017661" transform="translate(0 11.615)">
            <path id="Trazado_719719" data-name="Trazado 719719" d="M91.115,139.849l-5.98.44,1.76-9.715-2.437-.474L80.7,141.654l1.6,3.137,8.339-.237Z" transform="translate(-80.7 -130.1)" fill="#dcf1f2"/>
          </g>
          <g id="Grupo_1017662" data-name="Grupo 1017662" transform="translate(15.65 66.25)">
            <path id="Trazado_719720" data-name="Trazado 719720" d="M221.691,614.458l1.659,1.207-.824.891L219.4,615.9v-1.6Z" transform="translate(-219.4 -614.3)" fill="#514943"/>
          </g>
          <g id="Grupo_1017663" data-name="Grupo 1017663" transform="translate(6.748 65.167)">
            <path id="Trazado_719721" data-name="Trazado 719721" d="M142.723,605.084c.011,0,1.038,2.144,1.038,2.144s-.993.508-1.038.418-2.223-2.008-2.223-2.008l.113-.937Z" transform="translate(-140.5 -604.7)" fill="#514943"/>
          </g>
          <g id="Grupo_1017670" data-name="Grupo 1017670" transform="translate(1.313 0.159)">
            <g id="Grupo_1017665" data-name="Grupo 1017665">
              <g id="Grupo_1017664" data-name="Grupo 1017664" opacity="0.59">
                <circle id="Elipse_5892" data-name="Elipse 5892" cx="4.694" cy="4.694" r="4.694" transform="translate(0 6.638) rotate(-45)" fill="#aecbdc"/>
              </g>
            </g>
            <g id="Grupo_1017669" data-name="Grupo 1017669" transform="translate(2.411 2.429)" opacity="0.56">
              <g id="Grupo_1017667" data-name="Grupo 1017667">
                <g id="Grupo_1017666" data-name="Grupo 1017666">
                  <path id="Trazado_719722" data-name="Trazado 719722" d="M115.1,57.457a.238.238,0,0,1-.147-.056,4.276,4.276,0,0,1,3.013-7.3,4.2,4.2,0,0,1,3.013,1.252.207.207,0,1,1-.293.293,3.833,3.833,0,0,0-2.719-1.128,3.787,3.787,0,0,0-2.719,1.128,3.848,3.848,0,0,0,0,5.439.211.211,0,0,1,0,.293A.193.193,0,0,1,115.1,57.457Z" transform="translate(-113.7 -50.1)" fill="#fff"/>
                </g>
              </g>
              <g id="Grupo_1017668" data-name="Grupo 1017668" transform="translate(1.67 7.357)">
                <path id="Trazado_719723" data-name="Trazado 719723" d="M128.5,115.571a.271.271,0,1,1,.271.271A.275.275,0,0,1,128.5,115.571Z" transform="translate(-128.5 -115.3)" fill="#fff"/>
              </g>
            </g>
          </g>
          <g id="Grupo_1017677" data-name="Grupo 1017677" transform="translate(15.583)">
            <g id="Grupo_1017672" data-name="Grupo 1017672" transform="translate(0)">
              <g id="Grupo_1017671" data-name="Grupo 1017671" opacity="0.59">
                <circle id="Elipse_5893" data-name="Elipse 5893" cx="7.977" cy="7.977" r="7.977" transform="translate(0 11.282) rotate(-45)" fill="#aecbdc"/>
              </g>
            </g>
            <g id="Grupo_1017676" data-name="Grupo 1017676" transform="translate(4.112 4.146)" opacity="0.56">
              <g id="Grupo_1017674" data-name="Grupo 1017674">
                <g id="Grupo_1017673" data-name="Grupo 1017673">
                  <path id="Trazado_719724" data-name="Trazado 719724" d="M257.614,76.368a.35.35,0,0,1-.248-.1,7.245,7.245,0,0,1,10.245-10.245.351.351,0,0,1-.5.5,6.538,6.538,0,0,0-9.252,9.241.354.354,0,0,1,0,.5A.32.32,0,0,1,257.614,76.368Z" transform="translate(-255.25 -63.9)" fill="#fff"/>
                </g>
              </g>
              <g id="Grupo_1017675" data-name="Grupo 1017675" transform="translate(2.838 12.48)">
                <path id="Trazado_719725" data-name="Trazado 719725" d="M280.4,174.951a.451.451,0,1,1,.451.451A.453.453,0,0,1,280.4,174.951Z" transform="translate(-280.4 -174.5)" fill="#fff"/>
              </g>
            </g>
          </g>
          <g id="Grupo_1017683" data-name="Grupo 1017683" transform="translate(79.287 14.801)">
            <g id="Grupo_1017678" data-name="Grupo 1017678" transform="translate(0 0)">
              <circle id="Elipse_5894" data-name="Elipse 5894" cx="6.567" cy="6.567" r="6.567" transform="translate(0 9.287) rotate(-45)" fill="#ccdfea"/>
            </g>
            <g id="Grupo_1017682" data-name="Grupo 1017682" transform="translate(3.381 3.404)" opacity="0.56">
              <g id="Grupo_1017680" data-name="Grupo 1017680">
                <g id="Grupo_1017679" data-name="Grupo 1017679">
                  <path id="Trazado_719726" data-name="Trazado 719726" d="M815.3,198.779a.283.283,0,0,1-.2-.09,5.968,5.968,0,1,1,8.44-8.44.3.3,0,1,1-.418.417,5.39,5.39,0,0,0-7.628,7.616.3.3,0,0,1,0,.417A.272.272,0,0,1,815.3,198.779Z" transform="translate(-813.35 -188.5)" fill="#fff"/>
                </g>
              </g>
              <g id="Grupo_1017681" data-name="Grupo 1017681" transform="translate(2.33 10.291)">
                <path id="Trazado_719727" data-name="Trazado 719727" d="M834,280.072a.372.372,0,1,1,.372.372A.376.376,0,0,1,834,280.072Z" transform="translate(-834 -279.7)" fill="#fff"/>
              </g>
            </g>
          </g>
          <g id="Grupo_1017689" data-name="Grupo 1017689" transform="translate(55.977 1.336)">
            <g id="Grupo_1017684" data-name="Grupo 1017684">
              <circle id="Elipse_5895" data-name="Elipse 5895" cx="7.346" cy="7.346" r="7.346" fill="#ccdfea"/>
            </g>
            <g id="Grupo_1017688" data-name="Grupo 1017688" transform="translate(0.731 0.779)" opacity="0.56">
              <g id="Grupo_1017686" data-name="Grupo 1017686">
                <g id="Grupo_1017685" data-name="Grupo 1017685">
                  <path id="Trazado_719728" data-name="Trazado 719728" d="M585.456,57.387a.335.335,0,0,1-.226-.09,6.681,6.681,0,0,1,0-9.444,6.674,6.674,0,0,1,9.433,0,.327.327,0,1,1-.463.463,6.028,6.028,0,0,0-8.53,8.519.334.334,0,0,1,0,.463A.289.289,0,0,1,585.456,57.387Z" transform="translate(-583.275 -45.9)" fill="#fff"/>
                </g>
              </g>
              <g id="Grupo_1017687" data-name="Grupo 1017687" transform="translate(2.621 11.498)">
                <path id="Trazado_719729" data-name="Trazado 719729" d="M606.5,148.217a.417.417,0,1,1,.417.417A.416.416,0,0,1,606.5,148.217Z" transform="translate(-606.5 -147.8)" fill="#fff"/>
              </g>
            </g>
          </g>
          <g id="Grupo_1017690" data-name="Grupo 1017690" transform="translate(88.722 28.924)">
            <path id="Trazado_719730" data-name="Trazado 719730" d="M867.327,285.824l2.5-.474V283.5l-1.523.767-.327.812-.982.158Z" transform="translate(-867 -283.5)" fill="#eacdb0"/>
          </g>
          <g id="Grupo_1017691" data-name="Grupo 1017691" transform="translate(56.09 11.107)">
            <path id="Trazado_719731" data-name="Trazado 719731" d="M579.222,129.064l-1.422-1.546.192-1.918,1.49.124.158,2.065-.237.135.767.824Z" transform="translate(-577.8 -125.6)" fill="#eacdb0"/>
          </g>
          <g id="Grupo_1017692" data-name="Grupo 1017692" transform="translate(3.972 9.167)">
            <path id="Trazado_719732" data-name="Trazado 719732" d="M116.216,110.961l-.316-1.5,1.444-1.061.688,1.049-.677.542v.654l-.214.485Z" transform="translate(-115.9 -108.4)" fill="#bf9e6c"/>
          </g>
          <g id="Grupo_1017693" data-name="Grupo 1017693" transform="translate(27.938 17.708)">
            <path id="Trazado_719733" data-name="Trazado 719733" d="M329.237,187.18l1.185-.812-.158-2.268-1.354.564-.609,1.918Z" transform="translate(-328.3 -184.1)" fill="#bf9e6c"/>
          </g>
          <g id="Grupo_1017698" data-name="Grupo 1017698" transform="translate(5.935 4.947)">
            <g id="Grupo_1017695" data-name="Grupo 1017695">
              <g id="Grupo_1017694" data-name="Grupo 1017694">
                <path id="Trazado_719734" data-name="Trazado 719734" d="M135.015,74.43a1.65,1.65,0,0,1-1.219-.485,1.772,1.772,0,0,1,0-2.46,1.773,1.773,0,0,1,2.437,0,1.667,1.667,0,0,1,.5,1.23,1.649,1.649,0,0,1-.5,1.23A1.686,1.686,0,0,1,135.015,74.43Zm.9-.756a1.322,1.322,0,0,0,.35-.959,1.3,1.3,0,0,0-.35-.959,1.233,1.233,0,0,0-.9-.361,1.26,1.26,0,0,0-.914.361,1.454,1.454,0,0,0,0,1.918,1.2,1.2,0,0,0,.914.361A1.151,1.151,0,0,0,135.918,73.674Z" transform="translate(-133.3 -71)" fill="#fff"/>
              </g>
            </g>
            <g id="Grupo_1017697" data-name="Grupo 1017697" transform="translate(3.396 2.291)">
              <g id="Grupo_1017696" data-name="Grupo 1017696">
                <path id="Trazado_719735" data-name="Trazado 719735" d="M163.4,93.038v-.2c.045-.034.1-.09.181-.147s.135-.113.181-.158.09-.079.158-.135a1.792,1.792,0,0,0,.147-.147l.1-.135a.456.456,0,0,0,.1-.282c0-.2-.09-.293-.282-.293a.272.272,0,0,0-.214.09.318.318,0,0,0-.079.237h-.26a.512.512,0,0,1,.169-.417.546.546,0,0,1,.406-.147.5.5,0,0,1,.395.147.469.469,0,0,1,.147.372.76.76,0,0,1-.09.339,1.649,1.649,0,0,1-.1.147,1.23,1.23,0,0,1-.124.147l-.124.124c-.034.034-.079.068-.135.124s-.1.09-.124.113h.756v.226Z" transform="translate(-163.4 -91.3)" fill="#fff"/>
              </g>
            </g>
          </g>
          <g id="Grupo_1017703" data-name="Grupo 1017703" transform="translate(23.447 7.926)">
            <g id="Grupo_1017700" data-name="Grupo 1017700">
              <g id="Grupo_1017699" data-name="Grupo 1017699">
                <path id="Trazado_719736" data-name="Trazado 719736" d="M291.592,103.606a3.027,3.027,0,0,1-3.092-3.114,2.967,2.967,0,0,1,.891-2.223,3.012,3.012,0,0,1,2.2-.869,3.057,3.057,0,0,1,2.2.869,3.231,3.231,0,0,1,0,4.457A3.021,3.021,0,0,1,291.592,103.606Zm1.636-1.377a2.669,2.669,0,0,0,0-3.475,2.176,2.176,0,0,0-1.636-.654,2.219,2.219,0,0,0-1.647.654,2.378,2.378,0,0,0-.643,1.738,2.34,2.34,0,0,0,.654,1.738,2.2,2.2,0,0,0,1.647.654A2.168,2.168,0,0,0,293.228,102.229Z" transform="translate(-288.5 -97.4)" fill="#fff"/>
              </g>
            </g>
            <g id="Grupo_1017702" data-name="Grupo 1017702" transform="translate(6.127 4.141)">
              <g id="Grupo_1017701" data-name="Grupo 1017701">
                <path id="Trazado_719737" data-name="Trazado 719737" d="M342.8,137.226v-.361c.068-.068.181-.158.316-.271s.248-.214.316-.271.169-.147.271-.248.192-.192.26-.26.124-.158.192-.248a.847.847,0,0,0,.181-.508q0-.542-.508-.542a.509.509,0,0,0-.395.158.688.688,0,0,0-.147.44h-.474a1.054,1.054,0,0,1,.293-.756,1.036,1.036,0,0,1,.745-.26,1.01,1.01,0,0,1,.722.26.884.884,0,0,1,.271.677,1.115,1.115,0,0,1-.169.6c-.056.1-.124.181-.169.26a2.166,2.166,0,0,1-.226.26c-.1.1-.181.181-.237.226a3.361,3.361,0,0,1-.259.226c-.113.1-.192.169-.226.2h1.377v.417Z" transform="translate(-342.8 -134.1)" fill="#fff"/>
              </g>
            </g>
          </g>
          <g id="Grupo_1017708" data-name="Grupo 1017708" transform="translate(60.22 5.635)">
            <g id="Grupo_1017705" data-name="Grupo 1017705">
              <g id="Grupo_1017704" data-name="Grupo 1017704">
                <path id="Trazado_719738" data-name="Trazado 719738" d="M617.142,82.606a2.68,2.68,0,0,1-2.742-2.753,2.636,2.636,0,0,1,.79-1.975,2.836,2.836,0,0,1,3.9,0,2.863,2.863,0,0,1,0,3.949A2.69,2.69,0,0,1,617.142,82.606Zm1.444-1.219a2.384,2.384,0,0,0,0-3.08,2.129,2.129,0,0,0-2.911,0,2.086,2.086,0,0,0-.575,1.535,2.113,2.113,0,0,0,.575,1.546,1.939,1.939,0,0,0,1.456.587A1.9,1.9,0,0,0,618.586,81.388Z" transform="translate(-614.4 -77.1)" fill="#fff"/>
              </g>
            </g>
            <g id="Grupo_1017707" data-name="Grupo 1017707" transform="translate(5.427 3.656)">
              <g id="Grupo_1017706" data-name="Grupo 1017706">
                <path id="Trazado_719739" data-name="Trazado 719739" d="M662.5,112.3v-.316c.068-.056.158-.135.282-.237s.214-.192.282-.248.147-.135.248-.226a2.064,2.064,0,0,0,.226-.237,1.958,1.958,0,0,0,.169-.226.783.783,0,0,0,.158-.451c0-.316-.147-.474-.451-.474a.422.422,0,0,0-.35.147.681.681,0,0,0-.135.384H662.5a.926.926,0,0,1,.26-.677,1.026,1.026,0,0,1,1.3-.011.782.782,0,0,1,.237.6.991.991,0,0,1-.147.53,2.148,2.148,0,0,1-.158.237,1.638,1.638,0,0,1-.2.237l-.2.2c-.056.045-.124.113-.226.2s-.169.147-.2.181h1.219v.361H662.5Z" transform="translate(-662.5 -109.5)" fill="#fff"/>
              </g>
            </g>
          </g>
          <g id="Grupo_1017713" data-name="Grupo 1017713" transform="translate(85.856 21.488)">
            <g id="Grupo_1017710" data-name="Grupo 1017710">
              <g id="Grupo_1017709" data-name="Grupo 1017709">
                <path id="Trazado_719740" data-name="Trazado 719740" d="M844.1,222.621a2.46,2.46,0,0,1-1.783-.711,2.6,2.6,0,0,1,0-3.6,2.442,2.442,0,0,1,1.783-.711,2.511,2.511,0,1,1,0,5.021Zm1.32-1.106a2.145,2.145,0,0,0,0-2.8,1.922,1.922,0,0,0-2.652,0,2.128,2.128,0,0,0,.011,2.8,1.8,1.8,0,0,0,1.331.53A1.751,1.751,0,0,0,845.425,221.515Z" transform="translate(-841.6 -217.6)" fill="#fff"/>
              </g>
            </g>
            <g id="Grupo_1017712" data-name="Grupo 1017712" transform="translate(4.965 3.329)">
              <g id="Grupo_1017711" data-name="Grupo 1017711">
                <path id="Trazado_719741" data-name="Trazado 719741" d="M885.6,249.65v-.293c.056-.056.147-.124.26-.226a3.342,3.342,0,0,0,.259-.226c.057-.056.135-.124.226-.2a1.661,1.661,0,0,0,.2-.214,1.583,1.583,0,0,0,.147-.2.746.746,0,0,0,.147-.406c0-.293-.135-.44-.417-.44a.379.379,0,0,0-.316.135.569.569,0,0,0-.124.35H885.6a.839.839,0,0,1,.237-.609.945.945,0,0,1,1.185-.011.7.7,0,0,1,.214.542.927.927,0,0,1-.135.485c-.045.079-.09.147-.135.214a2.283,2.283,0,0,1-.18.214,2.35,2.35,0,0,1-.192.181c-.045.045-.113.1-.2.181s-.147.135-.181.169h1.106v.339H885.6Z" transform="translate(-885.6 -247.1)" fill="#fff"/>
              </g>
            </g>
          </g>
        </g>
      </g>
    </g>
  </g>
</svg>
