<svg xmlns="http://www.w3.org/2000/svg" width="169" height="169" viewBox="0 0 169 169">
  <g id="Grupo_1079616" data-name="Grupo 1079616" transform="translate(-719.001 -1815.951)">
    <g id="Grupo_159183" data-name="Grupo 159183" transform="translate(719.001 1815.951)">
      <path id="Unión_12" data-name="Unión 12" d="M84.5,0A84.5,84.5,0,1,1,0,84.5,84.5,84.5,0,0,1,84.5,0Z" fill="#e8f3f8"/>
    </g>
    <g id="svg01" transform="translate(567.718 1613.643)">
      <path id="Trazado_717268" data-name="Trazado 717268" d="M922.5,848.973s18.5-29.293,29.4-31.312c7.622-1.413,15.135,12.305,15.135,12.305a9.847,9.847,0,0,1,8.725-1.984c5.285,1.269,33.636,30.135,33.636,30.135l-85.438-1.151Z" transform="translate(-724.279 -539.272)" fill="#9bc1f9"/>
      <path id="Trazado_717269" data-name="Trazado 717269" d="M418.578,934.609c17.695,3.432,44.241,34.286,64.46,34.286-11.189,1.047-100.338.519-100.338.519S400.887,931.173,418.578,934.609Z" transform="translate(-208.016 -651.01)" fill="#86b1f2"/>
      <path id="Trazado_717270" data-name="Trazado 717270" d="M1737.655,627l-4.055,32.585h8.11Z" transform="translate(-1500.011 -357.023)" fill="#3c8f7c"/>
      <path id="Trazado_717271" data-name="Trazado 717271" d="M1479.593,909.7l-3.493,28.1h8.106Z" transform="translate(-1253.739 -627.396)" fill="#3c8f7c"/>
      <g id="Grupo_1017097" data-name="Grupo 1017097" transform="translate(177.121 275.097)">
        <rect id="Rectángulo_375568" data-name="Rectángulo 375568" width="1.308" height="13.692" transform="translate(3.619 26.559)" fill="#355389"/>
        <path id="Trazado_717272" data-name="Trazado 717272" d="M442.873,744.4,438.6,776.985h8.546Z" transform="translate(-438.6 -744.4)" fill="#3c8f7c"/>
        <path id="Trazado_717273" data-name="Trazado 717273" d="M474.2,1188.943l6.092,4.932-.235-1.788-5.669-4.587Z" transform="translate(-472.648 -1168.179)" fill="#50bfa5"/>
        <path id="Trazado_717274" data-name="Trazado 717274" d="M495.6,1029.83l3.733,1.2-.174-1.339-3.4-1.094Z" transform="translate(-493.115 -1016.208)" fill="#50bfa5"/>
      </g>
      <g id="Grupo_1017098" data-name="Grupo 1017098" transform="translate(186.762 268.56)">
        <rect id="Rectángulo_375569" data-name="Rectángulo 375569" width="0.942" height="15.571" transform="translate(3.924 27.758)" fill="#355389"/>
        <path id="Trazado_717275" data-name="Trazado 717275" d="M664.344,594.5,659.7,625.926h9.283Z" transform="translate(-659.7 -594.5)" fill="#3c8f7c"/>
        <path id="Trazado_717276" data-name="Trazado 717276" d="M666.5,1196.527l8.328-2.477-.126-.85-8.067,2.4Z" transform="translate(-666.203 -1167.094)" fill="#50bfa5"/>
        <path id="Trazado_717277" data-name="Trazado 717277" d="M700.1,987.094l5.52-1.64-.126-.855-5.254,1.565Z" transform="translate(-698.338 -967.59)" fill="#50bfa5"/>
      </g>
      <path id="Trazado_717278" data-name="Trazado 717278" d="M382.7,1268.013s16.8-20.773,44.52-21.4c14.437-.327,33.54,8.782,64.19,14.424,10.055,1.849,13.639,7.5,13.639,7.5Z" transform="translate(-208.016 -949.609)" fill="#96d9c9"/>
      <g id="Grupo_1017106" data-name="Grupo 1017106" transform="translate(167.503 303.056)">
        <g id="Grupo_1017101" data-name="Grupo 1017101" transform="translate(121.993)">
          <g id="Grupo_1017099" data-name="Grupo 1017099" transform="translate(0.134 0.837)">
            <path id="Trazado_717279" data-name="Trazado 717279" d="M3028.442,1404.8a7.086,7.086,0,0,0-.672.593,26.639,26.639,0,0,0-4,4.369,30.119,30.119,0,0,0-4.788,10.029.094.094,0,1,1-.179-.057,30.812,30.812,0,0,1,2.708-6.732,24.7,24.7,0,0,1,6.933-8.2Z" transform="translate(-3018.797 -1404.795)" fill="#466eb6"/>
          </g>
          <g id="Grupo_1017100" data-name="Grupo 1017100" transform="translate(0 1.477)">
            <path id="Trazado_717280" data-name="Trazado 717280" d="M3019.639,1419.522a30.693,30.693,0,0,1-1.771,5.651,54.872,54.872,0,0,0-2.067,9.2c-.013.044-.061.035-.065-.009a34.132,34.132,0,0,1,1.038-5.965c1.19-4.727,2.433-6.571,2.808-8.891.009-.048.065-.026.057.018Z" transform="translate(-3015.734 -1419.478)" fill="#466eb6"/>
          </g>
          <path id="Trazado_717281" data-name="Trazado 717281" d="M3192.732,1389.994a2.014,2.014,0,0,1,.253.719,1.54,1.54,0,0,1-.07.685,1.446,1.446,0,0,0,.4-.606,1.694,1.694,0,0,0,.031-1.134c-.179-.445-.571-.545-.671-.362A.9.9,0,0,0,3192.732,1389.994Z" transform="translate(-3184.911 -1389.052)" fill="#466eb6"/>
          <path id="Trazado_717282" data-name="Trazado 717282" d="M3131.877,1462.834a1.988,1.988,0,0,1,.179.746,1.625,1.625,0,0,1-.135.667,1.353,1.353,0,0,0,.458-.545,1.688,1.688,0,0,0,.144-1.116c-.131-.462-.51-.619-.628-.449A.908.908,0,0,0,3131.877,1462.834Z" transform="translate(-3126.755 -1458.736)" fill="#466eb6"/>
          <path id="Trazado_717283" data-name="Trazado 717283" d="M3046.984,1502.419a1.03,1.03,0,0,1,.449.227,1.064,1.064,0,0,1,.266.4,1.293,1.293,0,0,0-.057-.562,1.01,1.01,0,0,0-.488-.611c-.292-.126-.541.057-.51.214S3046.836,1502.349,3046.984,1502.419Z" transform="translate(-3045.294 -1496.764)" fill="#466eb6"/>
          <path id="Trazado_717284" data-name="Trazado 717284" d="M3039.084,1524.719a1.029,1.029,0,0,1,.449.227,1.05,1.05,0,0,1,.266.4,1.294,1.294,0,0,0-.057-.562,1.01,1.01,0,0,0-.488-.61c-.292-.126-.541.057-.51.214S3038.937,1524.649,3039.084,1524.719Z" transform="translate(-3037.739 -1518.091)" fill="#466eb6"/>
          <path id="Trazado_717285" data-name="Trazado 717285" d="M3200.829,1435.229a1.584,1.584,0,0,0-.419-.523,1.016,1.016,0,0,0-.514-.2,1.044,1.044,0,0,1,.588-.161,1.089,1.089,0,0,1,.824.406c.249.344.174.767,0,.794S3200.964,1435.4,3200.829,1435.229Z" transform="translate(-3191.865 -1432.22)" fill="#466eb6"/>
          <path id="Trazado_717286" data-name="Trazado 717286" d="M3162.928,1476.029a1.583,1.583,0,0,0-.419-.523,1.016,1.016,0,0,0-.515-.2,1.044,1.044,0,0,1,.589-.161,1.089,1.089,0,0,1,.824.406c.249.344.174.767,0,.794S3163.063,1476.2,3162.928,1476.029Z" transform="translate(-3155.617 -1471.242)" fill="#466eb6"/>
          <path id="Trazado_717287" data-name="Trazado 717287" d="M3093.233,1442.866a1.208,1.208,0,0,0-.61.092,1.089,1.089,0,0,0-.436.375,1.521,1.521,0,0,1,.236-.65,1.141,1.141,0,0,1,.768-.541c.388-.035.637.288.554.462A.624.624,0,0,1,3093.233,1442.866Z" transform="translate(-3088.853 -1439.675)" fill="#466eb6"/>
          <path id="Trazado_717288" data-name="Trazado 717288" d="M3082.134,1474.167a1.209,1.209,0,0,0-.61.092,1.083,1.083,0,0,0-.436.375,1.51,1.51,0,0,1,.236-.65,1.14,1.14,0,0,1,.767-.541c.388-.035.637.288.554.462A.624.624,0,0,1,3082.134,1474.167Z" transform="translate(-3078.237 -1469.61)" fill="#466eb6"/>
          <path id="Trazado_717289" data-name="Trazado 717289" d="M3114.729,1538.829a1.58,1.58,0,0,0-.418-.523,1.016,1.016,0,0,0-.515-.2,1.044,1.044,0,0,1,.589-.161,1.088,1.088,0,0,1,.824.406c.249.344.174.767,0,.794S3114.864,1539,3114.729,1538.829Z" transform="translate(-3109.519 -1531.303)" fill="#466eb6"/>
          <path id="Trazado_717290" data-name="Trazado 717290" d="M3228.961,1409.431a.883.883,0,0,0-.323-.262.617.617,0,0,0-.344-.044.706.706,0,0,1,.353-.192.656.656,0,0,1,.563.126c.2.179.2.453.092.5S3229.066,1409.518,3228.961,1409.431Z" transform="translate(-3219.026 -1407.9)" fill="#466eb6"/>
          <path id="Trazado_717291" data-name="Trazado 717291" d="M3229.386,1386.012a1.184,1.184,0,0,1-.013.458.826.826,0,0,1-.179.349.687.687,0,0,0,.345-.214.929.929,0,0,0,.253-.6c0-.288-.192-.458-.288-.384A.508.508,0,0,0,3229.386,1386.012Z" transform="translate(-3219.886 -1385.602)" fill="#466eb6"/>
        </g>
        <g id="Grupo_1017103" data-name="Grupo 1017103" transform="translate(110.382 11.119)">
          <g id="Grupo_1017102" data-name="Grupo 1017102" transform="translate(1.096 1.513)">
            <path id="Trazado_717292" data-name="Trazado 717292" d="M2774.6,1675.309a6.018,6.018,0,0,1,.685.671,6.28,6.28,0,0,1,1.212,2.407c.018.061.022.118.07.153a.022.022,0,0,0,.035-.013.267.267,0,0,0-.013-.192,6.1,6.1,0,0,0-.719-1.675,3.635,3.635,0,0,0-1.265-1.36s0,0,0,.009Z" transform="translate(-2774.6 -1675.3)" fill="#466eb6"/>
          </g>
          <path id="Trazado_717293" data-name="Trazado 717293" d="M2750.063,1673.266a1.275,1.275,0,0,1,.554-.24.96.96,0,0,1,.519.092,1.2,1.2,0,0,0-.449-.436.982.982,0,0,0-.864-.065c-.344.174-.436.576-.3.685S2749.884,1673.349,2750.063,1673.266Z" transform="translate(-2749.464 -1671.151)" fill="#466eb6"/>
          <path id="Trazado_717294" data-name="Trazado 717294" d="M2772.767,1641.284a1.789,1.789,0,0,0-.131.671,1.323,1.323,0,0,0,.148.584,1.287,1.287,0,0,1-.432-.462,1.51,1.51,0,0,1-.17-.99c.1-.418.432-.576.541-.432A.8.8,0,0,1,2772.767,1641.284Z" transform="translate(-2771.165 -1640.604)" fill="#466eb6"/>
        </g>
        <g id="Grupo_1017105" data-name="Grupo 1017105" transform="translate(0 6.125)">
          <g id="Grupo_1017104" data-name="Grupo 1017104" transform="translate(0.94 1.687)">
            <path id="Trazado_717295" data-name="Trazado 717295" d="M239.564,1564.8c3.445,1.23,6.423,3.763,9.292,6.227a18.611,18.611,0,0,1,2.176,2.25c.065.044.148-.031.131-.113a2.744,2.744,0,0,0-.767-1.068,13.357,13.357,0,0,0-.985-.942c-.728-.632-1.487-1.225-2.237-1.818a35.22,35.22,0,0,0-4.762-3.305,16.771,16.771,0,0,0-2.839-1.26c-.022-.009-.026.026-.009.031Z" transform="translate(-239.553 -1564.768)" fill="#466eb6"/>
          </g>
          <path id="Trazado_717296" data-name="Trazado 717296" d="M294.484,1527.229a3.008,3.008,0,0,0-.266,1.121,2.4,2.4,0,0,0,.2,1,2.094,2.094,0,0,1-.693-.82,2.5,2.5,0,0,1-.214-1.679c.2-.7.767-.933.942-.676A1.333,1.333,0,0,1,294.484,1527.229Z" transform="translate(-290.159 -1526.077)" fill="#466eb6"/>
          <path id="Trazado_717297" data-name="Trazado 717297" d="M360.784,1572.629a3.006,3.006,0,0,0-.266,1.121,2.406,2.406,0,0,0,.2,1,2.092,2.092,0,0,1-.693-.82,2.5,2.5,0,0,1-.214-1.679c.2-.7.767-.933.942-.676A1.371,1.371,0,0,1,360.784,1572.629Z" transform="translate(-353.568 -1569.497)" fill="#466eb6"/>
          <path id="Trazado_717298" data-name="Trazado 717298" d="M426.884,1626.129a3.009,3.009,0,0,0-.266,1.121,2.406,2.406,0,0,0,.2,1,2.093,2.093,0,0,1-.693-.82,2.5,2.5,0,0,1-.214-1.679c.2-.7.767-.933.942-.676A1.372,1.372,0,0,1,426.884,1626.129Z" transform="translate(-416.785 -1620.665)" fill="#466eb6"/>
          <path id="Trazado_717299" data-name="Trazado 717299" d="M262.333,1596.239a2.4,2.4,0,0,1,.632-.785,1.448,1.448,0,0,1,.776-.292,1.583,1.583,0,0,0-.89-.24,1.633,1.633,0,0,0-1.238.61c-.375.519-.262,1.156,0,1.195S262.133,1596.5,262.333,1596.239Z" transform="translate(-259.482 -1591.917)" fill="#466eb6"/>
          <path id="Trazado_717300" data-name="Trazado 717300" d="M331.333,1643.139a2.4,2.4,0,0,1,.632-.785,1.444,1.444,0,0,1,.776-.292,1.58,1.58,0,0,0-.89-.24,1.633,1.633,0,0,0-1.238.611c-.375.519-.262,1.155,0,1.195S331.128,1643.4,331.333,1643.139Z" transform="translate(-325.473 -1636.772)" fill="#466eb6"/>
          <path id="Trazado_717301" data-name="Trazado 717301" d="M218.625,1564.3a1.415,1.415,0,0,1,.484-.4.892.892,0,0,1,.519-.065,1.085,1.085,0,0,0-.532-.288.983.983,0,0,0-.846.192c-.3.27-.3.685-.14.75S218.468,1564.436,218.625,1564.3Z" transform="translate(-218.006 -1561.893)" fill="#466eb6"/>
          <path id="Trazado_717302" data-name="Trazado 717302" d="M234.142,1529.075a1.79,1.79,0,0,0,.022.689,1.271,1.271,0,0,0,.27.523,1.118,1.118,0,0,1-.515-.323,1.41,1.41,0,0,1-.379-.907c.009-.436.292-.685.432-.58A.837.837,0,0,1,234.142,1529.075Z" transform="translate(-232.861 -1528.35)" fill="#466eb6"/>
        </g>
      </g>
      <path id="Trazado_717303" data-name="Trazado 717303" d="M301.568,1739.209H165.715c-.283,0-.515-.34-.515-.754h0c0-.419.231-.754.515-.754H301.568c.283,0,.515.34.515.754h0C302.082,1738.869,301.851,1739.209,301.568,1739.209Z" transform="translate(0 -1419.291)" fill="#3c8f7c"/>
      <g id="Grupo_1017109" data-name="Grupo 1017109" transform="translate(255.139 258.071)">
        <g id="Grupo_1017107" data-name="Grupo 1017107" transform="translate(12.788 36.578)">
          <path id="Trazado_717304" data-name="Trazado 717304" d="M2522.142,1216.556H2521.1l4.461-23.756,1.02.192Z" transform="translate(-2521.1 -1192.8)" fill="#184655"/>
          <path id="Trazado_717305" data-name="Trazado 717305" d="M2815.878,1216.556h1.234l-4.587-23.756-1.025.192Z" transform="translate(-2798.837 -1192.8)" fill="#184655"/>
        </g>
        <ellipse id="Elipse_5879" data-name="Elipse 5879" cx="15.497" cy="15.541" rx="15.497" ry="15.541" transform="translate(0 21.358) rotate(-43.562)" fill="#b75742"/>
        <ellipse id="Elipse_5880" data-name="Elipse 5880" cx="14.128" cy="14.18" rx="14.128" ry="14.18" transform="translate(1.931 21.396) rotate(-43.545)" fill="#f47458"/>
        <ellipse id="Elipse_5881" data-name="Elipse 5881" cx="11.856" cy="11.939" rx="11.856" ry="11.939" transform="translate(5.126 21.456) rotate(-43.566)" fill="#fcf5eb"/>
        <ellipse id="Elipse_5882" data-name="Elipse 5882" cx="8.904" cy="8.978" rx="8.904" ry="8.978" transform="translate(9.309 21.567) rotate(-43.549)" fill="#f47458"/>
        <path id="Trazado_717306" data-name="Trazado 717306" d="M2585.5,716.131a6.369,6.369,0,0,0,7.452,7.84,6.248,6.248,0,0,0,4.853-4.613,6.369,6.369,0,0,0-7.452-7.84A6.255,6.255,0,0,0,2585.5,716.131Z" transform="translate(-2569.709 -695.804)" fill="#fcf5eb"/>
        <path id="Trazado_717307" data-name="Trazado 717307" d="M2693.943,821.425a1.621,1.621,0,1,0,1.6-1.526A1.619,1.619,0,0,0,2693.943,821.425Z" transform="translate(-2673.616 -799.58)" fill="#b75742"/>
        <g id="Grupo_1017108" data-name="Grupo 1017108" transform="translate(7.42 9.722)">
          <path id="Trazado_717308" data-name="Trazado 717308" d="M2432.905,580.829l.087-1.051L2429.5,576.9l.148,1.531,3.423,2.817Z" transform="translate(-2428.126 -576.9)" fill="#184655"/>
          <path id="Trazado_717309" data-name="Trazado 717309" d="M2402.509,614.838l-1.016.288L2398,612.248l1.531-.148,3.423,2.817Z" transform="translate(-2398 -610.565)" fill="#12353d"/>
          <path id="Trazado_717310" data-name="Trazado 717310" d="M2510.673,675.137h0a.236.236,0,0,1-.336.031l-9.837-8.1.3-.366,9.837,8.106A.232.232,0,0,1,2510.673,675.137Z" transform="translate(-2496.031 -662.784)" fill="#184655"/>
        </g>
      </g>
      <g id="Grupo_1017114" data-name="Grupo 1017114" transform="translate(186.4 253.7)">
        <g id="Grupo_1017112" data-name="Grupo 1017112" transform="translate(0 9.276)">
          <path id="Trazado_717311" data-name="Trazado 717311" d="M651.772,831.067c-.074-.214.972-.388,1.025-.606s-1.321-.235-1.369-.427c-.092-.353,1.509-.074,1.478-.24s-1.666-.532-1.491-.815,1.657.558,1.7.366-1.448-.658-1.417-1.077c.013-.227,2.446,1.121,2.73,1s-.305-1.177-.078-1.334.868,2.145,1.025,2.224a34.389,34.389,0,0,0,4.609,2.25c.144-.392,1.818-2.817,1.94-3.187.654.467,1.33.532,2.006.955a23.5,23.5,0,0,1-3.083,4.8c-1.042.471-5.062-2.869-5.869-3.44s-1.264-.388-1.81-.567S651.85,831.281,651.772,831.067Z" transform="translate(-651.401 -812.161)" fill="#f7a491"/>
          <path id="Trazado_717312" data-name="Trazado 717312" d="M936.668,608.383a3.441,3.441,0,0,0-3.815-2.276A3.6,3.6,0,0,0,930.6,604.5c-1.8-.384-4.234.327-4.164,2.228a3.465,3.465,0,0,0,.344,4.081c-.371,1.722,1.238,3.384,3.336,3.323a3.7,3.7,0,0,0,3.5,1.81,8.112,8.112,0,0,1,.92-.1c-.1-.017,2.219,1.762,4.19-.977C940.736,612.068,939.323,608.68,936.668,608.383Z" transform="translate(-913.967 -598.382)" fill="#184655"/>
          <g id="Grupo_1017110" data-name="Grupo 1017110" transform="translate(6.955 25.472)">
            <path id="Trazado_717313" data-name="Trazado 717313" d="M850.356,1050.6a9.645,9.645,0,0,1-1.618,1.9,7.06,7.06,0,0,0-1.509,2.913c-.327,1.644-.057,9.772-.34,10.352-2.451,2.4-4.225,8.411-4.722,10.243a1.923,1.923,0,0,1-.567.929h0l.109,2.071,1.217,1.121a6.225,6.225,0,0,1,.27-2.943s6.17-9.344,6.536-10.06c.7-2.036,3.249-12.458,3.249-12.458l.593-2.394S850.365,1050.6,850.356,1050.6Z" transform="translate(-840.261 -1050.6)" fill="#f7a491"/>
            <path id="Trazado_717314" data-name="Trazado 717314" d="M810.9,1654.5a7.294,7.294,0,0,1,.837,1.653c.065.462.475,1.513.929,1.578.1.013,1.871.144,1.857-.074-.009-.17-.65-.41-.946-.615-.515-.353-1.308-3.24-1.308-3.24S810.935,1654.127,810.9,1654.5Z" transform="translate(-810.9 -1627.498)" fill="#355389"/>
          </g>
          <path id="Trazado_717315" data-name="Trazado 717315" d="M1048.4,479.211s2.581-4.644,3.209-5.634,2.263-4.91,2.324-5.067-1.129-2.01-.863-2.076.558.977.842.855.515-.85.676-.763.558.1.645.227.833.314.567.8-.571.571-.759,1.478-.467,4.182-1.426,5.817-3.07,5.254-3.07,5.254Z" transform="translate(-1031.089 -466.432)" fill="#f79c8d"/>
          <path id="Trazado_717316" data-name="Trazado 717316" d="M1081.437,1093.605s3.977,8.5,4,9.994c.022,1.282-.693,8.468-.493,14.45.009.218.279.5.68.685.222.1,1.308.584,1.308.584l.148.388-3.728-.266-.052-1.016s-1.483-8.952-1.334-11.485c.022-.4.218-2.778.218-2.778l-4.483-8.655,2.821-3.706Z" transform="translate(-1059.112 -1064.531)" fill="#f7a491"/>
          <g id="Grupo_1017111" data-name="Grupo 1017111" transform="translate(9.964 11.221)">
            <path id="Trazado_717317" data-name="Trazado 717317" d="M954.5,1367.357Z" transform="translate(-951.247 -1339.292)" fill="#f47458"/>
            <path id="Trazado_717318" data-name="Trazado 717318" d="M888.835,727.833a18.959,18.959,0,0,1,1.278-2.69s-1.173-1.491-2.124-1.378c0,0-1.278,2.119-2.006,2.193a20.233,20.233,0,0,0-3.733.453,25.832,25.832,0,0,0-2.35,3.192s1.709,1.744,2.4,1.744a7.378,7.378,0,0,1,.51-.876,51.035,51.035,0,0,1,1.7,6.663l.013.009a3.344,3.344,0,0,0,4.81-.619h0a26.3,26.3,0,0,1-.057-3.092C889.388,731.108,889.855,729.874,888.835,727.833Z" transform="translate(-879.9 -723.759)" fill="#3c8f7c"/>
            <path id="Trazado_717319" data-name="Trazado 717319" d="M958.885,1027.772,951.08,1016.5a7.309,7.309,0,0,1-1.452.462,14.774,14.774,0,0,1-3.371.144.731.731,0,0,1-.009.109c-.131.929-1.365,2.368-1.618,5.189a69.492,69.492,0,0,0-.017,9.126C949.807,1030.9,957.412,1029.315,958.885,1027.772Z" transform="translate(-941.657 -1003.735)" fill="#f7cc7f"/>
          </g>
          <path id="Trazado_717320" data-name="Trazado 717320" d="M989.3,714.267a11.674,11.674,0,0,1,.218,2.063c-.057.584.209,2.464,1.4,2.468s.227-2.39.113-2.961a22.344,22.344,0,0,1-.14-2.337Z" transform="translate(-974.566 -702.727)" fill="#f7a491"/>
          <path id="Trazado_717321" data-name="Trazado 717321" d="M990.913,714.385c-.017-.484-.026-.885-.026-.885l-1.587.772s.057.3.113.689A1.38,1.38,0,0,0,990.913,714.385Z" transform="translate(-974.566 -702.727)" fill="#f47458"/>
          <path id="Trazado_717322" data-name="Trazado 717322" d="M959.112,634.332a2.03,2.03,0,0,0-1.038.938c-.366.711-.5,2.7.955,3.475s2.433-.628,2.355-1.892S960.908,633.927,959.112,634.332Z" transform="translate(-944.47 -626.951)" fill="#f7a491"/>
          <path id="Trazado_717323" data-name="Trazado 717323" d="M1030.773,668.7c-.1.318-.314.528-.493.475s-.244-.353-.148-.672.314-.528.493-.475S1030.869,668.382,1030.773,668.7Z" transform="translate(-1013.576 -659.226)" fill="#f7a491"/>
          <path id="Trazado_717324" data-name="Trazado 717324" d="M948.043,687.993c.126.318.061.65-.148.741s-.48-.092-.606-.41-.061-.65.148-.741S947.917,687.674,948.043,687.993Z" transform="translate(-934.325 -677.917)" fill="#f7a491"/>
          <path id="Trazado_717325" data-name="Trazado 717325" d="M1204.858,1704.514h4.709c.174-.017.218-.157.157-.244a5.789,5.789,0,0,0-1.291-.593,8.057,8.057,0,0,1-3.615-.876A4.477,4.477,0,0,0,1204.858,1704.514Z" transform="translate(-1180.632 -1648.889)" fill="#355389"/>
          <path id="Trazado_717326" data-name="Trazado 717326" d="M991.3,708l1.051-.1a.463.463,0,0,1-.449.462C991.339,708.432,991.3,708,991.3,708Z" transform="translate(-976.479 -697.371)" fill="#fff"/>
        </g>
        <path id="Trazado_717327" data-name="Trazado 717327" d="M878.5,253.7c2.115.842,4.212,1.722,6.305,2.621.606.262,1.212.528,1.818.794.576.249,1.16.484,1.714.781a7.939,7.939,0,0,1,2.843,2.573,8.109,8.109,0,0,1,.876,1.735,4.126,4.126,0,0,0,.44,1.051,2.487,2.487,0,0,0,.907.693,9.574,9.574,0,0,1,.938.549,7.939,7.939,0,0,1,2.56,2.856,16.582,16.582,0,0,1,1.186,3.719c.6,2.342,1.182,4.688,1.7,7.046.039.17.074.34.113.515-.754-2.224-1.465-4.461-2.154-6.706-.2-.65-.392-1.3-.589-1.945a13.235,13.235,0,0,0-.663-1.884,7.509,7.509,0,0,0-2.647-3.009,7.332,7.332,0,0,1-1.884-1.247,3.5,3.5,0,0,1-.584-1.234,7.08,7.08,0,0,0-.789-1.661,7.427,7.427,0,0,0-2.49-2.407c-.218-.126-.44-.244-.672-.353l-1.77-.863q-3.368-1.629-6.685-3.371C878.818,253.866,878.661,253.783,878.5,253.7Z" transform="translate(-868.598 -253.7)" fill="#8f6545"/>
        <g id="Grupo_1017113" data-name="Grupo 1017113" transform="translate(10.578 0.414)">
          <path id="Trazado_717328" data-name="Trazado 717328" d="M915.41,288.129,894,263.2l.083.039,21.309,24.828Z" transform="translate(-894 -263.2)" fill="#787878"/>
        </g>
        <path id="Trazado_717329" data-name="Trazado 717329" d="M1184.015,465c-.314.022-.8.414-.685.519.131.118.733-.179.733-.179-.562.467-.6.619-.419.654a3.19,3.19,0,0,0,.676-.305c-.262.475-.262.663-.1.645.083-.009.388-.458.388-.458-.057.384-.035.554.1.375.074-.1.231-.331.161-.506a.158.158,0,0,0-.1-.1c-.039-.1-.061-.157-.205-.183-.065-.157-.113-.192-.3-.27A.318.318,0,0,0,1184.015,465Z" transform="translate(-1160.12 -455.782)" fill="#f79c8d"/>
      </g>
    </g>
  </g>
</svg>
