<svg xmlns="http://www.w3.org/2000/svg" width="169" height="169" viewBox="0 0 169 169">
  <g id="Grupo_1079622" data-name="Grupo 1079622" transform="translate(-719.001 -2685.268)">
    <g id="Grupo_159183" data-name="Grupo 159183" transform="translate(719.001 2685.268)">
      <path id="Unión_12" data-name="Unión 12" d="M84.5,0A84.5,84.5,0,1,1,0,84.5,84.5,84.5,0,0,1,84.5,0Z" fill="#e8f3f8"/>
    </g>
    <g id="svg08" transform="translate(574.2 2618.121)">
      <g id="Grupo_1017460" data-name="Grupo 1017460" transform="translate(237.223 112.03)">
        <path id="Trazado_719392" data-name="Trazado 719392" d="M1039.8,268.441s3.927-16.629,17.154-18.455a3.265,3.265,0,0,1,3.436,2.523c.861,2.833-4.263,2.859-7.423,4S1042.427,262.482,1039.8,268.441Z" transform="translate(-1039.431 -246.453)" fill="#d2e0ff"/>
        <path id="Trazado_719393" data-name="Trazado 719393" d="M1035.58,227.948s-1.378-13.77,8.284-18.661a2.638,2.638,0,0,1,3.29,1.025c1.4,1.946-2.515,3.315-4.633,5.021S1036.019,222.686,1035.58,227.948Z" transform="translate(-1035.512 -209.069)" fill="#d2e0ff"/>
      </g>
      <g id="Grupo_1017462" data-name="Grupo 1017462" transform="translate(186.707 129.062)" opacity="0.8">
        <path id="Trazado_719394" data-name="Trazado 719394" d="M469.725,421.55s5.675-3.178,3.031-7.492c0,0-2.118-2.652-4.392-3.333,0,0,1.214,6.433,0,6.588s-.835-7.268-.835-7.268-5.976-2.876-8.327-2.652c0,0,3.712,6.278,2.5,6.131s-5.374-6.51-5.374-6.51-6.131-1.137-7.113,2.5.6,5.451,1.516,5.675,6.734.155,6.588.9-4.09,1.972-6.278,1.283c0,0,2.42,5.976,5.6,5.675s4.159-2.273,6.131-2.42,3.41.379,2.42.9-4.314.172-5.908,1.524-2.876,2.187.078,2.79,8.25.224,9.309-2.041Z" transform="translate(-448.902 -406.845)" fill="#aec3ff"/>
        <g id="Grupo_1017461" data-name="Grupo 1017461" transform="translate(3.117 3.802)">
          <path id="Trazado_719395" data-name="Trazado 719395" d="M485.1,451s15.9,5.15,17.714,10.9a12.05,12.05,0,0,0,1.516,5.529v1.137s-1.662-3.858-2.575-4.392C501.746,464.167,505.3,459.172,485.1,451Z" transform="translate(-485.1 -451)" fill="#aec3ff"/>
          <path id="Trazado_719396" data-name="Trazado 719396" d="M700.256,634.216a10.451,10.451,0,0,1,1.051,8.25l-.629-.172s.611-4.995-.672-7.5S700.256,634.216,700.256,634.216Z" transform="translate(-681.035 -617.794)" fill="#aec3ff"/>
        </g>
      </g>
      <g id="Grupo_1017464" data-name="Grupo 1017464" transform="translate(168.056 155.494)" opacity="0.5">
        <path id="Trazado_719397" data-name="Trazado 719397" d="M274.955,727.719s3.72-11.143-5.064-13.684c0,0-6.045-.964-9.9.887,0,0,9.43,7.122,8,8.792s-9.946-8.689-9.946-8.689-11.479,3.419-14.338,6.579c0,0,12.581,3.884,10.782,5.15s-15.079-2.161-15.079-2.161-9.567,5.933-6.467,11.979,7.432,6.545,8.913,5.744,9.18-7.983,9.895-6.786-3.066,7.6-6.829,9.352c0,0,10.5,5.046,14.373.775s2.8-8.086,5.244-10.678,5.012-3.634,4.34-1.731-5.546,5.468-6.028,9.206-1.188,6.407,3.488,3.634,11.29-9.723,9.946-14.037Z" transform="translate(-232.321 -713.784)" fill="#d2e0ff"/>
        <g id="Grupo_1017463" data-name="Grupo 1017463" transform="translate(5.742 12.541)">
          <path id="Trazado_719398" data-name="Trazado 719398" d="M299,867.77s27.479-12.435,36.892-6.958c0,0,3.2,3.927,1.343,4.323C337.235,865.135,335.918,854.138,299,867.77Z" transform="translate(-299 -859.418)" fill="#d2e0ff"/>
        </g>
      </g>
      <g id="Grupo_1017466" data-name="Grupo 1017466" transform="translate(236.972 164.897)">
        <path id="Trazado_719399" data-name="Trazado 719399" d="M1170.981,828.7s1.094-6.665,6.243-5.606c0,0,3.333,1.128,4.805,3.109,0,0-6.708,1.094-6.424,2.325s7.389-1.757,7.389-1.757,4.917,4.814,5.529,7.191c0,0-7.44-1.4-6.863-.267s8.25,2.945,8.25,2.945,3.272,5.58.078,7.828-5.529,1.335-6.071.525-2.532-6.519-3.212-6.106-.474,4.685.965,6.588c0,0-6.691-.25-7.518-3.462s.74-4.866.2-6.838-1.576-3.186-1.74-2.041,1.352,4.271.6,6.3-1.111,3.582-2.747.913-3.135-7.966-1.3-9.809Z" transform="translate(-1156.634 -822.975)" fill="#bbd0ff"/>
        <g id="Grupo_1017465" data-name="Grupo 1017465" transform="translate(0 5.717)">
          <path id="Trazado_719400" data-name="Trazado 719400" d="M1141.432,902.8s-10.644-13.692-16.9-13.434a12.526,12.526,0,0,1-5.925.474l-1.111.4s4.357.258,5.193.956C1122.693,891.2,1126.31,885.96,1141.432,902.8Z" transform="translate(-1110.189 -889.358)" fill="#bbd0ff"/>
          <path id="Trazado_719401" data-name="Trazado 719401" d="M1041.022,892.976a10.876,10.876,0,0,0-8.422,1.886l.388.56s4.65-2.36,7.552-2S1041.022,892.976,1041.022,892.976Z" transform="translate(-1032.6 -892.491)" fill="#bbd0ff"/>
        </g>
      </g>
      <g id="Grupo_1017468" data-name="Grupo 1017468" transform="translate(244.757 125.056)">
        <path id="Trazado_719402" data-name="Trazado 719402" d="M1127.569,378.293s-6.941-3.884-3.7-9.163c0,0,2.592-3.238,5.365-4.073,0,0-1.481,7.862,0,8.052s1.016-8.879,1.016-8.879,7.311-3.513,10.179-3.238c0,0-4.53,7.682-3.057,7.492s6.571-7.957,6.571-7.957,7.492-1.386,8.7,3.057-.74,6.665-1.851,6.941-8.233.181-8.052,1.111,4.995,2.4,7.682,1.576c0,0-2.962,7.311-6.846,6.941s-5.089-2.773-7.492-2.962-4.159.465-2.962,1.111,5.27.215,7.216,1.86,3.514,2.67-.095,3.41-10.084.276-11.376-2.5Z" transform="translate(-1123.005 -360.323)" fill="#d2e0ff"/>
        <g id="Grupo_1017467" data-name="Grupo 1017467" transform="translate(0.896 4.648)">
          <path id="Trazado_719403" data-name="Trazado 719403" d="M1178,414.3s-19.428,6.3-21.65,13.322a14.714,14.714,0,0,1-1.851,6.752v1.386s2.032-4.719,3.143-5.365C1157.643,430.395,1153.294,424.289,1178,414.3Z" transform="translate(-1152.684 -414.3)" fill="#d2e0ff"/>
          <path id="Trazado_719404" data-name="Trazado 719404" d="M1135.224,638.238a12.81,12.81,0,0,0-1.292,10.084l.775-.207s-.749-6.1.818-9.171C1137.093,635.887,1135.224,638.238,1135.224,638.238Z" transform="translate(-1133.408 -618.164)" fill="#d2e0ff"/>
        </g>
      </g>
      <g id="Grupo_1017469" data-name="Grupo 1017469" transform="translate(202.776 123.788)">
        <rect id="Rectángulo_375607" data-name="Rectángulo 375607" width="51.867" height="70.925" fill="#739af0"/>
        <rect id="Rectángulo_375608" data-name="Rectángulo 375608" width="47.441" height="67.058" transform="translate(2.213 1.912)" fill="#f3faff"/>
        <path id="Trazado_719405" data-name="Trazado 719405" d="M822.4,345.6v2.42a2.415,2.415,0,0,0,2.411,2.42H837.78a2.415,2.415,0,0,0,2.411-2.42V345.6Z" transform="translate(-806.305 -345.6)" fill="#2b478b"/>
      </g>
      <g id="Grupo_1017470" data-name="Grupo 1017470" transform="translate(210.492 183.268)">
        <rect id="Rectángulo_375609" data-name="Rectángulo 375609" width="5.873" height="0.594" fill="#aec3ff"/>
        <rect id="Rectángulo_375610" data-name="Rectángulo 375610" width="5.873" height="0.594" transform="translate(7.234)" fill="#aec3ff"/>
        <rect id="Rectángulo_375611" data-name="Rectángulo 375611" width="8.138" height="0.594" transform="translate(0 1.318)" fill="#aec3ff"/>
      </g>
      <g id="Grupo_1017481" data-name="Grupo 1017481" transform="translate(208.132 140.563)">
        <g id="Grupo_1017473" data-name="Grupo 1017473" transform="translate(30.976 0)">
          <g id="Grupo_1017471" data-name="Grupo 1017471" transform="translate(0 1.481)">
            <path id="Trazado_719406" data-name="Trazado 719406" d="M1065.977,566.177H1057.4V557.6h8.577Zm-8.172-.4h7.776V558H1057.8Z" transform="translate(-1057.4 -557.6)" fill="#afcdfb"/>
          </g>
          <g id="Grupo_1017472" data-name="Grupo 1017472" transform="translate(1.254)">
            <path id="Trazado_719407" data-name="Trazado 719407" d="M1075.209,548.727a.579.579,0,0,1-.465-.224l-2.644-3.2a.605.605,0,0,1,.93-.775l2.1,2.54,3.8-6.373a.608.608,0,1,1,1.042.629l-4.237,7.113a.6.6,0,0,1-.474.293Z" transform="translate(-1071.959 -540.4)" fill="#f99746"/>
          </g>
        </g>
        <g id="Grupo_1017480" data-name="Grupo 1017480" transform="translate(0 2.644)">
          <g id="Grupo_1017477" data-name="Grupo 1017477" transform="translate(5.287 0.095)">
            <g id="Grupo_1017474" data-name="Grupo 1017474">
              <rect id="Rectángulo_375612" data-name="Rectángulo 375612" width="19.066" height="0.835" fill="#aec3ff"/>
            </g>
            <g id="Grupo_1017475" data-name="Grupo 1017475" transform="translate(0 3.737)">
              <rect id="Rectángulo_375613" data-name="Rectángulo 375613" width="17.568" height="0.835" fill="#aec3ff"/>
            </g>
            <g id="Grupo_1017476" data-name="Grupo 1017476" transform="translate(0 1.869)">
              <rect id="Rectángulo_375614" data-name="Rectángulo 375614" width="5.193" height="0.835" transform="translate(13.865)" fill="#aec3ff"/>
              <rect id="Rectángulo_375615" data-name="Rectángulo 375615" width="12.426" height="0.835" fill="#aec3ff"/>
            </g>
          </g>
          <g id="Grupo_1017479" data-name="Grupo 1017479">
            <g id="Grupo_1017478" data-name="Grupo 1017478">
              <path id="Trazado_719408" data-name="Trazado 719408" d="M698.725,571.944l-.853.241-.172-.68,1.275-.4h.586v4.771h-.827v-3.927Z" transform="translate(-697.7 -571.1)" fill="#aec3ff"/>
            </g>
            <path id="Trazado_719409" data-name="Trazado 719409" d="M725.5,619.8a.3.3,0,1,1,.3.3A.305.305,0,0,1,725.5,619.8Z" transform="translate(-723.106 -615.332)" fill="#aec3ff"/>
          </g>
        </g>
      </g>
      <g id="Grupo_1017493" data-name="Grupo 1017493" transform="translate(208.089 153.386)">
        <g id="Grupo_1017484" data-name="Grupo 1017484" transform="translate(31.088 0)">
          <g id="Grupo_1017482" data-name="Grupo 1017482" transform="translate(0 1.473)">
            <path id="Trazado_719410" data-name="Trazado 719410" d="M1066.777,714.977H1058.2V706.4h8.577Zm-8.181-.4h7.776V706.8H1058.6Z" transform="translate(-1058.2 -706.4)" fill="#afcdfb"/>
          </g>
          <g id="Grupo_1017483" data-name="Grupo 1017483" transform="translate(1.245)">
            <path id="Trazado_719411" data-name="Trazado 719411" d="M1075.909,697.627a.579.579,0,0,1-.465-.224l-2.644-3.2a.605.605,0,1,1,.93-.775l2.1,2.54,3.8-6.372a.609.609,0,0,1,1.042.629l-4.237,7.113a.6.6,0,0,1-.474.293Z" transform="translate(-1072.659 -689.3)" fill="#f99746"/>
          </g>
        </g>
        <g id="Grupo_1017492" data-name="Grupo 1017492" transform="translate(0 2.635)">
          <g id="Grupo_1017486" data-name="Grupo 1017486">
            <g id="Grupo_1017485" data-name="Grupo 1017485">
              <path id="Trazado_719412" data-name="Trazado 719412" d="M697.2,724.025l1.619-1.378c.646-.543.878-.844.878-1.275a.7.7,0,0,0-.758-.732c-.431,0-.723.233-1.085.706l-.586-.456A1.934,1.934,0,0,1,699,719.9a1.412,1.412,0,0,1,1.55,1.421c0,.741-.4,1.137-1.223,1.826l-.965.809H700.6v.723h-3.4Z" transform="translate(-697.2 -719.9)" fill="#aec3ff"/>
            </g>
            <path id="Trazado_719413" data-name="Trazado 719413" d="M743.2,768.7a.3.3,0,1,1,.3.3A.305.305,0,0,1,743.2,768.7Z" transform="translate(-739.239 -764.223)" fill="#aec3ff"/>
          </g>
          <g id="Grupo_1017491" data-name="Grupo 1017491" transform="translate(5.486 0.103)">
            <g id="Grupo_1017490" data-name="Grupo 1017490">
              <g id="Grupo_1017487" data-name="Grupo 1017487">
                <rect id="Rectángulo_375616" data-name="Rectángulo 375616" width="20.03" height="0.835" fill="#aec3ff"/>
              </g>
              <g id="Grupo_1017488" data-name="Grupo 1017488" transform="translate(0 3.737)">
                <rect id="Rectángulo_375617" data-name="Rectángulo 375617" width="18.463" height="0.835" fill="#aec3ff"/>
              </g>
              <g id="Grupo_1017489" data-name="Grupo 1017489" transform="translate(0 1.869)">
                <rect id="Rectángulo_375618" data-name="Rectángulo 375618" width="5.46" height="0.835" transform="translate(14.571)" fill="#aec3ff"/>
                <rect id="Rectángulo_375619" data-name="Rectángulo 375619" width="13.055" height="0.835" fill="#aec3ff"/>
              </g>
            </g>
          </g>
        </g>
      </g>
      <g id="Grupo_1017504" data-name="Grupo 1017504" transform="translate(208.029 166.294)">
        <g id="Grupo_1017496" data-name="Grupo 1017496" transform="translate(31.148)">
          <g id="Grupo_1017494" data-name="Grupo 1017494" transform="translate(0 1.481)">
            <path id="Trazado_719414" data-name="Trazado 719414" d="M1066.777,864.977H1058.2V856.4h8.577Zm-8.181-.4h7.776V856.8H1058.6Z" transform="translate(-1058.2 -856.4)" fill="#afcdfb"/>
          </g>
          <g id="Grupo_1017495" data-name="Grupo 1017495" transform="translate(1.245)">
            <path id="Trazado_719415" data-name="Trazado 719415" d="M1075.909,847.527a.579.579,0,0,1-.465-.224l-2.644-3.2a.605.605,0,0,1,.93-.775l2.1,2.54,3.8-6.372a.609.609,0,0,1,1.042.629l-4.237,7.113a.6.6,0,0,1-.474.293Z" transform="translate(-1072.659 -839.2)" fill="#f99746"/>
          </g>
        </g>
        <g id="Grupo_1017501" data-name="Grupo 1017501" transform="translate(5.546 2.738)">
          <g id="Grupo_1017500" data-name="Grupo 1017500">
            <g id="Grupo_1017497" data-name="Grupo 1017497">
              <rect id="Rectángulo_375620" data-name="Rectángulo 375620" width="20.03" height="0.835" fill="#aec3ff"/>
            </g>
            <g id="Grupo_1017498" data-name="Grupo 1017498" transform="translate(0 3.737)">
              <rect id="Rectángulo_375621" data-name="Rectángulo 375621" width="18.463" height="0.835" fill="#aec3ff"/>
            </g>
            <g id="Grupo_1017499" data-name="Grupo 1017499" transform="translate(0 1.869)">
              <rect id="Rectángulo_375622" data-name="Rectángulo 375622" width="5.46" height="0.835" transform="translate(14.571)" fill="#aec3ff"/>
              <rect id="Rectángulo_375623" data-name="Rectángulo 375623" width="13.055" height="0.835" fill="#aec3ff"/>
            </g>
          </g>
        </g>
        <g id="Grupo_1017503" data-name="Grupo 1017503" transform="translate(0 2.687)">
          <g id="Grupo_1017502" data-name="Grupo 1017502">
            <path id="Trazado_719416" data-name="Trazado 719416" d="M696.5,874.275l.568-.525a1.5,1.5,0,0,0,1.214.6.717.717,0,0,0,.792-.706c0-.456-.413-.706-1.059-.706h-.379l-.129-.508,1.24-1.326h-1.989V870.4h3.048v.6l-1.283,1.318c.732.1,1.352.482,1.352,1.309a1.47,1.47,0,0,1-1.61,1.455A2.177,2.177,0,0,1,696.5,874.275Z" transform="translate(-696.5 -870.4)" fill="#aec3ff"/>
          </g>
          <path id="Trazado_719417" data-name="Trazado 719417" d="M738.4,918.293a.293.293,0,1,1,.293.293A.29.29,0,0,1,738.4,918.293Z" transform="translate(-734.792 -913.901)" fill="#aec3ff"/>
        </g>
      </g>
      <g id="Grupo_1017509" data-name="Grupo 1017509" transform="translate(227.026 176.344)">
        <g id="Grupo_1017505" data-name="Grupo 1017505" transform="translate(1.606 5.619)">
          <path id="Trazado_719418" data-name="Trazado 719418" d="M939.317,1024.346a3.65,3.65,0,0,1-3.565-2.9.25.25,0,0,1,.491-.095,3.142,3.142,0,0,0,6.149.026.247.247,0,0,1,.482.1A3.649,3.649,0,0,1,939.317,1024.346Z" transform="translate(-935.747 -1021.147)" fill="#aec3ff"/>
        </g>
        <g id="Grupo_1017506" data-name="Grupo 1017506" transform="translate(1.597 1.533)">
          <path id="Trazado_719419" data-name="Trazado 719419" d="M935.9,976.947a.109.109,0,0,1-.052-.009.247.247,0,0,1-.2-.293,3.642,3.642,0,0,1,7.1-.2.249.249,0,0,1-.181.3.253.253,0,0,1-.3-.181,3.142,3.142,0,0,0-6.131.164A.255.255,0,0,1,935.9,976.947Z" transform="translate(-935.647 -973.7)" fill="#aec3ff"/>
        </g>
        <g id="Grupo_1017507" data-name="Grupo 1017507">
          <path id="Trazado_719420" data-name="Trazado 719420" d="M922.276,966.251a5.176,5.176,0,1,1,5.175-5.176A5.186,5.186,0,0,1,922.276,966.251Zm0-9.636a4.461,4.461,0,1,0,4.461,4.461A4.467,4.467,0,0,0,922.276,956.615Z" transform="translate(-917.1 -955.9)" fill="#aec3ff"/>
        </g>
        <g id="Grupo_1017508" data-name="Grupo 1017508" transform="translate(3.669 4.53)">
          <rect id="Rectángulo_375624" data-name="Rectángulo 375624" width="2.05" height="0.327" transform="translate(0.482)" fill="#aec3ff"/>
          <rect id="Rectángulo_375625" data-name="Rectángulo 375625" width="2.05" height="0.327" transform="translate(0.482 1.343)" fill="#aec3ff"/>
          <rect id="Rectángulo_375626" data-name="Rectángulo 375626" width="3.014" height="0.327" transform="translate(0 0.646)" fill="#aec3ff"/>
        </g>
      </g>
      <g id="Grupo_1017513" data-name="Grupo 1017513" transform="translate(182.384 148.31)">
        <path id="Trazado_719421" data-name="Trazado 719421" d="M587.4,745.922s.164-.362.267-.534.551-.672.629-.56.379.878.215,1.094.009.586-.792.818Z" transform="translate(-571.15 -734.956)" fill="#ffb27d"/>
        <path id="Trazado_719422" data-name="Trazado 719422" d="M483.9,731.1s4.108,3.427,5.709,3.109a32.437,32.437,0,0,0,3.169-.9l.388.982s-1.722,2.334-3.522,2.351a10.223,10.223,0,0,1-4.883-1.214Z" transform="translate(-476.563 -722.424)" fill="#6980e2"/>
        <path id="Trazado_719423" data-name="Trazado 719423" d="M400.3,1144.305s.121,1.92.491,1.946h1.886l2.342-.017a.754.754,0,0,0-.7-.68,3.176,3.176,0,0,1-2.248-1.507C401.635,1143.1,400.3,1144.305,400.3,1144.305Z" transform="translate(-400.162 -1099.478)" fill="#1c4b8e"/>
        <path id="Trazado_719424" data-name="Trazado 719424" d="M398.7,900.633a4.858,4.858,0,0,0,1.266.241,4.633,4.633,0,0,0,1.188-.172,33.477,33.477,0,0,1,.87-4.159c.388-1.5.939-3.427,1.731-5.821a77.794,77.794,0,0,0,2.893-10.859.038.038,0,0,1,.009-.026h-.009l-6.691-2.937s.827,9.12-.224,12.625a14,14,0,0,0-.379,1.679A67.9,67.9,0,0,0,398.7,900.633Z" transform="translate(-398.7 -855.669)" fill="#ffa561"/>
        <path id="Trazado_719425" data-name="Trazado 719425" d="M413.016,896.452c.388-1.5.939-3.427,1.731-5.821a77.774,77.774,0,0,0,2.893-10.859v-.034l-6.691-2.937s.827,9.12-.224,12.625C410.57,889.915,413.016,896.452,413.016,896.452Z" transform="translate(-409.683 -855.577)" fill="#f4904d"/>
        <path id="Trazado_719426" data-name="Trazado 719426" d="M461,1144.305s.121,1.92.491,1.946h1.886l2.342-.017a.754.754,0,0,0-.7-.68,3.176,3.176,0,0,1-2.248-1.507C462.335,1143.1,461,1144.305,461,1144.305Z" transform="translate(-455.635 -1099.478)" fill="#1c4b8e"/>
        <path id="Trazado_719427" data-name="Trazado 719427" d="M429.422,879.3a95.035,95.035,0,0,1-.939,13.167c-1.025,7.26-.68,10.343-.68,10.343a7.506,7.506,0,0,1-.99.25,4.393,4.393,0,0,1-1.464-.172s-1.464-7.26-1.042-10.894-2.007-12.47-2.007-12.47Z" transform="translate(-420.268 -857.862)" fill="#ffa561"/>
        <path id="Trazado_719428" data-name="Trazado 719428" d="M449.9,687.628l1.309.853,1.188-.336a2.828,2.828,0,0,0,.276-1.43c0-.517-.043-.947-.043-.947l-1.765-.775-.654-.293c0,.009.052.543.06.62A4.52,4.52,0,0,1,449.9,687.628Z" transform="translate(-445.491 -680.02)" fill="#ffb27d"/>
        <path id="Trazado_719429" data-name="Trazado 719429" d="M417.913,728.845c-1.628,1.567-7.776,1.309-8.155-.422s.413-14.717,3.186-15.535c.577-.172,3.651.827,3.651.827a19.782,19.782,0,0,1,.8,2.876c.06.31.241,3.634.379,6.734.06,1.455.112,2.859.146,3.884A11.21,11.21,0,0,1,417.913,728.845Z" transform="translate(-408.725 -705.762)" fill="#8c9df4"/>
        <path id="Trazado_719430" data-name="Trazado 719430" d="M455.185,688.522a5.147,5.147,0,0,0,2.273,1.378c0-.517-.043-.947-.043-.947l-1.765-.775C455.262,688.16,455.03,688.247,455.185,688.522Z" transform="translate(-450.276 -683.196)" fill="#fca56b"/>
        <path id="Trazado_719431" data-name="Trazado 719431" d="M447.34,646.4s-2.842.887-3.358-.887-1.24-2.859.543-3.5,2.342-.069,2.661.482S448.063,646.12,447.34,646.4Z" transform="translate(-439.538 -640.751)" fill="#ffb27d"/>
        <path id="Trazado_719432" data-name="Trazado 719432" d="M433.873,631.917s-.181,2.067-.611,1.981-.9-.284-.835.344-.413,1.688-1.033,1.688c-1.318-.009-2.756-3.393-2.394-4.039C430.05,630.031,435.389,629.652,433.873,631.917Z" transform="translate(-426.338 -630.355)" fill="#163560"/>
        <path id="Trazado_719433" data-name="Trazado 719433" d="M450.6,704.321a12.9,12.9,0,0,0-2.36-.87c-.241.078-.543.818-.543.818l3.66.827A1.9,1.9,0,0,0,450.6,704.321Z" transform="translate(-443.48 -697.152)" fill="#6980e2"/>
        <g id="Grupo_1017511" data-name="Grupo 1017511" transform="translate(7.317 1.304)">
          <path id="Trazado_719434" data-name="Trazado 719434" d="M496.4,818.743,484.754,829.7c-.224.215-.517.284-.637.155l-.4-.413c-.121-.129-.034-.413.189-.629l11.634-10.954c.224-.215.517-.284.637-.155l.4.413C496.707,818.252,496.621,818.527,496.4,818.743Z" transform="translate(-483.666 -802.82)" fill="#1f4d84"/>
          <path id="Trazado_719435" data-name="Trazado 719435" d="M489.861,892.387l-5.107,4.805c-.224.215-.517.284-.637.155l-.4-.413c-.121-.129-.034-.413.189-.629l5.107-4.805Z" transform="translate(-483.666 -870.316)" fill="#739af0"/>
          <path id="Trazado_719436" data-name="Trazado 719436" d="M596.192,657.29a9.122,9.122,0,1,0,15.122-9.171c-.043-.043-.095-.095-.146-.138a9.124,9.124,0,0,0-14.975,9.309Zm2.609-8.422a8.4,8.4,0,0,1,7.561-2.523,8.3,8.3,0,0,1,4.314,2.161,8.4,8.4,0,1,1-11.875.362Z" transform="translate(-586.139 -645.501)" fill="#1f4d84"/>
          <g id="Grupo_1017510" data-name="Grupo 1017510" transform="translate(10.381 0.721)" opacity="0.5">
            <path id="Trazado_719437" data-name="Trazado 719437" d="M618.734,668.029a8.4,8.4,0,1,1-4.676-14.037,8.3,8.3,0,0,1,4.314,2.161A8.4,8.4,0,0,1,618.734,668.029Z" transform="translate(-604.217 -653.868)" fill="#b3cff9"/>
          </g>
        </g>
        <path id="Trazado_719438" data-name="Trazado 719438" d="M442.966,766.17c-6.416-4.573-5.882-10.67-5.882-10.67a15.328,15.328,0,0,1,5.735,6.777C442.88,763.741,442.94,765.145,442.966,766.17Z" transform="translate(-433.769 -744.723)" fill="#6980e2"/>
        <g id="Grupo_1017512" data-name="Grupo 1017512" transform="translate(3.181 7.952)">
          <path id="Trazado_719439" data-name="Trazado 719439" d="M570.684,849.908a1.691,1.691,0,0,0,.818-.508s.19.017-.034.422l-.095.189a.049.049,0,0,0,.035.06,4.152,4.152,0,0,1,1.025.017c.069.017.086.181.086.25a.675.675,0,0,1-.138.439,2.234,2.234,0,0,1-.809.422,2.5,2.5,0,0,1-1.257-.155l-.413-.189.129-.766.1.026C570.3,850.149,570.511,849.951,570.684,849.908Z" transform="translate(-558.339 -838.489)" fill="#ffb27d"/>
          <path id="Trazado_719440" data-name="Trazado 719440" d="M437.768,722.7s-5.761,1.094,1.7,9.438c1.188,1.335,7.638,3.074,7.638,3.074s.654-.56.327-1.008c0,0-4.435-3.221-5.417-3.737-.439-.233-1.705-5.141-2.42-6.321A3.237,3.237,0,0,0,437.768,722.7Z" transform="translate(-435.644 -722.7)" fill="#8c9df4"/>
        </g>
        <path id="Trazado_719441" data-name="Trazado 719441" d="M589.3,743.942a2.833,2.833,0,0,0,.224-.551,3.163,3.163,0,0,1,.37-.844c.043-.043.172.009.181.181a.851.851,0,0,1-.095.362,3.983,3.983,0,0,0-.121.723C589.774,744.106,589.3,743.942,589.3,743.942Z" transform="translate(-572.886 -732.873)" fill="#ffb27d"/>
      </g>
      <g id="Grupo_1017515" data-name="Grupo 1017515" transform="translate(217.829 188.839)">
        <path id="Trazado_719442" data-name="Trazado 719442" d="M810.3,1116.777c0,.095.009.2.017.293a2.362,2.362,0,0,0,.267.844,2.543,2.543,0,0,0,.4.542,2.369,2.369,0,0,0,1.679.7H846.1a2.377,2.377,0,0,0,0-4.753H812.677A2.376,2.376,0,0,0,810.3,1116.777Z" transform="translate(-810.3 -1113.246)" fill="#2b478b"/>
        <path id="Trazado_719443" data-name="Trazado 719443" d="M836.058,1101.724H847.52a.364.364,0,0,0,.362-.362h0a.364.364,0,0,0-.362-.362H836.058a.364.364,0,0,0-.362.362h0A.353.353,0,0,0,836.058,1101.724Z" transform="translate(-833.509 -1101)" fill="#2b478b"/>
        <rect id="Rectángulo_375627" data-name="Rectángulo 375627" width="1.24" height="0.431" transform="translate(4.423 1.155) rotate(180)" fill="#233862"/>
        <path id="Trazado_719444" data-name="Trazado 719444" d="M813.6,1155.2a2.551,2.551,0,0,0,.4.542,2.369,2.369,0,0,0,1.679.7h7.079v-1.24Z" transform="translate(-813.316 -1150.532)" fill="#233862"/>
        <path id="Trazado_719445" data-name="Trazado 719445" d="M899.884,1116.079v1.4a1.466,1.466,0,0,1-.06.439,1.674,1.674,0,0,1-1.619,1.24H863.379a1.674,1.674,0,0,1-1.619-1.24,1.8,1.8,0,0,1-.06-.439v-1.4a1.676,1.676,0,0,1,1.679-1.679H898.2A1.681,1.681,0,0,1,899.884,1116.079Z" transform="translate(-857.274 -1113.246)" fill="#f99746"/>
        <path id="Trazado_719446" data-name="Trazado 719446" d="M900.463,1155.2a1.674,1.674,0,0,1-1.619,1.24H864.019a1.674,1.674,0,0,1-1.619-1.24Z" transform="translate(-857.913 -1150.532)" fill="#ef873a"/>
        <g id="Grupo_1017514" data-name="Grupo 1017514" transform="translate(39.148 1.145)">
          <path id="Trazado_719447" data-name="Trazado 719447" d="M1264.9,1116.694a2.643,2.643,0,0,0,.689,1.834l.026.026a1.677,1.677,0,0,0,1.2.517c.706,0,2.454-1.068,3.539-1.774.542-.353.913-.611.913-.611s-.379-.267-.913-.611c-1.085-.706-2.833-1.774-3.539-1.774a1.646,1.646,0,0,0-.586.112,1.978,1.978,0,0,0-.809.637,2.568,2.568,0,0,0-.482,1.163v.017A4.222,4.222,0,0,0,1264.9,1116.694Z" transform="translate(-1264.9 -1114.3)" fill="#8c9df4"/>
          <path id="Trazado_719448" data-name="Trazado 719448" d="M1264.9,1137.256a2.642,2.642,0,0,0,.689,1.834l5.356-1.843-6.02-.448C1264.917,1136.947,1264.9,1137.1,1264.9,1137.256Z" transform="translate(-1264.9 -1134.862)" fill="#6980e2"/>
          <path id="Trazado_719449" data-name="Trazado 719449" d="M1271,1116.428l5.348,1.464-4.538-2.093A1.792,1.792,0,0,0,1271,1116.428Z" transform="translate(-1270.475 -1115.671)" fill="#9fb1ff"/>
          <path id="Trazado_719450" data-name="Trazado 719450" d="M1324.1,1135.611a.647.647,0,0,0,.353.611c.542-.353.913-.611.913-.611s-.379-.267-.913-.611A.647.647,0,0,0,1324.1,1135.611Z" transform="translate(-1319.002 -1133.217)" fill="#182d4c"/>
        </g>
      </g>
      <g id="Grupo_1017517" data-name="Grupo 1017517" transform="translate(258.242 148.657)">
        <path id="Trazado_719451" data-name="Trazado 719451" d="M1359.366,634.645a2.032,2.032,0,0,0-1.593-.172c-2.713-.319-3.5,2.842-3.462,3.927a4.513,4.513,0,0,1-1.051,3.668c-3.5,4.082,3.824,4.263,3.824,4.263.06-3.264,3.97-2.067,3.8-1.74C1365.893,645.8,1361.381,635.687,1359.366,634.645Z" transform="translate(-1346.052 -634.385)" fill="#163560"/>
        <path id="Trazado_719452" data-name="Trazado 719452" d="M1282.463,778.541s-.474-.723-.861-.741-1.094-.215-1.042-.069.5.155.543.241-.655.215-.853.224-.672,0-.654.1a2.267,2.267,0,0,0,1.429.456,4.1,4.1,0,0,1,1.309.172Z" transform="translate(-1279.595 -765.338)" fill="#ffb27d"/>
        <path id="Trazado_719453" data-name="Trazado 719453" d="M1316.7,728.9a6.787,6.787,0,0,1-.732,1.1,4.291,4.291,0,0,1-2.532,1.688,2.743,2.743,0,0,1-1.507-.241h0a6.888,6.888,0,0,1-2.334-1.946,1.113,1.113,0,0,1,.146-1.077,17.569,17.569,0,0,0,2.945.474,38.741,38.741,0,0,0,2.11-4.2,3.18,3.18,0,0,1,1.559-1.593Z" transform="translate(-1306.946 -715.46)" fill="#ffa561"/>
        <path id="Trazado_719454" data-name="Trazado 719454" d="M1341.539,788.122a4.29,4.29,0,0,1-2.532,1.688,2.743,2.743,0,0,1-1.507-.241,2,2,0,0,0,1.912-.775c.542-.964,1.128-2.506,1.929-1.989C1341.685,787.02,1341.668,787.571,1341.539,788.122Z" transform="translate(-1332.513 -773.584)" fill="#f4904d"/>
        <path id="Trazado_719455" data-name="Trazado 719455" d="M1477.93,1123.653s.818.749.663,1.283-.9.887-1,1.533-.5,1.007-.861,1.007h-1.714s-.267-.456.379-.594.878-.9.844-1.61a11.907,11.907,0,0,1,.06-1.653l1.36-.319Z" transform="translate(-1458.141 -1081.197)" fill="#1c4b8e"/>
        <path id="Trazado_719456" data-name="Trazado 719456" d="M1379.076,1131s.293,3.169-.069,3.35l-4.607-.009s0-.534.74-.646,2.041-.551,2.265-1.516S1379.076,1131,1379.076,1131Z" transform="translate(-1366.236 -1088.234)" fill="#1c4b8e"/>
        <path id="Trazado_719457" data-name="Trazado 719457" d="M1381.391,722.639a18.21,18.21,0,0,1,0,2.127,6.16,6.16,0,0,1-.939,2.058c-.276.637-.594.741-.594.741l-2.42.594-.853.207-2.687-.8s-1.223-3.41-.732-5.331a14.8,14.8,0,0,1,1.24-3.255,10.285,10.285,0,0,1,5.038-.181Z" transform="translate(-1365.003 -711.348)" fill="#ffa561"/>
        <path id="Trazado_719458" data-name="Trazado 719458" d="M1416.189,785.584a7.8,7.8,0,0,1-.224,1.74c-.276.637-.594.741-.594.741l-2.42.594-1.051-.31s3.5-.534,3.117-3.548Z" transform="translate(-1400.506 -771.847)" fill="#f2ccaa"/>
        <path id="Trazado_719459" data-name="Trazado 719459" d="M1369.99,828.8a39.882,39.882,0,0,0-1.412,5.546c-.086,1.412,2.541,20,2.644,20.651.1.611.861,1,.861,1a1.153,1.153,0,0,0,.844.069,2.179,2.179,0,0,0,.913-.431s1.033-13.262.4-18a75.521,75.521,0,0,1-.646-8.835h-3.6Z" transform="translate(-1360.913 -812.058)" fill="#6980e2"/>
        <path id="Trazado_719460" data-name="Trazado 719460" d="M1395.306,827.4s2.024,2.721,2.213,4.555.293,8.293.7,10.084,1.886,5.244,1.886,10.833a1.129,1.129,0,0,1-.629.491c-.155.052-.353.1-.551.155a.879.879,0,0,1-.973-.465c-1-2.015-4.185-8.508-4.349-9.852-.112-.956-1.12-7.268-3.315-10.971-.525-.887.327-4.426.327-4.426Z" transform="translate(-1380.597 -810.778)" fill="#8c9df4"/>
        <path id="Trazado_719461" data-name="Trazado 719461" d="M1381.8,821.4a2.769,2.769,0,0,0,1.593.439c1.266.026,4.4-.319,4.4-.319a2.714,2.714,0,0,1,.138.8s-3.832.964-6.054.138A1.4,1.4,0,0,1,1381.8,821.4Z" transform="translate(-1372.93 -805.295)" fill="#233862"/>
        <g id="Grupo_1017516" data-name="Grupo 1017516" transform="translate(9.577 16.329)">
          <path id="Trazado_719462" data-name="Trazado 719462" d="M1391.377,825.309a.66.66,0,1,1,.577-.654A.619.619,0,0,1,1391.377,825.309Zm0-1.111a.473.473,0,1,0,.387.465A.43.43,0,0,0,1391.377,824.2Z" transform="translate(-1390.8 -824)" fill="#fff"/>
        </g>
        <path id="Trazado_719463" data-name="Trazado 719463" d="M1410.817,775.846l-3.109,2.713a.534.534,0,0,1-.758-.052l-3.97-4.555a.534.534,0,0,1,.052-.758l3.109-2.713a.534.534,0,0,1,.758.052l3.97,4.555A.542.542,0,0,1,1410.817,775.846Z" transform="translate(-1392.233 -758.639)" fill="#2b478b"/>
        <path id="Trazado_719464" data-name="Trazado 719464" d="M1424.354,830.2c-.043.009-1.653.2-1.653.534a1.009,1.009,0,0,0,.913.878,5.191,5.191,0,0,0,1.008-.775Z" transform="translate(-1410.376 -813.337)" fill="#ffb27d"/>
        <path id="Trazado_719465" data-name="Trazado 719465" d="M1406.116,698.255a5.3,5.3,0,0,1-.284-1.955l-.121.026-2.041.4s.043.646.052,1.249V698c0,.525-.353,1.051.491,1.266C1404.463,699.314,1406.5,699.185,1406.116,698.255Z" transform="translate(-1392.966 -690.968)" fill="#ffb27d"/>
        <path id="Trazado_719466" data-name="Trazado 719466" d="M1403.9,696.9s.043.646.052,1.249a2.433,2.433,0,0,0,2-1.653Z" transform="translate(-1393.195 -691.151)" fill="#e8945b"/>
        <path id="Trazado_719467" data-name="Trazado 719467" d="M1389.774,659.53s2.7.043,2.7-1.636.353-2.816-1.378-2.911-2.067.543-2.2,1.1S1389.077,659.47,1389.774,659.53Z" transform="translate(-1379.457 -653.2)" fill="#ffb27d"/>
        <path id="Trazado_719468" data-name="Trazado 719468" d="M1400.6,650.872s.741,1.981,1.877,2.265a2.243,2.243,0,0,0,1.628-.009,3.207,3.207,0,0,1-1.051-1.9S1401.16,649.933,1400.6,650.872Z" transform="translate(-1390.179 -649.139)" fill="#163560"/>
        <path id="Trazado_719469" data-name="Trazado 719469" d="M1388.2,652.983a1.686,1.686,0,0,0-.775.6,2.64,2.64,0,0,0-.362,1.55s-.56-1.343.069-2.1C1387.8,652.225,1388.2,652.983,1388.2,652.983Z" transform="translate(-1377.599 -651.087)" fill="#163560"/>
        <path id="Trazado_719470" data-name="Trazado 719470" d="M1430.294,829.22a1.914,1.914,0,0,0-.646-.086c-.258.034-.448-.009-.448.069s.336.1.4.138A3.551,3.551,0,0,0,1430.294,829.22Z" transform="translate(-1416.317 -812.358)" fill="#ffb27d"/>
        <path id="Trazado_719471" data-name="Trazado 719471" d="M1438.3,721a3.275,3.275,0,0,1,2.652,1.92,53.505,53.505,0,0,1,2.136,5.3c0,.508-.784,2.067-4.969,2.962,0,0-.431-.456-.4-.818a22.689,22.689,0,0,0,2.609-2.506c-.017-.5-.431-1.154-2.721-3.445C1436.977,723.782,1438.3,721,1438.3,721Z" transform="translate(-1423.844 -713.541)" fill="#ffa561"/>
      </g>
      <g id="Grupo_1017521" data-name="Grupo 1017521" transform="translate(200.422 102.886)">
        <g id="Grupo_1017518" data-name="Grupo 1017518" transform="translate(0 0)">
          <path id="Trazado_719472" data-name="Trazado 719472" d="M642.991,102.931a3.757,3.757,0,0,0-2.515.474c-.973.732-1.137.5-1.688.956s.017,1-.293,1.3a.622.622,0,0,0,.138,1.042c.448.155.146.973,1.12,1.085s.542.56,1.464.629a8.374,8.374,0,0,1,2.179.3.767.767,0,0,0,1.068-.379c.138-.37.534.112.646-.4s-.293-.706-.069-1.119C645.282,106.41,645.842,103.482,642.991,102.931Z" transform="translate(-635.686 -102.886)" fill="#233862"/>
          <path id="Trazado_719473" data-name="Trazado 719473" d="M722.87,410.236a.387.387,0,0,0-.069.4h0a2.627,2.627,0,0,0,.81.87c.052.034.095.078.129.1l.026.026c.009.009.017.017.026.017.353.319.224.4.861,1.051.723.741,1.223.758,1.361.68.121-.06-.129-.456-.4-.9a.479.479,0,0,1-.043-.069,2.051,2.051,0,0,0-.112-.181c-.319-.534-.241-.784-.172-1.585.06-.646.982-3.634.982-3.634l-1.378-.224s-.4,2.377-.853,2.747c-.241.2-.517.2-.749.344a.18.18,0,0,0-.052.034A2.14,2.14,0,0,0,722.87,410.236Z" transform="translate(-712.904 -380.628)" fill="#ffb27d"/>
          <path id="Trazado_719474" data-name="Trazado 719474" d="M722.87,443.044a.387.387,0,0,0-.069.4h0a2.939,2.939,0,0,0,.81.87c.052.043.086.078.129.112l.026.026c.009.009.017.017.026.017.353.319.224.4.861,1.051.723.741,1.223.758,1.361.68.121-.06-.129-.456-.4-.9a3.106,3.106,0,0,1-1.292-.939c-.439-.551-.732-1.257-1.033-1.671a.18.18,0,0,0-.052.034A2.136,2.136,0,0,0,722.87,443.044Z" transform="translate(-712.904 -413.437)" fill="#233862"/>
          <path id="Trazado_719475" data-name="Trazado 719475" d="M841.028,404.18c.086.422.7.353,1.369.181s.517.026,1.481-.086,1.257-.474,1.283-.62c.026-.129-.448-.172-.964-.224l-.189-.026a4.208,4.208,0,0,1-1.533-.741,6.071,6.071,0,0,1-1.249-1.464l-1.326.112s.7,1.051.973,1.507a1.582,1.582,0,0,1,.138.9A1.625,1.625,0,0,0,841.028,404.18Z" transform="translate(-819.945 -375.511)" fill="#ffb27d"/>
          <path id="Trazado_719476" data-name="Trazado 719476" d="M854.1,428.03c.68-.172.517.026,1.481-.086s1.257-.474,1.283-.62c.026-.129-.448-.172-.964-.224l-.009.009a2.735,2.735,0,0,1-1.378.439c-.654.017-1.352-.164-1.8-.155a1.639,1.639,0,0,0,.017.456C852.822,428.271,853.424,428.194,854.1,428.03Z" transform="translate(-831.652 -399.18)" fill="#233862"/>
          <path id="Trazado_719477" data-name="Trazado 719477" d="M745.7,315.612l-1.214,3.341L742.9,323.31a2.766,2.766,0,0,1-.861-.069,3.947,3.947,0,0,1-.835-.4,47.109,47.109,0,0,1,1.231-7.354,4.741,4.741,0,0,1,.706-1.559C744.429,312.382,745.7,315.612,745.7,315.612Z" transform="translate(-729.744 -295.373)" fill="#ed7d2b"/>
          <path id="Trazado_719478" data-name="Trazado 719478" d="M651.818,270.486c-.81-.258-3.117.095-5.443.568l-.491-.8-5.021-.353s-1.567,3.479-.706,6.011c.164.491.973.508.973.508s2.936.034,3.91.026c2.5-.017,5.27-1.748,5.623-1.826.586-.121.835,1.059,1.43,2.291s5.58,5.443,5.58,5.443a4.412,4.412,0,0,0,1.076-.121,1.05,1.05,0,0,0,.456-.293S653.652,271.063,651.818,270.486Z" transform="translate(-637.167 -255.518)" fill="#f99746"/>
          <path id="Trazado_719479" data-name="Trazado 719479" d="M665.053,154.5a2.349,2.349,0,0,1-1.473.052,2.619,2.619,0,0,1-.982-1.154c.25-.017.534-.241.732-1.7l.112.034,1.817.637s-.129.586-.207,1.137C664.993,153.982,664.95,154.43,665.053,154.5Z" transform="translate(-657.912 -147.496)" fill="#ffb27d"/>
          <path id="Trazado_719480" data-name="Trazado 719480" d="M674.226,152.746s-.078.413-.189.99A2.128,2.128,0,0,1,672.4,152.1Z" transform="translate(-666.869 -147.862)" fill="#ed975d"/>
          <path id="Trazado_719481" data-name="Trazado 719481" d="M672.614,120.023s-2.489-.319-2.265-1.86.052-2.627,1.645-2.489,1.817.766,1.869,1.3S673.26,120.066,672.614,120.023Z" transform="translate(-664.981 -114.562)" fill="#ffb27d"/>
          <path id="Trazado_719482" data-name="Trazado 719482" d="M666.151,114.592a7,7,0,0,1-2.661,1.5,2.044,2.044,0,0,1-1.49-.224,4.122,4.122,0,0,0,1.008-1.4.777.777,0,0,1,.62-.456C664.4,113.946,665.867,113.9,666.151,114.592Z" transform="translate(-657.365 -113.023)" fill="#233862"/>
          <path id="Trazado_719483" data-name="Trazado 719483" d="M698.6,116.527a3.952,3.952,0,0,1,.706.887,3.088,3.088,0,0,1,.095,1.6s.818-1.619.344-2.394A.666.666,0,0,0,698.6,116.527Z" transform="translate(-690.813 -115.079)" fill="#233862"/>
          <path id="Trazado_719484" data-name="Trazado 719484" d="M644.893,175.494c-.043,5.029.009,3.979-.543,4.461a2.14,2.14,0,0,1-.99.224c-1.541.112-4.254-.121-4.357-.4-.362-.982-.112-1.292-.422-2.8-.034-.164-.069-.336-.121-.525a3.133,3.133,0,0,1,.37-3.057,12.817,12.817,0,0,1,1.679-2.7c2.11,1.231,2.273.181,2.273.181S644.91,173.039,644.893,175.494Z" transform="translate(-635.633 -164.849)" fill="#8c9df4"/>
          <path id="Trazado_719485" data-name="Trazado 719485" d="M744.481,339.962l-1.584,4.357a2.768,2.768,0,0,1-.861-.069,3.948,3.948,0,0,1-.835-.4,47.114,47.114,0,0,1,1.231-7.354Z" transform="translate(-729.744 -316.382)" fill="#f99746"/>
          <path id="Trazado_719486" data-name="Trazado 719486" d="M691.2,172.8s2.161.353,2.428,1.283,1.791,6.39,1.791,6.39-1.094.207-1.61-.3-1.8-4.693-1.8-4.693Z" transform="translate(-684.05 -166.779)" fill="#8c9df4"/>
          <path id="Trazado_719487" data-name="Trazado 719487" d="M647.179,224.6c-1.541.112-4.254-.121-4.357-.4-.362-.982-.112-1.292-.422-2.8l.732-2.1s-.1,2.334.586,2.945,2.825,1.163,3.16,1.671A1.931,1.931,0,0,1,647.179,224.6Z" transform="translate(-639.453 -209.275)" fill="#6980e2"/>
          <path id="Trazado_719488" data-name="Trazado 719488" d="M677.3,267.077a6.285,6.285,0,0,1,1.765-.215,3.457,3.457,0,0,1,.93.792c.078.172-.551-.129-.749-.181a1.771,1.771,0,0,0-.646.146,2.146,2.146,0,0,1-1.154.121Z" transform="translate(-671.347 -252.711)" fill="#ffb27d"/>
          <path id="Trazado_719489" data-name="Trazado 719489" d="M613.049,170.7s-2.041.138-2.739,1.128c-.99,1.4-2.928,7.328-1.791,8.112,1.283.878,5.8.189,5.8.189a1.809,1.809,0,0,0-.069-1.042c-.215-.336-3.625-.861-3.78-1.025s1.946-3.083,1.938-3.548S613.049,170.7,613.049,170.7Z" transform="translate(-608.173 -164.86)" fill="#8c9df4"/>
          <path id="Trazado_719490" data-name="Trazado 719490" d="M698.7,272.1a2.809,2.809,0,0,0,.431.456.271.271,0,0,0,.172.034l-.215-.388Z" transform="translate(-690.904 -257.528)" fill="#ffb27d"/>
          <path id="Trazado_719491" data-name="Trazado 719491" d="M697.8,267.1l.93.448a.164.164,0,0,1-.155.06,2.626,2.626,0,0,1-.4-.112Z" transform="translate(-690.082 -252.959)" fill="#ffb27d"/>
        </g>
        <g id="Grupo_1017520" data-name="Grupo 1017520" transform="translate(5.755 10.137)">
          <g id="Grupo_1017519" data-name="Grupo 1017519">
            <path id="Trazado_719492" data-name="Trazado 719492" d="M701.3,226.154l7.337-.052,2.17-5.5-7.328.052Z" transform="translate(-699.035 -220.6)" fill="#233862"/>
            <path id="Trazado_719493" data-name="Trazado 719493" d="M684.688,282l-9.688.069v.215l9.6-.069Z" transform="translate(-675 -276.713)" fill="#233862"/>
          </g>
          <path id="Trazado_719494" data-name="Trazado 719494" d="M757.264,249.144a.254.254,0,0,0-.25-.344.5.5,0,0,0-.448.353.254.254,0,0,0,.25.344A.516.516,0,0,0,757.264,249.144Z" transform="translate(-749.531 -246.372)" fill="#ebf3fa"/>
        </g>
      </g>
      <path id="Trazado_719495" data-name="Trazado 719495" d="M265.355,1106.29H270.7c.284-.241-.2-.792-.706-.835a3.019,3.019,0,0,0-.818.095c-.077-.982-.491-5.374-2.075-5.2-1.783.2,0,1.938.5,2.962.37.766.766,1.852.947,2.368-.146.034-.293.06-.448.086-.232-.723-1.111-3.16-2.23-3.023-1.309.164-.784,1.146.146,1.722.68.431,1.524,1.033,1.92,1.326a5.964,5.964,0,0,1-1.051.086A2.334,2.334,0,0,0,265.355,1106.29Z" transform="translate(-94.21 -911.56)" fill="#a8d29f"/>
      <path id="Trazado_719496" data-name="Trazado 719496" d="M1549.211,1099.508h-5.925c-.319-.267.215-.878.784-.921a3.769,3.769,0,0,1,.9.1c.078-1.085.542-5.951,2.3-5.753,1.972.215,0,2.144-.56,3.281a26.273,26.273,0,0,0-1.051,2.627l.491.1c.258-.8,1.231-3.5,2.471-3.341,1.455.181.87,1.266-.164,1.912-.758.474-1.679,1.145-2.118,1.464a6.4,6.4,0,0,0,1.154.095A2.446,2.446,0,0,1,1549.211,1099.508Z" transform="translate(-1262.249 -904.787)" fill="#a8d29f"/>
      <path id="Trazado_719497" data-name="Trazado 719497" d="M295.376,1169.548H162.224a.228.228,0,0,1-.224-.224h0a.228.228,0,0,1,.224-.224H295.376a.228.228,0,0,1,.224.224h0A.222.222,0,0,1,295.376,1169.548Z" transform="translate(0 -974.396)" fill="#233862"/>
    </g>
  </g>
</svg>
